<?xml version="1.0" encoding="UTF-8" standalone="no"?><svg xmlns="http://www.w3.org/2000/svg" xmlns:xlink="http://www.w3.org/1999/xlink" clip-rule="evenodd" stroke-miterlimit="4.00" viewBox="0 0 1024 768"><desc>SVG generated by Keynote</desc><defs></defs><g transform="matrix(1.00, 0.00, -0.00, -1.00, 0.0, 768.0)"><path d="M 0.0 768.0 L 1024.0 768.0 L 1024.0 0.0 L 0.0 0.0 Z M 0.0 768.0 " fill="#FFFFFF"></path><path d="M 0.0 0.0 L 425.0 0.0 " fill="none" stroke="#747676" stroke-width="3.00" stroke-linecap="round" stroke-linejoin="round" stroke-dasharray="0.0, 9.0" transform="matrix(1.00, 0.00, 0.00, -1.00, 553.0, 644.0)"></path><text xml:space="preserve" font-family="DINCondensed-Bold" font-weight="bold" font-size="40.6" fill="#747676" transform="matrix(1.00, 0.00, -0.00, -1.00, 557.0, 678.0)">J</text><text xml:space="preserve" font-family="DINCondensed-Bold" font-weight="bold" font-size="40.6" fill="#747676" transform="matrix(1.00, 0.00, -0.00, -1.00, 570.5, 678.0)">S</text><text xml:space="preserve" font-family="DINCondensed-Bold" font-weight="bold" font-size="40.6" fill="#747676" transform="matrix(1.00, 0.00, -0.00, -1.00, 587.0, 678.0)">O</text><text xml:space="preserve" font-family="DINCondensed-Bold" font-weight="bold" font-size="40.6" fill="#747676" transform="matrix(1.00, 0.00, -0.00, -1.00, 604.3, 678.0)">F</text><text xml:space="preserve" font-family="DINCondensed-Bold" font-weight="bold" font-size="40.6" fill="#747676" transform="matrix(1.00, 0.00, -0.00, -1.00, 619.3, 678.0)">F</text><text xml:space="preserve" font-family="DINCondensed-Bold" font-weight="bold" font-size="40.6" fill="#747676" transform="matrix(1.00, 0.00, -0.00, -1.00, 634.3, 678.0)"> </text><text xml:space="preserve" font-family="DINCondensed-Bold" font-weight="bold" font-size="40.6" fill="#747676" transform="matrix(1.00, 0.00, -0.00, -1.00, 641.8, 678.0)">-</text><text xml:space="preserve" font-family="DINCondensed-Bold" font-weight="bold" font-size="40.6" fill="#747676" transform="matrix(1.00, 0.00, -0.00, -1.00, 657.6, 678.0)"> </text><text xml:space="preserve" font-family="DINCondensed-Bold" font-weight="bold" font-size="40.6" fill="#747676" transform="matrix(1.00, 0.00, -0.00, -1.00, 665.1, 678.0)">A</text><text xml:space="preserve" font-family="DINCondensed-Bold" font-weight="bold" font-size="40.6" fill="#747676" transform="matrix(1.00, 0.00, -0.00, -1.00, 681.6, 678.0)"> </text><text xml:space="preserve" font-family="DINCondensed-Bold" font-weight="bold" font-size="40.6" fill="#747676" transform="matrix(1.00, 0.00, -0.00, -1.00, 689.2, 678.0)">W</text><text xml:space="preserve" font-family="DINCondensed-Bold" font-weight="bold" font-size="40.6" fill="#747676" transform="matrix(1.00, 0.00, -0.00, -1.00, 712.8, 678.0)">O</text><text xml:space="preserve" font-family="DINCondensed-Bold" font-weight="bold" font-size="40.6" fill="#747676" transform="matrix(1.00, 0.00, -0.00, -1.00, 730.0, 678.0)">R</text><text xml:space="preserve" font-family="DINCondensed-Bold" font-weight="bold" font-size="40.6" fill="#747676" transform="matrix(1.00, 0.00, -0.00, -1.00, 747.3, 678.0)">L</text><text xml:space="preserve" font-family="DINCondensed-Bold" font-weight="bold" font-size="40.6" fill="#747676" transform="matrix(1.00, 0.00, -0.00, -1.00, 762.3, 678.0)">D</text><text xml:space="preserve" font-family="DINCondensed-Bold" font-weight="bold" font-size="40.6" fill="#747676" transform="matrix(1.00, 0.00, -0.00, -1.00, 779.6, 678.0)"> </text><text xml:space="preserve" font-family="DINCondensed-Bold" font-weight="bold" font-size="40.6" fill="#747676" transform="matrix(1.00, 0.00, -0.00, -1.00, 787.1, 678.0)">W</text><text xml:space="preserve" font-family="DINCondensed-Bold" font-weight="bold" font-size="40.6" fill="#747676" transform="matrix(1.00, 0.00, -0.00, -1.00, 811.2, 678.0)">I</text><text xml:space="preserve" font-family="DINCondensed-Bold" font-weight="bold" font-size="40.6" fill="#747676" transform="matrix(1.00, 0.00, -0.00, -1.00, 819.5, 678.0)">T</text><text xml:space="preserve" font-family="DINCondensed-Bold" font-weight="bold" font-size="40.6" fill="#747676" transform="matrix(1.00, 0.00, -0.00, -1.00, 832.9, 678.0)">H</text><text xml:space="preserve" font-family="DINCondensed-Bold" font-weight="bold" font-size="40.6" fill="#747676" transform="matrix(1.00, 0.00, -0.00, -1.00, 850.2, 678.0)">O</text><text xml:space="preserve" font-family="DINCondensed-Bold" font-weight="bold" font-size="40.6" fill="#747676" transform="matrix(1.00, 0.00, -0.00, -1.00, 867.5, 678.0)">U</text><text xml:space="preserve" font-family="DINCondensed-Bold" font-weight="bold" font-size="40.6" fill="#747676" transform="matrix(1.00, 0.00, -0.00, -1.00, 884.8, 678.0)">T</text><text xml:space="preserve" font-family="DINCondensed-Bold" font-weight="bold" font-size="40.6" fill="#747676" transform="matrix(1.00, 0.00, -0.00, -1.00, 898.2, 678.0)"> </text><text xml:space="preserve" font-family="DINCondensed-Bold" font-weight="bold" font-size="40.6" fill="#747676" transform="matrix(1.00, 0.00, -0.00, -1.00, 905.8, 678.0)">J</text><text xml:space="preserve" font-family="DINCondensed-Bold" font-weight="bold" font-size="40.6" fill="#747676" transform="matrix(1.00, 0.00, -0.00, -1.00, 919.3, 678.0)">S</text><text xml:space="preserve" font-family="DINCondensed-Bold" font-weight="bold" font-size="40.6" fill="#747676" transform="matrix(1.00, 0.00, -0.00, -1.00, 935.7, 678.0)">O</text><text xml:space="preserve" font-family="DINCondensed-Bold" font-weight="bold" font-size="40.6" fill="#747676" transform="matrix(1.00, 0.00, -0.00, -1.00, 953.0, 678.0)">N</text><text xml:space="preserve" font-family="ZapfDingbatsITC" font-size="21.0" fill="#5C5C5C" transform="matrix(1.00, 0.00, -0.00, -1.00, 557.0, 596.2)">➤</text><text xml:space="preserve" font-family="IowanOldStyle-Roman" font-size="28.0" fill="#5C5C5C" transform="matrix(1.00, 0.00, -0.00, -1.00, 589.0, 593.0)">W</text><text xml:space="preserve" font-family="IowanOldStyle-Roman" font-size="28.0" fill="#5C5C5C" transform="matrix(1.00, 0.00, -0.00, -1.00, 618.0, 593.0)">h</text><text xml:space="preserve" font-family="IowanOldStyle-Roman" font-size="28.0" fill="#5C5C5C" transform="matrix(1.00, 0.00, -0.00, -1.00, 634.4, 593.0)">y</text><text xml:space="preserve" font-family="IowanOldStyle-Roman" font-size="28.0" fill="#5C5C5C" transform="matrix(1.00, 0.00, -0.00, -1.00, 648.0, 593.0)"> </text><text xml:space="preserve" font-family="IowanOldStyle-Roman" font-size="28.0" fill="#5C5C5C" transform="matrix(1.00, 0.00, -0.00, -1.00, 655.8, 593.0)">w</text><text xml:space="preserve" font-family="IowanOldStyle-Roman" font-size="28.0" fill="#5C5C5C" transform="matrix(1.00, 0.00, -0.00, -1.00, 677.5, 593.0)">o</text><text xml:space="preserve" font-family="IowanOldStyle-Roman" font-size="28.0" fill="#5C5C5C" transform="matrix(1.00, 0.00, -0.00, -1.00, 692.9, 593.0)">u</text><text xml:space="preserve" font-family="IowanOldStyle-Roman" font-size="28.0" fill="#5C5C5C" transform="matrix(1.00, 0.00, -0.00, -1.00, 709.4, 593.0)">l</text><text xml:space="preserve" font-family="IowanOldStyle-Roman" font-size="28.0" fill="#5C5C5C" transform="matrix(1.00, 0.00, -0.00, -1.00, 717.6, 593.0)">d</text><text xml:space="preserve" font-family="IowanOldStyle-Roman" font-size="28.0" fill="#5C5C5C" transform="matrix(1.00, 0.00, -0.00, -1.00, 733.3, 593.0)"> </text><text xml:space="preserve" font-family="IowanOldStyle-Roman" font-size="28.0" fill="#5C5C5C" transform="matrix(1.00, 0.00, -0.00, -1.00, 741.1, 593.0)">w</text><text xml:space="preserve" font-family="IowanOldStyle-Roman" font-size="28.0" fill="#5C5C5C" transform="matrix(1.00, 0.00, -0.00, -1.00, 762.8, 593.0)">e</text><text xml:space="preserve" font-family="IowanOldStyle-Roman" font-size="28.0" fill="#5C5C5C" transform="matrix(1.00, 0.00, -0.00, -1.00, 776.4, 593.0)"> </text><text xml:space="preserve" font-family="IowanOldStyle-Roman" font-size="28.0" fill="#5C5C5C" transform="matrix(1.00, 0.00, -0.00, -1.00, 784.2, 593.0)">d</text><text xml:space="preserve" font-family="IowanOldStyle-Roman" font-size="28.0" fill="#5C5C5C" transform="matrix(1.00, 0.00, -0.00, -1.00, 799.9, 593.0)">o</text><text xml:space="preserve" font-family="IowanOldStyle-Roman" font-size="28.0" fill="#5C5C5C" transform="matrix(1.00, 0.00, -0.00, -1.00, 815.3, 593.0)"> </text><text xml:space="preserve" font-family="IowanOldStyle-Roman" font-size="28.0" fill="#5C5C5C" transform="matrix(1.00, 0.00, -0.00, -1.00, 823.1, 593.0)">t</text><text xml:space="preserve" font-family="IowanOldStyle-Roman" font-size="28.0" fill="#5C5C5C" transform="matrix(1.00, 0.00, -0.00, -1.00, 833.2, 593.0)">h</text><text xml:space="preserve" font-family="IowanOldStyle-Roman" font-size="28.0" fill="#5C5C5C" transform="matrix(1.00, 0.00, -0.00, -1.00, 849.6, 593.0)">i</text><text xml:space="preserve" font-family="IowanOldStyle-Roman" font-size="28.0" fill="#5C5C5C" transform="matrix(1.00, 0.00, -0.00, -1.00, 857.9, 593.0)">s</text><text xml:space="preserve" font-family="IowanOldStyle-Roman" font-size="28.0" fill="#5C5C5C" transform="matrix(1.00, 0.00, -0.00, -1.00, 870.3, 593.0)"> </text><text xml:space="preserve" font-family="IowanOldStyle-Roman" font-size="28.0" fill="#5C5C5C" transform="matrix(1.00, 0.00, -0.00, -1.00, 878.1, 593.0)">t</text><text xml:space="preserve" font-family="IowanOldStyle-Roman" font-size="28.0" fill="#5C5C5C" transform="matrix(1.00, 0.00, -0.00, -1.00, 888.1, 593.0)">o</text><text xml:space="preserve" font-family="IowanOldStyle-Roman" font-size="28.0" fill="#5C5C5C" transform="matrix(1.00, 0.00, -0.00, -1.00, 903.6, 593.0)"> </text><text xml:space="preserve" font-family="IowanOldStyle-Roman" font-size="28.0" fill="#5C5C5C" transform="matrix(1.00, 0.00, -0.00, -1.00, 589.0, 555.0)">o</text><text xml:space="preserve" font-family="IowanOldStyle-Roman" font-size="28.0" fill="#5C5C5C" transform="matrix(1.00, 0.00, -0.00, -1.00, 604.4, 555.0)">u</text><text xml:space="preserve" font-family="IowanOldStyle-Roman" font-size="28.0" fill="#5C5C5C" transform="matrix(1.00, 0.00, -0.00, -1.00, 620.9, 555.0)">r</text><text xml:space="preserve" font-family="IowanOldStyle-Roman" font-size="28.0" fill="#5C5C5C" transform="matrix(1.00, 0.00, -0.00, -1.00, 631.8, 555.0)">s</text><text xml:space="preserve" font-family="IowanOldStyle-Roman" font-size="28.0" fill="#5C5C5C" transform="matrix(1.00, 0.00, -0.00, -1.00, 644.2, 555.0)">e</text><text xml:space="preserve" font-family="IowanOldStyle-Roman" font-size="28.0" fill="#5C5C5C" transform="matrix(1.00, 0.00, -0.00, -1.00, 657.9, 555.0)">l</text><text xml:space="preserve" font-family="IowanOldStyle-Roman" font-size="28.0" fill="#5C5C5C" transform="matrix(1.00, 0.00, -0.00, -1.00, 666.0, 555.0)">v</text><text xml:space="preserve" font-family="IowanOldStyle-Roman" font-size="28.0" fill="#5C5C5C" transform="matrix(1.00, 0.00, -0.00, -1.00, 679.8, 555.0)">e</text><text xml:space="preserve" font-family="IowanOldStyle-Roman" font-size="28.0" fill="#5C5C5C" transform="matrix(1.00, 0.00, -0.00, -1.00, 693.4, 555.0)">s</text><text xml:space="preserve" font-family="IowanOldStyle-Roman" font-size="28.0" fill="#5C5C5C" transform="matrix(1.00, 0.00, -0.00, -1.00, 705.8, 555.0)">?</text><text xml:space="preserve" font-family="IowanOldStyle-Roman" font-size="28.0" fill="#5C5C5C" transform="matrix(1.00, 0.00, -0.00, -1.00, 719.0, 555.0)"> </text><text xml:space="preserve" font-family="ZapfDingbatsITC" font-size="21.0" fill="#5C5C5C" transform="matrix(1.00, 0.00, -0.00, -1.00, 557.0, 502.2)">➤</text><text xml:space="preserve" font-family="IowanOldStyle-Roman" font-size="28.0" fill="#5C5C5C" transform="matrix(1.00, 0.00, -0.00, -1.00, 589.0, 499.0)">J</text><text xml:space="preserve" font-family="IowanOldStyle-Roman" font-size="28.0" fill="#5C5C5C" transform="matrix(1.00, 0.00, -0.00, -1.00, 598.3, 499.0)">S</text><text xml:space="preserve" font-family="IowanOldStyle-Roman" font-size="28.0" fill="#5C5C5C" transform="matrix(1.00, 0.00, -0.00, -1.00, 613.4, 499.0)">O</text><text xml:space="preserve" font-family="IowanOldStyle-Roman" font-size="28.0" fill="#5C5C5C" transform="matrix(1.00, 0.00, -0.00, -1.00, 635.9, 499.0)">N</text><text xml:space="preserve" font-family="IowanOldStyle-Roman" font-size="28.0" fill="#5C5C5C" transform="matrix(1.00, 0.00, -0.00, -1.00, 658.5, 499.0)"> </text><text xml:space="preserve" font-family="IowanOldStyle-Roman" font-size="28.0" fill="#5C5C5C" transform="matrix(1.00, 0.00, -0.00, -1.00, 666.3, 499.0)">t</text><text xml:space="preserve" font-family="IowanOldStyle-Roman" font-size="28.0" fill="#5C5C5C" transform="matrix(1.00, 0.00, -0.00, -1.00, 676.4, 499.0)">a</text><text xml:space="preserve" font-family="IowanOldStyle-Roman" font-size="28.0" fill="#5C5C5C" transform="matrix(1.00, 0.00, -0.00, -1.00, 689.8, 499.0)">k</text><text xml:space="preserve" font-family="IowanOldStyle-Roman" font-size="28.0" fill="#5C5C5C" transform="matrix(1.00, 0.00, -0.00, -1.00, 704.3, 499.0)">e</text><text xml:space="preserve" font-family="IowanOldStyle-Roman" font-size="28.0" fill="#5C5C5C" transform="matrix(1.00, 0.00, -0.00, -1.00, 717.9, 499.0)">s</text><text xml:space="preserve" font-family="IowanOldStyle-Roman" font-size="28.0" fill="#5C5C5C" transform="matrix(1.00, 0.00, -0.00, -1.00, 730.3, 499.0)"> </text><text xml:space="preserve" font-family="IowanOldStyle-Roman" font-size="28.0" fill="#5C5C5C" transform="matrix(1.00, 0.00, -0.00, -1.00, 738.1, 499.0)">t</text><text xml:space="preserve" font-family="IowanOldStyle-Roman" font-size="28.0" fill="#5C5C5C" transform="matrix(1.00, 0.00, -0.00, -1.00, 748.1, 499.0)">i</text><text xml:space="preserve" font-family="IowanOldStyle-Roman" font-size="28.0" fill="#5C5C5C" transform="matrix(1.00, 0.00, -0.00, -1.00, 756.5, 499.0)">m</text><text xml:space="preserve" font-family="IowanOldStyle-Roman" font-size="28.0" fill="#5C5C5C" transform="matrix(1.00, 0.00, -0.00, -1.00, 781.1, 499.0)">e</text><text xml:space="preserve" font-family="IowanOldStyle-Roman" font-size="28.0" fill="#5C5C5C" transform="matrix(1.00, 0.00, -0.00, -1.00, 794.7, 499.0)"> </text><text xml:space="preserve" font-family="IowanOldStyle-Roman" font-size="28.0" fill="#5C5C5C" transform="matrix(1.00, 0.00, -0.00, -1.00, 802.5, 499.0)">a</text><text xml:space="preserve" font-family="IowanOldStyle-Roman" font-size="28.0" fill="#5C5C5C" transform="matrix(1.00, 0.00, -0.00, -1.00, 816.0, 499.0)">n</text><text xml:space="preserve" font-family="IowanOldStyle-Roman" font-size="28.0" fill="#5C5C5C" transform="matrix(1.00, 0.00, -0.00, -1.00, 832.3, 499.0)">d</text><text xml:space="preserve" font-family="IowanOldStyle-Roman" font-size="28.0" fill="#5C5C5C" transform="matrix(1.00, 0.00, -0.00, -1.00, 848.1, 499.0)"> </text><text xml:space="preserve" font-family="IowanOldStyle-Roman" font-size="28.0" fill="#5C5C5C" transform="matrix(1.00, 0.00, -0.00, -1.00, 855.8, 499.0)">m</text><text xml:space="preserve" font-family="IowanOldStyle-Roman" font-size="28.0" fill="#5C5C5C" transform="matrix(1.00, 0.00, -0.00, -1.00, 880.5, 499.0)">o</text><text xml:space="preserve" font-family="IowanOldStyle-Roman" font-size="28.0" fill="#5C5C5C" transform="matrix(1.00, 0.00, -0.00, -1.00, 895.9, 499.0)">n</text><text xml:space="preserve" font-family="IowanOldStyle-Roman" font-size="28.0" fill="#5C5C5C" transform="matrix(1.00, 0.00, -0.00, -1.00, 912.2, 499.0)">e</text><text xml:space="preserve" font-family="IowanOldStyle-Roman" font-size="28.0" fill="#5C5C5C" transform="matrix(1.00, 0.00, -0.00, -1.00, 925.9, 499.0)">y</text><text xml:space="preserve" font-family="IowanOldStyle-Roman" font-size="28.0" fill="#5C5C5C" transform="matrix(1.00, 0.00, -0.00, -1.00, 939.5, 499.0)"> </text><text xml:space="preserve" font-family="IowanOldStyle-Roman" font-size="28.0" fill="#5C5C5C" transform="matrix(1.00, 0.00, -0.00, -1.00, 947.3, 499.0)">t</text><text xml:space="preserve" font-family="IowanOldStyle-Roman" font-size="28.0" fill="#5C5C5C" transform="matrix(1.00, 0.00, -0.00, -1.00, 957.3, 499.0)">o</text><text xml:space="preserve" font-family="IowanOldStyle-Roman" font-size="28.0" fill="#5C5C5C" transform="matrix(1.00, 0.00, -0.00, -1.00, 972.8, 499.0)"> </text><text xml:space="preserve" font-family="IowanOldStyle-Roman" font-size="28.0" fill="#5C5C5C" transform="matrix(1.00, 0.00, -0.00, -1.00, 589.0, 461.0)">d</text><text xml:space="preserve" font-family="IowanOldStyle-Roman" font-size="28.0" fill="#5C5C5C" transform="matrix(1.00, 0.00, -0.00, -1.00, 604.7, 461.0)">e</text><text xml:space="preserve" font-family="IowanOldStyle-Roman" font-size="28.0" fill="#5C5C5C" transform="matrix(1.00, 0.00, -0.00, -1.00, 618.4, 461.0)">s</text><text xml:space="preserve" font-family="IowanOldStyle-Roman" font-size="28.0" fill="#5C5C5C" transform="matrix(1.00, 0.00, -0.00, -1.00, 630.8, 461.0)">e</text><text xml:space="preserve" font-family="IowanOldStyle-Roman" font-size="28.0" fill="#5C5C5C" transform="matrix(1.00, 0.00, -0.00, -1.00, 644.4, 461.0)">r</text><text xml:space="preserve" font-family="IowanOldStyle-Roman" font-size="28.0" fill="#5C5C5C" transform="matrix(1.00, 0.00, -0.00, -1.00, 655.4, 461.0)">i</text><text xml:space="preserve" font-family="IowanOldStyle-Roman" font-size="28.0" fill="#5C5C5C" transform="matrix(1.00, 0.00, -0.00, -1.00, 663.7, 461.0)">a</text><text xml:space="preserve" font-family="IowanOldStyle-Roman" font-size="28.0" fill="#5C5C5C" transform="matrix(1.00, 0.00, -0.00, -1.00, 677.1, 461.0)">l</text><text xml:space="preserve" font-family="IowanOldStyle-Roman" font-size="28.0" fill="#5C5C5C" transform="matrix(1.00, 0.00, -0.00, -1.00, 685.3, 461.0)">i</text><text xml:space="preserve" font-family="IowanOldStyle-Roman" font-size="28.0" fill="#5C5C5C" transform="matrix(1.00, 0.00, -0.00, -1.00, 693.6, 461.0)">s</text><text xml:space="preserve" font-family="IowanOldStyle-Roman" font-size="28.0" fill="#5C5C5C" transform="matrix(1.00, 0.00, -0.00, -1.00, 706.0, 461.0)">e</text><text xml:space="preserve" font-family="IowanOldStyle-Roman" font-size="28.0" fill="#5C5C5C" transform="matrix(1.00, 0.00, -0.00, -1.00, 719.7, 461.0)"> </text><text xml:space="preserve" font-family="IowanOldStyle-Roman" font-size="28.0" fill="#5C5C5C" transform="matrix(1.00, 0.00, -0.00, -1.00, 727.5, 461.0)"> </text><text xml:space="preserve" font-family="ZapfDingbatsITC" font-size="21.0" fill="#5C5C5C" transform="matrix(1.00, 0.00, -0.00, -1.00, 557.0, 408.2)">➤</text><text xml:space="preserve" font-family="IowanOldStyle-Roman" font-size="28.0" fill="#5C5C5C" transform="matrix(1.00, 0.00, -0.00, -1.00, 589.0, 405.0)">F</text><text xml:space="preserve" font-family="IowanOldStyle-Roman" font-size="28.0" fill="#5C5C5C" transform="matrix(1.00, 0.00, -0.00, -1.00, 605.4, 405.0)">l</text><text xml:space="preserve" font-family="IowanOldStyle-Roman" font-size="28.0" fill="#5C5C5C" transform="matrix(1.00, 0.00, -0.00, -1.00, 613.6, 405.0)">a</text><text xml:space="preserve" font-family="IowanOldStyle-Roman" font-size="28.0" fill="#5C5C5C" transform="matrix(1.00, 0.00, -0.00, -1.00, 627.0, 405.0)">t</text><text xml:space="preserve" font-family="IowanOldStyle-Roman" font-size="28.0" fill="#5C5C5C" transform="matrix(1.00, 0.00, -0.00, -1.00, 637.1, 405.0)"> </text><text xml:space="preserve" font-family="IowanOldStyle-Roman" font-size="28.0" fill="#5C5C5C" transform="matrix(1.00, 0.00, -0.00, -1.00, 644.9, 405.0)">b</text><text xml:space="preserve" font-family="IowanOldStyle-Roman" font-size="28.0" fill="#5C5C5C" transform="matrix(1.00, 0.00, -0.00, -1.00, 660.4, 405.0)">u</text><text xml:space="preserve" font-family="IowanOldStyle-Roman" font-size="28.0" fill="#5C5C5C" transform="matrix(1.00, 0.00, -0.00, -1.00, 676.9, 405.0)">f</text><text xml:space="preserve" font-family="IowanOldStyle-Roman" font-size="28.0" fill="#5C5C5C" transform="matrix(1.00, 0.00, -0.00, -1.00, 685.9, 405.0)">f</text><text xml:space="preserve" font-family="IowanOldStyle-Roman" font-size="28.0" fill="#5C5C5C" transform="matrix(1.00, 0.00, -0.00, -1.00, 694.8, 405.0)">e</text><text xml:space="preserve" font-family="IowanOldStyle-Roman" font-size="28.0" fill="#5C5C5C" transform="matrix(1.00, 0.00, -0.00, -1.00, 708.5, 405.0)">r</text><text xml:space="preserve" font-family="IowanOldStyle-Roman" font-size="28.0" fill="#5C5C5C" transform="matrix(1.00, 0.00, -0.00, -1.00, 719.4, 405.0)">s</text><text xml:space="preserve" font-family="IowanOldStyle-Roman" font-size="28.0" fill="#5C5C5C" transform="matrix(1.00, 0.00, -0.00, -1.00, 731.8, 405.0)"> </text><text xml:space="preserve" font-family="IowanOldStyle-Roman" font-size="28.0" fill="#5C5C5C" transform="matrix(1.00, 0.00, -0.00, -1.00, 739.6, 405.0)">d</text><text xml:space="preserve" font-family="IowanOldStyle-Roman" font-size="28.0" fill="#5C5C5C" transform="matrix(1.00, 0.00, -0.00, -1.00, 755.3, 405.0)">o</text><text xml:space="preserve" font-family="IowanOldStyle-Roman" font-size="28.0" fill="#5C5C5C" transform="matrix(1.00, 0.00, -0.00, -1.00, 770.7, 405.0)"> </text><text xml:space="preserve" font-family="IowanOldStyle-Roman" font-size="28.0" fill="#5C5C5C" transform="matrix(1.00, 0.00, -0.00, -1.00, 778.5, 405.0)">n</text><text xml:space="preserve" font-family="IowanOldStyle-Roman" font-size="28.0" fill="#5C5C5C" transform="matrix(1.00, 0.00, -0.00, -1.00, 794.8, 405.0)">o</text><text xml:space="preserve" font-family="IowanOldStyle-Roman" font-size="28.0" fill="#5C5C5C" transform="matrix(1.00, 0.00, -0.00, -1.00, 810.2, 405.0)">t</text><text xml:space="preserve" font-family="IowanOldStyle-Roman" font-size="28.0" fill="#5C5C5C" transform="matrix(1.00, 0.00, -0.00, -1.00, 820.3, 405.0)"> </text><text xml:space="preserve" font-family="ZapfDingbatsITC" font-size="21.0" fill="#5C5C5C" transform="matrix(1.00, 0.00, -0.00, -1.00, 557.0, 352.2)">➤</text><text xml:space="preserve" font-family="IowanOldStyle-Roman" font-size="28.0" fill="#5C5C5C" transform="matrix(1.00, 0.00, -0.00, -1.00, 589.0, 349.0)">h</text><text xml:space="preserve" font-family="IowanOldStyle-Roman" font-size="28.0" fill="#5C5C5C" transform="matrix(1.00, 0.00, -0.00, -1.00, 605.4, 349.0)">t</text><text xml:space="preserve" font-family="IowanOldStyle-Roman" font-size="28.0" fill="#5C5C5C" transform="matrix(1.00, 0.00, -0.00, -1.00, 615.5, 349.0)">t</text><text xml:space="preserve" font-family="IowanOldStyle-Roman" font-size="28.0" fill="#5C5C5C" transform="matrix(1.00, 0.00, -0.00, -1.00, 625.6, 349.0)">p</text><text xml:space="preserve" font-family="IowanOldStyle-Roman" font-size="28.0" fill="#5C5C5C" transform="matrix(1.00, 0.00, -0.00, -1.00, 641.2, 349.0)">s</text><text xml:space="preserve" font-family="IowanOldStyle-Roman" font-size="28.0" fill="#5C5C5C" transform="matrix(1.00, 0.00, -0.00, -1.00, 653.6, 349.0)">:</text><text xml:space="preserve" font-family="IowanOldStyle-Roman" font-size="28.0" fill="#5C5C5C" transform="matrix(1.00, 0.00, -0.00, -1.00, 661.4, 349.0)">/</text><text xml:space="preserve" font-family="IowanOldStyle-Roman" font-size="28.0" fill="#5C5C5C" transform="matrix(1.00, 0.00, -0.00, -1.00, 674.3, 349.0)">/</text><text xml:space="preserve" font-family="IowanOldStyle-Roman" font-size="28.0" fill="#5C5C5C" transform="matrix(1.00, 0.00, -0.00, -1.00, 687.2, 349.0)">g</text><text xml:space="preserve" font-family="IowanOldStyle-Roman" font-size="28.0" fill="#5C5C5C" transform="matrix(1.00, 0.00, -0.00, -1.00, 701.7, 349.0)">i</text><text xml:space="preserve" font-family="IowanOldStyle-Roman" font-size="28.0" fill="#5C5C5C" transform="matrix(1.00, 0.00, -0.00, -1.00, 710.0, 349.0)">t</text><text xml:space="preserve" font-family="IowanOldStyle-Roman" font-size="28.0" fill="#5C5C5C" transform="matrix(1.00, 0.00, -0.00, -1.00, 720.0, 349.0)">h</text><text xml:space="preserve" font-family="IowanOldStyle-Roman" font-size="28.0" fill="#5C5C5C" transform="matrix(1.00, 0.00, -0.00, -1.00, 736.4, 349.0)">u</text><text xml:space="preserve" font-family="IowanOldStyle-Roman" font-size="28.0" fill="#5C5C5C" transform="matrix(1.00, 0.00, -0.00, -1.00, 752.9, 349.0)">b</text><text xml:space="preserve" font-family="IowanOldStyle-Roman" font-size="28.0" fill="#5C5C5C" transform="matrix(1.00, 0.00, -0.00, -1.00, 768.5, 349.0)">.</text><text xml:space="preserve" font-family="IowanOldStyle-Roman" font-size="28.0" fill="#5C5C5C" transform="matrix(1.00, 0.00, -0.00, -1.00, 776.2, 349.0)">c</text><text xml:space="preserve" font-family="IowanOldStyle-Roman" font-size="28.0" fill="#5C5C5C" transform="matrix(1.00, 0.00, -0.00, -1.00, 788.8, 349.0)">o</text><text xml:space="preserve" font-family="IowanOldStyle-Roman" font-size="28.0" fill="#5C5C5C" transform="matrix(1.00, 0.00, -0.00, -1.00, 804.2, 349.0)">m</text><text xml:space="preserve" font-family="IowanOldStyle-Roman" font-size="28.0" fill="#5C5C5C" transform="matrix(1.00, 0.00, -0.00, -1.00, 828.8, 349.0)">/</text><g><clipPath id="clip-6"><path d="M 588.0 343.9 L 841.8 343.9 L 841.8 347.4 L 588.0 347.4 Z M 588.0 343.9 "></path></clipPath><g clip-path="url(#clip-6)"><path d="M 36.0 280.3 L 288.8 280.3 " fill="none" stroke="#5C5C5C" stroke-width="1.49" stroke-miterlimit="0.00" transform="matrix(1.00, 0.00, 0.00, -1.00, 553.0, 626.0)"></path></g></g><text xml:space="preserve" font-family="IowanOldStyle-Roman" font-size="28.0" fill="#5C5C5C" transform="matrix(1.00, 0.00, -0.00, -1.00, 589.0, 311.0)">m</text><text xml:space="preserve" font-family="IowanOldStyle-Roman" font-size="28.0" fill="#5C5C5C" transform="matrix(1.00, 0.00, -0.00, -1.00, 613.6, 311.0)">i</text><text xml:space="preserve" font-family="IowanOldStyle-Roman" font-size="28.0" fill="#5C5C5C" transform="matrix(1.00, 0.00, -0.00, -1.00, 621.9, 311.0)">c</text><text xml:space="preserve" font-family="IowanOldStyle-Roman" font-size="28.0" fill="#5C5C5C" transform="matrix(1.00, 0.00, -0.00, -1.00, 634.4, 311.0)">h</text><text xml:space="preserve" font-family="IowanOldStyle-Roman" font-size="28.0" fill="#5C5C5C" transform="matrix(1.00, 0.00, -0.00, -1.00, 650.9, 311.0)">a</text><text xml:space="preserve" font-family="IowanOldStyle-Roman" font-size="28.0" fill="#5C5C5C" transform="matrix(1.00, 0.00, -0.00, -1.00, 664.3, 311.0)">e</text><text xml:space="preserve" font-family="IowanOldStyle-Roman" font-size="28.0" fill="#5C5C5C" transform="matrix(1.00, 0.00, -0.00, -1.00, 678.0, 311.0)">l</text><text xml:space="preserve" font-family="IowanOldStyle-Roman" font-size="28.0" fill="#5C5C5C" transform="matrix(1.00, 0.00, -0.00, -1.00, 686.1, 311.0)">b</text><text xml:space="preserve" font-family="IowanOldStyle-Roman" font-size="28.0" fill="#5C5C5C" transform="matrix(1.00, 0.00, -0.00, -1.00, 701.7, 311.0)">p</text><text xml:space="preserve" font-family="IowanOldStyle-Roman" font-size="28.0" fill="#5C5C5C" transform="matrix(1.00, 0.00, -0.00, -1.00, 717.4, 311.0)">a</text><text xml:space="preserve" font-family="IowanOldStyle-Roman" font-size="28.0" fill="#5C5C5C" transform="matrix(1.00, 0.00, -0.00, -1.00, 730.9, 311.0)">u</text><text xml:space="preserve" font-family="IowanOldStyle-Roman" font-size="28.0" fill="#5C5C5C" transform="matrix(1.00, 0.00, -0.00, -1.00, 747.3, 311.0)">l</text><text xml:space="preserve" font-family="IowanOldStyle-Roman" font-size="28.0" fill="#5C5C5C" transform="matrix(1.00, 0.00, -0.00, -1.00, 755.5, 311.0)">s</text><text xml:space="preserve" font-family="IowanOldStyle-Roman" font-size="28.0" fill="#5C5C5C" transform="matrix(1.00, 0.00, -0.00, -1.00, 767.9, 311.0)">o</text><text xml:space="preserve" font-family="IowanOldStyle-Roman" font-size="28.0" fill="#5C5C5C" transform="matrix(1.00, 0.00, -0.00, -1.00, 783.3, 311.0)">n</text><text xml:space="preserve" font-family="IowanOldStyle-Roman" font-size="28.0" fill="#5C5C5C" transform="matrix(1.00, 0.00, -0.00, -1.00, 799.7, 311.0)">/</text><text xml:space="preserve" font-family="IowanOldStyle-Roman" font-size="28.0" fill="#5C5C5C" transform="matrix(1.00, 0.00, -0.00, -1.00, 812.6, 311.0)">f</text><text xml:space="preserve" font-family="IowanOldStyle-Roman" font-size="28.0" fill="#5C5C5C" transform="matrix(1.00, 0.00, -0.00, -1.00, 821.5, 311.0)">l</text><text xml:space="preserve" font-family="IowanOldStyle-Roman" font-size="28.0" fill="#5C5C5C" transform="matrix(1.00, 0.00, -0.00, -1.00, 829.7, 311.0)">a</text><text xml:space="preserve" font-family="IowanOldStyle-Roman" font-size="28.0" fill="#5C5C5C" transform="matrix(1.00, 0.00, -0.00, -1.00, 843.2, 311.0)">t</text><text xml:space="preserve" font-family="IowanOldStyle-Roman" font-size="28.0" fill="#5C5C5C" transform="matrix(1.00, 0.00, -0.00, -1.00, 853.2, 311.0)">b</text><text xml:space="preserve" font-family="IowanOldStyle-Roman" font-size="28.0" fill="#5C5C5C" transform="matrix(1.00, 0.00, -0.00, -1.00, 868.8, 311.0)">u</text><text xml:space="preserve" font-family="IowanOldStyle-Roman" font-size="28.0" fill="#5C5C5C" transform="matrix(1.00, 0.00, -0.00, -1.00, 885.3, 311.0)">f</text><text xml:space="preserve" font-family="IowanOldStyle-Roman" font-size="28.0" fill="#5C5C5C" transform="matrix(1.00, 0.00, -0.00, -1.00, 894.2, 311.0)">f</text><text xml:space="preserve" font-family="IowanOldStyle-Roman" font-size="28.0" fill="#5C5C5C" transform="matrix(1.00, 0.00, -0.00, -1.00, 903.2, 311.0)">e</text><text xml:space="preserve" font-family="IowanOldStyle-Roman" font-size="28.0" fill="#5C5C5C" transform="matrix(1.00, 0.00, -0.00, -1.00, 916.8, 311.0)">r</text><text xml:space="preserve" font-family="IowanOldStyle-Roman" font-size="28.0" fill="#5C5C5C" transform="matrix(1.00, 0.00, -0.00, -1.00, 927.8, 311.0)">s</text><text xml:space="preserve" font-family="IowanOldStyle-Roman" font-size="28.0" fill="#5C5C5C" transform="matrix(1.00, 0.00, -0.00, -1.00, 940.2, 311.0)">-</text><g><clipPath id="clip-7"><path d="M 588.0 305.9 L 950.0 305.9 L 950.0 309.4 L 588.0 309.4 Z M 588.0 305.9 "></path></clipPath><g clip-path="url(#clip-7)"><path d="M 36.0 318.3 L 397.0 318.3 " fill="none" stroke="#5C5C5C" stroke-width="1.49" stroke-miterlimit="0.00" transform="matrix(1.00, 0.00, 0.00, -1.00, 553.0, 626.0)"></path></g></g><text xml:space="preserve" font-family="IowanOldStyle-Roman" font-size="28.0" fill="#5C5C5C" transform="matrix(1.00, 0.00, -0.00, -1.00, 589.0, 273.0)">b</text><text xml:space="preserve" font-family="IowanOldStyle-Roman" font-size="28.0" fill="#5C5C5C" transform="matrix(1.00, 0.00, -0.00, -1.00, 604.6, 273.0)">e</text><text xml:space="preserve" font-family="IowanOldStyle-Roman" font-size="28.0" fill="#5C5C5C" transform="matrix(1.00, 0.00, -0.00, -1.00, 618.2, 273.0)">n</text><text xml:space="preserve" font-family="IowanOldStyle-Roman" font-size="28.0" fill="#5C5C5C" transform="matrix(1.00, 0.00, -0.00, -1.00, 634.6, 273.0)">c</text><text xml:space="preserve" font-family="IowanOldStyle-Roman" font-size="28.0" fill="#5C5C5C" transform="matrix(1.00, 0.00, -0.00, -1.00, 647.1, 273.0)">h</text><text xml:space="preserve" font-family="IowanOldStyle-Roman" font-size="28.0" fill="#5C5C5C" transform="matrix(1.00, 0.00, -0.00, -1.00, 663.5, 273.0)">m</text><text xml:space="preserve" font-family="IowanOldStyle-Roman" font-size="28.0" fill="#5C5C5C" transform="matrix(1.00, 0.00, -0.00, -1.00, 688.1, 273.0)">a</text><text xml:space="preserve" font-family="IowanOldStyle-Roman" font-size="28.0" fill="#5C5C5C" transform="matrix(1.00, 0.00, -0.00, -1.00, 701.6, 273.0)">r</text><text xml:space="preserve" font-family="IowanOldStyle-Roman" font-size="28.0" fill="#5C5C5C" transform="matrix(1.00, 0.00, -0.00, -1.00, 712.5, 273.0)">k</text><text xml:space="preserve" font-family="IowanOldStyle-Roman" font-size="28.0" fill="#5C5C5C" transform="matrix(1.00, 0.00, -0.00, -1.00, 727.8, 273.0)">s</text><text xml:space="preserve" font-family="IowanOldStyle-Roman" font-size="28.0" fill="#5C5C5C" transform="matrix(1.00, 0.00, -0.00, -1.00, 740.2, 273.0)"> </text><g><clipPath id="clip-8"><path d="M 588.0 267.9 L 740.2 267.9 L 740.2 271.4 L 588.0 271.4 Z M 588.0 267.9 "></path></clipPath><g clip-path="url(#clip-8)"><path d="M 36.0 356.3 L 187.2 356.3 " fill="none" stroke="#5C5C5C" stroke-width="1.49" stroke-miterlimit="0.00" transform="matrix(1.00, 0.00, 0.00, -1.00, 553.0, 626.0)"></path></g></g><text xml:space="preserve" font-family="ZapfDingbatsITC" font-size="21.0" fill="#5C5C5C" transform="matrix(1.00, 0.00, -0.00, -1.00, 557.0, 164.2)">➤</text><text xml:space="preserve" font-family="IowanOldStyle-Roman" font-size="28.0" fill="#5C5C5C" transform="matrix(1.00, 0.00, -0.00, -1.00, 589.0, 161.0)">h</text><text xml:space="preserve" font-family="IowanOldStyle-Roman" font-size="28.0" fill="#5C5C5C" transform="matrix(1.00, 0.00, -0.00, -1.00, 605.4, 161.0)">t</text><text xml:space="preserve" font-family="IowanOldStyle-Roman" font-size="28.0" fill="#5C5C5C" transform="matrix(1.00, 0.00, -0.00, -1.00, 615.5, 161.0)">t</text><text xml:space="preserve" font-family="IowanOldStyle-Roman" font-size="28.0" fill="#5C5C5C" transform="matrix(1.00, 0.00, -0.00, -1.00, 625.6, 161.0)">p</text><text xml:space="preserve" font-family="IowanOldStyle-Roman" font-size="28.0" fill="#5C5C5C" transform="matrix(1.00, 0.00, -0.00, -1.00, 641.2, 161.0)">s</text><text xml:space="preserve" font-family="IowanOldStyle-Roman" font-size="28.0" fill="#5C5C5C" transform="matrix(1.00, 0.00, -0.00, -1.00, 653.6, 161.0)">:</text><text xml:space="preserve" font-family="IowanOldStyle-Roman" font-size="28.0" fill="#5C5C5C" transform="matrix(1.00, 0.00, -0.00, -1.00, 661.4, 161.0)">/</text><text xml:space="preserve" font-family="IowanOldStyle-Roman" font-size="28.0" fill="#5C5C5C" transform="matrix(1.00, 0.00, -0.00, -1.00, 674.3, 161.0)">/</text><text xml:space="preserve" font-family="IowanOldStyle-Roman" font-size="28.0" fill="#5C5C5C" transform="matrix(1.00, 0.00, -0.00, -1.00, 687.2, 161.0)">w</text><text xml:space="preserve" font-family="IowanOldStyle-Roman" font-size="28.0" fill="#5C5C5C" transform="matrix(1.00, 0.00, -0.00, -1.00, 708.9, 161.0)">w</text><text xml:space="preserve" font-family="IowanOldStyle-Roman" font-size="28.0" fill="#5C5C5C" transform="matrix(1.00, 0.00, -0.00, -1.00, 730.6, 161.0)">w</text><text xml:space="preserve" font-family="IowanOldStyle-Roman" font-size="28.0" fill="#5C5C5C" transform="matrix(1.00, 0.00, -0.00, -1.00, 752.3, 161.0)">.</text><text xml:space="preserve" font-family="IowanOldStyle-Roman" font-size="28.0" fill="#5C5C5C" transform="matrix(1.00, 0.00, -0.00, -1.00, 760.1, 161.0)">y</text><text xml:space="preserve" font-family="IowanOldStyle-Roman" font-size="28.0" fill="#5C5C5C" transform="matrix(1.00, 0.00, -0.00, -1.00, 773.7, 161.0)">o</text><text xml:space="preserve" font-family="IowanOldStyle-Roman" font-size="28.0" fill="#5C5C5C" transform="matrix(1.00, 0.00, -0.00, -1.00, 789.1, 161.0)">u</text><text xml:space="preserve" font-family="IowanOldStyle-Roman" font-size="28.0" fill="#5C5C5C" transform="matrix(1.00, 0.00, -0.00, -1.00, 805.5, 161.0)">t</text><text xml:space="preserve" font-family="IowanOldStyle-Roman" font-size="28.0" fill="#5C5C5C" transform="matrix(1.00, 0.00, -0.00, -1.00, 815.6, 161.0)">u</text><text xml:space="preserve" font-family="IowanOldStyle-Roman" font-size="28.0" fill="#5C5C5C" transform="matrix(1.00, 0.00, -0.00, -1.00, 832.1, 161.0)">b</text><text xml:space="preserve" font-family="IowanOldStyle-Roman" font-size="28.0" fill="#5C5C5C" transform="matrix(1.00, 0.00, -0.00, -1.00, 847.6, 161.0)">e</text><text xml:space="preserve" font-family="IowanOldStyle-Roman" font-size="28.0" fill="#5C5C5C" transform="matrix(1.00, 0.00, -0.00, -1.00, 861.3, 161.0)">.</text><text xml:space="preserve" font-family="IowanOldStyle-Roman" font-size="28.0" fill="#5C5C5C" transform="matrix(1.00, 0.00, -0.00, -1.00, 869.1, 161.0)">c</text><text xml:space="preserve" font-family="IowanOldStyle-Roman" font-size="28.0" fill="#5C5C5C" transform="matrix(1.00, 0.00, -0.00, -1.00, 881.6, 161.0)">o</text><text xml:space="preserve" font-family="IowanOldStyle-Roman" font-size="28.0" fill="#5C5C5C" transform="matrix(1.00, 0.00, -0.00, -1.00, 897.0, 161.0)">m</text><text xml:space="preserve" font-family="IowanOldStyle-Roman" font-size="28.0" fill="#5C5C5C" transform="matrix(1.00, 0.00, -0.00, -1.00, 921.6, 161.0)">/</text><g><clipPath id="clip-9"><path d="M 588.0 155.9 L 934.6 155.9 L 934.6 159.4 L 588.0 159.4 Z M 588.0 155.9 "></path></clipPath><g clip-path="url(#clip-9)"><path d="M 36.0 468.3 L 381.6 468.3 " fill="none" stroke="#5C5C5C" stroke-width="1.49" stroke-miterlimit="0.00" transform="matrix(1.00, 0.00, 0.00, -1.00, 553.0, 626.0)"></path></g></g><text xml:space="preserve" font-family="IowanOldStyle-Roman" font-size="28.0" fill="#5C5C5C" transform="matrix(1.00, 0.00, -0.00, -1.00, 589.0, 123.0)">w</text><text xml:space="preserve" font-family="IowanOldStyle-Roman" font-size="28.0" fill="#5C5C5C" transform="matrix(1.00, 0.00, -0.00, -1.00, 610.7, 123.0)">a</text><text xml:space="preserve" font-family="IowanOldStyle-Roman" font-size="28.0" fill="#5C5C5C" transform="matrix(1.00, 0.00, -0.00, -1.00, 624.2, 123.0)">t</text><text xml:space="preserve" font-family="IowanOldStyle-Roman" font-size="28.0" fill="#5C5C5C" transform="matrix(1.00, 0.00, -0.00, -1.00, 634.2, 123.0)">c</text><text xml:space="preserve" font-family="IowanOldStyle-Roman" font-size="28.0" fill="#5C5C5C" transform="matrix(1.00, 0.00, -0.00, -1.00, 646.7, 123.0)">h</text><text xml:space="preserve" font-family="IowanOldStyle-Roman" font-size="28.0" fill="#5C5C5C" transform="matrix(1.00, 0.00, -0.00, -1.00, 663.1, 123.0)">?</text><text xml:space="preserve" font-family="IowanOldStyle-Roman" font-size="28.0" fill="#5C5C5C" transform="matrix(1.00, 0.00, -0.00, -1.00, 676.3, 123.0)">v</text><text xml:space="preserve" font-family="IowanOldStyle-Roman" font-size="28.0" fill="#5C5C5C" transform="matrix(1.00, 0.00, -0.00, -1.00, 690.1, 123.0)">=</text><text xml:space="preserve" font-family="IowanOldStyle-Roman" font-size="28.0" fill="#5C5C5C" transform="matrix(1.00, 0.00, -0.00, -1.00, 713.4, 123.0)">7</text><text xml:space="preserve" font-family="IowanOldStyle-Roman" font-size="28.0" fill="#5C5C5C" transform="matrix(1.00, 0.00, -0.00, -1.00, 729.0, 123.0)">F</text><text xml:space="preserve" font-family="IowanOldStyle-Roman" font-size="28.0" fill="#5C5C5C" transform="matrix(1.00, 0.00, -0.00, -1.00, 745.4, 123.0)">z</text><text xml:space="preserve" font-family="IowanOldStyle-Roman" font-size="28.0" fill="#5C5C5C" transform="matrix(1.00, 0.00, -0.00, -1.00, 758.6, 123.0)">k</text><text xml:space="preserve" font-family="IowanOldStyle-Roman" font-size="28.0" fill="#5C5C5C" transform="matrix(1.00, 0.00, -0.00, -1.00, 773.0, 123.0)">e</text><text xml:space="preserve" font-family="IowanOldStyle-Roman" font-size="28.0" fill="#5C5C5C" transform="matrix(1.00, 0.00, -0.00, -1.00, 786.7, 123.0)">L</text><text xml:space="preserve" font-family="IowanOldStyle-Roman" font-size="28.0" fill="#5C5C5C" transform="matrix(1.00, 0.00, -0.00, -1.00, 802.7, 123.0)">u</text><text xml:space="preserve" font-family="IowanOldStyle-Roman" font-size="28.0" fill="#5C5C5C" transform="matrix(1.00, 0.00, -0.00, -1.00, 819.1, 123.0)">2</text><text xml:space="preserve" font-family="IowanOldStyle-Roman" font-size="28.0" fill="#5C5C5C" transform="matrix(1.00, 0.00, -0.00, -1.00, 834.7, 123.0)">x</text><text xml:space="preserve" font-family="IowanOldStyle-Roman" font-size="28.0" fill="#5C5C5C" transform="matrix(1.00, 0.00, -0.00, -1.00, 849.5, 123.0)">a</text><text xml:space="preserve" font-family="IowanOldStyle-Roman" font-size="28.0" fill="#5C5C5C" transform="matrix(1.00, 0.00, -0.00, -1.00, 863.0, 123.0)">g</text><g><clipPath id="clip-10"><path d="M 588.0 117.9 L 877.4 117.9 L 877.4 121.4 L 588.0 121.4 Z M 588.0 117.9 "></path></clipPath><g clip-path="url(#clip-10)"><path d="M 36.0 506.3 L 324.4 506.3 " fill="none" stroke="#5C5C5C" stroke-width="1.49" stroke-miterlimit="0.00" transform="matrix(1.00, 0.00, 0.00, -1.00, 553.0, 626.0)"></path></g></g><image xlink:href="../../7C6BD2AC-496A-4866-924D-B1EC34F6064C/assets/5F039F4A1F4E8681F996C75DB4552DE4.png" width="495.00" height="276.00" transform="matrix(1.00, 0.00, -0.00, -1.00, 29.0, 564.0)"></image></g></svg>