<?xml version="1.0" encoding="UTF-8" standalone="no"?><svg xmlns="http://www.w3.org/2000/svg" xmlns:xlink="http://www.w3.org/1999/xlink" clip-rule="evenodd" stroke-miterlimit="4.00" viewBox="0 0 1920 1080"><desc>SVG generated by Keynote</desc><defs><radialGradient id="gradSh1.36" cx="0.0" cy="-3.7" r="21.1" fx="0.0" fy="-3.7" gradientUnits="userSpaceOnUse" gradientTransform="matrix(1.81, 0.00, 0.00, -1.81, 285.8, 680.0)"><stop offset="0.00000" stop-color="#FFFFFF"></stop><stop offset="0.00880" stop-color="#FEFEFE"></stop><stop offset="1.00000" stop-color="#AAAAAA"></stop></radialGradient><radialGradient id="gradSh2.37" cx="0.0" cy="0.0" r="12.9" fx="0.0" fy="0.0" gradientUnits="userSpaceOnUse" gradientTransform="matrix(1.81, 0.00, 0.00, -1.81, 285.8, 717.8)"><stop offset="0.00000" stop-color="#FFFFFF"></stop><stop offset="0.01466" stop-color="#FEFEFE"></stop><stop offset="1.00000" stop-color="#CECECE"></stop></radialGradient><radialGradient id="gradSh3.38" cx="0.0" cy="-3.7" r="21.1" fx="0.0" fy="-3.7" gradientUnits="userSpaceOnUse" gradientTransform="matrix(1.81, 0.00, 0.00, -1.81, 285.8, 406.6)"><stop offset="0.00000" stop-color="#FFFFFF"></stop><stop offset="0.00880" stop-color="#FEFEFE"></stop><stop offset="1.00000" stop-color="#AAAAAA"></stop></radialGradient><radialGradient id="gradSh4.39" cx="0.0" cy="0.0" r="12.9" fx="0.0" fy="0.0" gradientUnits="userSpaceOnUse" gradientTransform="matrix(1.81, 0.00, 0.00, -1.81, 285.8, 444.4)"><stop offset="0.00000" stop-color="#FFFFFF"></stop><stop offset="0.01466" stop-color="#FEFEFE"></stop><stop offset="1.00000" stop-color="#CECECE"></stop></radialGradient></defs><g transform="matrix(1.00, 0.00, -0.00, -1.00, 0.0, 1080.0)"><path d="M 0.0 1080.0 L 1920.0 1080.0 L 1920.0 0.0 L 0.0 0.0 Z M 0.0 1080.0 " fill="#EEEDED"></path><path d="M 0.0 0.0 L 1836.0 0.0 " fill="none" stroke="#000000" stroke-width="2.00" transform="matrix(1.00, 0.00, 0.00, -1.00, 41.0, 58.0)"></path><text xml:space="preserve" font-family="HelveticaNeue-Bold" font-weight="bold" font-size="23.0" fill="#000000" transform="matrix(1.00, 0.00, -0.00, -1.00, 61.0, 24.0)">D</text><text xml:space="preserve" font-family="HelveticaNeue-Bold" font-weight="bold" font-size="23.0" fill="#000000" transform="matrix(1.00, 0.00, -0.00, -1.00, 78.0, 24.0)">i</text><text xml:space="preserve" font-family="HelveticaNeue-Bold" font-weight="bold" font-size="23.0" fill="#000000" transform="matrix(1.00, 0.00, -0.00, -1.00, 84.0, 24.0)">s</text><text xml:space="preserve" font-family="HelveticaNeue-Bold" font-weight="bold" font-size="23.0" fill="#000000" transform="matrix(1.00, 0.00, -0.00, -1.00, 96.3, 24.0)">m</text><text xml:space="preserve" font-family="HelveticaNeue-Bold" font-weight="bold" font-size="23.0" fill="#000000" transform="matrix(1.00, 0.00, -0.00, -1.00, 117.2, 24.0)">a</text><text xml:space="preserve" font-family="HelveticaNeue-Bold" font-weight="bold" font-size="23.0" fill="#000000" transform="matrix(1.00, 0.00, -0.00, -1.00, 130.4, 24.0)">n</text><text xml:space="preserve" font-family="HelveticaNeue-Bold" font-weight="bold" font-size="23.0" fill="#000000" transform="matrix(1.00, 0.00, -0.00, -1.00, 144.0, 24.0)">t</text><text xml:space="preserve" font-family="HelveticaNeue-Bold" font-weight="bold" font-size="23.0" fill="#000000" transform="matrix(1.00, 0.00, -0.00, -1.00, 152.1, 24.0)">l</text><text xml:space="preserve" font-family="HelveticaNeue-Bold" font-weight="bold" font-size="23.0" fill="#000000" transform="matrix(1.00, 0.00, -0.00, -1.00, 158.0, 24.0)">i</text><text xml:space="preserve" font-family="HelveticaNeue-Bold" font-weight="bold" font-size="23.0" fill="#000000" transform="matrix(1.00, 0.00, -0.00, -1.00, 164.0, 24.0)">n</text><text xml:space="preserve" font-family="HelveticaNeue-Bold" font-weight="bold" font-size="23.0" fill="#000000" transform="matrix(1.00, 0.00, -0.00, -1.00, 177.6, 24.0)">g</text><text xml:space="preserve" font-family="HelveticaNeue-Bold" font-weight="bold" font-size="23.0" fill="#000000" transform="matrix(1.00, 0.00, -0.00, -1.00, 191.7, 24.0)"> </text><text xml:space="preserve" font-family="HelveticaNeue-Bold" font-weight="bold" font-size="23.0" fill="#000000" transform="matrix(1.00, 0.00, -0.00, -1.00, 198.1, 24.0)">M</text><text xml:space="preserve" font-family="HelveticaNeue-Bold" font-weight="bold" font-size="23.0" fill="#000000" transform="matrix(1.00, 0.00, -0.00, -1.00, 218.9, 24.0)">o</text><text xml:space="preserve" font-family="HelveticaNeue-Bold" font-weight="bold" font-size="23.0" fill="#000000" transform="matrix(1.00, 0.00, -0.00, -1.00, 233.0, 24.0)">n</text><text xml:space="preserve" font-family="HelveticaNeue-Bold" font-weight="bold" font-size="23.0" fill="#000000" transform="matrix(1.00, 0.00, -0.00, -1.00, 246.6, 24.0)">o</text><text xml:space="preserve" font-family="HelveticaNeue-Bold" font-weight="bold" font-size="23.0" fill="#000000" transform="matrix(1.00, 0.00, -0.00, -1.00, 260.7, 24.0)">l</text><text xml:space="preserve" font-family="HelveticaNeue-Bold" font-weight="bold" font-size="23.0" fill="#000000" transform="matrix(1.00, 0.00, -0.00, -1.00, 266.6, 24.0)">i</text><text xml:space="preserve" font-family="HelveticaNeue-Bold" font-weight="bold" font-size="23.0" fill="#000000" transform="matrix(1.00, 0.00, -0.00, -1.00, 272.5, 24.0)">t</text><text xml:space="preserve" font-family="HelveticaNeue-Bold" font-weight="bold" font-size="23.0" fill="#000000" transform="matrix(1.00, 0.00, -0.00, -1.00, 280.6, 24.0)">h</text><text xml:space="preserve" font-family="HelveticaNeue-Bold" font-weight="bold" font-size="23.0" fill="#000000" transform="matrix(1.00, 0.00, -0.00, -1.00, 294.3, 24.0)">s</text><text xml:space="preserve" font-family="HelveticaNeue-Bold" font-weight="bold" font-size="23.0" fill="#000000" transform="matrix(1.00, 0.00, -0.00, -1.00, 306.6, 24.0)">:</text><text xml:space="preserve" font-family="HelveticaNeue-Bold" font-weight="bold" font-size="23.0" fill="#000000" transform="matrix(1.00, 0.00, -0.00, -1.00, 313.0, 24.0)"> </text><text xml:space="preserve" font-family="HelveticaNeue-Bold" font-weight="bold" font-size="23.0" fill="#000000" transform="matrix(1.00, 0.00, -0.00, -1.00, 319.4, 24.0)">u</text><text xml:space="preserve" font-family="HelveticaNeue-Bold" font-weight="bold" font-size="23.0" fill="#000000" transform="matrix(1.00, 0.00, -0.00, -1.00, 333.0, 24.0)">s</text><text xml:space="preserve" font-family="HelveticaNeue-Bold" font-weight="bold" font-size="23.0" fill="#000000" transform="matrix(1.00, 0.00, -0.00, -1.00, 345.4, 24.0)">i</text><text xml:space="preserve" font-family="HelveticaNeue-Bold" font-weight="bold" font-size="23.0" fill="#000000" transform="matrix(1.00, 0.00, -0.00, -1.00, 351.3, 24.0)">n</text><text xml:space="preserve" font-family="HelveticaNeue-Bold" font-weight="bold" font-size="23.0" fill="#000000" transform="matrix(1.00, 0.00, -0.00, -1.00, 365.0, 24.0)">g</text><text xml:space="preserve" font-family="HelveticaNeue-Bold" font-weight="bold" font-size="23.0" fill="#000000" transform="matrix(1.00, 0.00, -0.00, -1.00, 379.0, 24.0)"> </text><text xml:space="preserve" font-family="HelveticaNeue-Bold" font-weight="bold" font-size="23.0" fill="#000000" transform="matrix(1.00, 0.00, -0.00, -1.00, 385.4, 24.0)">m</text><text xml:space="preserve" font-family="HelveticaNeue-Bold" font-weight="bold" font-size="23.0" fill="#000000" transform="matrix(1.00, 0.00, -0.00, -1.00, 406.3, 24.0)">i</text><text xml:space="preserve" font-family="HelveticaNeue-Bold" font-weight="bold" font-size="23.0" fill="#000000" transform="matrix(1.00, 0.00, -0.00, -1.00, 412.2, 24.0)">c</text><text xml:space="preserve" font-family="HelveticaNeue-Bold" font-weight="bold" font-size="23.0" fill="#000000" transform="matrix(1.00, 0.00, -0.00, -1.00, 425.4, 24.0)">r</text><text xml:space="preserve" font-family="HelveticaNeue-Bold" font-weight="bold" font-size="23.0" fill="#000000" transform="matrix(1.00, 0.00, -0.00, -1.00, 433.9, 24.0)">o</text><text xml:space="preserve" font-family="HelveticaNeue-Bold" font-weight="bold" font-size="23.0" fill="#000000" transform="matrix(1.00, 0.00, -0.00, -1.00, 448.0, 24.0)">s</text><text xml:space="preserve" font-family="HelveticaNeue-Bold" font-weight="bold" font-size="23.0" fill="#000000" transform="matrix(1.00, 0.00, -0.00, -1.00, 460.3, 24.0)">e</text><text xml:space="preserve" font-family="HelveticaNeue-Bold" font-weight="bold" font-size="23.0" fill="#000000" transform="matrix(1.00, 0.00, -0.00, -1.00, 473.5, 24.0)">r</text><text xml:space="preserve" font-family="HelveticaNeue-Bold" font-weight="bold" font-size="23.0" fill="#000000" transform="matrix(1.00, 0.00, -0.00, -1.00, 482.5, 24.0)">v</text><text xml:space="preserve" font-family="HelveticaNeue-Bold" font-weight="bold" font-size="23.0" fill="#000000" transform="matrix(1.00, 0.00, -0.00, -1.00, 494.4, 24.0)">i</text><text xml:space="preserve" font-family="HelveticaNeue-Bold" font-weight="bold" font-size="23.0" fill="#000000" transform="matrix(1.00, 0.00, -0.00, -1.00, 500.4, 24.0)">c</text><text xml:space="preserve" font-family="HelveticaNeue-Bold" font-weight="bold" font-size="23.0" fill="#000000" transform="matrix(1.00, 0.00, -0.00, -1.00, 513.6, 24.0)">e</text><text xml:space="preserve" font-family="HelveticaNeue-Bold" font-weight="bold" font-size="23.0" fill="#000000" transform="matrix(1.00, 0.00, -0.00, -1.00, 526.8, 24.0)">s</text><text xml:space="preserve" font-family="HelveticaNeue-Bold" font-weight="bold" font-size="23.0" fill="#000000" transform="matrix(1.00, 0.00, -0.00, -1.00, 539.1, 24.0)"> </text><text xml:space="preserve" font-family="HelveticaNeue-Bold" font-weight="bold" font-size="23.0" fill="#000000" transform="matrix(1.00, 0.00, -0.00, -1.00, 545.5, 24.0)">a</text><text xml:space="preserve" font-family="HelveticaNeue-Bold" font-weight="bold" font-size="23.0" fill="#000000" transform="matrix(1.00, 0.00, -0.00, -1.00, 558.7, 24.0)">n</text><text xml:space="preserve" font-family="HelveticaNeue-Bold" font-weight="bold" font-size="23.0" fill="#000000" transform="matrix(1.00, 0.00, -0.00, -1.00, 572.4, 24.0)">d</text><text xml:space="preserve" font-family="HelveticaNeue-Bold" font-weight="bold" font-size="23.0" fill="#000000" transform="matrix(1.00, 0.00, -0.00, -1.00, 586.4, 24.0)"> </text><text xml:space="preserve" font-family="HelveticaNeue-Bold" font-weight="bold" font-size="23.0" fill="#000000" transform="matrix(1.00, 0.00, -0.00, -1.00, 592.8, 24.0)">c</text><text xml:space="preserve" font-family="HelveticaNeue-Bold" font-weight="bold" font-size="23.0" fill="#000000" transform="matrix(1.00, 0.00, -0.00, -1.00, 606.0, 24.0)">o</text><text xml:space="preserve" font-family="HelveticaNeue-Bold" font-weight="bold" font-size="23.0" fill="#000000" transform="matrix(1.00, 0.00, -0.00, -1.00, 620.1, 24.0)">n</text><text xml:space="preserve" font-family="HelveticaNeue-Bold" font-weight="bold" font-size="23.0" fill="#000000" transform="matrix(1.00, 0.00, -0.00, -1.00, 633.7, 24.0)">t</text><text xml:space="preserve" font-family="HelveticaNeue-Bold" font-weight="bold" font-size="23.0" fill="#000000" transform="matrix(1.00, 0.00, -0.00, -1.00, 641.8, 24.0)">i</text><text xml:space="preserve" font-family="HelveticaNeue-Bold" font-weight="bold" font-size="23.0" fill="#000000" transform="matrix(1.00, 0.00, -0.00, -1.00, 647.7, 24.0)">n</text><text xml:space="preserve" font-family="HelveticaNeue-Bold" font-weight="bold" font-size="23.0" fill="#000000" transform="matrix(1.00, 0.00, -0.00, -1.00, 661.4, 24.0)">u</text><text xml:space="preserve" font-family="HelveticaNeue-Bold" font-weight="bold" font-size="23.0" fill="#000000" transform="matrix(1.00, 0.00, -0.00, -1.00, 675.0, 24.0)">o</text><text xml:space="preserve" font-family="HelveticaNeue-Bold" font-weight="bold" font-size="23.0" fill="#000000" transform="matrix(1.00, 0.00, -0.00, -1.00, 689.1, 24.0)">u</text><text xml:space="preserve" font-family="HelveticaNeue-Bold" font-weight="bold" font-size="23.0" fill="#000000" transform="matrix(1.00, 0.00, -0.00, -1.00, 702.7, 24.0)">s</text><text xml:space="preserve" font-family="HelveticaNeue-Bold" font-weight="bold" font-size="23.0" fill="#000000" transform="matrix(1.00, 0.00, -0.00, -1.00, 715.1, 24.0)"> </text><text xml:space="preserve" font-family="HelveticaNeue-Bold" font-weight="bold" font-size="23.0" fill="#000000" transform="matrix(1.00, 0.00, -0.00, -1.00, 721.4, 24.0)">d</text><text xml:space="preserve" font-family="HelveticaNeue-Bold" font-weight="bold" font-size="23.0" fill="#000000" transform="matrix(1.00, 0.00, -0.00, -1.00, 735.5, 24.0)">e</text><text xml:space="preserve" font-family="HelveticaNeue-Bold" font-weight="bold" font-size="23.0" fill="#000000" transform="matrix(1.00, 0.00, -0.00, -1.00, 748.7, 24.0)">l</text><text xml:space="preserve" font-family="HelveticaNeue-Bold" font-weight="bold" font-size="23.0" fill="#000000" transform="matrix(1.00, 0.00, -0.00, -1.00, 754.6, 24.0)">i</text><text xml:space="preserve" font-family="HelveticaNeue-Bold" font-weight="bold" font-size="23.0" fill="#000000" transform="matrix(1.00, 0.00, -0.00, -1.00, 760.6, 24.0)">v</text><text xml:space="preserve" font-family="HelveticaNeue-Bold" font-weight="bold" font-size="23.0" fill="#000000" transform="matrix(1.00, 0.00, -0.00, -1.00, 772.5, 24.0)">e</text><text xml:space="preserve" font-family="HelveticaNeue-Bold" font-weight="bold" font-size="23.0" fill="#000000" transform="matrix(1.00, 0.00, -0.00, -1.00, 785.7, 24.0)">r</text><text xml:space="preserve" font-family="HelveticaNeue-Bold" font-weight="bold" font-size="23.0" fill="#000000" transform="matrix(1.00, 0.00, -0.00, -1.00, 794.7, 24.0)">y</text><text xml:space="preserve" font-family="HelveticaNeue-Bold" font-weight="bold" font-size="23.0" fill="#000000" transform="matrix(1.00, 0.00, -0.00, -1.00, 806.6, 24.0)"> </text><text xml:space="preserve" font-family="HelveticaNeue-Bold" font-weight="bold" font-size="23.0" fill="#000000" transform="matrix(1.00, 0.00, -0.00, -1.00, 813.0, 24.0)">a</text><text xml:space="preserve" font-family="HelveticaNeue-Bold" font-weight="bold" font-size="23.0" fill="#000000" transform="matrix(1.00, 0.00, -0.00, -1.00, 826.2, 24.0)">t</text><text xml:space="preserve" font-family="HelveticaNeue-Bold" font-weight="bold" font-size="23.0" fill="#000000" transform="matrix(1.00, 0.00, -0.00, -1.00, 834.3, 24.0)"> </text><text xml:space="preserve" font-family="HelveticaNeue-Bold" font-weight="bold" font-size="23.0" fill="#000000" transform="matrix(1.00, 0.00, -0.00, -1.00, 840.7, 24.0)">t</text><text xml:space="preserve" font-family="HelveticaNeue-Bold" font-weight="bold" font-size="23.0" fill="#000000" transform="matrix(1.00, 0.00, -0.00, -1.00, 848.8, 24.0)">h</text><text xml:space="preserve" font-family="HelveticaNeue-Bold" font-weight="bold" font-size="23.0" fill="#000000" transform="matrix(1.00, 0.00, -0.00, -1.00, 862.4, 24.0)">e</text><text xml:space="preserve" font-family="HelveticaNeue-Bold" font-weight="bold" font-size="23.0" fill="#000000" transform="matrix(1.00, 0.00, -0.00, -1.00, 875.6, 24.0)"> </text><text xml:space="preserve" font-family="HelveticaNeue-Bold" font-weight="bold" font-size="23.0" fill="#000000" transform="matrix(1.00, 0.00, -0.00, -1.00, 882.0, 24.0)">B</text><text xml:space="preserve" font-family="HelveticaNeue-Bold" font-weight="bold" font-size="23.0" fill="#000000" transform="matrix(1.00, 0.00, -0.00, -1.00, 898.2, 24.0)">B</text><text xml:space="preserve" font-family="HelveticaNeue-Bold" font-weight="bold" font-size="23.0" fill="#000000" transform="matrix(1.00, 0.00, -0.00, -1.00, 914.4, 24.0)">C</text><image xlink:href="../../D0517147-4847-4A0F-8B98-32B995C105A1/assets/0BF8E63FE00997E10C4EC11A1CFD77DD.png" width="97.00" height="27.00" transform="matrix(1.00, 0.00, -0.00, -1.00, 1751.0, 44.0)"></image><g><clipPath id="clip-514"><path d="M 254.0 126.0 L 1588.2 126.0 L 1588.2 902.2 L 254.0 902.2 Z M 254.0 126.0 "></path></clipPath><g clip-path="url(#clip-514)"><image xlink:href="../../5A999262-EB9C-45B9-B50A-C2A46E709074/assets/34600D7E4DAFC2A207AFA4C35D74CC7F.png" width="36.00" height="40.00" transform="matrix(1.81, 0.00, -0.00, 1.81, 254.0, 638.7)"></image><image xlink:href="../../5A999262-EB9C-45B9-B50A-C2A46E709074/assets/5FC4430C3A37C29057A1C95F039849CE.png" width="31.00" height="31.00" transform="matrix(1.81, 0.00, -0.00, 1.81, 257.6, 685.6)"></image><image xlink:href="../../5A999262-EB9C-45B9-B50A-C2A46E709074/assets/8DC81E089A4F07277F3FDEBEA00219EC.png" width="36.00" height="40.00" transform="matrix(1.81, 0.00, -0.00, 1.81, 254.0, 366.1)"></image><image xlink:href="../../5A999262-EB9C-45B9-B50A-C2A46E709074/assets/98F71180187993DD3BF2229E99A82AE5.png" width="31.00" height="31.00" transform="matrix(1.81, 0.00, -0.00, 1.81, 257.6, 413.0)"></image><path d="M 476.2 756.0 L 607.6 756.0 C 623.1 756.0 635.8 721.6 635.8 679.3 C 635.8 636.9 623.1 602.5 607.6 602.5 L 476.2 602.5 C 460.6 602.5 448.0 636.9 448.0 679.3 C 448.0 721.6 460.6 756.0 476.2 756.0 " fill="#FEFFFF"></path><path d="M 215.6 163.5 L 288.4 163.5 C 297.0 163.0 304.0 182.0 304.0 205.5 C 304.0 229.0 297.0 248.0 288.4 248.5 L 215.6 248.5 C 207.0 248.0 200.0 229.0 200.0 205.5 C 200.0 182.0 207.0 163.0 215.6 163.0 " fill="none" stroke="#000000" stroke-width="1.00" stroke-miterlimit="0.00" stroke-linecap="round" stroke-linejoin="round" transform="matrix(1.81, 0.00, 0.00, -1.81, 86.9, 1050.2)"></path><text xml:space="preserve" font-family="Helvetica" font-size="12.0" fill="#000000" transform="matrix(1.81, 0.00, -0.00, -1.81, 495.7, 684.7)">P</text><text xml:space="preserve" font-family="Helvetica" font-size="12.0" fill="#000000" transform="matrix(1.81, 0.00, -0.00, -1.81, 510.1, 684.7)">H</text><text xml:space="preserve" font-family="Helvetica" font-size="12.0" fill="#000000" transform="matrix(1.81, 0.00, -0.00, -1.81, 525.8, 684.7)">P</text><text xml:space="preserve" font-family="Helvetica" font-size="12.0" fill="#000000" transform="matrix(1.81, 0.00, -0.00, -1.81, 539.9, 684.7)"> </text><text xml:space="preserve" font-family="Helvetica" font-size="12.0" fill="#000000" transform="matrix(1.81, 0.00, -0.00, -1.81, 545.9, 684.7)">f</text><text xml:space="preserve" font-family="Helvetica" font-size="12.0" fill="#000000" transform="matrix(1.81, 0.00, -0.00, -1.81, 551.9, 684.7)">o</text><text xml:space="preserve" font-family="Helvetica" font-size="12.0" fill="#000000" transform="matrix(1.81, 0.00, -0.00, -1.81, 563.9, 684.7)">o</text><text xml:space="preserve" font-family="Helvetica" font-size="12.0" fill="#000000" transform="matrix(1.81, 0.00, -0.00, -1.81, 576.0, 684.7)">d</text><text xml:space="preserve" font-family="Helvetica" font-size="12.0" fill="#000000" transform="matrix(1.81, 0.00, -0.00, -1.81, 588.1, 684.7)"> </text><text xml:space="preserve" font-family="Helvetica" font-size="12.0" fill="#000000" transform="matrix(1.81, 0.00, -0.00, -1.81, 490.1, 659.4)">a</text><text xml:space="preserve" font-family="Helvetica" font-size="12.0" fill="#000000" transform="matrix(1.81, 0.00, -0.00, -1.81, 502.1, 659.4)">p</text><text xml:space="preserve" font-family="Helvetica" font-size="12.0" fill="#000000" transform="matrix(1.81, 0.00, -0.00, -1.81, 514.2, 659.4)">p</text><text xml:space="preserve" font-family="Helvetica" font-size="12.0" fill="#000000" transform="matrix(1.81, 0.00, -0.00, -1.81, 526.2, 659.4)">l</text><text xml:space="preserve" font-family="Helvetica" font-size="12.0" fill="#000000" transform="matrix(1.81, 0.00, -0.00, -1.81, 531.1, 659.4)">i</text><text xml:space="preserve" font-family="Helvetica" font-size="12.0" fill="#000000" transform="matrix(1.81, 0.00, -0.00, -1.81, 535.9, 659.4)">c</text><text xml:space="preserve" font-family="Helvetica" font-size="12.0" fill="#000000" transform="matrix(1.81, 0.00, -0.00, -1.81, 546.7, 659.4)">a</text><text xml:space="preserve" font-family="Helvetica" font-size="12.0" fill="#000000" transform="matrix(1.81, 0.00, -0.00, -1.81, 558.8, 659.4)">t</text><text xml:space="preserve" font-family="Helvetica" font-size="12.0" fill="#000000" transform="matrix(1.81, 0.00, -0.00, -1.81, 564.8, 659.4)">i</text><text xml:space="preserve" font-family="Helvetica" font-size="12.0" fill="#000000" transform="matrix(1.81, 0.00, -0.00, -1.81, 569.6, 659.4)">o</text><text xml:space="preserve" font-family="Helvetica" font-size="12.0" fill="#000000" transform="matrix(1.81, 0.00, -0.00, -1.81, 581.6, 659.4)">n</text><path d="M 476.2 488.8 L 607.6 488.8 C 623.1 488.8 635.8 454.5 635.8 412.1 C 635.8 369.8 623.1 335.4 607.6 335.4 L 476.2 335.4 C 460.6 335.4 448.0 369.8 448.0 412.1 C 448.0 454.5 460.6 488.8 476.2 488.8 " fill="#FEFFFF"></path><path d="M 215.6 311.5 L 288.4 311.5 C 297.0 311.0 304.0 330.0 304.0 353.5 C 304.0 377.0 297.0 396.0 288.4 396.5 L 215.6 396.5 C 207.0 396.0 200.0 377.0 200.0 353.5 C 200.0 330.0 207.0 311.0 215.6 311.0 " fill="none" stroke="#000000" stroke-width="1.00" stroke-miterlimit="0.00" stroke-linecap="round" stroke-linejoin="round" transform="matrix(1.81, 0.00, 0.00, -1.81, 86.9, 1050.2)"></path><text xml:space="preserve" font-family="Helvetica" font-size="12.0" fill="#000000" transform="matrix(1.81, 0.00, -0.00, -1.81, 512.4, 417.5)">a</text><text xml:space="preserve" font-family="Helvetica" font-size="12.0" fill="#000000" transform="matrix(1.81, 0.00, -0.00, -1.81, 524.4, 417.5)">d</text><text xml:space="preserve" font-family="Helvetica" font-size="12.0" fill="#000000" transform="matrix(1.81, 0.00, -0.00, -1.81, 536.5, 417.5)">m</text><text xml:space="preserve" font-family="Helvetica" font-size="12.0" fill="#000000" transform="matrix(1.81, 0.00, -0.00, -1.81, 554.5, 417.5)">i</text><text xml:space="preserve" font-family="Helvetica" font-size="12.0" fill="#000000" transform="matrix(1.81, 0.00, -0.00, -1.81, 559.3, 417.5)">n</text><text xml:space="preserve" font-family="Helvetica" font-size="12.0" fill="#000000" transform="matrix(1.81, 0.00, -0.00, -1.81, 571.4, 417.5)"> </text><text xml:space="preserve" font-family="Helvetica" font-size="12.0" fill="#000000" transform="matrix(1.81, 0.00, -0.00, -1.81, 490.1, 392.3)">a</text><text xml:space="preserve" font-family="Helvetica" font-size="12.0" fill="#000000" transform="matrix(1.81, 0.00, -0.00, -1.81, 502.1, 392.3)">p</text><text xml:space="preserve" font-family="Helvetica" font-size="12.0" fill="#000000" transform="matrix(1.81, 0.00, -0.00, -1.81, 514.2, 392.3)">p</text><text xml:space="preserve" font-family="Helvetica" font-size="12.0" fill="#000000" transform="matrix(1.81, 0.00, -0.00, -1.81, 526.2, 392.3)">l</text><text xml:space="preserve" font-family="Helvetica" font-size="12.0" fill="#000000" transform="matrix(1.81, 0.00, -0.00, -1.81, 531.1, 392.3)">i</text><text xml:space="preserve" font-family="Helvetica" font-size="12.0" fill="#000000" transform="matrix(1.81, 0.00, -0.00, -1.81, 535.9, 392.3)">c</text><text xml:space="preserve" font-family="Helvetica" font-size="12.0" fill="#000000" transform="matrix(1.81, 0.00, -0.00, -1.81, 546.7, 392.3)">a</text><text xml:space="preserve" font-family="Helvetica" font-size="12.0" fill="#000000" transform="matrix(1.81, 0.00, -0.00, -1.81, 558.8, 392.3)">t</text><text xml:space="preserve" font-family="Helvetica" font-size="12.0" fill="#000000" transform="matrix(1.81, 0.00, -0.00, -1.81, 564.8, 392.3)">i</text><text xml:space="preserve" font-family="Helvetica" font-size="12.0" fill="#000000" transform="matrix(1.81, 0.00, -0.00, -1.81, 569.6, 392.3)">o</text><text xml:space="preserve" font-family="Helvetica" font-size="12.0" fill="#000000" transform="matrix(1.81, 0.00, -0.00, -1.81, 581.6, 392.3)">n</text><text xml:space="preserve" font-family="HelveticaNeue" font-size="16.0" fill="#000000" transform="matrix(1.81, 0.00, -0.00, -1.81, 504.8, 815.5)">F</text><text xml:space="preserve" font-family="HelveticaNeue" font-size="16.0" fill="#000000" transform="matrix(1.81, 0.00, -0.00, -1.81, 521.4, 815.5)">o</text><text xml:space="preserve" font-family="HelveticaNeue" font-size="16.0" fill="#000000" transform="matrix(1.81, 0.00, -0.00, -1.81, 538.0, 815.5)">r</text><text xml:space="preserve" font-family="HelveticaNeue" font-size="16.0" fill="#000000" transform="matrix(1.81, 0.00, -0.00, -1.81, 546.8, 815.5)">g</text><text xml:space="preserve" font-family="HelveticaNeue" font-size="16.0" fill="#000000" transform="matrix(1.81, 0.00, -0.00, -1.81, 563.4, 815.5)">e</text><text xml:space="preserve" font-family="HelveticaNeue" font-size="12.0" fill="#000000" transform="matrix(1.81, 0.00, -0.00, -1.81, 728.4, 632.3)">G</text><text xml:space="preserve" font-family="HelveticaNeue" font-size="12.0" fill="#000000" transform="matrix(1.81, 0.00, -0.00, -1.81, 744.9, 632.3)">E</text><text xml:space="preserve" font-family="HelveticaNeue" font-size="12.0" fill="#000000" transform="matrix(1.81, 0.00, -0.00, -1.81, 758.1, 632.3)">T</text><text xml:space="preserve" font-family="HelveticaNeue" font-size="12.0" fill="#000000" transform="matrix(1.81, 0.00, -0.00, -1.81, 689.9, 430.2)">G</text><text xml:space="preserve" font-family="HelveticaNeue" font-size="12.0" fill="#000000" transform="matrix(1.81, 0.00, -0.00, -1.81, 706.4, 430.2)">E</text><text xml:space="preserve" font-family="HelveticaNeue" font-size="12.0" fill="#000000" transform="matrix(1.81, 0.00, -0.00, -1.81, 719.6, 430.2)">T</text><text xml:space="preserve" font-family="HelveticaNeue" font-size="12.0" fill="#000000" transform="matrix(1.81, 0.00, -0.00, -1.81, 689.9, 404.9)">P</text><text xml:space="preserve" font-family="HelveticaNeue" font-size="12.0" fill="#000000" transform="matrix(1.81, 0.00, -0.00, -1.81, 704.0, 404.9)">U</text><text xml:space="preserve" font-family="HelveticaNeue" font-size="12.0" fill="#000000" transform="matrix(1.81, 0.00, -0.00, -1.81, 719.6, 404.9)">T</text><text xml:space="preserve" font-family="HelveticaNeue" font-size="12.0" fill="#000000" transform="matrix(1.81, 0.00, -0.00, -1.81, 689.9, 379.6)">D</text><text xml:space="preserve" font-family="HelveticaNeue" font-size="12.0" fill="#000000" transform="matrix(1.81, 0.00, -0.00, -1.81, 705.2, 379.6)">E</text><text xml:space="preserve" font-family="HelveticaNeue" font-size="12.0" fill="#000000" transform="matrix(1.81, 0.00, -0.00, -1.81, 718.4, 379.6)">L</text><text xml:space="preserve" font-family="HelveticaNeue" font-size="12.0" fill="#000000" transform="matrix(1.81, 0.00, -0.00, -1.81, 730.4, 379.6)">E</text><text xml:space="preserve" font-family="HelveticaNeue" font-size="12.0" fill="#000000" transform="matrix(1.81, 0.00, -0.00, -1.81, 743.7, 379.6)">T</text><text xml:space="preserve" font-family="HelveticaNeue" font-size="12.0" fill="#000000" transform="matrix(1.81, 0.00, -0.00, -1.81, 756.1, 379.6)">E</text><path d="M 302.7 222.3 L 437.6 266.9 " fill="none" stroke="#000000" stroke-width="1.00" stroke-miterlimit="0.00" stroke-linecap="round" stroke-linejoin="round" transform="matrix(1.81, 0.00, 0.00, -1.81, 86.9, 1050.2)"></path><path d="M 890.7 563.9 L 878.7 573.6 L 875.3 563.3 Z M 890.7 563.9 " fill="#000000"></path><path d="M 445.2 269.4 L 438.5 264.0 L 436.7 269.7 Z M 445.2 269.4 " fill="none" stroke="#000000" stroke-width="1.00" stroke-miterlimit="0.00" transform="matrix(1.81, 0.00, 0.00, -1.81, 86.9, 1050.2)"></path><path d="M 312.6 336.2 L 437.5 300.7 " fill="none" stroke="#000000" stroke-width="1.00" stroke-miterlimit="0.00" stroke-linecap="round" stroke-linejoin="round" transform="matrix(1.81, 0.00, 0.00, -1.81, 86.9, 1050.2)"></path><path d="M 890.6 511.5 L 875.3 512.7 L 878.2 502.3 Z M 890.6 511.5 " fill="#000000"></path><path d="M 445.2 298.5 L 436.7 297.8 L 438.3 303.5 Z M 445.2 298.5 " fill="none" stroke="#000000" stroke-width="1.00" stroke-miterlimit="0.00" transform="matrix(1.81, 0.00, 0.00, -1.81, 86.9, 1050.2)"></path><path d="M 637.4 439.3 L 652.7 438.1 L 649.8 448.5 Z M 637.4 439.3 " fill="#000000"></path><path d="M 304.9 338.4 L 313.4 339.1 L 311.8 333.4 Z M 304.9 338.4 " fill="none" stroke="#000000" stroke-width="1.00" stroke-miterlimit="0.00" transform="matrix(1.81, 0.00, 0.00, -1.81, 86.9, 1050.2)"></path></g></g><g><clipPath id="clip-515"><path d="M 264.9 667.1 C 265.1 664.0 267.1 661.0 271.0 658.7 C 279.1 653.6 292.4 653.6 300.6 658.7 C 304.4 661.0 306.4 664.0 306.7 667.1 L 306.7 667.1 C 306.7 667.3 306.7 667.4 306.7 667.6 C 306.7 667.6 306.7 667.6 306.7 667.6 C 306.7 667.6 306.7 667.7 306.7 667.8 C 306.7 667.9 306.7 668.0 306.7 668.1 C 306.4 688.7 297.1 705.2 285.8 705.2 C 274.4 705.2 265.1 688.7 264.8 668.1 C 264.8 668.0 264.8 667.9 264.8 667.8 C 264.8 667.7 264.8 667.6 264.8 667.6 C 264.8 667.6 264.8 667.6 264.8 667.6 C 264.8 667.4 264.8 667.3 264.8 667.1 L 264.9 667.1 Z M 264.9 667.1 "></path></clipPath><g clip-path="url(#clip-515)"><g><clipPath id="clip-516"><path d="M 254.0 126.0 L 1588.2 126.0 L 1588.2 902.2 L 254.0 902.2 Z M 254.0 126.0 "></path></clipPath><g clip-path="url(#clip-516)"><path d="M 254.0 126.0 L 1588.2 126.0 L 1588.2 902.2 L 254.0 902.2 Z M 254.0 126.0 " fill="url(#gradSh1.36)"></path></g></g></g></g><g><clipPath id="clip-517"><path d="M 254.0 126.0 L 1588.2 126.0 L 1588.2 902.2 L 254.0 902.2 Z M 254.0 126.0 "></path></clipPath><g clip-path="url(#clip-517)"><path d="M 98.5 212.0 C 98.7 213.9 99.8 215.6 101.9 216.9 C 106.5 219.7 113.8 219.7 118.3 216.9 C 120.5 215.6 121.6 213.9 121.7 212.0 L 121.7 212.0 C 121.7 212.2 121.7 212.1 121.7 212.0 C 121.7 212.0 121.7 212.0 121.7 212.0 C 121.7 211.9 121.7 211.9 121.7 211.9 C 121.7 211.8 121.7 211.7 121.7 211.7 C 121.6 200.3 116.4 191.1 110.1 191.1 C 103.8 191.1 98.7 200.3 98.6 211.7 C 98.6 211.7 98.5 211.8 98.5 211.9 C 98.5 211.9 98.5 211.9 98.5 212.0 C 98.5 212.0 98.5 212.0 98.5 212.0 C 98.5 212.1 98.5 212.2 98.5 212.0 L 98.5 212.0 Z M 98.5 212.0 " fill="none" stroke="#000000" stroke-width="2.00" stroke-miterlimit="0.00" stroke-linecap="round" stroke-linejoin="round" transform="matrix(1.81, 0.00, 0.00, -1.81, 86.9, 1050.2)"></path></g></g><g><clipPath id="clip-518"><path d="M 297.4 729.5 C 303.9 723.1 303.9 712.6 297.4 706.2 C 291.0 699.7 280.5 699.7 274.1 706.2 C 267.7 712.6 267.7 723.1 274.1 729.5 C 280.5 735.9 291.0 735.9 297.4 729.5 "></path></clipPath><g clip-path="url(#clip-518)"><g><clipPath id="clip-519"><path d="M 254.0 126.0 L 1588.2 126.0 L 1588.2 902.2 L 254.0 902.2 Z M 254.0 126.0 "></path></clipPath><g clip-path="url(#clip-519)"><path d="M 254.0 126.0 L 1588.2 126.0 L 1588.2 902.2 L 254.0 902.2 Z M 254.0 126.0 " fill="url(#gradSh2.37)"></path></g></g></g></g><g><clipPath id="clip-520"><path d="M 254.0 126.0 L 1588.2 126.0 L 1588.2 902.2 L 254.0 902.2 Z M 254.0 126.0 "></path></clipPath><g clip-path="url(#clip-520)"><path d="M 116.6 177.7 C 120.2 181.2 120.2 187.0 116.6 190.6 C 113.0 194.2 107.2 194.2 103.7 190.6 C 100.1 187.0 100.1 181.2 103.7 177.7 C 107.2 174.1 113.0 174.1 116.6 177.7 " fill="none" stroke="#000000" stroke-width="2.00" stroke-miterlimit="0.00" stroke-linecap="round" stroke-linejoin="round" transform="matrix(1.81, 0.00, 0.00, -1.81, 86.9, 1050.2)"></path></g></g><g><clipPath id="clip-521"><path d="M 264.9 393.6 C 265.1 390.6 267.1 387.5 271.0 385.2 C 279.1 380.2 292.4 380.2 300.6 385.2 C 304.4 387.5 306.4 390.6 306.7 393.6 L 306.7 393.6 C 306.7 393.8 306.7 393.9 306.7 394.1 C 306.7 394.1 306.7 394.1 306.7 394.1 C 306.7 394.2 306.7 394.2 306.7 394.3 C 306.7 394.4 306.7 394.5 306.7 394.6 C 306.4 415.2 297.1 431.7 285.8 431.7 C 274.4 431.7 265.1 415.2 264.8 394.6 C 264.8 394.5 264.8 394.4 264.8 394.3 C 264.8 394.2 264.8 394.2 264.8 394.1 C 264.8 394.1 264.8 394.1 264.8 394.1 C 264.8 393.9 264.8 393.8 264.8 393.6 L 264.9 393.6 Z M 264.9 393.6 "></path></clipPath><g clip-path="url(#clip-521)"><g><clipPath id="clip-522"><path d="M 254.0 126.0 L 1588.2 126.0 L 1588.2 902.2 L 254.0 902.2 Z M 254.0 126.0 "></path></clipPath><g clip-path="url(#clip-522)"><path d="M 254.0 126.0 L 1588.2 126.0 L 1588.2 902.2 L 254.0 902.2 Z M 254.0 126.0 " fill="url(#gradSh3.38)"></path></g></g></g></g><g><clipPath id="clip-523"><path d="M 254.0 126.0 L 1588.2 126.0 L 1588.2 902.2 L 254.0 902.2 Z M 254.0 126.0 "></path></clipPath><g clip-path="url(#clip-523)"><path d="M 98.5 364.0 C 98.7 365.4 99.8 367.1 101.9 368.4 C 106.5 371.2 113.8 371.2 118.3 368.4 C 120.5 367.1 121.6 365.4 121.7 364.0 L 121.7 364.0 C 121.7 363.7 121.7 363.6 121.7 363.5 C 121.7 363.5 121.7 363.5 121.7 363.5 C 121.7 363.4 121.7 363.4 121.7 363.4 C 121.7 363.3 121.7 363.2 121.7 363.2 C 121.6 351.8 116.4 342.6 110.1 342.6 C 103.8 342.6 98.7 351.8 98.6 363.2 C 98.6 363.2 98.5 363.3 98.5 363.4 C 98.5 363.4 98.5 363.4 98.5 363.5 C 98.5 363.5 98.5 363.5 98.5 363.5 C 98.5 363.6 98.5 363.7 98.5 364.0 L 98.5 364.0 Z M 98.5 364.0 " fill="none" stroke="#000000" stroke-width="2.00" stroke-miterlimit="0.00" stroke-linecap="round" stroke-linejoin="round" transform="matrix(1.81, 0.00, 0.00, -1.81, 86.9, 1050.2)"></path></g></g><g><clipPath id="clip-524"><path d="M 297.4 456.0 C 303.9 449.6 303.9 439.1 297.4 432.7 C 291.0 426.3 280.5 426.3 274.1 432.7 C 267.7 439.1 267.7 449.6 274.1 456.0 C 280.5 462.5 291.0 462.5 297.4 456.0 "></path></clipPath><g clip-path="url(#clip-524)"><g><clipPath id="clip-525"><path d="M 254.0 126.0 L 1588.2 126.0 L 1588.2 902.2 L 254.0 902.2 Z M 254.0 126.0 "></path></clipPath><g clip-path="url(#clip-525)"><path d="M 254.0 126.0 L 1588.2 126.0 L 1588.2 902.2 L 254.0 902.2 Z M 254.0 126.0 " fill="url(#gradSh4.39)"></path></g></g></g></g><g><clipPath id="clip-526"><path d="M 254.0 126.0 L 1588.2 126.0 L 1588.2 902.2 L 254.0 902.2 Z M 254.0 126.0 "></path></clipPath><g clip-path="url(#clip-526)"><path d="M 116.6 329.2 C 120.2 332.7 120.2 338.5 116.6 342.1 C 113.0 345.7 107.2 345.7 103.7 342.1 C 100.1 338.5 100.1 332.7 103.7 329.2 C 107.2 325.6 113.0 325.6 116.6 329.2 " fill="none" stroke="#000000" stroke-width="2.00" stroke-miterlimit="0.00" stroke-linecap="round" stroke-linejoin="round" transform="matrix(1.81, 0.00, 0.00, -1.81, 86.9, 1050.2)"></path><path d="M 122.1 205.1 L 190.1 205.3 " fill="none" stroke="#000000" stroke-width="1.00" stroke-miterlimit="0.00" stroke-linecap="round" stroke-linejoin="round" transform="matrix(1.81, 0.00, 0.00, -1.81, 86.9, 1050.2)"></path><path d="M 444.6 679.6 L 430.1 685.0 L 430.1 674.2 Z M 444.6 679.6 " fill="#000000"></path><path d="M 198.1 205.3 L 190.1 202.3 L 190.1 208.3 Z M 198.1 205.3 " fill="none" stroke="#000000" stroke-width="1.00" stroke-miterlimit="0.00" transform="matrix(1.81, 0.00, 0.00, -1.81, 86.9, 1050.2)"></path><path d="M 122.0 356.3 L 190.1 354.8 " fill="none" stroke="#000000" stroke-width="1.00" stroke-miterlimit="0.00" stroke-linecap="round" stroke-linejoin="round" transform="matrix(1.81, 0.00, 0.00, -1.81, 86.9, 1050.2)"></path><path d="M 444.6 410.0 L 430.0 415.1 L 430.2 404.3 Z M 444.6 410.0 " fill="#000000"></path><path d="M 198.1 354.7 L 190.0 351.8 L 190.2 357.8 Z M 198.1 354.7 " fill="none" stroke="#000000" stroke-width="1.00" stroke-miterlimit="0.00" transform="matrix(1.81, 0.00, 0.00, -1.81, 86.9, 1050.2)"></path><path d="M 978.9 536.3 C 977.7 536.1 976.4 535.8 975.1 535.6 C 974.4 535.4 973.7 535.3 978.9 536.3 Z M 978.9 536.3 " fill="#20405E"></path><path d="M 975.8 626.0 C 992.6 626.0 1007.0 624.9 1018.8 623.1 C 1044.2 619.2 1057.7 612.7 1057.7 608.6 C 1057.7 604.6 1044.2 597.9 1018.8 594.1 C 1007.0 592.3 992.6 591.2 975.8 591.2 C 922.8 591.2 893.9 602.7 893.9 608.6 C 893.9 614.5 922.8 626.0 975.8 626.0 Z M 975.8 626.0 " fill="#666967"></path><path d="M 1057.7 608.6 L 1057.7 599.8 C 1057.7 595.7 1044.2 589.1 1018.8 585.3 C 1007.0 583.5 992.6 582.3 975.8 582.3 C 922.8 582.3 893.9 593.9 893.9 599.8 L 893.9 608.6 C 893.9 602.7 922.8 591.2 975.8 591.2 C 992.6 591.2 1007.0 592.3 1018.8 594.1 C 1044.2 597.9 1057.7 604.6 1057.7 608.6 Z M 1057.7 608.6 " fill="#414341"></path><path d="M 1057.7 608.6 L 1057.7 599.8 C 1057.7 599.7 1057.7 599.5 1057.6 599.4 L 1057.6 608.2 C 1057.7 608.4 1057.7 608.5 1057.7 608.6 Z M 1057.7 608.6 " fill="#414341"></path><path d="M 1057.6 608.2 L 1057.6 599.4 C 1057.6 599.3 1057.6 599.1 1057.5 598.9 L 1057.5 607.7 C 1057.6 607.9 1057.6 608.1 1057.6 608.2 Z M 1057.6 608.2 " fill="#414341"></path><path d="M 1057.5 607.7 L 1057.5 598.9 C 1057.4 598.7 1057.2 598.4 1057.1 598.2 L 1057.1 607.0 C 1057.2 607.3 1057.4 607.5 1057.5 607.7 Z M 1057.5 607.7 " fill="#414341"></path><path d="M 1057.1 607.0 L 1057.1 598.2 C 1054.2 594.2 1041.0 588.6 1018.8 585.3 C 1007.0 583.5 992.6 582.3 975.8 582.3 C 922.8 582.3 893.9 593.9 893.9 599.8 L 893.9 608.6 C 893.9 602.7 922.8 591.2 975.8 591.2 C 992.6 591.2 1007.0 592.3 1018.8 594.1 C 1041.0 597.5 1054.2 603.0 1057.1 607.0 Z M 1057.1 607.0 " fill="#414341"></path><path d="M 1057.6 475.9 C 1057.7 476.3 1057.8 476.7 1057.8 477.1 L 1057.8 462.8 C 1057.8 462.7 1057.8 462.5 1057.8 462.3 C 1057.7 462.1 1057.7 461.9 1057.6 461.7 L 1057.6 461.6 L 1057.5 461.6 C 1057.4 461.3 1057.2 461.0 1057.0 460.8 C 1057.0 460.7 1056.9 460.6 1056.9 460.5 C 1056.7 460.4 1056.5 460.2 1056.4 460.0 C 1056.2 459.7 1055.9 459.5 1055.7 459.3 C 1055.4 459.1 1055.2 458.9 1054.9 458.7 C 1054.6 458.4 1054.3 458.2 1053.9 457.9 C 1053.6 457.7 1053.3 457.5 1053.0 457.3 C 1052.6 457.1 1052.1 456.8 1051.7 456.6 C 1051.3 456.4 1050.9 456.1 1050.5 455.9 C 1050.0 455.7 1049.4 455.4 1048.8 455.2 C 1048.4 455.0 1047.9 454.8 1047.5 454.6 C 1046.7 454.3 1046.0 454.0 1045.2 453.7 C 1044.7 453.5 1044.3 453.4 1043.9 453.2 C 1042.6 452.8 1041.3 452.4 1039.8 451.9 C 1039.3 451.8 1038.8 451.7 1038.3 451.5 C 1037.3 451.3 1036.2 451.0 1035.1 450.7 C 1034.4 450.5 1033.7 450.4 1033.0 450.2 C 1031.9 450.0 1030.9 449.8 1029.8 449.5 C 1029.0 449.4 1028.1 449.2 1027.3 449.1 C 1026.2 448.9 1025.0 448.7 1023.8 448.5 C 1022.9 448.4 1022.0 448.2 1021.0 448.1 C 1019.8 447.9 1018.5 447.7 1017.2 447.6 C 1016.3 447.4 1015.3 447.3 1014.2 447.2 C 1012.9 447.1 1011.4 446.9 1010.0 446.8 C 1008.9 446.7 1007.9 446.6 1006.8 446.5 C 1005.2 446.4 1003.6 446.3 1002.0 446.2 C 1000.9 446.1 999.8 446.0 998.7 446.0 C 996.9 445.9 994.9 445.8 992.9 445.7 C 992.0 445.7 991.0 445.7 990.0 445.6 C 987.0 445.5 983.9 445.5 980.6 445.5 C 950.8 445.5 928.3 448.7 913.6 452.7 C 902.7 456.0 894.9 459.5 894.0 462.3 L 894.0 476.6 C 894.9 474.0 901.7 470.7 911.4 467.6 L 911.2 468.5 C 925.9 464.5 950.8 459.8 980.6 459.8 C 983.9 459.8 987.0 459.8 990.0 459.9 C 991.0 459.9 991.9 459.9 992.9 460.0 C 994.9 460.1 996.9 460.1 998.7 460.2 C 999.8 460.3 1000.9 460.3 1001.9 460.4 C 1003.6 460.5 1005.2 460.6 1006.8 460.8 C 1007.9 460.8 1008.9 460.9 1009.9 461.0 C 1011.4 461.2 1012.9 461.3 1014.3 461.5 C 1015.3 461.6 1016.2 461.7 1017.1 461.8 C 1018.5 462.0 1019.9 462.2 1021.2 462.4 L 1039.7 466.2 C 1041.2 466.6 1042.7 467.0 1044.0 467.5 L 1047.6 468.9 C 1047.9 469.0 1048.1 469.1 1048.4 469.2 C 1049.2 469.6 1049.9 469.9 1050.6 470.2 C 1050.9 470.4 1051.2 470.5 1051.4 470.7 C 1052.0 471.0 1052.6 471.3 1053.1 471.6 C 1053.3 471.8 1053.6 471.9 1053.8 472.1 C 1054.2 472.4 1054.7 472.7 1055.0 473.0 C 1055.2 473.1 1055.4 473.3 1055.6 473.5 C 1055.9 473.7 1056.2 474.0 1056.4 474.3 C 1056.6 474.5 1056.7 474.6 1056.8 474.8 Z M 1057.6 475.9 " fill="#414341"></path><path d="M 1017.8 579.9 C 1015.6 579.6 1013.3 579.3 1011.1 579.0 C 1009.9 578.9 1008.7 578.7 1007.5 578.6 C 1005.4 578.4 1003.3 578.2 1001.2 578.0 C 999.8 577.9 998.4 577.8 997.0 577.7 C 994.3 577.6 991.5 577.4 988.7 577.3 L 987.3 577.3 C 984.1 577.1 980.8 577.1 977.4 577.1 C 976.7 577.1 976.0 577.1 975.2 577.1 C 942.7 577.1 910.0 581.8 894.0 590.8 L 894.0 471.1 C 894.9 468.4 902.7 464.8 913.5 461.5 C 928.1 457.6 950.7 454.3 980.6 454.3 C 1035.1 454.3 1057.8 465.6 1057.8 471.6 L 1057.9 591.9 C 1049.4 586.9 1035.7 582.6 1017.8 579.9 Z M 1017.8 579.9 " fill="#666967"></path><text xml:space="preserve" font-family="Helvetica" font-size="12.0" fill="#000000" transform="matrix(1.81, 0.00, -0.00, -1.81, 932.6, 515.9)">K</text><text xml:space="preserve" font-family="Helvetica" font-size="12.0" fill="#000000" transform="matrix(1.81, 0.00, -0.00, -1.81, 947.1, 515.9)">V</text><text xml:space="preserve" font-family="Helvetica" font-size="12.0" fill="#000000" transform="matrix(1.81, 0.00, -0.00, -1.81, 961.5, 515.9)"> </text><text xml:space="preserve" font-family="Helvetica" font-size="12.0" fill="#000000" transform="matrix(1.81, 0.00, -0.00, -1.81, 967.6, 515.9)">S</text><text xml:space="preserve" font-family="Helvetica" font-size="12.0" fill="#000000" transform="matrix(1.81, 0.00, -0.00, -1.81, 982.0, 515.9)">t</text><text xml:space="preserve" font-family="Helvetica" font-size="12.0" fill="#000000" transform="matrix(1.81, 0.00, -0.00, -1.81, 988.0, 515.9)">o</text><text xml:space="preserve" font-family="Helvetica" font-size="12.0" fill="#000000" transform="matrix(1.81, 0.00, -0.00, -1.81, 1000.1, 515.9)">r</text><text xml:space="preserve" font-family="Helvetica" font-size="12.0" fill="#000000" transform="matrix(1.81, 0.00, -0.00, -1.81, 1007.3, 515.9)">e</text><path d="M 564.0 83.0 L 566.1 440.4 L 565.6 480.2 " fill="none" stroke="#AB3933" stroke-width="1.00" stroke-miterlimit="0.00" stroke-linecap="round" stroke-linejoin="round" stroke-dasharray="4.0, 4.0" transform="matrix(1.81, 0.00, 0.00, -1.81, 86.9, 1050.2)"></path><path d="M 1550.2 595.1 L 1563.6 585.4 L 1563.6 599.1 L 1550.1 614.9 L 1550.1 595.2 L 1550.2 595.1 Z M 1550.2 595.1 " fill="#3367A2"></path><path d="M 1524.3 497.9 L 1550.1 510.8 L 1550.1 615.0 L 1524.3 627.8 Z M 1524.3 497.9 " fill="#5189BB"></path><path d="M 1487.6 497.9 L 1461.8 510.8 L 1461.8 615.0 L 1487.6 627.8 Z M 1487.6 497.9 " fill="#285285"></path><path d="M 1487.6 627.8 L 1524.3 627.8 L 1524.3 497.9 L 1487.6 497.9 Z M 1487.6 627.8 " fill="#3367A2"></path><path d="M 1550.1 530.5 L 1550.1 510.8 L 1563.6 526.6 L 1563.6 540.3 L 1550.2 530.6 Z M 1550.1 530.5 " fill="#3367A2"></path><path d="M 1550.1 538.9 L 1550.2 538.9 L 1563.6 546.1 L 1563.6 559.9 L 1550.1 558.7 Z M 1550.1 538.9 " fill="#3367A2"></path><path d="M 1550.2 586.7 L 1550.1 586.7 L 1550.1 567.0 L 1563.6 565.8 L 1563.6 579.6 Z M 1550.2 586.7 " fill="#3367A2"></path><path d="M 1563.6 565.8 L 1550.1 567.0 L 1524.3 568.0 L 1487.6 568.0 L 1461.8 567.0 L 1461.8 586.7 L 1461.8 586.7 L 1461.8 586.7 L 1487.6 592.7 L 1524.3 592.7 L 1550.1 586.7 L 1559.6 581.7 L 1559.6 584.9 L 1563.6 585.4 L 1550.1 595.2 L 1524.3 603.2 L 1487.6 603.2 L 1461.8 595.2 L 1461.8 614.9 L 1448.3 599.1 L 1448.3 585.3 L 1448.4 585.4 L 1452.3 584.9 L 1452.3 581.6 L 1448.3 579.5 L 1448.3 565.7 L 1448.4 565.8 L 1452.3 565.7 L 1452.3 559.9 L 1448.9 559.9 L 1448.3 559.9 L 1448.3 546.2 L 1452.3 544.0 L 1452.3 540.7 L 1448.4 540.3 L 1448.3 540.4 L 1448.3 526.6 L 1461.8 510.8 L 1461.8 530.5 L 1487.6 522.5 L 1524.3 522.5 L 1550.2 530.6 L 1563.6 540.2 L 1559.6 540.7 L 1559.6 544.0 L 1550.2 538.9 L 1524.3 533.0 L 1524.3 532.9 L 1487.6 532.9 L 1487.6 533.0 L 1461.7 538.9 L 1461.7 539.0 L 1461.8 538.9 L 1461.8 558.7 L 1487.6 557.7 L 1487.6 557.6 L 1524.3 557.6 L 1524.3 557.7 L 1550.1 558.7 L 1563.6 559.9 L 1559.6 559.9 L 1559.6 565.7 Z M 1563.6 565.8 " fill="#213F5E"></path><text xml:space="preserve" font-family="HelveticaNeue" font-size="16.0" fill="#000000" transform="matrix(1.81, 0.00, -0.00, -1.81, 1432.1, 644.1)">D</text><text xml:space="preserve" font-family="HelveticaNeue" font-size="16.0" fill="#000000" transform="matrix(1.81, 0.00, -0.00, -1.81, 1452.4, 644.1)">y</text><text xml:space="preserve" font-family="HelveticaNeue" font-size="16.0" fill="#000000" transform="matrix(1.81, 0.00, -0.00, -1.81, 1466.9, 644.1)">n</text><text xml:space="preserve" font-family="HelveticaNeue" font-size="16.0" fill="#000000" transform="matrix(1.81, 0.00, -0.00, -1.81, 1482.9, 644.1)">a</text><text xml:space="preserve" font-family="HelveticaNeue" font-size="16.0" fill="#000000" transform="matrix(1.81, 0.00, -0.00, -1.81, 1498.5, 644.1)">m</text><text xml:space="preserve" font-family="HelveticaNeue" font-size="16.0" fill="#000000" transform="matrix(1.81, 0.00, -0.00, -1.81, 1523.1, 644.1)">o</text><text xml:space="preserve" font-family="HelveticaNeue" font-size="16.0" fill="#000000" transform="matrix(1.81, 0.00, -0.00, -1.81, 1539.7, 644.1)">D</text><text xml:space="preserve" font-family="HelveticaNeue" font-size="16.0" fill="#000000" transform="matrix(1.81, 0.00, -0.00, -1.81, 1560.0, 644.1)">B</text><path d="M 1343.9 256.0 C 1359.5 256.0 1372.1 246.7 1372.1 235.3 L 1372.1 153.9 C 1372.1 142.5 1359.5 133.2 1343.9 133.2 L 1236.2 133.2 C 1220.7 133.2 1208.1 142.5 1208.1 153.9 L 1208.1 235.3 C 1208.1 246.7 1220.7 256.0 1236.2 256.0 Z M 1343.9 256.0 " fill="#E77C3B"></path><text xml:space="preserve" font-family="Helvetica" font-size="12.0" fill="#000000" transform="matrix(1.81, 0.00, -0.00, -1.81, 1255.7, 212.6)">H</text><text xml:space="preserve" font-family="Helvetica" font-size="12.0" fill="#000000" transform="matrix(1.81, 0.00, -0.00, -1.81, 1271.4, 212.6)">e</text><text xml:space="preserve" font-family="Helvetica" font-size="12.0" fill="#000000" transform="matrix(1.81, 0.00, -0.00, -1.81, 1283.4, 212.6)">s</text><text xml:space="preserve" font-family="Helvetica" font-size="12.0" fill="#000000" transform="matrix(1.81, 0.00, -0.00, -1.81, 1294.3, 212.6)">t</text><text xml:space="preserve" font-family="Helvetica" font-size="12.0" fill="#000000" transform="matrix(1.81, 0.00, -0.00, -1.81, 1300.3, 212.6)">o</text><text xml:space="preserve" font-family="Helvetica" font-size="12.0" fill="#000000" transform="matrix(1.81, 0.00, -0.00, -1.81, 1312.3, 212.6)">n</text><text xml:space="preserve" font-family="Helvetica" font-size="12.0" fill="#000000" transform="matrix(1.81, 0.00, -0.00, -1.81, 1324.4, 212.6)"> </text><text xml:space="preserve" font-family="Helvetica" font-size="12.0" fill="#000000" transform="matrix(1.81, 0.00, -0.00, -1.81, 1236.9, 187.4)">T</text><text xml:space="preserve" font-family="Helvetica" font-size="12.0" fill="#000000" transform="matrix(1.81, 0.00, -0.00, -1.81, 1249.3, 187.4)">r</text><text xml:space="preserve" font-family="Helvetica" font-size="12.0" fill="#000000" transform="matrix(1.81, 0.00, -0.00, -1.81, 1256.5, 187.4)">a</text><text xml:space="preserve" font-family="Helvetica" font-size="12.0" fill="#000000" transform="matrix(1.81, 0.00, -0.00, -1.81, 1268.6, 187.4)">n</text><text xml:space="preserve" font-family="Helvetica" font-size="12.0" fill="#000000" transform="matrix(1.81, 0.00, -0.00, -1.81, 1280.6, 187.4)">s</text><text xml:space="preserve" font-family="Helvetica" font-size="12.0" fill="#000000" transform="matrix(1.81, 0.00, -0.00, -1.81, 1291.5, 187.4)">l</text><text xml:space="preserve" font-family="Helvetica" font-size="12.0" fill="#000000" transform="matrix(1.81, 0.00, -0.00, -1.81, 1296.3, 187.4)">a</text><text xml:space="preserve" font-family="Helvetica" font-size="12.0" fill="#000000" transform="matrix(1.81, 0.00, -0.00, -1.81, 1308.3, 187.4)">t</text><text xml:space="preserve" font-family="Helvetica" font-size="12.0" fill="#000000" transform="matrix(1.81, 0.00, -0.00, -1.81, 1314.4, 187.4)">i</text><text xml:space="preserve" font-family="Helvetica" font-size="12.0" fill="#000000" transform="matrix(1.81, 0.00, -0.00, -1.81, 1319.2, 187.4)">o</text><text xml:space="preserve" font-family="Helvetica" font-size="12.0" fill="#000000" transform="matrix(1.81, 0.00, -0.00, -1.81, 1331.2, 187.4)">n</text><text xml:space="preserve" font-family="Helvetica" font-size="12.0" fill="#000000" transform="matrix(1.81, 0.00, -0.00, -1.81, 1343.3, 187.4)"> </text><text xml:space="preserve" font-family="Helvetica" font-size="12.0" fill="#000000" transform="matrix(1.81, 0.00, -0.00, -1.81, 1253.9, 162.1)">S</text><text xml:space="preserve" font-family="Helvetica" font-size="12.0" fill="#000000" transform="matrix(1.81, 0.00, -0.00, -1.81, 1268.4, 162.1)">e</text><text xml:space="preserve" font-family="Helvetica" font-size="12.0" fill="#000000" transform="matrix(1.81, 0.00, -0.00, -1.81, 1280.5, 162.1)">r</text><text xml:space="preserve" font-family="Helvetica" font-size="12.0" fill="#000000" transform="matrix(1.81, 0.00, -0.00, -1.81, 1287.7, 162.1)">v</text><text xml:space="preserve" font-family="Helvetica" font-size="12.0" fill="#000000" transform="matrix(1.81, 0.00, -0.00, -1.81, 1298.5, 162.1)">i</text><text xml:space="preserve" font-family="Helvetica" font-size="12.0" fill="#000000" transform="matrix(1.81, 0.00, -0.00, -1.81, 1303.3, 162.1)">c</text><text xml:space="preserve" font-family="Helvetica" font-size="12.0" fill="#000000" transform="matrix(1.81, 0.00, -0.00, -1.81, 1314.1, 162.1)">e</text><path d="M 1372.1 153.9 L 1372.1 146.7 C 1372.1 135.3 1359.5 126.0 1343.9 126.0 L 1343.9 133.2 C 1359.5 133.2 1372.1 142.5 1372.1 153.9 Z M 1372.1 153.9 " fill="#8E4B2A"></path><path d="M 1372.1 153.9 L 1372.1 146.7 C 1372.1 145.7 1372.0 144.7 1371.8 143.7 L 1371.8 150.9 C 1372.0 151.9 1372.1 152.9 1372.1 153.9 Z M 1372.1 153.9 " fill="#8E4B2A"></path><path d="M 1371.8 150.9 L 1371.8 143.7 C 1371.6 142.6 1371.2 141.5 1370.7 140.4 L 1370.7 147.6 C 1371.2 148.7 1371.6 149.8 1371.8 150.9 Z M 1371.8 150.9 " fill="#8E4B2A"></path><path d="M 1370.7 147.6 L 1370.7 140.4 C 1370.2 139.1 1369.5 137.9 1368.6 136.7 L 1368.6 144.0 C 1369.5 145.1 1370.2 146.3 1370.7 147.6 Z M 1370.7 147.6 " fill="#8E4B2A"></path><path d="M 1368.6 144.0 L 1368.6 136.7 C 1363.8 130.3 1354.6 126.0 1343.9 126.0 L 1343.9 133.2 C 1354.6 133.2 1363.8 137.6 1368.6 144.0 Z M 1368.6 144.0 " fill="#8E4B2A"></path><path d="M 1235.1 133.2 L 1344.1 133.2 L 1344.1 126.0 L 1235.1 126.0 Z M 1235.1 133.2 " fill="#8E4B2A"></path><path d="M 1236.2 133.2 L 1236.2 126.0 C 1220.7 126.0 1208.1 135.3 1208.1 146.7 L 1208.1 153.9 C 1208.1 142.5 1220.7 133.2 1236.2 133.2 Z M 1236.2 133.2 " fill="#8E4B2A"></path><path d="M 1237.4 133.2 L 1237.4 126.0 C 1221.8 126.0 1208.1 135.3 1208.1 146.7 L 1208.1 153.9 C 1208.1 142.5 1220.7 133.2 1237.4 133.2 Z M 1237.4 133.2 " fill="#8E4B2A"></path><path d="M 312.5 371.4 L 611.5 459.8 " fill="none" stroke="#000000" stroke-width="1.00" stroke-miterlimit="0.00" stroke-linecap="round" stroke-linejoin="round" transform="matrix(1.81, 0.00, 0.00, -1.81, 86.9, 1050.2)"></path><path d="M 1204.8 216.2 L 1192.5 225.5 L 1189.4 215.1 Z M 1204.8 216.2 " fill="#000000"></path><path d="M 619.2 462.0 L 612.4 456.9 L 610.7 462.6 Z M 619.2 462.0 " fill="none" stroke="#000000" stroke-width="1.00" stroke-miterlimit="0.00" transform="matrix(1.81, 0.00, 0.00, -1.81, 86.9, 1050.2)"></path><path d="M 637.2 383.9 L 649.5 374.6 L 652.6 385.0 Z M 637.2 383.9 " fill="#000000"></path><path d="M 304.8 369.1 L 311.6 374.3 L 313.3 368.5 Z M 304.8 369.1 " fill="none" stroke="#000000" stroke-width="1.00" stroke-miterlimit="0.00" transform="matrix(1.81, 0.00, 0.00, -1.81, 86.9, 1050.2)"></path><path d="M 692.3 431.4 L 760.1 314.6 " fill="none" stroke="#000000" stroke-width="1.00" stroke-miterlimit="0.00" stroke-linecap="round" stroke-linejoin="round" transform="matrix(1.81, 0.00, 0.00, -1.81, 86.9, 1050.2)"></path><path d="M 1466.5 494.9 L 1454.6 485.1 L 1463.9 479.7 Z M 1466.5 494.9 " fill="#000000"></path><path d="M 764.1 307.6 L 757.5 313.1 L 762.7 316.1 Z M 764.1 307.6 " fill="none" stroke="#000000" stroke-width="1.00" stroke-miterlimit="0.00" transform="matrix(1.81, 0.00, 0.00, -1.81, 86.9, 1050.2)"></path><path d="M 1329.5 258.9 L 1341.5 268.7 L 1332.1 274.1 Z M 1329.5 258.9 " fill="#000000"></path><path d="M 688.3 438.4 L 694.9 432.9 L 689.7 429.9 Z M 688.3 438.4 " fill="none" stroke="#000000" stroke-width="1.00" stroke-miterlimit="0.00" transform="matrix(1.81, 0.00, 0.00, -1.81, 86.9, 1050.2)"></path></g></g></g></svg>