<?xml version="1.0" encoding="UTF-8" standalone="no"?><svg xmlns="http://www.w3.org/2000/svg" xmlns:xlink="http://www.w3.org/1999/xlink" clip-rule="evenodd" stroke-miterlimit="4.00" viewBox="0 0 180 20"><desc>SVG generated by Keynote</desc><defs></defs><g transform="matrix(1.00, 0.00, -0.00, -1.00, 0.0, 20.0)"><text xml:space="preserve" font-family="HelveticaNeue" font-size="23.0" fill="#000000" transform="matrix(1.00, 0.00, -0.00, -1.00, 1.0, 2.0)">P</text><text xml:space="preserve" font-family="HelveticaNeue" font-size="23.0" fill="#000000" transform="matrix(1.00, 0.00, -0.00, -1.00, 15.9, 2.0)">r</text><text xml:space="preserve" font-family="HelveticaNeue" font-size="23.0" fill="#000000" transform="matrix(1.00, 0.00, -0.00, -1.00, 23.1, 2.0)">e</text><text xml:space="preserve" font-family="HelveticaNeue" font-size="23.0" fill="#000000" transform="matrix(1.00, 0.00, -0.00, -1.00, 35.5, 2.0)">s</text><text xml:space="preserve" font-family="HelveticaNeue" font-size="23.0" fill="#000000" transform="matrix(1.00, 0.00, -0.00, -1.00, 47.0, 2.0)">e</text><text xml:space="preserve" font-family="HelveticaNeue" font-size="23.0" fill="#000000" transform="matrix(1.00, 0.00, -0.00, -1.00, 59.4, 2.0)">n</text><text xml:space="preserve" font-family="HelveticaNeue" font-size="23.0" fill="#000000" transform="matrix(1.00, 0.00, -0.00, -1.00, 72.1, 2.0)">t</text><text xml:space="preserve" font-family="HelveticaNeue" font-size="23.0" fill="#000000" transform="matrix(1.00, 0.00, -0.00, -1.00, 79.4, 2.0)">a</text><text xml:space="preserve" font-family="HelveticaNeue" font-size="23.0" fill="#000000" transform="matrix(1.00, 0.00, -0.00, -1.00, 91.7, 2.0)">t</text><text xml:space="preserve" font-family="HelveticaNeue" font-size="23.0" fill="#000000" transform="matrix(1.00, 0.00, -0.00, -1.00, 99.0, 2.0)">i</text><text xml:space="preserve" font-family="HelveticaNeue" font-size="23.0" fill="#000000" transform="matrix(1.00, 0.00, -0.00, -1.00, 104.1, 2.0)">o</text><text xml:space="preserve" font-family="HelveticaNeue" font-size="23.0" fill="#000000" transform="matrix(1.00, 0.00, -0.00, -1.00, 117.3, 2.0)">n</text><text xml:space="preserve" font-family="HelveticaNeue" font-size="23.0" fill="#000000" transform="matrix(1.00, 0.00, -0.00, -1.00, 130.1, 2.0)"> </text><text xml:space="preserve" font-family="HelveticaNeue" font-size="23.0" fill="#000000" transform="matrix(1.00, 0.00, -0.00, -1.00, 136.5, 2.0)">T</text><text xml:space="preserve" font-family="HelveticaNeue" font-size="23.0" fill="#000000" transform="matrix(1.00, 0.00, -0.00, -1.00, 149.7, 2.0)">i</text><text xml:space="preserve" font-family="HelveticaNeue" font-size="23.0" fill="#000000" transform="matrix(1.00, 0.00, -0.00, -1.00, 154.8, 2.0)">t</text><text xml:space="preserve" font-family="HelveticaNeue" font-size="23.0" fill="#000000" transform="matrix(1.00, 0.00, -0.00, -1.00, 162.0, 2.0)">l</text><text xml:space="preserve" font-family="HelveticaNeue" font-size="23.0" fill="#000000" transform="matrix(1.00, 0.00, -0.00, -1.00, 167.1, 2.0)">e</text></g></svg>