<?xml version="1.0" encoding="UTF-8" standalone="no"?><svg xmlns="http://www.w3.org/2000/svg" xmlns:xlink="http://www.w3.org/1999/xlink" clip-rule="evenodd" stroke-miterlimit="4.00" viewBox="0 0 1920 1080"><desc>SVG generated by Keynote</desc><defs><radialGradient id="gradSh1.72" cx="0.0" cy="-3.7" r="21.1" fx="0.0" fy="-3.7" gradientUnits="userSpaceOnUse" gradientTransform="matrix(1.67, 0.00, 0.00, -1.67, 331.6, 886.6)"><stop offset="0.00000" stop-color="#FFFFFF"></stop><stop offset="0.00880" stop-color="#FEFEFE"></stop><stop offset="1.00000" stop-color="#AAAAAA"></stop></radialGradient><radialGradient id="gradSh2.73" cx="0.0" cy="0.0" r="12.9" fx="0.0" fy="0.0" gradientUnits="userSpaceOnUse" gradientTransform="matrix(1.67, 0.00, 0.00, -1.67, 331.6, 921.5)"><stop offset="0.00000" stop-color="#FFFFFF"></stop><stop offset="0.01466" stop-color="#FEFEFE"></stop><stop offset="1.00000" stop-color="#CECECE"></stop></radialGradient><radialGradient id="gradSh3.74" cx="0.0" cy="-3.7" r="21.1" fx="0.0" fy="-3.7" gradientUnits="userSpaceOnUse" gradientTransform="matrix(1.67, 0.00, 0.00, -1.67, 1079.4, 108.6)"><stop offset="0.00000" stop-color="#FFFFFF"></stop><stop offset="0.00880" stop-color="#FEFEFE"></stop><stop offset="1.00000" stop-color="#AAAAAA"></stop></radialGradient><radialGradient id="gradSh4.75" cx="0.0" cy="0.0" r="12.9" fx="0.0" fy="0.0" gradientUnits="userSpaceOnUse" gradientTransform="matrix(1.67, 0.00, 0.00, -1.67, 1079.4, 143.5)"><stop offset="0.00000" stop-color="#FFFFFF"></stop><stop offset="0.01466" stop-color="#FEFEFE"></stop><stop offset="1.00000" stop-color="#CECECE"></stop></radialGradient></defs><g transform="matrix(1.00, 0.00, -0.00, -1.00, 0.0, 1080.0)"><path d="M 0.0 1080.0 L 1920.0 1080.0 L 1920.0 0.0 L 0.0 0.0 Z M 0.0 1080.0 " fill="#EEEDED"></path><path d="M 0.0 0.0 L 1836.0 0.0 " fill="none" stroke="#000000" stroke-width="2.00" transform="matrix(1.00, 0.00, 0.00, -1.00, 41.0, 58.0)"></path><text xml:space="preserve" font-family="HelveticaNeue-Bold" font-weight="bold" font-size="23.0" fill="#000000" transform="matrix(1.00, 0.00, -0.00, -1.00, 61.0, 24.0)">D</text><text xml:space="preserve" font-family="HelveticaNeue-Bold" font-weight="bold" font-size="23.0" fill="#000000" transform="matrix(1.00, 0.00, -0.00, -1.00, 78.0, 24.0)">i</text><text xml:space="preserve" font-family="HelveticaNeue-Bold" font-weight="bold" font-size="23.0" fill="#000000" transform="matrix(1.00, 0.00, -0.00, -1.00, 84.0, 24.0)">s</text><text xml:space="preserve" font-family="HelveticaNeue-Bold" font-weight="bold" font-size="23.0" fill="#000000" transform="matrix(1.00, 0.00, -0.00, -1.00, 96.3, 24.0)">m</text><text xml:space="preserve" font-family="HelveticaNeue-Bold" font-weight="bold" font-size="23.0" fill="#000000" transform="matrix(1.00, 0.00, -0.00, -1.00, 117.2, 24.0)">a</text><text xml:space="preserve" font-family="HelveticaNeue-Bold" font-weight="bold" font-size="23.0" fill="#000000" transform="matrix(1.00, 0.00, -0.00, -1.00, 130.4, 24.0)">n</text><text xml:space="preserve" font-family="HelveticaNeue-Bold" font-weight="bold" font-size="23.0" fill="#000000" transform="matrix(1.00, 0.00, -0.00, -1.00, 144.0, 24.0)">t</text><text xml:space="preserve" font-family="HelveticaNeue-Bold" font-weight="bold" font-size="23.0" fill="#000000" transform="matrix(1.00, 0.00, -0.00, -1.00, 152.1, 24.0)">l</text><text xml:space="preserve" font-family="HelveticaNeue-Bold" font-weight="bold" font-size="23.0" fill="#000000" transform="matrix(1.00, 0.00, -0.00, -1.00, 158.0, 24.0)">i</text><text xml:space="preserve" font-family="HelveticaNeue-Bold" font-weight="bold" font-size="23.0" fill="#000000" transform="matrix(1.00, 0.00, -0.00, -1.00, 164.0, 24.0)">n</text><text xml:space="preserve" font-family="HelveticaNeue-Bold" font-weight="bold" font-size="23.0" fill="#000000" transform="matrix(1.00, 0.00, -0.00, -1.00, 177.6, 24.0)">g</text><text xml:space="preserve" font-family="HelveticaNeue-Bold" font-weight="bold" font-size="23.0" fill="#000000" transform="matrix(1.00, 0.00, -0.00, -1.00, 191.7, 24.0)"> </text><text xml:space="preserve" font-family="HelveticaNeue-Bold" font-weight="bold" font-size="23.0" fill="#000000" transform="matrix(1.00, 0.00, -0.00, -1.00, 198.1, 24.0)">M</text><text xml:space="preserve" font-family="HelveticaNeue-Bold" font-weight="bold" font-size="23.0" fill="#000000" transform="matrix(1.00, 0.00, -0.00, -1.00, 218.9, 24.0)">o</text><text xml:space="preserve" font-family="HelveticaNeue-Bold" font-weight="bold" font-size="23.0" fill="#000000" transform="matrix(1.00, 0.00, -0.00, -1.00, 233.0, 24.0)">n</text><text xml:space="preserve" font-family="HelveticaNeue-Bold" font-weight="bold" font-size="23.0" fill="#000000" transform="matrix(1.00, 0.00, -0.00, -1.00, 246.6, 24.0)">o</text><text xml:space="preserve" font-family="HelveticaNeue-Bold" font-weight="bold" font-size="23.0" fill="#000000" transform="matrix(1.00, 0.00, -0.00, -1.00, 260.7, 24.0)">l</text><text xml:space="preserve" font-family="HelveticaNeue-Bold" font-weight="bold" font-size="23.0" fill="#000000" transform="matrix(1.00, 0.00, -0.00, -1.00, 266.6, 24.0)">i</text><text xml:space="preserve" font-family="HelveticaNeue-Bold" font-weight="bold" font-size="23.0" fill="#000000" transform="matrix(1.00, 0.00, -0.00, -1.00, 272.5, 24.0)">t</text><text xml:space="preserve" font-family="HelveticaNeue-Bold" font-weight="bold" font-size="23.0" fill="#000000" transform="matrix(1.00, 0.00, -0.00, -1.00, 280.6, 24.0)">h</text><text xml:space="preserve" font-family="HelveticaNeue-Bold" font-weight="bold" font-size="23.0" fill="#000000" transform="matrix(1.00, 0.00, -0.00, -1.00, 294.3, 24.0)">s</text><text xml:space="preserve" font-family="HelveticaNeue-Bold" font-weight="bold" font-size="23.0" fill="#000000" transform="matrix(1.00, 0.00, -0.00, -1.00, 306.6, 24.0)">:</text><text xml:space="preserve" font-family="HelveticaNeue-Bold" font-weight="bold" font-size="23.0" fill="#000000" transform="matrix(1.00, 0.00, -0.00, -1.00, 313.0, 24.0)"> </text><text xml:space="preserve" font-family="HelveticaNeue-Bold" font-weight="bold" font-size="23.0" fill="#000000" transform="matrix(1.00, 0.00, -0.00, -1.00, 319.4, 24.0)">u</text><text xml:space="preserve" font-family="HelveticaNeue-Bold" font-weight="bold" font-size="23.0" fill="#000000" transform="matrix(1.00, 0.00, -0.00, -1.00, 333.0, 24.0)">s</text><text xml:space="preserve" font-family="HelveticaNeue-Bold" font-weight="bold" font-size="23.0" fill="#000000" transform="matrix(1.00, 0.00, -0.00, -1.00, 345.4, 24.0)">i</text><text xml:space="preserve" font-family="HelveticaNeue-Bold" font-weight="bold" font-size="23.0" fill="#000000" transform="matrix(1.00, 0.00, -0.00, -1.00, 351.3, 24.0)">n</text><text xml:space="preserve" font-family="HelveticaNeue-Bold" font-weight="bold" font-size="23.0" fill="#000000" transform="matrix(1.00, 0.00, -0.00, -1.00, 365.0, 24.0)">g</text><text xml:space="preserve" font-family="HelveticaNeue-Bold" font-weight="bold" font-size="23.0" fill="#000000" transform="matrix(1.00, 0.00, -0.00, -1.00, 379.0, 24.0)"> </text><text xml:space="preserve" font-family="HelveticaNeue-Bold" font-weight="bold" font-size="23.0" fill="#000000" transform="matrix(1.00, 0.00, -0.00, -1.00, 385.4, 24.0)">m</text><text xml:space="preserve" font-family="HelveticaNeue-Bold" font-weight="bold" font-size="23.0" fill="#000000" transform="matrix(1.00, 0.00, -0.00, -1.00, 406.3, 24.0)">i</text><text xml:space="preserve" font-family="HelveticaNeue-Bold" font-weight="bold" font-size="23.0" fill="#000000" transform="matrix(1.00, 0.00, -0.00, -1.00, 412.2, 24.0)">c</text><text xml:space="preserve" font-family="HelveticaNeue-Bold" font-weight="bold" font-size="23.0" fill="#000000" transform="matrix(1.00, 0.00, -0.00, -1.00, 425.4, 24.0)">r</text><text xml:space="preserve" font-family="HelveticaNeue-Bold" font-weight="bold" font-size="23.0" fill="#000000" transform="matrix(1.00, 0.00, -0.00, -1.00, 433.9, 24.0)">o</text><text xml:space="preserve" font-family="HelveticaNeue-Bold" font-weight="bold" font-size="23.0" fill="#000000" transform="matrix(1.00, 0.00, -0.00, -1.00, 448.0, 24.0)">s</text><text xml:space="preserve" font-family="HelveticaNeue-Bold" font-weight="bold" font-size="23.0" fill="#000000" transform="matrix(1.00, 0.00, -0.00, -1.00, 460.3, 24.0)">e</text><text xml:space="preserve" font-family="HelveticaNeue-Bold" font-weight="bold" font-size="23.0" fill="#000000" transform="matrix(1.00, 0.00, -0.00, -1.00, 473.5, 24.0)">r</text><text xml:space="preserve" font-family="HelveticaNeue-Bold" font-weight="bold" font-size="23.0" fill="#000000" transform="matrix(1.00, 0.00, -0.00, -1.00, 482.5, 24.0)">v</text><text xml:space="preserve" font-family="HelveticaNeue-Bold" font-weight="bold" font-size="23.0" fill="#000000" transform="matrix(1.00, 0.00, -0.00, -1.00, 494.4, 24.0)">i</text><text xml:space="preserve" font-family="HelveticaNeue-Bold" font-weight="bold" font-size="23.0" fill="#000000" transform="matrix(1.00, 0.00, -0.00, -1.00, 500.4, 24.0)">c</text><text xml:space="preserve" font-family="HelveticaNeue-Bold" font-weight="bold" font-size="23.0" fill="#000000" transform="matrix(1.00, 0.00, -0.00, -1.00, 513.6, 24.0)">e</text><text xml:space="preserve" font-family="HelveticaNeue-Bold" font-weight="bold" font-size="23.0" fill="#000000" transform="matrix(1.00, 0.00, -0.00, -1.00, 526.8, 24.0)">s</text><text xml:space="preserve" font-family="HelveticaNeue-Bold" font-weight="bold" font-size="23.0" fill="#000000" transform="matrix(1.00, 0.00, -0.00, -1.00, 539.1, 24.0)"> </text><text xml:space="preserve" font-family="HelveticaNeue-Bold" font-weight="bold" font-size="23.0" fill="#000000" transform="matrix(1.00, 0.00, -0.00, -1.00, 545.5, 24.0)">a</text><text xml:space="preserve" font-family="HelveticaNeue-Bold" font-weight="bold" font-size="23.0" fill="#000000" transform="matrix(1.00, 0.00, -0.00, -1.00, 558.7, 24.0)">n</text><text xml:space="preserve" font-family="HelveticaNeue-Bold" font-weight="bold" font-size="23.0" fill="#000000" transform="matrix(1.00, 0.00, -0.00, -1.00, 572.4, 24.0)">d</text><text xml:space="preserve" font-family="HelveticaNeue-Bold" font-weight="bold" font-size="23.0" fill="#000000" transform="matrix(1.00, 0.00, -0.00, -1.00, 586.4, 24.0)"> </text><text xml:space="preserve" font-family="HelveticaNeue-Bold" font-weight="bold" font-size="23.0" fill="#000000" transform="matrix(1.00, 0.00, -0.00, -1.00, 592.8, 24.0)">c</text><text xml:space="preserve" font-family="HelveticaNeue-Bold" font-weight="bold" font-size="23.0" fill="#000000" transform="matrix(1.00, 0.00, -0.00, -1.00, 606.0, 24.0)">o</text><text xml:space="preserve" font-family="HelveticaNeue-Bold" font-weight="bold" font-size="23.0" fill="#000000" transform="matrix(1.00, 0.00, -0.00, -1.00, 620.1, 24.0)">n</text><text xml:space="preserve" font-family="HelveticaNeue-Bold" font-weight="bold" font-size="23.0" fill="#000000" transform="matrix(1.00, 0.00, -0.00, -1.00, 633.7, 24.0)">t</text><text xml:space="preserve" font-family="HelveticaNeue-Bold" font-weight="bold" font-size="23.0" fill="#000000" transform="matrix(1.00, 0.00, -0.00, -1.00, 641.8, 24.0)">i</text><text xml:space="preserve" font-family="HelveticaNeue-Bold" font-weight="bold" font-size="23.0" fill="#000000" transform="matrix(1.00, 0.00, -0.00, -1.00, 647.7, 24.0)">n</text><text xml:space="preserve" font-family="HelveticaNeue-Bold" font-weight="bold" font-size="23.0" fill="#000000" transform="matrix(1.00, 0.00, -0.00, -1.00, 661.4, 24.0)">u</text><text xml:space="preserve" font-family="HelveticaNeue-Bold" font-weight="bold" font-size="23.0" fill="#000000" transform="matrix(1.00, 0.00, -0.00, -1.00, 675.0, 24.0)">o</text><text xml:space="preserve" font-family="HelveticaNeue-Bold" font-weight="bold" font-size="23.0" fill="#000000" transform="matrix(1.00, 0.00, -0.00, -1.00, 689.1, 24.0)">u</text><text xml:space="preserve" font-family="HelveticaNeue-Bold" font-weight="bold" font-size="23.0" fill="#000000" transform="matrix(1.00, 0.00, -0.00, -1.00, 702.7, 24.0)">s</text><text xml:space="preserve" font-family="HelveticaNeue-Bold" font-weight="bold" font-size="23.0" fill="#000000" transform="matrix(1.00, 0.00, -0.00, -1.00, 715.1, 24.0)"> </text><text xml:space="preserve" font-family="HelveticaNeue-Bold" font-weight="bold" font-size="23.0" fill="#000000" transform="matrix(1.00, 0.00, -0.00, -1.00, 721.4, 24.0)">d</text><text xml:space="preserve" font-family="HelveticaNeue-Bold" font-weight="bold" font-size="23.0" fill="#000000" transform="matrix(1.00, 0.00, -0.00, -1.00, 735.5, 24.0)">e</text><text xml:space="preserve" font-family="HelveticaNeue-Bold" font-weight="bold" font-size="23.0" fill="#000000" transform="matrix(1.00, 0.00, -0.00, -1.00, 748.7, 24.0)">l</text><text xml:space="preserve" font-family="HelveticaNeue-Bold" font-weight="bold" font-size="23.0" fill="#000000" transform="matrix(1.00, 0.00, -0.00, -1.00, 754.6, 24.0)">i</text><text xml:space="preserve" font-family="HelveticaNeue-Bold" font-weight="bold" font-size="23.0" fill="#000000" transform="matrix(1.00, 0.00, -0.00, -1.00, 760.6, 24.0)">v</text><text xml:space="preserve" font-family="HelveticaNeue-Bold" font-weight="bold" font-size="23.0" fill="#000000" transform="matrix(1.00, 0.00, -0.00, -1.00, 772.5, 24.0)">e</text><text xml:space="preserve" font-family="HelveticaNeue-Bold" font-weight="bold" font-size="23.0" fill="#000000" transform="matrix(1.00, 0.00, -0.00, -1.00, 785.7, 24.0)">r</text><text xml:space="preserve" font-family="HelveticaNeue-Bold" font-weight="bold" font-size="23.0" fill="#000000" transform="matrix(1.00, 0.00, -0.00, -1.00, 794.7, 24.0)">y</text><text xml:space="preserve" font-family="HelveticaNeue-Bold" font-weight="bold" font-size="23.0" fill="#000000" transform="matrix(1.00, 0.00, -0.00, -1.00, 806.6, 24.0)"> </text><text xml:space="preserve" font-family="HelveticaNeue-Bold" font-weight="bold" font-size="23.0" fill="#000000" transform="matrix(1.00, 0.00, -0.00, -1.00, 813.0, 24.0)">a</text><text xml:space="preserve" font-family="HelveticaNeue-Bold" font-weight="bold" font-size="23.0" fill="#000000" transform="matrix(1.00, 0.00, -0.00, -1.00, 826.2, 24.0)">t</text><text xml:space="preserve" font-family="HelveticaNeue-Bold" font-weight="bold" font-size="23.0" fill="#000000" transform="matrix(1.00, 0.00, -0.00, -1.00, 834.3, 24.0)"> </text><text xml:space="preserve" font-family="HelveticaNeue-Bold" font-weight="bold" font-size="23.0" fill="#000000" transform="matrix(1.00, 0.00, -0.00, -1.00, 840.7, 24.0)">t</text><text xml:space="preserve" font-family="HelveticaNeue-Bold" font-weight="bold" font-size="23.0" fill="#000000" transform="matrix(1.00, 0.00, -0.00, -1.00, 848.8, 24.0)">h</text><text xml:space="preserve" font-family="HelveticaNeue-Bold" font-weight="bold" font-size="23.0" fill="#000000" transform="matrix(1.00, 0.00, -0.00, -1.00, 862.4, 24.0)">e</text><text xml:space="preserve" font-family="HelveticaNeue-Bold" font-weight="bold" font-size="23.0" fill="#000000" transform="matrix(1.00, 0.00, -0.00, -1.00, 875.6, 24.0)"> </text><text xml:space="preserve" font-family="HelveticaNeue-Bold" font-weight="bold" font-size="23.0" fill="#000000" transform="matrix(1.00, 0.00, -0.00, -1.00, 882.0, 24.0)">B</text><text xml:space="preserve" font-family="HelveticaNeue-Bold" font-weight="bold" font-size="23.0" fill="#000000" transform="matrix(1.00, 0.00, -0.00, -1.00, 898.2, 24.0)">B</text><text xml:space="preserve" font-family="HelveticaNeue-Bold" font-weight="bold" font-size="23.0" fill="#000000" transform="matrix(1.00, 0.00, -0.00, -1.00, 914.4, 24.0)">C</text><image xlink:href="../../D0517147-4847-4A0F-8B98-32B995C105A1/assets/0BF8E63FE00997E10C4EC11A1CFD77DD.png" width="97.00" height="27.00" transform="matrix(1.00, 0.00, -0.00, -1.00, 1751.0, 44.0)"></image><g><clipPath id="clip-649"><path d="M 1155.4 886.3 L 1920.0 886.3 L 1920.0 999.3 L 1155.4 999.3 Z M 1155.4 886.3 "></path></clipPath><g clip-path="url(#clip-649)"><text xml:space="preserve" font-family="HelveticaNeue-Bold" font-weight="bold" font-size="98.0" fill="#282828" transform="matrix(1.00, 0.00, -0.00, -1.00, 1185.0, 903.0)">B</text><text xml:space="preserve" font-family="HelveticaNeue-Bold" font-weight="bold" font-size="98.0" fill="#282828" transform="matrix(1.00, 0.00, -0.00, -1.00, 1254.0, 903.0)">i</text><text xml:space="preserve" font-family="HelveticaNeue-Bold" font-weight="bold" font-size="98.0" fill="#282828" transform="matrix(1.00, 0.00, -0.00, -1.00, 1279.3, 903.0)">t</text><text xml:space="preserve" font-family="HelveticaNeue-Bold" font-weight="bold" font-size="98.0" fill="#282828" transform="matrix(1.00, 0.00, -0.00, -1.00, 1313.8, 903.0)">e</text><text xml:space="preserve" font-family="HelveticaNeue-Bold" font-weight="bold" font-size="98.0" fill="#282828" transform="matrix(1.00, 0.00, -0.00, -1.00, 1370.0, 903.0)">s</text><text xml:space="preserve" font-family="HelveticaNeue-Bold" font-weight="bold" font-size="98.0" fill="#282828" transform="matrix(1.00, 0.00, -0.00, -1.00, 1422.7, 903.0)">i</text><text xml:space="preserve" font-family="HelveticaNeue-Bold" font-weight="bold" font-size="98.0" fill="#282828" transform="matrix(1.00, 0.00, -0.00, -1.00, 1447.9, 903.0)">z</text><text xml:space="preserve" font-family="HelveticaNeue-Bold" font-weight="bold" font-size="98.0" fill="#282828" transform="matrix(1.00, 0.00, -0.00, -1.00, 1498.8, 903.0)">e</text><text xml:space="preserve" font-family="HelveticaNeue-Bold" font-weight="bold" font-size="98.0" fill="#282828" transform="matrix(1.00, 0.00, -0.00, -1.00, 1555.0, 903.0)"> </text><text xml:space="preserve" font-family="HelveticaNeue-Bold" font-weight="bold" font-size="98.0" fill="#282828" transform="matrix(1.00, 0.00, -0.00, -1.00, 1582.3, 903.0)">A</text><text xml:space="preserve" font-family="HelveticaNeue-Bold" font-weight="bold" font-size="98.0" fill="#282828" transform="matrix(1.00, 0.00, -0.00, -1.00, 1649.4, 903.0)">p</text><text xml:space="preserve" font-family="HelveticaNeue-Bold" font-weight="bold" font-size="98.0" fill="#282828" transform="matrix(1.00, 0.00, -0.00, -1.00, 1709.3, 903.0)">p</text></g></g><g><clipPath id="clip-650"><path d="M 244.0 72.0 L 1255.6 72.0 L 1255.6 1061.0 L 244.0 1061.0 Z M 244.0 72.0 "></path></clipPath><g clip-path="url(#clip-650)"><image xlink:href="../../0CD926C1-0949-4477-A177-34A15DE1961D/assets/46E6B367EEBBA28048F651224B2DD8EA.png" width="36.00" height="40.00" transform="matrix(1.67, 0.00, -0.00, 1.67, 300.7, 849.2)"></image><image xlink:href="../../0CD926C1-0949-4477-A177-34A15DE1961D/assets/5081C5411022158E79BC6E70E9B250F3.png" width="31.00" height="31.00" transform="matrix(1.67, 0.00, -0.00, 1.67, 305.7, 892.6)"></image><image xlink:href="../../0CD926C1-0949-4477-A177-34A15DE1961D/assets/9293D3CFEE9A58EEA21063C795DF8172.png" width="36.00" height="40.00" transform="matrix(1.67, 0.00, -0.00, 1.67, 1048.9, 70.3)"></image><image xlink:href="../../0CD926C1-0949-4477-A177-34A15DE1961D/assets/D5C9EC94FC65C57FFCEBCC25A851131D.png" width="31.00" height="31.00" transform="matrix(1.67, 0.00, -0.00, 1.67, 1053.9, 113.7)"></image><path d="M 411.7 970.9 L 533.0 970.9 C 547.3 970.9 559.0 939.2 559.0 900.1 C 559.0 860.9 547.3 829.2 533.0 829.2 L 411.7 829.2 C 397.3 829.2 385.7 860.9 385.7 900.1 C 385.7 939.2 397.3 970.9 411.7 970.9 " fill="#FEFFFF"></path><path d="M 215.6 139.5 L 288.4 139.5 C 297.0 139.0 304.0 158.0 304.0 181.5 C 304.0 205.0 297.0 224.0 288.4 224.5 L 215.6 224.5 C 207.0 224.0 200.0 205.0 200.0 181.5 C 200.0 158.0 207.0 139.0 215.6 139.0 " fill="none" stroke="#000000" stroke-width="1.00" stroke-miterlimit="0.00" stroke-linecap="round" stroke-linejoin="round" transform="matrix(1.67, 0.00, 0.00, -1.67, 52.3, 1202.8)"></path><text xml:space="preserve" font-family="Helvetica" font-size="12.0" fill="#000000" transform="matrix(1.67, 0.00, -0.00, -1.67, 428.8, 916.7)">P</text><text xml:space="preserve" font-family="Helvetica" font-size="12.0" fill="#000000" transform="matrix(1.67, 0.00, -0.00, -1.67, 442.1, 916.7)">H</text><text xml:space="preserve" font-family="Helvetica" font-size="12.0" fill="#000000" transform="matrix(1.67, 0.00, -0.00, -1.67, 456.6, 916.7)">P</text><text xml:space="preserve" font-family="Helvetica" font-size="12.0" fill="#000000" transform="matrix(1.67, 0.00, -0.00, -1.67, 469.5, 916.7)"> </text><text xml:space="preserve" font-family="Helvetica" font-size="12.0" fill="#000000" transform="matrix(1.67, 0.00, -0.00, -1.67, 475.1, 916.7)">W</text><text xml:space="preserve" font-family="Helvetica" font-size="12.0" fill="#000000" transform="matrix(1.67, 0.00, -0.00, -1.67, 493.6, 916.7)">e</text><text xml:space="preserve" font-family="Helvetica" font-size="12.0" fill="#000000" transform="matrix(1.67, 0.00, -0.00, -1.67, 504.7, 916.7)">b</text><text xml:space="preserve" font-family="Helvetica" font-size="12.0" fill="#000000" transform="matrix(1.67, 0.00, -0.00, -1.67, 515.9, 916.7)"> </text><text xml:space="preserve" font-family="Helvetica" font-size="12.0" fill="#000000" transform="matrix(1.67, 0.00, -0.00, -1.67, 437.3, 893.4)">B</text><text xml:space="preserve" font-family="Helvetica" font-size="12.0" fill="#000000" transform="matrix(1.67, 0.00, -0.00, -1.67, 450.6, 893.4)">i</text><text xml:space="preserve" font-family="Helvetica" font-size="12.0" fill="#000000" transform="matrix(1.67, 0.00, -0.00, -1.67, 455.1, 893.4)">t</text><text xml:space="preserve" font-family="Helvetica" font-size="12.0" fill="#000000" transform="matrix(1.67, 0.00, -0.00, -1.67, 460.6, 893.4)">e</text><text xml:space="preserve" font-family="Helvetica" font-size="12.0" fill="#000000" transform="matrix(1.67, 0.00, -0.00, -1.67, 471.8, 893.4)">s</text><text xml:space="preserve" font-family="Helvetica" font-size="12.0" fill="#000000" transform="matrix(1.67, 0.00, -0.00, -1.67, 481.8, 893.4)">i</text><text xml:space="preserve" font-family="Helvetica" font-size="12.0" fill="#000000" transform="matrix(1.67, 0.00, -0.00, -1.67, 486.2, 893.4)">z</text><text xml:space="preserve" font-family="Helvetica" font-size="12.0" fill="#000000" transform="matrix(1.67, 0.00, -0.00, -1.67, 496.2, 893.4)">e</text><text xml:space="preserve" font-family="Helvetica" font-size="12.0" fill="#000000" transform="matrix(1.67, 0.00, -0.00, -1.67, 507.3, 893.4)"> </text><text xml:space="preserve" font-family="Helvetica" font-size="12.0" fill="#000000" transform="matrix(1.67, 0.00, -0.00, -1.67, 424.5, 870.0)">a</text><text xml:space="preserve" font-family="Helvetica" font-size="12.0" fill="#000000" transform="matrix(1.67, 0.00, -0.00, -1.67, 435.6, 870.0)">p</text><text xml:space="preserve" font-family="Helvetica" font-size="12.0" fill="#000000" transform="matrix(1.67, 0.00, -0.00, -1.67, 446.8, 870.0)">p</text><text xml:space="preserve" font-family="Helvetica" font-size="12.0" fill="#000000" transform="matrix(1.67, 0.00, -0.00, -1.67, 457.9, 870.0)">l</text><text xml:space="preserve" font-family="Helvetica" font-size="12.0" fill="#000000" transform="matrix(1.67, 0.00, -0.00, -1.67, 462.3, 870.0)">i</text><text xml:space="preserve" font-family="Helvetica" font-size="12.0" fill="#000000" transform="matrix(1.67, 0.00, -0.00, -1.67, 466.8, 870.0)">c</text><text xml:space="preserve" font-family="Helvetica" font-size="12.0" fill="#000000" transform="matrix(1.67, 0.00, -0.00, -1.67, 476.8, 870.0)">a</text><text xml:space="preserve" font-family="Helvetica" font-size="12.0" fill="#000000" transform="matrix(1.67, 0.00, -0.00, -1.67, 487.9, 870.0)">t</text><text xml:space="preserve" font-family="Helvetica" font-size="12.0" fill="#000000" transform="matrix(1.67, 0.00, -0.00, -1.67, 493.5, 870.0)">i</text><text xml:space="preserve" font-family="Helvetica" font-size="12.0" fill="#000000" transform="matrix(1.67, 0.00, -0.00, -1.67, 497.9, 870.0)">o</text><text xml:space="preserve" font-family="Helvetica" font-size="12.0" fill="#000000" transform="matrix(1.67, 0.00, -0.00, -1.67, 509.0, 870.0)">n</text><text xml:space="preserve" font-family="HelveticaNeue" font-size="16.0" fill="#000000" transform="matrix(1.67, 0.00, -0.00, -1.67, 438.1, 1026.0)">F</text><text xml:space="preserve" font-family="HelveticaNeue" font-size="16.0" fill="#000000" transform="matrix(1.67, 0.00, -0.00, -1.67, 453.4, 1026.0)">o</text><text xml:space="preserve" font-family="HelveticaNeue" font-size="16.0" fill="#000000" transform="matrix(1.67, 0.00, -0.00, -1.67, 468.7, 1026.0)">r</text><text xml:space="preserve" font-family="HelveticaNeue" font-size="16.0" fill="#000000" transform="matrix(1.67, 0.00, -0.00, -1.67, 476.9, 1026.0)">g</text><text xml:space="preserve" font-family="HelveticaNeue" font-size="16.0" fill="#000000" transform="matrix(1.67, 0.00, -0.00, -1.67, 492.2, 1026.0)">e</text><text xml:space="preserve" font-family="HelveticaNeue" font-size="16.0" fill="#000000" transform="matrix(1.67, 0.00, -0.00, -1.67, 835.5, 1026.0)">A</text><text xml:space="preserve" font-family="HelveticaNeue" font-size="16.0" fill="#000000" transform="matrix(1.67, 0.00, -0.00, -1.67, 852.2, 1026.0)">W</text><text xml:space="preserve" font-family="HelveticaNeue" font-size="16.0" fill="#000000" transform="matrix(1.67, 0.00, -0.00, -1.67, 876.9, 1026.0)">S</text><text xml:space="preserve" font-family="HelveticaNeue" font-size="12.0" fill="#000000" transform="matrix(1.67, 0.00, -0.00, -1.67, 331.4, 780.2)">G</text><text xml:space="preserve" font-family="HelveticaNeue" font-size="12.0" fill="#000000" transform="matrix(1.67, 0.00, -0.00, -1.67, 346.6, 780.2)">E</text><text xml:space="preserve" font-family="HelveticaNeue" font-size="12.0" fill="#000000" transform="matrix(1.67, 0.00, -0.00, -1.67, 358.8, 780.2)">T</text><path d="M 429.8 99.0 C 429.8 99.0 430.2 305.7 431.9 456.4 C 433.7 607.1 436.0 631.0 436.0 631.0 " fill="none" stroke="#AB3933" stroke-width="1.00" stroke-miterlimit="0.00" stroke-linecap="round" stroke-linejoin="round" stroke-dasharray="4.0, 4.0" transform="matrix(1.67, 0.00, 0.00, -1.67, 52.3, 1202.8)"></path><path d="M 1231.0 886.1 C 1245.4 886.1 1257.0 877.5 1257.0 867.0 L 1257.0 791.8 C 1257.0 781.2 1245.4 772.7 1231.0 772.7 L 1131.6 772.7 C 1117.3 772.7 1105.6 781.2 1105.6 791.8 L 1105.6 867.0 C 1105.6 877.5 1117.3 886.1 1131.6 886.1 Z M 1231.0 886.1 " fill="#E77C3B"></path><text xml:space="preserve" font-family="Helvetica" font-size="12.0" fill="#000000" transform="matrix(1.67, 0.00, -0.00, -1.67, 1145.7, 822.7)">E</text><text xml:space="preserve" font-family="Helvetica" font-size="12.0" fill="#000000" transform="matrix(1.67, 0.00, -0.00, -1.67, 1159.1, 822.7)">i</text><text xml:space="preserve" font-family="Helvetica" font-size="12.0" fill="#000000" transform="matrix(1.67, 0.00, -0.00, -1.67, 1163.5, 822.7)">n</text><text xml:space="preserve" font-family="Helvetica" font-size="12.0" fill="#000000" transform="matrix(1.67, 0.00, -0.00, -1.67, 1174.6, 822.7)">s</text><text xml:space="preserve" font-family="Helvetica" font-size="12.0" fill="#000000" transform="matrix(1.67, 0.00, -0.00, -1.67, 1184.6, 822.7)">t</text><text xml:space="preserve" font-family="Helvetica" font-size="12.0" fill="#000000" transform="matrix(1.67, 0.00, -0.00, -1.67, 1190.2, 822.7)">e</text><text xml:space="preserve" font-family="Helvetica" font-size="12.0" fill="#000000" transform="matrix(1.67, 0.00, -0.00, -1.67, 1201.3, 822.7)">i</text><text xml:space="preserve" font-family="Helvetica" font-size="12.0" fill="#000000" transform="matrix(1.67, 0.00, -0.00, -1.67, 1205.8, 822.7)">n</text><path d="M 1257.0 791.8 L 1257.0 785.1 C 1257.0 774.6 1245.4 766.0 1231.0 766.0 L 1231.0 772.7 C 1245.4 772.7 1257.0 781.2 1257.0 791.8 Z M 1257.0 791.8 " fill="#8E4B2A"></path><path d="M 1257.0 791.8 L 1257.0 785.1 C 1257.0 784.2 1256.9 783.3 1256.7 782.4 L 1256.7 789.0 C 1256.9 789.9 1257.0 790.8 1257.0 791.8 Z M 1257.0 791.8 " fill="#8E4B2A"></path><path d="M 1256.7 789.0 L 1256.7 782.4 C 1256.5 781.3 1256.2 780.3 1255.8 779.3 L 1255.8 785.9 C 1256.2 786.9 1256.5 788.0 1256.7 789.0 Z M 1256.7 789.0 " fill="#8E4B2A"></path><path d="M 1255.8 785.9 L 1255.8 779.3 C 1255.3 778.1 1254.6 777.0 1253.8 775.9 L 1253.8 782.6 C 1254.6 783.7 1255.3 784.8 1255.8 785.9 Z M 1255.8 785.9 " fill="#8E4B2A"></path><path d="M 1253.8 782.6 L 1253.8 775.9 C 1249.4 770.0 1240.9 766.0 1231.0 766.0 L 1231.0 772.7 C 1240.9 772.7 1249.4 776.7 1253.8 782.6 Z M 1253.8 782.6 " fill="#8E4B2A"></path><path d="M 1130.5 772.7 L 1231.2 772.7 L 1231.2 766.0 L 1130.5 766.0 Z M 1130.5 772.7 " fill="#8E4B2A"></path><path d="M 1131.6 772.7 L 1131.6 766.0 C 1117.3 766.0 1105.6 774.6 1105.6 785.1 L 1105.6 791.8 C 1105.6 781.2 1117.3 772.7 1131.6 772.7 Z M 1131.6 772.7 " fill="#8E4B2A"></path><path d="M 1132.7 772.7 L 1132.7 766.0 C 1118.3 766.0 1105.6 774.6 1105.6 785.1 L 1105.6 791.8 C 1105.6 781.2 1117.3 772.7 1132.7 772.7 Z M 1132.7 772.7 " fill="#8E4B2A"></path><path d="M 218.5 232.3 L 177.0 295.3 " fill="none" stroke="#000000" stroke-width="1.00" stroke-miterlimit="0.00" stroke-linecap="round" stroke-linejoin="round" transform="matrix(1.67, 0.00, 0.00, -1.67, 52.3, 1202.8)"></path><path d="M 423.9 826.5 L 412.4 818.1 L 420.7 812.6 Z M 423.9 826.5 " fill="#000000"></path><path d="M 222.9 225.6 L 216.0 230.6 L 221.0 233.9 Z M 222.9 225.6 " fill="none" stroke="#000000" stroke-width="1.00" stroke-miterlimit="0.00" transform="matrix(1.67, 0.00, 0.00, -1.67, 52.3, 1202.8)"></path></g></g><g><clipPath id="clip-651"><path d="M 312.4 874.6 C 312.6 871.8 314.5 869.0 318.0 866.8 C 325.5 862.2 337.8 862.2 345.3 866.8 C 348.8 869.0 350.7 871.8 350.9 874.6 L 351.0 874.6 C 351.0 874.8 351.0 874.9 351.0 875.1 C 351.0 875.1 351.0 875.1 351.0 875.1 C 351.0 875.1 351.0 875.2 351.0 875.3 C 351.0 875.4 351.0 875.5 351.0 875.6 C 350.7 894.6 342.1 909.8 331.6 909.8 C 321.1 909.8 312.6 894.6 312.3 875.6 C 312.3 875.5 312.3 875.4 312.3 875.3 C 312.3 875.2 312.3 875.1 312.3 875.1 C 312.3 875.1 312.3 875.1 312.3 875.1 C 312.3 874.9 312.3 874.8 312.3 874.6 L 312.4 874.6 Z M 312.4 874.6 "></path></clipPath><g clip-path="url(#clip-651)"><g><clipPath id="clip-652"><path d="M 244.0 72.0 L 1255.6 72.0 L 1255.6 1061.0 L 244.0 1061.0 Z M 244.0 72.0 "></path></clipPath><g clip-path="url(#clip-652)"><path d="M 244.0 72.0 L 1255.6 72.0 L 1255.6 1061.0 L 244.0 1061.0 Z M 244.0 72.0 " fill="url(#gradSh1.72)"></path></g></g></g></g><g><clipPath id="clip-653"><path d="M 244.0 72.0 L 1255.6 72.0 L 1255.6 1061.0 L 244.0 1061.0 Z M 244.0 72.0 "></path></clipPath><g clip-path="url(#clip-653)"><path d="M 156.0 197.0 C 156.1 198.4 157.3 200.1 159.4 201.4 C 163.9 204.2 171.3 204.2 175.8 201.4 C 177.9 200.1 179.0 198.4 179.2 197.0 L 179.2 197.0 C 179.2 196.7 179.2 196.6 179.2 196.5 C 179.2 196.5 179.2 196.5 179.2 196.5 C 179.2 196.4 179.2 196.4 179.2 196.4 C 179.2 196.3 179.2 196.2 179.2 196.2 C 179.0 184.8 173.9 175.6 167.6 175.6 C 161.3 175.6 156.2 184.8 156.0 196.2 C 156.0 196.2 156.0 196.3 156.0 196.4 C 156.0 196.4 156.0 196.4 156.0 196.5 C 156.0 196.5 156.0 196.5 156.0 196.5 C 156.0 196.6 156.0 196.7 156.0 197.0 L 156.0 197.0 Z M 156.0 197.0 " fill="none" stroke="#000000" stroke-width="2.00" stroke-miterlimit="0.00" stroke-linecap="round" stroke-linejoin="round" transform="matrix(1.67, 0.00, 0.00, -1.67, 52.3, 1202.8)"></path></g></g><g><clipPath id="clip-654"><path d="M 342.4 932.3 C 348.4 926.3 348.4 916.7 342.4 910.8 C 336.5 904.8 326.8 904.8 320.9 910.8 C 314.9 916.7 314.9 926.3 320.9 932.3 C 326.8 938.2 336.5 938.2 342.4 932.3 "></path></clipPath><g clip-path="url(#clip-654)"><g><clipPath id="clip-655"><path d="M 244.0 72.0 L 1255.6 72.0 L 1255.6 1061.0 L 244.0 1061.0 Z M 244.0 72.0 "></path></clipPath><g clip-path="url(#clip-655)"><path d="M 244.0 72.0 L 1255.6 72.0 L 1255.6 1061.0 L 244.0 1061.0 Z M 244.0 72.0 " fill="url(#gradSh2.73)"></path></g></g></g></g><g><clipPath id="clip-656"><path d="M 244.0 72.0 L 1255.6 72.0 L 1255.6 1061.0 L 244.0 1061.0 Z M 244.0 72.0 "></path></clipPath><g clip-path="url(#clip-656)"><path d="M 174.0 162.2 C 177.6 165.7 177.6 171.5 174.0 175.1 C 170.5 178.7 164.7 178.7 161.1 175.1 C 157.6 171.5 157.6 165.7 161.1 162.2 C 164.7 158.6 170.5 158.6 174.0 162.2 " fill="none" stroke="#000000" stroke-width="2.00" stroke-miterlimit="0.00" stroke-linecap="round" stroke-linejoin="round" transform="matrix(1.67, 0.00, 0.00, -1.67, 52.3, 1202.8)"></path></g></g><g><clipPath id="clip-657"><path d="M 1060.1 96.6 C 1060.3 93.8 1062.2 91.0 1065.7 88.8 C 1073.3 84.2 1085.5 84.2 1093.0 88.8 C 1096.6 91.0 1098.5 93.8 1098.7 96.6 L 1098.7 96.6 C 1098.7 96.8 1098.7 96.9 1098.7 97.0 C 1098.7 97.0 1098.7 97.0 1098.7 97.0 C 1098.7 97.1 1098.7 97.2 1098.7 97.3 C 1098.7 97.4 1098.7 97.5 1098.7 97.5 C 1098.4 116.6 1089.9 131.8 1079.4 131.8 C 1068.9 131.8 1060.3 116.6 1060.1 97.6 C 1060.1 97.5 1060.1 97.4 1060.1 97.3 C 1060.1 97.2 1060.1 97.1 1060.1 97.0 C 1060.1 97.0 1060.1 97.0 1060.1 97.0 C 1060.1 96.9 1060.1 96.8 1060.1 96.6 L 1060.1 96.6 Z M 1060.1 96.6 "></path></clipPath><g clip-path="url(#clip-657)"><g><clipPath id="clip-658"><path d="M 244.0 72.0 L 1255.6 72.0 L 1255.6 1061.0 L 244.0 1061.0 Z M 244.0 72.0 "></path></clipPath><g clip-path="url(#clip-658)"><path d="M 244.0 72.0 L 1255.6 72.0 L 1255.6 1061.0 L 244.0 1061.0 Z M 244.0 72.0 " fill="url(#gradSh3.74)"></path></g></g></g></g><g><clipPath id="clip-659"><path d="M 244.0 72.0 L 1255.6 72.0 L 1255.6 1061.0 L 244.0 1061.0 Z M 244.0 72.0 "></path></clipPath><g clip-path="url(#clip-659)"><path d="M 605.0 663.0 C 604.8 664.9 606.0 666.6 608.1 667.9 C 612.6 670.7 619.9 670.7 624.5 667.9 C 626.6 666.6 627.7 664.9 627.8 663.0 L 627.9 663.0 C 627.9 663.2 627.9 663.1 627.9 663.0 C 627.9 663.0 627.9 663.0 627.9 663.0 C 627.9 662.9 627.9 662.9 627.9 662.9 C 627.9 662.8 627.9 662.7 627.9 662.7 C 627.7 651.3 622.6 642.1 616.3 642.1 C 610.0 642.1 604.8 651.3 604.7 662.7 C 604.7 662.7 604.7 662.8 604.7 662.9 C 604.7 662.9 604.7 662.9 604.7 663.0 C 604.7 663.0 604.7 663.0 604.7 663.0 C 604.7 663.1 604.7 663.2 604.7 663.0 L 605.0 663.0 Z M 605.0 663.0 " fill="none" stroke="#000000" stroke-width="2.00" stroke-miterlimit="0.00" stroke-linecap="round" stroke-linejoin="round" transform="matrix(1.67, 0.00, 0.00, -1.67, 52.3, 1202.8)"></path></g></g><g><clipPath id="clip-660"><path d="M 1090.1 154.3 C 1096.1 148.3 1096.1 138.7 1090.1 132.7 C 1084.2 126.8 1074.6 126.8 1068.6 132.7 C 1062.7 138.7 1062.7 148.3 1068.6 154.3 C 1074.6 160.2 1084.2 160.2 1090.1 154.3 "></path></clipPath><g clip-path="url(#clip-660)"><g><clipPath id="clip-661"><path d="M 244.0 72.0 L 1255.6 72.0 L 1255.6 1061.0 L 244.0 1061.0 Z M 244.0 72.0 "></path></clipPath><g clip-path="url(#clip-661)"><path d="M 244.0 72.0 L 1255.6 72.0 L 1255.6 1061.0 L 244.0 1061.0 Z M 244.0 72.0 " fill="url(#gradSh4.75)"></path></g></g></g></g><g><clipPath id="clip-662"><path d="M 244.0 72.0 L 1255.6 72.0 L 1255.6 1061.0 L 244.0 1061.0 Z M 244.0 72.0 "></path></clipPath><g clip-path="url(#clip-662)"><path d="M 622.7 628.7 C 626.3 632.2 626.3 638.0 622.7 641.6 C 619.2 645.2 613.4 645.2 609.8 641.6 C 606.2 638.0 606.2 632.2 609.8 628.7 C 613.4 625.1 619.2 625.1 622.7 628.7 " fill="none" stroke="#000000" stroke-width="2.00" stroke-miterlimit="0.00" stroke-linecap="round" stroke-linejoin="round" transform="matrix(1.67, 0.00, 0.00, -1.67, 52.3, 1202.8)"></path><path d="M 1109.8 194.3 L 1109.8 190.1 C 1109.8 187.3 1107.5 184.9 1104.6 184.9 L 1104.6 189.2 C 1107.5 189.2 1109.8 191.5 1109.8 194.3 Z M 1109.8 194.3 " fill="#6C706E"></path><path d="M 1109.8 194.3 L 1109.8 190.1 C 1109.8 189.9 1109.8 189.6 1109.8 189.4 L 1109.8 193.6 C 1109.8 193.8 1109.8 194.1 1109.8 194.3 Z M 1109.8 194.3 " fill="#6C706E"></path><path d="M 1109.8 193.6 L 1109.8 189.4 C 1109.7 189.1 1109.7 188.8 1109.6 188.5 L 1109.6 192.8 C 1109.7 193.0 1109.7 193.3 1109.8 193.6 Z M 1109.8 193.6 " fill="#6C706E"></path><path d="M 1109.6 192.8 L 1109.6 188.5 C 1109.5 188.2 1109.3 187.9 1109.2 187.6 L 1109.2 191.8 C 1109.3 192.1 1109.5 192.4 1109.6 192.8 Z M 1109.6 192.8 " fill="#6C706E"></path><path d="M 1109.2 191.8 L 1109.2 187.6 C 1108.3 186.0 1106.6 184.9 1104.6 184.9 L 1104.6 189.2 C 1106.6 189.2 1108.3 190.2 1109.2 191.8 Z M 1109.2 191.8 " fill="#6C706E"></path><path d="M 1105.6 189.6 L 1104.6 184.9 L 1054.2 184.9 L 1053.1 190.3 Z M 1105.6 189.6 " fill="#6C706E"></path><path d="M 1054.2 189.2 L 1054.2 184.9 C 1051.3 184.9 1048.9 187.3 1048.9 190.1 L 1048.9 194.3 C 1048.9 191.5 1051.3 189.2 1054.2 189.2 Z M 1054.2 189.2 " fill="#6C706E"></path><path d="M 1054.2 189.2 L 1054.2 184.9 C 1051.3 184.9 1048.9 187.3 1048.9 190.1 L 1048.9 194.3 C 1048.9 191.5 1051.3 189.2 1054.2 189.2 Z M 1054.2 189.2 " fill="#6C706E"></path><path d="M 1104.6 278.8 C 1107.5 278.8 1109.8 276.5 1109.8 273.6 L 1109.8 194.3 C 1109.8 191.5 1107.5 189.2 1104.6 189.2 L 1054.2 189.2 C 1051.3 189.2 1048.9 191.5 1048.9 194.3 L 1048.9 273.6 C 1048.9 276.5 1051.3 278.8 1054.2 278.8 Z M 1104.6 278.8 " fill="#BFBFBC"></path><path d="M 1103.9 210.4 C 1103.9 208.7 1102.3 207.3 1100.4 207.3 L 1058.3 207.3 C 1056.3 207.3 1054.8 208.7 1054.8 210.4 L 1054.8 257.6 C 1054.8 259.3 1056.3 260.7 1058.3 260.7 L 1100.4 260.7 C 1102.3 260.7 1103.9 259.3 1103.9 257.6 L 1103.9 210.4 Z M 1079.3 191.5 C 1076.1 191.5 1073.4 194.2 1073.4 197.4 C 1073.4 200.7 1076.1 203.3 1079.3 203.3 C 1082.6 203.3 1085.3 200.7 1085.3 197.4 C 1085.3 194.2 1082.6 191.5 1079.3 191.5 Z M 1064.2 273.0 L 1094.5 273.0 C 1096.4 273.0 1097.9 271.5 1097.9 269.7 C 1097.9 267.8 1096.4 266.3 1094.5 266.3 L 1064.2 266.3 C 1062.3 266.3 1060.8 267.8 1060.8 269.7 C 1060.8 271.5 1062.3 273.0 1064.2 273.0 " fill="#FFFEFE"></path><path d="M 302.7 639.9 C 301.9 639.7 301.0 639.5 300.1 639.3 C 299.6 639.2 299.1 639.1 302.7 639.9 Z M 302.7 639.9 " fill="#20405E"></path><path d="M 300.6 710.3 C 312.2 710.3 322.1 709.4 330.3 708.0 C 347.8 705.0 357.1 699.8 357.1 696.7 C 357.1 693.5 347.8 688.3 330.3 685.3 C 322.1 683.9 312.2 683.0 300.6 683.0 C 264.0 683.0 244.0 692.0 244.0 696.7 C 244.0 701.3 264.0 710.3 300.6 710.3 Z M 300.6 710.3 " fill="#666967"></path><path d="M 357.1 696.7 L 357.1 689.7 C 357.1 686.6 347.8 681.4 330.3 678.4 C 322.1 677.0 312.2 676.0 300.6 676.0 C 264.0 676.0 244.0 685.1 244.0 689.7 L 244.0 696.7 C 244.0 692.0 264.0 683.0 300.6 683.0 C 312.2 683.0 322.1 683.9 330.3 685.3 C 347.8 688.3 357.1 693.5 357.1 696.7 Z M 357.1 696.7 " fill="#414341"></path><path d="M 357.1 696.7 L 357.1 689.7 C 357.1 689.7 357.1 689.5 357.1 689.5 L 357.1 696.4 C 357.1 696.5 357.1 696.6 357.1 696.7 Z M 357.1 696.7 " fill="#414341"></path><path d="M 357.1 696.4 L 357.1 689.5 C 357.1 689.3 357.1 689.2 357.0 689.1 L 357.0 696.0 C 357.1 696.1 357.1 696.3 357.1 696.4 Z M 357.1 696.4 " fill="#414341"></path><path d="M 357.0 696.0 L 357.0 689.1 C 356.9 688.9 356.8 688.7 356.7 688.5 L 356.7 695.4 C 356.8 695.6 356.9 695.8 357.0 696.0 Z M 357.0 696.0 " fill="#414341"></path><path d="M 356.7 695.4 L 356.7 688.5 C 354.7 685.3 345.7 681.0 330.3 678.4 C 322.1 677.0 312.2 676.0 300.6 676.0 C 264.0 676.0 244.0 685.1 244.0 689.7 L 244.0 696.7 C 244.0 692.0 264.0 683.0 300.6 683.0 C 312.2 683.0 322.1 683.9 330.3 685.3 C 345.7 687.9 354.7 692.2 356.7 695.4 Z M 356.7 695.4 " fill="#414341"></path><path d="M 357.1 592.5 C 357.2 592.8 357.2 593.1 357.2 593.4 L 357.2 582.2 C 357.2 582.1 357.2 581.9 357.2 581.8 C 357.2 581.6 357.1 581.5 357.1 581.3 L 357.1 581.3 L 357.0 581.2 C 356.9 581.0 356.8 580.8 356.7 580.6 C 356.7 580.5 356.6 580.4 356.6 580.4 C 356.5 580.2 356.4 580.1 356.2 580.0 C 356.1 579.8 355.9 579.6 355.7 579.4 C 355.6 579.2 355.4 579.1 355.2 578.9 C 355.0 578.7 354.8 578.5 354.6 578.3 C 354.3 578.2 354.1 578.0 353.9 577.8 C 353.6 577.7 353.3 577.5 353.0 577.3 C 352.7 577.1 352.5 576.9 352.2 576.8 C 351.8 576.6 351.4 576.4 351.0 576.2 C 350.7 576.0 350.4 575.9 350.1 575.7 C 349.6 575.5 349.1 575.2 348.5 575.0 C 348.2 574.9 347.9 574.8 347.6 574.6 C 346.7 574.3 345.8 574.0 344.8 573.6 C 344.5 573.5 344.1 573.4 343.8 573.3 C 343.0 573.1 342.3 572.9 341.5 572.7 C 341.1 572.5 340.6 572.4 340.1 572.3 C 339.4 572.1 338.6 571.9 337.9 571.8 C 337.3 571.6 336.7 571.5 336.1 571.4 C 335.4 571.2 334.6 571.1 333.8 570.9 C 333.1 570.8 332.5 570.7 331.8 570.6 C 331.0 570.5 330.1 570.3 329.2 570.2 C 328.5 570.1 327.8 570.0 327.1 569.9 C 326.2 569.8 325.2 569.7 324.2 569.6 C 323.5 569.5 322.7 569.4 322.0 569.4 C 320.9 569.3 319.8 569.2 318.7 569.1 C 317.9 569.0 317.2 569.0 316.4 568.9 C 315.1 568.9 313.8 568.8 312.4 568.8 C 311.7 568.7 311.1 568.7 310.4 568.7 C 308.3 568.6 306.1 568.6 303.9 568.6 C 283.3 568.6 267.7 571.1 257.6 574.2 C 250.1 576.8 244.7 579.6 244.1 581.8 L 244.1 593.0 C 244.6 591.0 249.4 588.4 256.1 586.0 L 256.0 586.6 C 266.1 583.5 283.3 579.8 303.9 579.8 C 306.2 579.8 308.3 579.8 310.4 579.9 C 311.1 579.9 311.7 579.9 312.4 579.9 C 313.7 580.0 315.1 580.1 316.4 580.1 C 317.2 580.2 317.9 580.2 318.6 580.3 C 319.8 580.4 320.9 580.5 322.0 580.6 C 322.7 580.6 323.4 580.7 324.1 580.8 C 325.2 580.9 326.2 581.0 327.2 581.1 C 327.8 581.2 328.5 581.3 329.1 581.4 C 330.1 581.5 331.0 581.7 331.9 581.8 L 344.7 584.8 C 345.8 585.1 346.8 585.5 347.7 585.9 L 350.2 586.9 C 350.4 587.0 350.6 587.1 350.8 587.2 C 351.3 587.5 351.8 587.7 352.2 588.0 C 352.5 588.1 352.6 588.2 352.8 588.4 C 353.2 588.6 353.6 588.8 354.0 589.1 C 354.1 589.2 354.3 589.3 354.5 589.5 C 354.8 589.7 355.1 589.9 355.3 590.2 C 355.4 590.3 355.6 590.4 355.7 590.5 C 355.9 590.8 356.1 591.0 356.3 591.2 C 356.4 591.3 356.5 591.4 356.6 591.6 Z M 357.1 592.5 " fill="#414341"></path><path d="M 329.6 674.1 C 328.1 673.9 326.5 673.6 324.9 673.4 C 324.1 673.3 323.3 673.2 322.5 673.1 C 321.1 672.9 319.6 672.8 318.1 672.6 C 317.1 672.6 316.2 672.5 315.2 672.4 C 313.3 672.3 311.4 672.2 309.5 672.1 L 308.5 672.1 C 306.3 672.0 304.0 671.9 301.7 671.9 C 301.2 671.9 300.7 671.9 300.2 671.9 C 277.7 671.9 255.1 675.6 244.1 682.7 L 244.1 588.7 C 244.7 586.5 250.0 583.7 257.5 581.1 C 267.6 578.0 283.2 575.5 303.9 575.5 C 341.6 575.5 357.2 584.4 357.2 589.1 L 357.3 683.6 C 351.4 679.6 341.9 676.2 329.6 674.1 Z M 329.6 674.1 " fill="#666967"></path><text xml:space="preserve" font-family="Helvetica" font-size="12.0" fill="#000000" transform="matrix(1.67, 0.00, -0.00, -1.67, 281.3, 622.9)">L</text><text xml:space="preserve" font-family="Helvetica" font-size="12.0" fill="#000000" transform="matrix(1.67, 0.00, -0.00, -1.67, 292.4, 622.9)">D</text><text xml:space="preserve" font-family="Helvetica" font-size="12.0" fill="#000000" transform="matrix(1.67, 0.00, -0.00, -1.67, 306.8, 622.9)">P</text><path d="M 622.8 544.2 L 671.2 261.9 " fill="none" stroke="#000000" stroke-width="1.00" stroke-miterlimit="0.00" stroke-linecap="round" stroke-linejoin="round" transform="matrix(1.67, 0.00, 0.00, -1.67, 52.3, 1202.8)"></path><path d="M 1088.0 281.9 L 1095.2 294.2 L 1085.3 295.9 Z M 1088.0 281.9 " fill="#000000"></path><path d="M 621.4 552.1 L 625.7 544.8 L 619.8 543.7 Z M 621.4 552.1 " fill="none" stroke="#000000" stroke-width="1.00" stroke-miterlimit="0.00" transform="matrix(1.67, 0.00, 0.00, -1.67, 52.3, 1202.8)"></path><text xml:space="preserve" font-family="HelveticaNeue" font-size="12.0" fill="#000000" transform="matrix(1.67, 0.00, -0.00, -1.67, 1057.8, 504.8)">G</text><text xml:space="preserve" font-family="HelveticaNeue" font-size="12.0" fill="#000000" transform="matrix(1.67, 0.00, -0.00, -1.67, 1073.0, 504.8)">E</text><text xml:space="preserve" font-family="HelveticaNeue" font-size="12.0" fill="#000000" transform="matrix(1.67, 0.00, -0.00, -1.67, 1085.2, 504.8)">T</text><path d="M 945.8 412.2 C 954.2 412.2 960.9 405.5 960.9 397.2 L 960.9 338.0 C 960.9 329.7 954.2 323.0 945.8 323.0 L 888.0 323.0 C 879.6 323.0 872.9 329.7 872.9 338.0 L 872.9 397.2 C 872.9 405.5 879.6 412.2 888.0 412.2 Z M 945.8 412.2 " fill="#E77C3B"></path><text xml:space="preserve" font-family="Helvetica" font-size="12.0" fill="#000000" transform="matrix(1.67, 0.00, -0.00, -1.67, 895.2, 360.9)">B</text><text xml:space="preserve" font-family="Helvetica" font-size="12.0" fill="#000000" transform="matrix(1.67, 0.00, -0.00, -1.67, 908.6, 360.9)">A</text><text xml:space="preserve" font-family="Helvetica" font-size="12.0" fill="#000000" transform="matrix(1.67, 0.00, -0.00, -1.67, 921.9, 360.9)">M</text><path d="M 960.9 338.0 L 960.9 332.8 C 960.9 324.5 954.2 317.7 945.8 317.7 L 945.8 323.0 C 954.2 323.0 960.9 329.7 960.9 338.0 Z M 960.9 338.0 " fill="#8E4B2A"></path><path d="M 960.9 338.0 L 960.9 332.8 C 960.9 332.0 960.9 331.3 960.8 330.6 L 960.8 335.9 C 960.9 336.6 960.9 337.3 960.9 338.0 Z M 960.9 338.0 " fill="#8E4B2A"></path><path d="M 960.8 335.9 L 960.8 330.6 C 960.7 329.8 960.5 329.0 960.2 328.2 L 960.2 333.4 C 960.5 334.2 960.7 335.0 960.8 335.9 Z M 960.8 335.9 " fill="#8E4B2A"></path><path d="M 960.2 333.4 L 960.2 328.2 C 959.9 327.3 959.5 326.4 959.1 325.5 L 959.1 330.8 C 959.5 331.6 959.9 332.5 960.2 333.4 Z M 960.2 333.4 " fill="#8E4B2A"></path><path d="M 959.1 330.8 L 959.1 325.5 C 956.5 320.9 951.5 317.7 945.8 317.7 L 945.8 323.0 C 951.5 323.0 956.5 326.1 959.1 330.8 Z M 959.1 330.8 " fill="#8E4B2A"></path><path d="M 887.4 323.0 L 945.9 323.0 L 945.9 317.7 L 887.4 317.7 Z M 887.4 323.0 " fill="#8E4B2A"></path><path d="M 888.0 323.0 L 888.0 317.7 C 879.6 317.7 872.9 324.5 872.9 332.8 L 872.9 338.0 C 872.9 329.7 879.6 323.0 888.0 323.0 Z M 888.0 323.0 " fill="#8E4B2A"></path><path d="M 888.6 323.0 L 888.6 317.7 C 880.3 317.7 872.9 324.5 872.9 332.8 L 872.9 338.0 C 872.9 329.7 879.6 323.0 888.6 323.0 Z M 888.6 323.0 " fill="#8E4B2A"></path><text xml:space="preserve" font-family="HelveticaNeue" font-size="12.0" fill="#000000" transform="matrix(1.67, 0.00, -0.00, -1.67, 864.6, 473.1)">G</text><text xml:space="preserve" font-family="HelveticaNeue" font-size="12.0" fill="#000000" transform="matrix(1.67, 0.00, -0.00, -1.67, 879.8, 473.1)">E</text><text xml:space="preserve" font-family="HelveticaNeue" font-size="12.0" fill="#000000" transform="matrix(1.67, 0.00, -0.00, -1.67, 892.0, 473.1)">T</text><path d="M 365.6 442.3 L 365.6 438.2 C 365.6 435.4 363.4 433.2 360.6 433.2 L 360.6 437.4 C 363.4 437.4 365.6 439.6 365.6 442.3 Z M 365.6 442.3 " fill="#414341"></path><path d="M 365.6 442.3 L 365.6 438.2 C 365.6 437.9 365.6 437.7 365.6 437.5 L 365.6 441.6 C 365.6 441.9 365.6 442.1 365.6 442.3 Z M 365.6 442.3 " fill="#414341"></path><path d="M 365.6 441.6 L 365.6 437.5 C 365.5 437.2 365.5 436.9 365.4 436.7 L 365.4 440.8 C 365.5 441.1 365.5 441.4 365.6 441.6 Z M 365.6 441.6 " fill="#414341"></path><path d="M 365.4 440.8 L 365.4 436.7 C 365.3 436.4 365.2 436.1 365.0 435.8 L 365.0 440.0 C 365.2 440.2 365.3 440.5 365.4 440.8 Z M 365.4 440.8 " fill="#414341"></path><path d="M 365.0 440.0 L 365.0 435.8 C 364.2 434.3 362.5 433.2 360.6 433.2 L 360.6 437.4 C 362.5 437.4 364.2 438.4 365.0 440.0 Z M 365.0 440.0 " fill="#414341"></path><path d="M 362.8 438.2 L 360.6 433.2 L 302.7 433.2 L 301.3 438.4 Z M 362.8 438.2 " fill="#414341"></path><path d="M 302.7 437.4 L 302.7 433.2 C 299.9 433.2 297.7 435.4 297.7 438.2 L 297.7 442.3 C 297.7 439.6 299.9 437.4 302.7 437.4 Z M 302.7 437.4 " fill="#414341"></path><path d="M 302.7 437.4 L 302.7 433.2 C 299.9 433.2 297.7 435.4 297.7 438.2 L 297.7 442.3 C 297.7 439.6 299.9 437.4 302.7 437.4 Z M 302.7 437.4 " fill="#414341"></path><path d="M 360.6 526.3 C 363.4 526.3 365.6 524.1 365.6 521.4 L 365.6 442.3 C 365.6 439.6 363.4 437.4 360.6 437.4 L 302.7 437.4 C 299.9 437.4 297.7 439.6 297.7 442.3 L 297.7 521.4 C 297.7 524.1 299.9 526.3 302.7 526.3 Z M 360.6 526.3 " fill="#666967"></path><path d="M 308.1 513.5 L 355.2 513.5 L 355.2 507.9 L 308.1 507.9 Z M 308.1 503.7 L 355.2 503.7 L 355.2 498.1 L 308.1 498.1 Z M 308.1 494.3 L 355.2 494.3 L 355.2 488.8 L 308.1 488.8 Z M 308.1 494.3 " fill="#FFFEFE"></path><text xml:space="preserve" font-family="Helvetica" font-size="12.0" fill="#000000" transform="matrix(1.67, 0.00, -0.00, -1.67, 268.3, 400.5)">E</text><text xml:space="preserve" font-family="Helvetica" font-size="12.0" fill="#000000" transform="matrix(1.67, 0.00, -0.00, -1.67, 281.6, 400.5)">q</text><text xml:space="preserve" font-family="Helvetica" font-size="12.0" fill="#000000" transform="matrix(1.67, 0.00, -0.00, -1.67, 292.7, 400.5)">u</text><text xml:space="preserve" font-family="Helvetica" font-size="12.0" fill="#000000" transform="matrix(1.67, 0.00, -0.00, -1.67, 303.9, 400.5)">a</text><text xml:space="preserve" font-family="Helvetica" font-size="12.0" fill="#000000" transform="matrix(1.67, 0.00, -0.00, -1.67, 315.0, 400.5)">t</text><text xml:space="preserve" font-family="Helvetica" font-size="12.0" fill="#000000" transform="matrix(1.67, 0.00, -0.00, -1.67, 320.5, 400.5)">i</text><text xml:space="preserve" font-family="Helvetica" font-size="12.0" fill="#000000" transform="matrix(1.67, 0.00, -0.00, -1.67, 325.0, 400.5)">o</text><text xml:space="preserve" font-family="Helvetica" font-size="12.0" fill="#000000" transform="matrix(1.67, 0.00, -0.00, -1.67, 336.1, 400.5)">n</text><text xml:space="preserve" font-family="Helvetica" font-size="12.0" fill="#000000" transform="matrix(1.67, 0.00, -0.00, -1.67, 347.2, 400.5)"> </text><text xml:space="preserve" font-family="Helvetica" font-size="12.0" fill="#000000" transform="matrix(1.67, 0.00, -0.00, -1.67, 352.8, 400.5)">C</text><text xml:space="preserve" font-family="Helvetica" font-size="12.0" fill="#000000" transform="matrix(1.67, 0.00, -0.00, -1.67, 367.2, 400.5)">h</text><text xml:space="preserve" font-family="Helvetica" font-size="12.0" fill="#000000" transform="matrix(1.67, 0.00, -0.00, -1.67, 378.4, 400.5)">e</text><text xml:space="preserve" font-family="Helvetica" font-size="12.0" fill="#000000" transform="matrix(1.67, 0.00, -0.00, -1.67, 389.5, 400.5)">f</text><path d="M 234.6 233.4 L 176.9 405.6 " fill="none" stroke="#000000" stroke-width="1.00" stroke-miterlimit="0.00" stroke-linecap="round" stroke-linejoin="round" transform="matrix(1.67, 0.00, 0.00, -1.67, 52.3, 1202.8)"></path><path d="M 447.6 826.2 L 438.6 815.1 L 448.1 811.9 Z M 447.6 826.2 " fill="#000000"></path><path d="M 237.2 225.8 L 231.8 232.4 L 237.5 234.3 Z M 237.2 225.8 " fill="none" stroke="#000000" stroke-width="1.00" stroke-miterlimit="0.00" transform="matrix(1.67, 0.00, 0.00, -1.67, 52.3, 1202.8)"></path><path d="M 293.7 231.6 L 495.2 474.0 " fill="none" stroke="#000000" stroke-width="1.00" stroke-miterlimit="0.00" stroke-linecap="round" stroke-linejoin="round" transform="matrix(1.67, 0.00, 0.00, -1.67, 52.3, 1202.8)"></path><path d="M 533.2 826.7 L 537.9 813.3 L 545.6 819.7 Z M 533.2 826.7 " fill="#000000"></path><path d="M 288.6 225.5 L 291.4 233.5 L 296.0 229.7 Z M 288.6 225.5 " fill="none" stroke="#000000" stroke-width="1.00" stroke-miterlimit="0.00" transform="matrix(1.67, 0.00, 0.00, -1.67, 52.3, 1202.8)"></path><path d="M 528.8 331.6 L 528.8 327.4 C 528.8 324.7 526.5 322.4 523.8 322.4 L 523.8 326.6 C 526.5 326.6 528.8 328.8 528.8 331.6 Z M 528.8 331.6 " fill="#414341"></path><path d="M 528.8 331.6 L 528.8 327.4 C 528.8 327.1 528.8 326.9 528.7 326.7 L 528.7 330.9 C 528.8 331.1 528.8 331.3 528.8 331.6 Z M 528.8 331.6 " fill="#414341"></path><path d="M 528.7 330.9 L 528.7 326.7 C 528.7 326.4 528.6 326.1 528.5 325.9 L 528.5 330.1 C 528.6 330.3 528.7 330.6 528.7 330.9 Z M 528.7 330.9 " fill="#414341"></path><path d="M 528.5 330.1 L 528.5 325.9 C 528.4 325.6 528.3 325.3 528.2 325.0 L 528.2 329.2 C 528.3 329.5 528.4 329.7 528.5 330.1 Z M 528.5 330.1 " fill="#414341"></path><path d="M 528.2 329.2 L 528.2 325.0 C 527.3 323.5 525.7 322.4 523.8 322.4 L 523.8 326.6 C 525.7 326.6 527.3 327.6 528.2 329.2 Z M 528.2 329.2 " fill="#414341"></path><path d="M 525.9 327.4 L 523.8 322.4 L 465.8 322.4 L 464.5 327.7 Z M 525.9 327.4 " fill="#414341"></path><path d="M 465.8 326.6 L 465.8 322.4 C 463.1 322.4 460.8 324.7 460.8 327.4 L 460.8 331.6 C 460.8 328.8 463.1 326.6 465.8 326.6 Z M 465.8 326.6 " fill="#414341"></path><path d="M 465.8 326.6 L 465.8 322.4 C 463.1 322.4 460.8 324.7 460.8 327.4 L 460.8 331.6 C 460.8 328.8 463.1 326.6 465.8 326.6 Z M 465.8 326.6 " fill="#414341"></path><path d="M 523.8 415.6 C 526.5 415.6 528.8 413.3 528.8 410.6 L 528.8 331.6 C 528.8 328.8 526.5 326.6 523.8 326.6 L 465.8 326.6 C 463.1 326.6 460.8 328.8 460.8 331.6 L 460.8 410.6 C 460.8 413.3 463.1 415.6 465.8 415.6 Z M 523.8 415.6 " fill="#666967"></path><path d="M 471.3 402.7 L 518.3 402.7 L 518.3 397.2 L 471.3 397.2 Z M 471.3 392.9 L 518.3 392.9 L 518.3 387.4 L 471.3 387.4 Z M 471.3 383.5 L 518.3 383.5 L 518.3 378.0 L 471.3 378.0 Z M 471.3 383.5 " fill="#FFFEFE"></path><text xml:space="preserve" font-family="Helvetica" font-size="12.0" fill="#000000" transform="matrix(1.67, 0.00, -0.00, -1.67, 469.4, 290.2)">A</text><text xml:space="preserve" font-family="Helvetica" font-size="12.0" fill="#000000" transform="matrix(1.67, 0.00, -0.00, -1.67, 482.8, 290.2)">c</text><text xml:space="preserve" font-family="Helvetica" font-size="12.0" fill="#000000" transform="matrix(1.67, 0.00, -0.00, -1.67, 492.8, 290.2)">m</text><text xml:space="preserve" font-family="Helvetica" font-size="12.0" fill="#000000" transform="matrix(1.67, 0.00, -0.00, -1.67, 509.4, 290.2)">e</text><path d="M 634.3 232.3 C 633.5 232.1 632.7 231.9 631.8 231.7 C 631.3 231.6 630.8 231.5 634.3 232.3 Z M 634.3 232.3 " fill="#20405E"></path><path d="M 632.2 302.7 C 643.8 302.7 653.8 301.9 661.9 300.4 C 679.4 297.4 688.8 292.3 688.8 289.1 C 688.8 285.9 679.4 280.7 661.9 277.7 C 653.8 276.3 643.8 275.4 632.2 275.4 C 595.6 275.4 575.6 284.4 575.6 289.1 C 575.6 293.7 595.6 302.7 632.2 302.7 Z M 632.2 302.7 " fill="#666967"></path><path d="M 688.8 289.1 L 688.8 282.1 C 688.8 279.0 679.4 273.8 661.9 270.8 C 653.8 269.4 643.8 268.4 632.2 268.4 C 595.6 268.4 575.6 277.5 575.6 282.1 L 575.6 289.1 C 575.6 284.4 595.6 275.4 632.2 275.4 C 643.8 275.4 653.8 276.3 661.9 277.7 C 679.4 280.7 688.8 285.9 688.8 289.1 Z M 688.8 289.1 " fill="#414341"></path><path d="M 688.8 289.1 L 688.8 282.1 C 688.8 282.1 688.8 282.0 688.8 281.9 L 688.8 288.8 C 688.8 288.9 688.8 289.0 688.8 289.1 Z M 688.8 289.1 " fill="#414341"></path><path d="M 688.8 288.8 L 688.8 281.9 C 688.7 281.7 688.7 281.6 688.7 281.5 L 688.7 288.4 C 688.7 288.5 688.7 288.7 688.8 288.8 Z M 688.8 288.8 " fill="#414341"></path><path d="M 688.7 288.4 L 688.7 281.5 C 688.6 281.3 688.5 281.1 688.4 280.9 L 688.4 287.8 C 688.5 288.0 688.6 288.2 688.7 288.4 Z M 688.7 288.4 " fill="#414341"></path><path d="M 688.4 287.8 L 688.4 280.9 C 686.4 277.7 677.3 273.4 661.9 270.8 C 653.8 269.4 643.8 268.4 632.2 268.4 C 595.6 268.4 575.6 277.5 575.6 282.1 L 575.6 289.1 C 575.6 284.4 595.6 275.4 632.2 275.4 C 643.8 275.4 653.8 276.3 661.9 277.7 C 677.3 280.3 686.4 284.7 688.4 287.8 Z M 688.4 287.8 " fill="#414341"></path><path d="M 688.7 184.9 C 688.8 185.2 688.9 185.5 688.9 185.8 L 688.9 174.6 C 688.9 174.5 688.9 174.3 688.9 174.2 C 688.8 174.0 688.8 173.9 688.7 173.7 L 688.7 173.7 L 688.7 173.6 C 688.6 173.4 688.5 173.2 688.4 173.0 C 688.3 172.9 688.3 172.9 688.2 172.8 C 688.1 172.7 688.0 172.5 687.9 172.4 C 687.7 172.2 687.6 172.0 687.4 171.8 C 687.2 171.6 687.1 171.5 686.9 171.3 C 686.7 171.1 686.4 170.9 686.2 170.7 C 686.0 170.6 685.8 170.4 685.5 170.3 C 685.3 170.1 684.9 169.9 684.6 169.7 C 684.4 169.5 684.1 169.3 683.8 169.2 C 683.5 169.0 683.1 168.8 682.7 168.6 C 682.3 168.4 682.1 168.3 681.7 168.1 C 681.2 167.9 680.7 167.7 680.2 167.4 C 679.8 167.3 679.6 167.2 679.3 167.0 C 678.4 166.7 677.4 166.4 676.4 166.0 C 676.1 165.9 675.7 165.8 675.4 165.7 C 674.7 165.5 674.0 165.3 673.2 165.1 C 672.7 164.9 672.2 164.8 671.7 164.7 C 671.0 164.5 670.3 164.3 669.5 164.2 C 668.9 164.0 668.4 163.9 667.8 163.8 C 667.0 163.6 666.2 163.5 665.4 163.3 C 664.8 163.2 664.1 163.1 663.5 163.0 C 662.6 162.9 661.8 162.7 660.8 162.6 C 660.2 162.5 659.5 162.4 658.8 162.3 C 657.8 162.2 656.8 162.1 655.8 162.0 C 655.1 161.9 654.4 161.8 653.6 161.8 C 652.6 161.7 651.4 161.6 650.3 161.5 C 649.6 161.4 648.8 161.4 648.1 161.3 C 646.8 161.3 645.4 161.2 644.1 161.2 C 643.4 161.1 642.7 161.1 642.0 161.1 C 639.9 161.0 637.8 161.0 635.6 161.0 C 614.9 161.0 599.4 163.5 589.2 166.6 C 581.7 169.2 576.3 172.0 575.7 174.2 L 575.7 185.4 C 576.3 183.4 581.0 180.8 587.7 178.4 L 587.6 179.0 C 597.7 175.9 614.9 172.2 635.6 172.2 C 637.8 172.2 639.9 172.2 642.0 172.3 C 642.7 172.3 643.4 172.3 644.0 172.4 C 645.4 172.4 646.8 172.5 648.1 172.5 C 648.8 172.6 649.5 172.6 650.2 172.7 C 651.4 172.8 652.6 172.9 653.7 173.0 C 654.4 173.0 655.1 173.1 655.8 173.2 C 656.8 173.3 657.8 173.4 658.8 173.5 C 659.5 173.6 660.1 173.7 660.8 173.8 C 661.7 173.9 662.7 174.1 663.6 174.2 L 676.4 177.2 C 677.4 177.6 678.4 177.9 679.3 178.3 L 681.8 179.3 C 682.0 179.4 682.2 179.5 682.4 179.6 C 682.9 179.9 683.4 180.2 683.9 180.4 C 684.1 180.5 684.3 180.6 684.5 180.8 C 684.9 181.0 685.3 181.3 685.6 181.5 C 685.8 181.6 685.9 181.7 686.1 181.9 C 686.4 182.1 686.7 182.3 686.9 182.6 C 687.1 182.7 687.2 182.8 687.3 182.9 C 687.6 183.2 687.8 183.4 687.9 183.6 C 688.0 183.7 688.1 183.8 688.2 184.0 Z M 688.7 184.9 " fill="#414341"></path><path d="M 661.3 266.6 C 659.7 266.3 658.1 266.1 656.6 265.8 C 655.8 265.7 655.0 265.6 654.1 265.5 C 652.7 265.3 651.2 265.2 649.7 265.1 C 648.8 265.0 647.8 264.9 646.9 264.8 C 645.0 264.7 643.1 264.6 641.1 264.5 L 640.2 264.5 C 637.9 264.4 635.7 264.3 633.3 264.3 C 632.8 264.3 632.3 264.3 631.8 264.3 C 609.4 264.3 586.7 268.0 575.7 275.1 L 575.7 181.1 C 576.3 178.9 581.7 176.1 589.2 173.6 C 599.3 170.4 614.9 167.9 635.5 167.9 C 673.2 167.9 688.9 176.8 688.9 181.5 L 689.0 276.0 C 683.1 272.0 673.6 268.6 661.3 266.6 Z M 661.3 266.6 " fill="#666967"></path><text xml:space="preserve" font-family="Helvetica" font-size="12.0" fill="#000000" transform="matrix(1.67, 0.00, -0.00, -1.67, 612.9, 215.3)">i</text><text xml:space="preserve" font-family="Helvetica" font-size="12.0" fill="#000000" transform="matrix(1.67, 0.00, -0.00, -1.67, 617.3, 215.3)">S</text><text xml:space="preserve" font-family="Helvetica" font-size="12.0" fill="#000000" transform="matrix(1.67, 0.00, -0.00, -1.67, 630.7, 215.3)">i</text><text xml:space="preserve" font-family="Helvetica" font-size="12.0" fill="#000000" transform="matrix(1.67, 0.00, -0.00, -1.67, 635.1, 215.3)">t</text><text xml:space="preserve" font-family="Helvetica" font-size="12.0" fill="#000000" transform="matrix(1.67, 0.00, -0.00, -1.67, 640.7, 215.3)">e</text><path d="M 264.5 233.6 L 337.8 539.6 " fill="none" stroke="#000000" stroke-width="1.00" stroke-miterlimit="0.00" stroke-linecap="round" stroke-linejoin="round" transform="matrix(1.67, 0.00, 0.00, -1.67, 52.3, 1202.8)"></path><path d="M 490.0 826.1 L 488.3 812.0 L 498.0 814.3 Z M 490.0 826.1 " fill="#000000"></path><path d="M 262.6 225.8 L 261.6 234.3 L 267.4 232.9 Z M 262.6 225.8 " fill="none" stroke="#000000" stroke-width="1.00" stroke-miterlimit="0.00" transform="matrix(1.67, 0.00, 0.00, -1.67, 52.3, 1202.8)"></path><path d="M 254.2 233.9 L 264.3 472.0 " fill="none" stroke="#000000" stroke-width="1.00" stroke-miterlimit="0.00" stroke-linecap="round" stroke-linejoin="round" transform="matrix(1.67, 0.00, 0.00, -1.67, 52.3, 1202.8)"></path><path d="M 475.5 826.0 L 471.0 812.5 L 481.0 812.9 Z M 475.5 826.0 " fill="#000000"></path><path d="M 253.9 225.9 L 251.2 234.0 L 257.2 233.8 Z M 253.9 225.9 " fill="none" stroke="#000000" stroke-width="1.00" stroke-miterlimit="0.00" transform="matrix(1.67, 0.00, 0.00, -1.67, 52.3, 1202.8)"></path></g></g></g></svg>