<?xml version="1.0" encoding="UTF-8" standalone="no"?><svg xmlns="http://www.w3.org/2000/svg" xmlns:xlink="http://www.w3.org/1999/xlink" clip-rule="evenodd" stroke-miterlimit="4.00" viewBox="0 0 841 359"><desc>SVG generated by Keynote</desc><defs></defs><g transform="matrix(1.00, 0.00, -0.00, -1.00, 0.0, 359.0)"><g><clipPath id="clip-375"><path d="M 246.4 0.4 L 840.4 0.4 L 840.4 358.5 L 246.4 358.5 Z M 246.4 0.4 "></path></clipPath><g clip-path="url(#clip-375)"><path d="M 501.9 51.6 C 616.7 120.3 616.7 231.8 501.9 300.5 C 387.1 369.3 200.9 369.3 86.1 300.5 C -28.7 231.8 -28.7 120.3 86.1 51.6 C 200.9 -17.2 387.1 -17.2 501.9 51.6 Z M 501.9 51.6 " fill="none" stroke="#FF9200" stroke-width="4.00" transform="matrix(1.00, 0.00, 0.00, -1.00, 249.4, 355.5)"></path></g></g><g><clipPath id="clip-376"><path d="M -4.5 0.1 L 324.5 0.1 L 324.5 59.7 L -4.5 59.7 Z M -4.5 0.1 "></path></clipPath><g clip-path="url(#clip-376)"><text xml:space="preserve" font-family="HelveticaNeue-Bold" font-weight="bold" font-size="33.0" fill="#F38F18" transform="matrix(1.00, 0.00, -0.00, -1.00, 6.0, 18.0)">O</text><text xml:space="preserve" font-family="HelveticaNeue-Bold" font-weight="bold" font-size="33.0" fill="#F38F18" transform="matrix(1.00, 0.00, -0.00, -1.00, 31.7, 18.0)">l</text><text xml:space="preserve" font-family="HelveticaNeue-Bold" font-weight="bold" font-size="33.0" fill="#F38F18" transform="matrix(1.00, 0.00, -0.00, -1.00, 40.2, 18.0)">d</text><text xml:space="preserve" font-family="HelveticaNeue-Bold" font-weight="bold" font-size="33.0" fill="#F38F18" transform="matrix(1.00, 0.00, -0.00, -1.00, 60.4, 18.0)"> </text><text xml:space="preserve" font-family="HelveticaNeue-Bold" font-weight="bold" font-size="33.0" fill="#F38F18" transform="matrix(1.00, 0.00, -0.00, -1.00, 69.5, 18.0)">i</text><text xml:space="preserve" font-family="HelveticaNeue-Bold" font-weight="bold" font-size="33.0" fill="#F38F18" transform="matrix(1.00, 0.00, -0.00, -1.00, 78.0, 18.0)">m</text><text xml:space="preserve" font-family="HelveticaNeue-Bold" font-weight="bold" font-size="33.0" fill="#F38F18" transform="matrix(1.00, 0.00, -0.00, -1.00, 107.9, 18.0)">p</text><text xml:space="preserve" font-family="HelveticaNeue-Bold" font-weight="bold" font-size="33.0" fill="#F38F18" transform="matrix(1.00, 0.00, -0.00, -1.00, 128.1, 18.0)">l</text><text xml:space="preserve" font-family="HelveticaNeue-Bold" font-weight="bold" font-size="33.0" fill="#F38F18" transform="matrix(1.00, 0.00, -0.00, -1.00, 136.6, 18.0)">e</text><text xml:space="preserve" font-family="HelveticaNeue-Bold" font-weight="bold" font-size="33.0" fill="#F38F18" transform="matrix(1.00, 0.00, -0.00, -1.00, 155.6, 18.0)">m</text><text xml:space="preserve" font-family="HelveticaNeue-Bold" font-weight="bold" font-size="33.0" fill="#F38F18" transform="matrix(1.00, 0.00, -0.00, -1.00, 185.5, 18.0)">e</text><text xml:space="preserve" font-family="HelveticaNeue-Bold" font-weight="bold" font-size="33.0" fill="#F38F18" transform="matrix(1.00, 0.00, -0.00, -1.00, 204.4, 18.0)">n</text><text xml:space="preserve" font-family="HelveticaNeue-Bold" font-weight="bold" font-size="33.0" fill="#F38F18" transform="matrix(1.00, 0.00, -0.00, -1.00, 224.0, 18.0)">t</text><text xml:space="preserve" font-family="HelveticaNeue-Bold" font-weight="bold" font-size="33.0" fill="#F38F18" transform="matrix(1.00, 0.00, -0.00, -1.00, 235.6, 18.0)">a</text><text xml:space="preserve" font-family="HelveticaNeue-Bold" font-weight="bold" font-size="33.0" fill="#F38F18" transform="matrix(1.00, 0.00, -0.00, -1.00, 254.5, 18.0)">t</text><text xml:space="preserve" font-family="HelveticaNeue-Bold" font-weight="bold" font-size="33.0" fill="#F38F18" transform="matrix(1.00, 0.00, -0.00, -1.00, 266.1, 18.0)">i</text><text xml:space="preserve" font-family="HelveticaNeue-Bold" font-weight="bold" font-size="33.0" fill="#F38F18" transform="matrix(1.00, 0.00, -0.00, -1.00, 274.7, 18.0)">o</text><text xml:space="preserve" font-family="HelveticaNeue-Bold" font-weight="bold" font-size="33.0" fill="#F38F18" transform="matrix(1.00, 0.00, -0.00, -1.00, 294.8, 18.0)">n</text></g></g></g></svg>