<?xml version="1.0" encoding="UTF-8" standalone="no"?><svg xmlns="http://www.w3.org/2000/svg" xmlns:xlink="http://www.w3.org/1999/xlink" clip-rule="evenodd" stroke-miterlimit="4.00" viewBox="0 0 566 252"><desc>SVG generated by Keynote</desc><defs></defs><g transform="matrix(1.00, 0.00, -0.00, -1.00, 0.0, 252.0)"><g><clipPath id="clip-377"><path d="M 0.9 72.6 L 208.1 72.6 L 208.1 142.1 L 0.9 142.1 Z M 0.9 72.6 "></path></clipPath><g clip-path="url(#clip-377)"><path d="M 170.9 9.1 C 210.0 21.3 210.0 41.1 170.9 53.3 C 131.8 65.5 68.4 65.5 29.3 53.3 C -9.8 41.1 -9.8 21.3 29.3 9.1 C 68.4 -3.0 131.8 -3.0 170.9 9.1 Z M 170.9 9.1 " fill="none" stroke="#0432FF" stroke-width="5.00" transform="matrix(1.00, 0.00, 0.00, -1.00, 4.4, 138.6)"></path></g></g><g><clipPath id="clip-378"><path d="M 74.2 -1.6 L 384.6 -1.6 L 384.6 47.9 L 74.2 47.9 Z M 74.2 -1.6 "></path></clipPath><g clip-path="url(#clip-378)"><text xml:space="preserve" font-family="Helvetica-Bold" font-weight="bold" font-size="29.0" fill="#0432FF" transform="matrix(1.00, 0.00, -0.00, -1.00, 82.0, 12.0)">O</text><text xml:space="preserve" font-family="Helvetica-Bold" font-weight="bold" font-size="29.0" fill="#0432FF" transform="matrix(1.00, 0.00, -0.00, -1.00, 104.6, 12.0)">l</text><text xml:space="preserve" font-family="Helvetica-Bold" font-weight="bold" font-size="29.0" fill="#0432FF" transform="matrix(1.00, 0.00, -0.00, -1.00, 112.6, 12.0)">d</text><text xml:space="preserve" font-family="Helvetica-Bold" font-weight="bold" font-size="29.0" fill="#0432FF" transform="matrix(1.00, 0.00, -0.00, -1.00, 130.3, 12.0)"> </text><text xml:space="preserve" font-family="Helvetica-Bold" font-weight="bold" font-size="29.0" fill="#0432FF" transform="matrix(1.00, 0.00, -0.00, -1.00, 138.4, 12.0)">f</text><text xml:space="preserve" font-family="Helvetica-Bold" font-weight="bold" font-size="29.0" fill="#0432FF" transform="matrix(1.00, 0.00, -0.00, -1.00, 148.0, 12.0)">a</text><text xml:space="preserve" font-family="Helvetica-Bold" font-weight="bold" font-size="29.0" fill="#0432FF" transform="matrix(1.00, 0.00, -0.00, -1.00, 164.2, 12.0)">s</text><text xml:space="preserve" font-family="Helvetica-Bold" font-weight="bold" font-size="29.0" fill="#0432FF" transform="matrix(1.00, 0.00, -0.00, -1.00, 180.3, 12.0)">h</text><text xml:space="preserve" font-family="Helvetica-Bold" font-weight="bold" font-size="29.0" fill="#0432FF" transform="matrix(1.00, 0.00, -0.00, -1.00, 198.0, 12.0)">i</text><text xml:space="preserve" font-family="Helvetica-Bold" font-weight="bold" font-size="29.0" fill="#0432FF" transform="matrix(1.00, 0.00, -0.00, -1.00, 206.0, 12.0)">o</text><text xml:space="preserve" font-family="Helvetica-Bold" font-weight="bold" font-size="29.0" fill="#0432FF" transform="matrix(1.00, 0.00, -0.00, -1.00, 223.8, 12.0)">n</text><text xml:space="preserve" font-family="Helvetica-Bold" font-weight="bold" font-size="29.0" fill="#0432FF" transform="matrix(1.00, 0.00, -0.00, -1.00, 241.5, 12.0)">e</text><text xml:space="preserve" font-family="Helvetica-Bold" font-weight="bold" font-size="29.0" fill="#0432FF" transform="matrix(1.00, 0.00, -0.00, -1.00, 257.6, 12.0)">d</text><text xml:space="preserve" font-family="Helvetica-Bold" font-weight="bold" font-size="29.0" fill="#0432FF" transform="matrix(1.00, 0.00, -0.00, -1.00, 275.3, 12.0)"> </text><text xml:space="preserve" font-family="Helvetica-Bold" font-weight="bold" font-size="29.0" fill="#0432FF" transform="matrix(1.00, 0.00, -0.00, -1.00, 283.4, 12.0)">d</text><text xml:space="preserve" font-family="Helvetica-Bold" font-weight="bold" font-size="29.0" fill="#0432FF" transform="matrix(1.00, 0.00, -0.00, -1.00, 301.1, 12.0)">e</text><text xml:space="preserve" font-family="Helvetica-Bold" font-weight="bold" font-size="29.0" fill="#0432FF" transform="matrix(1.00, 0.00, -0.00, -1.00, 317.2, 12.0)">s</text><text xml:space="preserve" font-family="Helvetica-Bold" font-weight="bold" font-size="29.0" fill="#0432FF" transform="matrix(1.00, 0.00, -0.00, -1.00, 333.3, 12.0)">i</text><text xml:space="preserve" font-family="Helvetica-Bold" font-weight="bold" font-size="29.0" fill="#0432FF" transform="matrix(1.00, 0.00, -0.00, -1.00, 341.4, 12.0)">g</text><text xml:space="preserve" font-family="Helvetica-Bold" font-weight="bold" font-size="29.0" fill="#0432FF" transform="matrix(1.00, 0.00, -0.00, -1.00, 359.1, 12.0)">n</text></g></g><g><clipPath id="clip-379"><path d="M 276.8 44.6 L 565.8 44.6 L 565.8 251.9 L 276.8 251.9 Z M 276.8 44.6 "></path></clipPath><g clip-path="url(#clip-379)"><path d="M 240.7 29.3 C 295.8 68.4 295.8 131.8 240.7 170.9 C 185.6 210.0 96.4 210.0 41.3 170.9 C -13.8 131.8 -13.8 68.4 41.3 29.3 C 96.4 -9.8 185.6 -9.8 240.7 29.3 Z M 240.7 29.3 " fill="none" stroke="#0432FF" stroke-width="5.00" transform="matrix(1.00, 0.00, 0.00, -1.00, 280.3, 248.4)"></path></g></g></g></svg>