<?xml version="1.0" encoding="UTF-8" standalone="no"?><svg xmlns="http://www.w3.org/2000/svg" xmlns:xlink="http://www.w3.org/1999/xlink" clip-rule="evenodd" stroke-miterlimit="4.00" viewBox="0 0 1920 1080"><desc>SVG generated by Keynote</desc><defs></defs><g transform="matrix(1.00, 0.00, -0.00, -1.00, 0.0, 1080.0)"><path d="M 0.0 1080.0 L 1920.0 1080.0 L 1920.0 0.0 L 0.0 0.0 Z M 0.0 1080.0 " fill="#EEEDED"></path><path d="M 0.0 0.0 L 1836.0 0.0 " fill="none" stroke="#000000" stroke-width="2.00" transform="matrix(1.00, 0.00, 0.00, -1.00, 41.0, 58.0)"></path><text xml:space="preserve" font-family="HelveticaNeue-Bold" font-weight="bold" font-size="23.0" fill="#000000" transform="matrix(1.00, 0.00, -0.00, -1.00, 61.0, 24.0)">M</text><text xml:space="preserve" font-family="HelveticaNeue-Bold" font-weight="bold" font-size="23.0" fill="#000000" transform="matrix(1.00, 0.00, -0.00, -1.00, 81.9, 24.0)">i</text><text xml:space="preserve" font-family="HelveticaNeue-Bold" font-weight="bold" font-size="23.0" fill="#000000" transform="matrix(1.00, 0.00, -0.00, -1.00, 87.8, 24.0)">c</text><text xml:space="preserve" font-family="HelveticaNeue-Bold" font-weight="bold" font-size="23.0" fill="#000000" transform="matrix(1.00, 0.00, -0.00, -1.00, 101.0, 24.0)">r</text><text xml:space="preserve" font-family="HelveticaNeue-Bold" font-weight="bold" font-size="23.0" fill="#000000" transform="matrix(1.00, 0.00, -0.00, -1.00, 109.5, 24.0)">o</text><text xml:space="preserve" font-family="HelveticaNeue-Bold" font-weight="bold" font-size="23.0" fill="#000000" transform="matrix(1.00, 0.00, -0.00, -1.00, 123.6, 24.0)">s</text><text xml:space="preserve" font-family="HelveticaNeue-Bold" font-weight="bold" font-size="23.0" fill="#000000" transform="matrix(1.00, 0.00, -0.00, -1.00, 135.9, 24.0)">e</text><text xml:space="preserve" font-family="HelveticaNeue-Bold" font-weight="bold" font-size="23.0" fill="#000000" transform="matrix(1.00, 0.00, -0.00, -1.00, 149.1, 24.0)">r</text><text xml:space="preserve" font-family="HelveticaNeue-Bold" font-weight="bold" font-size="23.0" fill="#000000" transform="matrix(1.00, 0.00, -0.00, -1.00, 158.1, 24.0)">v</text><text xml:space="preserve" font-family="HelveticaNeue-Bold" font-weight="bold" font-size="23.0" fill="#000000" transform="matrix(1.00, 0.00, -0.00, -1.00, 170.0, 24.0)">i</text><text xml:space="preserve" font-family="HelveticaNeue-Bold" font-weight="bold" font-size="23.0" fill="#000000" transform="matrix(1.00, 0.00, -0.00, -1.00, 176.0, 24.0)">c</text><text xml:space="preserve" font-family="HelveticaNeue-Bold" font-weight="bold" font-size="23.0" fill="#000000" transform="matrix(1.00, 0.00, -0.00, -1.00, 189.2, 24.0)">e</text><text xml:space="preserve" font-family="HelveticaNeue-Bold" font-weight="bold" font-size="23.0" fill="#000000" transform="matrix(1.00, 0.00, -0.00, -1.00, 202.4, 24.0)">s</text><text xml:space="preserve" font-family="HelveticaNeue-Bold" font-weight="bold" font-size="23.0" fill="#000000" transform="matrix(1.00, 0.00, -0.00, -1.00, 214.7, 24.0)"> </text><text xml:space="preserve" font-family="HelveticaNeue-Bold" font-weight="bold" font-size="23.0" fill="#000000" transform="matrix(1.00, 0.00, -0.00, -1.00, 221.1, 24.0)">i</text><text xml:space="preserve" font-family="HelveticaNeue-Bold" font-weight="bold" font-size="23.0" fill="#000000" transform="matrix(1.00, 0.00, -0.00, -1.00, 227.1, 24.0)">n</text><text xml:space="preserve" font-family="HelveticaNeue-Bold" font-weight="bold" font-size="23.0" fill="#000000" transform="matrix(1.00, 0.00, -0.00, -1.00, 240.7, 24.0)"> </text><text xml:space="preserve" font-family="HelveticaNeue-Bold" font-weight="bold" font-size="23.0" fill="#000000" transform="matrix(1.00, 0.00, -0.00, -1.00, 247.1, 24.0)">t</text><text xml:space="preserve" font-family="HelveticaNeue-Bold" font-weight="bold" font-size="23.0" fill="#000000" transform="matrix(1.00, 0.00, -0.00, -1.00, 255.2, 24.0)">h</text><text xml:space="preserve" font-family="HelveticaNeue-Bold" font-weight="bold" font-size="23.0" fill="#000000" transform="matrix(1.00, 0.00, -0.00, -1.00, 268.8, 24.0)">e</text><text xml:space="preserve" font-family="HelveticaNeue-Bold" font-weight="bold" font-size="23.0" fill="#000000" transform="matrix(1.00, 0.00, -0.00, -1.00, 282.0, 24.0)"> </text><text xml:space="preserve" font-family="HelveticaNeue-Bold" font-weight="bold" font-size="23.0" fill="#000000" transform="matrix(1.00, 0.00, -0.00, -1.00, 288.4, 24.0)">W</text><text xml:space="preserve" font-family="HelveticaNeue-Bold" font-weight="bold" font-size="23.0" fill="#000000" transform="matrix(1.00, 0.00, -0.00, -1.00, 310.1, 24.0)">i</text><text xml:space="preserve" font-family="HelveticaNeue-Bold" font-weight="bold" font-size="23.0" fill="#000000" transform="matrix(1.00, 0.00, -0.00, -1.00, 316.1, 24.0)">l</text><text xml:space="preserve" font-family="HelveticaNeue-Bold" font-weight="bold" font-size="23.0" fill="#000000" transform="matrix(1.00, 0.00, -0.00, -1.00, 322.0, 24.0)">d</text><image xlink:href="../../D0517147-4847-4A0F-8B98-32B995C105A1/assets/0BF8E63FE00997E10C4EC11A1CFD77DD.png" width="97.00" height="27.00" transform="matrix(1.00, 0.00, -0.00, -1.00, 1751.0, 44.0)"></image><g><clipPath id="clip-21"><path d="M 1005.4 886.3 L 1920.0 886.3 L 1920.0 999.3 L 1005.4 999.3 Z M 1005.4 886.3 "></path></clipPath><g clip-path="url(#clip-21)"><text xml:space="preserve" font-family="HelveticaNeue-Bold" font-weight="bold" font-size="98.0" fill="#282828" transform="matrix(1.00, 0.00, -0.00, -1.00, 1035.0, 903.0)">B</text><text xml:space="preserve" font-family="HelveticaNeue-Bold" font-weight="bold" font-size="98.0" fill="#282828" transform="matrix(1.00, 0.00, -0.00, -1.00, 1104.0, 903.0)">i</text><text xml:space="preserve" font-family="HelveticaNeue-Bold" font-weight="bold" font-size="98.0" fill="#282828" transform="matrix(1.00, 0.00, -0.00, -1.00, 1129.3, 903.0)">t</text><text xml:space="preserve" font-family="HelveticaNeue-Bold" font-weight="bold" font-size="98.0" fill="#282828" transform="matrix(1.00, 0.00, -0.00, -1.00, 1163.8, 903.0)">e</text><text xml:space="preserve" font-family="HelveticaNeue-Bold" font-weight="bold" font-size="98.0" fill="#282828" transform="matrix(1.00, 0.00, -0.00, -1.00, 1220.0, 903.0)">s</text><text xml:space="preserve" font-family="HelveticaNeue-Bold" font-weight="bold" font-size="98.0" fill="#282828" transform="matrix(1.00, 0.00, -0.00, -1.00, 1272.7, 903.0)">i</text><text xml:space="preserve" font-family="HelveticaNeue-Bold" font-weight="bold" font-size="98.0" fill="#282828" transform="matrix(1.00, 0.00, -0.00, -1.00, 1297.9, 903.0)">z</text><text xml:space="preserve" font-family="HelveticaNeue-Bold" font-weight="bold" font-size="98.0" fill="#282828" transform="matrix(1.00, 0.00, -0.00, -1.00, 1348.8, 903.0)">e</text><text xml:space="preserve" font-family="HelveticaNeue-Bold" font-weight="bold" font-size="98.0" fill="#282828" transform="matrix(1.00, 0.00, -0.00, -1.00, 1405.0, 903.0)"> </text><text xml:space="preserve" font-family="HelveticaNeue-Bold" font-weight="bold" font-size="98.0" fill="#282828" transform="matrix(1.00, 0.00, -0.00, -1.00, 1432.3, 903.0)">w</text><text xml:space="preserve" font-family="HelveticaNeue-Bold" font-weight="bold" font-size="98.0" fill="#282828" transform="matrix(1.00, 0.00, -0.00, -1.00, 1512.1, 903.0)">e</text><text xml:space="preserve" font-family="HelveticaNeue-Bold" font-weight="bold" font-size="98.0" fill="#282828" transform="matrix(1.00, 0.00, -0.00, -1.00, 1568.3, 903.0)">b</text><text xml:space="preserve" font-family="HelveticaNeue-Bold" font-weight="bold" font-size="98.0" fill="#282828" transform="matrix(1.00, 0.00, -0.00, -1.00, 1628.2, 903.0)">s</text><text xml:space="preserve" font-family="HelveticaNeue-Bold" font-weight="bold" font-size="98.0" fill="#282828" transform="matrix(1.00, 0.00, -0.00, -1.00, 1680.8, 903.0)">i</text><text xml:space="preserve" font-family="HelveticaNeue-Bold" font-weight="bold" font-size="98.0" fill="#282828" transform="matrix(1.00, 0.00, -0.00, -1.00, 1706.1, 903.0)">t</text><text xml:space="preserve" font-family="HelveticaNeue-Bold" font-weight="bold" font-size="98.0" fill="#282828" transform="matrix(1.00, 0.00, -0.00, -1.00, 1740.6, 903.0)">e</text></g></g><image xlink:href="../../4FCDDF24-7B85-45A6-9EB9-5F5CA28A8173/assets/F4038B60DB5098E586C693F20A212FA1.png" width="655.00" height="384.00" transform="matrix(1.22, 0.00, -0.00, -1.22, 1000.0, 638.0)"></image><g><clipPath id="clip-22"><path d="M 147.0 165.0 L 970.1 165.0 L 970.1 926.7 L 147.0 926.7 Z M 147.0 165.0 "></path></clipPath><g clip-path="url(#clip-22)"><path d="M 419.8 722.7 L 735.7 722.7 C 741.2 722.7 745.6 718.3 745.6 712.8 L 745.6 178.8 C 745.6 173.4 741.2 168.9 735.7 168.9 L 419.8 168.9 C 414.3 168.9 409.9 173.4 409.9 178.8 L 409.9 712.8 C 409.9 718.3 414.3 722.7 419.8 722.7 Z M 419.8 722.7 " fill="#FEFFFF"></path><path d="M 232.1 246.7 L 391.9 246.7 C 394.6 246.6 396.9 248.9 397.1 251.6 L 397.1 522.2 C 396.9 525.0 394.6 527.2 391.9 527.7 L 231.8 527.7 C 229.0 527.2 226.8 525.0 227.1 522.2 L 227.1 251.6 C 226.8 248.9 229.0 246.6 232.1 246.7 Z M 232.1 246.7 " fill="none" stroke="#236FB9" stroke-width="1.00" stroke-miterlimit="0.00" stroke-linecap="round" stroke-linejoin="round" transform="matrix(1.97, 0.00, 0.00, -1.97, -37.7, 1209.3)"></path><path d="M 475.7 649.0 L 685.4 649.0 C 690.8 649.0 695.2 644.6 695.2 639.1 L 695.2 547.0 C 695.2 541.5 690.8 537.1 685.4 537.1 L 475.7 537.1 C 470.3 537.1 465.9 541.5 465.9 547.0 L 465.9 639.1 C 465.9 644.6 470.3 649.0 475.7 649.0 Z M 475.7 649.0 " fill="#00FCFF"></path><path d="M 260.1 283.7 L 366.3 283.7 C 369.1 284.0 371.3 286.2 372.1 289.0 L 372.1 335.7 C 371.3 338.4 369.1 340.7 366.3 340.7 L 260.1 340.7 C 257.4 340.7 255.1 338.4 255.1 335.7 L 255.1 289.0 C 255.1 286.2 257.4 284.0 260.1 283.7 Z M 260.1 283.7 " fill="none" stroke="#000000" stroke-width="1.00" stroke-miterlimit="0.00" stroke-linecap="round" stroke-linejoin="round" transform="matrix(1.97, 0.00, 0.00, -1.97, -37.7, 1209.3)"></path><text xml:space="preserve" font-family="Helvetica" font-size="12.0" fill="#000000" transform="matrix(1.97, 0.00, -0.00, -1.97, 535.1, 585.2)">F</text><text xml:space="preserve" font-family="Helvetica" font-size="12.0" fill="#000000" transform="matrix(1.97, 0.00, -0.00, -1.97, 549.6, 585.2)">e</text><text xml:space="preserve" font-family="Helvetica" font-size="12.0" fill="#000000" transform="matrix(1.97, 0.00, -0.00, -1.97, 562.8, 585.2)">t</text><text xml:space="preserve" font-family="Helvetica" font-size="12.0" fill="#000000" transform="matrix(1.97, 0.00, -0.00, -1.97, 569.3, 585.2)">c</text><text xml:space="preserve" font-family="Helvetica" font-size="12.0" fill="#000000" transform="matrix(1.97, 0.00, -0.00, -1.97, 581.2, 585.2)">h</text><text xml:space="preserve" font-family="Helvetica" font-size="12.0" fill="#000000" transform="matrix(1.97, 0.00, -0.00, -1.97, 594.4, 585.2)">i</text><text xml:space="preserve" font-family="Helvetica" font-size="12.0" fill="#000000" transform="matrix(1.97, 0.00, -0.00, -1.97, 599.6, 585.2)">n</text><text xml:space="preserve" font-family="Helvetica" font-size="12.0" fill="#000000" transform="matrix(1.97, 0.00, -0.00, -1.97, 612.8, 585.2)">g</text><path d="M 475.7 531.5 L 685.4 531.5 C 690.8 531.5 695.2 527.1 695.2 521.7 L 695.2 429.5 C 695.2 424.1 690.8 419.7 685.4 419.7 L 475.7 419.7 C 470.3 419.7 465.9 424.1 465.9 429.5 L 465.9 521.7 C 465.9 527.1 470.3 531.5 475.7 531.5 Z M 475.7 531.5 " fill="#FF89D8"></path><path d="M 260.1 343.7 L 366.3 343.7 C 369.1 343.5 371.3 345.7 372.1 348.5 L 372.1 395.2 C 371.3 397.9 369.1 400.2 366.3 400.7 L 260.1 400.7 C 257.4 400.2 255.1 397.9 255.1 395.2 L 255.1 348.5 C 255.1 345.7 257.4 343.5 260.1 343.7 Z M 260.1 343.7 " fill="none" stroke="#000000" stroke-width="1.00" stroke-miterlimit="0.00" stroke-linecap="round" stroke-linejoin="round" transform="matrix(1.97, 0.00, 0.00, -1.97, -37.7, 1209.3)"></path><text xml:space="preserve" font-family="Helvetica" font-size="12.0" fill="#000000" transform="matrix(1.97, 0.00, -0.00, -1.97, 516.7, 467.7)">A</text><text xml:space="preserve" font-family="Helvetica" font-size="12.0" fill="#000000" transform="matrix(1.97, 0.00, -0.00, -1.97, 532.5, 467.7)">g</text><text xml:space="preserve" font-family="Helvetica" font-size="12.0" fill="#000000" transform="matrix(1.97, 0.00, -0.00, -1.97, 545.7, 467.7)">g</text><text xml:space="preserve" font-family="Helvetica" font-size="12.0" fill="#000000" transform="matrix(1.97, 0.00, -0.00, -1.97, 558.8, 467.7)">r</text><text xml:space="preserve" font-family="Helvetica" font-size="12.0" fill="#000000" transform="matrix(1.97, 0.00, -0.00, -1.97, 566.7, 467.7)">e</text><text xml:space="preserve" font-family="Helvetica" font-size="12.0" fill="#000000" transform="matrix(1.97, 0.00, -0.00, -1.97, 579.9, 467.7)">g</text><text xml:space="preserve" font-family="Helvetica" font-size="12.0" fill="#000000" transform="matrix(1.97, 0.00, -0.00, -1.97, 593.1, 467.7)">a</text><text xml:space="preserve" font-family="Helvetica" font-size="12.0" fill="#000000" transform="matrix(1.97, 0.00, -0.00, -1.97, 606.3, 467.7)">t</text><text xml:space="preserve" font-family="Helvetica" font-size="12.0" fill="#000000" transform="matrix(1.97, 0.00, -0.00, -1.97, 612.8, 467.7)">i</text><text xml:space="preserve" font-family="Helvetica" font-size="12.0" fill="#000000" transform="matrix(1.97, 0.00, -0.00, -1.97, 618.1, 467.7)">o</text><text xml:space="preserve" font-family="Helvetica" font-size="12.0" fill="#000000" transform="matrix(1.97, 0.00, -0.00, -1.97, 631.3, 467.7)">n</text><path d="M 309.2 823.4 L 309.2 912.9 C 309.2 919.0 333.0 924.1 362.3 924.1 C 391.7 924.1 415.5 919.0 415.5 912.9 L 415.5 823.4 C 415.5 817.2 391.7 812.2 362.3 812.2 C 333.0 812.2 309.2 817.2 309.2 823.4 " fill="#FEFFFF"></path><path d="M 176.1 195.6 L 176.1 150.2 C 175.7 147.1 187.8 144.6 202.7 144.6 C 217.5 144.6 229.6 147.1 230.1 150.2 L 230.1 195.6 C 229.6 198.7 217.5 201.3 202.7 201.3 C 187.8 201.3 175.7 198.7 175.7 195.6 M 175.7 150.2 C 175.7 153.4 187.8 155.9 202.7 155.9 C 217.5 155.9 229.6 153.4 229.6 150.2 " fill="none" stroke="#000000" stroke-width="1.00" stroke-miterlimit="0.00" stroke-linecap="round" stroke-linejoin="round" transform="matrix(1.97, 0.00, 0.00, -1.97, -37.7, 1209.3)"></path><text xml:space="preserve" font-family="Helvetica" font-size="12.0" fill="#000000" transform="matrix(1.97, 0.00, -0.00, -1.97, 339.3, 854.6)">i</text><text xml:space="preserve" font-family="Helvetica" font-size="12.0" fill="#000000" transform="matrix(1.97, 0.00, -0.00, -1.97, 344.6, 854.6)">S</text><text xml:space="preserve" font-family="Helvetica" font-size="12.0" fill="#000000" transform="matrix(1.97, 0.00, -0.00, -1.97, 360.4, 854.6)">i</text><text xml:space="preserve" font-family="Helvetica" font-size="12.0" fill="#000000" transform="matrix(1.97, 0.00, -0.00, -1.97, 365.6, 854.6)">t</text><text xml:space="preserve" font-family="Helvetica" font-size="12.0" fill="#000000" transform="matrix(1.97, 0.00, -0.00, -1.97, 372.2, 854.6)">e</text><path d="M 971.5 703.5 L 971.5 698.6 C 971.5 695.4 968.9 692.7 965.6 692.7 L 965.6 697.6 C 968.9 697.6 971.5 700.3 971.5 703.5 Z M 971.5 703.5 " fill="#414341"></path><path d="M 971.5 703.5 L 971.5 698.6 C 971.5 698.3 971.5 698.0 971.5 697.7 L 971.5 702.7 C 971.5 703.0 971.5 703.2 971.5 703.5 Z M 971.5 703.5 " fill="#414341"></path><path d="M 971.5 702.7 L 971.5 697.7 C 971.4 697.4 971.4 697.1 971.3 696.8 L 971.3 701.7 C 971.4 702.1 971.4 702.4 971.5 702.7 Z M 971.5 702.7 " fill="#414341"></path><path d="M 971.3 701.7 L 971.3 696.8 C 971.1 696.4 971.0 696.1 970.8 695.8 L 970.8 700.7 C 971.0 701.0 971.1 701.4 971.3 701.7 Z M 971.3 701.7 " fill="#414341"></path><path d="M 970.8 700.7 L 970.8 695.8 C 969.8 693.9 967.9 692.7 965.6 692.7 L 965.6 697.6 C 967.9 697.6 969.8 698.9 970.8 700.7 Z M 970.8 700.7 " fill="#414341"></path><path d="M 968.2 698.7 L 965.6 692.7 L 897.0 692.7 L 895.4 698.9 Z M 968.2 698.7 " fill="#414341"></path><path d="M 897.0 697.6 L 897.0 692.7 C 893.7 692.7 891.1 695.4 891.1 698.6 L 891.1 703.5 C 891.1 700.3 893.7 697.6 897.0 697.6 Z M 897.0 697.6 " fill="#414341"></path><path d="M 897.0 697.6 L 897.0 692.7 C 893.7 692.7 891.1 695.4 891.1 698.6 L 891.1 703.5 C 891.1 700.3 893.7 697.6 897.0 697.6 Z M 897.0 697.6 " fill="#414341"></path><path d="M 965.6 802.9 C 968.9 802.9 971.5 800.3 971.5 797.0 L 971.5 703.5 C 971.5 700.3 968.9 697.6 965.6 697.6 L 897.0 697.6 C 893.7 697.6 891.1 700.3 891.1 703.5 L 891.1 797.0 C 891.1 800.3 893.7 802.9 897.0 802.9 Z M 965.6 802.9 " fill="#666967"></path><path d="M 903.4 787.7 L 959.2 787.7 L 959.2 781.1 L 903.4 781.1 Z M 903.4 776.1 L 959.2 776.1 L 959.2 769.5 L 903.4 769.5 Z M 903.4 765.0 L 959.2 765.0 L 959.2 758.5 L 903.4 758.5 Z M 903.4 765.0 " fill="#FFFEFE"></path><text xml:space="preserve" font-family="Helvetica" font-size="12.0" fill="#000000" transform="matrix(1.97, 0.00, -0.00, -1.97, 901.3, 654.6)">A</text><text xml:space="preserve" font-family="Helvetica" font-size="12.0" fill="#000000" transform="matrix(1.97, 0.00, -0.00, -1.97, 917.1, 654.6)">c</text><text xml:space="preserve" font-family="Helvetica" font-size="12.0" fill="#000000" transform="matrix(1.97, 0.00, -0.00, -1.97, 928.9, 654.6)">m</text><text xml:space="preserve" font-family="Helvetica" font-size="12.0" fill="#000000" transform="matrix(1.97, 0.00, -0.00, -1.97, 948.6, 654.6)">e</text><text xml:space="preserve" font-family="HelveticaNeue" font-size="16.0" fill="#000000" transform="matrix(1.97, 0.00, -0.00, -1.97, 513.9, 677.3)">B</text><text xml:space="preserve" font-family="HelveticaNeue" font-size="16.0" fill="#000000" transform="matrix(1.97, 0.00, -0.00, -1.97, 535.5, 677.3)">i</text><text xml:space="preserve" font-family="HelveticaNeue" font-size="16.0" fill="#000000" transform="matrix(1.97, 0.00, -0.00, -1.97, 542.6, 677.3)">t</text><text xml:space="preserve" font-family="HelveticaNeue" font-size="16.0" fill="#000000" transform="matrix(1.97, 0.00, -0.00, -1.97, 552.5, 677.3)">e</text><text xml:space="preserve" font-family="HelveticaNeue" font-size="16.0" fill="#000000" transform="matrix(1.97, 0.00, -0.00, -1.97, 569.5, 677.3)">s</text><text xml:space="preserve" font-family="HelveticaNeue" font-size="16.0" fill="#000000" transform="matrix(1.97, 0.00, -0.00, -1.97, 585.2, 677.3)">i</text><text xml:space="preserve" font-family="HelveticaNeue" font-size="16.0" fill="#000000" transform="matrix(1.97, 0.00, -0.00, -1.97, 592.3, 677.3)">z</text><text xml:space="preserve" font-family="HelveticaNeue" font-size="16.0" fill="#000000" transform="matrix(1.97, 0.00, -0.00, -1.97, 607.4, 677.3)">e</text><path d="M 229.6 189.7 L 311.8 240.9 " fill="none" stroke="#000000" stroke-width="1.00" stroke-miterlimit="0.00" stroke-linecap="round" transform="matrix(1.97, 0.00, 0.00, -1.97, -37.7, 1209.3)"></path><path d="M 734.4 823.4 L 734.4 912.9 C 734.4 919.0 758.2 924.1 787.6 924.1 C 816.9 924.1 840.7 919.0 840.7 912.9 L 840.7 823.4 C 840.7 817.2 816.9 812.2 787.6 812.2 C 758.2 812.2 734.4 817.2 734.4 823.4 " fill="#FEFFFF"></path><path d="M 391.1 195.6 L 391.1 150.2 C 391.2 147.1 403.2 144.6 418.1 144.6 C 433.0 144.6 445.0 147.1 445.1 150.2 L 445.1 195.6 C 445.0 198.7 433.0 201.3 418.1 201.3 C 403.2 201.3 391.2 198.7 391.2 195.6 M 391.2 150.2 C 391.2 153.4 403.2 155.9 418.1 155.9 C 433.0 155.9 445.0 153.4 445.0 150.2 " fill="none" stroke="#000000" stroke-width="1.00" stroke-miterlimit="0.00" stroke-linecap="round" stroke-linejoin="round" transform="matrix(1.97, 0.00, 0.00, -1.97, -37.7, 1209.3)"></path><text xml:space="preserve" font-family="Helvetica" font-size="12.0" fill="#000000" transform="matrix(1.97, 0.00, -0.00, -1.97, 762.6, 854.6)">N</text><text xml:space="preserve" font-family="Helvetica" font-size="12.0" fill="#000000" transform="matrix(1.97, 0.00, -0.00, -1.97, 779.7, 854.6)">i</text><text xml:space="preserve" font-family="Helvetica" font-size="12.0" fill="#000000" transform="matrix(1.97, 0.00, -0.00, -1.97, 784.9, 854.6)">t</text><text xml:space="preserve" font-family="Helvetica" font-size="12.0" fill="#000000" transform="matrix(1.97, 0.00, -0.00, -1.97, 791.5, 854.6)">r</text><text xml:space="preserve" font-family="Helvetica" font-size="12.0" fill="#000000" transform="matrix(1.97, 0.00, -0.00, -1.97, 799.4, 854.6)">o</text><path d="M 391.2 190.1 L 311.8 240.9 " fill="none" stroke="#000000" stroke-width="1.00" stroke-miterlimit="0.00" stroke-linecap="round" transform="matrix(1.97, 0.00, 0.00, -1.97, -37.7, 1209.3)"></path><path d="M 475.7 297.6 L 685.4 297.6 C 690.8 297.6 695.2 293.2 695.2 287.7 L 695.2 195.6 C 695.2 190.1 690.8 185.7 685.4 185.7 L 475.7 185.7 C 470.3 185.7 465.9 190.1 465.9 195.6 L 465.9 287.7 C 465.9 293.2 470.3 297.6 475.7 297.6 Z M 475.7 297.6 " fill="#FFD478"></path><path d="M 260.1 462.7 L 366.3 462.7 C 369.1 462.0 371.3 464.3 372.1 467.0 L 372.1 513.7 C 371.3 516.5 369.1 518.7 366.3 518.7 L 260.1 518.7 C 257.4 518.7 255.1 516.5 255.1 513.7 L 255.1 467.0 C 255.1 464.3 257.4 462.0 260.1 462.7 Z M 260.1 462.7 " fill="none" stroke="#000000" stroke-width="1.00" stroke-miterlimit="0.00" stroke-linecap="round" stroke-linejoin="round" transform="matrix(1.97, 0.00, 0.00, -1.97, -37.7, 1209.3)"></path><text xml:space="preserve" font-family="Helvetica" font-size="12.0" fill="#000000" transform="matrix(1.97, 0.00, -0.00, -1.97, 514.1, 233.8)">P</text><text xml:space="preserve" font-family="Helvetica" font-size="12.0" fill="#000000" transform="matrix(1.97, 0.00, -0.00, -1.97, 529.9, 233.8)">r</text><text xml:space="preserve" font-family="Helvetica" font-size="12.0" fill="#000000" transform="matrix(1.97, 0.00, -0.00, -1.97, 537.7, 233.8)">e</text><text xml:space="preserve" font-family="Helvetica" font-size="12.0" fill="#000000" transform="matrix(1.97, 0.00, -0.00, -1.97, 550.9, 233.8)">s</text><text xml:space="preserve" font-family="Helvetica" font-size="12.0" fill="#000000" transform="matrix(1.97, 0.00, -0.00, -1.97, 562.8, 233.8)">e</text><text xml:space="preserve" font-family="Helvetica" font-size="12.0" fill="#000000" transform="matrix(1.97, 0.00, -0.00, -1.97, 575.9, 233.8)">n</text><text xml:space="preserve" font-family="Helvetica" font-size="12.0" fill="#000000" transform="matrix(1.97, 0.00, -0.00, -1.97, 589.1, 233.8)">t</text><text xml:space="preserve" font-family="Helvetica" font-size="12.0" fill="#000000" transform="matrix(1.97, 0.00, -0.00, -1.97, 595.7, 233.8)">a</text><text xml:space="preserve" font-family="Helvetica" font-size="12.0" fill="#000000" transform="matrix(1.97, 0.00, -0.00, -1.97, 608.9, 233.8)">t</text><text xml:space="preserve" font-family="Helvetica" font-size="12.0" fill="#000000" transform="matrix(1.97, 0.00, -0.00, -1.97, 615.4, 233.8)">i</text><text xml:space="preserve" font-family="Helvetica" font-size="12.0" fill="#000000" transform="matrix(1.97, 0.00, -0.00, -1.97, 620.7, 233.8)">o</text><text xml:space="preserve" font-family="Helvetica" font-size="12.0" fill="#000000" transform="matrix(1.97, 0.00, -0.00, -1.97, 633.9, 233.8)">n</text><path d="M 475.7 415.1 L 685.4 415.1 C 690.8 415.1 695.2 410.6 695.2 405.2 L 695.2 313.1 C 695.2 307.6 690.8 303.2 685.4 303.2 L 475.7 303.2 C 470.3 303.2 465.9 307.6 465.9 313.1 L 465.9 405.2 C 465.9 410.6 470.3 415.1 475.7 415.1 Z M 475.7 415.1 " fill="#D4FB78"></path><path d="M 260.1 402.7 L 366.3 402.7 C 369.1 402.5 371.3 404.8 372.1 407.5 L 372.1 454.2 C 371.3 457.0 369.1 459.2 366.3 459.7 L 260.1 459.7 C 257.4 459.2 255.1 457.0 255.1 454.2 L 255.1 407.5 C 255.1 404.8 257.4 402.5 260.1 402.7 Z M 260.1 402.7 " fill="none" stroke="#000000" stroke-width="1.00" stroke-miterlimit="0.00" stroke-linecap="round" stroke-linejoin="round" transform="matrix(1.97, 0.00, 0.00, -1.97, -37.7, 1209.3)"></path><text xml:space="preserve" font-family="Helvetica" font-size="12.0" fill="#000000" transform="matrix(1.97, 0.00, -0.00, -1.97, 501.3, 351.2)">T</text><text xml:space="preserve" font-family="Helvetica" font-size="12.0" fill="#000000" transform="matrix(1.97, 0.00, -0.00, -1.97, 514.9, 351.2)">r</text><text xml:space="preserve" font-family="Helvetica" font-size="12.0" fill="#000000" transform="matrix(1.97, 0.00, -0.00, -1.97, 522.8, 351.2)">a</text><text xml:space="preserve" font-family="Helvetica" font-size="12.0" fill="#000000" transform="matrix(1.97, 0.00, -0.00, -1.97, 536.0, 351.2)">n</text><text xml:space="preserve" font-family="Helvetica" font-size="12.0" fill="#000000" transform="matrix(1.97, 0.00, -0.00, -1.97, 549.2, 351.2)">s</text><text xml:space="preserve" font-family="Helvetica" font-size="12.0" fill="#000000" transform="matrix(1.97, 0.00, -0.00, -1.97, 561.0, 351.2)">f</text><text xml:space="preserve" font-family="Helvetica" font-size="12.0" fill="#000000" transform="matrix(1.97, 0.00, -0.00, -1.97, 567.6, 351.2)">o</text><text xml:space="preserve" font-family="Helvetica" font-size="12.0" fill="#000000" transform="matrix(1.97, 0.00, -0.00, -1.97, 580.8, 351.2)">r</text><text xml:space="preserve" font-family="Helvetica" font-size="12.0" fill="#000000" transform="matrix(1.97, 0.00, -0.00, -1.97, 588.7, 351.2)">m</text><text xml:space="preserve" font-family="Helvetica" font-size="12.0" fill="#000000" transform="matrix(1.97, 0.00, -0.00, -1.97, 608.4, 351.2)">a</text><text xml:space="preserve" font-family="Helvetica" font-size="12.0" fill="#000000" transform="matrix(1.97, 0.00, -0.00, -1.97, 621.6, 351.2)">t</text><text xml:space="preserve" font-family="Helvetica" font-size="12.0" fill="#000000" transform="matrix(1.97, 0.00, -0.00, -1.97, 628.2, 351.2)">i</text><text xml:space="preserve" font-family="Helvetica" font-size="12.0" fill="#000000" transform="matrix(1.97, 0.00, -0.00, -1.97, 633.4, 351.2)">o</text><text xml:space="preserve" font-family="Helvetica" font-size="12.0" fill="#000000" transform="matrix(1.97, 0.00, -0.00, -1.97, 646.6, 351.2)">n</text><path d="M 258.2 801.0 C 270.9 801.0 281.2 793.0 281.2 783.2 L 281.2 713.2 C 281.2 703.4 270.9 695.4 258.2 695.4 L 170.1 695.4 C 157.3 695.4 147.0 703.4 147.0 713.2 L 147.0 783.2 C 147.0 793.0 157.3 801.0 170.1 801.0 Z M 258.2 801.0 " fill="#E77C3B"></path><text xml:space="preserve" font-family="Helvetica" font-size="12.0" fill="#000000" transform="matrix(1.97, 0.00, -0.00, -1.97, 167.4, 754.1)">E</text><text xml:space="preserve" font-family="Helvetica" font-size="12.0" fill="#000000" transform="matrix(1.97, 0.00, -0.00, -1.97, 183.2, 754.1)">q</text><text xml:space="preserve" font-family="Helvetica" font-size="12.0" fill="#000000" transform="matrix(1.97, 0.00, -0.00, -1.97, 196.3, 754.1)">u</text><text xml:space="preserve" font-family="Helvetica" font-size="12.0" fill="#000000" transform="matrix(1.97, 0.00, -0.00, -1.97, 209.5, 754.1)">a</text><text xml:space="preserve" font-family="Helvetica" font-size="12.0" fill="#000000" transform="matrix(1.97, 0.00, -0.00, -1.97, 222.7, 754.1)">t</text><text xml:space="preserve" font-family="Helvetica" font-size="12.0" fill="#000000" transform="matrix(1.97, 0.00, -0.00, -1.97, 229.3, 754.1)">i</text><text xml:space="preserve" font-family="Helvetica" font-size="12.0" fill="#000000" transform="matrix(1.97, 0.00, -0.00, -1.97, 234.5, 754.1)">o</text><text xml:space="preserve" font-family="Helvetica" font-size="12.0" fill="#000000" transform="matrix(1.97, 0.00, -0.00, -1.97, 247.7, 754.1)">n</text><text xml:space="preserve" font-family="Helvetica" font-size="12.0" fill="#000000" transform="matrix(1.97, 0.00, -0.00, -1.97, 260.9, 754.1)"> </text><text xml:space="preserve" font-family="Helvetica" font-size="12.0" fill="#000000" transform="matrix(1.97, 0.00, -0.00, -1.97, 189.1, 726.5)">C</text><text xml:space="preserve" font-family="Helvetica" font-size="12.0" fill="#000000" transform="matrix(1.97, 0.00, -0.00, -1.97, 206.2, 726.5)">h</text><text xml:space="preserve" font-family="Helvetica" font-size="12.0" fill="#000000" transform="matrix(1.97, 0.00, -0.00, -1.97, 219.4, 726.5)">e</text><text xml:space="preserve" font-family="Helvetica" font-size="12.0" fill="#000000" transform="matrix(1.97, 0.00, -0.00, -1.97, 232.6, 726.5)">f</text><path d="M 281.2 713.2 L 281.2 707.0 C 281.2 697.2 270.9 689.2 258.2 689.2 L 258.2 695.4 C 270.9 695.4 281.2 703.4 281.2 713.2 Z M 281.2 713.2 " fill="#8E4B2A"></path><path d="M 281.2 713.2 L 281.2 707.0 C 281.2 706.1 281.1 705.3 281.0 704.4 L 281.0 710.7 C 281.1 711.5 281.2 712.3 281.2 713.2 Z M 281.2 713.2 " fill="#8E4B2A"></path><path d="M 281.0 710.7 L 281.0 704.4 C 280.8 703.5 280.5 702.5 280.1 701.6 L 280.1 707.8 C 280.5 708.7 280.8 709.7 281.0 710.7 Z M 281.0 710.7 " fill="#8E4B2A"></path><path d="M 280.1 707.8 L 280.1 701.6 C 279.7 700.5 279.1 699.4 278.4 698.4 L 278.4 704.7 C 279.1 705.6 279.7 706.7 280.1 707.8 Z M 280.1 707.8 " fill="#8E4B2A"></path><path d="M 278.4 704.7 L 278.4 698.4 C 274.5 692.9 266.9 689.2 258.2 689.2 L 258.2 695.4 C 266.9 695.4 274.5 699.1 278.4 704.7 Z M 278.4 704.7 " fill="#8E4B2A"></path><path d="M 169.1 695.4 L 258.4 695.4 L 258.4 689.2 L 169.1 689.2 Z M 169.1 695.4 " fill="#8E4B2A"></path><path d="M 170.1 695.4 L 170.1 689.2 C 157.3 689.2 147.0 697.2 147.0 707.0 L 147.0 713.2 C 147.0 703.4 157.3 695.4 170.1 695.4 Z M 170.1 695.4 " fill="#8E4B2A"></path><path d="M 171.0 695.4 L 171.0 689.2 C 158.3 689.2 147.0 697.2 147.0 707.0 L 147.0 713.2 C 147.0 703.4 157.3 695.4 171.0 695.4 Z M 171.0 695.4 " fill="#8E4B2A"></path><path d="M 470.6 234.7 L 311.8 240.9 " fill="none" stroke="#000000" stroke-width="1.00" stroke-miterlimit="0.00" stroke-linecap="round" transform="matrix(1.97, 0.00, 0.00, -1.97, -37.7, 1209.3)"></path><path d="M 161.6 236.2 L 320.9 240.6 " fill="none" stroke="#000000" stroke-width="1.00" stroke-miterlimit="0.00" stroke-linecap="round" transform="matrix(1.97, 0.00, 0.00, -1.97, -37.7, 1209.3)"></path><text xml:space="preserve" font-family="HelveticaNeue" font-size="16.0" fill="#000000" transform="matrix(1.97, 0.00, -0.00, -1.97, 470.6, 861.9)">D</text><text xml:space="preserve" font-family="HelveticaNeue" font-size="16.0" fill="#000000" transform="matrix(1.97, 0.00, -0.00, -1.97, 492.9, 861.9)">a</text><text xml:space="preserve" font-family="HelveticaNeue" font-size="16.0" fill="#000000" transform="matrix(1.97, 0.00, -0.00, -1.97, 509.8, 861.9)">t</text><text xml:space="preserve" font-family="HelveticaNeue" font-size="16.0" fill="#000000" transform="matrix(1.97, 0.00, -0.00, -1.97, 519.8, 861.9)">a</text><text xml:space="preserve" font-family="HelveticaNeue" font-size="16.0" fill="#000000" transform="matrix(1.97, 0.00, -0.00, -1.97, 536.7, 861.9)"> </text><text xml:space="preserve" font-family="HelveticaNeue" font-size="16.0" fill="#000000" transform="matrix(1.97, 0.00, -0.00, -1.97, 545.5, 861.9)">P</text><text xml:space="preserve" font-family="HelveticaNeue" font-size="16.0" fill="#000000" transform="matrix(1.97, 0.00, -0.00, -1.97, 566.0, 861.9)">r</text><text xml:space="preserve" font-family="HelveticaNeue" font-size="16.0" fill="#000000" transform="matrix(1.97, 0.00, -0.00, -1.97, 575.9, 861.9)">o</text><text xml:space="preserve" font-family="HelveticaNeue" font-size="16.0" fill="#000000" transform="matrix(1.97, 0.00, -0.00, -1.97, 594.1, 861.9)">v</text><text xml:space="preserve" font-family="HelveticaNeue" font-size="16.0" fill="#000000" transform="matrix(1.97, 0.00, -0.00, -1.97, 609.8, 861.9)">i</text><text xml:space="preserve" font-family="HelveticaNeue" font-size="16.0" fill="#000000" transform="matrix(1.97, 0.00, -0.00, -1.97, 616.9, 861.9)">d</text><text xml:space="preserve" font-family="HelveticaNeue" font-size="16.0" fill="#000000" transform="matrix(1.97, 0.00, -0.00, -1.97, 635.6, 861.9)">e</text><text xml:space="preserve" font-family="HelveticaNeue" font-size="16.0" fill="#000000" transform="matrix(1.97, 0.00, -0.00, -1.97, 652.5, 861.9)">r</text><text xml:space="preserve" font-family="HelveticaNeue" font-size="16.0" fill="#000000" transform="matrix(1.97, 0.00, -0.00, -1.97, 663.1, 861.9)">s</text></g></g></g></svg>