<?xml version="1.0" encoding="UTF-8" standalone="no"?><svg xmlns="http://www.w3.org/2000/svg" xmlns:xlink="http://www.w3.org/1999/xlink" clip-rule="evenodd" stroke-miterlimit="4.00" viewBox="0 0 1920 1080"><desc>SVG generated by Keynote</desc><defs><radialGradient id="gradSh1.68" cx="0.0" cy="-3.7" r="21.1" fx="0.0" fy="-3.7" gradientUnits="userSpaceOnUse" gradientTransform="matrix(1.67, 0.00, 0.00, -1.67, 328.8, 887.4)"><stop offset="0.00000" stop-color="#FFFFFF"></stop><stop offset="0.00880" stop-color="#FEFEFE"></stop><stop offset="1.00000" stop-color="#AAAAAA"></stop></radialGradient><radialGradient id="gradSh2.69" cx="0.0" cy="0.0" r="12.9" fx="0.0" fy="0.0" gradientUnits="userSpaceOnUse" gradientTransform="matrix(1.67, 0.00, 0.00, -1.67, 328.8, 922.4)"><stop offset="0.00000" stop-color="#FFFFFF"></stop><stop offset="0.01466" stop-color="#FEFEFE"></stop><stop offset="1.00000" stop-color="#CECECE"></stop></radialGradient><radialGradient id="gradSh3.70" cx="0.0" cy="-3.7" r="21.1" fx="0.0" fy="-3.7" gradientUnits="userSpaceOnUse" gradientTransform="matrix(1.67, 0.00, 0.00, -1.67, 1077.8, 108.6)"><stop offset="0.00000" stop-color="#FFFFFF"></stop><stop offset="0.00880" stop-color="#FEFEFE"></stop><stop offset="1.00000" stop-color="#AAAAAA"></stop></radialGradient><radialGradient id="gradSh4.71" cx="0.0" cy="0.0" r="12.9" fx="0.0" fy="0.0" gradientUnits="userSpaceOnUse" gradientTransform="matrix(1.67, 0.00, 0.00, -1.67, 1077.8, 143.6)"><stop offset="0.00000" stop-color="#FFFFFF"></stop><stop offset="0.01466" stop-color="#FEFEFE"></stop><stop offset="1.00000" stop-color="#CECECE"></stop></radialGradient></defs><g transform="matrix(1.00, 0.00, -0.00, -1.00, 0.0, 1080.0)"><path d="M 0.0 1080.0 L 1920.0 1080.0 L 1920.0 0.0 L 0.0 0.0 Z M 0.0 1080.0 " fill="#EEEDED"></path><path d="M 0.0 0.0 L 1836.0 0.0 " fill="none" stroke="#000000" stroke-width="2.00" transform="matrix(1.00, 0.00, 0.00, -1.00, 41.0, 58.0)"></path><text xml:space="preserve" font-family="HelveticaNeue-Bold" font-weight="bold" font-size="23.0" fill="#000000" transform="matrix(1.00, 0.00, -0.00, -1.00, 61.0, 24.0)">S</text><text xml:space="preserve" font-family="HelveticaNeue-Bold" font-weight="bold" font-size="23.0" fill="#000000" transform="matrix(1.00, 0.00, -0.00, -1.00, 75.9, 24.0)">t</text><text xml:space="preserve" font-family="HelveticaNeue-Bold" font-weight="bold" font-size="23.0" fill="#000000" transform="matrix(1.00, 0.00, -0.00, -1.00, 84.0, 24.0)">r</text><text xml:space="preserve" font-family="HelveticaNeue-Bold" font-weight="bold" font-size="23.0" fill="#000000" transform="matrix(1.00, 0.00, -0.00, -1.00, 93.0, 24.0)">a</text><text xml:space="preserve" font-family="HelveticaNeue-Bold" font-weight="bold" font-size="23.0" fill="#000000" transform="matrix(1.00, 0.00, -0.00, -1.00, 106.2, 24.0)">n</text><text xml:space="preserve" font-family="HelveticaNeue-Bold" font-weight="bold" font-size="23.0" fill="#000000" transform="matrix(1.00, 0.00, -0.00, -1.00, 119.8, 24.0)">g</text><text xml:space="preserve" font-family="HelveticaNeue-Bold" font-weight="bold" font-size="23.0" fill="#000000" transform="matrix(1.00, 0.00, -0.00, -1.00, 133.9, 24.0)">l</text><text xml:space="preserve" font-family="HelveticaNeue-Bold" font-weight="bold" font-size="23.0" fill="#000000" transform="matrix(1.00, 0.00, -0.00, -1.00, 139.8, 24.0)">i</text><text xml:space="preserve" font-family="HelveticaNeue-Bold" font-weight="bold" font-size="23.0" fill="#000000" transform="matrix(1.00, 0.00, -0.00, -1.00, 145.7, 24.0)">n</text><text xml:space="preserve" font-family="HelveticaNeue-Bold" font-weight="bold" font-size="23.0" fill="#000000" transform="matrix(1.00, 0.00, -0.00, -1.00, 159.4, 24.0)">g</text><text xml:space="preserve" font-family="HelveticaNeue-Bold" font-weight="bold" font-size="23.0" fill="#000000" transform="matrix(1.00, 0.00, -0.00, -1.00, 173.4, 24.0)"> </text><text xml:space="preserve" font-family="HelveticaNeue-Bold" font-weight="bold" font-size="23.0" fill="#000000" transform="matrix(1.00, 0.00, -0.00, -1.00, 179.8, 24.0)">M</text><text xml:space="preserve" font-family="HelveticaNeue-Bold" font-weight="bold" font-size="23.0" fill="#000000" transform="matrix(1.00, 0.00, -0.00, -1.00, 200.7, 24.0)">o</text><text xml:space="preserve" font-family="HelveticaNeue-Bold" font-weight="bold" font-size="23.0" fill="#000000" transform="matrix(1.00, 0.00, -0.00, -1.00, 214.7, 24.0)">n</text><text xml:space="preserve" font-family="HelveticaNeue-Bold" font-weight="bold" font-size="23.0" fill="#000000" transform="matrix(1.00, 0.00, -0.00, -1.00, 228.4, 24.0)">o</text><text xml:space="preserve" font-family="HelveticaNeue-Bold" font-weight="bold" font-size="23.0" fill="#000000" transform="matrix(1.00, 0.00, -0.00, -1.00, 242.4, 24.0)">l</text><text xml:space="preserve" font-family="HelveticaNeue-Bold" font-weight="bold" font-size="23.0" fill="#000000" transform="matrix(1.00, 0.00, -0.00, -1.00, 248.4, 24.0)">i</text><text xml:space="preserve" font-family="HelveticaNeue-Bold" font-weight="bold" font-size="23.0" fill="#000000" transform="matrix(1.00, 0.00, -0.00, -1.00, 254.3, 24.0)">t</text><text xml:space="preserve" font-family="HelveticaNeue-Bold" font-weight="bold" font-size="23.0" fill="#000000" transform="matrix(1.00, 0.00, -0.00, -1.00, 262.4, 24.0)">h</text><text xml:space="preserve" font-family="HelveticaNeue-Bold" font-weight="bold" font-size="23.0" fill="#000000" transform="matrix(1.00, 0.00, -0.00, -1.00, 276.0, 24.0)">s</text><image xlink:href="../../D0517147-4847-4A0F-8B98-32B995C105A1/assets/0BF8E63FE00997E10C4EC11A1CFD77DD.png" width="97.00" height="27.00" transform="matrix(1.00, 0.00, -0.00, -1.00, 1751.0, 44.0)"></image><g><clipPath id="clip-293"><path d="M 1155.4 886.3 L 1920.0 886.3 L 1920.0 999.3 L 1155.4 999.3 Z M 1155.4 886.3 "></path></clipPath><g clip-path="url(#clip-293)"><text xml:space="preserve" font-family="HelveticaNeue-Bold" font-weight="bold" font-size="98.0" fill="#282828" transform="matrix(1.00, 0.00, -0.00, -1.00, 1185.0, 903.0)">B</text><text xml:space="preserve" font-family="HelveticaNeue-Bold" font-weight="bold" font-size="98.0" fill="#282828" transform="matrix(1.00, 0.00, -0.00, -1.00, 1254.0, 903.0)">i</text><text xml:space="preserve" font-family="HelveticaNeue-Bold" font-weight="bold" font-size="98.0" fill="#282828" transform="matrix(1.00, 0.00, -0.00, -1.00, 1279.3, 903.0)">t</text><text xml:space="preserve" font-family="HelveticaNeue-Bold" font-weight="bold" font-size="98.0" fill="#282828" transform="matrix(1.00, 0.00, -0.00, -1.00, 1313.8, 903.0)">e</text><text xml:space="preserve" font-family="HelveticaNeue-Bold" font-weight="bold" font-size="98.0" fill="#282828" transform="matrix(1.00, 0.00, -0.00, -1.00, 1370.0, 903.0)">s</text><text xml:space="preserve" font-family="HelveticaNeue-Bold" font-weight="bold" font-size="98.0" fill="#282828" transform="matrix(1.00, 0.00, -0.00, -1.00, 1422.7, 903.0)">i</text><text xml:space="preserve" font-family="HelveticaNeue-Bold" font-weight="bold" font-size="98.0" fill="#282828" transform="matrix(1.00, 0.00, -0.00, -1.00, 1447.9, 903.0)">z</text><text xml:space="preserve" font-family="HelveticaNeue-Bold" font-weight="bold" font-size="98.0" fill="#282828" transform="matrix(1.00, 0.00, -0.00, -1.00, 1498.8, 903.0)">e</text><text xml:space="preserve" font-family="HelveticaNeue-Bold" font-weight="bold" font-size="98.0" fill="#282828" transform="matrix(1.00, 0.00, -0.00, -1.00, 1555.0, 903.0)"> </text><text xml:space="preserve" font-family="HelveticaNeue-Bold" font-weight="bold" font-size="98.0" fill="#282828" transform="matrix(1.00, 0.00, -0.00, -1.00, 1582.3, 903.0)">A</text><text xml:space="preserve" font-family="HelveticaNeue-Bold" font-weight="bold" font-size="98.0" fill="#282828" transform="matrix(1.00, 0.00, -0.00, -1.00, 1649.4, 903.0)">p</text><text xml:space="preserve" font-family="HelveticaNeue-Bold" font-weight="bold" font-size="98.0" fill="#282828" transform="matrix(1.00, 0.00, -0.00, -1.00, 1709.3, 903.0)">p</text></g></g><g><clipPath id="clip-294"><path d="M 241.0 72.0 L 1651.6 72.0 L 1651.6 1062.0 L 241.0 1062.0 Z M 241.0 72.0 "></path></clipPath><g clip-path="url(#clip-294)"><image xlink:href="../../0CD926C1-0949-4477-A177-34A15DE1961D/assets/46E6B367EEBBA28048F651224B2DD8EA.png" width="36.00" height="40.00" transform="matrix(1.67, 0.00, -0.00, 1.67, 297.8, 850.0)"></image><image xlink:href="../../0CD926C1-0949-4477-A177-34A15DE1961D/assets/5081C5411022158E79BC6E70E9B250F3.png" width="31.00" height="31.00" transform="matrix(1.67, 0.00, -0.00, 1.67, 302.8, 893.4)"></image><image xlink:href="A1F08E921B767F35FCB989C367941D94.png" width="36.00" height="40.00" transform="matrix(1.67, 0.00, -0.00, 1.67, 1047.3, 72.0)"></image><image xlink:href="../../0CD926C1-0949-4477-A177-34A15DE1961D/assets/D5C9EC94FC65C57FFCEBCC25A851131D.png" width="31.00" height="31.00" transform="matrix(1.67, 0.00, -0.00, 1.67, 1052.3, 113.7)"></image><path d="M 460.0 937.6 L 539.5 937.6 C 548.9 937.6 556.5 913.5 556.5 883.8 C 556.5 854.1 548.9 829.9 539.5 829.9 L 460.0 829.9 C 450.6 829.9 443.0 854.1 443.0 883.8 C 443.0 913.5 450.6 937.6 460.0 937.6 " fill="#FEFFFF"></path><path d="M 246.2 159.5 L 293.8 159.5 C 299.4 159.5 304.0 173.9 304.0 191.8 C 304.0 209.6 299.4 224.0 293.8 224.5 L 246.2 224.5 C 240.6 224.0 236.0 209.6 236.0 191.8 C 236.0 173.9 240.6 159.5 246.2 159.5 " fill="none" stroke="#000000" stroke-width="1.00" stroke-miterlimit="0.00" stroke-linecap="round" stroke-linejoin="round" transform="matrix(1.67, 0.00, 0.00, -1.67, 49.0, 1203.9)"></path><text xml:space="preserve" font-family="Helvetica" font-size="12.0" fill="#000000" transform="matrix(1.67, 0.00, -0.00, -1.67, 472.8, 888.8)">H</text><text xml:space="preserve" font-family="Helvetica" font-size="12.0" fill="#000000" transform="matrix(1.67, 0.00, -0.00, -1.67, 487.3, 888.8)">T</text><text xml:space="preserve" font-family="Helvetica" font-size="12.0" fill="#000000" transform="matrix(1.67, 0.00, -0.00, -1.67, 499.5, 888.8)">M</text><text xml:space="preserve" font-family="Helvetica" font-size="12.0" fill="#000000" transform="matrix(1.67, 0.00, -0.00, -1.67, 516.2, 888.8)">L</text><text xml:space="preserve" font-family="Helvetica" font-size="12.0" fill="#000000" transform="matrix(1.67, 0.00, -0.00, -1.67, 526.6, 888.8)"> </text><text xml:space="preserve" font-family="Helvetica" font-size="12.0" fill="#000000" transform="matrix(1.67, 0.00, -0.00, -1.67, 472.6, 865.4)">V</text><text xml:space="preserve" font-family="Helvetica" font-size="12.0" fill="#000000" transform="matrix(1.67, 0.00, -0.00, -1.67, 485.6, 865.4)">i</text><text xml:space="preserve" font-family="Helvetica" font-size="12.0" fill="#000000" transform="matrix(1.67, 0.00, -0.00, -1.67, 490.1, 865.4)">e</text><text xml:space="preserve" font-family="Helvetica" font-size="12.0" fill="#000000" transform="matrix(1.67, 0.00, -0.00, -1.67, 501.3, 865.4)">w</text><text xml:space="preserve" font-family="Helvetica" font-size="12.0" fill="#000000" transform="matrix(1.67, 0.00, -0.00, -1.67, 515.7, 865.4)">?</text><text xml:space="preserve" font-family="HelveticaNeue" font-size="16.0" fill="#000000" transform="matrix(1.67, 0.00, -0.00, -1.67, 435.5, 1026.9)">F</text><text xml:space="preserve" font-family="HelveticaNeue" font-size="16.0" fill="#000000" transform="matrix(1.67, 0.00, -0.00, -1.67, 450.8, 1026.9)">o</text><text xml:space="preserve" font-family="HelveticaNeue" font-size="16.0" fill="#000000" transform="matrix(1.67, 0.00, -0.00, -1.67, 466.1, 1026.9)">r</text><text xml:space="preserve" font-family="HelveticaNeue" font-size="16.0" fill="#000000" transform="matrix(1.67, 0.00, -0.00, -1.67, 474.3, 1026.9)">g</text><text xml:space="preserve" font-family="HelveticaNeue" font-size="16.0" fill="#000000" transform="matrix(1.67, 0.00, -0.00, -1.67, 489.6, 1026.9)">e</text><text xml:space="preserve" font-family="HelveticaNeue" font-size="16.0" fill="#000000" transform="matrix(1.67, 0.00, -0.00, -1.67, 833.5, 1026.9)">A</text><text xml:space="preserve" font-family="HelveticaNeue" font-size="16.0" fill="#000000" transform="matrix(1.67, 0.00, -0.00, -1.67, 850.2, 1026.9)">W</text><text xml:space="preserve" font-family="HelveticaNeue" font-size="16.0" fill="#000000" transform="matrix(1.67, 0.00, -0.00, -1.67, 874.9, 1026.9)">S</text><path d="M 429.8 99.0 C 429.8 99.0 430.2 305.7 431.9 456.4 C 433.7 607.1 436.0 631.0 436.0 631.0 " fill="none" stroke="#AB3933" stroke-width="1.00" stroke-miterlimit="0.00" stroke-linecap="round" stroke-linejoin="round" stroke-dasharray="4.0, 4.0" transform="matrix(1.67, 0.00, 0.00, -1.67, 49.0, 1203.9)"></path><path d="M 1229.7 886.9 C 1244.1 886.9 1255.7 878.3 1255.7 867.8 L 1255.7 792.5 C 1255.7 781.9 1244.1 773.4 1229.7 773.4 L 1130.1 773.4 C 1115.7 773.4 1104.0 781.9 1104.0 792.5 L 1104.0 867.8 C 1104.0 878.3 1115.7 886.9 1130.1 886.9 Z M 1229.7 886.9 " fill="#E77C3B"></path><text xml:space="preserve" font-family="Helvetica" font-size="12.0" fill="#000000" transform="matrix(1.67, 0.00, -0.00, -1.67, 1144.2, 823.5)">E</text><text xml:space="preserve" font-family="Helvetica" font-size="12.0" fill="#000000" transform="matrix(1.67, 0.00, -0.00, -1.67, 1157.6, 823.5)">i</text><text xml:space="preserve" font-family="Helvetica" font-size="12.0" fill="#000000" transform="matrix(1.67, 0.00, -0.00, -1.67, 1162.0, 823.5)">n</text><text xml:space="preserve" font-family="Helvetica" font-size="12.0" fill="#000000" transform="matrix(1.67, 0.00, -0.00, -1.67, 1173.2, 823.5)">s</text><text xml:space="preserve" font-family="Helvetica" font-size="12.0" fill="#000000" transform="matrix(1.67, 0.00, -0.00, -1.67, 1183.2, 823.5)">t</text><text xml:space="preserve" font-family="Helvetica" font-size="12.0" fill="#000000" transform="matrix(1.67, 0.00, -0.00, -1.67, 1188.8, 823.5)">e</text><text xml:space="preserve" font-family="Helvetica" font-size="12.0" fill="#000000" transform="matrix(1.67, 0.00, -0.00, -1.67, 1199.9, 823.5)">i</text><text xml:space="preserve" font-family="Helvetica" font-size="12.0" fill="#000000" transform="matrix(1.67, 0.00, -0.00, -1.67, 1204.4, 823.5)">n</text><path d="M 1255.7 792.5 L 1255.7 785.8 C 1255.7 775.3 1244.1 766.7 1229.7 766.7 L 1229.7 773.4 C 1244.1 773.4 1255.7 781.9 1255.7 792.5 Z M 1255.7 792.5 " fill="#8E4B2A"></path><path d="M 1255.7 792.5 L 1255.7 785.8 C 1255.7 784.9 1255.6 784.0 1255.4 783.1 L 1255.4 789.8 C 1255.6 790.7 1255.7 791.6 1255.7 792.5 Z M 1255.7 792.5 " fill="#8E4B2A"></path><path d="M 1255.4 789.8 L 1255.4 783.1 C 1255.2 782.0 1254.9 781.0 1254.5 780.0 L 1254.5 786.7 C 1254.9 787.7 1255.2 788.7 1255.4 789.8 Z M 1255.4 789.8 " fill="#8E4B2A"></path><path d="M 1254.5 786.7 L 1254.5 780.0 C 1253.9 778.8 1253.3 777.7 1252.5 776.6 L 1252.5 783.3 C 1253.3 784.4 1253.9 785.5 1254.5 786.7 Z M 1254.5 786.7 " fill="#8E4B2A"></path><path d="M 1252.5 783.3 L 1252.5 776.6 C 1248.1 770.7 1239.5 766.7 1229.7 766.7 L 1229.7 773.4 C 1239.5 773.4 1248.1 777.4 1252.5 783.3 Z M 1252.5 783.3 " fill="#8E4B2A"></path><path d="M 1129.0 773.4 L 1229.9 773.4 L 1229.9 766.7 L 1129.0 766.7 Z M 1129.0 773.4 " fill="#8E4B2A"></path><path d="M 1130.1 773.4 L 1130.1 766.7 C 1115.7 766.7 1104.0 775.3 1104.0 785.8 L 1104.0 792.5 C 1104.0 781.9 1115.7 773.4 1130.1 773.4 Z M 1130.1 773.4 " fill="#8E4B2A"></path><path d="M 1131.2 773.4 L 1131.2 766.7 C 1116.8 766.7 1104.0 775.3 1104.0 785.8 L 1104.0 792.5 C 1104.0 781.9 1115.7 773.4 1131.2 773.4 Z M 1131.2 773.4 " fill="#8E4B2A"></path></g></g><g><clipPath id="clip-295"><path d="M 309.5 875.5 C 309.7 872.6 311.6 869.8 315.1 867.6 C 322.7 863.0 334.9 863.0 342.5 867.6 C 346.0 869.8 347.9 872.6 348.1 875.5 L 348.1 875.5 C 348.1 875.6 348.1 875.7 348.1 875.9 C 348.1 875.9 348.1 875.9 348.1 875.9 C 348.1 876.0 348.1 876.0 348.1 876.1 C 348.1 876.2 348.1 876.3 348.1 876.4 C 347.9 895.4 339.3 910.7 328.8 910.7 C 318.3 910.7 309.7 895.4 309.4 876.4 C 309.4 876.3 309.4 876.2 309.4 876.1 C 309.4 876.0 309.4 876.0 309.4 875.9 C 309.4 875.9 309.4 875.9 309.4 875.9 C 309.4 875.7 309.4 875.6 309.4 875.5 L 309.5 875.5 Z M 309.5 875.5 "></path></clipPath><g clip-path="url(#clip-295)"><g><clipPath id="clip-296"><path d="M 241.0 72.0 L 1651.6 72.0 L 1651.6 1062.0 L 241.0 1062.0 Z M 241.0 72.0 "></path></clipPath><g clip-path="url(#clip-296)"><path d="M 241.0 72.0 L 1651.6 72.0 L 1651.6 1062.0 L 241.0 1062.0 Z M 241.0 72.0 " fill="url(#gradSh1.68)"></path></g></g></g></g><g><clipPath id="clip-297"><path d="M 241.0 72.0 L 1651.6 72.0 L 1651.6 1062.0 L 241.0 1062.0 Z M 241.0 72.0 "></path></clipPath><g clip-path="url(#clip-297)"><path d="M 156.0 197.0 C 156.1 198.4 157.3 200.1 159.4 201.4 C 163.9 204.2 171.3 204.2 175.8 201.4 C 177.9 200.1 179.0 198.4 179.2 197.0 L 179.2 197.0 C 179.2 196.7 179.2 196.6 179.2 196.5 C 179.2 196.5 179.2 196.5 179.2 196.5 C 179.2 196.4 179.2 196.4 179.2 196.4 C 179.2 196.3 179.2 196.2 179.2 196.2 C 179.0 184.8 173.9 175.6 167.6 175.6 C 161.3 175.6 156.2 184.8 156.0 196.2 C 156.0 196.2 156.0 196.3 156.0 196.4 C 156.0 196.4 156.0 196.4 156.0 196.5 C 156.0 196.5 156.0 196.5 156.0 196.5 C 156.0 196.6 156.0 196.7 156.0 197.0 L 156.0 197.0 Z M 156.0 197.0 " fill="none" stroke="#000000" stroke-width="2.00" stroke-miterlimit="0.00" stroke-linecap="round" stroke-linejoin="round" transform="matrix(1.67, 0.00, 0.00, -1.67, 49.0, 1203.9)"></path></g></g><g><clipPath id="clip-298"><path d="M 339.6 933.2 C 345.5 927.2 345.5 917.6 339.6 911.6 C 333.6 905.6 324.0 905.6 318.0 911.6 C 312.1 917.6 312.1 927.2 318.0 933.2 C 324.0 939.1 333.6 939.1 339.6 933.2 "></path></clipPath><g clip-path="url(#clip-298)"><g><clipPath id="clip-299"><path d="M 241.0 72.0 L 1651.6 72.0 L 1651.6 1062.0 L 241.0 1062.0 Z M 241.0 72.0 "></path></clipPath><g clip-path="url(#clip-299)"><path d="M 241.0 72.0 L 1651.6 72.0 L 1651.6 1062.0 L 241.0 1062.0 Z M 241.0 72.0 " fill="url(#gradSh2.69)"></path></g></g></g></g><g><clipPath id="clip-300"><path d="M 241.0 72.0 L 1651.6 72.0 L 1651.6 1062.0 L 241.0 1062.0 Z M 241.0 72.0 "></path></clipPath><g clip-path="url(#clip-300)"><path d="M 174.0 162.2 C 177.6 165.7 177.6 171.5 174.0 175.1 C 170.5 178.7 164.7 178.7 161.1 175.1 C 157.6 171.5 157.6 165.7 161.1 162.2 C 164.7 158.6 170.5 158.6 174.0 162.2 " fill="none" stroke="#000000" stroke-width="2.00" stroke-miterlimit="0.00" stroke-linecap="round" stroke-linejoin="round" transform="matrix(1.67, 0.00, 0.00, -1.67, 49.0, 1203.9)"></path></g></g><g><clipPath id="clip-301"><path d="M 1058.4 96.6 C 1058.7 93.8 1060.6 91.0 1064.1 88.8 C 1071.7 84.2 1083.9 84.2 1091.5 88.8 C 1095.0 91.0 1096.9 93.8 1097.1 96.6 L 1097.1 96.6 C 1097.1 96.8 1097.1 96.9 1097.1 97.1 C 1097.1 97.1 1097.1 97.1 1097.1 97.1 C 1097.1 97.1 1097.1 97.2 1097.1 97.3 C 1097.1 97.4 1097.1 97.5 1097.1 97.6 C 1096.8 116.6 1088.3 131.9 1077.8 131.9 C 1067.3 131.9 1058.7 116.6 1058.4 97.6 C 1058.4 97.5 1058.4 97.4 1058.4 97.3 C 1058.4 97.2 1058.4 97.1 1058.4 97.1 C 1058.4 97.1 1058.4 97.1 1058.4 97.1 C 1058.4 96.9 1058.4 96.8 1058.4 96.6 L 1058.4 96.6 Z M 1058.4 96.6 "></path></clipPath><g clip-path="url(#clip-301)"><g><clipPath id="clip-302"><path d="M 241.0 72.0 L 1651.6 72.0 L 1651.6 1062.0 L 241.0 1062.0 Z M 241.0 72.0 "></path></clipPath><g clip-path="url(#clip-302)"><path d="M 241.0 72.0 L 1651.6 72.0 L 1651.6 1062.0 L 241.0 1062.0 Z M 241.0 72.0 " fill="url(#gradSh3.70)"></path></g></g></g></g><g><clipPath id="clip-303"><path d="M 241.0 72.0 L 1651.6 72.0 L 1651.6 1062.0 L 241.0 1062.0 Z M 241.0 72.0 "></path></clipPath><g clip-path="url(#clip-303)"><path d="M 605.0 663.0 C 604.8 664.9 606.0 666.6 608.1 667.9 C 612.6 670.7 619.9 670.7 624.5 667.9 C 626.6 666.6 627.7 664.9 627.8 663.0 L 627.9 663.0 C 627.9 663.2 627.9 663.1 627.9 663.0 C 627.9 663.0 627.9 663.0 627.9 663.0 C 627.9 662.9 627.9 662.9 627.9 662.9 C 627.9 662.8 627.9 662.7 627.9 662.7 C 627.7 651.3 622.6 642.1 616.3 642.1 C 610.0 642.1 604.8 651.3 604.7 662.7 C 604.7 662.7 604.7 662.8 604.7 662.9 C 604.7 662.9 604.7 662.9 604.7 663.0 C 604.7 663.0 604.7 663.0 604.7 663.0 C 604.7 663.1 604.7 663.2 604.7 663.0 L 605.0 663.0 Z M 605.0 663.0 " fill="none" stroke="#000000" stroke-width="2.00" stroke-miterlimit="0.00" stroke-linecap="round" stroke-linejoin="round" transform="matrix(1.67, 0.00, 0.00, -1.67, 49.0, 1203.9)"></path></g></g><g><clipPath id="clip-304"><path d="M 1088.6 154.3 C 1094.5 148.4 1094.5 138.7 1088.6 132.8 C 1082.6 126.8 1073.0 126.8 1067.0 132.8 C 1061.0 138.7 1061.0 148.4 1067.0 154.3 C 1073.0 160.3 1082.6 160.3 1088.6 154.3 "></path></clipPath><g clip-path="url(#clip-304)"><g><clipPath id="clip-305"><path d="M 241.0 72.0 L 1651.6 72.0 L 1651.6 1062.0 L 241.0 1062.0 Z M 241.0 72.0 "></path></clipPath><g clip-path="url(#clip-305)"><path d="M 241.0 72.0 L 1651.6 72.0 L 1651.6 1062.0 L 241.0 1062.0 Z M 241.0 72.0 " fill="url(#gradSh4.71)"></path></g></g></g></g><g><clipPath id="clip-306"><path d="M 241.0 72.0 L 1651.6 72.0 L 1651.6 1062.0 L 241.0 1062.0 Z M 241.0 72.0 "></path></clipPath><g clip-path="url(#clip-306)"><path d="M 622.7 628.7 C 626.3 632.2 626.3 638.0 622.7 641.6 C 619.2 645.2 613.4 645.2 609.8 641.6 C 606.2 638.0 606.2 632.2 609.8 628.7 C 613.4 625.1 619.2 625.1 622.7 628.7 " fill="none" stroke="#000000" stroke-width="2.00" stroke-miterlimit="0.00" stroke-linecap="round" stroke-linejoin="round" transform="matrix(1.67, 0.00, 0.00, -1.67, 49.0, 1203.9)"></path><path d="M 1108.3 194.5 L 1108.3 190.2 C 1108.3 187.4 1105.9 185.0 1103.0 185.0 L 1103.0 189.3 C 1105.9 189.3 1108.3 191.6 1108.3 194.5 Z M 1108.3 194.5 " fill="#6C706E"></path><path d="M 1108.3 194.5 L 1108.3 190.2 C 1108.3 190.0 1108.2 189.7 1108.2 189.5 L 1108.2 193.7 C 1108.2 194.0 1108.3 194.2 1108.3 194.5 Z M 1108.3 194.5 " fill="#6C706E"></path><path d="M 1108.2 193.7 L 1108.2 189.5 C 1108.2 189.2 1108.1 188.9 1108.0 188.7 L 1108.0 192.9 C 1108.1 193.1 1108.2 193.4 1108.2 193.7 Z M 1108.2 193.7 " fill="#6C706E"></path><path d="M 1108.0 192.9 L 1108.0 188.7 C 1107.9 188.3 1107.8 188.0 1107.6 187.7 L 1107.6 192.0 C 1107.8 192.3 1107.9 192.6 1108.0 192.9 Z M 1108.0 192.9 " fill="#6C706E"></path><path d="M 1107.6 192.0 L 1107.6 187.7 C 1106.7 186.1 1105.0 185.0 1103.0 185.0 L 1103.0 189.3 C 1105.0 189.3 1106.7 190.4 1107.6 192.0 Z M 1107.6 192.0 " fill="#6C706E"></path><path d="M 1104.0 189.8 L 1103.0 185.0 L 1052.5 185.0 L 1051.4 190.4 Z M 1104.0 189.8 " fill="#6C706E"></path><path d="M 1052.5 189.3 L 1052.5 185.0 C 1049.6 185.0 1047.3 187.4 1047.3 190.2 L 1047.3 194.5 C 1047.3 191.6 1049.6 189.3 1052.5 189.3 Z M 1052.5 189.3 " fill="#6C706E"></path><path d="M 1052.5 189.3 L 1052.5 185.0 C 1049.6 185.0 1047.3 187.4 1047.3 190.2 L 1047.3 194.5 C 1047.3 191.6 1049.6 189.3 1052.5 189.3 Z M 1052.5 189.3 " fill="#6C706E"></path><path d="M 1103.0 279.0 C 1105.9 279.0 1108.3 276.7 1108.3 273.8 L 1108.3 194.5 C 1108.3 191.6 1105.9 189.3 1103.0 189.3 L 1052.5 189.3 C 1049.6 189.3 1047.3 191.6 1047.3 194.5 L 1047.3 273.8 C 1047.3 276.7 1049.6 279.0 1052.5 279.0 Z M 1103.0 279.0 " fill="#BFBFBC"></path><path d="M 1102.3 210.6 C 1102.3 208.8 1100.8 207.5 1098.9 207.5 L 1056.6 207.5 C 1054.7 207.5 1053.1 208.8 1053.1 210.6 L 1053.1 257.8 C 1053.1 259.5 1054.7 260.9 1056.6 260.9 L 1098.9 260.9 C 1100.8 260.9 1102.3 259.5 1102.3 257.8 L 1102.3 210.6 Z M 1077.7 191.6 C 1074.4 191.6 1071.8 194.3 1071.8 197.5 C 1071.8 200.8 1074.4 203.5 1077.7 203.5 C 1081.0 203.5 1083.7 200.8 1083.7 197.5 C 1083.7 194.3 1081.0 191.6 1077.7 191.6 Z M 1062.5 273.3 L 1092.9 273.3 C 1094.8 273.3 1096.3 271.7 1096.3 269.9 C 1096.3 268.0 1094.8 266.5 1092.9 266.5 L 1062.5 266.5 C 1060.7 266.5 1059.1 268.0 1059.1 269.9 C 1059.1 271.7 1060.7 273.3 1062.5 273.3 " fill="#FFFEFE"></path><path d="M 299.8 640.5 C 299.0 640.3 298.1 640.1 297.2 639.9 C 296.7 639.8 296.2 639.7 299.8 640.5 Z M 299.8 640.5 " fill="#20405E"></path><path d="M 297.6 711.0 C 309.3 711.0 319.3 710.1 327.4 708.7 C 345.0 705.7 354.3 700.5 354.3 697.3 C 354.3 694.1 345.0 688.9 327.4 685.9 C 319.3 684.5 309.3 683.6 297.6 683.6 C 261.0 683.6 241.0 692.7 241.0 697.3 C 241.0 701.9 261.0 711.0 297.6 711.0 Z M 297.6 711.0 " fill="#666967"></path><path d="M 354.3 697.3 L 354.3 690.4 C 354.3 687.2 345.0 682.0 327.4 679.0 C 319.3 677.6 309.3 676.6 297.6 676.6 C 261.0 676.6 241.0 685.7 241.0 690.4 L 241.0 697.3 C 241.0 692.7 261.0 683.6 297.6 683.6 C 309.3 683.6 319.3 684.5 327.4 685.9 C 345.0 688.9 354.3 694.1 354.3 697.3 Z M 354.3 697.3 " fill="#414341"></path><path d="M 354.3 697.3 L 354.3 690.4 C 354.3 690.3 354.3 690.2 354.3 690.1 L 354.3 697.0 C 354.3 697.1 354.3 697.2 354.3 697.3 Z M 354.3 697.3 " fill="#414341"></path><path d="M 354.3 697.0 L 354.3 690.1 C 354.3 690.0 354.3 689.8 354.2 689.7 L 354.2 696.6 C 354.3 696.8 354.3 696.9 354.3 697.0 Z M 354.3 697.0 " fill="#414341"></path><path d="M 354.2 696.6 L 354.2 689.7 C 354.1 689.5 354.0 689.3 353.9 689.1 L 353.9 696.0 C 354.0 696.2 354.1 696.4 354.2 696.6 Z M 354.2 696.6 " fill="#414341"></path><path d="M 353.9 696.0 L 353.9 689.1 C 351.9 685.9 342.8 681.6 327.4 679.0 C 319.3 677.6 309.3 676.6 297.6 676.6 C 261.0 676.6 241.0 685.7 241.0 690.4 L 241.0 697.3 C 241.0 692.7 261.0 683.6 297.6 683.6 C 309.3 683.6 319.3 684.5 327.4 685.9 C 342.8 688.5 351.9 692.9 353.9 696.0 Z M 353.9 696.0 " fill="#414341"></path><path d="M 354.2 593.0 C 354.4 593.3 354.4 593.6 354.4 593.9 L 354.4 582.7 C 354.4 582.6 354.4 582.4 354.4 582.3 C 354.4 582.1 354.3 582.0 354.3 581.8 L 354.2 581.8 L 354.2 581.7 C 354.1 581.5 354.0 581.3 353.9 581.1 C 353.9 581.0 353.8 581.0 353.8 580.9 C 353.7 580.8 353.6 580.6 353.4 580.5 C 353.3 580.3 353.1 580.1 352.9 579.9 C 352.8 579.7 352.6 579.6 352.4 579.4 C 352.2 579.2 352.0 579.0 351.7 578.9 C 351.5 578.7 351.3 578.5 351.1 578.4 C 350.8 578.2 350.5 578.0 350.2 577.8 C 349.9 577.6 349.6 577.4 349.4 577.3 C 349.0 577.1 348.6 576.9 348.2 576.7 C 347.9 576.5 347.6 576.4 347.3 576.2 C 346.8 576.0 346.2 575.8 345.7 575.5 C 345.4 575.4 345.1 575.3 344.8 575.1 C 343.9 574.8 343.0 574.5 342.0 574.1 C 341.6 574.0 341.3 573.9 340.9 573.8 C 340.2 573.6 339.5 573.4 338.7 573.2 C 338.2 573.0 337.7 572.9 337.2 572.8 C 336.5 572.6 335.8 572.4 335.0 572.3 C 334.5 572.1 333.9 572.0 333.3 571.9 C 332.5 571.7 331.7 571.6 330.9 571.4 C 330.3 571.3 329.6 571.2 329.0 571.1 C 328.1 571.0 327.3 570.8 326.3 570.7 C 325.7 570.6 325.0 570.5 324.3 570.4 C 323.3 570.3 322.3 570.2 321.3 570.1 C 320.6 570.0 319.9 569.9 319.1 569.9 C 318.0 569.8 316.9 569.7 315.8 569.6 C 315.0 569.5 314.3 569.5 313.5 569.4 C 312.2 569.4 310.9 569.3 309.5 569.3 C 308.9 569.2 308.2 569.2 307.5 569.2 C 305.4 569.1 303.3 569.1 301.0 569.1 C 280.4 569.1 264.8 571.6 254.6 574.7 C 247.1 577.3 241.7 580.1 241.1 582.3 L 241.1 593.5 C 241.6 591.5 246.4 588.9 253.1 586.5 L 253.0 587.2 C 263.1 584.0 280.4 580.3 301.0 580.3 C 303.3 580.3 305.4 580.3 307.5 580.4 C 308.2 580.4 308.8 580.4 309.5 580.5 C 310.9 580.5 312.2 580.6 313.5 580.6 C 314.3 580.7 315.0 580.7 315.7 580.8 C 316.9 580.9 318.0 581.0 319.1 581.1 C 319.9 581.1 320.6 581.2 321.3 581.3 C 322.3 581.4 323.3 581.5 324.3 581.6 C 325.0 581.7 325.6 581.8 326.3 581.9 C 327.2 582.0 328.2 582.2 329.1 582.3 L 341.9 585.3 C 343.0 585.7 343.9 586.0 344.9 586.4 L 347.3 587.4 C 347.5 587.5 347.7 587.6 347.9 587.7 C 348.5 588.0 349.0 588.3 349.4 588.5 C 349.6 588.6 349.8 588.8 350.0 588.9 C 350.4 589.1 350.8 589.4 351.1 589.6 C 351.3 589.7 351.5 589.9 351.7 590.0 C 352.0 590.2 352.2 590.5 352.5 590.7 C 352.6 590.8 352.8 590.9 352.9 591.1 C 353.1 591.3 353.3 591.5 353.5 591.7 C 353.6 591.8 353.7 592.0 353.8 592.1 Z M 354.2 593.0 " fill="#414341"></path><path d="M 326.8 674.8 C 325.2 674.5 323.6 674.3 322.1 674.0 C 321.3 673.9 320.5 673.8 319.6 673.7 C 318.2 673.5 316.7 673.4 315.2 673.3 C 314.3 673.2 313.3 673.1 312.3 673.0 C 310.5 672.9 308.5 672.8 306.6 672.7 L 305.6 672.7 C 303.4 672.6 301.1 672.5 298.8 672.5 C 298.3 672.5 297.8 672.5 297.3 672.5 C 274.8 672.5 252.1 676.2 241.1 683.3 L 241.1 589.2 C 241.7 587.1 247.0 584.2 254.5 581.7 C 264.7 578.6 280.3 576.0 301.0 576.0 C 338.7 576.0 354.4 584.9 354.4 589.6 L 354.5 684.2 C 348.6 680.2 339.1 676.8 326.8 674.8 Z M 326.8 674.8 " fill="#666967"></path><text xml:space="preserve" font-family="Helvetica" font-size="12.0" fill="#000000" transform="matrix(1.67, 0.00, -0.00, -1.67, 278.3, 623.4)">L</text><text xml:space="preserve" font-family="Helvetica" font-size="12.0" fill="#000000" transform="matrix(1.67, 0.00, -0.00, -1.67, 289.5, 623.4)">D</text><text xml:space="preserve" font-family="Helvetica" font-size="12.0" fill="#000000" transform="matrix(1.67, 0.00, -0.00, -1.67, 303.9, 623.4)">P</text><path d="M 502.1 332.3 L 183.0 337.2 " fill="none" stroke="#000000" stroke-width="1.00" stroke-miterlimit="0.00" stroke-linecap="round" stroke-linejoin="round" transform="matrix(1.67, 0.00, 0.00, -1.67, 49.0, 1203.9)"></path><path d="M 900.5 649.3 L 887.1 654.1 L 887.3 644.1 Z M 900.5 649.3 " fill="#000000"></path><path d="M 510.1 332.2 L 502.1 329.3 L 502.1 335.3 Z M 510.1 332.2 " fill="none" stroke="#000000" stroke-width="1.00" stroke-miterlimit="0.00" transform="matrix(1.67, 0.00, 0.00, -1.67, 49.0, 1203.9)"></path><path d="M 622.8 544.2 L 671.2 261.9 " fill="none" stroke="#000000" stroke-width="1.00" stroke-miterlimit="0.00" stroke-linecap="round" stroke-linejoin="round" transform="matrix(1.67, 0.00, 0.00, -1.67, 49.0, 1203.9)"></path><path d="M 1086.4 282.1 L 1093.6 294.5 L 1083.7 296.2 Z M 1086.4 282.1 " fill="#000000"></path><path d="M 621.4 552.1 L 625.7 544.8 L 619.8 543.7 Z M 621.4 552.1 " fill="none" stroke="#000000" stroke-width="1.00" stroke-miterlimit="0.00" transform="matrix(1.67, 0.00, 0.00, -1.67, 49.0, 1203.9)"></path><text xml:space="preserve" font-family="HelveticaNeue" font-size="12.0" fill="#000000" transform="matrix(1.67, 0.00, -0.00, -1.67, 558.0, 657.2)">G</text><text xml:space="preserve" font-family="HelveticaNeue" font-size="12.0" fill="#000000" transform="matrix(1.67, 0.00, -0.00, -1.67, 573.2, 657.2)">E</text><text xml:space="preserve" font-family="HelveticaNeue" font-size="12.0" fill="#000000" transform="matrix(1.67, 0.00, -0.00, -1.67, 585.5, 657.2)">T</text><text xml:space="preserve" font-family="HelveticaNeue" font-size="12.0" fill="#000000" transform="matrix(1.67, 0.00, -0.00, -1.67, 1056.2, 505.2)">G</text><text xml:space="preserve" font-family="HelveticaNeue" font-size="12.0" fill="#000000" transform="matrix(1.67, 0.00, -0.00, -1.67, 1071.4, 505.2)">E</text><text xml:space="preserve" font-family="HelveticaNeue" font-size="12.0" fill="#000000" transform="matrix(1.67, 0.00, -0.00, -1.67, 1083.6, 505.2)">T</text><path d="M 1637.9 435.9 C 1646.2 435.9 1653.0 429.2 1653.0 420.9 L 1653.0 361.7 C 1653.0 353.4 1646.2 346.6 1637.9 346.6 L 1579.9 346.6 C 1571.6 346.6 1564.8 353.4 1564.8 361.7 L 1564.8 420.9 C 1564.8 429.2 1571.6 435.9 1579.9 435.9 Z M 1637.9 435.9 " fill="#E77C3B"></path><text xml:space="preserve" font-family="Helvetica" font-size="12.0" fill="#000000" transform="matrix(1.67, 0.00, -0.00, -1.67, 1588.3, 384.6)">U</text><text xml:space="preserve" font-family="Helvetica" font-size="12.0" fill="#000000" transform="matrix(1.67, 0.00, -0.00, -1.67, 1602.8, 384.6)">A</text><text xml:space="preserve" font-family="Helvetica" font-size="12.0" fill="#000000" transform="matrix(1.67, 0.00, -0.00, -1.67, 1616.1, 384.6)">S</text><path d="M 1653.0 361.7 L 1653.0 356.4 C 1653.0 348.1 1646.2 341.4 1637.9 341.4 L 1637.9 346.6 C 1646.2 346.6 1653.0 353.4 1653.0 361.7 Z M 1653.0 361.7 " fill="#8E4B2A"></path><path d="M 1653.0 361.7 L 1653.0 356.4 C 1653.0 355.7 1652.9 355.0 1652.8 354.3 L 1652.8 359.5 C 1652.9 360.2 1653.0 360.9 1653.0 361.7 Z M 1653.0 361.7 " fill="#8E4B2A"></path><path d="M 1652.8 359.5 L 1652.8 354.3 C 1652.7 353.4 1652.5 352.6 1652.3 351.8 L 1652.3 357.1 C 1652.5 357.9 1652.7 358.7 1652.8 359.5 Z M 1652.8 359.5 " fill="#8E4B2A"></path><path d="M 1652.3 357.1 L 1652.3 351.8 C 1652.0 350.9 1651.6 350.0 1651.1 349.2 L 1651.1 354.4 C 1651.6 355.3 1652.0 356.1 1652.3 357.1 Z M 1652.3 357.1 " fill="#8E4B2A"></path><path d="M 1651.1 354.4 L 1651.1 349.2 C 1648.6 344.5 1643.6 341.4 1637.9 341.4 L 1637.9 346.6 C 1643.6 346.6 1648.6 349.8 1651.1 354.4 Z M 1651.1 354.4 " fill="#8E4B2A"></path><path d="M 1579.3 346.6 L 1638.0 346.6 L 1638.0 341.4 L 1579.3 341.4 Z M 1579.3 346.6 " fill="#8E4B2A"></path><path d="M 1579.9 346.6 L 1579.9 341.4 C 1571.6 341.4 1564.8 348.1 1564.8 356.4 L 1564.8 361.7 C 1564.8 353.4 1571.6 346.6 1579.9 346.6 Z M 1579.9 346.6 " fill="#8E4B2A"></path><path d="M 1580.6 346.6 L 1580.6 341.4 C 1572.2 341.4 1564.8 348.1 1564.8 356.4 L 1564.8 361.7 C 1564.8 353.4 1571.6 346.6 1580.6 346.6 Z M 1580.6 346.6 " fill="#8E4B2A"></path><path d="M 634.5 576.8 L 898.5 498.9 " fill="none" stroke="#000000" stroke-width="1.00" stroke-miterlimit="0.00" stroke-linecap="round" stroke-linejoin="round" transform="matrix(1.67, 0.00, 0.00, -1.67, 49.0, 1203.9)"></path><path d="M 1561.7 374.8 L 1547.5 375.8 L 1550.3 366.2 Z M 1561.7 374.8 " fill="#000000"></path><path d="M 906.2 496.7 L 897.7 496.0 L 899.4 501.8 Z M 906.2 496.7 " fill="none" stroke="#000000" stroke-width="1.00" stroke-miterlimit="0.00" transform="matrix(1.67, 0.00, 0.00, -1.67, 49.0, 1203.9)"></path><text xml:space="preserve" font-family="HelveticaNeue" font-size="12.0" fill="#000000" transform="matrix(1.67, 0.00, -0.00, -1.67, 1409.9, 385.0)">P</text><text xml:space="preserve" font-family="HelveticaNeue" font-size="12.0" fill="#000000" transform="matrix(1.67, 0.00, -0.00, -1.67, 1422.9, 385.0)">U</text><text xml:space="preserve" font-family="HelveticaNeue" font-size="12.0" fill="#000000" transform="matrix(1.67, 0.00, -0.00, -1.67, 1437.4, 385.0)">T</text><path d="M 1360.6 611.0 C 1368.9 611.0 1375.7 604.2 1375.7 595.9 L 1375.7 536.7 C 1375.7 528.4 1368.9 521.6 1360.6 521.6 L 1302.6 521.6 C 1294.3 521.6 1287.5 528.4 1287.5 536.7 L 1287.5 595.9 C 1287.5 604.2 1294.3 611.0 1302.6 611.0 Z M 1360.6 611.0 " fill="#E77C3B"></path><text xml:space="preserve" font-family="Helvetica" font-size="12.0" fill="#000000" transform="matrix(1.67, 0.00, -0.00, -1.67, 1297.6, 559.6)">N</text><text xml:space="preserve" font-family="Helvetica" font-size="12.0" fill="#000000" transform="matrix(1.67, 0.00, -0.00, -1.67, 1312.1, 559.6)">e</text><text xml:space="preserve" font-family="Helvetica" font-size="12.0" fill="#000000" transform="matrix(1.67, 0.00, -0.00, -1.67, 1323.3, 559.6)">w</text><text xml:space="preserve" font-family="Helvetica" font-size="12.0" fill="#000000" transform="matrix(1.67, 0.00, -0.00, -1.67, 1337.7, 559.6)">t</text><text xml:space="preserve" font-family="Helvetica" font-size="12.0" fill="#000000" transform="matrix(1.67, 0.00, -0.00, -1.67, 1343.3, 559.6)">o</text><text xml:space="preserve" font-family="Helvetica" font-size="12.0" fill="#000000" transform="matrix(1.67, 0.00, -0.00, -1.67, 1354.4, 559.6)">n</text><path d="M 1375.7 536.7 L 1375.7 531.4 C 1375.7 523.1 1368.9 516.4 1360.6 516.4 L 1360.6 521.6 C 1368.9 521.6 1375.7 528.4 1375.7 536.7 Z M 1375.7 536.7 " fill="#8E4B2A"></path><path d="M 1375.7 536.7 L 1375.7 531.4 C 1375.7 530.7 1375.7 530.0 1375.6 529.3 L 1375.6 534.5 C 1375.7 535.2 1375.7 535.9 1375.7 536.7 Z M 1375.7 536.7 " fill="#8E4B2A"></path><path d="M 1375.6 534.5 L 1375.6 529.3 C 1375.4 528.4 1375.2 527.6 1375.0 526.8 L 1375.0 532.1 C 1375.2 532.9 1375.4 533.7 1375.6 534.5 Z M 1375.6 534.5 " fill="#8E4B2A"></path><path d="M 1375.0 532.1 L 1375.0 526.8 C 1374.7 525.9 1374.3 525.0 1373.8 524.2 L 1373.8 529.4 C 1374.3 530.3 1374.7 531.2 1375.0 532.1 Z M 1375.0 532.1 " fill="#8E4B2A"></path><path d="M 1373.8 529.4 L 1373.8 524.2 C 1371.3 519.5 1366.3 516.4 1360.6 516.4 L 1360.6 521.6 C 1366.3 521.6 1371.3 524.8 1373.8 529.4 Z M 1373.8 529.4 " fill="#8E4B2A"></path><path d="M 1302.0 521.6 L 1360.7 521.6 L 1360.7 516.4 L 1302.0 516.4 Z M 1302.0 521.6 " fill="#8E4B2A"></path><path d="M 1302.6 521.6 L 1302.6 516.4 C 1294.3 516.4 1287.5 523.1 1287.5 531.4 L 1287.5 536.7 C 1287.5 528.4 1294.3 521.6 1302.6 521.6 Z M 1302.6 521.6 " fill="#8E4B2A"></path><path d="M 1303.3 521.6 L 1303.3 516.4 C 1294.9 516.4 1287.5 523.1 1287.5 531.4 L 1287.5 536.7 C 1287.5 528.4 1294.3 521.6 1303.3 521.6 Z M 1303.3 521.6 " fill="#8E4B2A"></path><path d="M 746.6 411.8 L 640.6 550.4 " fill="none" stroke="#000000" stroke-width="1.00" stroke-miterlimit="0.00" stroke-linecap="round" stroke-linejoin="round" transform="matrix(1.67, 0.00, 0.00, -1.67, 49.0, 1203.9)"></path><path d="M 1110.2 274.4 L 1122.3 281.9 L 1114.3 288.0 Z M 1110.2 274.4 " fill="#000000"></path><path d="M 635.7 556.8 L 642.9 552.2 L 638.2 548.6 Z M 635.7 556.8 " fill="none" stroke="#000000" stroke-width="1.00" stroke-miterlimit="0.00" transform="matrix(1.67, 0.00, 0.00, -1.67, 49.0, 1203.9)"></path><text xml:space="preserve" font-family="HelveticaNeue" font-size="12.0" fill="#000000" transform="matrix(1.67, 0.00, -0.00, -1.67, 1261.3, 450.1)">G</text><text xml:space="preserve" font-family="HelveticaNeue" font-size="12.0" fill="#000000" transform="matrix(1.67, 0.00, -0.00, -1.67, 1276.5, 450.1)">E</text><text xml:space="preserve" font-family="HelveticaNeue" font-size="12.0" fill="#000000" transform="matrix(1.67, 0.00, -0.00, -1.67, 1288.8, 450.1)">T</text><path d="M 908.0 471.7 L 803.1 405.5 " fill="none" stroke="#000000" stroke-width="1.00" stroke-miterlimit="0.00" stroke-linecap="round" stroke-linejoin="round" transform="matrix(1.67, 0.00, 0.00, -1.67, 49.0, 1203.9)"></path><path d="M 1378.4 534.1 L 1387.0 522.8 L 1392.4 531.2 Z M 1378.4 534.1 " fill="#000000"></path><path d="M 796.3 401.2 L 801.5 408.0 L 804.7 402.9 Z M 796.3 401.2 " fill="none" stroke="#000000" stroke-width="1.00" stroke-miterlimit="0.00" transform="matrix(1.67, 0.00, 0.00, -1.67, 49.0, 1203.9)"></path><text xml:space="preserve" font-family="HelveticaNeue" font-size="12.0" fill="#000000" transform="matrix(1.67, 0.00, -0.00, -1.67, 1197.6, 643.4)">G</text><text xml:space="preserve" font-family="HelveticaNeue" font-size="12.0" fill="#000000" transform="matrix(1.67, 0.00, -0.00, -1.67, 1212.8, 643.4)">E</text><text xml:space="preserve" font-family="HelveticaNeue" font-size="12.0" fill="#000000" transform="matrix(1.67, 0.00, -0.00, -1.67, 1225.1, 643.4)">T</text><path d="M 698.2 261.9 L 747.0 346.6 " fill="none" stroke="#000000" stroke-width="1.00" stroke-miterlimit="0.00" stroke-linecap="round" stroke-linejoin="round" transform="matrix(1.67, 0.00, 0.00, -1.67, 49.0, 1203.9)"></path><path d="M 1302.7 613.7 L 1300.4 627.8 L 1291.7 622.8 Z M 1302.7 613.7 " fill="#000000"></path><path d="M 751.0 353.5 L 749.6 345.1 L 744.4 348.1 Z M 751.0 353.5 " fill="none" stroke="#000000" stroke-width="1.00" stroke-miterlimit="0.00" transform="matrix(1.67, 0.00, 0.00, -1.67, 49.0, 1203.9)"></path><text xml:space="preserve" font-family="HelveticaNeue" font-size="12.0" fill="#000000" transform="matrix(1.67, 0.00, -0.00, -1.67, 1470.0, 513.6)">G</text><text xml:space="preserve" font-family="HelveticaNeue" font-size="12.0" fill="#000000" transform="matrix(1.67, 0.00, -0.00, -1.67, 1485.2, 513.6)">E</text><text xml:space="preserve" font-family="HelveticaNeue" font-size="12.0" fill="#000000" transform="matrix(1.67, 0.00, -0.00, -1.67, 1497.5, 513.6)">T</text><path d="M 313.8 195.4 L 632.0 222.1 " fill="none" stroke="#181818" stroke-width="1.00" stroke-miterlimit="0.00" stroke-linecap="round" stroke-linejoin="round" stroke-dasharray="4.0, 4.0" transform="matrix(1.67, 0.00, 0.00, -1.67, 49.0, 1203.9)"></path><path d="M 559.6 878.8 L 572.5 872.7 L 573.3 882.6 Z M 559.6 878.8 " fill="#181818"></path><path d="M 305.9 194.8 L 313.6 198.4 L 314.1 192.4 Z M 305.9 194.8 " fill="none" stroke="#181818" stroke-width="1.00" stroke-miterlimit="0.00" transform="matrix(1.67, 0.00, 0.00, -1.67, 49.0, 1203.9)"></path><path d="M 944.0 412.6 C 952.4 412.6 959.1 405.8 959.1 397.5 L 959.1 338.3 C 959.1 330.0 952.4 323.2 944.0 323.2 L 886.1 323.2 C 877.7 323.2 870.9 330.0 870.9 338.3 L 870.9 397.5 C 870.9 405.8 877.7 412.6 886.1 412.6 Z M 944.0 412.6 " fill="#E77C3B"></path><text xml:space="preserve" font-family="Helvetica" font-size="12.0" fill="#000000" transform="matrix(1.67, 0.00, -0.00, -1.67, 893.3, 361.2)">B</text><text xml:space="preserve" font-family="Helvetica" font-size="12.0" fill="#000000" transform="matrix(1.67, 0.00, -0.00, -1.67, 906.7, 361.2)">A</text><text xml:space="preserve" font-family="Helvetica" font-size="12.0" fill="#000000" transform="matrix(1.67, 0.00, -0.00, -1.67, 920.0, 361.2)">M</text><path d="M 959.1 338.3 L 959.1 333.0 C 959.1 324.7 952.4 318.0 944.0 318.0 L 944.0 323.2 C 952.4 323.2 959.1 330.0 959.1 338.3 Z M 959.1 338.3 " fill="#8E4B2A"></path><path d="M 959.1 338.3 L 959.1 333.0 C 959.1 332.3 959.1 331.6 959.0 330.9 L 959.0 336.1 C 959.1 336.8 959.1 337.6 959.1 338.3 Z M 959.1 338.3 " fill="#8E4B2A"></path><path d="M 959.0 336.1 L 959.0 330.9 C 958.8 330.0 958.7 329.2 958.4 328.5 L 958.4 333.7 C 958.7 334.5 958.8 335.3 959.0 336.1 Z M 959.0 336.1 " fill="#8E4B2A"></path><path d="M 958.4 333.7 L 958.4 328.5 C 958.1 327.5 957.7 326.6 957.3 325.8 L 957.3 331.1 C 957.7 331.9 958.1 332.8 958.4 333.7 Z M 958.4 333.7 " fill="#8E4B2A"></path><path d="M 957.3 331.1 L 957.3 325.8 C 954.7 321.2 949.7 318.0 944.0 318.0 L 944.0 323.2 C 949.7 323.2 954.7 326.4 957.3 331.1 Z M 957.3 331.1 " fill="#8E4B2A"></path><path d="M 885.4 323.2 L 944.1 323.2 L 944.1 318.0 L 885.4 318.0 Z M 885.4 323.2 " fill="#8E4B2A"></path><path d="M 886.1 323.2 L 886.1 318.0 C 877.7 318.0 870.9 324.7 870.9 333.0 L 870.9 338.3 C 870.9 330.0 877.7 323.2 886.1 323.2 Z M 886.1 323.2 " fill="#8E4B2A"></path><path d="M 886.7 323.2 L 886.7 318.0 C 878.3 318.0 870.9 324.7 870.9 333.0 L 870.9 338.3 C 870.9 330.0 877.7 323.2 886.7 323.2 Z M 886.7 323.2 " fill="#8E4B2A"></path><path d="M 534.2 368.3 L 522.0 474.0 " fill="none" stroke="#000000" stroke-width="1.00" stroke-miterlimit="0.00" stroke-linecap="round" stroke-linejoin="round" transform="matrix(1.67, 0.00, 0.00, -1.67, 49.0, 1203.9)"></path><path d="M 942.3 602.2 L 935.8 589.5 L 945.8 588.4 Z M 942.3 602.2 " fill="#000000"></path><path d="M 535.1 360.4 L 531.2 368.0 L 537.2 368.7 Z M 535.1 360.4 " fill="none" stroke="#000000" stroke-width="1.00" stroke-miterlimit="0.00" transform="matrix(1.67, 0.00, 0.00, -1.67, 49.0, 1203.9)"></path><path d="M 976.8 694.7 C 985.2 694.7 991.9 688.0 991.9 679.7 L 991.9 620.4 C 991.9 612.1 985.2 605.4 976.8 605.4 L 918.9 605.4 C 910.5 605.4 903.7 612.1 903.7 620.4 L 903.7 679.7 C 903.7 688.0 910.5 694.7 918.9 694.7 Z M 976.8 694.7 " fill="#E77C3B"></path><text xml:space="preserve" font-family="Helvetica" font-size="12.0" fill="#000000" transform="matrix(1.67, 0.00, -0.00, -1.67, 919.4, 643.4)">M</text><text xml:space="preserve" font-family="Helvetica" font-size="12.0" fill="#000000" transform="matrix(1.67, 0.00, -0.00, -1.67, 936.1, 643.4)">o</text><text xml:space="preserve" font-family="Helvetica" font-size="12.0" fill="#000000" transform="matrix(1.67, 0.00, -0.00, -1.67, 947.3, 643.4)">r</text><text xml:space="preserve" font-family="Helvetica" font-size="12.0" fill="#000000" transform="matrix(1.67, 0.00, -0.00, -1.67, 953.9, 643.4)">p</text><text xml:space="preserve" font-family="Helvetica" font-size="12.0" fill="#000000" transform="matrix(1.67, 0.00, -0.00, -1.67, 965.1, 643.4)">h</text><text xml:space="preserve" font-family="HelveticaNeue" font-size="12.0" fill="#000000" transform="matrix(1.67, 0.00, -0.00, -1.67, 862.6, 473.5)">G</text><text xml:space="preserve" font-family="HelveticaNeue" font-size="12.0" fill="#000000" transform="matrix(1.67, 0.00, -0.00, -1.67, 877.8, 473.5)">E</text><text xml:space="preserve" font-family="HelveticaNeue" font-size="12.0" fill="#000000" transform="matrix(1.67, 0.00, -0.00, -1.67, 890.1, 473.5)">T</text><path d="M 572.5 305.8 L 632.0 260.5 " fill="none" stroke="#000000" stroke-width="1.00" stroke-miterlimit="0.00" stroke-linecap="round" stroke-linejoin="round" transform="matrix(1.67, 0.00, 0.00, -1.67, 49.0, 1203.9)"></path><path d="M 994.0 685.2 L 1007.7 689.3 L 1001.6 697.3 Z M 994.0 685.2 " fill="#000000"></path><path d="M 566.1 310.7 L 574.3 308.2 L 570.6 303.4 Z M 566.1 310.7 " fill="none" stroke="#000000" stroke-width="1.00" stroke-miterlimit="0.00" transform="matrix(1.67, 0.00, 0.00, -1.67, 49.0, 1203.9)"></path><text xml:space="preserve" font-family="HelveticaNeue" font-size="12.0" fill="#000000" transform="matrix(1.67, 0.00, -0.00, -1.67, 1002.8, 765.7)">G</text><text xml:space="preserve" font-family="HelveticaNeue" font-size="12.0" fill="#000000" transform="matrix(1.67, 0.00, -0.00, -1.67, 1018.0, 765.7)">E</text><text xml:space="preserve" font-family="HelveticaNeue" font-size="12.0" fill="#000000" transform="matrix(1.67, 0.00, -0.00, -1.67, 1030.2, 765.7)">T</text><path d="M 362.8 442.7 L 362.8 438.5 C 362.8 435.8 360.6 433.6 357.8 433.6 L 357.8 437.7 C 360.6 437.7 362.8 440.0 362.8 442.7 Z M 362.8 442.7 " fill="#414341"></path><path d="M 362.8 442.7 L 362.8 438.5 C 362.8 438.3 362.8 438.1 362.8 437.8 L 362.8 442.0 C 362.8 442.2 362.8 442.5 362.8 442.7 Z M 362.8 442.7 " fill="#414341"></path><path d="M 362.8 442.0 L 362.8 437.8 C 362.7 437.6 362.7 437.3 362.6 437.0 L 362.6 441.2 C 362.7 441.5 362.7 441.7 362.8 442.0 Z M 362.8 442.0 " fill="#414341"></path><path d="M 362.6 441.2 L 362.6 437.0 C 362.5 436.7 362.4 436.4 362.2 436.2 L 362.2 440.3 C 362.4 440.6 362.5 440.9 362.6 441.2 Z M 362.6 441.2 " fill="#414341"></path><path d="M 362.2 440.3 L 362.2 436.2 C 361.4 434.6 359.7 433.6 357.8 433.6 L 357.8 437.7 C 359.7 437.7 361.4 438.8 362.2 440.3 Z M 362.2 440.3 " fill="#414341"></path><path d="M 360.0 438.6 L 357.8 433.6 L 299.8 433.6 L 298.4 438.8 Z M 360.0 438.6 " fill="#414341"></path><path d="M 299.8 437.7 L 299.8 433.6 C 297.0 433.6 294.8 435.8 294.8 438.5 L 294.8 442.7 C 294.8 440.0 297.0 437.7 299.8 437.7 Z M 299.8 437.7 " fill="#414341"></path><path d="M 299.8 437.7 L 299.8 433.6 C 297.0 433.6 294.8 435.8 294.8 438.5 L 294.8 442.7 C 294.8 440.0 297.0 437.7 299.8 437.7 Z M 299.8 437.7 " fill="#414341"></path><path d="M 357.8 526.8 C 360.6 526.8 362.8 524.6 362.8 521.8 L 362.8 442.7 C 362.8 440.0 360.6 437.7 357.8 437.7 L 299.8 437.7 C 297.0 437.7 294.8 440.0 294.8 442.7 L 294.8 521.8 C 294.8 524.6 297.0 526.8 299.8 526.8 Z M 357.8 526.8 " fill="#666967"></path><path d="M 305.2 513.9 L 352.3 513.9 L 352.3 508.4 L 305.2 508.4 Z M 305.2 504.1 L 352.3 504.1 L 352.3 498.6 L 305.2 498.6 Z M 305.2 494.7 L 352.3 494.7 L 352.3 489.2 L 305.2 489.2 Z M 305.2 494.7 " fill="#FFFEFE"></path><text xml:space="preserve" font-family="Helvetica" font-size="12.0" fill="#000000" transform="matrix(1.67, 0.00, -0.00, -1.67, 265.3, 400.9)">E</text><text xml:space="preserve" font-family="Helvetica" font-size="12.0" fill="#000000" transform="matrix(1.67, 0.00, -0.00, -1.67, 278.7, 400.9)">q</text><text xml:space="preserve" font-family="Helvetica" font-size="12.0" fill="#000000" transform="matrix(1.67, 0.00, -0.00, -1.67, 289.8, 400.9)">u</text><text xml:space="preserve" font-family="Helvetica" font-size="12.0" fill="#000000" transform="matrix(1.67, 0.00, -0.00, -1.67, 301.0, 400.9)">a</text><text xml:space="preserve" font-family="Helvetica" font-size="12.0" fill="#000000" transform="matrix(1.67, 0.00, -0.00, -1.67, 312.1, 400.9)">t</text><text xml:space="preserve" font-family="Helvetica" font-size="12.0" fill="#000000" transform="matrix(1.67, 0.00, -0.00, -1.67, 317.7, 400.9)">i</text><text xml:space="preserve" font-family="Helvetica" font-size="12.0" fill="#000000" transform="matrix(1.67, 0.00, -0.00, -1.67, 322.1, 400.9)">o</text><text xml:space="preserve" font-family="Helvetica" font-size="12.0" fill="#000000" transform="matrix(1.67, 0.00, -0.00, -1.67, 333.3, 400.9)">n</text><text xml:space="preserve" font-family="Helvetica" font-size="12.0" fill="#000000" transform="matrix(1.67, 0.00, -0.00, -1.67, 344.4, 400.9)"> </text><text xml:space="preserve" font-family="Helvetica" font-size="12.0" fill="#000000" transform="matrix(1.67, 0.00, -0.00, -1.67, 350.0, 400.9)">C</text><text xml:space="preserve" font-family="Helvetica" font-size="12.0" fill="#000000" transform="matrix(1.67, 0.00, -0.00, -1.67, 364.4, 400.9)">h</text><text xml:space="preserve" font-family="Helvetica" font-size="12.0" fill="#000000" transform="matrix(1.67, 0.00, -0.00, -1.67, 375.6, 400.9)">e</text><text xml:space="preserve" font-family="Helvetica" font-size="12.0" fill="#000000" transform="matrix(1.67, 0.00, -0.00, -1.67, 386.7, 400.9)">f</text><path d="M 502.5 341.6 L 188.0 427.9 " fill="none" stroke="#000000" stroke-width="1.00" stroke-miterlimit="0.00" stroke-linecap="round" stroke-linejoin="round" transform="matrix(1.67, 0.00, 0.00, -1.67, 49.0, 1203.9)"></path><path d="M 900.7 637.1 L 886.5 638.4 L 889.1 628.7 Z M 900.7 637.1 " fill="#000000"></path><path d="M 510.2 339.5 L 501.7 338.7 L 503.2 344.5 Z M 510.2 339.5 " fill="none" stroke="#000000" stroke-width="1.00" stroke-miterlimit="0.00" transform="matrix(1.67, 0.00, 0.00, -1.67, 49.0, 1203.9)"></path><text xml:space="preserve" font-family="HelveticaNeue" font-size="12.0" fill="#000000" transform="matrix(1.67, 0.00, -0.00, -1.67, 582.1, 513.6)">G</text><text xml:space="preserve" font-family="HelveticaNeue" font-size="12.0" fill="#000000" transform="matrix(1.67, 0.00, -0.00, -1.67, 597.3, 513.6)">E</text><text xml:space="preserve" font-family="HelveticaNeue" font-size="12.0" fill="#000000" transform="matrix(1.67, 0.00, -0.00, -1.67, 609.5, 513.6)">T</text><path d="M 526.2 331.8 L 526.2 327.6 C 526.2 324.9 524.0 322.7 521.2 322.7 L 521.2 326.8 C 524.0 326.8 526.2 329.1 526.2 331.8 Z M 526.2 331.8 " fill="#414341"></path><path d="M 526.2 331.8 L 526.2 327.6 C 526.2 327.4 526.2 327.2 526.2 326.9 L 526.2 331.1 C 526.2 331.3 526.2 331.6 526.2 331.8 Z M 526.2 331.8 " fill="#414341"></path><path d="M 526.2 331.1 L 526.2 326.9 C 526.2 326.7 526.1 326.4 526.0 326.1 L 526.0 330.3 C 526.1 330.6 526.2 330.8 526.2 331.1 Z M 526.2 331.1 " fill="#414341"></path><path d="M 526.0 330.3 L 526.0 326.1 C 525.9 325.8 525.8 325.5 525.6 325.3 L 525.6 329.4 C 525.8 329.7 525.9 330.0 526.0 330.3 Z M 526.0 330.3 " fill="#414341"></path><path d="M 525.6 329.4 L 525.6 325.3 C 524.8 323.7 523.1 322.7 521.2 322.7 L 521.2 326.8 C 523.1 326.8 524.8 327.9 525.6 329.4 Z M 525.6 329.4 " fill="#414341"></path><path d="M 523.4 327.7 L 521.2 322.7 L 463.2 322.7 L 461.8 327.9 Z M 523.4 327.7 " fill="#414341"></path><path d="M 463.2 326.8 L 463.2 322.7 C 460.4 322.7 458.2 324.9 458.2 327.6 L 458.2 331.8 C 458.2 329.1 460.4 326.8 463.2 326.8 Z M 463.2 326.8 " fill="#414341"></path><path d="M 463.2 326.8 L 463.2 322.7 C 460.4 322.7 458.2 324.9 458.2 327.6 L 458.2 331.8 C 458.2 329.1 460.4 326.8 463.2 326.8 Z M 463.2 326.8 " fill="#414341"></path><path d="M 521.2 415.9 C 524.0 415.9 526.2 413.7 526.2 410.9 L 526.2 331.8 C 526.2 329.1 524.0 326.8 521.2 326.8 L 463.2 326.8 C 460.4 326.8 458.2 329.1 458.2 331.8 L 458.2 410.9 C 458.2 413.7 460.4 415.9 463.2 415.9 Z M 521.2 415.9 " fill="#666967"></path><path d="M 468.7 403.0 L 515.8 403.0 L 515.8 397.5 L 468.7 397.5 Z M 468.7 393.2 L 515.8 393.2 L 515.8 387.7 L 468.7 387.7 Z M 468.7 383.8 L 515.8 383.8 L 515.8 378.3 L 468.7 378.3 Z M 468.7 383.8 " fill="#FFFEFE"></path><text xml:space="preserve" font-family="Helvetica" font-size="12.0" fill="#000000" transform="matrix(1.67, 0.00, -0.00, -1.67, 466.8, 290.4)">A</text><text xml:space="preserve" font-family="Helvetica" font-size="12.0" fill="#000000" transform="matrix(1.67, 0.00, -0.00, -1.67, 480.2, 290.4)">c</text><text xml:space="preserve" font-family="Helvetica" font-size="12.0" fill="#000000" transform="matrix(1.67, 0.00, -0.00, -1.67, 490.2, 290.4)">m</text><text xml:space="preserve" font-family="Helvetica" font-size="12.0" fill="#000000" transform="matrix(1.67, 0.00, -0.00, -1.67, 506.9, 290.4)">e</text><path d="M 503.6 353.2 L 285.9 487.4 " fill="none" stroke="#000000" stroke-width="1.00" stroke-miterlimit="0.00" stroke-linecap="round" stroke-linejoin="round" transform="matrix(1.67, 0.00, 0.00, -1.67, 49.0, 1203.9)"></path><path d="M 901.0 621.2 L 887.0 618.5 L 892.3 609.9 Z M 901.0 621.2 " fill="#000000"></path><path d="M 510.4 349.0 L 502.0 350.7 L 505.1 355.8 Z M 510.4 349.0 " fill="none" stroke="#000000" stroke-width="1.00" stroke-miterlimit="0.00" transform="matrix(1.67, 0.00, 0.00, -1.67, 49.0, 1203.9)"></path><path d="M 632.0 232.5 C 631.1 232.3 630.3 232.1 629.4 231.9 C 628.9 231.8 628.4 231.7 632.0 232.5 Z M 632.0 232.5 " fill="#20405E"></path><path d="M 629.8 303.0 C 641.5 303.0 651.4 302.1 659.6 300.7 C 677.2 297.7 686.5 292.5 686.5 289.3 C 686.5 286.1 677.2 280.9 659.6 277.9 C 651.4 276.5 641.5 275.6 629.8 275.6 C 593.2 275.6 573.2 284.6 573.2 289.3 C 573.2 293.9 593.2 303.0 629.8 303.0 Z M 629.8 303.0 " fill="#666967"></path><path d="M 686.5 289.3 L 686.5 282.4 C 686.5 279.2 677.2 274.0 659.6 271.0 C 651.4 269.6 641.5 268.6 629.8 268.6 C 593.2 268.6 573.2 277.7 573.2 282.4 L 573.2 289.3 C 573.2 284.6 593.2 275.6 629.8 275.6 C 641.5 275.6 651.4 276.5 659.6 277.9 C 677.2 280.9 686.5 286.1 686.5 289.3 Z M 686.5 289.3 " fill="#414341"></path><path d="M 686.5 289.3 L 686.5 282.4 C 686.5 282.3 686.5 282.2 686.5 282.1 L 686.5 289.0 C 686.5 289.1 686.5 289.2 686.5 289.3 Z M 686.5 289.3 " fill="#414341"></path><path d="M 686.5 289.0 L 686.5 282.1 C 686.5 281.9 686.4 281.8 686.4 281.7 L 686.4 288.6 C 686.4 288.7 686.5 288.9 686.5 289.0 Z M 686.5 289.0 " fill="#414341"></path><path d="M 686.4 288.6 L 686.4 281.7 C 686.3 281.5 686.2 281.3 686.1 281.1 L 686.1 288.0 C 686.2 288.2 686.3 288.4 686.4 288.6 Z M 686.4 288.6 " fill="#414341"></path><path d="M 686.1 288.0 L 686.1 281.1 C 684.1 277.9 675.0 273.6 659.6 271.0 C 651.4 269.6 641.5 268.6 629.8 268.6 C 593.2 268.6 573.2 277.7 573.2 282.4 L 573.2 289.3 C 573.2 284.6 593.2 275.6 629.8 275.6 C 641.5 275.6 651.4 276.5 659.6 277.9 C 675.0 280.5 684.1 284.9 686.1 288.0 Z M 686.1 288.0 " fill="#414341"></path><path d="M 686.4 185.0 C 686.6 185.3 686.6 185.6 686.6 185.9 L 686.6 174.7 C 686.6 174.6 686.6 174.4 686.6 174.3 C 686.6 174.1 686.5 174.0 686.5 173.8 L 686.4 173.8 L 686.4 173.7 C 686.3 173.5 686.2 173.3 686.1 173.1 C 686.1 173.0 686.0 173.0 686.0 172.9 C 685.9 172.8 685.7 172.6 685.6 172.5 C 685.5 172.3 685.3 172.1 685.1 171.9 C 685.0 171.7 684.8 171.6 684.6 171.4 C 684.4 171.2 684.2 171.0 683.9 170.8 C 683.7 170.7 683.5 170.5 683.3 170.4 C 683.0 170.2 682.7 170.0 682.4 169.8 C 682.1 169.6 681.8 169.4 681.5 169.3 C 681.2 169.1 680.8 168.9 680.4 168.7 C 680.1 168.5 679.8 168.4 679.5 168.2 C 679.0 168.0 678.4 167.8 677.9 167.5 C 677.6 167.4 677.3 167.3 677.0 167.1 C 676.1 166.8 675.2 166.5 674.2 166.1 C 673.8 166.0 673.5 165.9 673.1 165.8 C 672.4 165.6 671.7 165.4 670.9 165.2 C 670.4 165.0 669.9 164.9 669.4 164.8 C 668.7 164.6 668.0 164.4 667.2 164.3 C 666.7 164.1 666.1 164.0 665.5 163.9 C 664.7 163.7 663.9 163.6 663.1 163.4 C 662.5 163.3 661.8 163.2 661.2 163.1 C 660.3 163.0 659.4 162.8 658.5 162.7 C 657.9 162.6 657.2 162.5 656.5 162.4 C 655.5 162.3 654.5 162.2 653.5 162.1 C 652.8 162.0 652.1 161.9 651.3 161.9 C 650.2 161.8 649.1 161.7 648.0 161.6 C 647.2 161.5 646.5 161.5 645.7 161.4 C 644.4 161.4 643.1 161.3 641.7 161.3 C 641.0 161.2 640.4 161.2 639.7 161.2 C 637.6 161.1 635.4 161.1 633.2 161.1 C 612.6 161.1 597.0 163.6 586.8 166.7 C 579.3 169.3 573.9 172.1 573.3 174.3 L 573.3 185.5 C 573.8 183.5 578.6 180.9 585.3 178.5 L 585.2 179.2 C 595.3 176.0 612.6 172.3 633.2 172.3 C 635.5 172.3 637.6 172.3 639.7 172.4 C 640.4 172.4 641.0 172.4 641.7 172.5 C 643.1 172.5 644.4 172.6 645.7 172.6 C 646.5 172.7 647.2 172.7 647.9 172.8 C 649.1 172.9 650.2 173.0 651.3 173.1 C 652.1 173.1 652.8 173.2 653.5 173.3 C 654.5 173.4 655.5 173.5 656.5 173.6 C 657.2 173.7 657.8 173.8 658.5 173.9 C 659.4 174.0 660.4 174.2 661.3 174.3 L 674.1 177.3 C 675.2 177.7 676.1 178.0 677.0 178.4 L 679.5 179.4 C 679.7 179.5 679.9 179.6 680.1 179.7 C 680.7 180.0 681.2 180.3 681.6 180.5 C 681.8 180.6 682.0 180.8 682.2 180.9 C 682.6 181.1 683.0 181.4 683.3 181.6 C 683.5 181.7 683.7 181.9 683.8 182.0 C 684.2 182.2 684.4 182.4 684.7 182.7 C 684.8 182.8 685.0 182.9 685.1 183.0 C 685.3 183.3 685.5 183.5 685.7 183.7 C 685.8 183.8 685.9 184.0 685.9 184.1 Z M 686.4 185.0 " fill="#414341"></path><path d="M 658.9 266.7 C 657.4 266.5 655.8 266.2 654.3 266.0 C 653.5 265.9 652.7 265.8 651.8 265.7 C 650.4 265.5 648.9 265.4 647.4 265.2 C 646.5 265.2 645.5 265.1 644.5 265.0 C 642.6 264.9 640.7 264.8 638.8 264.7 L 637.8 264.7 C 635.6 264.6 633.3 264.5 631.0 264.5 C 630.5 264.5 630.0 264.5 629.5 264.5 C 607.0 264.5 584.3 268.2 573.3 275.3 L 573.3 181.2 C 573.9 179.1 579.2 176.2 586.7 173.7 C 596.9 170.5 612.5 168.0 633.2 168.0 C 670.9 168.0 686.6 176.9 686.6 181.6 L 686.7 276.2 C 680.8 272.2 671.3 268.8 658.9 266.7 Z M 658.9 266.7 " fill="#666967"></path><text xml:space="preserve" font-family="Helvetica" font-size="12.0" fill="#000000" transform="matrix(1.67, 0.00, -0.00, -1.67, 610.5, 215.4)">i</text><text xml:space="preserve" font-family="Helvetica" font-size="12.0" fill="#000000" transform="matrix(1.67, 0.00, -0.00, -1.67, 615.0, 215.4)">S</text><text xml:space="preserve" font-family="Helvetica" font-size="12.0" fill="#000000" transform="matrix(1.67, 0.00, -0.00, -1.67, 628.3, 215.4)">i</text><text xml:space="preserve" font-family="Helvetica" font-size="12.0" fill="#000000" transform="matrix(1.67, 0.00, -0.00, -1.67, 632.8, 215.4)">t</text><text xml:space="preserve" font-family="Helvetica" font-size="12.0" fill="#000000" transform="matrix(1.67, 0.00, -0.00, -1.67, 638.3, 215.4)">e</text><path d="M 512.4 366.0 L 380.3 539.6 " fill="none" stroke="#000000" stroke-width="1.00" stroke-miterlimit="0.00" stroke-linecap="round" stroke-linejoin="round" transform="matrix(1.67, 0.00, 0.00, -1.67, 49.0, 1203.9)"></path><path d="M 912.5 603.5 L 900.4 595.9 L 908.4 589.9 Z M 912.5 603.5 " fill="#000000"></path><path d="M 517.2 359.6 L 510.0 364.2 L 514.8 367.8 Z M 517.2 359.6 " fill="none" stroke="#000000" stroke-width="1.00" stroke-miterlimit="0.00" transform="matrix(1.67, 0.00, 0.00, -1.67, 49.0, 1203.9)"></path><path d="M 1502.7 279.0 C 1511.1 279.0 1517.9 272.3 1517.9 264.0 L 1517.9 204.7 C 1517.9 196.4 1511.1 189.7 1502.7 189.7 L 1444.8 189.7 C 1436.4 189.7 1429.6 196.4 1429.6 204.7 L 1429.6 264.0 C 1429.6 272.3 1436.4 279.0 1444.8 279.0 Z M 1502.7 279.0 " fill="#E77C3B"></path><text xml:space="preserve" font-family="Helvetica" font-size="12.0" fill="#000000" transform="matrix(1.67, 0.00, -0.00, -1.67, 1439.8, 227.7)">M</text><text xml:space="preserve" font-family="Helvetica" font-size="12.0" fill="#000000" transform="matrix(1.67, 0.00, -0.00, -1.67, 1456.5, 227.7)">y</text><text xml:space="preserve" font-family="Helvetica" font-size="12.0" fill="#000000" transform="matrix(1.67, 0.00, -0.00, -1.67, 1466.5, 227.7)">B</text><text xml:space="preserve" font-family="Helvetica" font-size="12.0" fill="#000000" transform="matrix(1.67, 0.00, -0.00, -1.67, 1479.9, 227.7)">B</text><text xml:space="preserve" font-family="Helvetica" font-size="12.0" fill="#000000" transform="matrix(1.67, 0.00, -0.00, -1.67, 1493.2, 227.7)">C</text><path d="M 1517.9 204.7 L 1517.9 199.5 C 1517.9 191.2 1511.1 184.4 1502.7 184.4 L 1502.7 189.7 C 1511.1 189.7 1517.9 196.4 1517.9 204.7 Z M 1517.9 204.7 " fill="#8E4B2A"></path><path d="M 1517.9 204.7 L 1517.9 199.5 C 1517.9 198.8 1517.8 198.0 1517.7 197.3 L 1517.7 202.6 C 1517.8 203.3 1517.9 204.0 1517.9 204.7 Z M 1517.9 204.7 " fill="#8E4B2A"></path><path d="M 1517.7 202.6 L 1517.7 197.3 C 1517.6 196.5 1517.4 195.7 1517.1 194.9 L 1517.1 200.1 C 1517.4 200.9 1517.6 201.7 1517.7 202.6 Z M 1517.7 202.6 " fill="#8E4B2A"></path><path d="M 1517.1 200.1 L 1517.1 194.9 C 1516.8 194.0 1516.5 193.1 1516.0 192.2 L 1516.0 197.5 C 1516.5 198.3 1516.8 199.2 1517.1 200.1 Z M 1517.1 200.1 " fill="#8E4B2A"></path><path d="M 1516.0 197.5 L 1516.0 192.2 C 1513.4 187.6 1508.5 184.4 1502.7 184.4 L 1502.7 189.7 C 1508.5 189.7 1513.4 192.8 1516.0 197.5 Z M 1516.0 197.5 " fill="#8E4B2A"></path><path d="M 1444.2 189.7 L 1502.8 189.7 L 1502.8 184.4 L 1444.2 184.4 Z M 1444.2 189.7 " fill="#8E4B2A"></path><path d="M 1444.8 189.7 L 1444.8 184.4 C 1436.4 184.4 1429.6 191.2 1429.6 199.5 L 1429.6 204.7 C 1429.6 196.4 1436.4 189.7 1444.8 189.7 Z M 1444.8 189.7 " fill="#8E4B2A"></path><path d="M 1445.4 189.7 L 1445.4 184.4 C 1437.1 184.4 1429.6 191.2 1429.6 199.5 L 1429.6 204.7 C 1429.6 196.4 1436.4 189.7 1445.4 189.7 Z M 1445.4 189.7 " fill="#8E4B2A"></path><path d="M 644.4 582.2 L 817.1 582.3 " fill="none" stroke="#000000" stroke-width="1.00" stroke-miterlimit="0.00" stroke-linecap="round" stroke-linejoin="round" transform="matrix(1.67, 0.00, 0.00, -1.67, 49.0, 1203.9)"></path><path d="M 1426.5 231.8 L 1413.1 236.8 L 1413.1 226.8 Z M 1426.5 231.8 " fill="#000000"></path><path d="M 825.1 582.3 L 817.2 579.3 L 817.1 585.3 Z M 825.1 582.3 " fill="none" stroke="#000000" stroke-width="1.00" stroke-miterlimit="0.00" transform="matrix(1.67, 0.00, 0.00, -1.67, 49.0, 1203.9)"></path><path d="M 1111.4 232.0 L 1124.8 227.0 L 1124.8 237.0 Z M 1111.4 232.0 " fill="#000000"></path><path d="M 636.4 582.2 L 644.4 585.2 L 644.4 579.2 Z M 636.4 582.2 " fill="none" stroke="#000000" stroke-width="1.00" stroke-miterlimit="0.00" transform="matrix(1.67, 0.00, 0.00, -1.67, 49.0, 1203.9)"></path><text xml:space="preserve" font-family="HelveticaNeue" font-size="12.0" fill="#000000" transform="matrix(1.67, 0.00, -0.00, -1.67, 1254.5, 200.1)">P</text><text xml:space="preserve" font-family="HelveticaNeue" font-size="12.0" fill="#000000" transform="matrix(1.67, 0.00, -0.00, -1.67, 1267.5, 200.1)">O</text><text xml:space="preserve" font-family="HelveticaNeue" font-size="12.0" fill="#000000" transform="matrix(1.67, 0.00, -0.00, -1.67, 1282.7, 200.1)">S</text><text xml:space="preserve" font-family="HelveticaNeue" font-size="12.0" fill="#000000" transform="matrix(1.67, 0.00, -0.00, -1.67, 1295.7, 200.1)">T</text><text xml:space="preserve" font-family="HelveticaNeue" font-size="12.0" fill="#000000" transform="matrix(1.67, 0.00, -0.00, -1.67, 1261.3, 176.7)">G</text><text xml:space="preserve" font-family="HelveticaNeue" font-size="12.0" fill="#000000" transform="matrix(1.67, 0.00, -0.00, -1.67, 1276.5, 176.7)">E</text><text xml:space="preserve" font-family="HelveticaNeue" font-size="12.0" fill="#000000" transform="matrix(1.67, 0.00, -0.00, -1.67, 1288.8, 176.7)">T</text><path d="M 992.5 985.2 C 1005.3 985.2 1015.8 977.5 1015.8 968.1 L 1015.8 900.6 C 1015.8 891.2 1005.3 883.5 992.5 883.5 L 903.2 883.5 C 890.4 883.5 879.9 891.2 879.9 900.6 L 879.9 968.1 C 879.9 977.5 890.4 985.2 903.2 985.2 Z M 992.5 985.2 " fill="#E77C3B"></path><text xml:space="preserve" font-family="Helvetica" font-size="12.0" fill="#000000" transform="matrix(1.67, 0.00, -0.00, -1.67, 921.1, 939.4)">?</text><text xml:space="preserve" font-family="Helvetica" font-size="12.0" fill="#000000" transform="matrix(1.67, 0.00, -0.00, -1.67, 932.2, 939.4)"> </text><text xml:space="preserve" font-family="Helvetica" font-size="12.0" fill="#000000" transform="matrix(1.67, 0.00, -0.00, -1.67, 937.8, 939.4)">n</text><text xml:space="preserve" font-family="Helvetica" font-size="12.0" fill="#000000" transform="matrix(1.67, 0.00, -0.00, -1.67, 949.0, 939.4)">e</text><text xml:space="preserve" font-family="Helvetica" font-size="12.0" fill="#000000" transform="matrix(1.67, 0.00, -0.00, -1.67, 960.1, 939.4)">w</text><text xml:space="preserve" font-family="Helvetica" font-size="12.0" fill="#000000" transform="matrix(1.67, 0.00, -0.00, -1.67, 974.6, 939.4)"> </text><text xml:space="preserve" font-family="Helvetica" font-size="12.0" fill="#000000" transform="matrix(1.67, 0.00, -0.00, -1.67, 891.6, 916.0)">m</text><text xml:space="preserve" font-family="Helvetica" font-size="12.0" fill="#000000" transform="matrix(1.67, 0.00, -0.00, -1.67, 908.3, 916.0)">i</text><text xml:space="preserve" font-family="Helvetica" font-size="12.0" fill="#000000" transform="matrix(1.67, 0.00, -0.00, -1.67, 912.8, 916.0)">c</text><text xml:space="preserve" font-family="Helvetica" font-size="12.0" fill="#000000" transform="matrix(1.67, 0.00, -0.00, -1.67, 922.8, 916.0)">r</text><text xml:space="preserve" font-family="Helvetica" font-size="12.0" fill="#000000" transform="matrix(1.67, 0.00, -0.00, -1.67, 929.4, 916.0)">o</text><text xml:space="preserve" font-family="Helvetica" font-size="12.0" fill="#000000" transform="matrix(1.67, 0.00, -0.00, -1.67, 940.6, 916.0)">s</text><text xml:space="preserve" font-family="Helvetica" font-size="12.0" fill="#000000" transform="matrix(1.67, 0.00, -0.00, -1.67, 950.6, 916.0)">e</text><text xml:space="preserve" font-family="Helvetica" font-size="12.0" fill="#000000" transform="matrix(1.67, 0.00, -0.00, -1.67, 961.8, 916.0)">r</text><text xml:space="preserve" font-family="Helvetica" font-size="12.0" fill="#000000" transform="matrix(1.67, 0.00, -0.00, -1.67, 968.4, 916.0)">v</text><text xml:space="preserve" font-family="Helvetica" font-size="12.0" fill="#000000" transform="matrix(1.67, 0.00, -0.00, -1.67, 978.4, 916.0)">i</text><text xml:space="preserve" font-family="Helvetica" font-size="12.0" fill="#000000" transform="matrix(1.67, 0.00, -0.00, -1.67, 982.9, 916.0)">c</text><text xml:space="preserve" font-family="Helvetica" font-size="12.0" fill="#000000" transform="matrix(1.67, 0.00, -0.00, -1.67, 992.9, 916.0)">e</text><path d="M 1015.8 900.6 L 1015.8 894.7 C 1015.8 885.2 1005.3 877.5 992.5 877.5 L 992.5 883.5 C 1005.3 883.5 1015.8 891.2 1015.8 900.6 Z M 1015.8 900.6 " fill="#8E4B2A"></path><path d="M 1015.8 900.6 L 1015.8 894.7 C 1015.8 893.8 1015.7 893.0 1015.5 892.2 L 1015.5 898.2 C 1015.7 899.0 1015.8 899.8 1015.8 900.6 Z M 1015.8 900.6 " fill="#8E4B2A"></path><path d="M 1015.5 898.2 L 1015.5 892.2 C 1015.3 891.2 1015.0 890.3 1014.7 889.4 L 1014.7 895.4 C 1015.0 896.3 1015.3 897.2 1015.5 898.2 Z M 1015.5 898.2 " fill="#8E4B2A"></path><path d="M 1014.7 895.4 L 1014.7 889.4 C 1014.2 888.4 1013.6 887.4 1012.9 886.4 L 1012.9 892.4 C 1013.6 893.3 1014.2 894.4 1014.7 895.4 Z M 1014.7 895.4 " fill="#8E4B2A"></path><path d="M 1012.9 892.4 L 1012.9 886.4 C 1008.9 881.1 1001.3 877.5 992.5 877.5 L 992.5 883.5 C 1001.3 883.5 1008.9 887.1 1012.9 892.4 Z M 1012.9 892.4 " fill="#8E4B2A"></path><path d="M 902.3 883.5 L 992.6 883.5 L 992.6 877.5 L 902.3 877.5 Z M 902.3 883.5 " fill="#8E4B2A"></path><path d="M 903.2 883.5 L 903.2 877.5 C 890.4 877.5 879.9 885.2 879.9 894.7 L 879.9 900.6 C 879.9 891.2 890.4 883.5 903.2 883.5 Z M 903.2 883.5 " fill="#8E4B2A"></path><path d="M 904.2 883.5 L 904.2 877.5 C 891.3 877.5 879.9 885.2 879.9 894.7 L 879.9 900.6 C 879.9 891.2 890.4 883.5 904.2 883.5 Z M 904.2 883.5 " fill="#8E4B2A"></path><path d="M 538.5 295.1 L 538.5 195.5 " fill="none" stroke="#000000" stroke-width="1.00" stroke-miterlimit="0.00" stroke-linecap="round" stroke-linejoin="round" transform="matrix(1.67, 0.00, 0.00, -1.67, 49.0, 1203.9)"></path><path d="M 947.8 697.9 L 952.8 711.2 L 942.8 711.2 Z M 947.8 697.9 " fill="#000000"></path><path d="M 538.4 303.1 L 541.4 295.1 L 535.4 295.1 Z M 538.4 303.1 " fill="none" stroke="#000000" stroke-width="1.00" stroke-miterlimit="0.00" transform="matrix(1.67, 0.00, 0.00, -1.67, 49.0, 1203.9)"></path><path d="M 313.8 187.1 L 497.7 167.6 " fill="none" stroke="#181818" stroke-width="1.00" stroke-miterlimit="0.00" stroke-linecap="round" stroke-linejoin="round" stroke-dasharray="4.0, 4.0" transform="matrix(1.67, 0.00, 0.00, -1.67, 49.0, 1203.9)"></path><path d="M 559.6 890.1 L 573.4 886.6 L 572.3 896.5 Z M 559.6 890.1 " fill="#181818"></path><path d="M 305.8 187.9 L 314.1 190.1 L 313.5 184.1 Z M 305.8 187.9 " fill="none" stroke="#181818" stroke-width="1.00" stroke-miterlimit="0.00" transform="matrix(1.67, 0.00, 0.00, -1.67, 49.0, 1203.9)"></path></g></g></g></svg>