<?xml version="1.0" encoding="UTF-8" standalone="no"?><svg xmlns="http://www.w3.org/2000/svg" xmlns:xlink="http://www.w3.org/1999/xlink" clip-rule="evenodd" stroke-miterlimit="4.00" viewBox="0 0 1920 1080"><desc>SVG generated by Keynote</desc><defs><radialGradient id="gradSh1.24" cx="0.0" cy="-3.7" r="21.1" fx="0.0" fy="-3.7" gradientUnits="userSpaceOnUse" gradientTransform="matrix(1.81, 0.00, 0.00, -1.80, 285.8, 680.1)"><stop offset="0.00000" stop-color="#FFFFFF"></stop><stop offset="0.00880" stop-color="#FEFEFE"></stop><stop offset="1.00000" stop-color="#AAAAAA"></stop></radialGradient><radialGradient id="gradSh2.25" cx="0.0" cy="0.0" r="12.9" fx="0.0" fy="0.0" gradientUnits="userSpaceOnUse" gradientTransform="matrix(1.81, 0.00, 0.00, -1.80, 285.8, 717.9)"><stop offset="0.00000" stop-color="#FFFFFF"></stop><stop offset="0.01466" stop-color="#FEFEFE"></stop><stop offset="1.00000" stop-color="#CECECE"></stop></radialGradient><radialGradient id="gradSh3.26" cx="0.0" cy="-3.7" r="21.1" fx="0.0" fy="-3.7" gradientUnits="userSpaceOnUse" gradientTransform="matrix(1.81, 0.00, 0.00, -1.80, 285.8, 406.7)"><stop offset="0.00000" stop-color="#FFFFFF"></stop><stop offset="0.00880" stop-color="#FEFEFE"></stop><stop offset="1.00000" stop-color="#AAAAAA"></stop></radialGradient><radialGradient id="gradSh4.27" cx="0.0" cy="0.0" r="12.9" fx="0.0" fy="0.0" gradientUnits="userSpaceOnUse" gradientTransform="matrix(1.81, 0.00, 0.00, -1.80, 285.8, 444.5)"><stop offset="0.00000" stop-color="#FFFFFF"></stop><stop offset="0.01466" stop-color="#FEFEFE"></stop><stop offset="1.00000" stop-color="#CECECE"></stop></radialGradient></defs><g transform="matrix(1.00, 0.00, -0.00, -1.00, 0.0, 1080.0)"><path d="M 0.0 1080.0 L 1920.0 1080.0 L 1920.0 0.0 L 0.0 0.0 Z M 0.0 1080.0 " fill="#EEEDED"></path><path d="M 0.0 0.0 L 1836.0 0.0 " fill="none" stroke="#000000" stroke-width="2.00" transform="matrix(1.00, 0.00, 0.00, -1.00, 41.0, 58.0)"></path><text xml:space="preserve" font-family="HelveticaNeue-Bold" font-weight="bold" font-size="23.0" fill="#000000" transform="matrix(1.00, 0.00, -0.00, -1.00, 61.0, 24.0)">D</text><text xml:space="preserve" font-family="HelveticaNeue-Bold" font-weight="bold" font-size="23.0" fill="#000000" transform="matrix(1.00, 0.00, -0.00, -1.00, 78.0, 24.0)">i</text><text xml:space="preserve" font-family="HelveticaNeue-Bold" font-weight="bold" font-size="23.0" fill="#000000" transform="matrix(1.00, 0.00, -0.00, -1.00, 84.0, 24.0)">s</text><text xml:space="preserve" font-family="HelveticaNeue-Bold" font-weight="bold" font-size="23.0" fill="#000000" transform="matrix(1.00, 0.00, -0.00, -1.00, 96.3, 24.0)">m</text><text xml:space="preserve" font-family="HelveticaNeue-Bold" font-weight="bold" font-size="23.0" fill="#000000" transform="matrix(1.00, 0.00, -0.00, -1.00, 117.2, 24.0)">a</text><text xml:space="preserve" font-family="HelveticaNeue-Bold" font-weight="bold" font-size="23.0" fill="#000000" transform="matrix(1.00, 0.00, -0.00, -1.00, 130.4, 24.0)">n</text><text xml:space="preserve" font-family="HelveticaNeue-Bold" font-weight="bold" font-size="23.0" fill="#000000" transform="matrix(1.00, 0.00, -0.00, -1.00, 144.0, 24.0)">t</text><text xml:space="preserve" font-family="HelveticaNeue-Bold" font-weight="bold" font-size="23.0" fill="#000000" transform="matrix(1.00, 0.00, -0.00, -1.00, 152.1, 24.0)">l</text><text xml:space="preserve" font-family="HelveticaNeue-Bold" font-weight="bold" font-size="23.0" fill="#000000" transform="matrix(1.00, 0.00, -0.00, -1.00, 158.0, 24.0)">i</text><text xml:space="preserve" font-family="HelveticaNeue-Bold" font-weight="bold" font-size="23.0" fill="#000000" transform="matrix(1.00, 0.00, -0.00, -1.00, 164.0, 24.0)">n</text><text xml:space="preserve" font-family="HelveticaNeue-Bold" font-weight="bold" font-size="23.0" fill="#000000" transform="matrix(1.00, 0.00, -0.00, -1.00, 177.6, 24.0)">g</text><text xml:space="preserve" font-family="HelveticaNeue-Bold" font-weight="bold" font-size="23.0" fill="#000000" transform="matrix(1.00, 0.00, -0.00, -1.00, 191.7, 24.0)"> </text><text xml:space="preserve" font-family="HelveticaNeue-Bold" font-weight="bold" font-size="23.0" fill="#000000" transform="matrix(1.00, 0.00, -0.00, -1.00, 198.1, 24.0)">M</text><text xml:space="preserve" font-family="HelveticaNeue-Bold" font-weight="bold" font-size="23.0" fill="#000000" transform="matrix(1.00, 0.00, -0.00, -1.00, 218.9, 24.0)">o</text><text xml:space="preserve" font-family="HelveticaNeue-Bold" font-weight="bold" font-size="23.0" fill="#000000" transform="matrix(1.00, 0.00, -0.00, -1.00, 233.0, 24.0)">n</text><text xml:space="preserve" font-family="HelveticaNeue-Bold" font-weight="bold" font-size="23.0" fill="#000000" transform="matrix(1.00, 0.00, -0.00, -1.00, 246.6, 24.0)">o</text><text xml:space="preserve" font-family="HelveticaNeue-Bold" font-weight="bold" font-size="23.0" fill="#000000" transform="matrix(1.00, 0.00, -0.00, -1.00, 260.7, 24.0)">l</text><text xml:space="preserve" font-family="HelveticaNeue-Bold" font-weight="bold" font-size="23.0" fill="#000000" transform="matrix(1.00, 0.00, -0.00, -1.00, 266.6, 24.0)">i</text><text xml:space="preserve" font-family="HelveticaNeue-Bold" font-weight="bold" font-size="23.0" fill="#000000" transform="matrix(1.00, 0.00, -0.00, -1.00, 272.5, 24.0)">t</text><text xml:space="preserve" font-family="HelveticaNeue-Bold" font-weight="bold" font-size="23.0" fill="#000000" transform="matrix(1.00, 0.00, -0.00, -1.00, 280.6, 24.0)">h</text><text xml:space="preserve" font-family="HelveticaNeue-Bold" font-weight="bold" font-size="23.0" fill="#000000" transform="matrix(1.00, 0.00, -0.00, -1.00, 294.3, 24.0)">s</text><text xml:space="preserve" font-family="HelveticaNeue-Bold" font-weight="bold" font-size="23.0" fill="#000000" transform="matrix(1.00, 0.00, -0.00, -1.00, 306.6, 24.0)">:</text><text xml:space="preserve" font-family="HelveticaNeue-Bold" font-weight="bold" font-size="23.0" fill="#000000" transform="matrix(1.00, 0.00, -0.00, -1.00, 313.0, 24.0)"> </text><text xml:space="preserve" font-family="HelveticaNeue-Bold" font-weight="bold" font-size="23.0" fill="#000000" transform="matrix(1.00, 0.00, -0.00, -1.00, 319.4, 24.0)">u</text><text xml:space="preserve" font-family="HelveticaNeue-Bold" font-weight="bold" font-size="23.0" fill="#000000" transform="matrix(1.00, 0.00, -0.00, -1.00, 333.0, 24.0)">s</text><text xml:space="preserve" font-family="HelveticaNeue-Bold" font-weight="bold" font-size="23.0" fill="#000000" transform="matrix(1.00, 0.00, -0.00, -1.00, 345.4, 24.0)">i</text><text xml:space="preserve" font-family="HelveticaNeue-Bold" font-weight="bold" font-size="23.0" fill="#000000" transform="matrix(1.00, 0.00, -0.00, -1.00, 351.3, 24.0)">n</text><text xml:space="preserve" font-family="HelveticaNeue-Bold" font-weight="bold" font-size="23.0" fill="#000000" transform="matrix(1.00, 0.00, -0.00, -1.00, 365.0, 24.0)">g</text><text xml:space="preserve" font-family="HelveticaNeue-Bold" font-weight="bold" font-size="23.0" fill="#000000" transform="matrix(1.00, 0.00, -0.00, -1.00, 379.0, 24.0)"> </text><text xml:space="preserve" font-family="HelveticaNeue-Bold" font-weight="bold" font-size="23.0" fill="#000000" transform="matrix(1.00, 0.00, -0.00, -1.00, 385.4, 24.0)">m</text><text xml:space="preserve" font-family="HelveticaNeue-Bold" font-weight="bold" font-size="23.0" fill="#000000" transform="matrix(1.00, 0.00, -0.00, -1.00, 406.3, 24.0)">i</text><text xml:space="preserve" font-family="HelveticaNeue-Bold" font-weight="bold" font-size="23.0" fill="#000000" transform="matrix(1.00, 0.00, -0.00, -1.00, 412.2, 24.0)">c</text><text xml:space="preserve" font-family="HelveticaNeue-Bold" font-weight="bold" font-size="23.0" fill="#000000" transform="matrix(1.00, 0.00, -0.00, -1.00, 425.4, 24.0)">r</text><text xml:space="preserve" font-family="HelveticaNeue-Bold" font-weight="bold" font-size="23.0" fill="#000000" transform="matrix(1.00, 0.00, -0.00, -1.00, 433.9, 24.0)">o</text><text xml:space="preserve" font-family="HelveticaNeue-Bold" font-weight="bold" font-size="23.0" fill="#000000" transform="matrix(1.00, 0.00, -0.00, -1.00, 448.0, 24.0)">s</text><text xml:space="preserve" font-family="HelveticaNeue-Bold" font-weight="bold" font-size="23.0" fill="#000000" transform="matrix(1.00, 0.00, -0.00, -1.00, 460.3, 24.0)">e</text><text xml:space="preserve" font-family="HelveticaNeue-Bold" font-weight="bold" font-size="23.0" fill="#000000" transform="matrix(1.00, 0.00, -0.00, -1.00, 473.5, 24.0)">r</text><text xml:space="preserve" font-family="HelveticaNeue-Bold" font-weight="bold" font-size="23.0" fill="#000000" transform="matrix(1.00, 0.00, -0.00, -1.00, 482.5, 24.0)">v</text><text xml:space="preserve" font-family="HelveticaNeue-Bold" font-weight="bold" font-size="23.0" fill="#000000" transform="matrix(1.00, 0.00, -0.00, -1.00, 494.4, 24.0)">i</text><text xml:space="preserve" font-family="HelveticaNeue-Bold" font-weight="bold" font-size="23.0" fill="#000000" transform="matrix(1.00, 0.00, -0.00, -1.00, 500.4, 24.0)">c</text><text xml:space="preserve" font-family="HelveticaNeue-Bold" font-weight="bold" font-size="23.0" fill="#000000" transform="matrix(1.00, 0.00, -0.00, -1.00, 513.6, 24.0)">e</text><text xml:space="preserve" font-family="HelveticaNeue-Bold" font-weight="bold" font-size="23.0" fill="#000000" transform="matrix(1.00, 0.00, -0.00, -1.00, 526.8, 24.0)">s</text><text xml:space="preserve" font-family="HelveticaNeue-Bold" font-weight="bold" font-size="23.0" fill="#000000" transform="matrix(1.00, 0.00, -0.00, -1.00, 539.1, 24.0)"> </text><text xml:space="preserve" font-family="HelveticaNeue-Bold" font-weight="bold" font-size="23.0" fill="#000000" transform="matrix(1.00, 0.00, -0.00, -1.00, 545.5, 24.0)">a</text><text xml:space="preserve" font-family="HelveticaNeue-Bold" font-weight="bold" font-size="23.0" fill="#000000" transform="matrix(1.00, 0.00, -0.00, -1.00, 558.7, 24.0)">n</text><text xml:space="preserve" font-family="HelveticaNeue-Bold" font-weight="bold" font-size="23.0" fill="#000000" transform="matrix(1.00, 0.00, -0.00, -1.00, 572.4, 24.0)">d</text><text xml:space="preserve" font-family="HelveticaNeue-Bold" font-weight="bold" font-size="23.0" fill="#000000" transform="matrix(1.00, 0.00, -0.00, -1.00, 586.4, 24.0)"> </text><text xml:space="preserve" font-family="HelveticaNeue-Bold" font-weight="bold" font-size="23.0" fill="#000000" transform="matrix(1.00, 0.00, -0.00, -1.00, 592.8, 24.0)">c</text><text xml:space="preserve" font-family="HelveticaNeue-Bold" font-weight="bold" font-size="23.0" fill="#000000" transform="matrix(1.00, 0.00, -0.00, -1.00, 606.0, 24.0)">o</text><text xml:space="preserve" font-family="HelveticaNeue-Bold" font-weight="bold" font-size="23.0" fill="#000000" transform="matrix(1.00, 0.00, -0.00, -1.00, 620.1, 24.0)">n</text><text xml:space="preserve" font-family="HelveticaNeue-Bold" font-weight="bold" font-size="23.0" fill="#000000" transform="matrix(1.00, 0.00, -0.00, -1.00, 633.7, 24.0)">t</text><text xml:space="preserve" font-family="HelveticaNeue-Bold" font-weight="bold" font-size="23.0" fill="#000000" transform="matrix(1.00, 0.00, -0.00, -1.00, 641.8, 24.0)">i</text><text xml:space="preserve" font-family="HelveticaNeue-Bold" font-weight="bold" font-size="23.0" fill="#000000" transform="matrix(1.00, 0.00, -0.00, -1.00, 647.7, 24.0)">n</text><text xml:space="preserve" font-family="HelveticaNeue-Bold" font-weight="bold" font-size="23.0" fill="#000000" transform="matrix(1.00, 0.00, -0.00, -1.00, 661.4, 24.0)">u</text><text xml:space="preserve" font-family="HelveticaNeue-Bold" font-weight="bold" font-size="23.0" fill="#000000" transform="matrix(1.00, 0.00, -0.00, -1.00, 675.0, 24.0)">o</text><text xml:space="preserve" font-family="HelveticaNeue-Bold" font-weight="bold" font-size="23.0" fill="#000000" transform="matrix(1.00, 0.00, -0.00, -1.00, 689.1, 24.0)">u</text><text xml:space="preserve" font-family="HelveticaNeue-Bold" font-weight="bold" font-size="23.0" fill="#000000" transform="matrix(1.00, 0.00, -0.00, -1.00, 702.7, 24.0)">s</text><text xml:space="preserve" font-family="HelveticaNeue-Bold" font-weight="bold" font-size="23.0" fill="#000000" transform="matrix(1.00, 0.00, -0.00, -1.00, 715.1, 24.0)"> </text><text xml:space="preserve" font-family="HelveticaNeue-Bold" font-weight="bold" font-size="23.0" fill="#000000" transform="matrix(1.00, 0.00, -0.00, -1.00, 721.4, 24.0)">d</text><text xml:space="preserve" font-family="HelveticaNeue-Bold" font-weight="bold" font-size="23.0" fill="#000000" transform="matrix(1.00, 0.00, -0.00, -1.00, 735.5, 24.0)">e</text><text xml:space="preserve" font-family="HelveticaNeue-Bold" font-weight="bold" font-size="23.0" fill="#000000" transform="matrix(1.00, 0.00, -0.00, -1.00, 748.7, 24.0)">l</text><text xml:space="preserve" font-family="HelveticaNeue-Bold" font-weight="bold" font-size="23.0" fill="#000000" transform="matrix(1.00, 0.00, -0.00, -1.00, 754.6, 24.0)">i</text><text xml:space="preserve" font-family="HelveticaNeue-Bold" font-weight="bold" font-size="23.0" fill="#000000" transform="matrix(1.00, 0.00, -0.00, -1.00, 760.6, 24.0)">v</text><text xml:space="preserve" font-family="HelveticaNeue-Bold" font-weight="bold" font-size="23.0" fill="#000000" transform="matrix(1.00, 0.00, -0.00, -1.00, 772.5, 24.0)">e</text><text xml:space="preserve" font-family="HelveticaNeue-Bold" font-weight="bold" font-size="23.0" fill="#000000" transform="matrix(1.00, 0.00, -0.00, -1.00, 785.7, 24.0)">r</text><text xml:space="preserve" font-family="HelveticaNeue-Bold" font-weight="bold" font-size="23.0" fill="#000000" transform="matrix(1.00, 0.00, -0.00, -1.00, 794.7, 24.0)">y</text><text xml:space="preserve" font-family="HelveticaNeue-Bold" font-weight="bold" font-size="23.0" fill="#000000" transform="matrix(1.00, 0.00, -0.00, -1.00, 806.6, 24.0)"> </text><text xml:space="preserve" font-family="HelveticaNeue-Bold" font-weight="bold" font-size="23.0" fill="#000000" transform="matrix(1.00, 0.00, -0.00, -1.00, 813.0, 24.0)">a</text><text xml:space="preserve" font-family="HelveticaNeue-Bold" font-weight="bold" font-size="23.0" fill="#000000" transform="matrix(1.00, 0.00, -0.00, -1.00, 826.2, 24.0)">t</text><text xml:space="preserve" font-family="HelveticaNeue-Bold" font-weight="bold" font-size="23.0" fill="#000000" transform="matrix(1.00, 0.00, -0.00, -1.00, 834.3, 24.0)"> </text><text xml:space="preserve" font-family="HelveticaNeue-Bold" font-weight="bold" font-size="23.0" fill="#000000" transform="matrix(1.00, 0.00, -0.00, -1.00, 840.7, 24.0)">t</text><text xml:space="preserve" font-family="HelveticaNeue-Bold" font-weight="bold" font-size="23.0" fill="#000000" transform="matrix(1.00, 0.00, -0.00, -1.00, 848.8, 24.0)">h</text><text xml:space="preserve" font-family="HelveticaNeue-Bold" font-weight="bold" font-size="23.0" fill="#000000" transform="matrix(1.00, 0.00, -0.00, -1.00, 862.4, 24.0)">e</text><text xml:space="preserve" font-family="HelveticaNeue-Bold" font-weight="bold" font-size="23.0" fill="#000000" transform="matrix(1.00, 0.00, -0.00, -1.00, 875.6, 24.0)"> </text><text xml:space="preserve" font-family="HelveticaNeue-Bold" font-weight="bold" font-size="23.0" fill="#000000" transform="matrix(1.00, 0.00, -0.00, -1.00, 882.0, 24.0)">B</text><text xml:space="preserve" font-family="HelveticaNeue-Bold" font-weight="bold" font-size="23.0" fill="#000000" transform="matrix(1.00, 0.00, -0.00, -1.00, 898.2, 24.0)">B</text><text xml:space="preserve" font-family="HelveticaNeue-Bold" font-weight="bold" font-size="23.0" fill="#000000" transform="matrix(1.00, 0.00, -0.00, -1.00, 914.4, 24.0)">C</text><image xlink:href="../../D0517147-4847-4A0F-8B98-32B995C105A1/assets/0BF8E63FE00997E10C4EC11A1CFD77DD.png" width="97.00" height="27.00" transform="matrix(1.00, 0.00, -0.00, -1.00, 1751.0, 44.0)"></image><g><clipPath id="clip-475"><path d="M 254.0 180.0 L 1588.2 180.0 L 1588.2 903.6 L 254.0 903.6 Z M 254.0 180.0 "></path></clipPath><g clip-path="url(#clip-475)"><image xlink:href="1C90B5E3BC65854BC08578FDC08BF388.png" width="36.00" height="40.00" transform="matrix(1.81, 0.00, -0.00, 1.80, 254.0, 640.2)"></image><image xlink:href="017DB0FB988542E910732024B5668633.png" width="31.00" height="31.00" transform="matrix(1.81, 0.00, -0.00, 1.80, 257.6, 685.3)"></image><image xlink:href="7854AC818F7D18D8B8AB9754BCEB4697.png" width="36.00" height="40.00" transform="matrix(1.81, 0.00, -0.00, 1.80, 254.0, 365.9)"></image><image xlink:href="E1226CBC7F4A869225B731A678D2AE64.png" width="31.00" height="31.00" transform="matrix(1.81, 0.00, -0.00, 1.80, 257.6, 412.8)"></image><path d="M 476.2 756.0 L 607.6 756.0 C 623.1 756.0 635.8 721.7 635.8 679.3 C 635.8 637.0 623.1 602.6 607.6 602.6 L 476.2 602.6 C 460.6 602.6 448.0 637.0 448.0 679.3 C 448.0 721.7 460.6 756.0 476.2 756.0 " fill="#FEFFFF"></path><path d="M 215.6 163.7 L 288.4 163.7 C 297.0 163.0 304.0 182.0 304.0 205.5 C 304.0 229.0 297.0 248.0 288.4 248.7 L 215.6 248.7 C 207.0 248.0 200.0 229.0 200.0 205.5 C 200.0 182.0 207.0 163.0 215.6 163.0 " fill="none" stroke="#000000" stroke-width="1.00" stroke-miterlimit="0.00" stroke-linecap="round" stroke-linejoin="round" transform="matrix(1.81, 0.00, 0.00, -1.80, 86.9, 1050.2)"></path><text xml:space="preserve" font-family="Helvetica" font-size="12.0" fill="#000000" transform="matrix(1.81, 0.00, -0.00, -1.80, 495.7, 684.7)">P</text><text xml:space="preserve" font-family="Helvetica" font-size="12.0" fill="#000000" transform="matrix(1.81, 0.00, -0.00, -1.80, 510.1, 684.7)">H</text><text xml:space="preserve" font-family="Helvetica" font-size="12.0" fill="#000000" transform="matrix(1.81, 0.00, -0.00, -1.80, 525.8, 684.7)">P</text><text xml:space="preserve" font-family="Helvetica" font-size="12.0" fill="#000000" transform="matrix(1.81, 0.00, -0.00, -1.80, 539.9, 684.7)"> </text><text xml:space="preserve" font-family="Helvetica" font-size="12.0" fill="#000000" transform="matrix(1.81, 0.00, -0.00, -1.80, 545.9, 684.7)">f</text><text xml:space="preserve" font-family="Helvetica" font-size="12.0" fill="#000000" transform="matrix(1.81, 0.00, -0.00, -1.80, 551.9, 684.7)">o</text><text xml:space="preserve" font-family="Helvetica" font-size="12.0" fill="#000000" transform="matrix(1.81, 0.00, -0.00, -1.80, 563.9, 684.7)">o</text><text xml:space="preserve" font-family="Helvetica" font-size="12.0" fill="#000000" transform="matrix(1.81, 0.00, -0.00, -1.80, 576.0, 684.7)">d</text><text xml:space="preserve" font-family="Helvetica" font-size="12.0" fill="#000000" transform="matrix(1.81, 0.00, -0.00, -1.80, 588.1, 684.7)"> </text><text xml:space="preserve" font-family="Helvetica" font-size="12.0" fill="#000000" transform="matrix(1.81, 0.00, -0.00, -1.80, 490.1, 659.5)">a</text><text xml:space="preserve" font-family="Helvetica" font-size="12.0" fill="#000000" transform="matrix(1.81, 0.00, -0.00, -1.80, 502.1, 659.5)">p</text><text xml:space="preserve" font-family="Helvetica" font-size="12.0" fill="#000000" transform="matrix(1.81, 0.00, -0.00, -1.80, 514.2, 659.5)">p</text><text xml:space="preserve" font-family="Helvetica" font-size="12.0" fill="#000000" transform="matrix(1.81, 0.00, -0.00, -1.80, 526.2, 659.5)">l</text><text xml:space="preserve" font-family="Helvetica" font-size="12.0" fill="#000000" transform="matrix(1.81, 0.00, -0.00, -1.80, 531.1, 659.5)">i</text><text xml:space="preserve" font-family="Helvetica" font-size="12.0" fill="#000000" transform="matrix(1.81, 0.00, -0.00, -1.80, 535.9, 659.5)">c</text><text xml:space="preserve" font-family="Helvetica" font-size="12.0" fill="#000000" transform="matrix(1.81, 0.00, -0.00, -1.80, 546.7, 659.5)">a</text><text xml:space="preserve" font-family="Helvetica" font-size="12.0" fill="#000000" transform="matrix(1.81, 0.00, -0.00, -1.80, 558.8, 659.5)">t</text><text xml:space="preserve" font-family="Helvetica" font-size="12.0" fill="#000000" transform="matrix(1.81, 0.00, -0.00, -1.80, 564.8, 659.5)">i</text><text xml:space="preserve" font-family="Helvetica" font-size="12.0" fill="#000000" transform="matrix(1.81, 0.00, -0.00, -1.80, 569.6, 659.5)">o</text><text xml:space="preserve" font-family="Helvetica" font-size="12.0" fill="#000000" transform="matrix(1.81, 0.00, -0.00, -1.80, 581.6, 659.5)">n</text><path d="M 476.2 489.0 L 607.6 489.0 C 623.1 489.0 635.8 454.6 635.8 412.3 C 635.8 369.9 623.1 335.6 607.6 335.6 L 476.2 335.6 C 460.6 335.6 448.0 369.9 448.0 412.3 C 448.0 454.6 460.6 489.0 476.2 489.0 " fill="#FEFFFF"></path><path d="M 215.6 311.7 L 288.4 311.7 C 297.0 311.0 304.0 330.0 304.0 353.5 C 304.0 377.0 297.0 396.0 288.4 396.7 L 215.6 396.7 C 207.0 396.0 200.0 377.0 200.0 353.5 C 200.0 330.0 207.0 311.0 215.6 311.0 " fill="none" stroke="#000000" stroke-width="1.00" stroke-miterlimit="0.00" stroke-linecap="round" stroke-linejoin="round" transform="matrix(1.81, 0.00, 0.00, -1.80, 86.9, 1050.2)"></path><text xml:space="preserve" font-family="Helvetica" font-size="12.0" fill="#000000" transform="matrix(1.81, 0.00, -0.00, -1.80, 512.4, 417.7)">a</text><text xml:space="preserve" font-family="Helvetica" font-size="12.0" fill="#000000" transform="matrix(1.81, 0.00, -0.00, -1.80, 524.4, 417.7)">d</text><text xml:space="preserve" font-family="Helvetica" font-size="12.0" fill="#000000" transform="matrix(1.81, 0.00, -0.00, -1.80, 536.5, 417.7)">m</text><text xml:space="preserve" font-family="Helvetica" font-size="12.0" fill="#000000" transform="matrix(1.81, 0.00, -0.00, -1.80, 554.5, 417.7)">i</text><text xml:space="preserve" font-family="Helvetica" font-size="12.0" fill="#000000" transform="matrix(1.81, 0.00, -0.00, -1.80, 559.3, 417.7)">n</text><text xml:space="preserve" font-family="Helvetica" font-size="12.0" fill="#000000" transform="matrix(1.81, 0.00, -0.00, -1.80, 571.4, 417.7)"> </text><text xml:space="preserve" font-family="Helvetica" font-size="12.0" fill="#000000" transform="matrix(1.81, 0.00, -0.00, -1.80, 490.1, 392.4)">a</text><text xml:space="preserve" font-family="Helvetica" font-size="12.0" fill="#000000" transform="matrix(1.81, 0.00, -0.00, -1.80, 502.1, 392.4)">p</text><text xml:space="preserve" font-family="Helvetica" font-size="12.0" fill="#000000" transform="matrix(1.81, 0.00, -0.00, -1.80, 514.2, 392.4)">p</text><text xml:space="preserve" font-family="Helvetica" font-size="12.0" fill="#000000" transform="matrix(1.81, 0.00, -0.00, -1.80, 526.2, 392.4)">l</text><text xml:space="preserve" font-family="Helvetica" font-size="12.0" fill="#000000" transform="matrix(1.81, 0.00, -0.00, -1.80, 531.1, 392.4)">i</text><text xml:space="preserve" font-family="Helvetica" font-size="12.0" fill="#000000" transform="matrix(1.81, 0.00, -0.00, -1.80, 535.9, 392.4)">c</text><text xml:space="preserve" font-family="Helvetica" font-size="12.0" fill="#000000" transform="matrix(1.81, 0.00, -0.00, -1.80, 546.7, 392.4)">a</text><text xml:space="preserve" font-family="Helvetica" font-size="12.0" fill="#000000" transform="matrix(1.81, 0.00, -0.00, -1.80, 558.8, 392.4)">t</text><text xml:space="preserve" font-family="Helvetica" font-size="12.0" fill="#000000" transform="matrix(1.81, 0.00, -0.00, -1.80, 564.8, 392.4)">i</text><text xml:space="preserve" font-family="Helvetica" font-size="12.0" fill="#000000" transform="matrix(1.81, 0.00, -0.00, -1.80, 569.6, 392.4)">o</text><text xml:space="preserve" font-family="Helvetica" font-size="12.0" fill="#000000" transform="matrix(1.81, 0.00, -0.00, -1.80, 581.6, 392.4)">n</text><text xml:space="preserve" font-family="HelveticaNeue" font-size="16.0" fill="#000000" transform="matrix(1.81, 0.00, -0.00, -1.80, 504.8, 815.6)">F</text><text xml:space="preserve" font-family="HelveticaNeue" font-size="16.0" fill="#000000" transform="matrix(1.81, 0.00, -0.00, -1.80, 521.4, 815.6)">o</text><text xml:space="preserve" font-family="HelveticaNeue" font-size="16.0" fill="#000000" transform="matrix(1.81, 0.00, -0.00, -1.80, 538.0, 815.6)">r</text><text xml:space="preserve" font-family="HelveticaNeue" font-size="16.0" fill="#000000" transform="matrix(1.81, 0.00, -0.00, -1.80, 546.8, 815.6)">g</text><text xml:space="preserve" font-family="HelveticaNeue" font-size="16.0" fill="#000000" transform="matrix(1.81, 0.00, -0.00, -1.80, 563.4, 815.6)">e</text><text xml:space="preserve" font-family="HelveticaNeue" font-size="12.0" fill="#000000" transform="matrix(1.81, 0.00, -0.00, -1.80, 728.4, 632.4)">G</text><text xml:space="preserve" font-family="HelveticaNeue" font-size="12.0" fill="#000000" transform="matrix(1.81, 0.00, -0.00, -1.80, 744.9, 632.4)">E</text><text xml:space="preserve" font-family="HelveticaNeue" font-size="12.0" fill="#000000" transform="matrix(1.81, 0.00, -0.00, -1.80, 758.1, 632.4)">T</text><text xml:space="preserve" font-family="HelveticaNeue" font-size="12.0" fill="#000000" transform="matrix(1.81, 0.00, -0.00, -1.80, 689.9, 430.3)">G</text><text xml:space="preserve" font-family="HelveticaNeue" font-size="12.0" fill="#000000" transform="matrix(1.81, 0.00, -0.00, -1.80, 706.4, 430.3)">E</text><text xml:space="preserve" font-family="HelveticaNeue" font-size="12.0" fill="#000000" transform="matrix(1.81, 0.00, -0.00, -1.80, 719.6, 430.3)">T</text><text xml:space="preserve" font-family="HelveticaNeue" font-size="12.0" fill="#000000" transform="matrix(1.81, 0.00, -0.00, -1.80, 689.9, 405.0)">P</text><text xml:space="preserve" font-family="HelveticaNeue" font-size="12.0" fill="#000000" transform="matrix(1.81, 0.00, -0.00, -1.80, 704.0, 405.0)">U</text><text xml:space="preserve" font-family="HelveticaNeue" font-size="12.0" fill="#000000" transform="matrix(1.81, 0.00, -0.00, -1.80, 719.6, 405.0)">T</text><text xml:space="preserve" font-family="HelveticaNeue" font-size="12.0" fill="#000000" transform="matrix(1.81, 0.00, -0.00, -1.80, 689.9, 379.8)">D</text><text xml:space="preserve" font-family="HelveticaNeue" font-size="12.0" fill="#000000" transform="matrix(1.81, 0.00, -0.00, -1.80, 705.2, 379.8)">E</text><text xml:space="preserve" font-family="HelveticaNeue" font-size="12.0" fill="#000000" transform="matrix(1.81, 0.00, -0.00, -1.80, 718.4, 379.8)">L</text><text xml:space="preserve" font-family="HelveticaNeue" font-size="12.0" fill="#000000" transform="matrix(1.81, 0.00, -0.00, -1.80, 730.4, 379.8)">E</text><text xml:space="preserve" font-family="HelveticaNeue" font-size="12.0" fill="#000000" transform="matrix(1.81, 0.00, -0.00, -1.80, 743.7, 379.8)">T</text><text xml:space="preserve" font-family="HelveticaNeue" font-size="12.0" fill="#000000" transform="matrix(1.81, 0.00, -0.00, -1.80, 756.1, 379.8)">E</text><path d="M 302.7 222.3 L 437.6 266.9 " fill="none" stroke="#000000" stroke-width="1.00" stroke-miterlimit="0.00" stroke-linecap="round" stroke-linejoin="round" transform="matrix(1.81, 0.00, 0.00, -1.80, 86.9, 1050.2)"></path><path d="M 890.7 564.1 L 878.7 573.7 L 875.3 563.4 Z M 890.7 564.1 " fill="#000000"></path><path d="M 445.2 269.4 L 438.5 264.0 L 436.7 269.7 Z M 445.2 269.4 " fill="none" stroke="#000000" stroke-width="1.00" stroke-miterlimit="0.00" transform="matrix(1.81, 0.00, 0.00, -1.80, 86.9, 1050.2)"></path><path d="M 312.6 336.2 L 437.5 300.7 " fill="none" stroke="#000000" stroke-width="1.00" stroke-miterlimit="0.00" stroke-linecap="round" stroke-linejoin="round" transform="matrix(1.81, 0.00, 0.00, -1.80, 86.9, 1050.2)"></path><path d="M 890.6 511.6 L 875.3 512.8 L 878.2 502.4 Z M 890.6 511.6 " fill="#000000"></path><path d="M 445.2 298.5 L 436.7 297.8 L 438.3 303.5 Z M 445.2 298.5 " fill="none" stroke="#000000" stroke-width="1.00" stroke-miterlimit="0.00" transform="matrix(1.81, 0.00, 0.00, -1.80, 86.9, 1050.2)"></path><path d="M 637.4 439.5 L 652.7 438.2 L 649.8 448.6 Z M 637.4 439.5 " fill="#000000"></path><path d="M 304.9 338.4 L 313.4 339.1 L 311.8 333.4 Z M 304.9 338.4 " fill="none" stroke="#000000" stroke-width="1.00" stroke-miterlimit="0.00" transform="matrix(1.81, 0.00, 0.00, -1.80, 86.9, 1050.2)"></path></g></g><g><clipPath id="clip-476"><path d="M 264.9 667.2 C 265.1 664.1 267.1 661.1 271.0 658.7 C 279.1 653.7 292.4 653.7 300.6 658.7 C 304.4 661.1 306.4 664.1 306.7 667.2 L 306.7 667.2 C 306.7 667.3 306.7 667.5 306.7 667.6 C 306.7 667.6 306.7 667.6 306.7 667.6 C 306.7 667.7 306.7 667.8 306.7 667.9 C 306.7 668.0 306.7 668.1 306.7 668.2 C 306.4 688.7 297.1 705.3 285.8 705.3 C 274.4 705.3 265.1 688.7 264.8 668.2 C 264.8 668.1 264.8 668.0 264.8 667.9 C 264.8 667.8 264.8 667.7 264.8 667.6 C 264.8 667.6 264.8 667.6 264.8 667.6 C 264.8 667.5 264.8 667.3 264.8 667.2 L 264.9 667.2 Z M 264.9 667.2 "></path></clipPath><g clip-path="url(#clip-476)"><g><clipPath id="clip-477"><path d="M 254.0 180.0 L 1588.2 180.0 L 1588.2 903.6 L 254.0 903.6 Z M 254.0 180.0 "></path></clipPath><g clip-path="url(#clip-477)"><path d="M 254.0 180.0 L 1588.2 180.0 L 1588.2 903.6 L 254.0 903.6 Z M 254.0 180.0 " fill="url(#gradSh1.24)"></path></g></g></g></g><g><clipPath id="clip-478"><path d="M 254.0 180.0 L 1588.2 180.0 L 1588.2 903.6 L 254.0 903.6 Z M 254.0 180.0 "></path></clipPath><g clip-path="url(#clip-478)"><path d="M 98.5 212.2 C 98.7 213.9 99.8 215.6 101.9 216.9 C 106.5 219.7 113.8 219.7 118.3 216.9 C 120.5 215.6 121.6 213.9 121.7 212.2 L 121.7 212.2 C 121.7 212.2 121.7 212.1 121.7 212.0 C 121.7 212.0 121.7 212.0 121.7 212.0 C 121.7 211.9 121.7 211.9 121.7 211.9 C 121.7 211.8 121.7 211.7 121.7 211.7 C 121.6 200.3 116.4 191.1 110.1 191.1 C 103.8 191.1 98.7 200.3 98.6 211.7 C 98.6 211.7 98.5 211.8 98.5 211.9 C 98.5 211.9 98.5 211.9 98.5 212.0 C 98.5 212.0 98.5 212.0 98.5 212.0 C 98.5 212.1 98.5 212.2 98.5 212.2 L 98.5 212.2 Z M 98.5 212.2 " fill="none" stroke="#000000" stroke-width="2.00" stroke-miterlimit="0.00" stroke-linecap="round" stroke-linejoin="round" transform="matrix(1.81, 0.00, 0.00, -1.80, 86.9, 1050.2)"></path></g></g><g><clipPath id="clip-479"><path d="M 297.4 729.5 C 303.9 723.1 303.9 712.7 297.4 706.2 C 291.0 699.8 280.5 699.8 274.1 706.2 C 267.7 712.7 267.7 723.1 274.1 729.5 C 280.5 736.0 291.0 736.0 297.4 729.5 "></path></clipPath><g clip-path="url(#clip-479)"><g><clipPath id="clip-480"><path d="M 254.0 180.0 L 1588.2 180.0 L 1588.2 903.6 L 254.0 903.6 Z M 254.0 180.0 "></path></clipPath><g clip-path="url(#clip-480)"><path d="M 254.0 180.0 L 1588.2 180.0 L 1588.2 903.6 L 254.0 903.6 Z M 254.0 180.0 " fill="url(#gradSh2.25)"></path></g></g></g></g><g><clipPath id="clip-481"><path d="M 254.0 180.0 L 1588.2 180.0 L 1588.2 903.6 L 254.0 903.6 Z M 254.0 180.0 "></path></clipPath><g clip-path="url(#clip-481)"><path d="M 116.6 177.7 C 120.2 181.2 120.2 187.0 116.6 190.6 C 113.0 194.2 107.2 194.2 103.7 190.6 C 100.1 187.0 100.1 181.2 103.7 177.7 C 107.2 174.1 113.0 174.1 116.6 177.7 " fill="none" stroke="#000000" stroke-width="2.00" stroke-miterlimit="0.00" stroke-linecap="round" stroke-linejoin="round" transform="matrix(1.81, 0.00, 0.00, -1.80, 86.9, 1050.2)"></path></g></g><g><clipPath id="clip-482"><path d="M 264.9 393.8 C 265.1 390.7 267.1 387.7 271.0 385.3 C 279.1 380.3 292.4 380.3 300.6 385.3 C 304.4 387.7 306.4 390.7 306.7 393.8 L 306.7 393.8 C 306.7 393.9 306.7 394.1 306.7 394.2 C 306.7 394.2 306.7 394.3 306.7 394.3 C 306.7 394.3 306.7 394.4 306.7 394.5 C 306.7 394.6 306.7 394.7 306.7 394.8 C 306.4 415.4 297.1 431.9 285.8 431.9 C 274.4 431.9 265.1 415.4 264.8 394.8 C 264.8 394.7 264.8 394.6 264.8 394.5 C 264.8 394.4 264.8 394.3 264.8 394.3 C 264.8 394.2 264.8 394.2 264.8 394.2 C 264.8 394.1 264.8 393.9 264.8 393.8 L 264.9 393.8 Z M 264.9 393.8 "></path></clipPath><g clip-path="url(#clip-482)"><g><clipPath id="clip-483"><path d="M 254.0 180.0 L 1588.2 180.0 L 1588.2 903.6 L 254.0 903.6 Z M 254.0 180.0 "></path></clipPath><g clip-path="url(#clip-483)"><path d="M 254.0 180.0 L 1588.2 180.0 L 1588.2 903.6 L 254.0 903.6 Z M 254.0 180.0 " fill="url(#gradSh3.26)"></path></g></g></g></g><g><clipPath id="clip-484"><path d="M 254.0 180.0 L 1588.2 180.0 L 1588.2 903.6 L 254.0 903.6 Z M 254.0 180.0 "></path></clipPath><g clip-path="url(#clip-484)"><path d="M 98.5 364.2 C 98.7 365.4 99.8 367.1 101.9 368.4 C 106.5 371.2 113.8 371.2 118.3 368.4 C 120.5 367.1 121.6 365.4 121.7 364.2 L 121.7 364.2 C 121.7 363.7 121.7 363.6 121.7 363.5 C 121.7 363.5 121.7 363.5 121.7 363.5 C 121.7 363.4 121.7 363.4 121.7 363.4 C 121.7 363.3 121.7 363.2 121.7 363.2 C 121.6 351.8 116.4 342.6 110.1 342.6 C 103.8 342.6 98.7 351.8 98.6 363.2 C 98.6 363.2 98.5 363.3 98.5 363.4 C 98.5 363.4 98.5 363.4 98.5 363.5 C 98.5 363.5 98.5 363.5 98.5 363.5 C 98.5 363.6 98.5 363.7 98.5 364.2 L 98.5 364.2 Z M 98.5 364.2 " fill="none" stroke="#000000" stroke-width="2.00" stroke-miterlimit="0.00" stroke-linecap="round" stroke-linejoin="round" transform="matrix(1.81, 0.00, 0.00, -1.80, 86.9, 1050.2)"></path></g></g><g><clipPath id="clip-485"><path d="M 297.4 456.2 C 303.9 449.7 303.9 439.3 297.4 432.9 C 291.0 426.4 280.5 426.4 274.1 432.9 C 267.7 439.3 267.7 449.7 274.1 456.2 C 280.5 462.6 291.0 462.6 297.4 456.2 "></path></clipPath><g clip-path="url(#clip-485)"><g><clipPath id="clip-486"><path d="M 254.0 180.0 L 1588.2 180.0 L 1588.2 903.6 L 254.0 903.6 Z M 254.0 180.0 "></path></clipPath><g clip-path="url(#clip-486)"><path d="M 254.0 180.0 L 1588.2 180.0 L 1588.2 903.6 L 254.0 903.6 Z M 254.0 180.0 " fill="url(#gradSh4.27)"></path></g></g></g></g><g><clipPath id="clip-487"><path d="M 254.0 180.0 L 1588.2 180.0 L 1588.2 903.6 L 254.0 903.6 Z M 254.0 180.0 "></path></clipPath><g clip-path="url(#clip-487)"><path d="M 116.6 329.2 C 120.2 332.7 120.2 338.5 116.6 342.1 C 113.0 345.7 107.2 345.7 103.7 342.1 C 100.1 338.5 100.1 332.7 103.7 329.2 C 107.2 325.6 113.0 325.6 116.6 329.2 " fill="none" stroke="#000000" stroke-width="2.00" stroke-miterlimit="0.00" stroke-linecap="round" stroke-linejoin="round" transform="matrix(1.81, 0.00, 0.00, -1.80, 86.9, 1050.2)"></path><path d="M 122.1 205.1 L 190.1 205.3 " fill="none" stroke="#000000" stroke-width="1.00" stroke-miterlimit="0.00" stroke-linecap="round" stroke-linejoin="round" transform="matrix(1.81, 0.00, 0.00, -1.80, 86.9, 1050.2)"></path><path d="M 444.6 679.6 L 430.1 685.1 L 430.1 674.3 Z M 444.6 679.6 " fill="#000000"></path><path d="M 198.1 205.3 L 190.1 202.3 L 190.1 208.3 Z M 198.1 205.3 " fill="none" stroke="#000000" stroke-width="1.00" stroke-miterlimit="0.00" transform="matrix(1.81, 0.00, 0.00, -1.80, 86.9, 1050.2)"></path><path d="M 122.0 356.3 L 190.1 354.8 " fill="none" stroke="#000000" stroke-width="1.00" stroke-miterlimit="0.00" stroke-linecap="round" stroke-linejoin="round" transform="matrix(1.81, 0.00, 0.00, -1.80, 86.9, 1050.2)"></path><path d="M 444.6 410.2 L 430.0 415.3 L 430.2 404.4 Z M 444.6 410.2 " fill="#000000"></path><path d="M 198.1 354.7 L 190.0 351.8 L 190.2 357.8 Z M 198.1 354.7 " fill="none" stroke="#000000" stroke-width="1.00" stroke-miterlimit="0.00" transform="matrix(1.81, 0.00, 0.00, -1.80, 86.9, 1050.2)"></path><path d="M 978.9 536.5 C 977.7 536.2 976.4 535.9 975.1 535.7 C 974.4 535.5 973.7 535.4 978.9 536.5 Z M 978.9 536.5 " fill="#20405E"></path><path d="M 975.8 626.1 C 992.6 626.1 1007.0 625.0 1018.8 623.1 C 1044.2 619.3 1057.7 612.7 1057.7 608.7 C 1057.7 604.7 1044.2 598.0 1018.8 594.2 C 1007.0 592.4 992.6 591.2 975.8 591.2 C 922.8 591.2 893.9 602.8 893.9 608.7 C 893.9 614.6 922.8 626.1 975.8 626.1 Z M 975.8 626.1 " fill="#666967"></path><path d="M 1057.7 608.7 L 1057.7 599.9 C 1057.7 595.8 1044.2 589.2 1018.8 585.4 C 1007.0 583.6 992.6 582.4 975.8 582.4 C 922.8 582.4 893.9 594.0 893.9 599.9 L 893.9 608.7 C 893.9 602.8 922.8 591.2 975.8 591.2 C 992.6 591.2 1007.0 592.4 1018.8 594.2 C 1044.2 598.0 1057.7 604.7 1057.7 608.7 Z M 1057.7 608.7 " fill="#414341"></path><path d="M 1057.7 608.7 L 1057.7 599.9 C 1057.7 599.8 1057.7 599.6 1057.6 599.5 L 1057.6 608.3 C 1057.7 608.5 1057.7 608.6 1057.7 608.7 Z M 1057.7 608.7 " fill="#414341"></path><path d="M 1057.6 608.3 L 1057.6 599.5 C 1057.6 599.4 1057.6 599.2 1057.5 599.0 L 1057.5 607.8 C 1057.6 608.0 1057.6 608.2 1057.6 608.3 Z M 1057.6 608.3 " fill="#414341"></path><path d="M 1057.5 607.8 L 1057.5 599.0 C 1057.4 598.8 1057.2 598.5 1057.1 598.3 L 1057.1 607.1 C 1057.2 607.4 1057.4 607.6 1057.5 607.8 Z M 1057.5 607.8 " fill="#414341"></path><path d="M 1057.1 607.1 L 1057.1 598.3 C 1054.2 594.2 1041.0 588.7 1018.8 585.4 C 1007.0 583.6 992.6 582.4 975.8 582.4 C 922.8 582.4 893.9 594.0 893.9 599.9 L 893.9 608.7 C 893.9 602.8 922.8 591.2 975.8 591.2 C 992.6 591.2 1007.0 592.4 1018.8 594.2 C 1041.0 597.5 1054.2 603.1 1057.1 607.1 Z M 1057.1 607.1 " fill="#414341"></path><path d="M 1057.6 476.0 C 1057.7 476.4 1057.8 476.8 1057.8 477.2 L 1057.8 463.0 C 1057.8 462.8 1057.8 462.6 1057.8 462.5 C 1057.7 462.3 1057.7 462.0 1057.6 461.8 L 1057.6 461.8 L 1057.5 461.7 C 1057.4 461.4 1057.2 461.2 1057.0 460.9 C 1057.0 460.8 1056.9 460.8 1056.9 460.7 C 1056.7 460.5 1056.5 460.3 1056.4 460.1 C 1056.2 459.9 1055.9 459.7 1055.7 459.4 C 1055.4 459.2 1055.2 459.0 1054.9 458.8 C 1054.6 458.6 1054.3 458.3 1053.9 458.1 C 1053.6 457.9 1053.3 457.7 1053.0 457.4 C 1052.6 457.2 1052.1 457.0 1051.7 456.7 C 1051.3 456.5 1050.9 456.3 1050.5 456.1 C 1050.0 455.8 1049.4 455.6 1048.8 455.3 C 1048.4 455.1 1047.9 454.9 1047.5 454.7 C 1046.7 454.4 1046.0 454.1 1045.2 453.9 C 1044.7 453.7 1044.3 453.5 1043.9 453.4 C 1042.6 452.9 1041.3 452.5 1039.8 452.1 C 1039.3 451.9 1038.8 451.8 1038.3 451.7 C 1037.3 451.4 1036.2 451.1 1035.1 450.8 C 1034.4 450.7 1033.7 450.5 1033.0 450.4 C 1031.9 450.1 1030.9 449.9 1029.8 449.7 C 1029.0 449.5 1028.1 449.4 1027.3 449.2 C 1026.2 449.0 1025.0 448.8 1023.8 448.6 C 1022.9 448.5 1022.0 448.4 1021.0 448.2 C 1019.8 448.0 1018.5 447.9 1017.2 447.7 C 1016.3 447.6 1015.3 447.5 1014.2 447.4 C 1012.9 447.2 1011.4 447.1 1010.0 446.9 C 1008.9 446.8 1007.9 446.7 1006.8 446.6 C 1005.2 446.5 1003.6 446.4 1002.0 446.3 C 1000.9 446.2 999.8 446.2 998.7 446.1 C 996.9 446.0 994.9 445.9 992.9 445.9 C 992.0 445.8 991.0 445.8 990.0 445.8 C 987.0 445.7 983.9 445.6 980.6 445.6 C 950.8 445.6 928.3 448.9 913.6 452.8 C 902.7 456.1 894.9 459.7 894.0 462.5 L 894.0 476.7 C 894.9 474.1 901.7 470.8 911.4 467.8 L 911.2 468.6 C 925.9 464.7 950.8 459.9 980.6 459.9 C 983.9 459.9 987.0 459.9 990.0 460.0 C 991.0 460.0 991.9 460.1 992.9 460.1 C 994.9 460.2 996.9 460.3 998.7 460.4 C 999.8 460.4 1000.9 460.5 1001.9 460.6 C 1003.6 460.7 1005.2 460.8 1006.8 460.9 C 1007.9 461.0 1008.9 461.1 1009.9 461.2 C 1011.4 461.3 1012.9 461.5 1014.3 461.6 C 1015.3 461.7 1016.2 461.8 1017.1 461.9 C 1018.5 462.1 1019.9 462.3 1021.2 462.5 L 1039.7 466.3 C 1041.2 466.7 1042.7 467.2 1044.0 467.6 L 1047.6 469.0 C 1047.9 469.1 1048.1 469.3 1048.4 469.4 C 1049.2 469.7 1049.9 470.0 1050.6 470.4 C 1050.9 470.5 1051.2 470.7 1051.4 470.8 C 1052.0 471.1 1052.6 471.4 1053.1 471.8 C 1053.3 471.9 1053.6 472.1 1053.8 472.2 C 1054.2 472.5 1054.7 472.8 1055.0 473.1 C 1055.2 473.3 1055.4 473.4 1055.6 473.6 C 1055.9 473.9 1056.2 474.2 1056.4 474.4 C 1056.6 474.6 1056.7 474.7 1056.8 474.9 Z M 1057.6 476.0 " fill="#414341"></path><path d="M 1017.8 580.0 C 1015.6 579.7 1013.3 579.4 1011.1 579.1 C 1009.9 579.0 1008.7 578.8 1007.5 578.7 C 1005.4 578.5 1003.3 578.3 1001.2 578.1 C 999.8 578.0 998.4 577.9 997.0 577.8 C 994.3 577.7 991.5 577.5 988.7 577.4 L 987.3 577.4 C 984.1 577.2 980.8 577.2 977.4 577.2 C 976.7 577.2 976.0 577.2 975.2 577.2 C 942.7 577.2 910.0 581.9 894.0 590.9 L 894.0 471.3 C 894.9 468.5 902.7 464.9 913.5 461.6 C 928.1 457.7 950.7 454.5 980.6 454.5 C 1035.1 454.5 1057.8 465.7 1057.8 471.8 L 1057.9 592.0 C 1049.4 587.0 1035.7 582.7 1017.8 580.0 Z M 1017.8 580.0 " fill="#666967"></path><text xml:space="preserve" font-family="Helvetica" font-size="12.0" fill="#000000" transform="matrix(1.81, 0.00, -0.00, -1.80, 932.6, 516.0)">K</text><text xml:space="preserve" font-family="Helvetica" font-size="12.0" fill="#000000" transform="matrix(1.81, 0.00, -0.00, -1.80, 947.1, 516.0)">V</text><text xml:space="preserve" font-family="Helvetica" font-size="12.0" fill="#000000" transform="matrix(1.81, 0.00, -0.00, -1.80, 961.5, 516.0)"> </text><text xml:space="preserve" font-family="Helvetica" font-size="12.0" fill="#000000" transform="matrix(1.81, 0.00, -0.00, -1.80, 967.6, 516.0)">S</text><text xml:space="preserve" font-family="Helvetica" font-size="12.0" fill="#000000" transform="matrix(1.81, 0.00, -0.00, -1.80, 982.0, 516.0)">t</text><text xml:space="preserve" font-family="Helvetica" font-size="12.0" fill="#000000" transform="matrix(1.81, 0.00, -0.00, -1.80, 988.0, 516.0)">o</text><text xml:space="preserve" font-family="Helvetica" font-size="12.0" fill="#000000" transform="matrix(1.81, 0.00, -0.00, -1.80, 1000.1, 516.0)">r</text><text xml:space="preserve" font-family="Helvetica" font-size="12.0" fill="#000000" transform="matrix(1.81, 0.00, -0.00, -1.80, 1007.3, 516.0)">e</text><path d="M 564.0 83.0 L 566.1 440.4 L 565.6 480.2 " fill="none" stroke="#AB3933" stroke-width="1.00" stroke-miterlimit="0.00" stroke-linecap="round" stroke-linejoin="round" stroke-dasharray="4.0, 4.0" transform="matrix(1.81, 0.00, 0.00, -1.80, 86.9, 1050.2)"></path><path d="M 1550.2 595.2 L 1563.6 585.5 L 1563.6 599.2 L 1550.1 615.0 L 1550.1 595.2 L 1550.2 595.2 Z M 1550.2 595.2 " fill="#3367A2"></path><path d="M 1524.3 498.0 L 1550.1 510.9 L 1550.1 615.1 L 1524.3 627.9 Z M 1524.3 498.0 " fill="#5189BB"></path><path d="M 1487.6 498.0 L 1461.8 510.9 L 1461.8 615.1 L 1487.6 627.9 Z M 1487.6 498.0 " fill="#285285"></path><path d="M 1487.6 627.9 L 1524.3 627.9 L 1524.3 498.0 L 1487.6 498.0 Z M 1487.6 627.9 " fill="#3367A2"></path><path d="M 1550.1 530.6 L 1550.1 510.9 L 1563.6 526.7 L 1563.6 540.4 L 1550.2 530.7 Z M 1550.1 530.6 " fill="#3367A2"></path><path d="M 1550.1 539.0 L 1550.2 539.0 L 1563.6 546.2 L 1563.6 560.0 L 1550.1 558.8 Z M 1550.1 539.0 " fill="#3367A2"></path><path d="M 1550.2 586.8 L 1550.1 586.8 L 1550.1 567.1 L 1563.6 565.9 L 1563.6 579.7 Z M 1550.2 586.8 " fill="#3367A2"></path><path d="M 1563.6 565.9 L 1550.1 567.1 L 1524.3 568.2 L 1487.6 568.2 L 1461.8 567.1 L 1461.8 586.8 L 1461.8 586.8 L 1461.8 586.8 L 1487.6 592.8 L 1524.3 592.8 L 1550.1 586.8 L 1559.6 581.8 L 1559.6 585.0 L 1563.6 585.5 L 1550.1 595.2 L 1524.3 603.2 L 1487.6 603.2 L 1461.8 595.2 L 1461.8 615.0 L 1448.3 599.2 L 1448.3 585.4 L 1448.4 585.5 L 1452.3 585.0 L 1452.3 581.7 L 1448.3 579.6 L 1448.3 565.9 L 1448.4 565.9 L 1452.3 565.8 L 1452.3 560.0 L 1448.9 560.0 L 1448.3 560.0 L 1448.3 546.3 L 1452.3 544.1 L 1452.3 540.8 L 1448.4 540.4 L 1448.3 540.5 L 1448.3 526.7 L 1461.8 510.9 L 1461.8 530.6 L 1487.6 522.6 L 1524.3 522.6 L 1550.2 530.7 L 1563.6 540.4 L 1559.6 540.8 L 1559.6 544.1 L 1550.2 539.0 L 1524.3 533.1 L 1524.3 533.1 L 1487.6 533.1 L 1487.6 533.1 L 1461.7 539.0 L 1461.7 539.1 L 1461.8 539.0 L 1461.8 558.8 L 1487.6 557.8 L 1487.6 557.7 L 1524.3 557.7 L 1524.3 557.8 L 1550.1 558.8 L 1563.6 560.0 L 1559.6 560.0 L 1559.6 565.8 Z M 1563.6 565.9 " fill="#213F5E"></path><text xml:space="preserve" font-family="HelveticaNeue" font-size="16.0" fill="#000000" transform="matrix(1.81, 0.00, -0.00, -1.80, 1432.1, 644.1)">D</text><text xml:space="preserve" font-family="HelveticaNeue" font-size="16.0" fill="#000000" transform="matrix(1.81, 0.00, -0.00, -1.80, 1452.4, 644.1)">y</text><text xml:space="preserve" font-family="HelveticaNeue" font-size="16.0" fill="#000000" transform="matrix(1.81, 0.00, -0.00, -1.80, 1466.9, 644.1)">n</text><text xml:space="preserve" font-family="HelveticaNeue" font-size="16.0" fill="#000000" transform="matrix(1.81, 0.00, -0.00, -1.80, 1482.9, 644.1)">a</text><text xml:space="preserve" font-family="HelveticaNeue" font-size="16.0" fill="#000000" transform="matrix(1.81, 0.00, -0.00, -1.80, 1498.5, 644.1)">m</text><text xml:space="preserve" font-family="HelveticaNeue" font-size="16.0" fill="#000000" transform="matrix(1.81, 0.00, -0.00, -1.80, 1523.1, 644.1)">o</text><text xml:space="preserve" font-family="HelveticaNeue" font-size="16.0" fill="#000000" transform="matrix(1.81, 0.00, -0.00, -1.80, 1539.7, 644.1)">D</text><text xml:space="preserve" font-family="HelveticaNeue" font-size="16.0" fill="#000000" transform="matrix(1.81, 0.00, -0.00, -1.80, 1560.0, 644.1)">B</text></g></g></g></svg>