<?xml version="1.0" encoding="UTF-8" standalone="no"?><svg xmlns="http://www.w3.org/2000/svg" xmlns:xlink="http://www.w3.org/1999/xlink" clip-rule="evenodd" stroke-miterlimit="4.00" viewBox="0 0 1920 1080"><desc>SVG generated by Keynote</desc><defs></defs><g transform="matrix(1.00, 0.00, -0.00, -1.00, 0.0, 1080.0)"><path d="M 0.0 1080.0 L 1920.0 1080.0 L 1920.0 0.0 L 0.0 0.0 Z M 0.0 1080.0 " fill="#EEEDED"></path><path d="M 0.0 0.0 L 1836.0 0.0 " fill="none" stroke="#000000" stroke-width="2.00" transform="matrix(1.00, 0.00, 0.00, -1.00, 41.0, 58.0)"></path><text xml:space="preserve" font-family="HelveticaNeue-Bold" font-weight="bold" font-size="23.0" fill="#000000" transform="matrix(1.00, 0.00, -0.00, -1.00, 61.0, 24.0)">M</text><text xml:space="preserve" font-family="HelveticaNeue-Bold" font-weight="bold" font-size="23.0" fill="#000000" transform="matrix(1.00, 0.00, -0.00, -1.00, 81.9, 24.0)">i</text><text xml:space="preserve" font-family="HelveticaNeue-Bold" font-weight="bold" font-size="23.0" fill="#000000" transform="matrix(1.00, 0.00, -0.00, -1.00, 87.8, 24.0)">c</text><text xml:space="preserve" font-family="HelveticaNeue-Bold" font-weight="bold" font-size="23.0" fill="#000000" transform="matrix(1.00, 0.00, -0.00, -1.00, 101.0, 24.0)">r</text><text xml:space="preserve" font-family="HelveticaNeue-Bold" font-weight="bold" font-size="23.0" fill="#000000" transform="matrix(1.00, 0.00, -0.00, -1.00, 109.5, 24.0)">o</text><text xml:space="preserve" font-family="HelveticaNeue-Bold" font-weight="bold" font-size="23.0" fill="#000000" transform="matrix(1.00, 0.00, -0.00, -1.00, 123.6, 24.0)">s</text><text xml:space="preserve" font-family="HelveticaNeue-Bold" font-weight="bold" font-size="23.0" fill="#000000" transform="matrix(1.00, 0.00, -0.00, -1.00, 135.9, 24.0)">e</text><text xml:space="preserve" font-family="HelveticaNeue-Bold" font-weight="bold" font-size="23.0" fill="#000000" transform="matrix(1.00, 0.00, -0.00, -1.00, 149.1, 24.0)">r</text><text xml:space="preserve" font-family="HelveticaNeue-Bold" font-weight="bold" font-size="23.0" fill="#000000" transform="matrix(1.00, 0.00, -0.00, -1.00, 158.1, 24.0)">v</text><text xml:space="preserve" font-family="HelveticaNeue-Bold" font-weight="bold" font-size="23.0" fill="#000000" transform="matrix(1.00, 0.00, -0.00, -1.00, 170.0, 24.0)">i</text><text xml:space="preserve" font-family="HelveticaNeue-Bold" font-weight="bold" font-size="23.0" fill="#000000" transform="matrix(1.00, 0.00, -0.00, -1.00, 176.0, 24.0)">c</text><text xml:space="preserve" font-family="HelveticaNeue-Bold" font-weight="bold" font-size="23.0" fill="#000000" transform="matrix(1.00, 0.00, -0.00, -1.00, 189.2, 24.0)">e</text><text xml:space="preserve" font-family="HelveticaNeue-Bold" font-weight="bold" font-size="23.0" fill="#000000" transform="matrix(1.00, 0.00, -0.00, -1.00, 202.4, 24.0)">s</text><text xml:space="preserve" font-family="HelveticaNeue-Bold" font-weight="bold" font-size="23.0" fill="#000000" transform="matrix(1.00, 0.00, -0.00, -1.00, 214.7, 24.0)"> </text><text xml:space="preserve" font-family="HelveticaNeue-Bold" font-weight="bold" font-size="23.0" fill="#000000" transform="matrix(1.00, 0.00, -0.00, -1.00, 221.1, 24.0)">i</text><text xml:space="preserve" font-family="HelveticaNeue-Bold" font-weight="bold" font-size="23.0" fill="#000000" transform="matrix(1.00, 0.00, -0.00, -1.00, 227.1, 24.0)">n</text><text xml:space="preserve" font-family="HelveticaNeue-Bold" font-weight="bold" font-size="23.0" fill="#000000" transform="matrix(1.00, 0.00, -0.00, -1.00, 240.7, 24.0)"> </text><text xml:space="preserve" font-family="HelveticaNeue-Bold" font-weight="bold" font-size="23.0" fill="#000000" transform="matrix(1.00, 0.00, -0.00, -1.00, 247.1, 24.0)">t</text><text xml:space="preserve" font-family="HelveticaNeue-Bold" font-weight="bold" font-size="23.0" fill="#000000" transform="matrix(1.00, 0.00, -0.00, -1.00, 255.2, 24.0)">h</text><text xml:space="preserve" font-family="HelveticaNeue-Bold" font-weight="bold" font-size="23.0" fill="#000000" transform="matrix(1.00, 0.00, -0.00, -1.00, 268.8, 24.0)">e</text><text xml:space="preserve" font-family="HelveticaNeue-Bold" font-weight="bold" font-size="23.0" fill="#000000" transform="matrix(1.00, 0.00, -0.00, -1.00, 282.0, 24.0)"> </text><text xml:space="preserve" font-family="HelveticaNeue-Bold" font-weight="bold" font-size="23.0" fill="#000000" transform="matrix(1.00, 0.00, -0.00, -1.00, 288.4, 24.0)">W</text><text xml:space="preserve" font-family="HelveticaNeue-Bold" font-weight="bold" font-size="23.0" fill="#000000" transform="matrix(1.00, 0.00, -0.00, -1.00, 310.1, 24.0)">i</text><text xml:space="preserve" font-family="HelveticaNeue-Bold" font-weight="bold" font-size="23.0" fill="#000000" transform="matrix(1.00, 0.00, -0.00, -1.00, 316.1, 24.0)">l</text><text xml:space="preserve" font-family="HelveticaNeue-Bold" font-weight="bold" font-size="23.0" fill="#000000" transform="matrix(1.00, 0.00, -0.00, -1.00, 322.0, 24.0)">d</text><image xlink:href="../../D0517147-4847-4A0F-8B98-32B995C105A1/assets/0BF8E63FE00997E10C4EC11A1CFD77DD.png" width="97.00" height="27.00" transform="matrix(1.00, 0.00, -0.00, -1.00, 1751.0, 44.0)"></image><g><clipPath id="clip-346"><path d="M 1005.4 886.3 L 1920.0 886.3 L 1920.0 999.3 L 1005.4 999.3 Z M 1005.4 886.3 "></path></clipPath><g clip-path="url(#clip-346)"><text xml:space="preserve" font-family="HelveticaNeue-Bold" font-weight="bold" font-size="98.0" fill="#282828" transform="matrix(1.00, 0.00, -0.00, -1.00, 1035.0, 903.0)">B</text><text xml:space="preserve" font-family="HelveticaNeue-Bold" font-weight="bold" font-size="98.0" fill="#282828" transform="matrix(1.00, 0.00, -0.00, -1.00, 1104.0, 903.0)">i</text><text xml:space="preserve" font-family="HelveticaNeue-Bold" font-weight="bold" font-size="98.0" fill="#282828" transform="matrix(1.00, 0.00, -0.00, -1.00, 1129.3, 903.0)">t</text><text xml:space="preserve" font-family="HelveticaNeue-Bold" font-weight="bold" font-size="98.0" fill="#282828" transform="matrix(1.00, 0.00, -0.00, -1.00, 1163.8, 903.0)">e</text><text xml:space="preserve" font-family="HelveticaNeue-Bold" font-weight="bold" font-size="98.0" fill="#282828" transform="matrix(1.00, 0.00, -0.00, -1.00, 1220.0, 903.0)">s</text><text xml:space="preserve" font-family="HelveticaNeue-Bold" font-weight="bold" font-size="98.0" fill="#282828" transform="matrix(1.00, 0.00, -0.00, -1.00, 1272.7, 903.0)">i</text><text xml:space="preserve" font-family="HelveticaNeue-Bold" font-weight="bold" font-size="98.0" fill="#282828" transform="matrix(1.00, 0.00, -0.00, -1.00, 1297.9, 903.0)">z</text><text xml:space="preserve" font-family="HelveticaNeue-Bold" font-weight="bold" font-size="98.0" fill="#282828" transform="matrix(1.00, 0.00, -0.00, -1.00, 1348.8, 903.0)">e</text><text xml:space="preserve" font-family="HelveticaNeue-Bold" font-weight="bold" font-size="98.0" fill="#282828" transform="matrix(1.00, 0.00, -0.00, -1.00, 1405.0, 903.0)"> </text><text xml:space="preserve" font-family="HelveticaNeue-Bold" font-weight="bold" font-size="98.0" fill="#282828" transform="matrix(1.00, 0.00, -0.00, -1.00, 1432.3, 903.0)">w</text><text xml:space="preserve" font-family="HelveticaNeue-Bold" font-weight="bold" font-size="98.0" fill="#282828" transform="matrix(1.00, 0.00, -0.00, -1.00, 1512.1, 903.0)">e</text><text xml:space="preserve" font-family="HelveticaNeue-Bold" font-weight="bold" font-size="98.0" fill="#282828" transform="matrix(1.00, 0.00, -0.00, -1.00, 1568.3, 903.0)">b</text><text xml:space="preserve" font-family="HelveticaNeue-Bold" font-weight="bold" font-size="98.0" fill="#282828" transform="matrix(1.00, 0.00, -0.00, -1.00, 1628.2, 903.0)">s</text><text xml:space="preserve" font-family="HelveticaNeue-Bold" font-weight="bold" font-size="98.0" fill="#282828" transform="matrix(1.00, 0.00, -0.00, -1.00, 1680.8, 903.0)">i</text><text xml:space="preserve" font-family="HelveticaNeue-Bold" font-weight="bold" font-size="98.0" fill="#282828" transform="matrix(1.00, 0.00, -0.00, -1.00, 1706.1, 903.0)">t</text><text xml:space="preserve" font-family="HelveticaNeue-Bold" font-weight="bold" font-size="98.0" fill="#282828" transform="matrix(1.00, 0.00, -0.00, -1.00, 1740.6, 903.0)">e</text></g></g><g><clipPath id="clip-347"><path d="M 147.0 166.0 L 1759.0 166.0 L 1759.0 1058.3 L 147.0 1058.3 Z M 147.0 166.0 "></path></clipPath><g clip-path="url(#clip-347)"><path d="M 420.3 719.6 L 737.0 719.6 C 742.4 719.6 746.8 715.1 746.8 709.7 L 746.8 398.6 C 746.8 393.1 742.4 388.7 737.0 388.7 L 420.3 388.7 C 414.9 388.7 410.4 393.1 410.4 398.6 L 410.4 709.7 C 410.4 715.1 414.9 719.6 420.3 719.6 Z M 420.3 719.6 " fill="#FEFFFF"></path><path d="M 232.1 246.9 L 391.9 246.9 C 394.6 246.6 396.9 248.9 397.1 251.6 L 397.1 408.9 C 396.9 411.6 394.6 413.9 391.9 413.9 L 231.8 413.9 C 229.0 413.9 226.8 411.6 227.1 408.9 L 227.1 251.6 C 226.8 248.9 229.0 246.6 232.1 246.9 Z M 232.1 246.9 " fill="none" stroke="#236FB9" stroke-width="1.00" stroke-miterlimit="0.00" stroke-linecap="round" stroke-linejoin="round" transform="matrix(1.98, 0.00, 0.00, -1.98, -38.1, 1207.5)"></path><path d="M 476.4 645.7 L 686.5 645.7 C 692.0 645.7 696.4 641.2 696.4 635.8 L 696.4 543.4 C 696.4 537.9 692.0 533.5 686.5 533.5 L 476.4 533.5 C 470.9 533.5 466.5 537.9 466.5 543.4 L 466.5 635.8 C 466.5 641.2 470.9 645.7 476.4 645.7 Z M 476.4 645.7 " fill="#00FCFF"></path><path d="M 260.1 283.9 L 366.3 283.9 C 369.1 284.0 371.3 286.2 372.1 289.0 L 372.1 335.7 C 371.3 338.4 369.1 340.7 366.3 340.9 L 260.1 340.9 C 257.4 340.7 255.1 338.4 255.1 335.7 L 255.1 289.0 C 255.1 286.2 257.4 284.0 260.1 283.9 Z M 260.1 283.9 " fill="none" stroke="#000000" stroke-width="1.00" stroke-miterlimit="0.00" stroke-linecap="round" stroke-linejoin="round" transform="matrix(1.98, 0.00, 0.00, -1.98, -38.1, 1207.5)"></path><text xml:space="preserve" font-family="Helvetica" font-size="12.0" fill="#000000" transform="matrix(1.98, 0.00, -0.00, -1.98, 535.9, 581.7)">F</text><text xml:space="preserve" font-family="Helvetica" font-size="12.0" fill="#000000" transform="matrix(1.98, 0.00, -0.00, -1.98, 550.4, 581.7)">e</text><text xml:space="preserve" font-family="Helvetica" font-size="12.0" fill="#000000" transform="matrix(1.98, 0.00, -0.00, -1.98, 563.6, 581.7)">t</text><text xml:space="preserve" font-family="Helvetica" font-size="12.0" fill="#000000" transform="matrix(1.98, 0.00, -0.00, -1.98, 570.2, 581.7)">c</text><text xml:space="preserve" font-family="Helvetica" font-size="12.0" fill="#000000" transform="matrix(1.98, 0.00, -0.00, -1.98, 582.1, 581.7)">h</text><text xml:space="preserve" font-family="Helvetica" font-size="12.0" fill="#000000" transform="matrix(1.98, 0.00, -0.00, -1.98, 595.3, 581.7)">i</text><text xml:space="preserve" font-family="Helvetica" font-size="12.0" fill="#000000" transform="matrix(1.98, 0.00, -0.00, -1.98, 600.6, 581.7)">n</text><text xml:space="preserve" font-family="Helvetica" font-size="12.0" fill="#000000" transform="matrix(1.98, 0.00, -0.00, -1.98, 613.8, 581.7)">g</text><path d="M 476.4 527.9 L 686.5 527.9 C 692.0 527.9 696.4 523.5 696.4 518.0 L 696.4 425.6 C 696.4 420.2 692.0 415.7 686.5 415.7 L 476.4 415.7 C 470.9 415.7 466.5 420.2 466.5 425.6 L 466.5 518.0 C 466.5 523.5 470.9 527.9 476.4 527.9 Z M 476.4 527.9 " fill="#FF89D8"></path><path d="M 260.1 343.9 L 366.3 343.9 C 369.1 343.5 371.3 345.7 372.1 348.5 L 372.1 395.2 C 371.3 397.9 369.1 400.2 366.3 400.9 L 260.1 400.9 C 257.4 400.2 255.1 397.9 255.1 395.2 L 255.1 348.5 C 255.1 345.7 257.4 343.5 260.1 343.9 Z M 260.1 343.9 " fill="none" stroke="#000000" stroke-width="1.00" stroke-miterlimit="0.00" stroke-linecap="round" stroke-linejoin="round" transform="matrix(1.98, 0.00, 0.00, -1.98, -38.1, 1207.5)"></path><text xml:space="preserve" font-family="Helvetica" font-size="12.0" fill="#000000" transform="matrix(1.98, 0.00, -0.00, -1.98, 517.5, 463.9)">A</text><text xml:space="preserve" font-family="Helvetica" font-size="12.0" fill="#000000" transform="matrix(1.98, 0.00, -0.00, -1.98, 533.3, 463.9)">g</text><text xml:space="preserve" font-family="Helvetica" font-size="12.0" fill="#000000" transform="matrix(1.98, 0.00, -0.00, -1.98, 546.5, 463.9)">g</text><text xml:space="preserve" font-family="Helvetica" font-size="12.0" fill="#000000" transform="matrix(1.98, 0.00, -0.00, -1.98, 559.7, 463.9)">r</text><text xml:space="preserve" font-family="Helvetica" font-size="12.0" fill="#000000" transform="matrix(1.98, 0.00, -0.00, -1.98, 567.6, 463.9)">e</text><text xml:space="preserve" font-family="Helvetica" font-size="12.0" fill="#000000" transform="matrix(1.98, 0.00, -0.00, -1.98, 580.8, 463.9)">g</text><text xml:space="preserve" font-family="Helvetica" font-size="12.0" fill="#000000" transform="matrix(1.98, 0.00, -0.00, -1.98, 594.0, 463.9)">a</text><text xml:space="preserve" font-family="Helvetica" font-size="12.0" fill="#000000" transform="matrix(1.98, 0.00, -0.00, -1.98, 607.2, 463.9)">t</text><text xml:space="preserve" font-family="Helvetica" font-size="12.0" fill="#000000" transform="matrix(1.98, 0.00, -0.00, -1.98, 613.8, 463.9)">i</text><text xml:space="preserve" font-family="Helvetica" font-size="12.0" fill="#000000" transform="matrix(1.98, 0.00, -0.00, -1.98, 619.1, 463.9)">o</text><text xml:space="preserve" font-family="Helvetica" font-size="12.0" fill="#000000" transform="matrix(1.98, 0.00, -0.00, -1.98, 632.3, 463.9)">n</text><text xml:space="preserve" font-family="HelveticaNeue" font-size="16.0" fill="#000000" transform="matrix(1.98, 0.00, -0.00, -1.98, 523.7, 674.0)">M</text><text xml:space="preserve" font-family="HelveticaNeue" font-size="16.0" fill="#000000" transform="matrix(1.98, 0.00, -0.00, -1.98, 551.3, 674.0)">o</text><text xml:space="preserve" font-family="HelveticaNeue" font-size="16.0" fill="#000000" transform="matrix(1.98, 0.00, -0.00, -1.98, 569.4, 674.0)">r</text><text xml:space="preserve" font-family="HelveticaNeue" font-size="16.0" fill="#000000" transform="matrix(1.98, 0.00, -0.00, -1.98, 580.0, 674.0)">p</text><text xml:space="preserve" font-family="HelveticaNeue" font-size="16.0" fill="#000000" transform="matrix(1.98, 0.00, -0.00, -1.98, 598.7, 674.0)">h</text><path d="M 1429.5 678.7 L 1746.2 678.7 C 1751.6 678.7 1756.0 674.2 1756.0 668.8 L 1756.0 481.1 C 1756.0 475.6 1751.6 471.2 1746.2 471.2 L 1429.5 471.2 C 1424.1 471.2 1419.6 475.6 1419.6 481.1 L 1419.6 668.8 C 1419.6 674.2 1424.1 678.7 1429.5 678.7 Z M 1429.5 678.7 " fill="#FEFFFF"></path><path d="M 742.1 267.9 L 902.1 267.9 C 904.8 267.3 907.1 269.5 907.1 272.3 L 907.1 367.2 C 907.1 369.9 904.8 372.2 902.1 372.9 L 742.0 372.9 C 739.2 372.2 737.0 369.9 737.1 367.2 L 737.1 272.3 C 737.0 269.5 739.2 267.3 742.1 267.9 Z M 742.1 267.9 " fill="none" stroke="#236FB9" stroke-width="1.00" stroke-miterlimit="0.00" stroke-linecap="round" stroke-linejoin="round" transform="matrix(1.98, 0.00, 0.00, -1.98, -38.1, 1207.5)"></path><path d="M 1480.0 611.4 L 1690.1 611.4 C 1695.5 611.4 1700.0 606.9 1700.0 601.5 L 1700.0 509.1 C 1700.0 503.6 1695.5 499.2 1690.1 499.2 L 1480.0 499.2 C 1474.5 499.2 1470.1 503.6 1470.1 509.1 L 1470.1 601.5 C 1470.1 606.9 1474.5 611.4 1480.0 611.4 Z M 1480.0 611.4 " fill="#FFD478"></path><path d="M 768.1 301.9 L 873.7 301.9 C 876.5 301.3 878.7 303.5 879.1 306.3 L 879.1 353.0 C 878.7 355.8 876.5 358.0 873.7 357.9 L 767.5 357.9 C 764.8 358.0 762.5 355.8 763.1 353.0 L 763.1 306.3 C 762.5 303.5 764.8 301.3 768.1 301.9 Z M 768.1 301.9 " fill="none" stroke="#000000" stroke-width="1.00" stroke-miterlimit="0.00" stroke-linecap="round" stroke-linejoin="round" transform="matrix(1.98, 0.00, 0.00, -1.98, -38.1, 1207.5)"></path><text xml:space="preserve" font-family="Helvetica" font-size="12.0" fill="#000000" transform="matrix(1.98, 0.00, -0.00, -1.98, 1518.4, 547.4)">P</text><text xml:space="preserve" font-family="Helvetica" font-size="12.0" fill="#000000" transform="matrix(1.98, 0.00, -0.00, -1.98, 1534.2, 547.4)">r</text><text xml:space="preserve" font-family="Helvetica" font-size="12.0" fill="#000000" transform="matrix(1.98, 0.00, -0.00, -1.98, 1542.1, 547.4)">e</text><text xml:space="preserve" font-family="Helvetica" font-size="12.0" fill="#000000" transform="matrix(1.98, 0.00, -0.00, -1.98, 1555.3, 547.4)">s</text><text xml:space="preserve" font-family="Helvetica" font-size="12.0" fill="#000000" transform="matrix(1.98, 0.00, -0.00, -1.98, 1567.2, 547.4)">e</text><text xml:space="preserve" font-family="Helvetica" font-size="12.0" fill="#000000" transform="matrix(1.98, 0.00, -0.00, -1.98, 1580.4, 547.4)">n</text><text xml:space="preserve" font-family="Helvetica" font-size="12.0" fill="#000000" transform="matrix(1.98, 0.00, -0.00, -1.98, 1593.6, 547.4)">t</text><text xml:space="preserve" font-family="Helvetica" font-size="12.0" fill="#000000" transform="matrix(1.98, 0.00, -0.00, -1.98, 1600.2, 547.4)">a</text><text xml:space="preserve" font-family="Helvetica" font-size="12.0" fill="#000000" transform="matrix(1.98, 0.00, -0.00, -1.98, 1613.4, 547.4)">t</text><text xml:space="preserve" font-family="Helvetica" font-size="12.0" fill="#000000" transform="matrix(1.98, 0.00, -0.00, -1.98, 1620.0, 547.4)">i</text><text xml:space="preserve" font-family="Helvetica" font-size="12.0" fill="#000000" transform="matrix(1.98, 0.00, -0.00, -1.98, 1625.3, 547.4)">o</text><text xml:space="preserve" font-family="Helvetica" font-size="12.0" fill="#000000" transform="matrix(1.98, 0.00, -0.00, -1.98, 1638.5, 547.4)">n</text><text xml:space="preserve" font-family="HelveticaNeue" font-size="16.0" fill="#000000" transform="matrix(1.98, 0.00, -0.00, -1.98, 1499.2, 638.8)">B</text><text xml:space="preserve" font-family="HelveticaNeue" font-size="16.0" fill="#000000" transform="matrix(1.98, 0.00, -0.00, -1.98, 1520.9, 638.8)">i</text><text xml:space="preserve" font-family="HelveticaNeue" font-size="16.0" fill="#000000" transform="matrix(1.98, 0.00, -0.00, -1.98, 1527.9, 638.8)">t</text><text xml:space="preserve" font-family="HelveticaNeue" font-size="16.0" fill="#000000" transform="matrix(1.98, 0.00, -0.00, -1.98, 1537.9, 638.8)">e</text><text xml:space="preserve" font-family="HelveticaNeue" font-size="16.0" fill="#000000" transform="matrix(1.98, 0.00, -0.00, -1.98, 1554.9, 638.8)">s</text><text xml:space="preserve" font-family="HelveticaNeue" font-size="16.0" fill="#000000" transform="matrix(1.98, 0.00, -0.00, -1.98, 1570.7, 638.8)">i</text><text xml:space="preserve" font-family="HelveticaNeue" font-size="16.0" fill="#000000" transform="matrix(1.98, 0.00, -0.00, -1.98, 1577.8, 638.8)">z</text><text xml:space="preserve" font-family="HelveticaNeue" font-size="16.0" fill="#000000" transform="matrix(1.98, 0.00, -0.00, -1.98, 1592.9, 638.8)">e</text><text xml:space="preserve" font-family="HelveticaNeue" font-size="16.0" fill="#000000" transform="matrix(1.98, 0.00, -0.00, -1.98, 1609.9, 638.8)"> </text><text xml:space="preserve" font-family="HelveticaNeue" font-size="16.0" fill="#000000" transform="matrix(1.98, 0.00, -0.00, -1.98, 1618.7, 638.8)">w</text><text xml:space="preserve" font-family="HelveticaNeue" font-size="16.0" fill="#000000" transform="matrix(1.98, 0.00, -0.00, -1.98, 1642.7, 638.8)">e</text><text xml:space="preserve" font-family="HelveticaNeue" font-size="16.0" fill="#000000" transform="matrix(1.98, 0.00, -0.00, -1.98, 1659.7, 638.8)">b</text><path d="M 924.9 678.7 L 1241.6 678.7 C 1247.0 678.7 1251.4 674.2 1251.4 668.8 L 1251.4 481.1 C 1251.4 475.6 1247.0 471.2 1241.6 471.2 L 924.9 471.2 C 919.5 471.2 915.0 475.6 915.0 481.1 L 915.0 668.8 C 915.0 674.2 919.5 678.7 924.9 678.7 Z M 924.9 678.7 " fill="#FEFFFF"></path><path d="M 487.1 267.9 L 647.0 267.9 C 649.7 267.3 652.0 269.5 652.1 272.3 L 652.1 367.2 C 652.0 369.9 649.7 372.2 647.0 372.9 L 486.9 372.9 C 484.1 372.2 481.9 369.9 482.1 367.2 L 482.1 272.3 C 481.9 269.5 484.1 267.3 487.1 267.9 Z M 487.1 267.9 " fill="none" stroke="#236FB9" stroke-width="1.00" stroke-miterlimit="0.00" stroke-linecap="round" stroke-linejoin="round" transform="matrix(1.98, 0.00, 0.00, -1.98, -38.1, 1207.5)"></path><text xml:space="preserve" font-family="HelveticaNeue" font-size="16.0" fill="#000000" transform="matrix(1.98, 0.00, -0.00, -1.98, 1028.6, 638.8)">E</text><text xml:space="preserve" font-family="HelveticaNeue" font-size="16.0" fill="#000000" transform="matrix(1.98, 0.00, -0.00, -1.98, 1047.9, 638.8)">i</text><text xml:space="preserve" font-family="HelveticaNeue" font-size="16.0" fill="#000000" transform="matrix(1.98, 0.00, -0.00, -1.98, 1054.9, 638.8)">n</text><text xml:space="preserve" font-family="HelveticaNeue" font-size="16.0" fill="#000000" transform="matrix(1.98, 0.00, -0.00, -1.98, 1072.5, 638.8)">s</text><text xml:space="preserve" font-family="HelveticaNeue" font-size="16.0" fill="#000000" transform="matrix(1.98, 0.00, -0.00, -1.98, 1088.4, 638.8)">t</text><text xml:space="preserve" font-family="HelveticaNeue" font-size="16.0" fill="#000000" transform="matrix(1.98, 0.00, -0.00, -1.98, 1098.3, 638.8)">e</text><text xml:space="preserve" font-family="HelveticaNeue" font-size="16.0" fill="#000000" transform="matrix(1.98, 0.00, -0.00, -1.98, 1115.3, 638.8)">i</text><text xml:space="preserve" font-family="HelveticaNeue" font-size="16.0" fill="#000000" transform="matrix(1.98, 0.00, -0.00, -1.98, 1122.4, 638.8)">n</text><path d="M 978.2 607.4 L 1188.3 607.4 C 1193.8 607.4 1198.2 603.0 1198.2 597.5 L 1198.2 505.1 C 1198.2 499.7 1193.8 495.2 1188.3 495.2 L 978.2 495.2 C 972.7 495.2 968.3 499.7 968.3 505.1 L 968.3 597.5 C 968.3 603.0 972.7 607.4 978.2 607.4 Z M 978.2 607.4 " fill="#D4FB78"></path><path d="M 514.1 303.9 L 620.0 303.9 C 622.8 303.3 625.0 305.5 625.1 308.3 L 625.1 355.0 C 625.0 357.8 622.8 360.0 620.0 359.9 L 513.8 359.9 C 511.1 360.0 508.8 357.8 509.1 355.0 L 509.1 308.3 C 508.8 305.5 511.1 303.3 514.1 303.9 Z M 514.1 303.9 " fill="none" stroke="#000000" stroke-width="1.00" stroke-miterlimit="0.00" stroke-linecap="round" stroke-linejoin="round" transform="matrix(1.98, 0.00, 0.00, -1.98, -38.1, 1207.5)"></path><text xml:space="preserve" font-family="Helvetica" font-size="12.0" fill="#000000" transform="matrix(1.98, 0.00, -0.00, -1.98, 1003.9, 543.4)">T</text><text xml:space="preserve" font-family="Helvetica" font-size="12.0" fill="#000000" transform="matrix(1.98, 0.00, -0.00, -1.98, 1017.5, 543.4)">r</text><text xml:space="preserve" font-family="Helvetica" font-size="12.0" fill="#000000" transform="matrix(1.98, 0.00, -0.00, -1.98, 1025.4, 543.4)">a</text><text xml:space="preserve" font-family="Helvetica" font-size="12.0" fill="#000000" transform="matrix(1.98, 0.00, -0.00, -1.98, 1038.6, 543.4)">n</text><text xml:space="preserve" font-family="Helvetica" font-size="12.0" fill="#000000" transform="matrix(1.98, 0.00, -0.00, -1.98, 1051.8, 543.4)">s</text><text xml:space="preserve" font-family="Helvetica" font-size="12.0" fill="#000000" transform="matrix(1.98, 0.00, -0.00, -1.98, 1063.7, 543.4)">f</text><text xml:space="preserve" font-family="Helvetica" font-size="12.0" fill="#000000" transform="matrix(1.98, 0.00, -0.00, -1.98, 1070.3, 543.4)">o</text><text xml:space="preserve" font-family="Helvetica" font-size="12.0" fill="#000000" transform="matrix(1.98, 0.00, -0.00, -1.98, 1083.5, 543.4)">r</text><text xml:space="preserve" font-family="Helvetica" font-size="12.0" fill="#000000" transform="matrix(1.98, 0.00, -0.00, -1.98, 1091.4, 543.4)">m</text><text xml:space="preserve" font-family="Helvetica" font-size="12.0" fill="#000000" transform="matrix(1.98, 0.00, -0.00, -1.98, 1111.2, 543.4)">a</text><text xml:space="preserve" font-family="Helvetica" font-size="12.0" fill="#000000" transform="matrix(1.98, 0.00, -0.00, -1.98, 1124.4, 543.4)">t</text><text xml:space="preserve" font-family="Helvetica" font-size="12.0" fill="#000000" transform="matrix(1.98, 0.00, -0.00, -1.98, 1130.9, 543.4)">i</text><text xml:space="preserve" font-family="Helvetica" font-size="12.0" fill="#000000" transform="matrix(1.98, 0.00, -0.00, -1.98, 1136.2, 543.4)">o</text><text xml:space="preserve" font-family="Helvetica" font-size="12.0" fill="#000000" transform="matrix(1.98, 0.00, -0.00, -1.98, 1149.4, 543.4)">n</text><path d="M 396.9 326.7 L 472.0 323.6 " fill="none" stroke="#000000" stroke-width="1.00" stroke-miterlimit="0.00" stroke-linecap="round" transform="matrix(1.98, 0.00, 0.00, -1.98, -38.1, 1207.5)"></path><path d="M 911.3 567.8 L 895.2 573.1 L 895.7 561.2 Z M 911.3 567.8 " fill="#000000"></path><path d="M 480.0 323.3 L 471.9 320.6 L 472.1 326.6 Z M 480.0 323.3 " fill="none" stroke="#000000" stroke-width="1.00" stroke-miterlimit="0.00" transform="matrix(1.98, 0.00, 0.00, -1.98, -38.1, 1207.5)"></path><path d="M 651.1 370.0 L 729.4 416.7 " fill="none" stroke="#000000" stroke-width="1.00" stroke-miterlimit="0.00" stroke-linecap="round" transform="matrix(1.98, 0.00, 0.00, -1.98, -38.1, 1207.5)"></path><path d="M 1418.1 375.0 L 1407.6 388.2 L 1401.5 378.0 Z M 1418.1 375.0 " fill="#000000"></path><path d="M 736.2 420.8 L 730.9 414.1 L 727.8 419.2 Z M 736.2 420.8 " fill="none" stroke="#000000" stroke-width="1.00" stroke-miterlimit="0.00" transform="matrix(1.98, 0.00, 0.00, -1.98, -38.1, 1207.5)"></path><path d="M 1429.5 377.5 L 1746.2 377.5 C 1751.6 377.5 1756.0 373.0 1756.0 367.6 L 1756.0 179.8 C 1756.0 174.4 1751.6 170.0 1746.2 170.0 L 1429.5 170.0 C 1424.1 170.0 1419.6 174.4 1419.6 179.8 L 1419.6 367.6 C 1419.6 373.0 1424.1 377.5 1429.5 377.5 Z M 1429.5 377.5 " fill="#FEFFFF"></path><path d="M 742.1 419.9 L 902.1 419.9 C 904.8 419.5 907.1 421.8 907.1 424.5 L 907.1 519.4 C 907.1 522.2 904.8 524.4 902.1 524.9 L 742.0 524.9 C 739.2 524.4 737.0 522.2 737.1 519.4 L 737.1 424.5 C 737.0 421.8 739.2 419.5 742.1 419.9 Z M 742.1 419.9 " fill="none" stroke="#236FB9" stroke-width="1.00" stroke-miterlimit="0.00" stroke-linecap="round" stroke-linejoin="round" transform="matrix(1.98, 0.00, 0.00, -1.98, -38.1, 1207.5)"></path><path d="M 1480.0 310.2 L 1690.1 310.2 C 1695.5 310.2 1700.0 305.7 1700.0 300.3 L 1700.0 207.9 C 1700.0 202.4 1695.5 198.0 1690.1 198.0 L 1480.0 198.0 C 1474.5 198.0 1470.1 202.4 1470.1 207.9 L 1470.1 300.3 C 1470.1 305.7 1474.5 310.2 1480.0 310.2 Z M 1480.0 310.2 " fill="#FFD478"></path><path d="M 768.1 453.9 L 873.7 453.9 C 876.5 453.5 878.7 455.8 879.1 458.5 L 879.1 505.2 C 878.7 508.0 876.5 510.2 873.7 510.9 L 767.5 510.9 C 764.8 510.2 762.5 508.0 763.1 505.2 L 763.1 458.5 C 762.5 455.8 764.8 453.5 768.1 453.9 Z M 768.1 453.9 " fill="none" stroke="#000000" stroke-width="1.00" stroke-miterlimit="0.00" stroke-linecap="round" stroke-linejoin="round" transform="matrix(1.98, 0.00, 0.00, -1.98, -38.1, 1207.5)"></path><text xml:space="preserve" font-family="Helvetica" font-size="12.0" fill="#000000" transform="matrix(1.98, 0.00, -0.00, -1.98, 1518.4, 246.2)">P</text><text xml:space="preserve" font-family="Helvetica" font-size="12.0" fill="#000000" transform="matrix(1.98, 0.00, -0.00, -1.98, 1534.2, 246.2)">r</text><text xml:space="preserve" font-family="Helvetica" font-size="12.0" fill="#000000" transform="matrix(1.98, 0.00, -0.00, -1.98, 1542.1, 246.2)">e</text><text xml:space="preserve" font-family="Helvetica" font-size="12.0" fill="#000000" transform="matrix(1.98, 0.00, -0.00, -1.98, 1555.3, 246.2)">s</text><text xml:space="preserve" font-family="Helvetica" font-size="12.0" fill="#000000" transform="matrix(1.98, 0.00, -0.00, -1.98, 1567.2, 246.2)">e</text><text xml:space="preserve" font-family="Helvetica" font-size="12.0" fill="#000000" transform="matrix(1.98, 0.00, -0.00, -1.98, 1580.4, 246.2)">n</text><text xml:space="preserve" font-family="Helvetica" font-size="12.0" fill="#000000" transform="matrix(1.98, 0.00, -0.00, -1.98, 1593.6, 246.2)">t</text><text xml:space="preserve" font-family="Helvetica" font-size="12.0" fill="#000000" transform="matrix(1.98, 0.00, -0.00, -1.98, 1600.2, 246.2)">a</text><text xml:space="preserve" font-family="Helvetica" font-size="12.0" fill="#000000" transform="matrix(1.98, 0.00, -0.00, -1.98, 1613.4, 246.2)">t</text><text xml:space="preserve" font-family="Helvetica" font-size="12.0" fill="#000000" transform="matrix(1.98, 0.00, -0.00, -1.98, 1620.0, 246.2)">i</text><text xml:space="preserve" font-family="Helvetica" font-size="12.0" fill="#000000" transform="matrix(1.98, 0.00, -0.00, -1.98, 1625.3, 246.2)">o</text><text xml:space="preserve" font-family="Helvetica" font-size="12.0" fill="#000000" transform="matrix(1.98, 0.00, -0.00, -1.98, 1638.5, 246.2)">n</text><text xml:space="preserve" font-family="HelveticaNeue" font-size="16.0" fill="#000000" transform="matrix(1.98, 0.00, -0.00, -1.98, 1500.1, 337.5)">B</text><text xml:space="preserve" font-family="HelveticaNeue" font-size="16.0" fill="#000000" transform="matrix(1.98, 0.00, -0.00, -1.98, 1521.8, 337.5)">i</text><text xml:space="preserve" font-family="HelveticaNeue" font-size="16.0" fill="#000000" transform="matrix(1.98, 0.00, -0.00, -1.98, 1528.8, 337.5)">t</text><text xml:space="preserve" font-family="HelveticaNeue" font-size="16.0" fill="#000000" transform="matrix(1.98, 0.00, -0.00, -1.98, 1538.8, 337.5)">e</text><text xml:space="preserve" font-family="HelveticaNeue" font-size="16.0" fill="#000000" transform="matrix(1.98, 0.00, -0.00, -1.98, 1555.8, 337.5)">s</text><text xml:space="preserve" font-family="HelveticaNeue" font-size="16.0" fill="#000000" transform="matrix(1.98, 0.00, -0.00, -1.98, 1571.6, 337.5)">i</text><text xml:space="preserve" font-family="HelveticaNeue" font-size="16.0" fill="#000000" transform="matrix(1.98, 0.00, -0.00, -1.98, 1578.6, 337.5)">z</text><text xml:space="preserve" font-family="HelveticaNeue" font-size="16.0" fill="#000000" transform="matrix(1.98, 0.00, -0.00, -1.98, 1593.8, 337.5)">e</text><text xml:space="preserve" font-family="HelveticaNeue" font-size="16.0" fill="#000000" transform="matrix(1.98, 0.00, -0.00, -1.98, 1610.8, 337.5)"> </text><text xml:space="preserve" font-family="HelveticaNeue" font-size="16.0" fill="#000000" transform="matrix(1.98, 0.00, -0.00, -1.98, 1619.6, 337.5)">A</text><text xml:space="preserve" font-family="HelveticaNeue" font-size="16.0" fill="#000000" transform="matrix(1.98, 0.00, -0.00, -1.98, 1640.1, 337.5)">p</text><text xml:space="preserve" font-family="HelveticaNeue" font-size="16.0" fill="#000000" transform="matrix(1.98, 0.00, -0.00, -1.98, 1658.9, 337.5)">p</text><path d="M 652.0 319.9 L 727.1 319.9 " fill="none" stroke="#000000" stroke-width="1.00" stroke-miterlimit="0.00" stroke-linecap="round" transform="matrix(1.98, 0.00, 0.00, -1.98, -38.1, 1207.5)"></path><path d="M 1415.9 574.9 L 1400.1 580.8 L 1400.1 569.0 Z M 1415.9 574.9 " fill="#000000"></path><path d="M 735.1 319.7 L 727.1 316.7 L 727.1 322.7 Z M 735.1 319.7 " fill="none" stroke="#000000" stroke-width="1.00" stroke-miterlimit="0.00" transform="matrix(1.98, 0.00, 0.00, -1.98, -38.1, 1207.5)"></path><path d="M 924.9 377.5 L 1241.6 377.5 C 1247.0 377.5 1251.4 373.0 1251.4 367.6 L 1251.4 179.8 C 1251.4 174.4 1247.0 170.0 1241.6 170.0 L 924.9 170.0 C 919.5 170.0 915.0 174.4 915.0 179.8 L 915.0 367.6 C 915.0 373.0 919.5 377.5 924.9 377.5 Z M 924.9 377.5 " fill="#FEFFFF"></path><path d="M 487.1 419.9 L 647.0 419.9 C 649.7 419.5 652.0 421.8 652.1 424.5 L 652.1 519.4 C 652.0 522.2 649.7 524.4 647.0 524.9 L 486.9 524.9 C 484.1 524.4 481.9 522.2 482.1 519.4 L 482.1 424.5 C 481.9 421.8 484.1 419.5 487.1 419.9 Z M 487.1 419.9 " fill="none" stroke="#236FB9" stroke-width="1.00" stroke-miterlimit="0.00" stroke-linecap="round" stroke-linejoin="round" transform="matrix(1.98, 0.00, 0.00, -1.98, -38.1, 1207.5)"></path><text xml:space="preserve" font-family="HelveticaNeue" font-size="16.0" fill="#000000" transform="matrix(1.98, 0.00, -0.00, -1.98, 1029.5, 337.5)">N</text><text xml:space="preserve" font-family="HelveticaNeue" font-size="16.0" fill="#000000" transform="matrix(1.98, 0.00, -0.00, -1.98, 1052.3, 337.5)">e</text><text xml:space="preserve" font-family="HelveticaNeue" font-size="16.0" fill="#000000" transform="matrix(1.98, 0.00, -0.00, -1.98, 1069.3, 337.5)">w</text><text xml:space="preserve" font-family="HelveticaNeue" font-size="16.0" fill="#000000" transform="matrix(1.98, 0.00, -0.00, -1.98, 1093.3, 337.5)">t</text><text xml:space="preserve" font-family="HelveticaNeue" font-size="16.0" fill="#000000" transform="matrix(1.98, 0.00, -0.00, -1.98, 1103.3, 337.5)">o</text><text xml:space="preserve" font-family="HelveticaNeue" font-size="16.0" fill="#000000" transform="matrix(1.98, 0.00, -0.00, -1.98, 1121.5, 337.5)">n</text><path d="M 978.2 306.2 L 1188.3 306.2 C 1193.8 306.2 1198.2 301.8 1198.2 296.3 L 1198.2 203.9 C 1198.2 198.5 1193.8 194.0 1188.3 194.0 L 978.2 194.0 C 972.7 194.0 968.3 198.5 968.3 203.9 L 968.3 296.3 C 968.3 301.8 972.7 306.2 978.2 306.2 Z M 978.2 306.2 " fill="#FEFC78"></path><path d="M 514.1 455.9 L 620.0 455.9 C 622.8 455.6 625.0 457.8 625.1 460.6 L 625.1 507.2 C 625.0 510.0 622.8 512.2 620.0 512.9 L 513.8 512.9 C 511.1 512.2 508.8 510.0 509.1 507.2 L 509.1 460.6 C 508.8 457.8 511.1 455.6 514.1 455.9 Z M 514.1 455.9 " fill="none" stroke="#000000" stroke-width="1.00" stroke-miterlimit="0.00" stroke-linecap="round" stroke-linejoin="round" transform="matrix(1.98, 0.00, 0.00, -1.98, -38.1, 1207.5)"></path><text xml:space="preserve" font-family="Helvetica" font-size="12.0" fill="#000000" transform="matrix(1.98, 0.00, -0.00, -1.98, 1002.1, 242.2)">P</text><text xml:space="preserve" font-family="Helvetica" font-size="12.0" fill="#000000" transform="matrix(1.98, 0.00, -0.00, -1.98, 1017.9, 242.2)">e</text><text xml:space="preserve" font-family="Helvetica" font-size="12.0" fill="#000000" transform="matrix(1.98, 0.00, -0.00, -1.98, 1031.1, 242.2)">r</text><text xml:space="preserve" font-family="Helvetica" font-size="12.0" fill="#000000" transform="matrix(1.98, 0.00, -0.00, -1.98, 1039.0, 242.2)">s</text><text xml:space="preserve" font-family="Helvetica" font-size="12.0" fill="#000000" transform="matrix(1.98, 0.00, -0.00, -1.98, 1050.9, 242.2)">o</text><text xml:space="preserve" font-family="Helvetica" font-size="12.0" fill="#000000" transform="matrix(1.98, 0.00, -0.00, -1.98, 1064.1, 242.2)">n</text><text xml:space="preserve" font-family="Helvetica" font-size="12.0" fill="#000000" transform="matrix(1.98, 0.00, -0.00, -1.98, 1077.3, 242.2)">a</text><text xml:space="preserve" font-family="Helvetica" font-size="12.0" fill="#000000" transform="matrix(1.98, 0.00, -0.00, -1.98, 1090.5, 242.2)">l</text><text xml:space="preserve" font-family="Helvetica" font-size="12.0" fill="#000000" transform="matrix(1.98, 0.00, -0.00, -1.98, 1095.8, 242.2)">i</text><text xml:space="preserve" font-family="Helvetica" font-size="12.0" fill="#000000" transform="matrix(1.98, 0.00, -0.00, -1.98, 1101.1, 242.2)">s</text><text xml:space="preserve" font-family="Helvetica" font-size="12.0" fill="#000000" transform="matrix(1.98, 0.00, -0.00, -1.98, 1112.9, 242.2)">a</text><text xml:space="preserve" font-family="Helvetica" font-size="12.0" fill="#000000" transform="matrix(1.98, 0.00, -0.00, -1.98, 1126.2, 242.2)">t</text><text xml:space="preserve" font-family="Helvetica" font-size="12.0" fill="#000000" transform="matrix(1.98, 0.00, -0.00, -1.98, 1132.7, 242.2)">i</text><text xml:space="preserve" font-family="Helvetica" font-size="12.0" fill="#000000" transform="matrix(1.98, 0.00, -0.00, -1.98, 1138.0, 242.2)">o</text><text xml:space="preserve" font-family="Helvetica" font-size="12.0" fill="#000000" transform="matrix(1.98, 0.00, -0.00, -1.98, 1151.2, 242.2)">n</text><path d="M 652.0 471.9 L 727.1 471.9 " fill="none" stroke="#000000" stroke-width="1.00" stroke-miterlimit="0.00" stroke-linecap="round" transform="matrix(1.98, 0.00, 0.00, -1.98, -38.1, 1207.5)"></path><path d="M 1415.9 273.7 L 1400.1 279.6 L 1400.1 267.8 Z M 1415.9 273.7 " fill="#000000"></path><path d="M 735.1 472.0 L 727.1 469.0 L 727.1 475.0 Z M 735.1 472.0 " fill="none" stroke="#000000" stroke-width="1.00" stroke-miterlimit="0.00" transform="matrix(1.98, 0.00, 0.00, -1.98, -38.1, 1207.5)"></path><path d="M 651.1 421.7 L 729.4 375.0 " fill="none" stroke="#000000" stroke-width="1.00" stroke-miterlimit="0.00" stroke-linecap="round" transform="matrix(1.98, 0.00, 0.00, -1.98, -38.1, 1207.5)"></path><path d="M 1418.1 473.6 L 1401.5 470.6 L 1407.6 460.4 Z M 1418.1 473.6 " fill="#000000"></path><path d="M 736.2 370.9 L 727.8 372.5 L 730.9 377.6 Z M 736.2 370.9 " fill="none" stroke="#000000" stroke-width="1.00" stroke-miterlimit="0.00" transform="matrix(1.98, 0.00, 0.00, -1.98, -38.1, 1207.5)"></path><path d="M 309.5 820.5 L 309.5 910.2 C 309.5 916.4 333.4 921.4 362.8 921.4 C 392.2 921.4 416.1 916.4 416.1 910.2 L 416.1 820.5 C 416.1 814.3 392.2 809.3 362.8 809.3 C 333.4 809.3 309.5 814.3 309.5 820.5 " fill="#FEFFFF"></path><path d="M 176.1 195.6 L 176.1 150.2 C 175.7 147.1 187.8 144.6 202.7 144.6 C 217.5 144.6 229.6 147.1 230.1 150.2 L 230.1 195.6 C 229.6 198.7 217.5 201.3 202.7 201.3 C 187.8 201.3 175.7 198.7 175.7 195.6 M 175.7 150.2 C 175.7 153.4 187.8 155.9 202.7 155.9 C 217.5 155.9 229.6 153.4 229.6 150.2 " fill="none" stroke="#000000" stroke-width="1.00" stroke-miterlimit="0.00" stroke-linecap="round" stroke-linejoin="round" transform="matrix(1.98, 0.00, 0.00, -1.98, -38.1, 1207.5)"></path><text xml:space="preserve" font-family="Helvetica" font-size="12.0" fill="#000000" transform="matrix(1.98, 0.00, -0.00, -1.98, 339.7, 851.8)">i</text><text xml:space="preserve" font-family="Helvetica" font-size="12.0" fill="#000000" transform="matrix(1.98, 0.00, -0.00, -1.98, 345.0, 851.8)">S</text><text xml:space="preserve" font-family="Helvetica" font-size="12.0" fill="#000000" transform="matrix(1.98, 0.00, -0.00, -1.98, 360.8, 851.8)">i</text><text xml:space="preserve" font-family="Helvetica" font-size="12.0" fill="#000000" transform="matrix(1.98, 0.00, -0.00, -1.98, 366.1, 851.8)">t</text><text xml:space="preserve" font-family="Helvetica" font-size="12.0" fill="#000000" transform="matrix(1.98, 0.00, -0.00, -1.98, 372.7, 851.8)">e</text><path d="M 466.5 955.1 L 466.5 1044.8 C 466.5 1051.0 490.4 1056.0 519.8 1056.0 C 549.2 1056.0 573.0 1051.0 573.0 1044.8 L 573.0 955.1 C 573.0 948.9 549.2 943.9 519.8 943.9 C 490.4 943.9 466.5 948.9 466.5 955.1 " fill="#FEFFFF"></path><path d="M 255.1 127.6 L 255.1 82.2 C 255.1 79.1 267.2 76.5 282.0 76.5 C 296.9 76.5 309.0 79.1 309.1 82.2 L 309.1 127.6 C 309.0 130.7 296.9 133.2 282.0 133.2 C 267.2 133.2 255.1 130.7 255.1 127.6 M 255.1 82.2 C 255.1 85.3 267.2 87.9 282.0 87.9 C 296.9 87.9 309.0 85.3 309.0 82.2 " fill="none" stroke="#000000" stroke-width="1.00" stroke-miterlimit="0.00" stroke-linecap="round" stroke-linejoin="round" transform="matrix(1.98, 0.00, 0.00, -1.98, -38.1, 1207.5)"></path><text xml:space="preserve" font-family="Helvetica" font-size="12.0" fill="#000000" transform="matrix(1.98, 0.00, -0.00, -1.98, 496.7, 986.4)">L</text><text xml:space="preserve" font-family="Helvetica" font-size="12.0" fill="#000000" transform="matrix(1.98, 0.00, -0.00, -1.98, 509.9, 986.4)">D</text><text xml:space="preserve" font-family="Helvetica" font-size="12.0" fill="#000000" transform="matrix(1.98, 0.00, -0.00, -1.98, 527.0, 986.4)">P</text><path d="M 976.3 745.2 L 976.3 740.3 C 976.3 737.0 973.6 734.4 970.3 734.4 L 970.3 739.3 C 973.6 739.3 976.3 742.0 976.3 745.2 Z M 976.3 745.2 " fill="#414341"></path><path d="M 976.3 745.2 L 976.3 740.3 C 976.3 740.0 976.2 739.7 976.2 739.4 L 976.2 744.4 C 976.2 744.6 976.3 744.9 976.3 745.2 Z M 976.3 745.2 " fill="#414341"></path><path d="M 976.2 744.4 L 976.2 739.4 C 976.2 739.1 976.1 738.8 976.0 738.5 L 976.0 743.4 C 976.1 743.7 976.2 744.0 976.2 744.4 Z M 976.2 744.4 " fill="#414341"></path><path d="M 976.0 743.4 L 976.0 738.5 C 975.9 738.1 975.7 737.8 975.5 737.4 L 975.5 742.4 C 975.7 742.7 975.9 743.1 976.0 743.4 Z M 976.0 743.4 " fill="#414341"></path><path d="M 975.5 742.4 L 975.5 737.4 C 974.5 735.6 972.6 734.4 970.3 734.4 L 970.3 739.3 C 972.6 739.3 974.5 740.6 975.5 742.4 Z M 975.5 742.4 " fill="#414341"></path><path d="M 972.9 740.3 L 970.3 734.4 L 901.6 734.4 L 899.9 740.6 Z M 972.9 740.3 " fill="#414341"></path><path d="M 901.6 739.3 L 901.6 734.4 C 898.3 734.4 895.6 737.0 895.6 740.3 L 895.6 745.2 C 895.6 742.0 898.3 739.3 901.6 739.3 Z M 901.6 739.3 " fill="#414341"></path><path d="M 901.6 739.3 L 901.6 734.4 C 898.3 734.4 895.6 737.0 895.6 740.3 L 895.6 745.2 C 895.6 742.0 898.3 739.3 901.6 739.3 Z M 901.6 739.3 " fill="#414341"></path><path d="M 970.3 844.8 C 973.6 844.8 976.3 842.2 976.3 839.0 L 976.3 745.2 C 976.3 742.0 973.6 739.3 970.3 739.3 L 901.6 739.3 C 898.3 739.3 895.6 742.0 895.6 745.2 L 895.6 839.0 C 895.6 842.2 898.3 844.8 901.6 844.8 Z M 970.3 844.8 " fill="#666967"></path><path d="M 908.0 829.6 L 963.9 829.6 L 963.9 823.0 L 908.0 823.0 Z M 908.0 817.9 L 963.9 817.9 L 963.9 811.4 L 908.0 811.4 Z M 908.0 806.8 L 963.9 806.8 L 963.9 800.3 L 908.0 800.3 Z M 908.0 806.8 " fill="#FFFEFE"></path><text xml:space="preserve" font-family="Helvetica" font-size="12.0" fill="#000000" transform="matrix(1.98, 0.00, -0.00, -1.98, 905.8, 696.1)">A</text><text xml:space="preserve" font-family="Helvetica" font-size="12.0" fill="#000000" transform="matrix(1.98, 0.00, -0.00, -1.98, 921.7, 696.1)">c</text><text xml:space="preserve" font-family="Helvetica" font-size="12.0" fill="#000000" transform="matrix(1.98, 0.00, -0.00, -1.98, 933.5, 696.1)">m</text><text xml:space="preserve" font-family="Helvetica" font-size="12.0" fill="#000000" transform="matrix(1.98, 0.00, -0.00, -1.98, 953.3, 696.1)">e</text><path d="M 229.6 189.7 L 311.8 240.9 " fill="none" stroke="#000000" stroke-width="1.00" stroke-miterlimit="0.00" stroke-linecap="round" transform="matrix(1.98, 0.00, 0.00, -1.98, -38.1, 1207.5)"></path><path d="M 735.6 820.5 L 735.6 910.2 C 735.6 916.4 759.5 921.4 788.9 921.4 C 818.3 921.4 842.2 916.4 842.2 910.2 L 842.2 820.5 C 842.2 814.3 818.3 809.3 788.9 809.3 C 759.5 809.3 735.6 814.3 735.6 820.5 " fill="#FEFFFF"></path><path d="M 391.1 195.6 L 391.1 150.2 C 391.2 147.1 403.2 144.6 418.1 144.6 C 433.0 144.6 445.0 147.1 445.1 150.2 L 445.1 195.6 C 445.0 198.7 433.0 201.3 418.1 201.3 C 403.2 201.3 391.2 198.7 391.2 195.6 M 391.2 150.2 C 391.2 153.4 403.2 155.9 418.1 155.9 C 433.0 155.9 445.0 153.4 445.0 150.2 " fill="none" stroke="#000000" stroke-width="1.00" stroke-miterlimit="0.00" stroke-linecap="round" stroke-linejoin="round" transform="matrix(1.98, 0.00, 0.00, -1.98, -38.1, 1207.5)"></path><text xml:space="preserve" font-family="Helvetica" font-size="12.0" fill="#000000" transform="matrix(1.98, 0.00, -0.00, -1.98, 763.8, 851.8)">N</text><text xml:space="preserve" font-family="Helvetica" font-size="12.0" fill="#000000" transform="matrix(1.98, 0.00, -0.00, -1.98, 781.0, 851.8)">i</text><text xml:space="preserve" font-family="Helvetica" font-size="12.0" fill="#000000" transform="matrix(1.98, 0.00, -0.00, -1.98, 786.3, 851.8)">t</text><text xml:space="preserve" font-family="Helvetica" font-size="12.0" fill="#000000" transform="matrix(1.98, 0.00, -0.00, -1.98, 792.9, 851.8)">r</text><text xml:space="preserve" font-family="Helvetica" font-size="12.0" fill="#000000" transform="matrix(1.98, 0.00, -0.00, -1.98, 800.8, 851.8)">o</text><path d="M 391.2 190.1 L 311.8 240.9 " fill="none" stroke="#000000" stroke-width="1.00" stroke-miterlimit="0.00" stroke-linecap="round" transform="matrix(1.98, 0.00, 0.00, -1.98, -38.1, 1207.5)"></path><path d="M 728.9 1056.0 C 738.8 1056.0 746.8 1048.0 746.8 1038.1 L 746.8 967.9 C 746.8 958.1 738.8 950.1 728.9 950.1 L 660.3 950.1 C 650.4 950.1 642.3 958.1 642.3 967.9 L 642.3 1038.1 C 642.3 1048.0 650.4 1056.0 660.3 1056.0 Z M 728.9 1056.0 " fill="#E77C3B"></path><text xml:space="preserve" font-family="Helvetica" font-size="12.0" fill="#000000" transform="matrix(1.98, 0.00, -0.00, -1.98, 668.9, 995.1)">B</text><text xml:space="preserve" font-family="Helvetica" font-size="12.0" fill="#000000" transform="matrix(1.98, 0.00, -0.00, -1.98, 684.7, 995.1)">A</text><text xml:space="preserve" font-family="Helvetica" font-size="12.0" fill="#000000" transform="matrix(1.98, 0.00, -0.00, -1.98, 700.5, 995.1)">M</text><path d="M 746.8 967.9 L 746.8 961.7 C 746.8 951.9 738.8 943.9 728.9 943.9 L 728.9 950.1 C 738.8 950.1 746.8 958.1 746.8 967.9 Z M 746.8 967.9 " fill="#8E4B2A"></path><path d="M 746.8 967.9 L 746.8 961.7 C 746.8 960.8 746.8 960.0 746.7 959.2 L 746.7 965.4 C 746.8 966.2 746.8 967.1 746.8 967.9 Z M 746.8 967.9 " fill="#8E4B2A"></path><path d="M 746.7 965.4 L 746.7 959.2 C 746.5 958.2 746.3 957.2 746.0 956.3 L 746.0 962.5 C 746.3 963.4 746.5 964.4 746.7 965.4 Z M 746.7 965.4 " fill="#8E4B2A"></path><path d="M 746.0 962.5 L 746.0 956.3 C 745.6 955.2 745.2 954.1 744.6 953.1 L 744.6 959.4 C 745.2 960.4 745.6 961.4 746.0 962.5 Z M 746.0 962.5 " fill="#8E4B2A"></path><path d="M 744.6 959.4 L 744.6 953.1 C 741.6 947.6 735.7 943.9 728.9 943.9 L 728.9 950.1 C 735.7 950.1 741.6 953.8 744.6 959.4 Z M 744.6 959.4 " fill="#8E4B2A"></path><path d="M 659.5 950.1 L 729.0 950.1 L 729.0 943.9 L 659.5 943.9 Z M 659.5 950.1 " fill="#8E4B2A"></path><path d="M 660.3 950.1 L 660.3 943.9 C 650.4 943.9 642.3 951.9 642.3 961.7 L 642.3 967.9 C 642.3 958.1 650.4 950.1 660.3 950.1 Z M 660.3 950.1 " fill="#8E4B2A"></path><path d="M 661.0 950.1 L 661.0 943.9 C 651.1 943.9 642.3 951.9 642.3 961.7 L 642.3 967.9 C 642.3 958.1 650.4 950.1 661.0 950.1 Z M 661.0 950.1 " fill="#8E4B2A"></path><path d="M 258.4 798.1 C 271.2 798.1 281.5 790.1 281.5 780.2 L 281.5 710.0 C 281.5 700.2 271.2 692.2 258.4 692.2 L 170.1 692.2 C 157.4 692.2 147.0 700.2 147.0 710.0 L 147.0 780.2 C 147.0 790.1 157.4 798.1 170.1 798.1 Z M 258.4 798.1 " fill="#E77C3B"></path><text xml:space="preserve" font-family="Helvetica" font-size="12.0" fill="#000000" transform="matrix(1.98, 0.00, -0.00, -1.98, 167.4, 751.1)">E</text><text xml:space="preserve" font-family="Helvetica" font-size="12.0" fill="#000000" transform="matrix(1.98, 0.00, -0.00, -1.98, 183.2, 751.1)">q</text><text xml:space="preserve" font-family="Helvetica" font-size="12.0" fill="#000000" transform="matrix(1.98, 0.00, -0.00, -1.98, 196.4, 751.1)">u</text><text xml:space="preserve" font-family="Helvetica" font-size="12.0" fill="#000000" transform="matrix(1.98, 0.00, -0.00, -1.98, 209.6, 751.1)">a</text><text xml:space="preserve" font-family="Helvetica" font-size="12.0" fill="#000000" transform="matrix(1.98, 0.00, -0.00, -1.98, 222.8, 751.1)">t</text><text xml:space="preserve" font-family="Helvetica" font-size="12.0" fill="#000000" transform="matrix(1.98, 0.00, -0.00, -1.98, 229.4, 751.1)">i</text><text xml:space="preserve" font-family="Helvetica" font-size="12.0" fill="#000000" transform="matrix(1.98, 0.00, -0.00, -1.98, 234.7, 751.1)">o</text><text xml:space="preserve" font-family="Helvetica" font-size="12.0" fill="#000000" transform="matrix(1.98, 0.00, -0.00, -1.98, 247.9, 751.1)">n</text><text xml:space="preserve" font-family="Helvetica" font-size="12.0" fill="#000000" transform="matrix(1.98, 0.00, -0.00, -1.98, 261.1, 751.1)"> </text><text xml:space="preserve" font-family="Helvetica" font-size="12.0" fill="#000000" transform="matrix(1.98, 0.00, -0.00, -1.98, 189.2, 723.4)">C</text><text xml:space="preserve" font-family="Helvetica" font-size="12.0" fill="#000000" transform="matrix(1.98, 0.00, -0.00, -1.98, 206.3, 723.4)">h</text><text xml:space="preserve" font-family="Helvetica" font-size="12.0" fill="#000000" transform="matrix(1.98, 0.00, -0.00, -1.98, 219.5, 723.4)">e</text><text xml:space="preserve" font-family="Helvetica" font-size="12.0" fill="#000000" transform="matrix(1.98, 0.00, -0.00, -1.98, 232.7, 723.4)">f</text><path d="M 281.5 710.0 L 281.5 703.8 C 281.5 694.0 271.2 686.0 258.4 686.0 L 258.4 692.2 C 271.2 692.2 281.5 700.2 281.5 710.0 Z M 281.5 710.0 " fill="#8E4B2A"></path><path d="M 281.5 710.0 L 281.5 703.8 C 281.5 702.9 281.4 702.1 281.3 701.3 L 281.3 707.5 C 281.4 708.3 281.5 709.2 281.5 710.0 Z M 281.5 710.0 " fill="#8E4B2A"></path><path d="M 281.3 707.5 L 281.3 701.3 C 281.1 700.3 280.8 699.3 280.4 698.4 L 280.4 704.6 C 280.8 705.5 281.1 706.5 281.3 707.5 Z M 281.3 707.5 " fill="#8E4B2A"></path><path d="M 280.4 704.6 L 280.4 698.4 C 279.9 697.3 279.4 696.2 278.7 695.2 L 278.7 701.5 C 279.4 702.5 279.9 703.5 280.4 704.6 Z M 280.4 704.6 " fill="#8E4B2A"></path><path d="M 278.7 701.5 L 278.7 695.2 C 274.7 689.7 267.2 686.0 258.4 686.0 L 258.4 692.2 C 267.2 692.2 274.7 695.9 278.7 701.5 Z M 278.7 701.5 " fill="#8E4B2A"></path><path d="M 169.2 692.2 L 258.6 692.2 L 258.6 686.0 L 169.2 686.0 Z M 169.2 692.2 " fill="#8E4B2A"></path><path d="M 170.1 692.2 L 170.1 686.0 C 157.4 686.0 147.0 694.0 147.0 703.8 L 147.0 710.0 C 147.0 700.2 157.4 692.2 170.1 692.2 Z M 170.1 692.2 " fill="#8E4B2A"></path><path d="M 171.1 692.2 L 171.1 686.0 C 158.3 686.0 147.0 694.0 147.0 703.8 L 147.0 710.0 C 147.0 700.2 157.4 692.2 171.1 692.2 Z M 171.1 692.2 " fill="#8E4B2A"></path><path d="M 472.1 214.6 L 311.8 240.9 " fill="none" stroke="#000000" stroke-width="1.00" stroke-miterlimit="0.00" stroke-linecap="round" transform="matrix(1.98, 0.00, 0.00, -1.98, -38.1, 1207.5)"></path><path d="M 161.6 236.0 L 321.0 239.4 " fill="none" stroke="#000000" stroke-width="1.00" stroke-miterlimit="0.00" stroke-linecap="round" transform="matrix(1.98, 0.00, 0.00, -1.98, -38.1, 1207.5)"></path><path d="M 358.3 133.2 L 312.8 239.2 " fill="none" stroke="#000000" stroke-width="1.00" stroke-miterlimit="0.00" stroke-linecap="round" transform="matrix(1.98, 0.00, 0.00, -1.98, -38.1, 1207.5)"></path><text xml:space="preserve" font-family="HelveticaNeue" font-size="16.0" fill="#000000" transform="matrix(1.98, 0.00, -0.00, -1.98, 471.3, 859.1)">D</text><text xml:space="preserve" font-family="HelveticaNeue" font-size="16.0" fill="#000000" transform="matrix(1.98, 0.00, -0.00, -1.98, 493.6, 859.1)">a</text><text xml:space="preserve" font-family="HelveticaNeue" font-size="16.0" fill="#000000" transform="matrix(1.98, 0.00, -0.00, -1.98, 510.6, 859.1)">t</text><text xml:space="preserve" font-family="HelveticaNeue" font-size="16.0" fill="#000000" transform="matrix(1.98, 0.00, -0.00, -1.98, 520.5, 859.1)">a</text><text xml:space="preserve" font-family="HelveticaNeue" font-size="16.0" fill="#000000" transform="matrix(1.98, 0.00, -0.00, -1.98, 537.5, 859.1)"> </text><text xml:space="preserve" font-family="HelveticaNeue" font-size="16.0" fill="#000000" transform="matrix(1.98, 0.00, -0.00, -1.98, 546.3, 859.1)">P</text><text xml:space="preserve" font-family="HelveticaNeue" font-size="16.0" fill="#000000" transform="matrix(1.98, 0.00, -0.00, -1.98, 566.8, 859.1)">r</text><text xml:space="preserve" font-family="HelveticaNeue" font-size="16.0" fill="#000000" transform="matrix(1.98, 0.00, -0.00, -1.98, 576.8, 859.1)">o</text><text xml:space="preserve" font-family="HelveticaNeue" font-size="16.0" fill="#000000" transform="matrix(1.98, 0.00, -0.00, -1.98, 595.0, 859.1)">v</text><text xml:space="preserve" font-family="HelveticaNeue" font-size="16.0" fill="#000000" transform="matrix(1.98, 0.00, -0.00, -1.98, 610.8, 859.1)">i</text><text xml:space="preserve" font-family="HelveticaNeue" font-size="16.0" fill="#000000" transform="matrix(1.98, 0.00, -0.00, -1.98, 617.8, 859.1)">d</text><text xml:space="preserve" font-family="HelveticaNeue" font-size="16.0" fill="#000000" transform="matrix(1.98, 0.00, -0.00, -1.98, 636.6, 859.1)">e</text><text xml:space="preserve" font-family="HelveticaNeue" font-size="16.0" fill="#000000" transform="matrix(1.98, 0.00, -0.00, -1.98, 653.6, 859.1)">r</text><text xml:space="preserve" font-family="HelveticaNeue" font-size="16.0" fill="#000000" transform="matrix(1.98, 0.00, -0.00, -1.98, 664.1, 859.1)">s</text><path d="M 288.8 133.0 L 314.1 239.3 " fill="none" stroke="#000000" stroke-width="1.00" stroke-miterlimit="0.00" stroke-linecap="round" transform="matrix(1.98, 0.00, 0.00, -1.98, -38.1, 1207.5)"></path></g></g></g></svg>