<?xml version="1.0" encoding="UTF-8" standalone="no"?><svg xmlns="http://www.w3.org/2000/svg" xmlns:xlink="http://www.w3.org/1999/xlink" clip-rule="evenodd" stroke-miterlimit="4.00" viewBox="0 0 1920 1080"><desc>SVG generated by Keynote</desc><defs><radialGradient id="gradSh1.48" cx="0.0" cy="-3.7" r="21.1" fx="0.0" fy="-3.7" gradientUnits="userSpaceOnUse" gradientTransform="matrix(1.80, 0.00, 0.00, -1.80, 285.7, 680.9)"><stop offset="0.00000" stop-color="#FFFFFF"></stop><stop offset="0.00880" stop-color="#FEFEFE"></stop><stop offset="1.00000" stop-color="#AAAAAA"></stop></radialGradient><radialGradient id="gradSh2.49" cx="0.0" cy="0.0" r="12.9" fx="0.0" fy="0.0" gradientUnits="userSpaceOnUse" gradientTransform="matrix(1.80, 0.00, 0.00, -1.80, 285.7, 718.7)"><stop offset="0.00000" stop-color="#FFFFFF"></stop><stop offset="0.01466" stop-color="#FEFEFE"></stop><stop offset="1.00000" stop-color="#CECECE"></stop></radialGradient><radialGradient id="gradSh3.50" cx="0.0" cy="-3.7" r="21.1" fx="0.0" fy="-3.7" gradientUnits="userSpaceOnUse" gradientTransform="matrix(1.80, 0.00, 0.00, -1.80, 285.7, 407.6)"><stop offset="0.00000" stop-color="#FFFFFF"></stop><stop offset="0.00880" stop-color="#FEFEFE"></stop><stop offset="1.00000" stop-color="#AAAAAA"></stop></radialGradient><radialGradient id="gradSh4.51" cx="0.0" cy="0.0" r="12.9" fx="0.0" fy="0.0" gradientUnits="userSpaceOnUse" gradientTransform="matrix(1.80, 0.00, 0.00, -1.80, 285.7, 445.3)"><stop offset="0.00000" stop-color="#FFFFFF"></stop><stop offset="0.01466" stop-color="#FEFEFE"></stop><stop offset="1.00000" stop-color="#CECECE"></stop></radialGradient><radialGradient id="gradSh5.52" cx="0.0" cy="-3.7" r="21.1" fx="0.0" fy="-3.7" gradientUnits="userSpaceOnUse" gradientTransform="matrix(1.80, 0.00, 0.00, -1.80, 966.8, 942.5)"><stop offset="0.00000" stop-color="#FFFFFF"></stop><stop offset="0.00880" stop-color="#FEFEFE"></stop><stop offset="1.00000" stop-color="#AAAAAA"></stop></radialGradient><radialGradient id="gradSh6.53" cx="0.0" cy="0.0" r="12.9" fx="0.0" fy="0.0" gradientUnits="userSpaceOnUse" gradientTransform="matrix(1.80, 0.00, 0.00, -1.80, 966.8, 980.3)"><stop offset="0.00000" stop-color="#FFFFFF"></stop><stop offset="0.01466" stop-color="#FEFEFE"></stop><stop offset="1.00000" stop-color="#CECECE"></stop></radialGradient></defs><g transform="matrix(1.00, 0.00, -0.00, -1.00, 0.0, 1080.0)"><path d="M 0.0 1080.0 L 1920.0 1080.0 L 1920.0 0.0 L 0.0 0.0 Z M 0.0 1080.0 " fill="#EEEDED"></path><path d="M 0.0 0.0 L 1836.0 0.0 " fill="none" stroke="#000000" stroke-width="2.00" transform="matrix(1.00, 0.00, 0.00, -1.00, 41.0, 58.0)"></path><text xml:space="preserve" font-family="HelveticaNeue-Bold" font-weight="bold" font-size="23.0" fill="#000000" transform="matrix(1.00, 0.00, -0.00, -1.00, 61.0, 24.0)">D</text><text xml:space="preserve" font-family="HelveticaNeue-Bold" font-weight="bold" font-size="23.0" fill="#000000" transform="matrix(1.00, 0.00, -0.00, -1.00, 78.0, 24.0)">i</text><text xml:space="preserve" font-family="HelveticaNeue-Bold" font-weight="bold" font-size="23.0" fill="#000000" transform="matrix(1.00, 0.00, -0.00, -1.00, 84.0, 24.0)">s</text><text xml:space="preserve" font-family="HelveticaNeue-Bold" font-weight="bold" font-size="23.0" fill="#000000" transform="matrix(1.00, 0.00, -0.00, -1.00, 96.3, 24.0)">m</text><text xml:space="preserve" font-family="HelveticaNeue-Bold" font-weight="bold" font-size="23.0" fill="#000000" transform="matrix(1.00, 0.00, -0.00, -1.00, 117.2, 24.0)">a</text><text xml:space="preserve" font-family="HelveticaNeue-Bold" font-weight="bold" font-size="23.0" fill="#000000" transform="matrix(1.00, 0.00, -0.00, -1.00, 130.4, 24.0)">n</text><text xml:space="preserve" font-family="HelveticaNeue-Bold" font-weight="bold" font-size="23.0" fill="#000000" transform="matrix(1.00, 0.00, -0.00, -1.00, 144.0, 24.0)">t</text><text xml:space="preserve" font-family="HelveticaNeue-Bold" font-weight="bold" font-size="23.0" fill="#000000" transform="matrix(1.00, 0.00, -0.00, -1.00, 152.1, 24.0)">l</text><text xml:space="preserve" font-family="HelveticaNeue-Bold" font-weight="bold" font-size="23.0" fill="#000000" transform="matrix(1.00, 0.00, -0.00, -1.00, 158.0, 24.0)">i</text><text xml:space="preserve" font-family="HelveticaNeue-Bold" font-weight="bold" font-size="23.0" fill="#000000" transform="matrix(1.00, 0.00, -0.00, -1.00, 164.0, 24.0)">n</text><text xml:space="preserve" font-family="HelveticaNeue-Bold" font-weight="bold" font-size="23.0" fill="#000000" transform="matrix(1.00, 0.00, -0.00, -1.00, 177.6, 24.0)">g</text><text xml:space="preserve" font-family="HelveticaNeue-Bold" font-weight="bold" font-size="23.0" fill="#000000" transform="matrix(1.00, 0.00, -0.00, -1.00, 191.7, 24.0)"> </text><text xml:space="preserve" font-family="HelveticaNeue-Bold" font-weight="bold" font-size="23.0" fill="#000000" transform="matrix(1.00, 0.00, -0.00, -1.00, 198.1, 24.0)">M</text><text xml:space="preserve" font-family="HelveticaNeue-Bold" font-weight="bold" font-size="23.0" fill="#000000" transform="matrix(1.00, 0.00, -0.00, -1.00, 218.9, 24.0)">o</text><text xml:space="preserve" font-family="HelveticaNeue-Bold" font-weight="bold" font-size="23.0" fill="#000000" transform="matrix(1.00, 0.00, -0.00, -1.00, 233.0, 24.0)">n</text><text xml:space="preserve" font-family="HelveticaNeue-Bold" font-weight="bold" font-size="23.0" fill="#000000" transform="matrix(1.00, 0.00, -0.00, -1.00, 246.6, 24.0)">o</text><text xml:space="preserve" font-family="HelveticaNeue-Bold" font-weight="bold" font-size="23.0" fill="#000000" transform="matrix(1.00, 0.00, -0.00, -1.00, 260.7, 24.0)">l</text><text xml:space="preserve" font-family="HelveticaNeue-Bold" font-weight="bold" font-size="23.0" fill="#000000" transform="matrix(1.00, 0.00, -0.00, -1.00, 266.6, 24.0)">i</text><text xml:space="preserve" font-family="HelveticaNeue-Bold" font-weight="bold" font-size="23.0" fill="#000000" transform="matrix(1.00, 0.00, -0.00, -1.00, 272.5, 24.0)">t</text><text xml:space="preserve" font-family="HelveticaNeue-Bold" font-weight="bold" font-size="23.0" fill="#000000" transform="matrix(1.00, 0.00, -0.00, -1.00, 280.6, 24.0)">h</text><text xml:space="preserve" font-family="HelveticaNeue-Bold" font-weight="bold" font-size="23.0" fill="#000000" transform="matrix(1.00, 0.00, -0.00, -1.00, 294.3, 24.0)">s</text><text xml:space="preserve" font-family="HelveticaNeue-Bold" font-weight="bold" font-size="23.0" fill="#000000" transform="matrix(1.00, 0.00, -0.00, -1.00, 306.6, 24.0)">:</text><text xml:space="preserve" font-family="HelveticaNeue-Bold" font-weight="bold" font-size="23.0" fill="#000000" transform="matrix(1.00, 0.00, -0.00, -1.00, 313.0, 24.0)"> </text><text xml:space="preserve" font-family="HelveticaNeue-Bold" font-weight="bold" font-size="23.0" fill="#000000" transform="matrix(1.00, 0.00, -0.00, -1.00, 319.4, 24.0)">u</text><text xml:space="preserve" font-family="HelveticaNeue-Bold" font-weight="bold" font-size="23.0" fill="#000000" transform="matrix(1.00, 0.00, -0.00, -1.00, 333.0, 24.0)">s</text><text xml:space="preserve" font-family="HelveticaNeue-Bold" font-weight="bold" font-size="23.0" fill="#000000" transform="matrix(1.00, 0.00, -0.00, -1.00, 345.4, 24.0)">i</text><text xml:space="preserve" font-family="HelveticaNeue-Bold" font-weight="bold" font-size="23.0" fill="#000000" transform="matrix(1.00, 0.00, -0.00, -1.00, 351.3, 24.0)">n</text><text xml:space="preserve" font-family="HelveticaNeue-Bold" font-weight="bold" font-size="23.0" fill="#000000" transform="matrix(1.00, 0.00, -0.00, -1.00, 365.0, 24.0)">g</text><text xml:space="preserve" font-family="HelveticaNeue-Bold" font-weight="bold" font-size="23.0" fill="#000000" transform="matrix(1.00, 0.00, -0.00, -1.00, 379.0, 24.0)"> </text><text xml:space="preserve" font-family="HelveticaNeue-Bold" font-weight="bold" font-size="23.0" fill="#000000" transform="matrix(1.00, 0.00, -0.00, -1.00, 385.4, 24.0)">m</text><text xml:space="preserve" font-family="HelveticaNeue-Bold" font-weight="bold" font-size="23.0" fill="#000000" transform="matrix(1.00, 0.00, -0.00, -1.00, 406.3, 24.0)">i</text><text xml:space="preserve" font-family="HelveticaNeue-Bold" font-weight="bold" font-size="23.0" fill="#000000" transform="matrix(1.00, 0.00, -0.00, -1.00, 412.2, 24.0)">c</text><text xml:space="preserve" font-family="HelveticaNeue-Bold" font-weight="bold" font-size="23.0" fill="#000000" transform="matrix(1.00, 0.00, -0.00, -1.00, 425.4, 24.0)">r</text><text xml:space="preserve" font-family="HelveticaNeue-Bold" font-weight="bold" font-size="23.0" fill="#000000" transform="matrix(1.00, 0.00, -0.00, -1.00, 433.9, 24.0)">o</text><text xml:space="preserve" font-family="HelveticaNeue-Bold" font-weight="bold" font-size="23.0" fill="#000000" transform="matrix(1.00, 0.00, -0.00, -1.00, 448.0, 24.0)">s</text><text xml:space="preserve" font-family="HelveticaNeue-Bold" font-weight="bold" font-size="23.0" fill="#000000" transform="matrix(1.00, 0.00, -0.00, -1.00, 460.3, 24.0)">e</text><text xml:space="preserve" font-family="HelveticaNeue-Bold" font-weight="bold" font-size="23.0" fill="#000000" transform="matrix(1.00, 0.00, -0.00, -1.00, 473.5, 24.0)">r</text><text xml:space="preserve" font-family="HelveticaNeue-Bold" font-weight="bold" font-size="23.0" fill="#000000" transform="matrix(1.00, 0.00, -0.00, -1.00, 482.5, 24.0)">v</text><text xml:space="preserve" font-family="HelveticaNeue-Bold" font-weight="bold" font-size="23.0" fill="#000000" transform="matrix(1.00, 0.00, -0.00, -1.00, 494.4, 24.0)">i</text><text xml:space="preserve" font-family="HelveticaNeue-Bold" font-weight="bold" font-size="23.0" fill="#000000" transform="matrix(1.00, 0.00, -0.00, -1.00, 500.4, 24.0)">c</text><text xml:space="preserve" font-family="HelveticaNeue-Bold" font-weight="bold" font-size="23.0" fill="#000000" transform="matrix(1.00, 0.00, -0.00, -1.00, 513.6, 24.0)">e</text><text xml:space="preserve" font-family="HelveticaNeue-Bold" font-weight="bold" font-size="23.0" fill="#000000" transform="matrix(1.00, 0.00, -0.00, -1.00, 526.8, 24.0)">s</text><text xml:space="preserve" font-family="HelveticaNeue-Bold" font-weight="bold" font-size="23.0" fill="#000000" transform="matrix(1.00, 0.00, -0.00, -1.00, 539.1, 24.0)"> </text><text xml:space="preserve" font-family="HelveticaNeue-Bold" font-weight="bold" font-size="23.0" fill="#000000" transform="matrix(1.00, 0.00, -0.00, -1.00, 545.5, 24.0)">a</text><text xml:space="preserve" font-family="HelveticaNeue-Bold" font-weight="bold" font-size="23.0" fill="#000000" transform="matrix(1.00, 0.00, -0.00, -1.00, 558.7, 24.0)">n</text><text xml:space="preserve" font-family="HelveticaNeue-Bold" font-weight="bold" font-size="23.0" fill="#000000" transform="matrix(1.00, 0.00, -0.00, -1.00, 572.4, 24.0)">d</text><text xml:space="preserve" font-family="HelveticaNeue-Bold" font-weight="bold" font-size="23.0" fill="#000000" transform="matrix(1.00, 0.00, -0.00, -1.00, 586.4, 24.0)"> </text><text xml:space="preserve" font-family="HelveticaNeue-Bold" font-weight="bold" font-size="23.0" fill="#000000" transform="matrix(1.00, 0.00, -0.00, -1.00, 592.8, 24.0)">c</text><text xml:space="preserve" font-family="HelveticaNeue-Bold" font-weight="bold" font-size="23.0" fill="#000000" transform="matrix(1.00, 0.00, -0.00, -1.00, 606.0, 24.0)">o</text><text xml:space="preserve" font-family="HelveticaNeue-Bold" font-weight="bold" font-size="23.0" fill="#000000" transform="matrix(1.00, 0.00, -0.00, -1.00, 620.1, 24.0)">n</text><text xml:space="preserve" font-family="HelveticaNeue-Bold" font-weight="bold" font-size="23.0" fill="#000000" transform="matrix(1.00, 0.00, -0.00, -1.00, 633.7, 24.0)">t</text><text xml:space="preserve" font-family="HelveticaNeue-Bold" font-weight="bold" font-size="23.0" fill="#000000" transform="matrix(1.00, 0.00, -0.00, -1.00, 641.8, 24.0)">i</text><text xml:space="preserve" font-family="HelveticaNeue-Bold" font-weight="bold" font-size="23.0" fill="#000000" transform="matrix(1.00, 0.00, -0.00, -1.00, 647.7, 24.0)">n</text><text xml:space="preserve" font-family="HelveticaNeue-Bold" font-weight="bold" font-size="23.0" fill="#000000" transform="matrix(1.00, 0.00, -0.00, -1.00, 661.4, 24.0)">u</text><text xml:space="preserve" font-family="HelveticaNeue-Bold" font-weight="bold" font-size="23.0" fill="#000000" transform="matrix(1.00, 0.00, -0.00, -1.00, 675.0, 24.0)">o</text><text xml:space="preserve" font-family="HelveticaNeue-Bold" font-weight="bold" font-size="23.0" fill="#000000" transform="matrix(1.00, 0.00, -0.00, -1.00, 689.1, 24.0)">u</text><text xml:space="preserve" font-family="HelveticaNeue-Bold" font-weight="bold" font-size="23.0" fill="#000000" transform="matrix(1.00, 0.00, -0.00, -1.00, 702.7, 24.0)">s</text><text xml:space="preserve" font-family="HelveticaNeue-Bold" font-weight="bold" font-size="23.0" fill="#000000" transform="matrix(1.00, 0.00, -0.00, -1.00, 715.1, 24.0)"> </text><text xml:space="preserve" font-family="HelveticaNeue-Bold" font-weight="bold" font-size="23.0" fill="#000000" transform="matrix(1.00, 0.00, -0.00, -1.00, 721.4, 24.0)">d</text><text xml:space="preserve" font-family="HelveticaNeue-Bold" font-weight="bold" font-size="23.0" fill="#000000" transform="matrix(1.00, 0.00, -0.00, -1.00, 735.5, 24.0)">e</text><text xml:space="preserve" font-family="HelveticaNeue-Bold" font-weight="bold" font-size="23.0" fill="#000000" transform="matrix(1.00, 0.00, -0.00, -1.00, 748.7, 24.0)">l</text><text xml:space="preserve" font-family="HelveticaNeue-Bold" font-weight="bold" font-size="23.0" fill="#000000" transform="matrix(1.00, 0.00, -0.00, -1.00, 754.6, 24.0)">i</text><text xml:space="preserve" font-family="HelveticaNeue-Bold" font-weight="bold" font-size="23.0" fill="#000000" transform="matrix(1.00, 0.00, -0.00, -1.00, 760.6, 24.0)">v</text><text xml:space="preserve" font-family="HelveticaNeue-Bold" font-weight="bold" font-size="23.0" fill="#000000" transform="matrix(1.00, 0.00, -0.00, -1.00, 772.5, 24.0)">e</text><text xml:space="preserve" font-family="HelveticaNeue-Bold" font-weight="bold" font-size="23.0" fill="#000000" transform="matrix(1.00, 0.00, -0.00, -1.00, 785.7, 24.0)">r</text><text xml:space="preserve" font-family="HelveticaNeue-Bold" font-weight="bold" font-size="23.0" fill="#000000" transform="matrix(1.00, 0.00, -0.00, -1.00, 794.7, 24.0)">y</text><text xml:space="preserve" font-family="HelveticaNeue-Bold" font-weight="bold" font-size="23.0" fill="#000000" transform="matrix(1.00, 0.00, -0.00, -1.00, 806.6, 24.0)"> </text><text xml:space="preserve" font-family="HelveticaNeue-Bold" font-weight="bold" font-size="23.0" fill="#000000" transform="matrix(1.00, 0.00, -0.00, -1.00, 813.0, 24.0)">a</text><text xml:space="preserve" font-family="HelveticaNeue-Bold" font-weight="bold" font-size="23.0" fill="#000000" transform="matrix(1.00, 0.00, -0.00, -1.00, 826.2, 24.0)">t</text><text xml:space="preserve" font-family="HelveticaNeue-Bold" font-weight="bold" font-size="23.0" fill="#000000" transform="matrix(1.00, 0.00, -0.00, -1.00, 834.3, 24.0)"> </text><text xml:space="preserve" font-family="HelveticaNeue-Bold" font-weight="bold" font-size="23.0" fill="#000000" transform="matrix(1.00, 0.00, -0.00, -1.00, 840.7, 24.0)">t</text><text xml:space="preserve" font-family="HelveticaNeue-Bold" font-weight="bold" font-size="23.0" fill="#000000" transform="matrix(1.00, 0.00, -0.00, -1.00, 848.8, 24.0)">h</text><text xml:space="preserve" font-family="HelveticaNeue-Bold" font-weight="bold" font-size="23.0" fill="#000000" transform="matrix(1.00, 0.00, -0.00, -1.00, 862.4, 24.0)">e</text><text xml:space="preserve" font-family="HelveticaNeue-Bold" font-weight="bold" font-size="23.0" fill="#000000" transform="matrix(1.00, 0.00, -0.00, -1.00, 875.6, 24.0)"> </text><text xml:space="preserve" font-family="HelveticaNeue-Bold" font-weight="bold" font-size="23.0" fill="#000000" transform="matrix(1.00, 0.00, -0.00, -1.00, 882.0, 24.0)">B</text><text xml:space="preserve" font-family="HelveticaNeue-Bold" font-weight="bold" font-size="23.0" fill="#000000" transform="matrix(1.00, 0.00, -0.00, -1.00, 898.2, 24.0)">B</text><text xml:space="preserve" font-family="HelveticaNeue-Bold" font-weight="bold" font-size="23.0" fill="#000000" transform="matrix(1.00, 0.00, -0.00, -1.00, 914.4, 24.0)">C</text><image xlink:href="../../D0517147-4847-4A0F-8B98-32B995C105A1/assets/0BF8E63FE00997E10C4EC11A1CFD77DD.png" width="97.00" height="27.00" transform="matrix(1.00, 0.00, -0.00, -1.00, 1751.0, 44.0)"></image><g><clipPath id="clip-553"><path d="M 254.0 152.0 L 1344.1 152.0 L 1344.1 1003.6 L 254.0 1003.6 Z M 254.0 152.0 "></path></clipPath><g clip-path="url(#clip-553)"><image xlink:href="../../AE97EE79-4776-45B0-8BE8-7BD3F51E563B/assets/1C90B5E3BC65854BC08578FDC08BF388.png" width="36.00" height="40.00" transform="matrix(1.80, 0.00, -0.00, 1.80, 254.0, 641.0)"></image><image xlink:href="../../AE97EE79-4776-45B0-8BE8-7BD3F51E563B/assets/017DB0FB988542E910732024B5668633.png" width="31.00" height="31.00" transform="matrix(1.80, 0.00, -0.00, 1.80, 257.6, 686.1)"></image><image xlink:href="../../AE97EE79-4776-45B0-8BE8-7BD3F51E563B/assets/7854AC818F7D18D8B8AB9754BCEB4697.png" width="36.00" height="40.00" transform="matrix(1.80, 0.00, -0.00, 1.80, 254.0, 366.7)"></image><image xlink:href="../../AE97EE79-4776-45B0-8BE8-7BD3F51E563B/assets/E1226CBC7F4A869225B731A678D2AE64.png" width="31.00" height="31.00" transform="matrix(1.80, 0.00, -0.00, 1.80, 257.6, 413.6)"></image><image xlink:href="B1E97FB80C287D2C2390973F2BD6F48B.png" width="36.00" height="40.00" transform="matrix(1.80, 0.00, -0.00, 1.80, 934.4, 902.6)"></image><image xlink:href="ADDEEEFD2BB9245B3A66EABBF7F7A7D5.png" width="31.00" height="31.00" transform="matrix(1.80, 0.00, -0.00, 1.80, 938.0, 947.7)"></image><path d="M 476.1 756.8 L 607.5 756.8 C 623.0 756.8 635.6 722.5 635.6 680.1 C 635.6 637.8 623.0 603.5 607.5 603.5 L 476.1 603.5 C 460.5 603.5 447.9 637.8 447.9 680.1 C 447.9 722.5 460.5 756.8 476.1 756.8 " fill="#FEFFFF"></path><path d="M 215.6 163.7 L 288.4 163.7 C 297.0 163.0 304.0 182.0 304.0 205.5 C 304.0 229.0 297.0 248.0 288.4 248.7 L 215.6 248.7 C 207.0 248.0 200.0 229.0 200.0 205.5 C 200.0 182.0 207.0 163.0 215.6 163.0 " fill="none" stroke="#000000" stroke-width="1.00" stroke-miterlimit="0.00" stroke-linecap="round" stroke-linejoin="round" transform="matrix(1.80, 0.00, 0.00, -1.80, 87.0, 1050.9)"></path><text xml:space="preserve" font-family="Helvetica" font-size="12.0" fill="#000000" transform="matrix(1.80, 0.00, -0.00, -1.80, 495.6, 685.5)">P</text><text xml:space="preserve" font-family="Helvetica" font-size="12.0" fill="#000000" transform="matrix(1.80, 0.00, -0.00, -1.80, 510.1, 685.5)">H</text><text xml:space="preserve" font-family="Helvetica" font-size="12.0" fill="#000000" transform="matrix(1.80, 0.00, -0.00, -1.80, 525.7, 685.5)">P</text><text xml:space="preserve" font-family="Helvetica" font-size="12.0" fill="#000000" transform="matrix(1.80, 0.00, -0.00, -1.80, 539.8, 685.5)"> </text><text xml:space="preserve" font-family="Helvetica" font-size="12.0" fill="#000000" transform="matrix(1.80, 0.00, -0.00, -1.80, 545.8, 685.5)">f</text><text xml:space="preserve" font-family="Helvetica" font-size="12.0" fill="#000000" transform="matrix(1.80, 0.00, -0.00, -1.80, 551.8, 685.5)">o</text><text xml:space="preserve" font-family="Helvetica" font-size="12.0" fill="#000000" transform="matrix(1.80, 0.00, -0.00, -1.80, 563.8, 685.5)">o</text><text xml:space="preserve" font-family="Helvetica" font-size="12.0" fill="#000000" transform="matrix(1.80, 0.00, -0.00, -1.80, 575.9, 685.5)">d</text><text xml:space="preserve" font-family="Helvetica" font-size="12.0" fill="#000000" transform="matrix(1.80, 0.00, -0.00, -1.80, 587.9, 685.5)"> </text><text xml:space="preserve" font-family="Helvetica" font-size="12.0" fill="#000000" transform="matrix(1.80, 0.00, -0.00, -1.80, 490.0, 660.3)">a</text><text xml:space="preserve" font-family="Helvetica" font-size="12.0" fill="#000000" transform="matrix(1.80, 0.00, -0.00, -1.80, 502.0, 660.3)">p</text><text xml:space="preserve" font-family="Helvetica" font-size="12.0" fill="#000000" transform="matrix(1.80, 0.00, -0.00, -1.80, 514.1, 660.3)">p</text><text xml:space="preserve" font-family="Helvetica" font-size="12.0" fill="#000000" transform="matrix(1.80, 0.00, -0.00, -1.80, 526.1, 660.3)">l</text><text xml:space="preserve" font-family="Helvetica" font-size="12.0" fill="#000000" transform="matrix(1.80, 0.00, -0.00, -1.80, 531.0, 660.3)">i</text><text xml:space="preserve" font-family="Helvetica" font-size="12.0" fill="#000000" transform="matrix(1.80, 0.00, -0.00, -1.80, 535.8, 660.3)">c</text><text xml:space="preserve" font-family="Helvetica" font-size="12.0" fill="#000000" transform="matrix(1.80, 0.00, -0.00, -1.80, 546.6, 660.3)">a</text><text xml:space="preserve" font-family="Helvetica" font-size="12.0" fill="#000000" transform="matrix(1.80, 0.00, -0.00, -1.80, 558.7, 660.3)">t</text><text xml:space="preserve" font-family="Helvetica" font-size="12.0" fill="#000000" transform="matrix(1.80, 0.00, -0.00, -1.80, 564.7, 660.3)">i</text><text xml:space="preserve" font-family="Helvetica" font-size="12.0" fill="#000000" transform="matrix(1.80, 0.00, -0.00, -1.80, 569.5, 660.3)">o</text><text xml:space="preserve" font-family="Helvetica" font-size="12.0" fill="#000000" transform="matrix(1.80, 0.00, -0.00, -1.80, 581.5, 660.3)">n</text><path d="M 476.1 489.8 L 607.5 489.8 C 623.0 489.8 635.6 455.4 635.6 413.1 C 635.6 370.8 623.0 336.4 607.5 336.4 L 476.1 336.4 C 460.5 336.4 447.9 370.8 447.9 413.1 C 447.9 455.4 460.5 489.8 476.1 489.8 " fill="#FEFFFF"></path><path d="M 215.6 311.7 L 288.4 311.7 C 297.0 311.0 304.0 330.0 304.0 353.5 C 304.0 377.0 297.0 396.0 288.4 396.7 L 215.6 396.7 C 207.0 396.0 200.0 377.0 200.0 353.5 C 200.0 330.0 207.0 311.0 215.6 311.0 " fill="none" stroke="#000000" stroke-width="1.00" stroke-miterlimit="0.00" stroke-linecap="round" stroke-linejoin="round" transform="matrix(1.80, 0.00, 0.00, -1.80, 87.0, 1050.9)"></path><text xml:space="preserve" font-family="Helvetica" font-size="12.0" fill="#000000" transform="matrix(1.80, 0.00, -0.00, -1.80, 512.3, 418.5)">a</text><text xml:space="preserve" font-family="Helvetica" font-size="12.0" fill="#000000" transform="matrix(1.80, 0.00, -0.00, -1.80, 524.3, 418.5)">d</text><text xml:space="preserve" font-family="Helvetica" font-size="12.0" fill="#000000" transform="matrix(1.80, 0.00, -0.00, -1.80, 536.4, 418.5)">m</text><text xml:space="preserve" font-family="Helvetica" font-size="12.0" fill="#000000" transform="matrix(1.80, 0.00, -0.00, -1.80, 554.4, 418.5)">i</text><text xml:space="preserve" font-family="Helvetica" font-size="12.0" fill="#000000" transform="matrix(1.80, 0.00, -0.00, -1.80, 559.2, 418.5)">n</text><text xml:space="preserve" font-family="Helvetica" font-size="12.0" fill="#000000" transform="matrix(1.80, 0.00, -0.00, -1.80, 571.3, 418.5)"> </text><text xml:space="preserve" font-family="Helvetica" font-size="12.0" fill="#000000" transform="matrix(1.80, 0.00, -0.00, -1.80, 490.0, 393.3)">a</text><text xml:space="preserve" font-family="Helvetica" font-size="12.0" fill="#000000" transform="matrix(1.80, 0.00, -0.00, -1.80, 502.0, 393.3)">p</text><text xml:space="preserve" font-family="Helvetica" font-size="12.0" fill="#000000" transform="matrix(1.80, 0.00, -0.00, -1.80, 514.1, 393.3)">p</text><text xml:space="preserve" font-family="Helvetica" font-size="12.0" fill="#000000" transform="matrix(1.80, 0.00, -0.00, -1.80, 526.1, 393.3)">l</text><text xml:space="preserve" font-family="Helvetica" font-size="12.0" fill="#000000" transform="matrix(1.80, 0.00, -0.00, -1.80, 531.0, 393.3)">i</text><text xml:space="preserve" font-family="Helvetica" font-size="12.0" fill="#000000" transform="matrix(1.80, 0.00, -0.00, -1.80, 535.8, 393.3)">c</text><text xml:space="preserve" font-family="Helvetica" font-size="12.0" fill="#000000" transform="matrix(1.80, 0.00, -0.00, -1.80, 546.6, 393.3)">a</text><text xml:space="preserve" font-family="Helvetica" font-size="12.0" fill="#000000" transform="matrix(1.80, 0.00, -0.00, -1.80, 558.7, 393.3)">t</text><text xml:space="preserve" font-family="Helvetica" font-size="12.0" fill="#000000" transform="matrix(1.80, 0.00, -0.00, -1.80, 564.7, 393.3)">i</text><text xml:space="preserve" font-family="Helvetica" font-size="12.0" fill="#000000" transform="matrix(1.80, 0.00, -0.00, -1.80, 569.5, 393.3)">o</text><text xml:space="preserve" font-family="Helvetica" font-size="12.0" fill="#000000" transform="matrix(1.80, 0.00, -0.00, -1.80, 581.5, 393.3)">n</text><text xml:space="preserve" font-family="HelveticaNeue" font-size="16.0" fill="#000000" transform="matrix(1.80, 0.00, -0.00, -1.80, 504.8, 816.4)">F</text><text xml:space="preserve" font-family="HelveticaNeue" font-size="16.0" fill="#000000" transform="matrix(1.80, 0.00, -0.00, -1.80, 521.3, 816.4)">o</text><text xml:space="preserve" font-family="HelveticaNeue" font-size="16.0" fill="#000000" transform="matrix(1.80, 0.00, -0.00, -1.80, 537.9, 816.4)">r</text><text xml:space="preserve" font-family="HelveticaNeue" font-size="16.0" fill="#000000" transform="matrix(1.80, 0.00, -0.00, -1.80, 546.7, 816.4)">g</text><text xml:space="preserve" font-family="HelveticaNeue" font-size="16.0" fill="#000000" transform="matrix(1.80, 0.00, -0.00, -1.80, 563.3, 816.4)">e</text><text xml:space="preserve" font-family="HelveticaNeue" font-size="16.0" fill="#000000" transform="matrix(1.80, 0.00, -0.00, -1.80, 1251.8, 816.4)">A</text><text xml:space="preserve" font-family="HelveticaNeue" font-size="16.0" fill="#000000" transform="matrix(1.80, 0.00, -0.00, -1.80, 1269.8, 816.4)">W</text><text xml:space="preserve" font-family="HelveticaNeue" font-size="16.0" fill="#000000" transform="matrix(1.80, 0.00, -0.00, -1.80, 1296.5, 816.4)">S</text><text xml:space="preserve" font-family="HelveticaNeue" font-size="12.0" fill="#000000" transform="matrix(1.80, 0.00, -0.00, -1.80, 728.3, 633.2)">G</text><text xml:space="preserve" font-family="HelveticaNeue" font-size="12.0" fill="#000000" transform="matrix(1.80, 0.00, -0.00, -1.80, 744.7, 633.2)">E</text><text xml:space="preserve" font-family="HelveticaNeue" font-size="12.0" fill="#000000" transform="matrix(1.80, 0.00, -0.00, -1.80, 757.9, 633.2)">T</text><path d="M 398.0 99.0 L 400.1 456.4 L 399.6 496.2 " fill="none" stroke="#AB3933" stroke-width="1.00" stroke-miterlimit="0.00" stroke-linecap="round" stroke-linejoin="round" stroke-dasharray="4.0, 4.0" transform="matrix(1.80, 0.00, 0.00, -1.80, 87.0, 1050.9)"></path><text xml:space="preserve" font-family="HelveticaNeue" font-size="12.0" fill="#000000" transform="matrix(1.80, 0.00, -0.00, -1.80, 689.8, 431.1)">G</text><text xml:space="preserve" font-family="HelveticaNeue" font-size="12.0" fill="#000000" transform="matrix(1.80, 0.00, -0.00, -1.80, 706.2, 431.1)">E</text><text xml:space="preserve" font-family="HelveticaNeue" font-size="12.0" fill="#000000" transform="matrix(1.80, 0.00, -0.00, -1.80, 719.4, 431.1)">T</text><text xml:space="preserve" font-family="HelveticaNeue" font-size="12.0" fill="#000000" transform="matrix(1.80, 0.00, -0.00, -1.80, 689.8, 405.9)">P</text><text xml:space="preserve" font-family="HelveticaNeue" font-size="12.0" fill="#000000" transform="matrix(1.80, 0.00, -0.00, -1.80, 703.8, 405.9)">U</text><text xml:space="preserve" font-family="HelveticaNeue" font-size="12.0" fill="#000000" transform="matrix(1.80, 0.00, -0.00, -1.80, 719.4, 405.9)">T</text><text xml:space="preserve" font-family="HelveticaNeue" font-size="12.0" fill="#000000" transform="matrix(1.80, 0.00, -0.00, -1.80, 689.8, 380.6)">D</text><text xml:space="preserve" font-family="HelveticaNeue" font-size="12.0" fill="#000000" transform="matrix(1.80, 0.00, -0.00, -1.80, 705.0, 380.6)">E</text><text xml:space="preserve" font-family="HelveticaNeue" font-size="12.0" fill="#000000" transform="matrix(1.80, 0.00, -0.00, -1.80, 718.2, 380.6)">L</text><text xml:space="preserve" font-family="HelveticaNeue" font-size="12.0" fill="#000000" transform="matrix(1.80, 0.00, -0.00, -1.80, 730.3, 380.6)">E</text><text xml:space="preserve" font-family="HelveticaNeue" font-size="12.0" fill="#000000" transform="matrix(1.80, 0.00, -0.00, -1.80, 743.5, 380.6)">T</text><text xml:space="preserve" font-family="HelveticaNeue" font-size="12.0" fill="#000000" transform="matrix(1.80, 0.00, -0.00, -1.80, 755.9, 380.6)">E</text><path d="M 1314.2 566.8 L 1327.6 557.1 L 1327.6 570.8 L 1314.1 586.6 L 1314.1 566.9 L 1314.2 566.8 Z M 1314.2 566.8 " fill="#3367A2"></path><path d="M 1288.3 469.6 L 1314.1 482.5 L 1314.1 586.7 L 1288.3 599.5 Z M 1288.3 469.6 " fill="#5189BB"></path><path d="M 1251.6 469.6 L 1225.8 482.5 L 1225.8 586.7 L 1251.6 599.5 Z M 1251.6 469.6 " fill="#285285"></path><path d="M 1251.6 599.5 L 1288.3 599.5 L 1288.3 469.6 L 1251.6 469.6 Z M 1251.6 599.5 " fill="#3367A2"></path><path d="M 1314.1 502.3 L 1314.1 482.5 L 1327.6 498.3 L 1327.6 512.0 L 1314.2 502.3 Z M 1314.1 502.3 " fill="#3367A2"></path><path d="M 1314.1 510.6 L 1314.2 510.7 L 1327.6 517.9 L 1327.6 531.7 L 1314.1 530.4 Z M 1314.1 510.6 " fill="#3367A2"></path><path d="M 1314.2 558.5 L 1314.1 558.5 L 1314.1 538.8 L 1327.6 537.5 L 1327.6 551.3 Z M 1314.2 558.5 " fill="#3367A2"></path><path d="M 1327.6 537.5 L 1314.1 538.8 L 1288.3 539.8 L 1251.6 539.8 L 1225.8 538.8 L 1225.8 558.4 L 1225.8 558.4 L 1225.8 558.5 L 1251.6 564.5 L 1288.3 564.5 L 1314.1 558.5 L 1323.6 553.4 L 1323.6 556.7 L 1327.6 557.1 L 1314.1 566.9 L 1288.3 574.9 L 1251.6 574.9 L 1225.8 566.9 L 1225.8 586.6 L 1212.3 570.8 L 1212.3 557.0 L 1212.4 557.1 L 1216.3 556.7 L 1216.3 553.4 L 1212.3 551.2 L 1212.3 537.5 L 1212.4 537.5 L 1216.3 537.4 L 1216.3 531.7 L 1212.9 531.6 L 1212.3 531.7 L 1212.3 517.9 L 1216.3 515.8 L 1216.3 512.4 L 1212.5 512.0 L 1212.3 512.1 L 1212.3 498.3 L 1225.8 482.5 L 1225.8 502.3 L 1251.6 494.3 L 1288.3 494.3 L 1314.2 502.3 L 1327.6 512.0 L 1323.6 512.4 L 1323.6 515.7 L 1314.2 510.7 L 1288.3 504.7 L 1288.3 504.7 L 1251.6 504.7 L 1251.6 504.7 L 1225.7 510.7 L 1225.7 510.7 L 1225.8 510.7 L 1225.8 530.4 L 1251.6 529.4 L 1251.6 529.4 L 1288.3 529.4 L 1288.3 529.4 L 1314.1 530.4 L 1327.6 531.6 L 1323.6 531.7 L 1323.6 537.4 Z M 1327.6 537.5 " fill="#213F5E"></path><path d="M 1020.7 599.8 C 1036.3 599.8 1048.8 590.6 1048.8 579.2 L 1048.8 497.8 C 1048.8 486.4 1036.3 477.1 1020.7 477.1 L 913.0 477.1 C 897.5 477.1 884.9 486.4 884.9 497.8 L 884.9 579.2 C 884.9 590.6 897.5 599.8 913.0 599.8 Z M 1020.7 599.8 " fill="#E77C3B"></path><text xml:space="preserve" font-family="Helvetica" font-size="12.0" fill="#000000" transform="matrix(1.80, 0.00, -0.00, -1.80, 932.5, 556.5)">H</text><text xml:space="preserve" font-family="Helvetica" font-size="12.0" fill="#000000" transform="matrix(1.80, 0.00, -0.00, -1.80, 948.2, 556.5)">e</text><text xml:space="preserve" font-family="Helvetica" font-size="12.0" fill="#000000" transform="matrix(1.80, 0.00, -0.00, -1.80, 960.2, 556.5)">s</text><text xml:space="preserve" font-family="Helvetica" font-size="12.0" fill="#000000" transform="matrix(1.80, 0.00, -0.00, -1.80, 971.1, 556.5)">t</text><text xml:space="preserve" font-family="Helvetica" font-size="12.0" fill="#000000" transform="matrix(1.80, 0.00, -0.00, -1.80, 977.1, 556.5)">o</text><text xml:space="preserve" font-family="Helvetica" font-size="12.0" fill="#000000" transform="matrix(1.80, 0.00, -0.00, -1.80, 989.1, 556.5)">n</text><text xml:space="preserve" font-family="Helvetica" font-size="12.0" fill="#000000" transform="matrix(1.80, 0.00, -0.00, -1.80, 1001.2, 556.5)"> </text><text xml:space="preserve" font-family="Helvetica" font-size="12.0" fill="#000000" transform="matrix(1.80, 0.00, -0.00, -1.80, 913.7, 531.3)">T</text><text xml:space="preserve" font-family="Helvetica" font-size="12.0" fill="#000000" transform="matrix(1.80, 0.00, -0.00, -1.80, 926.1, 531.3)">r</text><text xml:space="preserve" font-family="Helvetica" font-size="12.0" fill="#000000" transform="matrix(1.80, 0.00, -0.00, -1.80, 933.3, 531.3)">a</text><text xml:space="preserve" font-family="Helvetica" font-size="12.0" fill="#000000" transform="matrix(1.80, 0.00, -0.00, -1.80, 945.4, 531.3)">n</text><text xml:space="preserve" font-family="Helvetica" font-size="12.0" fill="#000000" transform="matrix(1.80, 0.00, -0.00, -1.80, 957.4, 531.3)">s</text><text xml:space="preserve" font-family="Helvetica" font-size="12.0" fill="#000000" transform="matrix(1.80, 0.00, -0.00, -1.80, 968.2, 531.3)">l</text><text xml:space="preserve" font-family="Helvetica" font-size="12.0" fill="#000000" transform="matrix(1.80, 0.00, -0.00, -1.80, 973.1, 531.3)">a</text><text xml:space="preserve" font-family="Helvetica" font-size="12.0" fill="#000000" transform="matrix(1.80, 0.00, -0.00, -1.80, 985.1, 531.3)">t</text><text xml:space="preserve" font-family="Helvetica" font-size="12.0" fill="#000000" transform="matrix(1.80, 0.00, -0.00, -1.80, 991.1, 531.3)">i</text><text xml:space="preserve" font-family="Helvetica" font-size="12.0" fill="#000000" transform="matrix(1.80, 0.00, -0.00, -1.80, 995.9, 531.3)">o</text><text xml:space="preserve" font-family="Helvetica" font-size="12.0" fill="#000000" transform="matrix(1.80, 0.00, -0.00, -1.80, 1008.0, 531.3)">n</text><text xml:space="preserve" font-family="Helvetica" font-size="12.0" fill="#000000" transform="matrix(1.80, 0.00, -0.00, -1.80, 1020.0, 531.3)"> </text><text xml:space="preserve" font-family="Helvetica" font-size="12.0" fill="#000000" transform="matrix(1.80, 0.00, -0.00, -1.80, 930.7, 506.0)">S</text><text xml:space="preserve" font-family="Helvetica" font-size="12.0" fill="#000000" transform="matrix(1.80, 0.00, -0.00, -1.80, 945.2, 506.0)">e</text><text xml:space="preserve" font-family="Helvetica" font-size="12.0" fill="#000000" transform="matrix(1.80, 0.00, -0.00, -1.80, 957.2, 506.0)">r</text><text xml:space="preserve" font-family="Helvetica" font-size="12.0" fill="#000000" transform="matrix(1.80, 0.00, -0.00, -1.80, 964.4, 506.0)">v</text><text xml:space="preserve" font-family="Helvetica" font-size="12.0" fill="#000000" transform="matrix(1.80, 0.00, -0.00, -1.80, 975.3, 506.0)">i</text><text xml:space="preserve" font-family="Helvetica" font-size="12.0" fill="#000000" transform="matrix(1.80, 0.00, -0.00, -1.80, 980.1, 506.0)">c</text><text xml:space="preserve" font-family="Helvetica" font-size="12.0" fill="#000000" transform="matrix(1.80, 0.00, -0.00, -1.80, 990.9, 506.0)">e</text><path d="M 1048.8 497.8 L 1048.8 490.6 C 1048.8 479.2 1036.3 469.9 1020.7 469.9 L 1020.7 477.1 C 1036.3 477.1 1048.8 486.4 1048.8 497.8 Z M 1048.8 497.8 " fill="#8E4B2A"></path><path d="M 1048.8 497.8 L 1048.8 490.6 C 1048.8 489.6 1048.7 488.6 1048.5 487.6 L 1048.5 494.9 C 1048.7 495.8 1048.8 496.8 1048.8 497.8 Z M 1048.8 497.8 " fill="#8E4B2A"></path><path d="M 1048.5 494.9 L 1048.5 487.6 C 1048.3 486.5 1048.0 485.4 1047.5 484.3 L 1047.5 491.5 C 1048.0 492.6 1048.3 493.7 1048.5 494.9 Z M 1048.5 494.9 " fill="#8E4B2A"></path><path d="M 1047.5 491.5 L 1047.5 484.3 C 1046.9 483.0 1046.2 481.8 1045.4 480.7 L 1045.4 487.9 C 1046.2 489.0 1046.9 490.2 1047.5 491.5 Z M 1047.5 491.5 " fill="#8E4B2A"></path><path d="M 1045.4 487.9 L 1045.4 480.7 C 1040.6 474.3 1031.3 469.9 1020.7 469.9 L 1020.7 477.1 C 1031.3 477.1 1040.6 481.5 1045.4 487.9 Z M 1045.4 487.9 " fill="#8E4B2A"></path><path d="M 911.9 477.1 L 1020.9 477.1 L 1020.9 469.9 L 911.9 469.9 Z M 911.9 477.1 " fill="#8E4B2A"></path><path d="M 913.0 477.1 L 913.0 469.9 C 897.5 469.9 884.9 479.2 884.9 490.6 L 884.9 497.8 C 884.9 486.4 897.5 477.1 913.0 477.1 Z M 913.0 477.1 " fill="#8E4B2A"></path><path d="M 914.2 477.1 L 914.2 469.9 C 898.6 469.9 884.9 479.2 884.9 490.6 L 884.9 497.8 C 884.9 486.4 897.5 477.1 914.2 477.1 Z M 914.2 477.1 " fill="#8E4B2A"></path><path d="M 302.6 222.8 L 432.7 267.3 " fill="none" stroke="#000000" stroke-width="1.00" stroke-miterlimit="0.00" stroke-linecap="round" stroke-linejoin="round" transform="matrix(1.80, 0.00, 0.00, -1.80, 87.0, 1050.9)"></path><path d="M 881.6 564.0 L 869.7 573.8 L 866.2 563.6 Z M 881.6 564.0 " fill="#000000"></path><path d="M 440.3 269.9 L 433.7 264.4 L 431.8 270.1 Z M 440.3 269.9 " fill="none" stroke="#000000" stroke-width="1.00" stroke-miterlimit="0.00" transform="matrix(1.80, 0.00, 0.00, -1.80, 87.0, 1050.9)"></path><path d="M 312.6 336.1 L 432.6 301.7 " fill="none" stroke="#000000" stroke-width="1.00" stroke-miterlimit="0.00" stroke-linecap="round" stroke-linejoin="round" transform="matrix(1.80, 0.00, 0.00, -1.80, 87.0, 1050.9)"></path><path d="M 881.6 510.5 L 866.2 511.7 L 869.2 501.3 Z M 881.6 510.5 " fill="#000000"></path><path d="M 440.3 299.5 L 431.8 298.9 L 433.4 304.6 Z M 440.3 299.5 " fill="none" stroke="#000000" stroke-width="1.00" stroke-miterlimit="0.00" transform="matrix(1.80, 0.00, 0.00, -1.80, 87.0, 1050.9)"></path><path d="M 637.2 440.4 L 652.6 439.2 L 649.6 449.6 Z M 637.2 440.4 " fill="#000000"></path><path d="M 304.9 338.3 L 313.4 339.0 L 311.7 333.3 Z M 304.9 338.3 " fill="none" stroke="#000000" stroke-width="1.00" stroke-miterlimit="0.00" transform="matrix(1.80, 0.00, 0.00, -1.80, 87.0, 1050.9)"></path><path d="M 543.9 286.9 L 613.6 286.5 " fill="none" stroke="#000000" stroke-width="1.00" stroke-miterlimit="0.00" stroke-linecap="round" stroke-linejoin="round" transform="matrix(1.80, 0.00, 0.00, -1.80, 87.0, 1050.9)"></path><path d="M 1208.9 534.2 L 1194.4 539.5 L 1194.5 528.6 Z M 1208.9 534.2 " fill="#000000"></path><path d="M 621.6 286.4 L 613.6 283.5 L 613.7 289.5 Z M 621.6 286.4 " fill="none" stroke="#000000" stroke-width="1.00" stroke-miterlimit="0.00" transform="matrix(1.80, 0.00, 0.00, -1.80, 87.0, 1050.9)"></path><path d="M 1054.1 533.1 L 1068.6 527.8 L 1068.5 538.6 Z M 1054.1 533.1 " fill="#000000"></path><path d="M 535.9 287.0 L 543.9 289.9 L 543.9 283.9 Z M 535.9 287.0 " fill="none" stroke="#000000" stroke-width="1.00" stroke-miterlimit="0.00" transform="matrix(1.80, 0.00, 0.00, -1.80, 87.0, 1050.9)"></path><text xml:space="preserve" font-family="HelveticaNeue" font-size="12.0" fill="#000000" transform="matrix(1.80, 0.00, -0.00, -1.80, 1104.5, 504.2)">G</text><text xml:space="preserve" font-family="HelveticaNeue" font-size="12.0" fill="#000000" transform="matrix(1.80, 0.00, -0.00, -1.80, 1120.9, 504.2)">E</text><text xml:space="preserve" font-family="HelveticaNeue" font-size="12.0" fill="#000000" transform="matrix(1.80, 0.00, -0.00, -1.80, 1134.2, 504.2)">T</text><text xml:space="preserve" font-family="HelveticaNeue" font-size="12.0" fill="#000000" transform="matrix(1.80, 0.00, -0.00, -1.80, 1104.5, 479.0)">P</text><text xml:space="preserve" font-family="HelveticaNeue" font-size="12.0" fill="#000000" transform="matrix(1.80, 0.00, -0.00, -1.80, 1118.5, 479.0)">U</text><text xml:space="preserve" font-family="HelveticaNeue" font-size="12.0" fill="#000000" transform="matrix(1.80, 0.00, -0.00, -1.80, 1134.2, 479.0)">T</text><text xml:space="preserve" font-family="HelveticaNeue" font-size="12.0" fill="#000000" transform="matrix(1.80, 0.00, -0.00, -1.80, 1104.5, 453.7)">D</text><text xml:space="preserve" font-family="HelveticaNeue" font-size="12.0" fill="#000000" transform="matrix(1.80, 0.00, -0.00, -1.80, 1119.7, 453.7)">E</text><text xml:space="preserve" font-family="HelveticaNeue" font-size="12.0" fill="#000000" transform="matrix(1.80, 0.00, -0.00, -1.80, 1133.0, 453.7)">L</text><text xml:space="preserve" font-family="HelveticaNeue" font-size="12.0" fill="#000000" transform="matrix(1.80, 0.00, -0.00, -1.80, 1145.0, 453.7)">E</text><text xml:space="preserve" font-family="HelveticaNeue" font-size="12.0" fill="#000000" transform="matrix(1.80, 0.00, -0.00, -1.80, 1158.2, 453.7)">T</text><text xml:space="preserve" font-family="HelveticaNeue" font-size="12.0" fill="#000000" transform="matrix(1.80, 0.00, -0.00, -1.80, 1170.7, 453.7)">E</text></g></g><g><clipPath id="clip-554"><path d="M 264.9 668.0 C 265.1 664.9 267.1 661.9 271.0 659.5 C 279.1 654.5 292.4 654.5 300.5 659.5 C 304.4 661.9 306.4 664.9 306.6 668.0 L 306.7 668.0 C 306.7 668.1 306.7 668.3 306.7 668.4 C 306.7 668.4 306.7 668.4 306.7 668.4 C 306.7 668.5 306.7 668.6 306.7 668.7 C 306.7 668.8 306.7 668.9 306.7 669.0 C 306.4 689.5 297.1 706.0 285.7 706.0 C 274.4 706.0 265.1 689.5 264.8 669.0 C 264.8 668.9 264.8 668.8 264.8 668.7 C 264.8 668.6 264.8 668.5 264.8 668.4 C 264.8 668.4 264.8 668.4 264.8 668.4 C 264.8 668.3 264.8 668.1 264.8 668.0 L 264.9 668.0 Z M 264.9 668.0 "></path></clipPath><g clip-path="url(#clip-554)"><g><clipPath id="clip-555"><path d="M 254.0 152.0 L 1344.1 152.0 L 1344.1 1003.6 L 254.0 1003.6 Z M 254.0 152.0 "></path></clipPath><g clip-path="url(#clip-555)"><path d="M 254.0 152.0 L 1344.1 152.0 L 1344.1 1003.6 L 254.0 1003.6 Z M 254.0 152.0 " fill="url(#gradSh1.48)"></path></g></g></g></g><g><clipPath id="clip-556"><path d="M 254.0 152.0 L 1344.1 152.0 L 1344.1 1003.6 L 254.0 1003.6 Z M 254.0 152.0 "></path></clipPath><g clip-path="url(#clip-556)"><path d="M 98.5 212.2 C 98.7 213.9 99.8 215.6 101.9 216.9 C 106.5 219.7 113.8 219.7 118.3 216.9 C 120.5 215.6 121.6 213.9 121.7 212.2 L 121.7 212.2 C 121.7 212.2 121.7 212.1 121.7 212.0 C 121.7 212.0 121.7 212.0 121.7 212.0 C 121.7 211.9 121.7 211.9 121.7 211.9 C 121.7 211.8 121.7 211.7 121.7 211.7 C 121.6 200.3 116.4 191.1 110.1 191.1 C 103.8 191.1 98.7 200.3 98.6 211.7 C 98.6 211.7 98.5 211.8 98.5 211.9 C 98.5 211.9 98.5 211.9 98.5 212.0 C 98.5 212.0 98.5 212.0 98.5 212.0 C 98.5 212.1 98.5 212.2 98.5 212.2 L 98.5 212.2 Z M 98.5 212.2 " fill="none" stroke="#000000" stroke-width="2.00" stroke-miterlimit="0.00" stroke-linecap="round" stroke-linejoin="round" transform="matrix(1.80, 0.00, 0.00, -1.80, 87.0, 1050.9)"></path></g></g><g><clipPath id="clip-557"><path d="M 297.4 730.3 C 303.8 723.9 303.8 713.5 297.4 707.0 C 291.0 700.6 280.5 700.6 274.1 707.0 C 267.7 713.5 267.7 723.9 274.1 730.3 C 280.5 736.8 291.0 736.8 297.4 730.3 "></path></clipPath><g clip-path="url(#clip-557)"><g><clipPath id="clip-558"><path d="M 254.0 152.0 L 1344.1 152.0 L 1344.1 1003.6 L 254.0 1003.6 Z M 254.0 152.0 "></path></clipPath><g clip-path="url(#clip-558)"><path d="M 254.0 152.0 L 1344.1 152.0 L 1344.1 1003.6 L 254.0 1003.6 Z M 254.0 152.0 " fill="url(#gradSh2.49)"></path></g></g></g></g><g><clipPath id="clip-559"><path d="M 254.0 152.0 L 1344.1 152.0 L 1344.1 1003.6 L 254.0 1003.6 Z M 254.0 152.0 "></path></clipPath><g clip-path="url(#clip-559)"><path d="M 116.6 177.7 C 120.2 181.2 120.2 187.0 116.6 190.6 C 113.0 194.2 107.2 194.2 103.7 190.6 C 100.1 187.0 100.1 181.2 103.7 177.7 C 107.2 174.1 113.0 174.1 116.6 177.7 " fill="none" stroke="#000000" stroke-width="2.00" stroke-miterlimit="0.00" stroke-linecap="round" stroke-linejoin="round" transform="matrix(1.80, 0.00, 0.00, -1.80, 87.0, 1050.9)"></path></g></g><g><clipPath id="clip-560"><path d="M 264.9 394.6 C 265.1 391.6 267.1 388.5 271.0 386.2 C 279.1 381.2 292.4 381.2 300.5 386.2 C 304.4 388.5 306.4 391.6 306.6 394.6 L 306.7 394.6 C 306.7 394.8 306.7 394.9 306.7 395.1 C 306.7 395.1 306.7 395.1 306.7 395.1 C 306.7 395.2 306.7 395.2 306.7 395.3 C 306.7 395.4 306.7 395.5 306.7 395.6 C 306.4 416.2 297.1 432.7 285.7 432.7 C 274.4 432.7 265.1 416.2 264.8 395.6 C 264.8 395.5 264.8 395.4 264.8 395.3 C 264.8 395.2 264.8 395.2 264.8 395.1 C 264.8 395.1 264.8 395.1 264.8 395.1 C 264.8 394.9 264.8 394.8 264.8 394.6 L 264.9 394.6 Z M 264.9 394.6 "></path></clipPath><g clip-path="url(#clip-560)"><g><clipPath id="clip-561"><path d="M 254.0 152.0 L 1344.1 152.0 L 1344.1 1003.6 L 254.0 1003.6 Z M 254.0 152.0 "></path></clipPath><g clip-path="url(#clip-561)"><path d="M 254.0 152.0 L 1344.1 152.0 L 1344.1 1003.6 L 254.0 1003.6 Z M 254.0 152.0 " fill="url(#gradSh3.50)"></path></g></g></g></g><g><clipPath id="clip-562"><path d="M 254.0 152.0 L 1344.1 152.0 L 1344.1 1003.6 L 254.0 1003.6 Z M 254.0 152.0 "></path></clipPath><g clip-path="url(#clip-562)"><path d="M 98.5 364.2 C 98.7 365.4 99.8 367.1 101.9 368.4 C 106.5 371.2 113.8 371.2 118.3 368.4 C 120.5 367.1 121.6 365.4 121.7 364.2 L 121.7 364.2 C 121.7 363.7 121.7 363.6 121.7 363.5 C 121.7 363.5 121.7 363.5 121.7 363.5 C 121.7 363.4 121.7 363.4 121.7 363.4 C 121.7 363.3 121.7 363.2 121.7 363.2 C 121.6 351.8 116.4 342.6 110.1 342.6 C 103.8 342.6 98.7 351.8 98.6 363.2 C 98.6 363.2 98.5 363.3 98.5 363.4 C 98.5 363.4 98.5 363.4 98.5 363.5 C 98.5 363.5 98.5 363.5 98.5 363.5 C 98.5 363.6 98.5 363.7 98.5 364.2 L 98.5 364.2 Z M 98.5 364.2 " fill="none" stroke="#000000" stroke-width="2.00" stroke-miterlimit="0.00" stroke-linecap="round" stroke-linejoin="round" transform="matrix(1.80, 0.00, 0.00, -1.80, 87.0, 1050.9)"></path></g></g><g><clipPath id="clip-563"><path d="M 297.4 457.0 C 303.8 450.6 303.8 440.1 297.4 433.7 C 291.0 427.3 280.5 427.3 274.1 433.7 C 267.7 440.1 267.7 450.6 274.1 457.0 C 280.5 463.4 291.0 463.4 297.4 457.0 "></path></clipPath><g clip-path="url(#clip-563)"><g><clipPath id="clip-564"><path d="M 254.0 152.0 L 1344.1 152.0 L 1344.1 1003.6 L 254.0 1003.6 Z M 254.0 152.0 "></path></clipPath><g clip-path="url(#clip-564)"><path d="M 254.0 152.0 L 1344.1 152.0 L 1344.1 1003.6 L 254.0 1003.6 Z M 254.0 152.0 " fill="url(#gradSh4.51)"></path></g></g></g></g><g><clipPath id="clip-565"><path d="M 254.0 152.0 L 1344.1 152.0 L 1344.1 1003.6 L 254.0 1003.6 Z M 254.0 152.0 "></path></clipPath><g clip-path="url(#clip-565)"><path d="M 116.6 329.2 C 120.2 332.7 120.2 338.5 116.6 342.1 C 113.0 345.7 107.2 345.7 103.7 342.1 C 100.1 338.5 100.1 332.7 103.7 329.2 C 107.2 325.6 113.0 325.6 116.6 329.2 " fill="none" stroke="#000000" stroke-width="2.00" stroke-miterlimit="0.00" stroke-linecap="round" stroke-linejoin="round" transform="matrix(1.80, 0.00, 0.00, -1.80, 87.0, 1050.9)"></path><path d="M 122.1 205.1 L 190.1 205.3 " fill="none" stroke="#000000" stroke-width="1.00" stroke-miterlimit="0.00" stroke-linecap="round" stroke-linejoin="round" transform="matrix(1.80, 0.00, 0.00, -1.80, 87.0, 1050.9)"></path><path d="M 444.5 680.4 L 430.1 685.9 L 430.0 675.1 Z M 444.5 680.4 " fill="#000000"></path><path d="M 198.1 205.3 L 190.1 202.3 L 190.1 208.3 Z M 198.1 205.3 " fill="none" stroke="#000000" stroke-width="1.00" stroke-miterlimit="0.00" transform="matrix(1.80, 0.00, 0.00, -1.80, 87.0, 1050.9)"></path><path d="M 122.0 356.3 L 190.1 354.8 " fill="none" stroke="#000000" stroke-width="1.00" stroke-miterlimit="0.00" stroke-linecap="round" stroke-linejoin="round" transform="matrix(1.80, 0.00, 0.00, -1.80, 87.0, 1050.9)"></path><path d="M 444.5 411.0 L 430.0 416.1 L 430.2 405.3 Z M 444.5 411.0 " fill="#000000"></path><path d="M 198.1 354.7 L 190.0 351.8 L 190.2 357.8 Z M 198.1 354.7 " fill="none" stroke="#000000" stroke-width="1.00" stroke-miterlimit="0.00" transform="matrix(1.80, 0.00, 0.00, -1.80, 87.0, 1050.9)"></path><text xml:space="preserve" font-family="HelveticaNeue" font-size="16.0" fill="#000000" transform="matrix(1.80, 0.00, -0.00, -1.80, 1188.2, 610.7)">D</text><text xml:space="preserve" font-family="HelveticaNeue" font-size="16.0" fill="#000000" transform="matrix(1.80, 0.00, -0.00, -1.80, 1208.5, 610.7)">y</text><text xml:space="preserve" font-family="HelveticaNeue" font-size="16.0" fill="#000000" transform="matrix(1.80, 0.00, -0.00, -1.80, 1222.9, 610.7)">n</text><text xml:space="preserve" font-family="HelveticaNeue" font-size="16.0" fill="#000000" transform="matrix(1.80, 0.00, -0.00, -1.80, 1239.0, 610.7)">a</text><text xml:space="preserve" font-family="HelveticaNeue" font-size="16.0" fill="#000000" transform="matrix(1.80, 0.00, -0.00, -1.80, 1254.5, 610.7)">m</text><text xml:space="preserve" font-family="HelveticaNeue" font-size="16.0" fill="#000000" transform="matrix(1.80, 0.00, -0.00, -1.80, 1279.1, 610.7)">o</text><text xml:space="preserve" font-family="HelveticaNeue" font-size="16.0" fill="#000000" transform="matrix(1.80, 0.00, -0.00, -1.80, 1295.7, 610.7)">D</text><text xml:space="preserve" font-family="HelveticaNeue" font-size="16.0" fill="#000000" transform="matrix(1.80, 0.00, -0.00, -1.80, 1316.0, 610.7)">B</text><path d="M 1027.7 821.8 C 1045.5 821.8 1059.9 812.5 1059.9 801.1 L 1059.9 719.7 C 1059.9 708.3 1045.5 699.1 1027.7 699.1 L 904.5 699.1 C 886.7 699.1 872.2 708.3 872.2 719.7 L 872.2 801.1 C 872.2 812.5 886.7 821.8 904.5 821.8 Z M 1027.7 821.8 " fill="#E77C3B"></path><text xml:space="preserve" font-family="Helvetica" font-size="12.0" fill="#000000" transform="matrix(1.80, 0.00, -0.00, -1.80, 881.8, 765.8)">F</text><text xml:space="preserve" font-family="Helvetica" font-size="12.0" fill="#000000" transform="matrix(1.80, 0.00, -0.00, -1.80, 895.0, 765.8)">o</text><text xml:space="preserve" font-family="Helvetica" font-size="12.0" fill="#000000" transform="matrix(1.80, 0.00, -0.00, -1.80, 907.1, 765.8)">o</text><text xml:space="preserve" font-family="Helvetica" font-size="12.0" fill="#000000" transform="matrix(1.80, 0.00, -0.00, -1.80, 919.1, 765.8)">d</text><text xml:space="preserve" font-family="Helvetica" font-size="12.0" fill="#000000" transform="matrix(1.80, 0.00, -0.00, -1.80, 931.2, 765.8)"> </text><text xml:space="preserve" font-family="Helvetica" font-size="12.0" fill="#000000" transform="matrix(1.80, 0.00, -0.00, -1.80, 937.2, 765.8)">R</text><text xml:space="preserve" font-family="Helvetica" font-size="12.0" fill="#000000" transform="matrix(1.80, 0.00, -0.00, -1.80, 952.8, 765.8)">e</text><text xml:space="preserve" font-family="Helvetica" font-size="12.0" fill="#000000" transform="matrix(1.80, 0.00, -0.00, -1.80, 964.9, 765.8)">s</text><text xml:space="preserve" font-family="Helvetica" font-size="12.0" fill="#000000" transform="matrix(1.80, 0.00, -0.00, -1.80, 975.7, 765.8)">p</text><text xml:space="preserve" font-family="Helvetica" font-size="12.0" fill="#000000" transform="matrix(1.80, 0.00, -0.00, -1.80, 987.8, 765.8)">o</text><text xml:space="preserve" font-family="Helvetica" font-size="12.0" fill="#000000" transform="matrix(1.80, 0.00, -0.00, -1.80, 999.8, 765.8)">n</text><text xml:space="preserve" font-family="Helvetica" font-size="12.0" fill="#000000" transform="matrix(1.80, 0.00, -0.00, -1.80, 1011.9, 765.8)">s</text><text xml:space="preserve" font-family="Helvetica" font-size="12.0" fill="#000000" transform="matrix(1.80, 0.00, -0.00, -1.80, 1022.7, 765.8)">i</text><text xml:space="preserve" font-family="Helvetica" font-size="12.0" fill="#000000" transform="matrix(1.80, 0.00, -0.00, -1.80, 1027.5, 765.8)">v</text><text xml:space="preserve" font-family="Helvetica" font-size="12.0" fill="#000000" transform="matrix(1.80, 0.00, -0.00, -1.80, 1038.3, 765.8)">e</text><text xml:space="preserve" font-family="Helvetica" font-size="12.0" fill="#000000" transform="matrix(1.80, 0.00, -0.00, -1.80, 1050.4, 765.8)"> </text><text xml:space="preserve" font-family="Helvetica" font-size="12.0" fill="#000000" transform="matrix(1.80, 0.00, -0.00, -1.80, 947.4, 740.6)">S</text><text xml:space="preserve" font-family="Helvetica" font-size="12.0" fill="#000000" transform="matrix(1.80, 0.00, -0.00, -1.80, 961.9, 740.6)">i</text><text xml:space="preserve" font-family="Helvetica" font-size="12.0" fill="#000000" transform="matrix(1.80, 0.00, -0.00, -1.80, 966.7, 740.6)">t</text><text xml:space="preserve" font-family="Helvetica" font-size="12.0" fill="#000000" transform="matrix(1.80, 0.00, -0.00, -1.80, 972.7, 740.6)">e</text><path d="M 1059.9 719.7 L 1059.9 712.5 C 1059.9 701.1 1045.5 691.9 1027.7 691.9 L 1027.7 699.1 C 1045.5 699.1 1059.9 708.3 1059.9 719.7 Z M 1059.9 719.7 " fill="#8E4B2A"></path><path d="M 1059.9 719.7 L 1059.9 712.5 C 1059.9 711.5 1059.8 710.5 1059.6 709.6 L 1059.6 716.8 C 1059.8 717.7 1059.9 718.7 1059.9 719.7 Z M 1059.9 719.7 " fill="#8E4B2A"></path><path d="M 1059.6 716.8 L 1059.6 709.6 C 1059.3 708.4 1058.9 707.3 1058.4 706.2 L 1058.4 713.4 C 1058.9 714.5 1059.3 715.6 1059.6 716.8 Z M 1059.6 716.8 " fill="#8E4B2A"></path><path d="M 1058.4 713.4 L 1058.4 706.2 C 1057.8 705.0 1057.0 703.7 1056.0 702.6 L 1056.0 709.8 C 1057.0 711.0 1057.8 712.2 1058.4 713.4 Z M 1058.4 713.4 " fill="#8E4B2A"></path><path d="M 1056.0 709.8 L 1056.0 702.6 C 1050.5 696.2 1039.9 691.9 1027.7 691.9 L 1027.7 699.1 C 1039.9 699.1 1050.5 703.4 1056.0 709.8 Z M 1056.0 709.8 " fill="#8E4B2A"></path><path d="M 903.1 699.1 L 1028.0 699.1 L 1028.0 691.9 L 903.1 691.9 Z M 903.1 699.1 " fill="#8E4B2A"></path><path d="M 904.5 699.1 L 904.5 691.9 C 886.7 691.9 872.2 701.1 872.2 712.5 L 872.2 719.7 C 872.2 708.3 886.7 699.1 904.5 699.1 Z M 904.5 699.1 " fill="#8E4B2A"></path><path d="M 905.8 699.1 L 905.8 691.9 C 888.0 691.9 872.2 701.1 872.2 712.5 L 872.2 719.7 C 872.2 708.3 886.7 699.1 905.8 699.1 Z M 905.8 699.1 " fill="#8E4B2A"></path><path d="M 487.2 199.0 L 487.4 240.1 " fill="none" stroke="#000000" stroke-width="1.00" stroke-miterlimit="0.00" stroke-linecap="round" stroke-linejoin="round" transform="matrix(1.80, 0.00, 0.00, -1.80, 87.0, 1050.9)"></path><path d="M 966.6 603.3 L 972.0 617.7 L 961.1 617.7 Z M 966.6 603.3 " fill="#000000"></path><path d="M 487.4 248.1 L 490.4 240.1 L 484.4 240.1 Z M 487.4 248.1 " fill="none" stroke="#000000" stroke-width="1.00" stroke-miterlimit="0.00" transform="matrix(1.80, 0.00, 0.00, -1.80, 87.0, 1050.9)"></path></g></g><g><clipPath id="clip-566"><path d="M 945.9 929.6 C 946.2 926.5 948.2 923.5 952.0 921.1 C 960.2 916.1 973.5 916.1 981.6 921.1 C 985.5 923.5 987.5 926.5 987.7 929.6 L 987.8 929.6 C 987.8 929.7 987.8 929.9 987.8 930.1 C 987.8 930.1 987.8 930.1 987.8 930.1 C 987.8 930.1 987.8 930.2 987.8 930.3 C 987.8 930.4 987.8 930.5 987.8 930.6 C 987.5 951.2 978.2 967.7 966.8 967.7 C 955.5 967.7 946.2 951.2 945.9 930.6 C 945.9 930.5 945.9 930.4 945.9 930.3 C 945.9 930.2 945.9 930.1 945.9 930.1 C 945.9 930.1 945.9 930.1 945.9 930.1 C 945.9 929.9 945.9 929.7 945.9 929.6 L 945.9 929.6 Z M 945.9 929.6 "></path></clipPath><g clip-path="url(#clip-566)"><g><clipPath id="clip-567"><path d="M 254.0 152.0 L 1344.1 152.0 L 1344.1 1003.6 L 254.0 1003.6 Z M 254.0 152.0 "></path></clipPath><g clip-path="url(#clip-567)"><path d="M 254.0 152.0 L 1344.1 152.0 L 1344.1 1003.6 L 254.0 1003.6 Z M 254.0 152.0 " fill="url(#gradSh5.52)"></path></g></g></g></g><g><clipPath id="clip-568"><path d="M 254.0 152.0 L 1344.1 152.0 L 1344.1 1003.6 L 254.0 1003.6 Z M 254.0 152.0 "></path></clipPath><g clip-path="url(#clip-568)"><path d="M 475.5 67.2 C 476.1 68.9 477.2 70.6 479.3 71.9 C 483.9 74.7 491.2 74.7 495.7 71.9 C 497.8 70.6 499.0 68.9 499.1 67.2 L 499.1 67.2 C 499.1 67.2 499.1 67.1 499.1 67.0 C 499.1 67.0 499.1 67.0 499.1 67.0 C 499.1 66.9 499.1 66.9 499.1 66.9 C 499.1 66.8 499.1 66.7 499.1 66.7 C 499.0 55.3 493.8 46.1 487.5 46.1 C 481.2 46.1 476.1 55.3 475.9 66.7 C 475.9 66.7 475.9 66.8 475.9 66.9 C 475.9 66.9 475.9 66.9 475.9 67.0 C 475.9 67.0 475.9 67.0 475.9 67.0 C 475.9 67.1 475.9 67.2 475.9 67.2 L 475.5 67.2 Z M 475.5 67.2 " fill="none" stroke="#000000" stroke-width="2.00" stroke-miterlimit="0.00" stroke-linecap="round" stroke-linejoin="round" transform="matrix(1.80, 0.00, 0.00, -1.80, 87.0, 1050.9)"></path></g></g><g><clipPath id="clip-569"><path d="M 978.5 992.0 C 984.9 985.5 984.9 975.1 978.5 968.7 C 972.1 962.2 961.6 962.2 955.2 968.7 C 948.8 975.1 948.8 985.5 955.2 992.0 C 961.6 998.4 972.1 998.4 978.5 992.0 "></path></clipPath><g clip-path="url(#clip-569)"><g><clipPath id="clip-570"><path d="M 254.0 152.0 L 1344.1 152.0 L 1344.1 1003.6 L 254.0 1003.6 Z M 254.0 152.0 "></path></clipPath><g clip-path="url(#clip-570)"><path d="M 254.0 152.0 L 1344.1 152.0 L 1344.1 1003.6 L 254.0 1003.6 Z M 254.0 152.0 " fill="url(#gradSh6.53)"></path></g></g></g></g><g><clipPath id="clip-571"><path d="M 254.0 152.0 L 1344.1 152.0 L 1344.1 1003.6 L 254.0 1003.6 Z M 254.0 152.0 "></path></clipPath><g clip-path="url(#clip-571)"><path d="M 494.0 32.7 C 497.6 36.2 497.6 42.0 494.0 45.6 C 490.4 49.2 484.6 49.2 481.1 45.6 C 477.5 42.0 477.5 36.2 481.1 32.7 C 484.6 29.1 490.4 29.1 494.0 32.7 " fill="none" stroke="#000000" stroke-width="2.00" stroke-miterlimit="0.00" stroke-linecap="round" stroke-linejoin="round" transform="matrix(1.80, 0.00, 0.00, -1.80, 87.0, 1050.9)"></path><path d="M 487.5 75.0 L 487.3 117.1 " fill="none" stroke="#000000" stroke-width="1.00" stroke-miterlimit="0.00" stroke-linecap="round" stroke-linejoin="round" transform="matrix(1.80, 0.00, 0.00, -1.80, 87.0, 1050.9)"></path><path d="M 966.4 825.2 L 971.8 839.6 L 961.0 839.7 Z M 966.4 825.2 " fill="#000000"></path><path d="M 487.3 125.1 L 490.3 117.1 L 484.3 117.1 Z M 487.3 125.1 " fill="none" stroke="#000000" stroke-width="1.00" stroke-miterlimit="0.00" transform="matrix(1.80, 0.00, 0.00, -1.80, 87.0, 1050.9)"></path><text xml:space="preserve" font-family="HelveticaNeue" font-size="12.0" fill="#000000" transform="matrix(1.80, 0.00, -0.00, -1.80, 973.0, 647.7)">G</text><text xml:space="preserve" font-family="HelveticaNeue" font-size="12.0" fill="#000000" transform="matrix(1.80, 0.00, -0.00, -1.80, 989.4, 647.7)">E</text><text xml:space="preserve" font-family="HelveticaNeue" font-size="12.0" fill="#000000" transform="matrix(1.80, 0.00, -0.00, -1.80, 1002.6, 647.7)">T</text></g></g></g></svg>