<?xml version="1.0" encoding="UTF-8" standalone="no"?><svg xmlns="http://www.w3.org/2000/svg" xmlns:xlink="http://www.w3.org/1999/xlink" clip-rule="evenodd" stroke-miterlimit="4.00" viewBox="0 0 1920 1080"><desc>SVG generated by Keynote</desc><defs><radialGradient id="gradSh1.44" cx="0.0" cy="-3.7" r="21.1" fx="0.0" fy="-3.7" gradientUnits="userSpaceOnUse" gradientTransform="matrix(1.80, 0.00, 0.00, -1.80, 286.7, 682.0)"><stop offset="0.00000" stop-color="#FFFFFF"></stop><stop offset="0.00880" stop-color="#FEFEFE"></stop><stop offset="1.00000" stop-color="#AAAAAA"></stop></radialGradient><radialGradient id="gradSh2.45" cx="0.0" cy="0.0" r="12.9" fx="0.0" fy="0.0" gradientUnits="userSpaceOnUse" gradientTransform="matrix(1.80, 0.00, 0.00, -1.80, 286.7, 719.8)"><stop offset="0.00000" stop-color="#FFFFFF"></stop><stop offset="0.01466" stop-color="#FEFEFE"></stop><stop offset="1.00000" stop-color="#CECECE"></stop></radialGradient><radialGradient id="gradSh3.46" cx="0.0" cy="-3.7" r="21.1" fx="0.0" fy="-3.7" gradientUnits="userSpaceOnUse" gradientTransform="matrix(1.80, 0.00, 0.00, -1.80, 286.7, 408.6)"><stop offset="0.00000" stop-color="#FFFFFF"></stop><stop offset="0.00880" stop-color="#FEFEFE"></stop><stop offset="1.00000" stop-color="#AAAAAA"></stop></radialGradient><radialGradient id="gradSh4.47" cx="0.0" cy="0.0" r="12.9" fx="0.0" fy="0.0" gradientUnits="userSpaceOnUse" gradientTransform="matrix(1.80, 0.00, 0.00, -1.80, 286.7, 446.4)"><stop offset="0.00000" stop-color="#FFFFFF"></stop><stop offset="0.01466" stop-color="#FEFEFE"></stop><stop offset="1.00000" stop-color="#CECECE"></stop></radialGradient></defs><g transform="matrix(1.00, 0.00, -0.00, -1.00, 0.0, 1080.0)"><path d="M 0.0 1080.0 L 1920.0 1080.0 L 1920.0 0.0 L 0.0 0.0 Z M 0.0 1080.0 " fill="#EEEDED"></path><path d="M 0.0 0.0 L 1836.0 0.0 " fill="none" stroke="#000000" stroke-width="2.00" transform="matrix(1.00, 0.00, 0.00, -1.00, 41.0, 58.0)"></path><text xml:space="preserve" font-family="HelveticaNeue-Bold" font-weight="bold" font-size="23.0" fill="#000000" transform="matrix(1.00, 0.00, -0.00, -1.00, 61.0, 24.0)">D</text><text xml:space="preserve" font-family="HelveticaNeue-Bold" font-weight="bold" font-size="23.0" fill="#000000" transform="matrix(1.00, 0.00, -0.00, -1.00, 78.0, 24.0)">i</text><text xml:space="preserve" font-family="HelveticaNeue-Bold" font-weight="bold" font-size="23.0" fill="#000000" transform="matrix(1.00, 0.00, -0.00, -1.00, 84.0, 24.0)">s</text><text xml:space="preserve" font-family="HelveticaNeue-Bold" font-weight="bold" font-size="23.0" fill="#000000" transform="matrix(1.00, 0.00, -0.00, -1.00, 96.3, 24.0)">m</text><text xml:space="preserve" font-family="HelveticaNeue-Bold" font-weight="bold" font-size="23.0" fill="#000000" transform="matrix(1.00, 0.00, -0.00, -1.00, 117.2, 24.0)">a</text><text xml:space="preserve" font-family="HelveticaNeue-Bold" font-weight="bold" font-size="23.0" fill="#000000" transform="matrix(1.00, 0.00, -0.00, -1.00, 130.4, 24.0)">n</text><text xml:space="preserve" font-family="HelveticaNeue-Bold" font-weight="bold" font-size="23.0" fill="#000000" transform="matrix(1.00, 0.00, -0.00, -1.00, 144.0, 24.0)">t</text><text xml:space="preserve" font-family="HelveticaNeue-Bold" font-weight="bold" font-size="23.0" fill="#000000" transform="matrix(1.00, 0.00, -0.00, -1.00, 152.1, 24.0)">l</text><text xml:space="preserve" font-family="HelveticaNeue-Bold" font-weight="bold" font-size="23.0" fill="#000000" transform="matrix(1.00, 0.00, -0.00, -1.00, 158.0, 24.0)">i</text><text xml:space="preserve" font-family="HelveticaNeue-Bold" font-weight="bold" font-size="23.0" fill="#000000" transform="matrix(1.00, 0.00, -0.00, -1.00, 164.0, 24.0)">n</text><text xml:space="preserve" font-family="HelveticaNeue-Bold" font-weight="bold" font-size="23.0" fill="#000000" transform="matrix(1.00, 0.00, -0.00, -1.00, 177.6, 24.0)">g</text><text xml:space="preserve" font-family="HelveticaNeue-Bold" font-weight="bold" font-size="23.0" fill="#000000" transform="matrix(1.00, 0.00, -0.00, -1.00, 191.7, 24.0)"> </text><text xml:space="preserve" font-family="HelveticaNeue-Bold" font-weight="bold" font-size="23.0" fill="#000000" transform="matrix(1.00, 0.00, -0.00, -1.00, 198.1, 24.0)">M</text><text xml:space="preserve" font-family="HelveticaNeue-Bold" font-weight="bold" font-size="23.0" fill="#000000" transform="matrix(1.00, 0.00, -0.00, -1.00, 218.9, 24.0)">o</text><text xml:space="preserve" font-family="HelveticaNeue-Bold" font-weight="bold" font-size="23.0" fill="#000000" transform="matrix(1.00, 0.00, -0.00, -1.00, 233.0, 24.0)">n</text><text xml:space="preserve" font-family="HelveticaNeue-Bold" font-weight="bold" font-size="23.0" fill="#000000" transform="matrix(1.00, 0.00, -0.00, -1.00, 246.6, 24.0)">o</text><text xml:space="preserve" font-family="HelveticaNeue-Bold" font-weight="bold" font-size="23.0" fill="#000000" transform="matrix(1.00, 0.00, -0.00, -1.00, 260.7, 24.0)">l</text><text xml:space="preserve" font-family="HelveticaNeue-Bold" font-weight="bold" font-size="23.0" fill="#000000" transform="matrix(1.00, 0.00, -0.00, -1.00, 266.6, 24.0)">i</text><text xml:space="preserve" font-family="HelveticaNeue-Bold" font-weight="bold" font-size="23.0" fill="#000000" transform="matrix(1.00, 0.00, -0.00, -1.00, 272.5, 24.0)">t</text><text xml:space="preserve" font-family="HelveticaNeue-Bold" font-weight="bold" font-size="23.0" fill="#000000" transform="matrix(1.00, 0.00, -0.00, -1.00, 280.6, 24.0)">h</text><text xml:space="preserve" font-family="HelveticaNeue-Bold" font-weight="bold" font-size="23.0" fill="#000000" transform="matrix(1.00, 0.00, -0.00, -1.00, 294.3, 24.0)">s</text><text xml:space="preserve" font-family="HelveticaNeue-Bold" font-weight="bold" font-size="23.0" fill="#000000" transform="matrix(1.00, 0.00, -0.00, -1.00, 306.6, 24.0)">:</text><text xml:space="preserve" font-family="HelveticaNeue-Bold" font-weight="bold" font-size="23.0" fill="#000000" transform="matrix(1.00, 0.00, -0.00, -1.00, 313.0, 24.0)"> </text><text xml:space="preserve" font-family="HelveticaNeue-Bold" font-weight="bold" font-size="23.0" fill="#000000" transform="matrix(1.00, 0.00, -0.00, -1.00, 319.4, 24.0)">u</text><text xml:space="preserve" font-family="HelveticaNeue-Bold" font-weight="bold" font-size="23.0" fill="#000000" transform="matrix(1.00, 0.00, -0.00, -1.00, 333.0, 24.0)">s</text><text xml:space="preserve" font-family="HelveticaNeue-Bold" font-weight="bold" font-size="23.0" fill="#000000" transform="matrix(1.00, 0.00, -0.00, -1.00, 345.4, 24.0)">i</text><text xml:space="preserve" font-family="HelveticaNeue-Bold" font-weight="bold" font-size="23.0" fill="#000000" transform="matrix(1.00, 0.00, -0.00, -1.00, 351.3, 24.0)">n</text><text xml:space="preserve" font-family="HelveticaNeue-Bold" font-weight="bold" font-size="23.0" fill="#000000" transform="matrix(1.00, 0.00, -0.00, -1.00, 365.0, 24.0)">g</text><text xml:space="preserve" font-family="HelveticaNeue-Bold" font-weight="bold" font-size="23.0" fill="#000000" transform="matrix(1.00, 0.00, -0.00, -1.00, 379.0, 24.0)"> </text><text xml:space="preserve" font-family="HelveticaNeue-Bold" font-weight="bold" font-size="23.0" fill="#000000" transform="matrix(1.00, 0.00, -0.00, -1.00, 385.4, 24.0)">m</text><text xml:space="preserve" font-family="HelveticaNeue-Bold" font-weight="bold" font-size="23.0" fill="#000000" transform="matrix(1.00, 0.00, -0.00, -1.00, 406.3, 24.0)">i</text><text xml:space="preserve" font-family="HelveticaNeue-Bold" font-weight="bold" font-size="23.0" fill="#000000" transform="matrix(1.00, 0.00, -0.00, -1.00, 412.2, 24.0)">c</text><text xml:space="preserve" font-family="HelveticaNeue-Bold" font-weight="bold" font-size="23.0" fill="#000000" transform="matrix(1.00, 0.00, -0.00, -1.00, 425.4, 24.0)">r</text><text xml:space="preserve" font-family="HelveticaNeue-Bold" font-weight="bold" font-size="23.0" fill="#000000" transform="matrix(1.00, 0.00, -0.00, -1.00, 433.9, 24.0)">o</text><text xml:space="preserve" font-family="HelveticaNeue-Bold" font-weight="bold" font-size="23.0" fill="#000000" transform="matrix(1.00, 0.00, -0.00, -1.00, 448.0, 24.0)">s</text><text xml:space="preserve" font-family="HelveticaNeue-Bold" font-weight="bold" font-size="23.0" fill="#000000" transform="matrix(1.00, 0.00, -0.00, -1.00, 460.3, 24.0)">e</text><text xml:space="preserve" font-family="HelveticaNeue-Bold" font-weight="bold" font-size="23.0" fill="#000000" transform="matrix(1.00, 0.00, -0.00, -1.00, 473.5, 24.0)">r</text><text xml:space="preserve" font-family="HelveticaNeue-Bold" font-weight="bold" font-size="23.0" fill="#000000" transform="matrix(1.00, 0.00, -0.00, -1.00, 482.5, 24.0)">v</text><text xml:space="preserve" font-family="HelveticaNeue-Bold" font-weight="bold" font-size="23.0" fill="#000000" transform="matrix(1.00, 0.00, -0.00, -1.00, 494.4, 24.0)">i</text><text xml:space="preserve" font-family="HelveticaNeue-Bold" font-weight="bold" font-size="23.0" fill="#000000" transform="matrix(1.00, 0.00, -0.00, -1.00, 500.4, 24.0)">c</text><text xml:space="preserve" font-family="HelveticaNeue-Bold" font-weight="bold" font-size="23.0" fill="#000000" transform="matrix(1.00, 0.00, -0.00, -1.00, 513.6, 24.0)">e</text><text xml:space="preserve" font-family="HelveticaNeue-Bold" font-weight="bold" font-size="23.0" fill="#000000" transform="matrix(1.00, 0.00, -0.00, -1.00, 526.8, 24.0)">s</text><text xml:space="preserve" font-family="HelveticaNeue-Bold" font-weight="bold" font-size="23.0" fill="#000000" transform="matrix(1.00, 0.00, -0.00, -1.00, 539.1, 24.0)"> </text><text xml:space="preserve" font-family="HelveticaNeue-Bold" font-weight="bold" font-size="23.0" fill="#000000" transform="matrix(1.00, 0.00, -0.00, -1.00, 545.5, 24.0)">a</text><text xml:space="preserve" font-family="HelveticaNeue-Bold" font-weight="bold" font-size="23.0" fill="#000000" transform="matrix(1.00, 0.00, -0.00, -1.00, 558.7, 24.0)">n</text><text xml:space="preserve" font-family="HelveticaNeue-Bold" font-weight="bold" font-size="23.0" fill="#000000" transform="matrix(1.00, 0.00, -0.00, -1.00, 572.4, 24.0)">d</text><text xml:space="preserve" font-family="HelveticaNeue-Bold" font-weight="bold" font-size="23.0" fill="#000000" transform="matrix(1.00, 0.00, -0.00, -1.00, 586.4, 24.0)"> </text><text xml:space="preserve" font-family="HelveticaNeue-Bold" font-weight="bold" font-size="23.0" fill="#000000" transform="matrix(1.00, 0.00, -0.00, -1.00, 592.8, 24.0)">c</text><text xml:space="preserve" font-family="HelveticaNeue-Bold" font-weight="bold" font-size="23.0" fill="#000000" transform="matrix(1.00, 0.00, -0.00, -1.00, 606.0, 24.0)">o</text><text xml:space="preserve" font-family="HelveticaNeue-Bold" font-weight="bold" font-size="23.0" fill="#000000" transform="matrix(1.00, 0.00, -0.00, -1.00, 620.1, 24.0)">n</text><text xml:space="preserve" font-family="HelveticaNeue-Bold" font-weight="bold" font-size="23.0" fill="#000000" transform="matrix(1.00, 0.00, -0.00, -1.00, 633.7, 24.0)">t</text><text xml:space="preserve" font-family="HelveticaNeue-Bold" font-weight="bold" font-size="23.0" fill="#000000" transform="matrix(1.00, 0.00, -0.00, -1.00, 641.8, 24.0)">i</text><text xml:space="preserve" font-family="HelveticaNeue-Bold" font-weight="bold" font-size="23.0" fill="#000000" transform="matrix(1.00, 0.00, -0.00, -1.00, 647.7, 24.0)">n</text><text xml:space="preserve" font-family="HelveticaNeue-Bold" font-weight="bold" font-size="23.0" fill="#000000" transform="matrix(1.00, 0.00, -0.00, -1.00, 661.4, 24.0)">u</text><text xml:space="preserve" font-family="HelveticaNeue-Bold" font-weight="bold" font-size="23.0" fill="#000000" transform="matrix(1.00, 0.00, -0.00, -1.00, 675.0, 24.0)">o</text><text xml:space="preserve" font-family="HelveticaNeue-Bold" font-weight="bold" font-size="23.0" fill="#000000" transform="matrix(1.00, 0.00, -0.00, -1.00, 689.1, 24.0)">u</text><text xml:space="preserve" font-family="HelveticaNeue-Bold" font-weight="bold" font-size="23.0" fill="#000000" transform="matrix(1.00, 0.00, -0.00, -1.00, 702.7, 24.0)">s</text><text xml:space="preserve" font-family="HelveticaNeue-Bold" font-weight="bold" font-size="23.0" fill="#000000" transform="matrix(1.00, 0.00, -0.00, -1.00, 715.1, 24.0)"> </text><text xml:space="preserve" font-family="HelveticaNeue-Bold" font-weight="bold" font-size="23.0" fill="#000000" transform="matrix(1.00, 0.00, -0.00, -1.00, 721.4, 24.0)">d</text><text xml:space="preserve" font-family="HelveticaNeue-Bold" font-weight="bold" font-size="23.0" fill="#000000" transform="matrix(1.00, 0.00, -0.00, -1.00, 735.5, 24.0)">e</text><text xml:space="preserve" font-family="HelveticaNeue-Bold" font-weight="bold" font-size="23.0" fill="#000000" transform="matrix(1.00, 0.00, -0.00, -1.00, 748.7, 24.0)">l</text><text xml:space="preserve" font-family="HelveticaNeue-Bold" font-weight="bold" font-size="23.0" fill="#000000" transform="matrix(1.00, 0.00, -0.00, -1.00, 754.6, 24.0)">i</text><text xml:space="preserve" font-family="HelveticaNeue-Bold" font-weight="bold" font-size="23.0" fill="#000000" transform="matrix(1.00, 0.00, -0.00, -1.00, 760.6, 24.0)">v</text><text xml:space="preserve" font-family="HelveticaNeue-Bold" font-weight="bold" font-size="23.0" fill="#000000" transform="matrix(1.00, 0.00, -0.00, -1.00, 772.5, 24.0)">e</text><text xml:space="preserve" font-family="HelveticaNeue-Bold" font-weight="bold" font-size="23.0" fill="#000000" transform="matrix(1.00, 0.00, -0.00, -1.00, 785.7, 24.0)">r</text><text xml:space="preserve" font-family="HelveticaNeue-Bold" font-weight="bold" font-size="23.0" fill="#000000" transform="matrix(1.00, 0.00, -0.00, -1.00, 794.7, 24.0)">y</text><text xml:space="preserve" font-family="HelveticaNeue-Bold" font-weight="bold" font-size="23.0" fill="#000000" transform="matrix(1.00, 0.00, -0.00, -1.00, 806.6, 24.0)"> </text><text xml:space="preserve" font-family="HelveticaNeue-Bold" font-weight="bold" font-size="23.0" fill="#000000" transform="matrix(1.00, 0.00, -0.00, -1.00, 813.0, 24.0)">a</text><text xml:space="preserve" font-family="HelveticaNeue-Bold" font-weight="bold" font-size="23.0" fill="#000000" transform="matrix(1.00, 0.00, -0.00, -1.00, 826.2, 24.0)">t</text><text xml:space="preserve" font-family="HelveticaNeue-Bold" font-weight="bold" font-size="23.0" fill="#000000" transform="matrix(1.00, 0.00, -0.00, -1.00, 834.3, 24.0)"> </text><text xml:space="preserve" font-family="HelveticaNeue-Bold" font-weight="bold" font-size="23.0" fill="#000000" transform="matrix(1.00, 0.00, -0.00, -1.00, 840.7, 24.0)">t</text><text xml:space="preserve" font-family="HelveticaNeue-Bold" font-weight="bold" font-size="23.0" fill="#000000" transform="matrix(1.00, 0.00, -0.00, -1.00, 848.8, 24.0)">h</text><text xml:space="preserve" font-family="HelveticaNeue-Bold" font-weight="bold" font-size="23.0" fill="#000000" transform="matrix(1.00, 0.00, -0.00, -1.00, 862.4, 24.0)">e</text><text xml:space="preserve" font-family="HelveticaNeue-Bold" font-weight="bold" font-size="23.0" fill="#000000" transform="matrix(1.00, 0.00, -0.00, -1.00, 875.6, 24.0)"> </text><text xml:space="preserve" font-family="HelveticaNeue-Bold" font-weight="bold" font-size="23.0" fill="#000000" transform="matrix(1.00, 0.00, -0.00, -1.00, 882.0, 24.0)">B</text><text xml:space="preserve" font-family="HelveticaNeue-Bold" font-weight="bold" font-size="23.0" fill="#000000" transform="matrix(1.00, 0.00, -0.00, -1.00, 898.2, 24.0)">B</text><text xml:space="preserve" font-family="HelveticaNeue-Bold" font-weight="bold" font-size="23.0" fill="#000000" transform="matrix(1.00, 0.00, -0.00, -1.00, 914.4, 24.0)">C</text><image xlink:href="../../D0517147-4847-4A0F-8B98-32B995C105A1/assets/0BF8E63FE00997E10C4EC11A1CFD77DD.png" width="97.00" height="27.00" transform="matrix(1.00, 0.00, -0.00, -1.00, 1751.0, 44.0)"></image><g><clipPath id="clip-540"><path d="M 255.0 153.0 L 1345.1 153.0 L 1345.1 876.6 L 255.0 876.6 Z M 255.0 153.0 "></path></clipPath><g clip-path="url(#clip-540)"><image xlink:href="../../AE97EE79-4776-45B0-8BE8-7BD3F51E563B/assets/1C90B5E3BC65854BC08578FDC08BF388.png" width="36.00" height="40.00" transform="matrix(1.80, 0.00, -0.00, 1.80, 255.0, 642.0)"></image><image xlink:href="../../AE97EE79-4776-45B0-8BE8-7BD3F51E563B/assets/017DB0FB988542E910732024B5668633.png" width="31.00" height="31.00" transform="matrix(1.80, 0.00, -0.00, 1.80, 258.6, 687.1)"></image><image xlink:href="../../AE97EE79-4776-45B0-8BE8-7BD3F51E563B/assets/7854AC818F7D18D8B8AB9754BCEB4697.png" width="36.00" height="40.00" transform="matrix(1.80, 0.00, -0.00, 1.80, 255.0, 367.7)"></image><image xlink:href="../../AE97EE79-4776-45B0-8BE8-7BD3F51E563B/assets/E1226CBC7F4A869225B731A678D2AE64.png" width="31.00" height="31.00" transform="matrix(1.80, 0.00, -0.00, 1.80, 258.6, 414.7)"></image><path d="M 477.1 757.9 L 608.5 757.9 C 624.0 757.9 636.6 723.5 636.6 681.2 C 636.6 638.9 624.0 604.5 608.5 604.5 L 477.1 604.5 C 461.5 604.5 448.9 638.9 448.9 681.2 C 448.9 723.5 461.5 757.9 477.1 757.9 " fill="#FEFFFF"></path><path d="M 215.6 163.7 L 288.4 163.7 C 297.0 163.0 304.0 182.0 304.0 205.5 C 304.0 229.0 297.0 248.0 288.4 248.7 L 215.6 248.7 C 207.0 248.0 200.0 229.0 200.0 205.5 C 200.0 182.0 207.0 163.0 215.6 163.0 " fill="none" stroke="#000000" stroke-width="1.00" stroke-miterlimit="0.00" stroke-linecap="round" stroke-linejoin="round" transform="matrix(1.80, 0.00, 0.00, -1.80, 88.0, 1052.0)"></path><text xml:space="preserve" font-family="Helvetica" font-size="12.0" fill="#000000" transform="matrix(1.80, 0.00, -0.00, -1.80, 496.6, 686.6)">P</text><text xml:space="preserve" font-family="Helvetica" font-size="12.0" fill="#000000" transform="matrix(1.80, 0.00, -0.00, -1.80, 511.1, 686.6)">H</text><text xml:space="preserve" font-family="Helvetica" font-size="12.0" fill="#000000" transform="matrix(1.80, 0.00, -0.00, -1.80, 526.7, 686.6)">P</text><text xml:space="preserve" font-family="Helvetica" font-size="12.0" fill="#000000" transform="matrix(1.80, 0.00, -0.00, -1.80, 540.8, 686.6)"> </text><text xml:space="preserve" font-family="Helvetica" font-size="12.0" fill="#000000" transform="matrix(1.80, 0.00, -0.00, -1.80, 546.8, 686.6)">f</text><text xml:space="preserve" font-family="Helvetica" font-size="12.0" fill="#000000" transform="matrix(1.80, 0.00, -0.00, -1.80, 552.8, 686.6)">o</text><text xml:space="preserve" font-family="Helvetica" font-size="12.0" fill="#000000" transform="matrix(1.80, 0.00, -0.00, -1.80, 564.8, 686.6)">o</text><text xml:space="preserve" font-family="Helvetica" font-size="12.0" fill="#000000" transform="matrix(1.80, 0.00, -0.00, -1.80, 576.9, 686.6)">d</text><text xml:space="preserve" font-family="Helvetica" font-size="12.0" fill="#000000" transform="matrix(1.80, 0.00, -0.00, -1.80, 588.9, 686.6)"> </text><text xml:space="preserve" font-family="Helvetica" font-size="12.0" fill="#000000" transform="matrix(1.80, 0.00, -0.00, -1.80, 491.0, 661.4)">a</text><text xml:space="preserve" font-family="Helvetica" font-size="12.0" fill="#000000" transform="matrix(1.80, 0.00, -0.00, -1.80, 503.0, 661.4)">p</text><text xml:space="preserve" font-family="Helvetica" font-size="12.0" fill="#000000" transform="matrix(1.80, 0.00, -0.00, -1.80, 515.1, 661.4)">p</text><text xml:space="preserve" font-family="Helvetica" font-size="12.0" fill="#000000" transform="matrix(1.80, 0.00, -0.00, -1.80, 527.1, 661.4)">l</text><text xml:space="preserve" font-family="Helvetica" font-size="12.0" fill="#000000" transform="matrix(1.80, 0.00, -0.00, -1.80, 532.0, 661.4)">i</text><text xml:space="preserve" font-family="Helvetica" font-size="12.0" fill="#000000" transform="matrix(1.80, 0.00, -0.00, -1.80, 536.8, 661.4)">c</text><text xml:space="preserve" font-family="Helvetica" font-size="12.0" fill="#000000" transform="matrix(1.80, 0.00, -0.00, -1.80, 547.6, 661.4)">a</text><text xml:space="preserve" font-family="Helvetica" font-size="12.0" fill="#000000" transform="matrix(1.80, 0.00, -0.00, -1.80, 559.7, 661.4)">t</text><text xml:space="preserve" font-family="Helvetica" font-size="12.0" fill="#000000" transform="matrix(1.80, 0.00, -0.00, -1.80, 565.7, 661.4)">i</text><text xml:space="preserve" font-family="Helvetica" font-size="12.0" fill="#000000" transform="matrix(1.80, 0.00, -0.00, -1.80, 570.5, 661.4)">o</text><text xml:space="preserve" font-family="Helvetica" font-size="12.0" fill="#000000" transform="matrix(1.80, 0.00, -0.00, -1.80, 582.5, 661.4)">n</text><path d="M 477.1 490.8 L 608.5 490.8 C 624.0 490.8 636.6 456.5 636.6 414.1 C 636.6 371.8 624.0 337.4 608.5 337.4 L 477.1 337.4 C 461.5 337.4 448.9 371.8 448.9 414.1 C 448.9 456.5 461.5 490.8 477.1 490.8 " fill="#FEFFFF"></path><path d="M 215.6 311.7 L 288.4 311.7 C 297.0 311.0 304.0 330.0 304.0 353.5 C 304.0 377.0 297.0 396.0 288.4 396.7 L 215.6 396.7 C 207.0 396.0 200.0 377.0 200.0 353.5 C 200.0 330.0 207.0 311.0 215.6 311.0 " fill="none" stroke="#000000" stroke-width="1.00" stroke-miterlimit="0.00" stroke-linecap="round" stroke-linejoin="round" transform="matrix(1.80, 0.00, 0.00, -1.80, 88.0, 1052.0)"></path><text xml:space="preserve" font-family="Helvetica" font-size="12.0" fill="#000000" transform="matrix(1.80, 0.00, -0.00, -1.80, 513.3, 419.5)">a</text><text xml:space="preserve" font-family="Helvetica" font-size="12.0" fill="#000000" transform="matrix(1.80, 0.00, -0.00, -1.80, 525.3, 419.5)">d</text><text xml:space="preserve" font-family="Helvetica" font-size="12.0" fill="#000000" transform="matrix(1.80, 0.00, -0.00, -1.80, 537.4, 419.5)">m</text><text xml:space="preserve" font-family="Helvetica" font-size="12.0" fill="#000000" transform="matrix(1.80, 0.00, -0.00, -1.80, 555.4, 419.5)">i</text><text xml:space="preserve" font-family="Helvetica" font-size="12.0" fill="#000000" transform="matrix(1.80, 0.00, -0.00, -1.80, 560.2, 419.5)">n</text><text xml:space="preserve" font-family="Helvetica" font-size="12.0" fill="#000000" transform="matrix(1.80, 0.00, -0.00, -1.80, 572.3, 419.5)"> </text><text xml:space="preserve" font-family="Helvetica" font-size="12.0" fill="#000000" transform="matrix(1.80, 0.00, -0.00, -1.80, 491.0, 394.3)">a</text><text xml:space="preserve" font-family="Helvetica" font-size="12.0" fill="#000000" transform="matrix(1.80, 0.00, -0.00, -1.80, 503.0, 394.3)">p</text><text xml:space="preserve" font-family="Helvetica" font-size="12.0" fill="#000000" transform="matrix(1.80, 0.00, -0.00, -1.80, 515.1, 394.3)">p</text><text xml:space="preserve" font-family="Helvetica" font-size="12.0" fill="#000000" transform="matrix(1.80, 0.00, -0.00, -1.80, 527.1, 394.3)">l</text><text xml:space="preserve" font-family="Helvetica" font-size="12.0" fill="#000000" transform="matrix(1.80, 0.00, -0.00, -1.80, 532.0, 394.3)">i</text><text xml:space="preserve" font-family="Helvetica" font-size="12.0" fill="#000000" transform="matrix(1.80, 0.00, -0.00, -1.80, 536.8, 394.3)">c</text><text xml:space="preserve" font-family="Helvetica" font-size="12.0" fill="#000000" transform="matrix(1.80, 0.00, -0.00, -1.80, 547.6, 394.3)">a</text><text xml:space="preserve" font-family="Helvetica" font-size="12.0" fill="#000000" transform="matrix(1.80, 0.00, -0.00, -1.80, 559.7, 394.3)">t</text><text xml:space="preserve" font-family="Helvetica" font-size="12.0" fill="#000000" transform="matrix(1.80, 0.00, -0.00, -1.80, 565.7, 394.3)">i</text><text xml:space="preserve" font-family="Helvetica" font-size="12.0" fill="#000000" transform="matrix(1.80, 0.00, -0.00, -1.80, 570.5, 394.3)">o</text><text xml:space="preserve" font-family="Helvetica" font-size="12.0" fill="#000000" transform="matrix(1.80, 0.00, -0.00, -1.80, 582.5, 394.3)">n</text><text xml:space="preserve" font-family="HelveticaNeue" font-size="16.0" fill="#000000" transform="matrix(1.80, 0.00, -0.00, -1.80, 505.8, 817.5)">F</text><text xml:space="preserve" font-family="HelveticaNeue" font-size="16.0" fill="#000000" transform="matrix(1.80, 0.00, -0.00, -1.80, 522.3, 817.5)">o</text><text xml:space="preserve" font-family="HelveticaNeue" font-size="16.0" fill="#000000" transform="matrix(1.80, 0.00, -0.00, -1.80, 538.9, 817.5)">r</text><text xml:space="preserve" font-family="HelveticaNeue" font-size="16.0" fill="#000000" transform="matrix(1.80, 0.00, -0.00, -1.80, 547.7, 817.5)">g</text><text xml:space="preserve" font-family="HelveticaNeue" font-size="16.0" fill="#000000" transform="matrix(1.80, 0.00, -0.00, -1.80, 564.3, 817.5)">e</text><text xml:space="preserve" font-family="HelveticaNeue" font-size="16.0" fill="#000000" transform="matrix(1.80, 0.00, -0.00, -1.80, 1252.8, 817.5)">A</text><text xml:space="preserve" font-family="HelveticaNeue" font-size="16.0" fill="#000000" transform="matrix(1.80, 0.00, -0.00, -1.80, 1270.8, 817.5)">W</text><text xml:space="preserve" font-family="HelveticaNeue" font-size="16.0" fill="#000000" transform="matrix(1.80, 0.00, -0.00, -1.80, 1297.5, 817.5)">S</text><text xml:space="preserve" font-family="HelveticaNeue" font-size="12.0" fill="#000000" transform="matrix(1.80, 0.00, -0.00, -1.80, 729.3, 634.3)">G</text><text xml:space="preserve" font-family="HelveticaNeue" font-size="12.0" fill="#000000" transform="matrix(1.80, 0.00, -0.00, -1.80, 745.7, 634.3)">E</text><text xml:space="preserve" font-family="HelveticaNeue" font-size="12.0" fill="#000000" transform="matrix(1.80, 0.00, -0.00, -1.80, 758.9, 634.3)">T</text><path d="M 398.0 99.0 L 400.1 456.4 L 399.6 496.2 " fill="none" stroke="#AB3933" stroke-width="1.00" stroke-miterlimit="0.00" stroke-linecap="round" stroke-linejoin="round" stroke-dasharray="4.0, 4.0" transform="matrix(1.80, 0.00, 0.00, -1.80, 88.0, 1052.0)"></path><text xml:space="preserve" font-family="HelveticaNeue" font-size="12.0" fill="#000000" transform="matrix(1.80, 0.00, -0.00, -1.80, 690.8, 432.2)">G</text><text xml:space="preserve" font-family="HelveticaNeue" font-size="12.0" fill="#000000" transform="matrix(1.80, 0.00, -0.00, -1.80, 707.2, 432.2)">E</text><text xml:space="preserve" font-family="HelveticaNeue" font-size="12.0" fill="#000000" transform="matrix(1.80, 0.00, -0.00, -1.80, 720.4, 432.2)">T</text><text xml:space="preserve" font-family="HelveticaNeue" font-size="12.0" fill="#000000" transform="matrix(1.80, 0.00, -0.00, -1.80, 690.8, 406.9)">P</text><text xml:space="preserve" font-family="HelveticaNeue" font-size="12.0" fill="#000000" transform="matrix(1.80, 0.00, -0.00, -1.80, 704.8, 406.9)">U</text><text xml:space="preserve" font-family="HelveticaNeue" font-size="12.0" fill="#000000" transform="matrix(1.80, 0.00, -0.00, -1.80, 720.4, 406.9)">T</text><text xml:space="preserve" font-family="HelveticaNeue" font-size="12.0" fill="#000000" transform="matrix(1.80, 0.00, -0.00, -1.80, 690.8, 381.7)">D</text><text xml:space="preserve" font-family="HelveticaNeue" font-size="12.0" fill="#000000" transform="matrix(1.80, 0.00, -0.00, -1.80, 706.0, 381.7)">E</text><text xml:space="preserve" font-family="HelveticaNeue" font-size="12.0" fill="#000000" transform="matrix(1.80, 0.00, -0.00, -1.80, 719.2, 381.7)">L</text><text xml:space="preserve" font-family="HelveticaNeue" font-size="12.0" fill="#000000" transform="matrix(1.80, 0.00, -0.00, -1.80, 731.3, 381.7)">E</text><text xml:space="preserve" font-family="HelveticaNeue" font-size="12.0" fill="#000000" transform="matrix(1.80, 0.00, -0.00, -1.80, 744.5, 381.7)">T</text><text xml:space="preserve" font-family="HelveticaNeue" font-size="12.0" fill="#000000" transform="matrix(1.80, 0.00, -0.00, -1.80, 756.9, 381.7)">E</text><path d="M 1315.2 567.9 L 1328.6 558.2 L 1328.6 571.9 L 1315.1 587.7 L 1315.1 567.9 L 1315.2 567.9 Z M 1315.2 567.9 " fill="#3367A2"></path><path d="M 1289.3 470.7 L 1315.1 483.6 L 1315.1 587.7 L 1289.3 600.6 Z M 1289.3 470.7 " fill="#5189BB"></path><path d="M 1252.6 470.7 L 1226.8 483.6 L 1226.8 587.7 L 1252.6 600.6 Z M 1252.6 470.7 " fill="#285285"></path><path d="M 1252.6 600.6 L 1289.3 600.6 L 1289.3 470.7 L 1252.6 470.7 Z M 1252.6 600.6 " fill="#3367A2"></path><path d="M 1315.1 503.3 L 1315.1 483.6 L 1328.6 499.4 L 1328.6 513.1 L 1315.2 503.4 Z M 1315.1 503.3 " fill="#3367A2"></path><path d="M 1315.1 511.7 L 1315.2 511.7 L 1328.6 518.9 L 1328.6 532.7 L 1315.1 531.5 Z M 1315.1 511.7 " fill="#3367A2"></path><path d="M 1315.2 559.5 L 1315.1 559.5 L 1315.1 539.8 L 1328.6 538.5 L 1328.6 552.3 Z M 1315.2 559.5 " fill="#3367A2"></path><path d="M 1328.6 538.5 L 1315.1 539.8 L 1289.3 540.8 L 1252.6 540.8 L 1226.8 539.8 L 1226.8 559.5 L 1226.8 559.5 L 1226.8 559.5 L 1252.6 565.5 L 1289.3 565.5 L 1315.1 559.5 L 1324.6 554.5 L 1324.6 557.7 L 1328.6 558.2 L 1315.1 567.9 L 1289.3 575.9 L 1252.6 575.9 L 1226.8 567.9 L 1226.8 587.7 L 1213.3 571.9 L 1213.3 558.1 L 1213.4 558.2 L 1217.3 557.7 L 1217.3 554.4 L 1213.3 552.3 L 1213.3 538.5 L 1213.4 538.5 L 1217.3 538.5 L 1217.3 532.7 L 1213.9 532.7 L 1213.3 532.7 L 1213.3 519.0 L 1217.3 516.8 L 1217.3 513.5 L 1213.5 513.1 L 1213.3 513.2 L 1213.3 499.4 L 1226.8 483.6 L 1226.8 503.3 L 1252.6 495.3 L 1289.3 495.3 L 1315.2 503.4 L 1328.6 513.0 L 1324.6 513.5 L 1324.6 516.8 L 1315.2 511.7 L 1289.3 505.8 L 1289.3 505.7 L 1252.6 505.7 L 1252.6 505.8 L 1226.7 511.7 L 1226.7 511.8 L 1226.8 511.7 L 1226.8 531.5 L 1252.6 530.5 L 1252.6 530.4 L 1289.3 530.4 L 1289.3 530.5 L 1315.1 531.5 L 1328.6 532.7 L 1324.6 532.7 L 1324.6 538.5 Z M 1328.6 538.5 " fill="#213F5E"></path><path d="M 1021.7 600.9 C 1037.3 600.9 1049.8 591.6 1049.8 580.2 L 1049.8 498.9 C 1049.8 487.4 1037.3 478.2 1021.7 478.2 L 914.0 478.2 C 898.5 478.2 885.9 487.4 885.9 498.9 L 885.9 580.2 C 885.9 591.6 898.5 600.9 914.0 600.9 Z M 1021.7 600.9 " fill="#E77C3B"></path><text xml:space="preserve" font-family="Helvetica" font-size="12.0" fill="#000000" transform="matrix(1.80, 0.00, -0.00, -1.80, 933.5, 557.6)">H</text><text xml:space="preserve" font-family="Helvetica" font-size="12.0" fill="#000000" transform="matrix(1.80, 0.00, -0.00, -1.80, 949.2, 557.6)">e</text><text xml:space="preserve" font-family="Helvetica" font-size="12.0" fill="#000000" transform="matrix(1.80, 0.00, -0.00, -1.80, 961.2, 557.6)">s</text><text xml:space="preserve" font-family="Helvetica" font-size="12.0" fill="#000000" transform="matrix(1.80, 0.00, -0.00, -1.80, 972.1, 557.6)">t</text><text xml:space="preserve" font-family="Helvetica" font-size="12.0" fill="#000000" transform="matrix(1.80, 0.00, -0.00, -1.80, 978.1, 557.6)">o</text><text xml:space="preserve" font-family="Helvetica" font-size="12.0" fill="#000000" transform="matrix(1.80, 0.00, -0.00, -1.80, 990.1, 557.6)">n</text><text xml:space="preserve" font-family="Helvetica" font-size="12.0" fill="#000000" transform="matrix(1.80, 0.00, -0.00, -1.80, 1002.2, 557.6)"> </text><text xml:space="preserve" font-family="Helvetica" font-size="12.0" fill="#000000" transform="matrix(1.80, 0.00, -0.00, -1.80, 914.7, 532.3)">T</text><text xml:space="preserve" font-family="Helvetica" font-size="12.0" fill="#000000" transform="matrix(1.80, 0.00, -0.00, -1.80, 927.1, 532.3)">r</text><text xml:space="preserve" font-family="Helvetica" font-size="12.0" fill="#000000" transform="matrix(1.80, 0.00, -0.00, -1.80, 934.3, 532.3)">a</text><text xml:space="preserve" font-family="Helvetica" font-size="12.0" fill="#000000" transform="matrix(1.80, 0.00, -0.00, -1.80, 946.4, 532.3)">n</text><text xml:space="preserve" font-family="Helvetica" font-size="12.0" fill="#000000" transform="matrix(1.80, 0.00, -0.00, -1.80, 958.4, 532.3)">s</text><text xml:space="preserve" font-family="Helvetica" font-size="12.0" fill="#000000" transform="matrix(1.80, 0.00, -0.00, -1.80, 969.2, 532.3)">l</text><text xml:space="preserve" font-family="Helvetica" font-size="12.0" fill="#000000" transform="matrix(1.80, 0.00, -0.00, -1.80, 974.1, 532.3)">a</text><text xml:space="preserve" font-family="Helvetica" font-size="12.0" fill="#000000" transform="matrix(1.80, 0.00, -0.00, -1.80, 986.1, 532.3)">t</text><text xml:space="preserve" font-family="Helvetica" font-size="12.0" fill="#000000" transform="matrix(1.80, 0.00, -0.00, -1.80, 992.1, 532.3)">i</text><text xml:space="preserve" font-family="Helvetica" font-size="12.0" fill="#000000" transform="matrix(1.80, 0.00, -0.00, -1.80, 996.9, 532.3)">o</text><text xml:space="preserve" font-family="Helvetica" font-size="12.0" fill="#000000" transform="matrix(1.80, 0.00, -0.00, -1.80, 1009.0, 532.3)">n</text><text xml:space="preserve" font-family="Helvetica" font-size="12.0" fill="#000000" transform="matrix(1.80, 0.00, -0.00, -1.80, 1021.0, 532.3)"> </text><text xml:space="preserve" font-family="Helvetica" font-size="12.0" fill="#000000" transform="matrix(1.80, 0.00, -0.00, -1.80, 931.7, 507.1)">S</text><text xml:space="preserve" font-family="Helvetica" font-size="12.0" fill="#000000" transform="matrix(1.80, 0.00, -0.00, -1.80, 946.2, 507.1)">e</text><text xml:space="preserve" font-family="Helvetica" font-size="12.0" fill="#000000" transform="matrix(1.80, 0.00, -0.00, -1.80, 958.2, 507.1)">r</text><text xml:space="preserve" font-family="Helvetica" font-size="12.0" fill="#000000" transform="matrix(1.80, 0.00, -0.00, -1.80, 965.4, 507.1)">v</text><text xml:space="preserve" font-family="Helvetica" font-size="12.0" fill="#000000" transform="matrix(1.80, 0.00, -0.00, -1.80, 976.3, 507.1)">i</text><text xml:space="preserve" font-family="Helvetica" font-size="12.0" fill="#000000" transform="matrix(1.80, 0.00, -0.00, -1.80, 981.1, 507.1)">c</text><text xml:space="preserve" font-family="Helvetica" font-size="12.0" fill="#000000" transform="matrix(1.80, 0.00, -0.00, -1.80, 991.9, 507.1)">e</text><path d="M 1049.8 498.9 L 1049.8 491.7 C 1049.8 480.2 1037.3 471.0 1021.7 471.0 L 1021.7 478.2 C 1037.3 478.2 1049.8 487.4 1049.8 498.9 Z M 1049.8 498.9 " fill="#8E4B2A"></path><path d="M 1049.8 498.9 L 1049.8 491.7 C 1049.8 490.6 1049.7 489.7 1049.5 488.7 L 1049.5 495.9 C 1049.7 496.9 1049.8 497.9 1049.8 498.9 Z M 1049.8 498.9 " fill="#8E4B2A"></path><path d="M 1049.5 495.9 L 1049.5 488.7 C 1049.3 487.5 1049.0 486.4 1048.5 485.3 L 1048.5 492.6 C 1049.0 493.6 1049.3 494.8 1049.5 495.9 Z M 1049.5 495.9 " fill="#8E4B2A"></path><path d="M 1048.5 492.6 L 1048.5 485.3 C 1047.9 484.1 1047.2 482.9 1046.4 481.7 L 1046.4 488.9 C 1047.2 490.1 1047.9 491.3 1048.5 492.6 Z M 1048.5 492.6 " fill="#8E4B2A"></path><path d="M 1046.4 488.9 L 1046.4 481.7 C 1041.6 475.3 1032.3 471.0 1021.7 471.0 L 1021.7 478.2 C 1032.3 478.2 1041.6 482.5 1046.4 488.9 Z M 1046.4 488.9 " fill="#8E4B2A"></path><path d="M 912.9 478.2 L 1021.9 478.2 L 1021.9 471.0 L 912.9 471.0 Z M 912.9 478.2 " fill="#8E4B2A"></path><path d="M 914.0 478.2 L 914.0 471.0 C 898.5 471.0 885.9 480.2 885.9 491.7 L 885.9 498.9 C 885.9 487.4 898.5 478.2 914.0 478.2 Z M 914.0 478.2 " fill="#8E4B2A"></path><path d="M 915.2 478.2 L 915.2 471.0 C 899.6 471.0 885.9 480.2 885.9 491.7 L 885.9 498.9 C 885.9 487.4 898.5 478.2 915.2 478.2 Z M 915.2 478.2 " fill="#8E4B2A"></path><path d="M 302.6 222.8 L 432.7 267.3 " fill="none" stroke="#000000" stroke-width="1.00" stroke-miterlimit="0.00" stroke-linecap="round" stroke-linejoin="round" transform="matrix(1.80, 0.00, 0.00, -1.80, 88.0, 1052.0)"></path><path d="M 882.6 565.1 L 870.7 574.9 L 867.2 564.6 Z M 882.6 565.1 " fill="#000000"></path><path d="M 440.3 269.9 L 433.7 264.4 L 431.8 270.1 Z M 440.3 269.9 " fill="none" stroke="#000000" stroke-width="1.00" stroke-miterlimit="0.00" transform="matrix(1.80, 0.00, 0.00, -1.80, 88.0, 1052.0)"></path><path d="M 312.6 336.1 L 432.6 301.7 " fill="none" stroke="#000000" stroke-width="1.00" stroke-miterlimit="0.00" stroke-linecap="round" stroke-linejoin="round" transform="matrix(1.80, 0.00, 0.00, -1.80, 88.0, 1052.0)"></path><path d="M 882.6 511.5 L 867.2 512.7 L 870.2 502.3 Z M 882.6 511.5 " fill="#000000"></path><path d="M 440.3 299.5 L 431.8 298.9 L 433.4 304.6 Z M 440.3 299.5 " fill="none" stroke="#000000" stroke-width="1.00" stroke-miterlimit="0.00" transform="matrix(1.80, 0.00, 0.00, -1.80, 88.0, 1052.0)"></path><path d="M 638.2 441.5 L 653.6 440.3 L 650.6 450.7 Z M 638.2 441.5 " fill="#000000"></path><path d="M 304.9 338.3 L 313.4 339.0 L 311.7 333.3 Z M 304.9 338.3 " fill="none" stroke="#000000" stroke-width="1.00" stroke-miterlimit="0.00" transform="matrix(1.80, 0.00, 0.00, -1.80, 88.0, 1052.0)"></path><path d="M 543.9 286.9 L 613.6 286.5 " fill="none" stroke="#000000" stroke-width="1.00" stroke-miterlimit="0.00" stroke-linecap="round" stroke-linejoin="round" transform="matrix(1.80, 0.00, 0.00, -1.80, 88.0, 1052.0)"></path><path d="M 1209.9 535.2 L 1195.4 540.5 L 1195.5 529.7 Z M 1209.9 535.2 " fill="#000000"></path><path d="M 621.6 286.4 L 613.6 283.5 L 613.7 289.5 Z M 621.6 286.4 " fill="none" stroke="#000000" stroke-width="1.00" stroke-miterlimit="0.00" transform="matrix(1.80, 0.00, 0.00, -1.80, 88.0, 1052.0)"></path><path d="M 1055.1 534.2 L 1069.6 528.8 L 1069.5 539.7 Z M 1055.1 534.2 " fill="#000000"></path><path d="M 535.9 287.0 L 543.9 289.9 L 543.9 283.9 Z M 535.9 287.0 " fill="none" stroke="#000000" stroke-width="1.00" stroke-miterlimit="0.00" transform="matrix(1.80, 0.00, 0.00, -1.80, 88.0, 1052.0)"></path><text xml:space="preserve" font-family="HelveticaNeue" font-size="12.0" fill="#000000" transform="matrix(1.80, 0.00, -0.00, -1.80, 1105.5, 505.3)">G</text><text xml:space="preserve" font-family="HelveticaNeue" font-size="12.0" fill="#000000" transform="matrix(1.80, 0.00, -0.00, -1.80, 1121.9, 505.3)">E</text><text xml:space="preserve" font-family="HelveticaNeue" font-size="12.0" fill="#000000" transform="matrix(1.80, 0.00, -0.00, -1.80, 1135.2, 505.3)">T</text><text xml:space="preserve" font-family="HelveticaNeue" font-size="12.0" fill="#000000" transform="matrix(1.80, 0.00, -0.00, -1.80, 1105.5, 480.0)">P</text><text xml:space="preserve" font-family="HelveticaNeue" font-size="12.0" fill="#000000" transform="matrix(1.80, 0.00, -0.00, -1.80, 1119.5, 480.0)">U</text><text xml:space="preserve" font-family="HelveticaNeue" font-size="12.0" fill="#000000" transform="matrix(1.80, 0.00, -0.00, -1.80, 1135.2, 480.0)">T</text><text xml:space="preserve" font-family="HelveticaNeue" font-size="12.0" fill="#000000" transform="matrix(1.80, 0.00, -0.00, -1.80, 1105.5, 454.7)">D</text><text xml:space="preserve" font-family="HelveticaNeue" font-size="12.0" fill="#000000" transform="matrix(1.80, 0.00, -0.00, -1.80, 1120.7, 454.7)">E</text><text xml:space="preserve" font-family="HelveticaNeue" font-size="12.0" fill="#000000" transform="matrix(1.80, 0.00, -0.00, -1.80, 1134.0, 454.7)">L</text><text xml:space="preserve" font-family="HelveticaNeue" font-size="12.0" fill="#000000" transform="matrix(1.80, 0.00, -0.00, -1.80, 1146.0, 454.7)">E</text><text xml:space="preserve" font-family="HelveticaNeue" font-size="12.0" fill="#000000" transform="matrix(1.80, 0.00, -0.00, -1.80, 1159.2, 454.7)">T</text><text xml:space="preserve" font-family="HelveticaNeue" font-size="12.0" fill="#000000" transform="matrix(1.80, 0.00, -0.00, -1.80, 1171.7, 454.7)">E</text></g></g><g><clipPath id="clip-541"><path d="M 265.9 669.0 C 266.1 666.0 268.1 662.9 272.0 660.6 C 280.1 655.6 293.4 655.6 301.5 660.6 C 305.4 662.9 307.4 666.0 307.6 669.0 L 307.7 669.0 C 307.7 669.2 307.7 669.4 307.7 669.5 C 307.7 669.5 307.7 669.5 307.7 669.5 C 307.7 669.6 307.7 669.7 307.7 669.7 C 307.7 669.8 307.7 670.0 307.7 670.1 C 307.4 690.6 298.1 707.1 286.7 707.1 C 275.4 707.1 266.1 690.6 265.8 670.1 C 265.8 670.0 265.8 669.8 265.8 669.7 C 265.8 669.7 265.8 669.6 265.8 669.5 C 265.8 669.5 265.8 669.5 265.8 669.5 C 265.8 669.4 265.8 669.2 265.8 669.0 L 265.9 669.0 Z M 265.9 669.0 "></path></clipPath><g clip-path="url(#clip-541)"><g><clipPath id="clip-542"><path d="M 255.0 153.0 L 1345.1 153.0 L 1345.1 876.6 L 255.0 876.6 Z M 255.0 153.0 "></path></clipPath><g clip-path="url(#clip-542)"><path d="M 255.0 153.0 L 1345.1 153.0 L 1345.1 876.6 L 255.0 876.6 Z M 255.0 153.0 " fill="url(#gradSh1.44)"></path></g></g></g></g><g><clipPath id="clip-543"><path d="M 255.0 153.0 L 1345.1 153.0 L 1345.1 876.6 L 255.0 876.6 Z M 255.0 153.0 "></path></clipPath><g clip-path="url(#clip-543)"><path d="M 98.5 212.2 C 98.7 213.9 99.8 215.6 101.9 216.9 C 106.5 219.7 113.8 219.7 118.3 216.9 C 120.5 215.6 121.6 213.9 121.7 212.2 L 121.7 212.2 C 121.7 212.2 121.7 212.1 121.7 212.0 C 121.7 212.0 121.7 212.0 121.7 212.0 C 121.7 211.9 121.7 211.9 121.7 211.9 C 121.7 211.8 121.7 211.7 121.7 211.7 C 121.6 200.3 116.4 191.1 110.1 191.1 C 103.8 191.1 98.7 200.3 98.6 211.7 C 98.6 211.7 98.5 211.8 98.5 211.9 C 98.5 211.9 98.5 211.9 98.5 212.0 C 98.5 212.0 98.5 212.0 98.5 212.0 C 98.5 212.1 98.5 212.2 98.5 212.2 L 98.5 212.2 Z M 98.5 212.2 " fill="none" stroke="#000000" stroke-width="2.00" stroke-miterlimit="0.00" stroke-linecap="round" stroke-linejoin="round" transform="matrix(1.80, 0.00, 0.00, -1.80, 88.0, 1052.0)"></path></g></g><g><clipPath id="clip-544"><path d="M 298.4 731.4 C 304.8 725.0 304.8 714.6 298.4 708.1 C 292.0 701.7 281.5 701.7 275.1 708.1 C 268.7 714.6 268.7 725.0 275.1 731.4 C 281.5 737.9 292.0 737.9 298.4 731.4 "></path></clipPath><g clip-path="url(#clip-544)"><g><clipPath id="clip-545"><path d="M 255.0 153.0 L 1345.1 153.0 L 1345.1 876.6 L 255.0 876.6 Z M 255.0 153.0 "></path></clipPath><g clip-path="url(#clip-545)"><path d="M 255.0 153.0 L 1345.1 153.0 L 1345.1 876.6 L 255.0 876.6 Z M 255.0 153.0 " fill="url(#gradSh2.45)"></path></g></g></g></g><g><clipPath id="clip-546"><path d="M 255.0 153.0 L 1345.1 153.0 L 1345.1 876.6 L 255.0 876.6 Z M 255.0 153.0 "></path></clipPath><g clip-path="url(#clip-546)"><path d="M 116.6 177.7 C 120.2 181.2 120.2 187.0 116.6 190.6 C 113.0 194.2 107.2 194.2 103.7 190.6 C 100.1 187.0 100.1 181.2 103.7 177.7 C 107.2 174.1 113.0 174.1 116.6 177.7 " fill="none" stroke="#000000" stroke-width="2.00" stroke-miterlimit="0.00" stroke-linecap="round" stroke-linejoin="round" transform="matrix(1.80, 0.00, 0.00, -1.80, 88.0, 1052.0)"></path></g></g><g><clipPath id="clip-547"><path d="M 265.9 395.7 C 266.1 392.6 268.1 389.6 272.0 387.2 C 280.1 382.2 293.4 382.2 301.5 387.2 C 305.4 389.6 307.4 392.6 307.6 395.7 L 307.7 395.7 C 307.7 395.8 307.7 396.0 307.7 396.1 C 307.7 396.1 307.7 396.1 307.7 396.1 C 307.7 396.2 307.7 396.3 307.7 396.4 C 307.7 396.5 307.7 396.6 307.7 396.7 C 307.4 417.2 298.1 433.7 286.7 433.7 C 275.4 433.7 266.1 417.2 265.8 396.7 C 265.8 396.6 265.8 396.5 265.8 396.4 C 265.8 396.3 265.8 396.2 265.8 396.1 C 265.8 396.1 265.8 396.1 265.8 396.1 C 265.8 396.0 265.8 395.8 265.8 395.7 L 265.9 395.7 Z M 265.9 395.7 "></path></clipPath><g clip-path="url(#clip-547)"><g><clipPath id="clip-548"><path d="M 255.0 153.0 L 1345.1 153.0 L 1345.1 876.6 L 255.0 876.6 Z M 255.0 153.0 "></path></clipPath><g clip-path="url(#clip-548)"><path d="M 255.0 153.0 L 1345.1 153.0 L 1345.1 876.6 L 255.0 876.6 Z M 255.0 153.0 " fill="url(#gradSh3.46)"></path></g></g></g></g><g><clipPath id="clip-549"><path d="M 255.0 153.0 L 1345.1 153.0 L 1345.1 876.6 L 255.0 876.6 Z M 255.0 153.0 "></path></clipPath><g clip-path="url(#clip-549)"><path d="M 98.5 364.2 C 98.7 365.4 99.8 367.1 101.9 368.4 C 106.5 371.2 113.8 371.2 118.3 368.4 C 120.5 367.1 121.6 365.4 121.7 364.2 L 121.7 364.2 C 121.7 363.7 121.7 363.6 121.7 363.5 C 121.7 363.5 121.7 363.5 121.7 363.5 C 121.7 363.4 121.7 363.4 121.7 363.4 C 121.7 363.3 121.7 363.2 121.7 363.2 C 121.6 351.8 116.4 342.6 110.1 342.6 C 103.8 342.6 98.7 351.8 98.6 363.2 C 98.6 363.2 98.5 363.3 98.5 363.4 C 98.5 363.4 98.5 363.4 98.5 363.5 C 98.5 363.5 98.5 363.5 98.5 363.5 C 98.5 363.6 98.5 363.7 98.5 364.2 L 98.5 364.2 Z M 98.5 364.2 " fill="none" stroke="#000000" stroke-width="2.00" stroke-miterlimit="0.00" stroke-linecap="round" stroke-linejoin="round" transform="matrix(1.80, 0.00, 0.00, -1.80, 88.0, 1052.0)"></path></g></g><g><clipPath id="clip-550"><path d="M 298.4 458.0 C 304.8 451.6 304.8 441.2 298.4 434.7 C 292.0 428.3 281.5 428.3 275.1 434.7 C 268.7 441.2 268.7 451.6 275.1 458.0 C 281.5 464.5 292.0 464.5 298.4 458.0 "></path></clipPath><g clip-path="url(#clip-550)"><g><clipPath id="clip-551"><path d="M 255.0 153.0 L 1345.1 153.0 L 1345.1 876.6 L 255.0 876.6 Z M 255.0 153.0 "></path></clipPath><g clip-path="url(#clip-551)"><path d="M 255.0 153.0 L 1345.1 153.0 L 1345.1 876.6 L 255.0 876.6 Z M 255.0 153.0 " fill="url(#gradSh4.47)"></path></g></g></g></g><g><clipPath id="clip-552"><path d="M 255.0 153.0 L 1345.1 153.0 L 1345.1 876.6 L 255.0 876.6 Z M 255.0 153.0 "></path></clipPath><g clip-path="url(#clip-552)"><path d="M 116.6 329.2 C 120.2 332.7 120.2 338.5 116.6 342.1 C 113.0 345.7 107.2 345.7 103.7 342.1 C 100.1 338.5 100.1 332.7 103.7 329.2 C 107.2 325.6 113.0 325.6 116.6 329.2 " fill="none" stroke="#000000" stroke-width="2.00" stroke-miterlimit="0.00" stroke-linecap="round" stroke-linejoin="round" transform="matrix(1.80, 0.00, 0.00, -1.80, 88.0, 1052.0)"></path><path d="M 122.1 205.1 L 190.1 205.3 " fill="none" stroke="#000000" stroke-width="1.00" stroke-miterlimit="0.00" stroke-linecap="round" stroke-linejoin="round" transform="matrix(1.80, 0.00, 0.00, -1.80, 88.0, 1052.0)"></path><path d="M 445.5 681.5 L 431.1 687.0 L 431.0 676.1 Z M 445.5 681.5 " fill="#000000"></path><path d="M 198.1 205.3 L 190.1 202.3 L 190.1 208.3 Z M 198.1 205.3 " fill="none" stroke="#000000" stroke-width="1.00" stroke-miterlimit="0.00" transform="matrix(1.80, 0.00, 0.00, -1.80, 88.0, 1052.0)"></path><path d="M 122.0 356.3 L 190.1 354.8 " fill="none" stroke="#000000" stroke-width="1.00" stroke-miterlimit="0.00" stroke-linecap="round" stroke-linejoin="round" transform="matrix(1.80, 0.00, 0.00, -1.80, 88.0, 1052.0)"></path><path d="M 445.5 412.0 L 431.0 417.1 L 431.2 406.3 Z M 445.5 412.0 " fill="#000000"></path><path d="M 198.1 354.7 L 190.0 351.8 L 190.2 357.8 Z M 198.1 354.7 " fill="none" stroke="#000000" stroke-width="1.00" stroke-miterlimit="0.00" transform="matrix(1.80, 0.00, 0.00, -1.80, 88.0, 1052.0)"></path><text xml:space="preserve" font-family="HelveticaNeue" font-size="16.0" fill="#000000" transform="matrix(1.80, 0.00, -0.00, -1.80, 1189.2, 611.7)">D</text><text xml:space="preserve" font-family="HelveticaNeue" font-size="16.0" fill="#000000" transform="matrix(1.80, 0.00, -0.00, -1.80, 1209.5, 611.7)">y</text><text xml:space="preserve" font-family="HelveticaNeue" font-size="16.0" fill="#000000" transform="matrix(1.80, 0.00, -0.00, -1.80, 1223.9, 611.7)">n</text><text xml:space="preserve" font-family="HelveticaNeue" font-size="16.0" fill="#000000" transform="matrix(1.80, 0.00, -0.00, -1.80, 1240.0, 611.7)">a</text><text xml:space="preserve" font-family="HelveticaNeue" font-size="16.0" fill="#000000" transform="matrix(1.80, 0.00, -0.00, -1.80, 1255.5, 611.7)">m</text><text xml:space="preserve" font-family="HelveticaNeue" font-size="16.0" fill="#000000" transform="matrix(1.80, 0.00, -0.00, -1.80, 1280.1, 611.7)">o</text><text xml:space="preserve" font-family="HelveticaNeue" font-size="16.0" fill="#000000" transform="matrix(1.80, 0.00, -0.00, -1.80, 1296.7, 611.7)">D</text><text xml:space="preserve" font-family="HelveticaNeue" font-size="16.0" fill="#000000" transform="matrix(1.80, 0.00, -0.00, -1.80, 1317.0, 611.7)">B</text></g></g></g></svg>