<?xml version="1.0" encoding="UTF-8" standalone="no"?><svg xmlns="http://www.w3.org/2000/svg" xmlns:xlink="http://www.w3.org/1999/xlink" clip-rule="evenodd" stroke-miterlimit="4.00" viewBox="0 0 1024 768"><desc>SVG generated by Keynote</desc><defs></defs><g transform="matrix(1.00, 0.00, -0.00, -1.00, 0.0, 768.0)"><path d="M 0.0 768.0 L 1024.0 768.0 L 1024.0 0.0 L 0.0 0.0 Z M 0.0 768.0 " fill="#FFFFFF"></path><path d="M 0.0 0.0 L 425.0 0.0 " fill="none" stroke="#747676" stroke-width="3.00" stroke-linecap="round" stroke-linejoin="round" stroke-dasharray="0.0, 9.0" transform="matrix(1.00, 0.00, 0.00, -1.00, 553.0, 644.0)"></path><text xml:space="preserve" font-family="DINCondensed-Bold" font-weight="bold" font-size="48.4" fill="#747676" transform="matrix(1.00, 0.00, -0.00, -1.00, 557.0, 673.0)">E</text><text xml:space="preserve" font-family="DINCondensed-Bold" font-weight="bold" font-size="48.4" fill="#747676" transform="matrix(1.00, 0.00, -0.00, -1.00, 574.9, 673.0)">L</text><text xml:space="preserve" font-family="DINCondensed-Bold" font-weight="bold" font-size="48.4" fill="#747676" transform="matrix(1.00, 0.00, -0.00, -1.00, 592.8, 673.0)">E</text><text xml:space="preserve" font-family="DINCondensed-Bold" font-weight="bold" font-size="48.4" fill="#747676" transform="matrix(1.00, 0.00, -0.00, -1.00, 610.7, 673.0)">C</text><text xml:space="preserve" font-family="DINCondensed-Bold" font-weight="bold" font-size="48.4" fill="#747676" transform="matrix(1.00, 0.00, -0.00, -1.00, 630.4, 673.0)">T</text><text xml:space="preserve" font-family="DINCondensed-Bold" font-weight="bold" font-size="48.4" fill="#747676" transform="matrix(1.00, 0.00, -0.00, -1.00, 646.4, 673.0)">R</text><text xml:space="preserve" font-family="DINCondensed-Bold" font-weight="bold" font-size="48.4" fill="#747676" transform="matrix(1.00, 0.00, -0.00, -1.00, 667.0, 673.0)">O</text><text xml:space="preserve" font-family="DINCondensed-Bold" font-weight="bold" font-size="48.4" fill="#747676" transform="matrix(1.00, 0.00, -0.00, -1.00, 687.6, 673.0)">N</text><text xml:space="preserve" font-family="DINCondensed-Bold" font-weight="bold" font-size="48.4" fill="#747676" transform="matrix(1.00, 0.00, -0.00, -1.00, 709.1, 673.0)"> </text><text xml:space="preserve" font-family="DINCondensed-Bold" font-weight="bold" font-size="48.4" fill="#747676" transform="matrix(1.00, 0.00, -0.00, -1.00, 718.1, 673.0)">W</text><text xml:space="preserve" font-family="DINCondensed-Bold" font-weight="bold" font-size="48.4" fill="#747676" transform="matrix(1.00, 0.00, -0.00, -1.00, 746.2, 673.0)">O</text><text xml:space="preserve" font-family="DINCondensed-Bold" font-weight="bold" font-size="48.4" fill="#747676" transform="matrix(1.00, 0.00, -0.00, -1.00, 766.8, 673.0)">R</text><text xml:space="preserve" font-family="DINCondensed-Bold" font-weight="bold" font-size="48.4" fill="#747676" transform="matrix(1.00, 0.00, -0.00, -1.00, 787.4, 673.0)">K</text><text xml:space="preserve" font-family="DINCondensed-Bold" font-weight="bold" font-size="48.4" fill="#747676" transform="matrix(1.00, 0.00, -0.00, -1.00, 808.0, 673.0)">S</text><text xml:space="preserve" font-family="DINCondensed-Bold" font-weight="bold" font-size="48.4" fill="#747676" transform="matrix(1.00, 0.00, -0.00, -1.00, 827.6, 673.0)">H</text><text xml:space="preserve" font-family="DINCondensed-Bold" font-weight="bold" font-size="48.4" fill="#747676" transform="matrix(1.00, 0.00, -0.00, -1.00, 848.2, 673.0)">O</text><text xml:space="preserve" font-family="DINCondensed-Bold" font-weight="bold" font-size="48.4" fill="#747676" transform="matrix(1.00, 0.00, -0.00, -1.00, 868.8, 673.0)">P</text><text xml:space="preserve" font-family="ZapfDingbatsITC" font-size="21.0" fill="#5C5C5C" transform="matrix(1.00, 0.00, -0.00, -1.00, 557.0, 596.2)">➤</text><text xml:space="preserve" font-family="IowanOldStyle-Roman" font-size="28.0" fill="#5C5C5C" transform="matrix(1.00, 0.00, -0.00, -1.00, 589.0, 593.0)">W</text><text xml:space="preserve" font-family="IowanOldStyle-Roman" font-size="28.0" fill="#5C5C5C" transform="matrix(1.00, 0.00, -0.00, -1.00, 618.0, 593.0)">h</text><text xml:space="preserve" font-family="IowanOldStyle-Roman" font-size="28.0" fill="#5C5C5C" transform="matrix(1.00, 0.00, -0.00, -1.00, 634.4, 593.0)">y</text><text xml:space="preserve" font-family="IowanOldStyle-Roman" font-size="28.0" fill="#5C5C5C" transform="matrix(1.00, 0.00, -0.00, -1.00, 648.0, 593.0)"> </text><text xml:space="preserve" font-family="IowanOldStyle-Roman" font-size="28.0" fill="#5C5C5C" transform="matrix(1.00, 0.00, -0.00, -1.00, 655.8, 593.0)">d</text><text xml:space="preserve" font-family="IowanOldStyle-Roman" font-size="28.0" fill="#5C5C5C" transform="matrix(1.00, 0.00, -0.00, -1.00, 671.6, 593.0)">i</text><text xml:space="preserve" font-family="IowanOldStyle-Roman" font-size="28.0" fill="#5C5C5C" transform="matrix(1.00, 0.00, -0.00, -1.00, 679.9, 593.0)">d</text><text xml:space="preserve" font-family="IowanOldStyle-Roman" font-size="28.0" fill="#5C5C5C" transform="matrix(1.00, 0.00, -0.00, -1.00, 695.6, 593.0)"> </text><text xml:space="preserve" font-family="IowanOldStyle-Roman" font-size="28.0" fill="#5C5C5C" transform="matrix(1.00, 0.00, -0.00, -1.00, 703.4, 593.0)">I</text><text xml:space="preserve" font-family="IowanOldStyle-Roman" font-size="28.0" fill="#5C5C5C" transform="matrix(1.00, 0.00, -0.00, -1.00, 712.9, 593.0)"> </text><text xml:space="preserve" font-family="IowanOldStyle-Roman" font-size="28.0" fill="#5C5C5C" transform="matrix(1.00, 0.00, -0.00, -1.00, 720.7, 593.0)">g</text><text xml:space="preserve" font-family="IowanOldStyle-Roman" font-size="28.0" fill="#5C5C5C" transform="matrix(1.00, 0.00, -0.00, -1.00, 735.1, 593.0)">o</text><text xml:space="preserve" font-family="IowanOldStyle-Roman" font-size="28.0" fill="#5C5C5C" transform="matrix(1.00, 0.00, -0.00, -1.00, 750.5, 593.0)">?</text><text xml:space="preserve" font-family="IowanOldStyle-Roman" font-size="28.0" fill="#5C5C5C" transform="matrix(1.00, 0.00, -0.00, -1.00, 763.7, 593.0)"> </text><text xml:space="preserve" font-family="ZapfDingbatsITC" font-size="21.0" fill="#5C5C5C" transform="matrix(1.00, 0.00, -0.00, -1.00, 557.0, 540.2)">➤</text><text xml:space="preserve" font-family="IowanOldStyle-Roman" font-size="28.0" fill="#5C5C5C" transform="matrix(1.00, 0.00, -0.00, -1.00, 589.0, 537.0)">h</text><text xml:space="preserve" font-family="IowanOldStyle-Roman" font-size="28.0" fill="#5C5C5C" transform="matrix(1.00, 0.00, -0.00, -1.00, 605.4, 537.0)">t</text><text xml:space="preserve" font-family="IowanOldStyle-Roman" font-size="28.0" fill="#5C5C5C" transform="matrix(1.00, 0.00, -0.00, -1.00, 615.5, 537.0)">t</text><text xml:space="preserve" font-family="IowanOldStyle-Roman" font-size="28.0" fill="#5C5C5C" transform="matrix(1.00, 0.00, -0.00, -1.00, 625.6, 537.0)">p</text><text xml:space="preserve" font-family="IowanOldStyle-Roman" font-size="28.0" fill="#5C5C5C" transform="matrix(1.00, 0.00, -0.00, -1.00, 641.2, 537.0)">s</text><text xml:space="preserve" font-family="IowanOldStyle-Roman" font-size="28.0" fill="#5C5C5C" transform="matrix(1.00, 0.00, -0.00, -1.00, 653.6, 537.0)">:</text><text xml:space="preserve" font-family="IowanOldStyle-Roman" font-size="28.0" fill="#5C5C5C" transform="matrix(1.00, 0.00, -0.00, -1.00, 661.4, 537.0)">/</text><text xml:space="preserve" font-family="IowanOldStyle-Roman" font-size="28.0" fill="#5C5C5C" transform="matrix(1.00, 0.00, -0.00, -1.00, 674.3, 537.0)">/</text><text xml:space="preserve" font-family="IowanOldStyle-Roman" font-size="28.0" fill="#5C5C5C" transform="matrix(1.00, 0.00, -0.00, -1.00, 687.2, 537.0)">g</text><text xml:space="preserve" font-family="IowanOldStyle-Roman" font-size="28.0" fill="#5C5C5C" transform="matrix(1.00, 0.00, -0.00, -1.00, 701.7, 537.0)">i</text><text xml:space="preserve" font-family="IowanOldStyle-Roman" font-size="28.0" fill="#5C5C5C" transform="matrix(1.00, 0.00, -0.00, -1.00, 710.0, 537.0)">t</text><text xml:space="preserve" font-family="IowanOldStyle-Roman" font-size="28.0" fill="#5C5C5C" transform="matrix(1.00, 0.00, -0.00, -1.00, 720.0, 537.0)">h</text><text xml:space="preserve" font-family="IowanOldStyle-Roman" font-size="28.0" fill="#5C5C5C" transform="matrix(1.00, 0.00, -0.00, -1.00, 736.4, 537.0)">u</text><text xml:space="preserve" font-family="IowanOldStyle-Roman" font-size="28.0" fill="#5C5C5C" transform="matrix(1.00, 0.00, -0.00, -1.00, 752.9, 537.0)">b</text><text xml:space="preserve" font-family="IowanOldStyle-Roman" font-size="28.0" fill="#5C5C5C" transform="matrix(1.00, 0.00, -0.00, -1.00, 768.5, 537.0)">.</text><text xml:space="preserve" font-family="IowanOldStyle-Roman" font-size="28.0" fill="#5C5C5C" transform="matrix(1.00, 0.00, -0.00, -1.00, 776.2, 537.0)">c</text><text xml:space="preserve" font-family="IowanOldStyle-Roman" font-size="28.0" fill="#5C5C5C" transform="matrix(1.00, 0.00, -0.00, -1.00, 788.8, 537.0)">o</text><text xml:space="preserve" font-family="IowanOldStyle-Roman" font-size="28.0" fill="#5C5C5C" transform="matrix(1.00, 0.00, -0.00, -1.00, 804.2, 537.0)">m</text><text xml:space="preserve" font-family="IowanOldStyle-Roman" font-size="28.0" fill="#5C5C5C" transform="matrix(1.00, 0.00, -0.00, -1.00, 828.8, 537.0)">/</text><text xml:space="preserve" font-family="IowanOldStyle-Roman" font-size="28.0" fill="#5C5C5C" transform="matrix(1.00, 0.00, -0.00, -1.00, 841.7, 537.0)">f</text><text xml:space="preserve" font-family="IowanOldStyle-Roman" font-size="28.0" fill="#5C5C5C" transform="matrix(1.00, 0.00, -0.00, -1.00, 850.7, 537.0)">e</text><text xml:space="preserve" font-family="IowanOldStyle-Roman" font-size="28.0" fill="#5C5C5C" transform="matrix(1.00, 0.00, -0.00, -1.00, 864.3, 537.0)">r</text><text xml:space="preserve" font-family="IowanOldStyle-Roman" font-size="28.0" fill="#5C5C5C" transform="matrix(1.00, 0.00, -0.00, -1.00, 875.2, 537.0)">o</text><text xml:space="preserve" font-family="IowanOldStyle-Roman" font-size="28.0" fill="#5C5C5C" transform="matrix(1.00, 0.00, -0.00, -1.00, 890.7, 537.0)">s</text><text xml:space="preserve" font-family="IowanOldStyle-Roman" font-size="28.0" fill="#5C5C5C" transform="matrix(1.00, 0.00, -0.00, -1.00, 903.1, 537.0)">s</text><text xml:space="preserve" font-family="IowanOldStyle-Roman" font-size="28.0" fill="#5C5C5C" transform="matrix(1.00, 0.00, -0.00, -1.00, 915.5, 537.0)">/</text><g><clipPath id="clip-17"><path d="M 588.0 531.9 L 928.4 531.9 L 928.4 535.4 L 588.0 535.4 Z M 588.0 531.9 "></path></clipPath><g clip-path="url(#clip-17)"><path d="M 36.0 92.3 L 375.4 92.3 " fill="none" stroke="#5C5C5C" stroke-width="1.49" stroke-miterlimit="0.00" transform="matrix(1.00, 0.00, 0.00, -1.00, 553.0, 626.0)"></path></g></g><text xml:space="preserve" font-family="IowanOldStyle-Roman" font-size="28.0" fill="#5C5C5C" transform="matrix(1.00, 0.00, -0.00, -1.00, 589.0, 499.0)">e</text><text xml:space="preserve" font-family="IowanOldStyle-Roman" font-size="28.0" fill="#5C5C5C" transform="matrix(1.00, 0.00, -0.00, -1.00, 602.7, 499.0)">l</text><text xml:space="preserve" font-family="IowanOldStyle-Roman" font-size="28.0" fill="#5C5C5C" transform="matrix(1.00, 0.00, -0.00, -1.00, 610.8, 499.0)">e</text><text xml:space="preserve" font-family="IowanOldStyle-Roman" font-size="28.0" fill="#5C5C5C" transform="matrix(1.00, 0.00, -0.00, -1.00, 624.5, 499.0)">c</text><text xml:space="preserve" font-family="IowanOldStyle-Roman" font-size="28.0" fill="#5C5C5C" transform="matrix(1.00, 0.00, -0.00, -1.00, 637.0, 499.0)">t</text><text xml:space="preserve" font-family="IowanOldStyle-Roman" font-size="28.0" fill="#5C5C5C" transform="matrix(1.00, 0.00, -0.00, -1.00, 647.1, 499.0)">r</text><text xml:space="preserve" font-family="IowanOldStyle-Roman" font-size="28.0" fill="#5C5C5C" transform="matrix(1.00, 0.00, -0.00, -1.00, 658.0, 499.0)">o</text><text xml:space="preserve" font-family="IowanOldStyle-Roman" font-size="28.0" fill="#5C5C5C" transform="matrix(1.00, 0.00, -0.00, -1.00, 673.4, 499.0)">n</text><text xml:space="preserve" font-family="IowanOldStyle-Roman" font-size="28.0" fill="#5C5C5C" transform="matrix(1.00, 0.00, -0.00, -1.00, 689.8, 499.0)">-</text><text xml:space="preserve" font-family="IowanOldStyle-Roman" font-size="28.0" fill="#5C5C5C" transform="matrix(1.00, 0.00, -0.00, -1.00, 699.6, 499.0)">w</text><text xml:space="preserve" font-family="IowanOldStyle-Roman" font-size="28.0" fill="#5C5C5C" transform="matrix(1.00, 0.00, -0.00, -1.00, 721.3, 499.0)">o</text><text xml:space="preserve" font-family="IowanOldStyle-Roman" font-size="28.0" fill="#5C5C5C" transform="matrix(1.00, 0.00, -0.00, -1.00, 736.7, 499.0)">r</text><text xml:space="preserve" font-family="IowanOldStyle-Roman" font-size="28.0" fill="#5C5C5C" transform="matrix(1.00, 0.00, -0.00, -1.00, 747.6, 499.0)">k</text><text xml:space="preserve" font-family="IowanOldStyle-Roman" font-size="28.0" fill="#5C5C5C" transform="matrix(1.00, 0.00, -0.00, -1.00, 762.9, 499.0)">s</text><text xml:space="preserve" font-family="IowanOldStyle-Roman" font-size="28.0" fill="#5C5C5C" transform="matrix(1.00, 0.00, -0.00, -1.00, 775.3, 499.0)">h</text><text xml:space="preserve" font-family="IowanOldStyle-Roman" font-size="28.0" fill="#5C5C5C" transform="matrix(1.00, 0.00, -0.00, -1.00, 791.7, 499.0)">o</text><text xml:space="preserve" font-family="IowanOldStyle-Roman" font-size="28.0" fill="#5C5C5C" transform="matrix(1.00, 0.00, -0.00, -1.00, 807.1, 499.0)">p</text><text xml:space="preserve" font-family="IowanOldStyle-Roman" font-size="28.0" fill="#5C5C5C" transform="matrix(1.00, 0.00, -0.00, -1.00, 822.8, 499.0)"> </text><g><clipPath id="clip-18"><path d="M 588.0 493.9 L 822.8 493.9 L 822.8 497.4 L 588.0 497.4 Z M 588.0 493.9 "></path></clipPath><g clip-path="url(#clip-18)"><path d="M 36.0 130.3 L 269.8 130.3 " fill="none" stroke="#5C5C5C" stroke-width="1.49" stroke-miterlimit="0.00" transform="matrix(1.00, 0.00, 0.00, -1.00, 553.0, 626.0)"></path></g></g><text xml:space="preserve" font-family="ZapfDingbatsITC" font-size="21.0" fill="#5C5C5C" transform="matrix(1.00, 0.00, -0.00, -1.00, 557.0, 446.2)">➤</text><text xml:space="preserve" font-family="IowanOldStyle-Roman" font-size="28.0" fill="#5C5C5C" transform="matrix(1.00, 0.00, -0.00, -1.00, 589.0, 443.0)">S</text><text xml:space="preserve" font-family="IowanOldStyle-Roman" font-size="28.0" fill="#5C5C5C" transform="matrix(1.00, 0.00, -0.00, -1.00, 604.1, 443.0)">e</text><text xml:space="preserve" font-family="IowanOldStyle-Roman" font-size="28.0" fill="#5C5C5C" transform="matrix(1.00, 0.00, -0.00, -1.00, 617.8, 443.0)">e</text><text xml:space="preserve" font-family="IowanOldStyle-Roman" font-size="28.0" fill="#5C5C5C" transform="matrix(1.00, 0.00, -0.00, -1.00, 631.5, 443.0)">m</text><text xml:space="preserve" font-family="IowanOldStyle-Roman" font-size="28.0" fill="#5C5C5C" transform="matrix(1.00, 0.00, -0.00, -1.00, 656.1, 443.0)">e</text><text xml:space="preserve" font-family="IowanOldStyle-Roman" font-size="28.0" fill="#5C5C5C" transform="matrix(1.00, 0.00, -0.00, -1.00, 669.7, 443.0)">d</text><text xml:space="preserve" font-family="IowanOldStyle-Roman" font-size="28.0" fill="#5C5C5C" transform="matrix(1.00, 0.00, -0.00, -1.00, 685.5, 443.0)"> </text><text xml:space="preserve" font-family="IowanOldStyle-Roman" font-size="28.0" fill="#5C5C5C" transform="matrix(1.00, 0.00, -0.00, -1.00, 693.3, 443.0)">p</text><text xml:space="preserve" font-family="IowanOldStyle-Roman" font-size="28.0" fill="#5C5C5C" transform="matrix(1.00, 0.00, -0.00, -1.00, 708.9, 443.0)">r</text><text xml:space="preserve" font-family="IowanOldStyle-Roman" font-size="28.0" fill="#5C5C5C" transform="matrix(1.00, 0.00, -0.00, -1.00, 719.9, 443.0)">e</text><text xml:space="preserve" font-family="IowanOldStyle-Roman" font-size="28.0" fill="#5C5C5C" transform="matrix(1.00, 0.00, -0.00, -1.00, 733.5, 443.0)">t</text><text xml:space="preserve" font-family="IowanOldStyle-Roman" font-size="28.0" fill="#5C5C5C" transform="matrix(1.00, 0.00, -0.00, -1.00, 743.6, 443.0)">t</text><text xml:space="preserve" font-family="IowanOldStyle-Roman" font-size="28.0" fill="#5C5C5C" transform="matrix(1.00, 0.00, -0.00, -1.00, 753.7, 443.0)">y</text><text xml:space="preserve" font-family="IowanOldStyle-Roman" font-size="28.0" fill="#5C5C5C" transform="matrix(1.00, 0.00, -0.00, -1.00, 767.3, 443.0)"> </text><text xml:space="preserve" font-family="IowanOldStyle-Roman" font-size="28.0" fill="#5C5C5C" transform="matrix(1.00, 0.00, -0.00, -1.00, 775.0, 443.0)">s</text><text xml:space="preserve" font-family="IowanOldStyle-Roman" font-size="28.0" fill="#5C5C5C" transform="matrix(1.00, 0.00, -0.00, -1.00, 787.4, 443.0)">t</text><text xml:space="preserve" font-family="IowanOldStyle-Roman" font-size="28.0" fill="#5C5C5C" transform="matrix(1.00, 0.00, -0.00, -1.00, 797.5, 443.0)">r</text><text xml:space="preserve" font-family="IowanOldStyle-Roman" font-size="28.0" fill="#5C5C5C" transform="matrix(1.00, 0.00, -0.00, -1.00, 808.4, 443.0)">a</text><text xml:space="preserve" font-family="IowanOldStyle-Roman" font-size="28.0" fill="#5C5C5C" transform="matrix(1.00, 0.00, -0.00, -1.00, 821.9, 443.0)">i</text><text xml:space="preserve" font-family="IowanOldStyle-Roman" font-size="28.0" fill="#5C5C5C" transform="matrix(1.00, 0.00, -0.00, -1.00, 830.2, 443.0)">g</text><text xml:space="preserve" font-family="IowanOldStyle-Roman" font-size="28.0" fill="#5C5C5C" transform="matrix(1.00, 0.00, -0.00, -1.00, 844.7, 443.0)">h</text><text xml:space="preserve" font-family="IowanOldStyle-Roman" font-size="28.0" fill="#5C5C5C" transform="matrix(1.00, 0.00, -0.00, -1.00, 861.1, 443.0)">t</text><text xml:space="preserve" font-family="IowanOldStyle-Roman" font-size="28.0" fill="#5C5C5C" transform="matrix(1.00, 0.00, -0.00, -1.00, 871.1, 443.0)"> </text><text xml:space="preserve" font-family="IowanOldStyle-Roman" font-size="28.0" fill="#5C5C5C" transform="matrix(1.00, 0.00, -0.00, -1.00, 589.0, 405.0)">f</text><text xml:space="preserve" font-family="IowanOldStyle-Roman" font-size="28.0" fill="#5C5C5C" transform="matrix(1.00, 0.00, -0.00, -1.00, 597.9, 405.0)">o</text><text xml:space="preserve" font-family="IowanOldStyle-Roman" font-size="28.0" fill="#5C5C5C" transform="matrix(1.00, 0.00, -0.00, -1.00, 613.4, 405.0)">r</text><text xml:space="preserve" font-family="IowanOldStyle-Roman" font-size="28.0" fill="#5C5C5C" transform="matrix(1.00, 0.00, -0.00, -1.00, 624.8, 405.0)">w</text><text xml:space="preserve" font-family="IowanOldStyle-Roman" font-size="28.0" fill="#5C5C5C" transform="matrix(1.00, 0.00, -0.00, -1.00, 646.5, 405.0)">a</text><text xml:space="preserve" font-family="IowanOldStyle-Roman" font-size="28.0" fill="#5C5C5C" transform="matrix(1.00, 0.00, -0.00, -1.00, 660.0, 405.0)">r</text><text xml:space="preserve" font-family="IowanOldStyle-Roman" font-size="28.0" fill="#5C5C5C" transform="matrix(1.00, 0.00, -0.00, -1.00, 670.9, 405.0)">d</text><text xml:space="preserve" font-family="IowanOldStyle-Roman" font-size="28.0" fill="#5C5C5C" transform="matrix(1.00, 0.00, -0.00, -1.00, 686.6, 405.0)"> </text><text xml:space="preserve" font-family="IowanOldStyle-Roman" font-size="28.0" fill="#5C5C5C" transform="matrix(1.00, 0.00, -0.00, -1.00, 694.4, 405.0)">t</text><text xml:space="preserve" font-family="IowanOldStyle-Roman" font-size="28.0" fill="#5C5C5C" transform="matrix(1.00, 0.00, -0.00, -1.00, 704.5, 405.0)">o</text><text xml:space="preserve" font-family="IowanOldStyle-Roman" font-size="28.0" fill="#5C5C5C" transform="matrix(1.00, 0.00, -0.00, -1.00, 719.9, 405.0)"> </text><text xml:space="preserve" font-family="IowanOldStyle-Roman" font-size="28.0" fill="#5C5C5C" transform="matrix(1.00, 0.00, -0.00, -1.00, 727.7, 405.0)">u</text><text xml:space="preserve" font-family="IowanOldStyle-Roman" font-size="28.0" fill="#5C5C5C" transform="matrix(1.00, 0.00, -0.00, -1.00, 744.1, 405.0)">s</text><text xml:space="preserve" font-family="IowanOldStyle-Roman" font-size="28.0" fill="#5C5C5C" transform="matrix(1.00, 0.00, -0.00, -1.00, 756.5, 405.0)">e</text><text xml:space="preserve" font-family="IowanOldStyle-Roman" font-size="28.0" fill="#5C5C5C" transform="matrix(1.00, 0.00, -0.00, -1.00, 770.2, 405.0)"> </text><text xml:space="preserve" font-family="ZapfDingbatsITC" font-size="21.0" fill="#5C5C5C" transform="matrix(1.00, 0.00, -0.00, -1.00, 557.0, 352.2)">➤</text><text xml:space="preserve" font-family="IowanOldStyle-Roman" font-size="28.0" fill="#5C5C5C" transform="matrix(1.00, 0.00, -0.00, -1.00, 589.0, 349.0)">w</text><text xml:space="preserve" font-family="IowanOldStyle-Roman" font-size="28.0" fill="#5C5C5C" transform="matrix(1.00, 0.00, -0.00, -1.00, 610.7, 349.0)">o</text><text xml:space="preserve" font-family="IowanOldStyle-Roman" font-size="28.0" fill="#5C5C5C" transform="matrix(1.00, 0.00, -0.00, -1.00, 626.1, 349.0)">u</text><text xml:space="preserve" font-family="IowanOldStyle-Roman" font-size="28.0" fill="#5C5C5C" transform="matrix(1.00, 0.00, -0.00, -1.00, 642.6, 349.0)">l</text><text xml:space="preserve" font-family="IowanOldStyle-Roman" font-size="28.0" fill="#5C5C5C" transform="matrix(1.00, 0.00, -0.00, -1.00, 650.7, 349.0)">d</text><text xml:space="preserve" font-family="IowanOldStyle-Roman" font-size="28.0" fill="#5C5C5C" transform="matrix(1.00, 0.00, -0.00, -1.00, 666.5, 349.0)"> </text><text xml:space="preserve" font-family="IowanOldStyle-Roman" font-size="28.0" fill="#5C5C5C" transform="matrix(1.00, 0.00, -0.00, -1.00, 674.3, 349.0)">b</text><text xml:space="preserve" font-family="IowanOldStyle-Roman" font-size="28.0" fill="#5C5C5C" transform="matrix(1.00, 0.00, -0.00, -1.00, 689.8, 349.0)">e</text><text xml:space="preserve" font-family="IowanOldStyle-Roman" font-size="28.0" fill="#5C5C5C" transform="matrix(1.00, 0.00, -0.00, -1.00, 703.5, 349.0)"> </text><text xml:space="preserve" font-family="IowanOldStyle-Roman" font-size="28.0" fill="#5C5C5C" transform="matrix(1.00, 0.00, -0.00, -1.00, 711.3, 349.0)">g</text><text xml:space="preserve" font-family="IowanOldStyle-Roman" font-size="28.0" fill="#5C5C5C" transform="matrix(1.00, 0.00, -0.00, -1.00, 725.7, 349.0)">o</text><text xml:space="preserve" font-family="IowanOldStyle-Roman" font-size="28.0" fill="#5C5C5C" transform="matrix(1.00, 0.00, -0.00, -1.00, 741.1, 349.0)">o</text><text xml:space="preserve" font-family="IowanOldStyle-Roman" font-size="28.0" fill="#5C5C5C" transform="matrix(1.00, 0.00, -0.00, -1.00, 756.5, 349.0)">d</text><text xml:space="preserve" font-family="IowanOldStyle-Roman" font-size="28.0" fill="#5C5C5C" transform="matrix(1.00, 0.00, -0.00, -1.00, 772.3, 349.0)"> </text><text xml:space="preserve" font-family="IowanOldStyle-Roman" font-size="28.0" fill="#5C5C5C" transform="matrix(1.00, 0.00, -0.00, -1.00, 780.1, 349.0)">t</text><text xml:space="preserve" font-family="IowanOldStyle-Roman" font-size="28.0" fill="#5C5C5C" transform="matrix(1.00, 0.00, -0.00, -1.00, 790.1, 349.0)">o</text><text xml:space="preserve" font-family="IowanOldStyle-Roman" font-size="28.0" fill="#5C5C5C" transform="matrix(1.00, 0.00, -0.00, -1.00, 805.5, 349.0)"> </text><text xml:space="preserve" font-family="IowanOldStyle-Roman" font-size="28.0" fill="#5C5C5C" transform="matrix(1.00, 0.00, -0.00, -1.00, 813.3, 349.0)">t</text><text xml:space="preserve" font-family="IowanOldStyle-Roman" font-size="28.0" fill="#5C5C5C" transform="matrix(1.00, 0.00, -0.00, -1.00, 823.4, 349.0)">h</text><text xml:space="preserve" font-family="IowanOldStyle-Roman" font-size="28.0" fill="#5C5C5C" transform="matrix(1.00, 0.00, -0.00, -1.00, 839.8, 349.0)">i</text><text xml:space="preserve" font-family="IowanOldStyle-Roman" font-size="28.0" fill="#5C5C5C" transform="matrix(1.00, 0.00, -0.00, -1.00, 848.1, 349.0)">n</text><text xml:space="preserve" font-family="IowanOldStyle-Roman" font-size="28.0" fill="#5C5C5C" transform="matrix(1.00, 0.00, -0.00, -1.00, 864.5, 349.0)">k</text><text xml:space="preserve" font-family="IowanOldStyle-Roman" font-size="28.0" fill="#5C5C5C" transform="matrix(1.00, 0.00, -0.00, -1.00, 879.7, 349.0)"> </text><text xml:space="preserve" font-family="IowanOldStyle-Roman" font-size="28.0" fill="#5C5C5C" transform="matrix(1.00, 0.00, -0.00, -1.00, 887.5, 349.0)">u</text><text xml:space="preserve" font-family="IowanOldStyle-Roman" font-size="28.0" fill="#5C5C5C" transform="matrix(1.00, 0.00, -0.00, -1.00, 904.0, 349.0)">p</text><text xml:space="preserve" font-family="IowanOldStyle-Roman" font-size="28.0" fill="#5C5C5C" transform="matrix(1.00, 0.00, -0.00, -1.00, 919.7, 349.0)"> </text><text xml:space="preserve" font-family="IowanOldStyle-Roman" font-size="28.0" fill="#5C5C5C" transform="matrix(1.00, 0.00, -0.00, -1.00, 927.4, 349.0)">a</text><text xml:space="preserve" font-family="IowanOldStyle-Roman" font-size="28.0" fill="#5C5C5C" transform="matrix(1.00, 0.00, -0.00, -1.00, 940.9, 349.0)"> </text><text xml:space="preserve" font-family="IowanOldStyle-Roman" font-size="28.0" fill="#5C5C5C" transform="matrix(1.00, 0.00, -0.00, -1.00, 589.0, 311.0)">r</text><text xml:space="preserve" font-family="IowanOldStyle-Roman" font-size="28.0" fill="#5C5C5C" transform="matrix(1.00, 0.00, -0.00, -1.00, 599.9, 311.0)">e</text><text xml:space="preserve" font-family="IowanOldStyle-Roman" font-size="28.0" fill="#5C5C5C" transform="matrix(1.00, 0.00, -0.00, -1.00, 613.6, 311.0)">a</text><text xml:space="preserve" font-family="IowanOldStyle-Roman" font-size="28.0" fill="#5C5C5C" transform="matrix(1.00, 0.00, -0.00, -1.00, 627.0, 311.0)">s</text><text xml:space="preserve" font-family="IowanOldStyle-Roman" font-size="28.0" fill="#5C5C5C" transform="matrix(1.00, 0.00, -0.00, -1.00, 639.4, 311.0)">o</text><text xml:space="preserve" font-family="IowanOldStyle-Roman" font-size="28.0" fill="#5C5C5C" transform="matrix(1.00, 0.00, -0.00, -1.00, 654.9, 311.0)">n</text><text xml:space="preserve" font-family="IowanOldStyle-Roman" font-size="28.0" fill="#5C5C5C" transform="matrix(1.00, 0.00, -0.00, -1.00, 671.2, 311.0)"> </text><text xml:space="preserve" font-family="IowanOldStyle-Roman" font-size="28.0" fill="#5C5C5C" transform="matrix(1.00, 0.00, -0.00, -1.00, 679.0, 311.0)">t</text><text xml:space="preserve" font-family="IowanOldStyle-Roman" font-size="28.0" fill="#5C5C5C" transform="matrix(1.00, 0.00, -0.00, -1.00, 689.1, 311.0)">o</text><text xml:space="preserve" font-family="IowanOldStyle-Roman" font-size="28.0" fill="#5C5C5C" transform="matrix(1.00, 0.00, -0.00, -1.00, 704.5, 311.0)"> </text><text xml:space="preserve" font-family="IowanOldStyle-Roman" font-size="28.0" fill="#5C5C5C" transform="matrix(1.00, 0.00, -0.00, -1.00, 712.2, 311.0)">p</text><text xml:space="preserve" font-family="IowanOldStyle-Roman" font-size="28.0" fill="#5C5C5C" transform="matrix(1.00, 0.00, -0.00, -1.00, 727.9, 311.0)">l</text><text xml:space="preserve" font-family="IowanOldStyle-Roman" font-size="28.0" fill="#5C5C5C" transform="matrix(1.00, 0.00, -0.00, -1.00, 736.1, 311.0)">a</text><text xml:space="preserve" font-family="IowanOldStyle-Roman" font-size="28.0" fill="#5C5C5C" transform="matrix(1.00, 0.00, -0.00, -1.00, 749.6, 311.0)">y</text><text xml:space="preserve" font-family="IowanOldStyle-Roman" font-size="28.0" fill="#5C5C5C" transform="matrix(1.00, 0.00, -0.00, -1.00, 763.2, 311.0)"> </text><text xml:space="preserve" font-family="IowanOldStyle-Roman" font-size="28.0" fill="#5C5C5C" transform="matrix(1.00, 0.00, -0.00, -1.00, 770.9, 311.0)">w</text><text xml:space="preserve" font-family="IowanOldStyle-Roman" font-size="28.0" fill="#5C5C5C" transform="matrix(1.00, 0.00, -0.00, -1.00, 792.6, 311.0)">i</text><text xml:space="preserve" font-family="IowanOldStyle-Roman" font-size="28.0" fill="#5C5C5C" transform="matrix(1.00, 0.00, -0.00, -1.00, 801.0, 311.0)">t</text><text xml:space="preserve" font-family="IowanOldStyle-Roman" font-size="28.0" fill="#5C5C5C" transform="matrix(1.00, 0.00, -0.00, -1.00, 811.0, 311.0)">h</text><text xml:space="preserve" font-family="IowanOldStyle-Roman" font-size="28.0" fill="#5C5C5C" transform="matrix(1.00, 0.00, -0.00, -1.00, 827.4, 311.0)"> </text><text xml:space="preserve" font-family="IowanOldStyle-Roman" font-size="28.0" fill="#5C5C5C" transform="matrix(1.00, 0.00, -0.00, -1.00, 835.2, 311.0)">t</text><text xml:space="preserve" font-family="IowanOldStyle-Roman" font-size="28.0" fill="#5C5C5C" transform="matrix(1.00, 0.00, -0.00, -1.00, 845.3, 311.0)">h</text><text xml:space="preserve" font-family="IowanOldStyle-Roman" font-size="28.0" fill="#5C5C5C" transform="matrix(1.00, 0.00, -0.00, -1.00, 861.7, 311.0)">i</text><text xml:space="preserve" font-family="IowanOldStyle-Roman" font-size="28.0" fill="#5C5C5C" transform="matrix(1.00, 0.00, -0.00, -1.00, 870.0, 311.0)">s</text><text xml:space="preserve" font-family="IowanOldStyle-Roman" font-size="28.0" fill="#5C5C5C" transform="matrix(1.00, 0.00, -0.00, -1.00, 882.4, 311.0)"> </text><text xml:space="preserve" font-family="IowanOldStyle-Roman" font-size="28.0" fill="#5C5C5C" transform="matrix(1.00, 0.00, -0.00, -1.00, 890.2, 311.0)">s</text><text xml:space="preserve" font-family="IowanOldStyle-Roman" font-size="28.0" fill="#5C5C5C" transform="matrix(1.00, 0.00, -0.00, -1.00, 902.6, 311.0)">o</text><text xml:space="preserve" font-family="IowanOldStyle-Roman" font-size="28.0" fill="#5C5C5C" transform="matrix(1.00, 0.00, -0.00, -1.00, 918.0, 311.0)">m</text><text xml:space="preserve" font-family="IowanOldStyle-Roman" font-size="28.0" fill="#5C5C5C" transform="matrix(1.00, 0.00, -0.00, -1.00, 942.6, 311.0)">e</text><text xml:space="preserve" font-family="IowanOldStyle-Roman" font-size="28.0" fill="#5C5C5C" transform="matrix(1.00, 0.00, -0.00, -1.00, 956.3, 311.0)"> </text><text xml:space="preserve" font-family="IowanOldStyle-Roman" font-size="28.0" fill="#5C5C5C" transform="matrix(1.00, 0.00, -0.00, -1.00, 589.0, 273.0)">m</text><text xml:space="preserve" font-family="IowanOldStyle-Roman" font-size="28.0" fill="#5C5C5C" transform="matrix(1.00, 0.00, -0.00, -1.00, 613.6, 273.0)">o</text><text xml:space="preserve" font-family="IowanOldStyle-Roman" font-size="28.0" fill="#5C5C5C" transform="matrix(1.00, 0.00, -0.00, -1.00, 629.1, 273.0)">r</text><text xml:space="preserve" font-family="IowanOldStyle-Roman" font-size="28.0" fill="#5C5C5C" transform="matrix(1.00, 0.00, -0.00, -1.00, 640.0, 273.0)">e</text><text xml:space="preserve" font-family="IowanOldStyle-Roman" font-size="28.0" fill="#5C5C5C" transform="matrix(1.00, 0.00, -0.00, -1.00, 653.6, 273.0)"> </text><text xml:space="preserve" font-family="IowanOldStyle-Roman" font-size="28.0" fill="#5C5C5C" transform="matrix(1.00, 0.00, -0.00, -1.00, 661.4, 273.0)">…</text><text xml:space="preserve" font-family="IowanOldStyle-Roman" font-size="28.0" fill="#5C5C5C" transform="matrix(1.00, 0.00, -0.00, -1.00, 689.4, 273.0)">.</text><image xlink:href="../../72BA4349-D8CD-4C0B-80E4-940AFE5482BE/assets/ACE647E10AAEDABACE9EF80A6C78ADCF.png" width="514.00" height="460.00" transform="matrix(1.00, 0.00, -0.00, -1.00, 35.0, 614.0)"></image></g></svg>