<?xml version="1.0" encoding="UTF-8" standalone="no"?><svg xmlns="http://www.w3.org/2000/svg" xmlns:xlink="http://www.w3.org/1999/xlink" clip-rule="evenodd" stroke-miterlimit="4.00" viewBox="0 0 1024 768"><desc>SVG generated by Keynote</desc><defs></defs><g transform="matrix(1.00, 0.00, -0.00, -1.00, 0.0, 768.0)"><path d="M 0.0 768.0 L 1024.0 768.0 L 1024.0 0.0 L 0.0 0.0 Z M 0.0 768.0 " fill="#FFFFFF"></path><path d="M 0.0 0.0 L 425.0 0.0 " fill="none" stroke="#747676" stroke-width="3.00" stroke-linecap="round" stroke-linejoin="round" stroke-dasharray="0.0, 9.0" transform="matrix(1.00, 0.00, 0.00, -1.00, 73.0, 644.0)"></path><text xml:space="preserve" font-family="DINCondensed-Bold" font-weight="bold" font-size="38.5" fill="#747676" transform="matrix(1.00, 0.00, -0.00, -1.00, 77.0, 680.0)">D</text><text xml:space="preserve" font-family="DINCondensed-Bold" font-weight="bold" font-size="38.5" fill="#747676" transform="matrix(1.00, 0.00, -0.00, -1.00, 93.4, 680.0)">E</text><text xml:space="preserve" font-family="DINCondensed-Bold" font-weight="bold" font-size="38.5" fill="#747676" transform="matrix(1.00, 0.00, -0.00, -1.00, 107.6, 680.0)">B</text><text xml:space="preserve" font-family="DINCondensed-Bold" font-weight="bold" font-size="38.5" fill="#747676" transform="matrix(1.00, 0.00, -0.00, -1.00, 124.0, 680.0)">U</text><text xml:space="preserve" font-family="DINCondensed-Bold" font-weight="bold" font-size="38.5" fill="#747676" transform="matrix(1.00, 0.00, -0.00, -1.00, 140.4, 680.0)">G</text><text xml:space="preserve" font-family="DINCondensed-Bold" font-weight="bold" font-size="38.5" fill="#747676" transform="matrix(1.00, 0.00, -0.00, -1.00, 156.8, 680.0)">G</text><text xml:space="preserve" font-family="DINCondensed-Bold" font-weight="bold" font-size="38.5" fill="#747676" transform="matrix(1.00, 0.00, -0.00, -1.00, 173.2, 680.0)">I</text><text xml:space="preserve" font-family="DINCondensed-Bold" font-weight="bold" font-size="38.5" fill="#747676" transform="matrix(1.00, 0.00, -0.00, -1.00, 181.0, 680.0)">N</text><text xml:space="preserve" font-family="DINCondensed-Bold" font-weight="bold" font-size="38.5" fill="#747676" transform="matrix(1.00, 0.00, -0.00, -1.00, 198.1, 680.0)">G</text><text xml:space="preserve" font-family="DINCondensed-Bold" font-weight="bold" font-size="38.5" fill="#747676" transform="matrix(1.00, 0.00, -0.00, -1.00, 214.5, 680.0)"> </text><text xml:space="preserve" font-family="DINCondensed-Bold" font-weight="bold" font-size="38.5" fill="#747676" transform="matrix(1.00, 0.00, -0.00, -1.00, 221.7, 680.0)">N</text><text xml:space="preserve" font-family="DINCondensed-Bold" font-weight="bold" font-size="38.5" fill="#747676" transform="matrix(1.00, 0.00, -0.00, -1.00, 238.8, 680.0)">O</text><text xml:space="preserve" font-family="DINCondensed-Bold" font-weight="bold" font-size="38.5" fill="#747676" transform="matrix(1.00, 0.00, -0.00, -1.00, 255.2, 680.0)">D</text><text xml:space="preserve" font-family="DINCondensed-Bold" font-weight="bold" font-size="38.5" fill="#747676" transform="matrix(1.00, 0.00, -0.00, -1.00, 271.6, 680.0)">E</text><text xml:space="preserve" font-family="DINCondensed-Bold" font-weight="bold" font-size="38.5" fill="#747676" transform="matrix(1.00, 0.00, -0.00, -1.00, 285.8, 680.0)"> </text><text xml:space="preserve" font-family="DINCondensed-Bold" font-weight="bold" font-size="38.5" fill="#747676" transform="matrix(1.00, 0.00, -0.00, -1.00, 292.9, 680.0)">I</text><text xml:space="preserve" font-family="DINCondensed-Bold" font-weight="bold" font-size="38.5" fill="#747676" transform="matrix(1.00, 0.00, -0.00, -1.00, 300.8, 680.0)">N</text><text xml:space="preserve" font-family="DINCondensed-Bold" font-weight="bold" font-size="38.5" fill="#747676" transform="matrix(1.00, 0.00, -0.00, -1.00, 317.9, 680.0)"> </text><text xml:space="preserve" font-family="DINCondensed-Bold" font-weight="bold" font-size="38.5" fill="#747676" transform="matrix(1.00, 0.00, -0.00, -1.00, 325.0, 680.0)">T</text><text xml:space="preserve" font-family="DINCondensed-Bold" font-weight="bold" font-size="38.5" fill="#747676" transform="matrix(1.00, 0.00, -0.00, -1.00, 337.8, 680.0)">H</text><text xml:space="preserve" font-family="DINCondensed-Bold" font-weight="bold" font-size="38.5" fill="#747676" transform="matrix(1.00, 0.00, -0.00, -1.00, 354.2, 680.0)">E</text><text xml:space="preserve" font-family="DINCondensed-Bold" font-weight="bold" font-size="38.5" fill="#747676" transform="matrix(1.00, 0.00, -0.00, -1.00, 368.4, 680.0)"> </text><text xml:space="preserve" font-family="DINCondensed-Bold" font-weight="bold" font-size="38.5" fill="#747676" transform="matrix(1.00, 0.00, -0.00, -1.00, 375.6, 680.0)">B</text><text xml:space="preserve" font-family="DINCondensed-Bold" font-weight="bold" font-size="38.5" fill="#747676" transform="matrix(1.00, 0.00, -0.00, -1.00, 392.0, 680.0)">R</text><text xml:space="preserve" font-family="DINCondensed-Bold" font-weight="bold" font-size="38.5" fill="#747676" transform="matrix(1.00, 0.00, -0.00, -1.00, 408.4, 680.0)">O</text><text xml:space="preserve" font-family="DINCondensed-Bold" font-weight="bold" font-size="38.5" fill="#747676" transform="matrix(1.00, 0.00, -0.00, -1.00, 424.3, 680.0)">W</text><text xml:space="preserve" font-family="DINCondensed-Bold" font-weight="bold" font-size="38.5" fill="#747676" transform="matrix(1.00, 0.00, -0.00, -1.00, 447.1, 680.0)">S</text><text xml:space="preserve" font-family="DINCondensed-Bold" font-weight="bold" font-size="38.5" fill="#747676" transform="matrix(1.00, 0.00, -0.00, -1.00, 462.8, 680.0)">E</text><text xml:space="preserve" font-family="DINCondensed-Bold" font-weight="bold" font-size="38.5" fill="#747676" transform="matrix(1.00, 0.00, -0.00, -1.00, 477.0, 680.0)">R</text><text xml:space="preserve" font-family="ZapfDingbatsITC" font-size="21.0" fill="#5C5C5C" transform="matrix(1.00, 0.00, -0.00, -1.00, 77.0, 180.2)">➤</text><text xml:space="preserve" font-family="IowanOldStyle-Roman" font-size="28.0" fill="#5C5C5C" transform="matrix(1.00, 0.00, -0.00, -1.00, 109.0, 177.0)">E</text><text xml:space="preserve" font-family="IowanOldStyle-Roman" font-size="28.0" fill="#5C5C5C" transform="matrix(1.00, 0.00, -0.00, -1.00, 126.7, 177.0)">l</text><text xml:space="preserve" font-family="IowanOldStyle-Roman" font-size="28.0" fill="#5C5C5C" transform="matrix(1.00, 0.00, -0.00, -1.00, 134.9, 177.0)">e</text><text xml:space="preserve" font-family="IowanOldStyle-Roman" font-size="28.0" fill="#5C5C5C" transform="matrix(1.00, 0.00, -0.00, -1.00, 148.6, 177.0)">c</text><text xml:space="preserve" font-family="IowanOldStyle-Roman" font-size="28.0" fill="#5C5C5C" transform="matrix(1.00, 0.00, -0.00, -1.00, 161.1, 177.0)">t</text><text xml:space="preserve" font-family="IowanOldStyle-Roman" font-size="28.0" fill="#5C5C5C" transform="matrix(1.00, 0.00, -0.00, -1.00, 171.1, 177.0)">r</text><text xml:space="preserve" font-family="IowanOldStyle-Roman" font-size="28.0" fill="#5C5C5C" transform="matrix(1.00, 0.00, -0.00, -1.00, 182.1, 177.0)">o</text><text xml:space="preserve" font-family="IowanOldStyle-Roman" font-size="28.0" fill="#5C5C5C" transform="matrix(1.00, 0.00, -0.00, -1.00, 197.5, 177.0)">n</text><text xml:space="preserve" font-family="IowanOldStyle-Roman" font-size="28.0" fill="#5C5C5C" transform="matrix(1.00, 0.00, -0.00, -1.00, 213.8, 177.0)"> </text><text xml:space="preserve" font-family="IowanOldStyle-Roman" font-size="28.0" fill="#5C5C5C" transform="matrix(1.00, 0.00, -0.00, -1.00, 221.6, 177.0)">t</text><text xml:space="preserve" font-family="IowanOldStyle-Roman" font-size="28.0" fill="#5C5C5C" transform="matrix(1.00, 0.00, -0.00, -1.00, 231.7, 177.0)">o</text><text xml:space="preserve" font-family="IowanOldStyle-Roman" font-size="28.0" fill="#5C5C5C" transform="matrix(1.00, 0.00, -0.00, -1.00, 247.1, 177.0)"> </text><text xml:space="preserve" font-family="IowanOldStyle-Roman" font-size="28.0" fill="#5C5C5C" transform="matrix(1.00, 0.00, -0.00, -1.00, 254.9, 177.0)">b</text><text xml:space="preserve" font-family="IowanOldStyle-Roman" font-size="28.0" fill="#5C5C5C" transform="matrix(1.00, 0.00, -0.00, -1.00, 270.5, 177.0)">l</text><text xml:space="preserve" font-family="IowanOldStyle-Roman" font-size="28.0" fill="#5C5C5C" transform="matrix(1.00, 0.00, -0.00, -1.00, 278.6, 177.0)">e</text><text xml:space="preserve" font-family="IowanOldStyle-Roman" font-size="28.0" fill="#5C5C5C" transform="matrix(1.00, 0.00, -0.00, -1.00, 292.3, 177.0)">n</text><text xml:space="preserve" font-family="IowanOldStyle-Roman" font-size="28.0" fill="#5C5C5C" transform="matrix(1.00, 0.00, -0.00, -1.00, 308.6, 177.0)">d</text><text xml:space="preserve" font-family="IowanOldStyle-Roman" font-size="28.0" fill="#5C5C5C" transform="matrix(1.00, 0.00, -0.00, -1.00, 324.4, 177.0)"> </text><text xml:space="preserve" font-family="IowanOldStyle-Roman" font-size="28.0" fill="#5C5C5C" transform="matrix(1.00, 0.00, -0.00, -1.00, 332.1, 177.0)">N</text><text xml:space="preserve" font-family="IowanOldStyle-Roman" font-size="28.0" fill="#5C5C5C" transform="matrix(1.00, 0.00, -0.00, -1.00, 354.8, 177.0)">o</text><text xml:space="preserve" font-family="IowanOldStyle-Roman" font-size="28.0" fill="#5C5C5C" transform="matrix(1.00, 0.00, -0.00, -1.00, 370.2, 177.0)">d</text><text xml:space="preserve" font-family="IowanOldStyle-Roman" font-size="28.0" fill="#5C5C5C" transform="matrix(1.00, 0.00, -0.00, -1.00, 385.9, 177.0)">e</text><text xml:space="preserve" font-family="IowanOldStyle-Roman" font-size="28.0" fill="#5C5C5C" transform="matrix(1.00, 0.00, -0.00, -1.00, 399.6, 177.0)">.</text><text xml:space="preserve" font-family="IowanOldStyle-Roman" font-size="28.0" fill="#5C5C5C" transform="matrix(1.00, 0.00, -0.00, -1.00, 407.4, 177.0)">j</text><text xml:space="preserve" font-family="IowanOldStyle-Roman" font-size="28.0" fill="#5C5C5C" transform="matrix(1.00, 0.00, -0.00, -1.00, 415.0, 177.0)">s</text><text xml:space="preserve" font-family="IowanOldStyle-Roman" font-size="28.0" fill="#5C5C5C" transform="matrix(1.00, 0.00, -0.00, -1.00, 427.4, 177.0)"> </text><text xml:space="preserve" font-family="IowanOldStyle-Roman" font-size="28.0" fill="#5C5C5C" transform="matrix(1.00, 0.00, -0.00, -1.00, 435.2, 177.0)">a</text><text xml:space="preserve" font-family="IowanOldStyle-Roman" font-size="28.0" fill="#5C5C5C" transform="matrix(1.00, 0.00, -0.00, -1.00, 448.7, 177.0)">n</text><text xml:space="preserve" font-family="IowanOldStyle-Roman" font-size="28.0" fill="#5C5C5C" transform="matrix(1.00, 0.00, -0.00, -1.00, 465.0, 177.0)">d</text><text xml:space="preserve" font-family="IowanOldStyle-Roman" font-size="28.0" fill="#5C5C5C" transform="matrix(1.00, 0.00, -0.00, -1.00, 480.7, 177.0)"> </text><text xml:space="preserve" font-family="IowanOldStyle-Roman" font-size="28.0" fill="#5C5C5C" transform="matrix(1.00, 0.00, -0.00, -1.00, 488.5, 177.0)">C</text><text xml:space="preserve" font-family="IowanOldStyle-Roman" font-size="28.0" fill="#5C5C5C" transform="matrix(1.00, 0.00, -0.00, -1.00, 508.3, 177.0)">h</text><text xml:space="preserve" font-family="IowanOldStyle-Roman" font-size="28.0" fill="#5C5C5C" transform="matrix(1.00, 0.00, -0.00, -1.00, 524.7, 177.0)">r</text><text xml:space="preserve" font-family="IowanOldStyle-Roman" font-size="28.0" fill="#5C5C5C" transform="matrix(1.00, 0.00, -0.00, -1.00, 535.6, 177.0)">o</text><text xml:space="preserve" font-family="IowanOldStyle-Roman" font-size="28.0" fill="#5C5C5C" transform="matrix(1.00, 0.00, -0.00, -1.00, 551.1, 177.0)">m</text><text xml:space="preserve" font-family="IowanOldStyle-Roman" font-size="28.0" fill="#5C5C5C" transform="matrix(1.00, 0.00, -0.00, -1.00, 575.7, 177.0)">i</text><text xml:space="preserve" font-family="IowanOldStyle-Roman" font-size="28.0" fill="#5C5C5C" transform="matrix(1.00, 0.00, -0.00, -1.00, 584.0, 177.0)">u</text><text xml:space="preserve" font-family="IowanOldStyle-Roman" font-size="28.0" fill="#5C5C5C" transform="matrix(1.00, 0.00, -0.00, -1.00, 600.5, 177.0)">m</text><text xml:space="preserve" font-family="IowanOldStyle-Roman" font-size="28.0" fill="#5C5C5C" transform="matrix(1.00, 0.00, -0.00, -1.00, 625.1, 177.0)"> </text><text xml:space="preserve" font-family="IowanOldStyle-Roman" font-size="28.0" fill="#5C5C5C" transform="matrix(1.00, 0.00, -0.00, -1.00, 632.9, 177.0)">f</text><text xml:space="preserve" font-family="IowanOldStyle-Roman" font-size="28.0" fill="#5C5C5C" transform="matrix(1.00, 0.00, -0.00, -1.00, 641.8, 177.0)">e</text><text xml:space="preserve" font-family="IowanOldStyle-Roman" font-size="28.0" fill="#5C5C5C" transform="matrix(1.00, 0.00, -0.00, -1.00, 655.5, 177.0)">a</text><text xml:space="preserve" font-family="IowanOldStyle-Roman" font-size="28.0" fill="#5C5C5C" transform="matrix(1.00, 0.00, -0.00, -1.00, 668.9, 177.0)">t</text><text xml:space="preserve" font-family="IowanOldStyle-Roman" font-size="28.0" fill="#5C5C5C" transform="matrix(1.00, 0.00, -0.00, -1.00, 679.0, 177.0)">u</text><text xml:space="preserve" font-family="IowanOldStyle-Roman" font-size="28.0" fill="#5C5C5C" transform="matrix(1.00, 0.00, -0.00, -1.00, 695.5, 177.0)">r</text><text xml:space="preserve" font-family="IowanOldStyle-Roman" font-size="28.0" fill="#5C5C5C" transform="matrix(1.00, 0.00, -0.00, -1.00, 706.4, 177.0)">e</text><text xml:space="preserve" font-family="IowanOldStyle-Roman" font-size="28.0" fill="#5C5C5C" transform="matrix(1.00, 0.00, -0.00, -1.00, 720.1, 177.0)">s</text><text xml:space="preserve" font-family="IowanOldStyle-Roman" font-size="28.0" fill="#5C5C5C" transform="matrix(1.00, 0.00, -0.00, -1.00, 732.6, 177.0)"> </text><text xml:space="preserve" font-family="ZapfDingbatsITC" font-size="21.0" fill="#5C5C5C" transform="matrix(1.00, 0.00, -0.00, -1.00, 77.0, 124.2)">➤</text><text xml:space="preserve" font-family="IowanOldStyle-Roman" font-size="28.0" fill="#5C5C5C" transform="matrix(1.00, 0.00, -0.00, -1.00, 109.0, 121.0)">n</text><text xml:space="preserve" font-family="IowanOldStyle-Roman" font-size="28.0" fill="#5C5C5C" transform="matrix(1.00, 0.00, -0.00, -1.00, 125.4, 121.0)">p</text><text xml:space="preserve" font-family="IowanOldStyle-Roman" font-size="28.0" fill="#5C5C5C" transform="matrix(1.00, 0.00, -0.00, -1.00, 141.0, 121.0)">m</text><text xml:space="preserve" font-family="IowanOldStyle-Roman" font-size="28.0" fill="#5C5C5C" transform="matrix(1.00, 0.00, -0.00, -1.00, 165.7, 121.0)"> </text><text xml:space="preserve" font-family="IowanOldStyle-Roman" font-size="28.0" fill="#5C5C5C" transform="matrix(1.00, 0.00, -0.00, -1.00, 173.4, 121.0)">i</text><text xml:space="preserve" font-family="IowanOldStyle-Roman" font-size="28.0" fill="#5C5C5C" transform="matrix(1.00, 0.00, -0.00, -1.00, 181.8, 121.0)">n</text><text xml:space="preserve" font-family="IowanOldStyle-Roman" font-size="28.0" fill="#5C5C5C" transform="matrix(1.00, 0.00, -0.00, -1.00, 198.1, 121.0)">s</text><text xml:space="preserve" font-family="IowanOldStyle-Roman" font-size="28.0" fill="#5C5C5C" transform="matrix(1.00, 0.00, -0.00, -1.00, 210.5, 121.0)">t</text><text xml:space="preserve" font-family="IowanOldStyle-Roman" font-size="28.0" fill="#5C5C5C" transform="matrix(1.00, 0.00, -0.00, -1.00, 220.6, 121.0)">a</text><text xml:space="preserve" font-family="IowanOldStyle-Roman" font-size="28.0" fill="#5C5C5C" transform="matrix(1.00, 0.00, -0.00, -1.00, 234.0, 121.0)">l</text><text xml:space="preserve" font-family="IowanOldStyle-Roman" font-size="28.0" fill="#5C5C5C" transform="matrix(1.00, 0.00, -0.00, -1.00, 242.2, 121.0)">l</text><text xml:space="preserve" font-family="IowanOldStyle-Roman" font-size="28.0" fill="#5C5C5C" transform="matrix(1.00, 0.00, -0.00, -1.00, 250.4, 121.0)"> </text><text xml:space="preserve" font-family="IowanOldStyle-Roman" font-size="28.0" fill="#5C5C5C" transform="matrix(1.00, 0.00, -0.00, -1.00, 258.2, 121.0)">-</text><text xml:space="preserve" font-family="IowanOldStyle-Roman" font-size="28.0" fill="#5C5C5C" transform="matrix(1.00, 0.00, -0.00, -1.00, 268.0, 121.0)">g</text><text xml:space="preserve" font-family="IowanOldStyle-Roman" font-size="28.0" fill="#5C5C5C" transform="matrix(1.00, 0.00, -0.00, -1.00, 282.4, 121.0)"> </text><text xml:space="preserve" font-family="IowanOldStyle-Roman" font-size="28.0" fill="#5C5C5C" transform="matrix(1.00, 0.00, -0.00, -1.00, 290.2, 121.0)">d</text><text xml:space="preserve" font-family="IowanOldStyle-Roman" font-size="28.0" fill="#5C5C5C" transform="matrix(1.00, 0.00, -0.00, -1.00, 305.9, 121.0)">e</text><text xml:space="preserve" font-family="IowanOldStyle-Roman" font-size="28.0" fill="#5C5C5C" transform="matrix(1.00, 0.00, -0.00, -1.00, 319.6, 121.0)">v</text><text xml:space="preserve" font-family="IowanOldStyle-Roman" font-size="28.0" fill="#5C5C5C" transform="matrix(1.00, 0.00, -0.00, -1.00, 333.3, 121.0)">t</text><text xml:space="preserve" font-family="IowanOldStyle-Roman" font-size="28.0" fill="#5C5C5C" transform="matrix(1.00, 0.00, -0.00, -1.00, 343.4, 121.0)">o</text><text xml:space="preserve" font-family="IowanOldStyle-Roman" font-size="28.0" fill="#5C5C5C" transform="matrix(1.00, 0.00, -0.00, -1.00, 358.8, 121.0)">o</text><text xml:space="preserve" font-family="IowanOldStyle-Roman" font-size="28.0" fill="#5C5C5C" transform="matrix(1.00, 0.00, -0.00, -1.00, 374.3, 121.0)">l</text><text xml:space="preserve" font-family="IowanOldStyle-Roman" font-size="28.0" fill="#5C5C5C" transform="matrix(1.00, 0.00, -0.00, -1.00, 382.5, 121.0)"> </text><text xml:space="preserve" font-family="IowanOldStyle-Roman" font-size="28.0" fill="#5C5C5C" transform="matrix(1.00, 0.00, -0.00, -1.00, 390.2, 121.0)"> </text><text xml:space="preserve" font-family="ZapfDingbatsITC" font-size="21.0" fill="#5C5C5C" transform="matrix(1.00, 0.00, -0.00, -1.00, 77.0, 68.2)">➤</text><text xml:space="preserve" font-family="IowanOldStyle-Roman" font-size="28.0" fill="#5C5C5C" transform="matrix(1.00, 0.00, -0.00, -1.00, 109.0, 65.0)">G</text><text xml:space="preserve" font-family="IowanOldStyle-Roman" font-size="28.0" fill="#5C5C5C" transform="matrix(1.00, 0.00, -0.00, -1.00, 129.8, 65.0)">i</text><text xml:space="preserve" font-family="IowanOldStyle-Roman" font-size="28.0" fill="#5C5C5C" transform="matrix(1.00, 0.00, -0.00, -1.00, 138.1, 65.0)">v</text><text xml:space="preserve" font-family="IowanOldStyle-Roman" font-size="28.0" fill="#5C5C5C" transform="matrix(1.00, 0.00, -0.00, -1.00, 151.9, 65.0)">e</text><text xml:space="preserve" font-family="IowanOldStyle-Roman" font-size="28.0" fill="#5C5C5C" transform="matrix(1.00, 0.00, -0.00, -1.00, 165.5, 65.0)">s</text><text xml:space="preserve" font-family="IowanOldStyle-Roman" font-size="28.0" fill="#5C5C5C" transform="matrix(1.00, 0.00, -0.00, -1.00, 177.9, 65.0)"> </text><text xml:space="preserve" font-family="IowanOldStyle-Roman" font-size="28.0" fill="#5C5C5C" transform="matrix(1.00, 0.00, -0.00, -1.00, 185.7, 65.0)">V</text><text xml:space="preserve" font-family="IowanOldStyle-Roman" font-size="28.0" fill="#5C5C5C" transform="matrix(1.00, 0.00, -0.00, -1.00, 205.7, 65.0)">8</text><text xml:space="preserve" font-family="IowanOldStyle-Roman" font-size="28.0" fill="#5C5C5C" transform="matrix(1.00, 0.00, -0.00, -1.00, 221.3, 65.0)"> </text><text xml:space="preserve" font-family="IowanOldStyle-Roman" font-size="28.0" fill="#5C5C5C" transform="matrix(1.00, 0.00, -0.00, -1.00, 229.1, 65.0)">d</text><text xml:space="preserve" font-family="IowanOldStyle-Roman" font-size="28.0" fill="#5C5C5C" transform="matrix(1.00, 0.00, -0.00, -1.00, 244.8, 65.0)">e</text><text xml:space="preserve" font-family="IowanOldStyle-Roman" font-size="28.0" fill="#5C5C5C" transform="matrix(1.00, 0.00, -0.00, -1.00, 258.5, 65.0)">b</text><text xml:space="preserve" font-family="IowanOldStyle-Roman" font-size="28.0" fill="#5C5C5C" transform="matrix(1.00, 0.00, -0.00, -1.00, 274.1, 65.0)">u</text><text xml:space="preserve" font-family="IowanOldStyle-Roman" font-size="28.0" fill="#5C5C5C" transform="matrix(1.00, 0.00, -0.00, -1.00, 290.5, 65.0)">g</text><text xml:space="preserve" font-family="IowanOldStyle-Roman" font-size="28.0" fill="#5C5C5C" transform="matrix(1.00, 0.00, -0.00, -1.00, 305.0, 65.0)">g</text><text xml:space="preserve" font-family="IowanOldStyle-Roman" font-size="28.0" fill="#5C5C5C" transform="matrix(1.00, 0.00, -0.00, -1.00, 319.4, 65.0)">i</text><text xml:space="preserve" font-family="IowanOldStyle-Roman" font-size="28.0" fill="#5C5C5C" transform="matrix(1.00, 0.00, -0.00, -1.00, 327.7, 65.0)">n</text><text xml:space="preserve" font-family="IowanOldStyle-Roman" font-size="28.0" fill="#5C5C5C" transform="matrix(1.00, 0.00, -0.00, -1.00, 344.1, 65.0)">g</text><text xml:space="preserve" font-family="IowanOldStyle-Roman" font-size="28.0" fill="#5C5C5C" transform="matrix(1.00, 0.00, -0.00, -1.00, 358.5, 65.0)"> </text><text xml:space="preserve" font-family="IowanOldStyle-Roman" font-size="28.0" fill="#5C5C5C" transform="matrix(1.00, 0.00, -0.00, -1.00, 366.3, 65.0)">a</text><text xml:space="preserve" font-family="IowanOldStyle-Roman" font-size="28.0" fill="#5C5C5C" transform="matrix(1.00, 0.00, -0.00, -1.00, 379.8, 65.0)">c</text><text xml:space="preserve" font-family="IowanOldStyle-Roman" font-size="28.0" fill="#5C5C5C" transform="matrix(1.00, 0.00, -0.00, -1.00, 392.3, 65.0)">c</text><text xml:space="preserve" font-family="IowanOldStyle-Roman" font-size="28.0" fill="#5C5C5C" transform="matrix(1.00, 0.00, -0.00, -1.00, 404.8, 65.0)">e</text><text xml:space="preserve" font-family="IowanOldStyle-Roman" font-size="28.0" fill="#5C5C5C" transform="matrix(1.00, 0.00, -0.00, -1.00, 418.4, 65.0)">s</text><text xml:space="preserve" font-family="IowanOldStyle-Roman" font-size="28.0" fill="#5C5C5C" transform="matrix(1.00, 0.00, -0.00, -1.00, 430.8, 65.0)">s</text><text xml:space="preserve" font-family="IowanOldStyle-Roman" font-size="28.0" fill="#5C5C5C" transform="matrix(1.00, 0.00, -0.00, -1.00, 443.2, 65.0)"> </text><text xml:space="preserve" font-family="ZapfDingbatsITC" font-size="21.0" fill="#5C5C5C" transform="matrix(1.00, 0.00, -0.00, -1.00, 77.0, 12.2)">➤</text><text xml:space="preserve" font-family="IowanOldStyle-Roman" font-size="28.0" fill="#5C5C5C" transform="matrix(1.00, 0.00, -0.00, -1.00, 109.0, 9.0)">h</text><text xml:space="preserve" font-family="IowanOldStyle-Roman" font-size="28.0" fill="#5C5C5C" transform="matrix(1.00, 0.00, -0.00, -1.00, 125.4, 9.0)">t</text><text xml:space="preserve" font-family="IowanOldStyle-Roman" font-size="28.0" fill="#5C5C5C" transform="matrix(1.00, 0.00, -0.00, -1.00, 135.5, 9.0)">t</text><text xml:space="preserve" font-family="IowanOldStyle-Roman" font-size="28.0" fill="#5C5C5C" transform="matrix(1.00, 0.00, -0.00, -1.00, 145.6, 9.0)">p</text><text xml:space="preserve" font-family="IowanOldStyle-Roman" font-size="28.0" fill="#5C5C5C" transform="matrix(1.00, 0.00, -0.00, -1.00, 161.2, 9.0)">s</text><text xml:space="preserve" font-family="IowanOldStyle-Roman" font-size="28.0" fill="#5C5C5C" transform="matrix(1.00, 0.00, -0.00, -1.00, 173.6, 9.0)">:</text><text xml:space="preserve" font-family="IowanOldStyle-Roman" font-size="28.0" fill="#5C5C5C" transform="matrix(1.00, 0.00, -0.00, -1.00, 181.4, 9.0)">/</text><text xml:space="preserve" font-family="IowanOldStyle-Roman" font-size="28.0" fill="#5C5C5C" transform="matrix(1.00, 0.00, -0.00, -1.00, 194.3, 9.0)">/</text><text xml:space="preserve" font-family="IowanOldStyle-Roman" font-size="28.0" fill="#5C5C5C" transform="matrix(1.00, 0.00, -0.00, -1.00, 207.2, 9.0)">m</text><text xml:space="preserve" font-family="IowanOldStyle-Roman" font-size="28.0" fill="#5C5C5C" transform="matrix(1.00, 0.00, -0.00, -1.00, 231.8, 9.0)">a</text><text xml:space="preserve" font-family="IowanOldStyle-Roman" font-size="28.0" fill="#5C5C5C" transform="matrix(1.00, 0.00, -0.00, -1.00, 245.3, 9.0)">t</text><text xml:space="preserve" font-family="IowanOldStyle-Roman" font-size="28.0" fill="#5C5C5C" transform="matrix(1.00, 0.00, -0.00, -1.00, 255.4, 9.0)">t</text><text xml:space="preserve" font-family="IowanOldStyle-Roman" font-size="28.0" fill="#5C5C5C" transform="matrix(1.00, 0.00, -0.00, -1.00, 265.5, 9.0)">d</text><text xml:space="preserve" font-family="IowanOldStyle-Roman" font-size="28.0" fill="#5C5C5C" transform="matrix(1.00, 0.00, -0.00, -1.00, 281.2, 9.0)">e</text><text xml:space="preserve" font-family="IowanOldStyle-Roman" font-size="28.0" fill="#5C5C5C" transform="matrix(1.00, 0.00, -0.00, -1.00, 294.8, 9.0)">s</text><text xml:space="preserve" font-family="IowanOldStyle-Roman" font-size="28.0" fill="#5C5C5C" transform="matrix(1.00, 0.00, -0.00, -1.00, 307.2, 9.0)">l</text><text xml:space="preserve" font-family="IowanOldStyle-Roman" font-size="28.0" fill="#5C5C5C" transform="matrix(1.00, 0.00, -0.00, -1.00, 315.4, 9.0)">.</text><text xml:space="preserve" font-family="IowanOldStyle-Roman" font-size="28.0" fill="#5C5C5C" transform="matrix(1.00, 0.00, -0.00, -1.00, 323.2, 9.0)">s</text><text xml:space="preserve" font-family="IowanOldStyle-Roman" font-size="28.0" fill="#5C5C5C" transform="matrix(1.00, 0.00, -0.00, -1.00, 335.6, 9.0)">v</text><text xml:space="preserve" font-family="IowanOldStyle-Roman" font-size="28.0" fill="#5C5C5C" transform="matrix(1.00, 0.00, -0.00, -1.00, 349.4, 9.0)">b</text><text xml:space="preserve" font-family="IowanOldStyle-Roman" font-size="28.0" fill="#5C5C5C" transform="matrix(1.00, 0.00, -0.00, -1.00, 364.9, 9.0)">t</text><text xml:space="preserve" font-family="IowanOldStyle-Roman" font-size="28.0" fill="#5C5C5C" transform="matrix(1.00, 0.00, -0.00, -1.00, 375.0, 9.0)">l</text><text xml:space="preserve" font-family="IowanOldStyle-Roman" font-size="28.0" fill="#5C5C5C" transform="matrix(1.00, 0.00, -0.00, -1.00, 383.2, 9.0)">e</text><text xml:space="preserve" font-family="IowanOldStyle-Roman" font-size="28.0" fill="#5C5C5C" transform="matrix(1.00, 0.00, -0.00, -1.00, 396.8, 9.0)">.</text><text xml:space="preserve" font-family="IowanOldStyle-Roman" font-size="28.0" fill="#5C5C5C" transform="matrix(1.00, 0.00, -0.00, -1.00, 404.6, 9.0)">c</text><text xml:space="preserve" font-family="IowanOldStyle-Roman" font-size="28.0" fill="#5C5C5C" transform="matrix(1.00, 0.00, -0.00, -1.00, 417.1, 9.0)">o</text><text xml:space="preserve" font-family="IowanOldStyle-Roman" font-size="28.0" fill="#5C5C5C" transform="matrix(1.00, 0.00, -0.00, -1.00, 432.5, 9.0)">m</text><text xml:space="preserve" font-family="IowanOldStyle-Roman" font-size="28.0" fill="#5C5C5C" transform="matrix(1.00, 0.00, -0.00, -1.00, 457.2, 9.0)">/</text><text xml:space="preserve" font-family="IowanOldStyle-Roman" font-size="28.0" fill="#5C5C5C" transform="matrix(1.00, 0.00, -0.00, -1.00, 470.1, 9.0)">d</text><text xml:space="preserve" font-family="IowanOldStyle-Roman" font-size="28.0" fill="#5C5C5C" transform="matrix(1.00, 0.00, -0.00, -1.00, 485.8, 9.0)">e</text><text xml:space="preserve" font-family="IowanOldStyle-Roman" font-size="28.0" fill="#5C5C5C" transform="matrix(1.00, 0.00, -0.00, -1.00, 499.5, 9.0)">b</text><text xml:space="preserve" font-family="IowanOldStyle-Roman" font-size="28.0" fill="#5C5C5C" transform="matrix(1.00, 0.00, -0.00, -1.00, 515.0, 9.0)">u</text><text xml:space="preserve" font-family="IowanOldStyle-Roman" font-size="28.0" fill="#5C5C5C" transform="matrix(1.00, 0.00, -0.00, -1.00, 531.5, 9.0)">g</text><text xml:space="preserve" font-family="IowanOldStyle-Roman" font-size="28.0" fill="#5C5C5C" transform="matrix(1.00, 0.00, -0.00, -1.00, 545.9, 9.0)">g</text><text xml:space="preserve" font-family="IowanOldStyle-Roman" font-size="28.0" fill="#5C5C5C" transform="matrix(1.00, 0.00, -0.00, -1.00, 560.4, 9.0)">i</text><text xml:space="preserve" font-family="IowanOldStyle-Roman" font-size="28.0" fill="#5C5C5C" transform="matrix(1.00, 0.00, -0.00, -1.00, 568.7, 9.0)">n</text><text xml:space="preserve" font-family="IowanOldStyle-Roman" font-size="28.0" fill="#5C5C5C" transform="matrix(1.00, 0.00, -0.00, -1.00, 585.1, 9.0)">g</text><text xml:space="preserve" font-family="IowanOldStyle-Roman" font-size="28.0" fill="#5C5C5C" transform="matrix(1.00, 0.00, -0.00, -1.00, 599.5, 9.0)">-</text><text xml:space="preserve" font-family="IowanOldStyle-Roman" font-size="28.0" fill="#5C5C5C" transform="matrix(1.00, 0.00, -0.00, -1.00, 609.3, 9.0)">n</text><text xml:space="preserve" font-family="IowanOldStyle-Roman" font-size="28.0" fill="#5C5C5C" transform="matrix(1.00, 0.00, -0.00, -1.00, 625.7, 9.0)">o</text><text xml:space="preserve" font-family="IowanOldStyle-Roman" font-size="28.0" fill="#5C5C5C" transform="matrix(1.00, 0.00, -0.00, -1.00, 641.1, 9.0)">d</text><text xml:space="preserve" font-family="IowanOldStyle-Roman" font-size="28.0" fill="#5C5C5C" transform="matrix(1.00, 0.00, -0.00, -1.00, 656.8, 9.0)">e</text><text xml:space="preserve" font-family="IowanOldStyle-Roman" font-size="28.0" fill="#5C5C5C" transform="matrix(1.00, 0.00, -0.00, -1.00, 670.5, 9.0)">j</text><text xml:space="preserve" font-family="IowanOldStyle-Roman" font-size="28.0" fill="#5C5C5C" transform="matrix(1.00, 0.00, -0.00, -1.00, 678.1, 9.0)">s</text><text xml:space="preserve" font-family="IowanOldStyle-Roman" font-size="28.0" fill="#5C5C5C" transform="matrix(1.00, 0.00, -0.00, -1.00, 690.5, 9.0)">-</text><text xml:space="preserve" font-family="IowanOldStyle-Roman" font-size="28.0" fill="#5C5C5C" transform="matrix(1.00, 0.00, -0.00, -1.00, 700.3, 9.0)">i</text><text xml:space="preserve" font-family="IowanOldStyle-Roman" font-size="28.0" fill="#5C5C5C" transform="matrix(1.00, 0.00, -0.00, -1.00, 708.7, 9.0)">n</text><text xml:space="preserve" font-family="IowanOldStyle-Roman" font-size="28.0" fill="#5C5C5C" transform="matrix(1.00, 0.00, -0.00, -1.00, 725.0, 9.0)">-</text><text xml:space="preserve" font-family="IowanOldStyle-Roman" font-size="28.0" fill="#5C5C5C" transform="matrix(1.00, 0.00, -0.00, -1.00, 734.8, 9.0)">c</text><text xml:space="preserve" font-family="IowanOldStyle-Roman" font-size="28.0" fill="#5C5C5C" transform="matrix(1.00, 0.00, -0.00, -1.00, 747.3, 9.0)">h</text><text xml:space="preserve" font-family="IowanOldStyle-Roman" font-size="28.0" fill="#5C5C5C" transform="matrix(1.00, 0.00, -0.00, -1.00, 763.7, 9.0)">r</text><text xml:space="preserve" font-family="IowanOldStyle-Roman" font-size="28.0" fill="#5C5C5C" transform="matrix(1.00, 0.00, -0.00, -1.00, 774.6, 9.0)">o</text><text xml:space="preserve" font-family="IowanOldStyle-Roman" font-size="28.0" fill="#5C5C5C" transform="matrix(1.00, 0.00, -0.00, -1.00, 790.1, 9.0)">m</text><text xml:space="preserve" font-family="IowanOldStyle-Roman" font-size="28.0" fill="#5C5C5C" transform="matrix(1.00, 0.00, -0.00, -1.00, 814.7, 9.0)">e</text><text xml:space="preserve" font-family="IowanOldStyle-Roman" font-size="28.0" fill="#5C5C5C" transform="matrix(1.00, 0.00, -0.00, -1.00, 828.3, 9.0)">-</text><text xml:space="preserve" font-family="IowanOldStyle-Roman" font-size="28.0" fill="#5C5C5C" transform="matrix(1.00, 0.00, -0.00, -1.00, 838.2, 9.0)">d</text><text xml:space="preserve" font-family="IowanOldStyle-Roman" font-size="28.0" fill="#5C5C5C" transform="matrix(1.00, 0.00, -0.00, -1.00, 853.9, 9.0)">e</text><text xml:space="preserve" font-family="IowanOldStyle-Roman" font-size="28.0" fill="#5C5C5C" transform="matrix(1.00, 0.00, -0.00, -1.00, 867.5, 9.0)">v</text><text xml:space="preserve" font-family="IowanOldStyle-Roman" font-size="28.0" fill="#5C5C5C" transform="matrix(1.00, 0.00, -0.00, -1.00, 881.3, 9.0)">t</text><text xml:space="preserve" font-family="IowanOldStyle-Roman" font-size="28.0" fill="#5C5C5C" transform="matrix(1.00, 0.00, -0.00, -1.00, 891.4, 9.0)">o</text><text xml:space="preserve" font-family="IowanOldStyle-Roman" font-size="28.0" fill="#5C5C5C" transform="matrix(1.00, 0.00, -0.00, -1.00, 906.8, 9.0)">o</text><text xml:space="preserve" font-family="IowanOldStyle-Roman" font-size="28.0" fill="#5C5C5C" transform="matrix(1.00, 0.00, -0.00, -1.00, 922.2, 9.0)">l</text><text xml:space="preserve" font-family="IowanOldStyle-Roman" font-size="28.0" fill="#5C5C5C" transform="matrix(1.00, 0.00, -0.00, -1.00, 930.4, 9.0)">s</text><g><clipPath id="clip-19"><path d="M 108.0 3.9 L 942.9 3.9 L 942.9 7.4 L 108.0 7.4 Z M 108.0 3.9 "></path></clipPath><g clip-path="url(#clip-19)"><path d="M 36.0 204.3 L 869.9 204.3 " fill="none" stroke="#5C5C5C" stroke-width="1.49" stroke-miterlimit="0.00" transform="matrix(1.00, 0.00, 0.00, -1.00, 73.0, 210.0)"></path></g></g><image xlink:href="89C6DF10B7CFC8A3F794A29F02E8B670.png" width="850.00" height="334.00" transform="matrix(1.13, 0.00, -0.00, -1.13, 32.0, 634.0)"></image></g></svg>