<?xml version="1.0" encoding="UTF-8" standalone="no"?><svg xmlns="http://www.w3.org/2000/svg" xmlns:xlink="http://www.w3.org/1999/xlink" clip-rule="evenodd" stroke-miterlimit="4.00" viewBox="0 0 1920 1080"><desc>SVG generated by Keynote</desc><defs></defs><g transform="matrix(1.00, 0.00, -0.00, -1.00, 0.0, 1080.0)"><path d="M 0.0 1080.0 L 1920.0 1080.0 L 1920.0 0.0 L 0.0 0.0 Z M 0.0 1080.0 " fill="#EEEDED"></path><path d="M 0.0 0.0 L 1836.0 0.0 " fill="none" stroke="#000000" stroke-width="2.00" transform="matrix(1.00, 0.00, 0.00, -1.00, 41.0, 58.0)"></path><text xml:space="preserve" font-family="HelveticaNeue-Bold" font-weight="bold" font-size="23.0" fill="#000000" transform="matrix(1.00, 0.00, -0.00, -1.00, 61.0, 24.0)">S</text><text xml:space="preserve" font-family="HelveticaNeue-Bold" font-weight="bold" font-size="23.0" fill="#000000" transform="matrix(1.00, 0.00, -0.00, -1.00, 75.9, 24.0)">t</text><text xml:space="preserve" font-family="HelveticaNeue-Bold" font-weight="bold" font-size="23.0" fill="#000000" transform="matrix(1.00, 0.00, -0.00, -1.00, 84.0, 24.0)">r</text><text xml:space="preserve" font-family="HelveticaNeue-Bold" font-weight="bold" font-size="23.0" fill="#000000" transform="matrix(1.00, 0.00, -0.00, -1.00, 93.0, 24.0)">a</text><text xml:space="preserve" font-family="HelveticaNeue-Bold" font-weight="bold" font-size="23.0" fill="#000000" transform="matrix(1.00, 0.00, -0.00, -1.00, 106.2, 24.0)">n</text><text xml:space="preserve" font-family="HelveticaNeue-Bold" font-weight="bold" font-size="23.0" fill="#000000" transform="matrix(1.00, 0.00, -0.00, -1.00, 119.8, 24.0)">g</text><text xml:space="preserve" font-family="HelveticaNeue-Bold" font-weight="bold" font-size="23.0" fill="#000000" transform="matrix(1.00, 0.00, -0.00, -1.00, 133.9, 24.0)">l</text><text xml:space="preserve" font-family="HelveticaNeue-Bold" font-weight="bold" font-size="23.0" fill="#000000" transform="matrix(1.00, 0.00, -0.00, -1.00, 139.8, 24.0)">i</text><text xml:space="preserve" font-family="HelveticaNeue-Bold" font-weight="bold" font-size="23.0" fill="#000000" transform="matrix(1.00, 0.00, -0.00, -1.00, 145.7, 24.0)">n</text><text xml:space="preserve" font-family="HelveticaNeue-Bold" font-weight="bold" font-size="23.0" fill="#000000" transform="matrix(1.00, 0.00, -0.00, -1.00, 159.4, 24.0)">g</text><text xml:space="preserve" font-family="HelveticaNeue-Bold" font-weight="bold" font-size="23.0" fill="#000000" transform="matrix(1.00, 0.00, -0.00, -1.00, 173.4, 24.0)"> </text><text xml:space="preserve" font-family="HelveticaNeue-Bold" font-weight="bold" font-size="23.0" fill="#000000" transform="matrix(1.00, 0.00, -0.00, -1.00, 179.8, 24.0)">M</text><text xml:space="preserve" font-family="HelveticaNeue-Bold" font-weight="bold" font-size="23.0" fill="#000000" transform="matrix(1.00, 0.00, -0.00, -1.00, 200.7, 24.0)">o</text><text xml:space="preserve" font-family="HelveticaNeue-Bold" font-weight="bold" font-size="23.0" fill="#000000" transform="matrix(1.00, 0.00, -0.00, -1.00, 214.7, 24.0)">n</text><text xml:space="preserve" font-family="HelveticaNeue-Bold" font-weight="bold" font-size="23.0" fill="#000000" transform="matrix(1.00, 0.00, -0.00, -1.00, 228.4, 24.0)">o</text><text xml:space="preserve" font-family="HelveticaNeue-Bold" font-weight="bold" font-size="23.0" fill="#000000" transform="matrix(1.00, 0.00, -0.00, -1.00, 242.4, 24.0)">l</text><text xml:space="preserve" font-family="HelveticaNeue-Bold" font-weight="bold" font-size="23.0" fill="#000000" transform="matrix(1.00, 0.00, -0.00, -1.00, 248.4, 24.0)">i</text><text xml:space="preserve" font-family="HelveticaNeue-Bold" font-weight="bold" font-size="23.0" fill="#000000" transform="matrix(1.00, 0.00, -0.00, -1.00, 254.3, 24.0)">t</text><text xml:space="preserve" font-family="HelveticaNeue-Bold" font-weight="bold" font-size="23.0" fill="#000000" transform="matrix(1.00, 0.00, -0.00, -1.00, 262.4, 24.0)">h</text><text xml:space="preserve" font-family="HelveticaNeue-Bold" font-weight="bold" font-size="23.0" fill="#000000" transform="matrix(1.00, 0.00, -0.00, -1.00, 276.0, 24.0)">s</text><image xlink:href="../../D0517147-4847-4A0F-8B98-32B995C105A1/assets/0BF8E63FE00997E10C4EC11A1CFD77DD.png" width="97.00" height="27.00" transform="matrix(1.00, 0.00, -0.00, -1.00, 1751.0, 44.0)"></image><g><clipPath id="clip-45"><path d="M 1005.4 886.3 L 1920.0 886.3 L 1920.0 999.3 L 1005.4 999.3 Z M 1005.4 886.3 "></path></clipPath><g clip-path="url(#clip-45)"><text xml:space="preserve" font-family="HelveticaNeue-Bold" font-weight="bold" font-size="98.0" fill="#282828" transform="matrix(1.00, 0.00, -0.00, -1.00, 1035.0, 903.0)">B</text><text xml:space="preserve" font-family="HelveticaNeue-Bold" font-weight="bold" font-size="98.0" fill="#282828" transform="matrix(1.00, 0.00, -0.00, -1.00, 1104.0, 903.0)">i</text><text xml:space="preserve" font-family="HelveticaNeue-Bold" font-weight="bold" font-size="98.0" fill="#282828" transform="matrix(1.00, 0.00, -0.00, -1.00, 1129.3, 903.0)">t</text><text xml:space="preserve" font-family="HelveticaNeue-Bold" font-weight="bold" font-size="98.0" fill="#282828" transform="matrix(1.00, 0.00, -0.00, -1.00, 1163.8, 903.0)">e</text><text xml:space="preserve" font-family="HelveticaNeue-Bold" font-weight="bold" font-size="98.0" fill="#282828" transform="matrix(1.00, 0.00, -0.00, -1.00, 1220.0, 903.0)">s</text><text xml:space="preserve" font-family="HelveticaNeue-Bold" font-weight="bold" font-size="98.0" fill="#282828" transform="matrix(1.00, 0.00, -0.00, -1.00, 1272.7, 903.0)">i</text><text xml:space="preserve" font-family="HelveticaNeue-Bold" font-weight="bold" font-size="98.0" fill="#282828" transform="matrix(1.00, 0.00, -0.00, -1.00, 1297.9, 903.0)">z</text><text xml:space="preserve" font-family="HelveticaNeue-Bold" font-weight="bold" font-size="98.0" fill="#282828" transform="matrix(1.00, 0.00, -0.00, -1.00, 1348.8, 903.0)">e</text><text xml:space="preserve" font-family="HelveticaNeue-Bold" font-weight="bold" font-size="98.0" fill="#282828" transform="matrix(1.00, 0.00, -0.00, -1.00, 1405.0, 903.0)"> </text><text xml:space="preserve" font-family="HelveticaNeue-Bold" font-weight="bold" font-size="98.0" fill="#282828" transform="matrix(1.00, 0.00, -0.00, -1.00, 1432.3, 903.0)">w</text><text xml:space="preserve" font-family="HelveticaNeue-Bold" font-weight="bold" font-size="98.0" fill="#282828" transform="matrix(1.00, 0.00, -0.00, -1.00, 1512.1, 903.0)">e</text><text xml:space="preserve" font-family="HelveticaNeue-Bold" font-weight="bold" font-size="98.0" fill="#282828" transform="matrix(1.00, 0.00, -0.00, -1.00, 1568.3, 903.0)">b</text><text xml:space="preserve" font-family="HelveticaNeue-Bold" font-weight="bold" font-size="98.0" fill="#282828" transform="matrix(1.00, 0.00, -0.00, -1.00, 1628.2, 903.0)">s</text><text xml:space="preserve" font-family="HelveticaNeue-Bold" font-weight="bold" font-size="98.0" fill="#282828" transform="matrix(1.00, 0.00, -0.00, -1.00, 1680.8, 903.0)">i</text><text xml:space="preserve" font-family="HelveticaNeue-Bold" font-weight="bold" font-size="98.0" fill="#282828" transform="matrix(1.00, 0.00, -0.00, -1.00, 1706.1, 903.0)">t</text><text xml:space="preserve" font-family="HelveticaNeue-Bold" font-weight="bold" font-size="98.0" fill="#282828" transform="matrix(1.00, 0.00, -0.00, -1.00, 1740.6, 903.0)">e</text></g></g><g><clipPath id="clip-46"><path d="M 303.0 86.0 L 991.6 86.0 L 991.6 951.7 L 303.0 951.7 Z M 303.0 86.0 "></path></clipPath><g clip-path="url(#clip-46)"><path d="M 526.6 592.4 L 810.7 592.4 C 815.6 592.4 819.6 588.4 819.6 583.5 L 819.6 98.4 C 819.6 93.5 815.6 89.5 810.7 89.5 L 526.6 89.5 C 521.7 89.5 517.8 93.5 517.8 98.4 L 517.8 583.5 C 517.8 588.4 521.7 592.4 526.6 592.4 Z M 526.6 592.4 " fill="#FEFFFF"></path><path d="M 232.3 246.6 L 391.9 246.6 C 394.6 246.6 396.9 248.9 397.3 251.6 L 397.3 525.1 C 396.9 527.8 394.6 530.1 391.9 530.6 L 231.8 530.6 C 229.0 530.1 226.8 527.8 227.3 525.1 L 227.3 251.6 C 226.8 248.9 229.0 246.6 232.3 246.6 Z M 232.3 246.6 " fill="none" stroke="#236FB9" stroke-width="1.00" stroke-miterlimit="0.00" stroke-linecap="round" stroke-linejoin="round" transform="matrix(1.77, 0.00, 0.00, -1.77, 115.3, 1029.9)"></path><path d="M 577.0 526.2 L 765.5 526.2 C 770.4 526.2 774.3 522.2 774.3 517.3 L 774.3 434.5 C 774.3 429.6 770.4 425.6 765.5 425.6 L 577.0 425.6 C 572.1 425.6 568.1 429.6 568.1 434.5 L 568.1 517.3 C 568.1 522.2 572.1 526.2 577.0 526.2 Z M 577.0 526.2 " fill="#00FCFF"></path><path d="M 260.3 284.6 L 366.3 284.6 C 369.1 284.0 371.3 286.2 371.3 289.0 L 371.3 335.7 C 371.3 338.4 369.1 340.7 366.3 340.6 L 260.1 340.6 C 257.4 340.7 255.1 338.4 255.3 335.7 L 255.3 289.0 C 255.1 286.2 257.4 284.0 260.3 284.6 Z M 260.3 284.6 " fill="none" stroke="#000000" stroke-width="1.00" stroke-miterlimit="0.00" stroke-linecap="round" stroke-linejoin="round" transform="matrix(1.77, 0.00, 0.00, -1.77, 115.3, 1029.9)"></path><text xml:space="preserve" font-family="Helvetica" font-size="12.0" fill="#000000" transform="matrix(1.77, 0.00, -0.00, -1.77, 630.4, 468.8)">F</text><text xml:space="preserve" font-family="Helvetica" font-size="12.0" fill="#000000" transform="matrix(1.77, 0.00, -0.00, -1.77, 643.4, 468.8)">e</text><text xml:space="preserve" font-family="Helvetica" font-size="12.0" fill="#000000" transform="matrix(1.77, 0.00, -0.00, -1.77, 655.2, 468.8)">t</text><text xml:space="preserve" font-family="Helvetica" font-size="12.0" fill="#000000" transform="matrix(1.77, 0.00, -0.00, -1.77, 661.1, 468.8)">c</text><text xml:space="preserve" font-family="Helvetica" font-size="12.0" fill="#000000" transform="matrix(1.77, 0.00, -0.00, -1.77, 671.8, 468.8)">h</text><text xml:space="preserve" font-family="Helvetica" font-size="12.0" fill="#000000" transform="matrix(1.77, 0.00, -0.00, -1.77, 683.6, 468.8)">i</text><text xml:space="preserve" font-family="Helvetica" font-size="12.0" fill="#000000" transform="matrix(1.77, 0.00, -0.00, -1.77, 688.4, 468.8)">n</text><text xml:space="preserve" font-family="Helvetica" font-size="12.0" fill="#000000" transform="matrix(1.77, 0.00, -0.00, -1.77, 700.2, 468.8)">g</text><path d="M 577.0 420.6 L 765.5 420.6 C 770.4 420.6 774.3 416.6 774.3 411.7 L 774.3 328.9 C 774.3 324.0 770.4 320.0 765.5 320.0 L 577.0 320.0 C 572.1 320.0 568.1 324.0 568.1 328.9 L 568.1 411.7 C 568.1 416.6 572.1 420.6 577.0 420.6 Z M 577.0 420.6 " fill="#FF89D8"></path><path d="M 260.3 343.6 L 366.3 343.6 C 369.1 343.5 371.3 345.7 371.3 348.5 L 371.3 395.2 C 371.3 397.9 369.1 400.2 366.3 400.6 L 260.1 400.6 C 257.4 400.2 255.1 397.9 255.3 395.2 L 255.3 348.5 C 255.1 345.7 257.4 343.5 260.3 343.6 Z M 260.3 343.6 " fill="none" stroke="#000000" stroke-width="1.00" stroke-miterlimit="0.00" stroke-linecap="round" stroke-linejoin="round" transform="matrix(1.77, 0.00, 0.00, -1.77, 115.3, 1029.9)"></path><text xml:space="preserve" font-family="Helvetica" font-size="12.0" fill="#000000" transform="matrix(1.77, 0.00, -0.00, -1.77, 619.7, 363.2)">A</text><text xml:space="preserve" font-family="Helvetica" font-size="12.0" fill="#000000" transform="matrix(1.77, 0.00, -0.00, -1.77, 633.9, 363.2)">g</text><text xml:space="preserve" font-family="Helvetica" font-size="12.0" fill="#000000" transform="matrix(1.77, 0.00, -0.00, -1.77, 645.8, 363.2)">r</text><text xml:space="preserve" font-family="Helvetica" font-size="12.0" fill="#000000" transform="matrix(1.77, 0.00, -0.00, -1.77, 652.9, 363.2)">e</text><text xml:space="preserve" font-family="Helvetica" font-size="12.0" fill="#000000" transform="matrix(1.77, 0.00, -0.00, -1.77, 664.7, 363.2)">g</text><text xml:space="preserve" font-family="Helvetica" font-size="12.0" fill="#000000" transform="matrix(1.77, 0.00, -0.00, -1.77, 676.5, 363.2)">a</text><text xml:space="preserve" font-family="Helvetica" font-size="12.0" fill="#000000" transform="matrix(1.77, 0.00, -0.00, -1.77, 688.4, 363.2)">t</text><text xml:space="preserve" font-family="Helvetica" font-size="12.0" fill="#000000" transform="matrix(1.77, 0.00, -0.00, -1.77, 694.3, 363.2)">i</text><text xml:space="preserve" font-family="Helvetica" font-size="12.0" fill="#000000" transform="matrix(1.77, 0.00, -0.00, -1.77, 699.0, 363.2)">o</text><text xml:space="preserve" font-family="Helvetica" font-size="12.0" fill="#000000" transform="matrix(1.77, 0.00, -0.00, -1.77, 710.9, 363.2)">n</text><path d="M 577.0 315.0 L 765.5 315.0 C 770.4 315.0 774.3 311.0 774.3 306.1 L 774.3 223.3 C 774.3 218.4 770.4 214.4 765.5 214.4 L 577.0 214.4 C 572.1 214.4 568.1 218.4 568.1 223.3 L 568.1 306.1 C 568.1 311.0 572.1 315.0 577.0 315.0 Z M 577.0 315.0 " fill="#D4FB78"></path><path d="M 260.3 403.6 L 366.3 403.6 C 369.1 403.0 371.3 405.3 371.3 408.0 L 371.3 454.7 C 371.3 457.5 369.1 459.7 366.3 459.6 L 260.1 459.6 C 257.4 459.7 255.1 457.5 255.3 454.7 L 255.3 408.0 C 255.1 405.3 257.4 403.0 260.3 403.6 Z M 260.3 403.6 " fill="none" stroke="#000000" stroke-width="1.00" stroke-miterlimit="0.00" stroke-linecap="round" stroke-linejoin="round" transform="matrix(1.77, 0.00, 0.00, -1.77, 115.3, 1029.9)"></path><text xml:space="preserve" font-family="Helvetica" font-size="12.0" fill="#000000" transform="matrix(1.77, 0.00, -0.00, -1.77, 600.0, 257.6)">T</text><text xml:space="preserve" font-family="Helvetica" font-size="12.0" fill="#000000" transform="matrix(1.77, 0.00, -0.00, -1.77, 612.2, 257.6)">r</text><text xml:space="preserve" font-family="Helvetica" font-size="12.0" fill="#000000" transform="matrix(1.77, 0.00, -0.00, -1.77, 619.3, 257.6)">a</text><text xml:space="preserve" font-family="Helvetica" font-size="12.0" fill="#000000" transform="matrix(1.77, 0.00, -0.00, -1.77, 631.2, 257.6)">n</text><text xml:space="preserve" font-family="Helvetica" font-size="12.0" fill="#000000" transform="matrix(1.77, 0.00, -0.00, -1.77, 643.0, 257.6)">s</text><text xml:space="preserve" font-family="Helvetica" font-size="12.0" fill="#000000" transform="matrix(1.77, 0.00, -0.00, -1.77, 653.7, 257.6)">f</text><text xml:space="preserve" font-family="Helvetica" font-size="12.0" fill="#000000" transform="matrix(1.77, 0.00, -0.00, -1.77, 659.6, 257.6)">o</text><text xml:space="preserve" font-family="Helvetica" font-size="12.0" fill="#000000" transform="matrix(1.77, 0.00, -0.00, -1.77, 671.4, 257.6)">r</text><text xml:space="preserve" font-family="Helvetica" font-size="12.0" fill="#000000" transform="matrix(1.77, 0.00, -0.00, -1.77, 678.5, 257.6)">m</text><text xml:space="preserve" font-family="Helvetica" font-size="12.0" fill="#000000" transform="matrix(1.77, 0.00, -0.00, -1.77, 696.3, 257.6)">a</text><text xml:space="preserve" font-family="Helvetica" font-size="12.0" fill="#000000" transform="matrix(1.77, 0.00, -0.00, -1.77, 708.1, 257.6)">t</text><text xml:space="preserve" font-family="Helvetica" font-size="12.0" fill="#000000" transform="matrix(1.77, 0.00, -0.00, -1.77, 714.0, 257.6)">i</text><text xml:space="preserve" font-family="Helvetica" font-size="12.0" fill="#000000" transform="matrix(1.77, 0.00, -0.00, -1.77, 718.7, 257.6)">o</text><text xml:space="preserve" font-family="Helvetica" font-size="12.0" fill="#000000" transform="matrix(1.77, 0.00, -0.00, -1.77, 730.6, 257.6)">n</text><path d="M 577.0 209.4 L 765.5 209.4 C 770.4 209.4 774.3 205.4 774.3 200.5 L 774.3 117.7 C 774.3 112.8 770.4 108.8 765.5 108.8 L 577.0 108.8 C 572.1 108.8 568.1 112.8 568.1 117.7 L 568.1 200.5 C 568.1 205.4 572.1 209.4 577.0 209.4 Z M 577.0 209.4 " fill="#FFD478"></path><path d="M 260.3 462.6 L 366.3 462.6 C 369.1 462.5 371.3 464.8 371.3 467.5 L 371.3 514.2 C 371.3 517.0 369.1 519.2 366.3 519.6 L 260.1 519.6 C 257.4 519.2 255.1 517.0 255.3 514.2 L 255.3 467.5 C 255.1 464.8 257.4 462.5 260.3 462.6 Z M 260.3 462.6 " fill="none" stroke="#000000" stroke-width="1.00" stroke-miterlimit="0.00" stroke-linecap="round" stroke-linejoin="round" transform="matrix(1.77, 0.00, 0.00, -1.77, 115.3, 1029.9)"></path><text xml:space="preserve" font-family="Helvetica" font-size="12.0" fill="#000000" transform="matrix(1.77, 0.00, -0.00, -1.77, 611.4, 152.0)">P</text><text xml:space="preserve" font-family="Helvetica" font-size="12.0" fill="#000000" transform="matrix(1.77, 0.00, -0.00, -1.77, 625.6, 152.0)">r</text><text xml:space="preserve" font-family="Helvetica" font-size="12.0" fill="#000000" transform="matrix(1.77, 0.00, -0.00, -1.77, 632.7, 152.0)">e</text><text xml:space="preserve" font-family="Helvetica" font-size="12.0" fill="#000000" transform="matrix(1.77, 0.00, -0.00, -1.77, 644.6, 152.0)">s</text><text xml:space="preserve" font-family="Helvetica" font-size="12.0" fill="#000000" transform="matrix(1.77, 0.00, -0.00, -1.77, 655.2, 152.0)">e</text><text xml:space="preserve" font-family="Helvetica" font-size="12.0" fill="#000000" transform="matrix(1.77, 0.00, -0.00, -1.77, 667.1, 152.0)">n</text><text xml:space="preserve" font-family="Helvetica" font-size="12.0" fill="#000000" transform="matrix(1.77, 0.00, -0.00, -1.77, 678.9, 152.0)">t</text><text xml:space="preserve" font-family="Helvetica" font-size="12.0" fill="#000000" transform="matrix(1.77, 0.00, -0.00, -1.77, 684.8, 152.0)">a</text><text xml:space="preserve" font-family="Helvetica" font-size="12.0" fill="#000000" transform="matrix(1.77, 0.00, -0.00, -1.77, 696.7, 152.0)">t</text><text xml:space="preserve" font-family="Helvetica" font-size="12.0" fill="#000000" transform="matrix(1.77, 0.00, -0.00, -1.77, 702.6, 152.0)">i</text><text xml:space="preserve" font-family="Helvetica" font-size="12.0" fill="#000000" transform="matrix(1.77, 0.00, -0.00, -1.77, 707.3, 152.0)">o</text><text xml:space="preserve" font-family="Helvetica" font-size="12.0" fill="#000000" transform="matrix(1.77, 0.00, -0.00, -1.77, 719.2, 152.0)">n</text><path d="M 387.0 823.7 L 387.0 904.2 C 387.0 909.7 408.4 914.3 434.8 914.3 C 461.1 914.3 482.6 909.7 482.6 904.2 L 482.6 823.7 C 482.6 818.2 461.1 813.7 434.8 813.7 C 408.4 813.7 387.0 818.2 387.0 823.7 " fill="#FEFFFF"></path><path d="M 153.3 116.2 L 153.3 70.9 C 153.1 67.7 165.1 65.2 180.0 65.2 C 194.9 65.2 206.9 67.7 207.3 70.9 L 207.3 116.2 C 206.9 119.3 194.9 121.9 180.0 121.9 C 165.1 121.9 153.1 119.3 153.1 116.2 M 153.1 70.9 C 153.1 74.0 165.1 76.5 180.0 76.5 C 194.9 76.5 206.9 74.0 206.9 70.9 " fill="none" stroke="#000000" stroke-width="1.00" stroke-miterlimit="0.00" stroke-linecap="round" stroke-linejoin="round" transform="matrix(1.77, 0.00, 0.00, -1.77, 115.3, 1029.9)"></path><text xml:space="preserve" font-family="Helvetica" font-size="12.0" fill="#000000" transform="matrix(1.77, 0.00, -0.00, -1.77, 414.0, 851.8)">i</text><text xml:space="preserve" font-family="Helvetica" font-size="12.0" fill="#000000" transform="matrix(1.77, 0.00, -0.00, -1.77, 418.8, 851.8)">S</text><text xml:space="preserve" font-family="Helvetica" font-size="12.0" fill="#000000" transform="matrix(1.77, 0.00, -0.00, -1.77, 433.0, 851.8)">i</text><text xml:space="preserve" font-family="Helvetica" font-size="12.0" fill="#000000" transform="matrix(1.77, 0.00, -0.00, -1.77, 437.7, 851.8)">t</text><text xml:space="preserve" font-family="Helvetica" font-size="12.0" fill="#000000" transform="matrix(1.77, 0.00, -0.00, -1.77, 443.6, 851.8)">e</text><path d="M 819.6 798.6 L 819.6 879.1 C 819.6 884.6 841.0 889.1 867.4 889.1 C 893.8 889.1 915.2 884.6 915.2 879.1 L 915.2 798.6 C 915.2 793.0 893.8 788.5 867.4 788.5 C 841.0 788.5 819.6 793.0 819.6 798.6 " fill="#FEFFFF"></path><path d="M 397.3 130.4 L 397.3 85.0 C 396.9 81.9 408.9 79.4 423.8 79.4 C 438.6 79.4 450.7 81.9 451.3 85.0 L 451.3 130.4 C 450.7 133.5 438.6 136.1 423.8 136.1 C 408.9 136.1 396.9 133.5 396.9 130.4 M 396.9 85.0 C 396.9 88.2 408.9 90.7 423.8 90.7 C 438.6 90.7 450.7 88.2 450.7 85.0 " fill="none" stroke="#000000" stroke-width="1.00" stroke-miterlimit="0.00" stroke-linecap="round" stroke-linejoin="round" transform="matrix(1.77, 0.00, 0.00, -1.77, 115.3, 1029.9)"></path><text xml:space="preserve" font-family="Helvetica" font-size="12.0" fill="#000000" transform="matrix(1.77, 0.00, -0.00, -1.77, 846.7, 826.7)">L</text><text xml:space="preserve" font-family="Helvetica" font-size="12.0" fill="#000000" transform="matrix(1.77, 0.00, -0.00, -1.77, 858.5, 826.7)">D</text><text xml:space="preserve" font-family="Helvetica" font-size="12.0" fill="#000000" transform="matrix(1.77, 0.00, -0.00, -1.77, 873.9, 826.7)">P</text><path d="M 992.6 675.8 L 992.6 671.3 C 992.6 668.4 990.2 666.0 987.3 666.0 L 987.3 670.5 C 990.2 670.5 992.6 672.9 992.6 675.8 Z M 992.6 675.8 " fill="#414341"></path><path d="M 992.6 675.8 L 992.6 671.3 C 992.6 671.1 992.6 670.8 992.5 670.6 L 992.5 675.0 C 992.6 675.3 992.6 675.5 992.6 675.8 Z M 992.6 675.8 " fill="#414341"></path><path d="M 992.5 675.0 L 992.5 670.6 C 992.5 670.3 992.4 670.0 992.3 669.7 L 992.3 674.2 C 992.4 674.4 992.5 674.7 992.5 675.0 Z M 992.5 675.0 " fill="#414341"></path><path d="M 992.3 674.2 L 992.3 669.7 C 992.2 669.4 992.1 669.1 991.9 668.8 L 991.9 673.2 C 992.1 673.5 992.2 673.8 992.3 674.2 Z M 992.3 674.2 " fill="#414341"></path><path d="M 991.9 673.2 L 991.9 668.8 C 991.0 667.1 989.3 666.0 987.3 666.0 L 987.3 670.5 C 989.3 670.5 991.0 671.6 991.9 673.2 Z M 991.9 673.2 " fill="#414341"></path><path d="M 989.5 671.4 L 987.3 666.0 L 925.6 666.0 L 924.1 671.6 Z M 989.5 671.4 " fill="#414341"></path><path d="M 925.6 670.5 L 925.6 666.0 C 922.6 666.0 920.2 668.4 920.2 671.3 L 920.2 675.8 C 920.2 672.9 922.6 670.5 925.6 670.5 Z M 925.6 670.5 " fill="#414341"></path><path d="M 925.6 670.5 L 925.6 666.0 C 922.6 666.0 920.2 668.4 920.2 671.3 L 920.2 675.8 C 920.2 672.9 922.6 670.5 925.6 670.5 Z M 925.6 670.5 " fill="#414341"></path><path d="M 987.3 765.1 C 990.2 765.1 992.6 762.7 992.6 759.8 L 992.6 675.8 C 992.6 672.9 990.2 670.5 987.3 670.5 L 925.6 670.5 C 922.6 670.5 920.2 672.9 920.2 675.8 L 920.2 759.8 C 920.2 762.7 922.6 765.1 925.6 765.1 Z M 987.3 765.1 " fill="#666967"></path><path d="M 931.4 751.4 L 981.5 751.4 L 981.5 745.5 L 931.4 745.5 Z M 931.4 741.0 L 981.5 741.0 L 981.5 735.1 L 931.4 735.1 Z M 931.4 731.0 L 981.5 731.0 L 981.5 725.2 L 931.4 725.2 Z M 931.4 731.0 " fill="#FFFEFE"></path><text xml:space="preserve" font-family="Helvetica" font-size="12.0" fill="#000000" transform="matrix(1.77, 0.00, -0.00, -1.77, 929.4, 631.8)">A</text><text xml:space="preserve" font-family="Helvetica" font-size="12.0" fill="#000000" transform="matrix(1.77, 0.00, -0.00, -1.77, 943.6, 631.8)">c</text><text xml:space="preserve" font-family="Helvetica" font-size="12.0" fill="#000000" transform="matrix(1.77, 0.00, -0.00, -1.77, 954.3, 631.8)">m</text><text xml:space="preserve" font-family="Helvetica" font-size="12.0" fill="#000000" transform="matrix(1.77, 0.00, -0.00, -1.77, 972.0, 631.8)">e</text><text xml:space="preserve" font-family="HelveticaNeue" font-size="16.0" fill="#000000" transform="matrix(1.77, 0.00, -0.00, -1.77, 572.4, 717.5)">D</text><text xml:space="preserve" font-family="HelveticaNeue" font-size="16.0" fill="#000000" transform="matrix(1.77, 0.00, -0.00, -1.77, 592.4, 717.5)">a</text><text xml:space="preserve" font-family="HelveticaNeue" font-size="16.0" fill="#000000" transform="matrix(1.77, 0.00, -0.00, -1.77, 607.6, 717.5)">t</text><text xml:space="preserve" font-family="HelveticaNeue" font-size="16.0" fill="#000000" transform="matrix(1.77, 0.00, -0.00, -1.77, 616.6, 717.5)">a</text><text xml:space="preserve" font-family="HelveticaNeue" font-size="16.0" fill="#000000" transform="matrix(1.77, 0.00, -0.00, -1.77, 631.8, 717.5)"> </text><text xml:space="preserve" font-family="HelveticaNeue" font-size="16.0" fill="#000000" transform="matrix(1.77, 0.00, -0.00, -1.77, 639.7, 717.5)">P</text><text xml:space="preserve" font-family="HelveticaNeue" font-size="16.0" fill="#000000" transform="matrix(1.77, 0.00, -0.00, -1.77, 658.1, 717.5)">r</text><text xml:space="preserve" font-family="HelveticaNeue" font-size="16.0" fill="#000000" transform="matrix(1.77, 0.00, -0.00, -1.77, 667.0, 717.5)">o</text><text xml:space="preserve" font-family="HelveticaNeue" font-size="16.0" fill="#000000" transform="matrix(1.77, 0.00, -0.00, -1.77, 683.3, 717.5)">v</text><text xml:space="preserve" font-family="HelveticaNeue" font-size="16.0" fill="#000000" transform="matrix(1.77, 0.00, -0.00, -1.77, 697.5, 717.5)">i</text><text xml:space="preserve" font-family="HelveticaNeue" font-size="16.0" fill="#000000" transform="matrix(1.77, 0.00, -0.00, -1.77, 703.9, 717.5)">d</text><text xml:space="preserve" font-family="HelveticaNeue" font-size="16.0" fill="#000000" transform="matrix(1.77, 0.00, -0.00, -1.77, 720.7, 717.5)">e</text><text xml:space="preserve" font-family="HelveticaNeue" font-size="16.0" fill="#000000" transform="matrix(1.77, 0.00, -0.00, -1.77, 735.9, 717.5)">r</text><text xml:space="preserve" font-family="HelveticaNeue" font-size="16.0" fill="#000000" transform="matrix(1.77, 0.00, -0.00, -1.77, 745.4, 717.5)">s</text><text xml:space="preserve" font-family="HelveticaNeue" font-size="16.0" fill="#000000" transform="matrix(1.77, 0.00, -0.00, -1.77, 611.3, 551.6)">B</text><text xml:space="preserve" font-family="HelveticaNeue" font-size="16.0" fill="#000000" transform="matrix(1.77, 0.00, -0.00, -1.77, 630.7, 551.6)">i</text><text xml:space="preserve" font-family="HelveticaNeue" font-size="16.0" fill="#000000" transform="matrix(1.77, 0.00, -0.00, -1.77, 637.0, 551.6)">t</text><text xml:space="preserve" font-family="HelveticaNeue" font-size="16.0" fill="#000000" transform="matrix(1.77, 0.00, -0.00, -1.77, 646.0, 551.6)">e</text><text xml:space="preserve" font-family="HelveticaNeue" font-size="16.0" fill="#000000" transform="matrix(1.77, 0.00, -0.00, -1.77, 661.2, 551.6)">s</text><text xml:space="preserve" font-family="HelveticaNeue" font-size="16.0" fill="#000000" transform="matrix(1.77, 0.00, -0.00, -1.77, 675.4, 551.6)">i</text><text xml:space="preserve" font-family="HelveticaNeue" font-size="16.0" fill="#000000" transform="matrix(1.77, 0.00, -0.00, -1.77, 681.7, 551.6)">z</text><text xml:space="preserve" font-family="HelveticaNeue" font-size="16.0" fill="#000000" transform="matrix(1.77, 0.00, -0.00, -1.77, 695.4, 551.6)">e</text><path d="M 169.6 185.0 L 311.8 240.9 L 401.9 133.7 " fill="none" stroke="#000000" stroke-width="1.00" stroke-miterlimit="0.00" stroke-linecap="round" transform="matrix(1.77, 0.00, 0.00, -1.77, 115.3, 1029.9)"></path><path d="M 202.9 119.2 L 311.8 240.9 " fill="none" stroke="#000000" stroke-width="1.00" stroke-miterlimit="0.00" stroke-linecap="round" transform="matrix(1.77, 0.00, 0.00, -1.77, 115.3, 1029.9)"></path><path d="M 453.5 185.2 L 311.8 240.9 " fill="none" stroke="#000000" stroke-width="1.00" stroke-miterlimit="0.00" stroke-linecap="round" transform="matrix(1.77, 0.00, 0.00, -1.77, 115.3, 1029.9)"></path><path d="M 618.4 858.9 L 618.4 939.4 C 618.4 944.9 639.8 949.5 666.2 949.5 C 692.6 949.5 714.0 944.9 714.0 939.4 L 714.0 858.9 C 714.0 853.4 692.6 848.9 666.2 848.9 C 639.8 848.9 618.4 853.4 618.4 858.9 " fill="#FEFFFF"></path><path d="M 283.3 96.4 L 283.3 51.0 C 283.5 47.9 295.5 45.4 310.4 45.4 C 325.3 45.4 337.3 47.9 337.3 51.0 L 337.3 96.4 C 337.3 99.5 325.3 102.0 310.4 102.0 C 295.5 102.0 283.5 99.5 283.5 96.4 M 283.5 51.0 C 283.5 54.2 295.5 56.7 310.4 56.7 C 325.3 56.7 337.3 54.2 337.3 51.0 " fill="none" stroke="#000000" stroke-width="1.00" stroke-miterlimit="0.00" stroke-linecap="round" stroke-linejoin="round" transform="matrix(1.77, 0.00, 0.00, -1.77, 115.3, 1029.9)"></path><text xml:space="preserve" font-family="Helvetica" font-size="12.0" fill="#000000" transform="matrix(1.77, 0.00, -0.00, -1.77, 643.7, 887.0)">N</text><text xml:space="preserve" font-family="Helvetica" font-size="12.0" fill="#000000" transform="matrix(1.77, 0.00, -0.00, -1.77, 659.1, 887.0)">i</text><text xml:space="preserve" font-family="Helvetica" font-size="12.0" fill="#000000" transform="matrix(1.77, 0.00, -0.00, -1.77, 663.8, 887.0)">t</text><text xml:space="preserve" font-family="Helvetica" font-size="12.0" fill="#000000" transform="matrix(1.77, 0.00, -0.00, -1.77, 669.7, 887.0)">r</text><text xml:space="preserve" font-family="Helvetica" font-size="12.0" fill="#000000" transform="matrix(1.77, 0.00, -0.00, -1.77, 676.8, 887.0)">o</text><path d="M 416.4 676.2 L 416.4 671.8 C 416.4 668.9 414.0 666.5 411.1 666.5 L 411.1 670.9 C 414.0 670.9 416.4 673.3 416.4 676.2 Z M 416.4 676.2 " fill="#414341"></path><path d="M 416.4 676.2 L 416.4 671.8 C 416.4 671.5 416.4 671.3 416.3 671.0 L 416.3 675.5 C 416.4 675.7 416.4 676.0 416.4 676.2 Z M 416.4 676.2 " fill="#414341"></path><path d="M 416.3 675.5 L 416.3 671.0 C 416.3 670.7 416.2 670.4 416.1 670.2 L 416.1 674.6 C 416.2 674.9 416.3 675.2 416.3 675.5 Z M 416.3 675.5 " fill="#414341"></path><path d="M 416.1 674.6 L 416.1 670.2 C 416.0 669.9 415.9 669.5 415.7 669.3 L 415.7 673.7 C 415.9 674.0 416.0 674.3 416.1 674.6 Z M 416.1 674.6 " fill="#414341"></path><path d="M 415.7 673.7 L 415.7 669.3 C 414.8 667.6 413.1 666.5 411.1 666.5 L 411.1 670.9 C 413.1 670.9 414.8 672.0 415.7 673.7 Z M 415.7 673.7 " fill="#414341"></path><path d="M 413.3 671.8 L 411.1 666.5 L 349.4 666.5 L 347.9 672.1 Z M 413.3 671.8 " fill="#414341"></path><path d="M 349.4 670.9 L 349.4 666.5 C 346.4 666.5 344.0 668.9 344.0 671.8 L 344.0 676.2 C 344.0 673.3 346.4 670.9 349.4 670.9 Z M 349.4 670.9 " fill="#414341"></path><path d="M 349.4 670.9 L 349.4 666.5 C 346.4 666.5 344.0 668.9 344.0 671.8 L 344.0 676.2 C 344.0 673.3 346.4 670.9 349.4 670.9 Z M 349.4 670.9 " fill="#414341"></path><path d="M 411.1 765.6 C 414.0 765.6 416.4 763.2 416.4 760.3 L 416.4 676.2 C 416.4 673.3 414.0 670.9 411.1 670.9 L 349.4 670.9 C 346.4 670.9 344.0 673.3 344.0 676.2 L 344.0 760.3 C 344.0 763.2 346.4 765.6 349.4 765.6 Z M 411.1 765.6 " fill="#666967"></path><path d="M 355.2 751.9 L 405.2 751.9 L 405.2 746.0 L 355.2 746.0 Z M 355.2 741.5 L 405.2 741.5 L 405.2 735.6 L 355.2 735.6 Z M 355.2 731.5 L 405.2 731.5 L 405.2 725.6 L 355.2 725.6 Z M 355.2 731.5 " fill="#FFFEFE"></path><text xml:space="preserve" font-family="Helvetica" font-size="12.0" fill="#000000" transform="matrix(1.77, 0.00, -0.00, -1.77, 312.7, 631.8)">E</text><text xml:space="preserve" font-family="Helvetica" font-size="12.0" fill="#000000" transform="matrix(1.77, 0.00, -0.00, -1.77, 326.9, 631.8)">q</text><text xml:space="preserve" font-family="Helvetica" font-size="12.0" fill="#000000" transform="matrix(1.77, 0.00, -0.00, -1.77, 338.8, 631.8)">u</text><text xml:space="preserve" font-family="Helvetica" font-size="12.0" fill="#000000" transform="matrix(1.77, 0.00, -0.00, -1.77, 350.6, 631.8)">a</text><text xml:space="preserve" font-family="Helvetica" font-size="12.0" fill="#000000" transform="matrix(1.77, 0.00, -0.00, -1.77, 362.5, 631.8)">t</text><text xml:space="preserve" font-family="Helvetica" font-size="12.0" fill="#000000" transform="matrix(1.77, 0.00, -0.00, -1.77, 368.4, 631.8)">i</text><text xml:space="preserve" font-family="Helvetica" font-size="12.0" fill="#000000" transform="matrix(1.77, 0.00, -0.00, -1.77, 373.1, 631.8)">o</text><text xml:space="preserve" font-family="Helvetica" font-size="12.0" fill="#000000" transform="matrix(1.77, 0.00, -0.00, -1.77, 385.0, 631.8)">n</text><text xml:space="preserve" font-family="Helvetica" font-size="12.0" fill="#000000" transform="matrix(1.77, 0.00, -0.00, -1.77, 396.8, 631.8)"> </text><text xml:space="preserve" font-family="Helvetica" font-size="12.0" fill="#000000" transform="matrix(1.77, 0.00, -0.00, -1.77, 402.7, 631.8)">C</text><text xml:space="preserve" font-family="Helvetica" font-size="12.0" fill="#000000" transform="matrix(1.77, 0.00, -0.00, -1.77, 418.1, 631.8)">h</text><text xml:space="preserve" font-family="Helvetica" font-size="12.0" fill="#000000" transform="matrix(1.77, 0.00, -0.00, -1.77, 430.0, 631.8)">e</text><text xml:space="preserve" font-family="Helvetica" font-size="12.0" fill="#000000" transform="matrix(1.77, 0.00, -0.00, -1.77, 441.8, 631.8)">f</text><path d="M 310.6 102.0 L 311.8 240.9 " fill="none" stroke="#000000" stroke-width="1.00" stroke-miterlimit="0.00" stroke-linecap="round" transform="matrix(1.77, 0.00, 0.00, -1.77, 115.3, 1029.9)"></path></g></g><image xlink:href="../../F8D06965-9BFA-4ED1-96DB-6D5D13BAB3EC/assets/26DC01D9BC1487D039E4A947B3DD967D.png" width="603.00" height="418.00" transform="matrix(1.00, 0.00, -0.00, -1.00, 1190.0, 550.0)"></image></g></svg>