<?xml version="1.0" encoding="UTF-8" standalone="no"?><svg xmlns="http://www.w3.org/2000/svg" xmlns:xlink="http://www.w3.org/1999/xlink" clip-rule="evenodd" stroke-miterlimit="4.00" viewBox="0 0 1024 768"><desc>SVG generated by Keynote</desc><defs></defs><g transform="matrix(1.00, 0.00, -0.00, -1.00, 0.0, 768.0)"><path d="M 0.0 768.0 L 1024.0 768.0 L 1024.0 0.0 L 0.0 0.0 Z M 0.0 768.0 " fill="#FFFFFF"></path><path d="M 0.0 0.0 L 425.0 0.0 " fill="none" stroke="#747676" stroke-width="3.00" stroke-linecap="round" stroke-linejoin="round" stroke-dasharray="0.0, 9.0" transform="matrix(1.00, 0.00, 0.00, -1.00, 553.0, 644.0)"></path><text xml:space="preserve" font-family="DINCondensed-Bold" font-weight="bold" font-size="48.4" fill="#747676" transform="matrix(1.00, 0.00, -0.00, -1.00, 557.0, 673.0)">I</text><text xml:space="preserve" font-family="DINCondensed-Bold" font-weight="bold" font-size="48.4" fill="#747676" transform="matrix(1.00, 0.00, -0.00, -1.00, 566.9, 673.0)">O</text><text xml:space="preserve" font-family="DINCondensed-Bold" font-weight="bold" font-size="48.4" fill="#747676" transform="matrix(1.00, 0.00, -0.00, -1.00, 586.9, 673.0)">T</text><text xml:space="preserve" font-family="DINCondensed-Bold" font-weight="bold" font-size="48.4" fill="#747676" transform="matrix(1.00, 0.00, -0.00, -1.00, 602.9, 673.0)"> </text><text xml:space="preserve" font-family="DINCondensed-Bold" font-weight="bold" font-size="48.4" fill="#747676" transform="matrix(1.00, 0.00, -0.00, -1.00, 611.9, 673.0)">W</text><text xml:space="preserve" font-family="DINCondensed-Bold" font-weight="bold" font-size="48.4" fill="#747676" transform="matrix(1.00, 0.00, -0.00, -1.00, 640.0, 673.0)">O</text><text xml:space="preserve" font-family="DINCondensed-Bold" font-weight="bold" font-size="48.4" fill="#747676" transform="matrix(1.00, 0.00, -0.00, -1.00, 660.6, 673.0)">R</text><text xml:space="preserve" font-family="DINCondensed-Bold" font-weight="bold" font-size="48.4" fill="#747676" transform="matrix(1.00, 0.00, -0.00, -1.00, 681.2, 673.0)">K</text><text xml:space="preserve" font-family="DINCondensed-Bold" font-weight="bold" font-size="48.4" fill="#747676" transform="matrix(1.00, 0.00, -0.00, -1.00, 701.8, 673.0)">S</text><text xml:space="preserve" font-family="DINCondensed-Bold" font-weight="bold" font-size="48.4" fill="#747676" transform="matrix(1.00, 0.00, -0.00, -1.00, 721.5, 673.0)">H</text><text xml:space="preserve" font-family="DINCondensed-Bold" font-weight="bold" font-size="48.4" fill="#747676" transform="matrix(1.00, 0.00, -0.00, -1.00, 742.1, 673.0)">O</text><text xml:space="preserve" font-family="DINCondensed-Bold" font-weight="bold" font-size="48.4" fill="#747676" transform="matrix(1.00, 0.00, -0.00, -1.00, 762.7, 673.0)">P</text><text xml:space="preserve" font-family="ZapfDingbatsITC" font-size="21.0" fill="#5C5C5C" transform="matrix(1.00, 0.00, -0.00, -1.00, 557.0, 596.2)">➤</text><text xml:space="preserve" font-family="IowanOldStyle-Roman" font-size="28.0" fill="#5C5C5C" transform="matrix(1.00, 0.00, -0.00, -1.00, 589.0, 593.0)">U</text><text xml:space="preserve" font-family="IowanOldStyle-Roman" font-size="28.0" fill="#5C5C5C" transform="matrix(1.00, 0.00, -0.00, -1.00, 611.0, 593.0)">s</text><text xml:space="preserve" font-family="IowanOldStyle-Roman" font-size="28.0" fill="#5C5C5C" transform="matrix(1.00, 0.00, -0.00, -1.00, 623.4, 593.0)">e</text><text xml:space="preserve" font-family="IowanOldStyle-Roman" font-size="28.0" fill="#5C5C5C" transform="matrix(1.00, 0.00, -0.00, -1.00, 637.1, 593.0)">d</text><text xml:space="preserve" font-family="IowanOldStyle-Roman" font-size="28.0" fill="#5C5C5C" transform="matrix(1.00, 0.00, -0.00, -1.00, 652.8, 593.0)"> </text><text xml:space="preserve" font-family="IowanOldStyle-Roman" font-size="28.0" fill="#5C5C5C" transform="matrix(1.00, 0.00, -0.00, -1.00, 660.6, 593.0)">V</text><text xml:space="preserve" font-family="IowanOldStyle-Roman" font-size="28.0" fill="#5C5C5C" transform="matrix(1.00, 0.00, -0.00, -1.00, 679.5, 593.0)">i</text><text xml:space="preserve" font-family="IowanOldStyle-Roman" font-size="28.0" fill="#5C5C5C" transform="matrix(1.00, 0.00, -0.00, -1.00, 687.8, 593.0)">s</text><text xml:space="preserve" font-family="IowanOldStyle-Roman" font-size="28.0" fill="#5C5C5C" transform="matrix(1.00, 0.00, -0.00, -1.00, 700.2, 593.0)">u</text><text xml:space="preserve" font-family="IowanOldStyle-Roman" font-size="28.0" fill="#5C5C5C" transform="matrix(1.00, 0.00, -0.00, -1.00, 716.7, 593.0)">a</text><text xml:space="preserve" font-family="IowanOldStyle-Roman" font-size="28.0" fill="#5C5C5C" transform="matrix(1.00, 0.00, -0.00, -1.00, 730.2, 593.0)">l</text><text xml:space="preserve" font-family="IowanOldStyle-Roman" font-size="28.0" fill="#5C5C5C" transform="matrix(1.00, 0.00, -0.00, -1.00, 738.3, 593.0)"> </text><text xml:space="preserve" font-family="IowanOldStyle-Roman" font-size="28.0" fill="#5C5C5C" transform="matrix(1.00, 0.00, -0.00, -1.00, 746.1, 593.0)">S</text><text xml:space="preserve" font-family="IowanOldStyle-Roman" font-size="28.0" fill="#5C5C5C" transform="matrix(1.00, 0.00, -0.00, -1.00, 761.3, 593.0)">t</text><text xml:space="preserve" font-family="IowanOldStyle-Roman" font-size="28.0" fill="#5C5C5C" transform="matrix(1.00, 0.00, -0.00, -1.00, 771.3, 593.0)">u</text><text xml:space="preserve" font-family="IowanOldStyle-Roman" font-size="28.0" fill="#5C5C5C" transform="matrix(1.00, 0.00, -0.00, -1.00, 787.8, 593.0)">d</text><text xml:space="preserve" font-family="IowanOldStyle-Roman" font-size="28.0" fill="#5C5C5C" transform="matrix(1.00, 0.00, -0.00, -1.00, 803.5, 593.0)">i</text><text xml:space="preserve" font-family="IowanOldStyle-Roman" font-size="28.0" fill="#5C5C5C" transform="matrix(1.00, 0.00, -0.00, -1.00, 811.8, 593.0)">o</text><text xml:space="preserve" font-family="IowanOldStyle-Roman" font-size="28.0" fill="#5C5C5C" transform="matrix(1.00, 0.00, -0.00, -1.00, 827.3, 593.0)"> </text><text xml:space="preserve" font-family="IowanOldStyle-Roman" font-size="28.0" fill="#5C5C5C" transform="matrix(1.00, 0.00, -0.00, -1.00, 835.0, 593.0)">C</text><text xml:space="preserve" font-family="IowanOldStyle-Roman" font-size="28.0" fill="#5C5C5C" transform="matrix(1.00, 0.00, -0.00, -1.00, 854.8, 593.0)">o</text><text xml:space="preserve" font-family="IowanOldStyle-Roman" font-size="28.0" fill="#5C5C5C" transform="matrix(1.00, 0.00, -0.00, -1.00, 870.2, 593.0)">d</text><text xml:space="preserve" font-family="IowanOldStyle-Roman" font-size="28.0" fill="#5C5C5C" transform="matrix(1.00, 0.00, -0.00, -1.00, 886.0, 593.0)">e</text><text xml:space="preserve" font-family="IowanOldStyle-Roman" font-size="28.0" fill="#5C5C5C" transform="matrix(1.00, 0.00, -0.00, -1.00, 899.6, 593.0)"> </text><text xml:space="preserve" font-family="ZapfDingbatsITC" font-size="21.0" fill="#5C5C5C" transform="matrix(1.00, 0.00, -0.00, -1.00, 557.0, 540.2)">➤</text><text xml:space="preserve" font-family="IowanOldStyle-Roman" font-size="28.0" fill="#5C5C5C" transform="matrix(1.00, 0.00, -0.00, -1.00, 589.0, 537.0)">D</text><text xml:space="preserve" font-family="IowanOldStyle-Roman" font-size="28.0" fill="#5C5C5C" transform="matrix(1.00, 0.00, -0.00, -1.00, 610.9, 537.0)">i</text><text xml:space="preserve" font-family="IowanOldStyle-Roman" font-size="28.0" fill="#5C5C5C" transform="matrix(1.00, 0.00, -0.00, -1.00, 619.2, 537.0)">d</text><text xml:space="preserve" font-family="IowanOldStyle-Roman" font-size="28.0" fill="#5C5C5C" transform="matrix(1.00, 0.00, -0.00, -1.00, 634.9, 537.0)">n</text><text xml:space="preserve" font-family="IowanOldStyle-Roman" font-size="28.0" fill="#5C5C5C" transform="matrix(1.00, 0.00, -0.00, -1.00, 651.3, 537.0)">’</text><text xml:space="preserve" font-family="IowanOldStyle-Roman" font-size="28.0" fill="#5C5C5C" transform="matrix(1.00, 0.00, -0.00, -1.00, 659.0, 537.0)">t</text><text xml:space="preserve" font-family="IowanOldStyle-Roman" font-size="28.0" fill="#5C5C5C" transform="matrix(1.00, 0.00, -0.00, -1.00, 669.1, 537.0)"> </text><text xml:space="preserve" font-family="IowanOldStyle-Roman" font-size="28.0" fill="#5C5C5C" transform="matrix(1.00, 0.00, -0.00, -1.00, 676.9, 537.0)">p</text><text xml:space="preserve" font-family="IowanOldStyle-Roman" font-size="28.0" fill="#5C5C5C" transform="matrix(1.00, 0.00, -0.00, -1.00, 692.6, 537.0)">l</text><text xml:space="preserve" font-family="IowanOldStyle-Roman" font-size="28.0" fill="#5C5C5C" transform="matrix(1.00, 0.00, -0.00, -1.00, 700.7, 537.0)">a</text><text xml:space="preserve" font-family="IowanOldStyle-Roman" font-size="28.0" fill="#5C5C5C" transform="matrix(1.00, 0.00, -0.00, -1.00, 714.2, 537.0)">y</text><text xml:space="preserve" font-family="IowanOldStyle-Roman" font-size="28.0" fill="#5C5C5C" transform="matrix(1.00, 0.00, -0.00, -1.00, 727.8, 537.0)"> </text><text xml:space="preserve" font-family="IowanOldStyle-Roman" font-size="28.0" fill="#5C5C5C" transform="matrix(1.00, 0.00, -0.00, -1.00, 735.6, 537.0)">w</text><text xml:space="preserve" font-family="IowanOldStyle-Roman" font-size="28.0" fill="#5C5C5C" transform="matrix(1.00, 0.00, -0.00, -1.00, 757.3, 537.0)">e</text><text xml:space="preserve" font-family="IowanOldStyle-Roman" font-size="28.0" fill="#5C5C5C" transform="matrix(1.00, 0.00, -0.00, -1.00, 770.9, 537.0)">l</text><text xml:space="preserve" font-family="IowanOldStyle-Roman" font-size="28.0" fill="#5C5C5C" transform="matrix(1.00, 0.00, -0.00, -1.00, 779.1, 537.0)">l</text><text xml:space="preserve" font-family="IowanOldStyle-Roman" font-size="28.0" fill="#5C5C5C" transform="matrix(1.00, 0.00, -0.00, -1.00, 787.3, 537.0)"> </text><text xml:space="preserve" font-family="IowanOldStyle-Roman" font-size="28.0" fill="#5C5C5C" transform="matrix(1.00, 0.00, -0.00, -1.00, 795.0, 537.0)">w</text><text xml:space="preserve" font-family="IowanOldStyle-Roman" font-size="28.0" fill="#5C5C5C" transform="matrix(1.00, 0.00, -0.00, -1.00, 816.7, 537.0)">i</text><text xml:space="preserve" font-family="IowanOldStyle-Roman" font-size="28.0" fill="#5C5C5C" transform="matrix(1.00, 0.00, -0.00, -1.00, 825.0, 537.0)">t</text><text xml:space="preserve" font-family="IowanOldStyle-Roman" font-size="28.0" fill="#5C5C5C" transform="matrix(1.00, 0.00, -0.00, -1.00, 835.1, 537.0)">h</text><text xml:space="preserve" font-family="IowanOldStyle-Roman" font-size="28.0" fill="#5C5C5C" transform="matrix(1.00, 0.00, -0.00, -1.00, 851.5, 537.0)"> </text><text xml:space="preserve" font-family="IowanOldStyle-Roman" font-size="28.0" fill="#5C5C5C" transform="matrix(1.00, 0.00, -0.00, -1.00, 859.3, 537.0)">P</text><text xml:space="preserve" font-family="IowanOldStyle-Roman" font-size="28.0" fill="#5C5C5C" transform="matrix(1.00, 0.00, -0.00, -1.00, 875.3, 537.0)">r</text><text xml:space="preserve" font-family="IowanOldStyle-Roman" font-size="28.0" fill="#5C5C5C" transform="matrix(1.00, 0.00, -0.00, -1.00, 886.2, 537.0)">o</text><text xml:space="preserve" font-family="IowanOldStyle-Roman" font-size="28.0" fill="#5C5C5C" transform="matrix(1.00, 0.00, -0.00, -1.00, 901.6, 537.0)">x</text><text xml:space="preserve" font-family="IowanOldStyle-Roman" font-size="28.0" fill="#5C5C5C" transform="matrix(1.00, 0.00, -0.00, -1.00, 916.5, 537.0)">y</text><text xml:space="preserve" font-family="IowanOldStyle-Roman" font-size="28.0" fill="#5C5C5C" transform="matrix(1.00, 0.00, -0.00, -1.00, 930.1, 537.0)"> </text><text xml:space="preserve" font-family="IowanOldStyle-Roman" font-size="28.0" fill="#5C5C5C" transform="matrix(1.00, 0.00, -0.00, -1.00, 589.0, 499.0)">s</text><text xml:space="preserve" font-family="IowanOldStyle-Roman" font-size="28.0" fill="#5C5C5C" transform="matrix(1.00, 0.00, -0.00, -1.00, 601.4, 499.0)">e</text><text xml:space="preserve" font-family="IowanOldStyle-Roman" font-size="28.0" fill="#5C5C5C" transform="matrix(1.00, 0.00, -0.00, -1.00, 615.1, 499.0)">t</text><text xml:space="preserve" font-family="IowanOldStyle-Roman" font-size="28.0" fill="#5C5C5C" transform="matrix(1.00, 0.00, -0.00, -1.00, 625.1, 499.0)">t</text><text xml:space="preserve" font-family="IowanOldStyle-Roman" font-size="28.0" fill="#5C5C5C" transform="matrix(1.00, 0.00, -0.00, -1.00, 635.2, 499.0)">i</text><text xml:space="preserve" font-family="IowanOldStyle-Roman" font-size="28.0" fill="#5C5C5C" transform="matrix(1.00, 0.00, -0.00, -1.00, 643.5, 499.0)">n</text><text xml:space="preserve" font-family="IowanOldStyle-Roman" font-size="28.0" fill="#5C5C5C" transform="matrix(1.00, 0.00, -0.00, -1.00, 659.9, 499.0)">g</text><text xml:space="preserve" font-family="IowanOldStyle-Roman" font-size="28.0" fill="#5C5C5C" transform="matrix(1.00, 0.00, -0.00, -1.00, 674.3, 499.0)">s</text><text xml:space="preserve" font-family="IowanOldStyle-Roman" font-size="28.0" fill="#5C5C5C" transform="matrix(1.00, 0.00, -0.00, -1.00, 686.7, 499.0)"> </text><text xml:space="preserve" font-family="IowanOldStyle-Roman" font-size="28.0" fill="#5C5C5C" transform="matrix(1.00, 0.00, -0.00, -1.00, 694.5, 499.0)">:</text><text xml:space="preserve" font-family="IowanOldStyle-Roman" font-size="28.0" fill="#5C5C5C" transform="matrix(1.00, 0.00, -0.00, -1.00, 702.3, 499.0)">(</text><text xml:space="preserve" font-family="IowanOldStyle-Roman" font-size="28.0" fill="#5C5C5C" transform="matrix(1.00, 0.00, -0.00, -1.00, 714.0, 499.0)"> </text><text xml:space="preserve" font-family="ZapfDingbatsITC" font-size="21.0" fill="#5C5C5C" transform="matrix(1.00, 0.00, -0.00, -1.00, 557.0, 446.2)">➤</text><text xml:space="preserve" font-family="IowanOldStyle-Roman" font-size="28.0" fill="#5C5C5C" transform="matrix(1.00, 0.00, -0.00, -1.00, 589.0, 443.0)">W</text><text xml:space="preserve" font-family="IowanOldStyle-Roman" font-size="28.0" fill="#5C5C5C" transform="matrix(1.00, 0.00, -0.00, -1.00, 615.6, 443.0)">o</text><text xml:space="preserve" font-family="IowanOldStyle-Roman" font-size="28.0" fill="#5C5C5C" transform="matrix(1.00, 0.00, -0.00, -1.00, 631.0, 443.0)">r</text><text xml:space="preserve" font-family="IowanOldStyle-Roman" font-size="28.0" fill="#5C5C5C" transform="matrix(1.00, 0.00, -0.00, -1.00, 642.0, 443.0)">k</text><text xml:space="preserve" font-family="IowanOldStyle-Roman" font-size="28.0" fill="#5C5C5C" transform="matrix(1.00, 0.00, -0.00, -1.00, 656.4, 443.0)">e</text><text xml:space="preserve" font-family="IowanOldStyle-Roman" font-size="28.0" fill="#5C5C5C" transform="matrix(1.00, 0.00, -0.00, -1.00, 670.0, 443.0)">d</text><text xml:space="preserve" font-family="IowanOldStyle-Roman" font-size="28.0" fill="#5C5C5C" transform="matrix(1.00, 0.00, -0.00, -1.00, 685.8, 443.0)"> </text><text xml:space="preserve" font-family="IowanOldStyle-Roman" font-size="28.0" fill="#5C5C5C" transform="matrix(1.00, 0.00, -0.00, -1.00, 693.5, 443.0)">w</text><text xml:space="preserve" font-family="IowanOldStyle-Roman" font-size="28.0" fill="#5C5C5C" transform="matrix(1.00, 0.00, -0.00, -1.00, 715.2, 443.0)">h</text><text xml:space="preserve" font-family="IowanOldStyle-Roman" font-size="28.0" fill="#5C5C5C" transform="matrix(1.00, 0.00, -0.00, -1.00, 731.6, 443.0)">e</text><text xml:space="preserve" font-family="IowanOldStyle-Roman" font-size="28.0" fill="#5C5C5C" transform="matrix(1.00, 0.00, -0.00, -1.00, 745.3, 443.0)">n</text><text xml:space="preserve" font-family="IowanOldStyle-Roman" font-size="28.0" fill="#5C5C5C" transform="matrix(1.00, 0.00, -0.00, -1.00, 761.6, 443.0)"> </text><text xml:space="preserve" font-family="IowanOldStyle-Roman" font-size="28.0" fill="#5C5C5C" transform="matrix(1.00, 0.00, -0.00, -1.00, 769.4, 443.0)">i</text><text xml:space="preserve" font-family="IowanOldStyle-Roman" font-size="28.0" fill="#5C5C5C" transform="matrix(1.00, 0.00, -0.00, -1.00, 777.7, 443.0)"> </text><text xml:space="preserve" font-family="IowanOldStyle-Roman" font-size="28.0" fill="#5C5C5C" transform="matrix(1.00, 0.00, -0.00, -1.00, 785.5, 443.0)">c</text><text xml:space="preserve" font-family="IowanOldStyle-Roman" font-size="28.0" fill="#5C5C5C" transform="matrix(1.00, 0.00, -0.00, -1.00, 798.0, 443.0)">o</text><text xml:space="preserve" font-family="IowanOldStyle-Roman" font-size="28.0" fill="#5C5C5C" transform="matrix(1.00, 0.00, -0.00, -1.00, 813.4, 443.0)">n</text><text xml:space="preserve" font-family="IowanOldStyle-Roman" font-size="28.0" fill="#5C5C5C" transform="matrix(1.00, 0.00, -0.00, -1.00, 829.8, 443.0)">n</text><text xml:space="preserve" font-family="IowanOldStyle-Roman" font-size="28.0" fill="#5C5C5C" transform="matrix(1.00, 0.00, -0.00, -1.00, 846.1, 443.0)">e</text><text xml:space="preserve" font-family="IowanOldStyle-Roman" font-size="28.0" fill="#5C5C5C" transform="matrix(1.00, 0.00, -0.00, -1.00, 859.8, 443.0)">c</text><text xml:space="preserve" font-family="IowanOldStyle-Roman" font-size="28.0" fill="#5C5C5C" transform="matrix(1.00, 0.00, -0.00, -1.00, 872.3, 443.0)">t</text><text xml:space="preserve" font-family="IowanOldStyle-Roman" font-size="28.0" fill="#5C5C5C" transform="matrix(1.00, 0.00, -0.00, -1.00, 882.3, 443.0)">e</text><text xml:space="preserve" font-family="IowanOldStyle-Roman" font-size="28.0" fill="#5C5C5C" transform="matrix(1.00, 0.00, -0.00, -1.00, 896.0, 443.0)">d</text><text xml:space="preserve" font-family="IowanOldStyle-Roman" font-size="28.0" fill="#5C5C5C" transform="matrix(1.00, 0.00, -0.00, -1.00, 911.7, 443.0)"> </text><text xml:space="preserve" font-family="IowanOldStyle-Roman" font-size="28.0" fill="#5C5C5C" transform="matrix(1.00, 0.00, -0.00, -1.00, 919.5, 443.0)">v</text><text xml:space="preserve" font-family="IowanOldStyle-Roman" font-size="28.0" fill="#5C5C5C" transform="matrix(1.00, 0.00, -0.00, -1.00, 933.3, 443.0)">i</text><text xml:space="preserve" font-family="IowanOldStyle-Roman" font-size="28.0" fill="#5C5C5C" transform="matrix(1.00, 0.00, -0.00, -1.00, 941.6, 443.0)">a</text><text xml:space="preserve" font-family="IowanOldStyle-Roman" font-size="28.0" fill="#5C5C5C" transform="matrix(1.00, 0.00, -0.00, -1.00, 955.0, 443.0)"> </text><text xml:space="preserve" font-family="IowanOldStyle-Roman" font-size="28.0" fill="#5C5C5C" transform="matrix(1.00, 0.00, -0.00, -1.00, 589.0, 405.0)">V</text><text xml:space="preserve" font-family="IowanOldStyle-Roman" font-size="28.0" fill="#5C5C5C" transform="matrix(1.00, 0.00, -0.00, -1.00, 609.1, 405.0)">P</text><text xml:space="preserve" font-family="IowanOldStyle-Roman" font-size="28.0" fill="#5C5C5C" transform="matrix(1.00, 0.00, -0.00, -1.00, 625.6, 405.0)">C</text><text xml:space="preserve" font-family="IowanOldStyle-Roman" font-size="28.0" fill="#5C5C5C" transform="matrix(1.00, 0.00, -0.00, -1.00, 645.3, 405.0)"> </text><text xml:space="preserve" font-family="IowanOldStyle-Roman" font-size="28.0" fill="#5C5C5C" transform="matrix(1.00, 0.00, -0.00, -1.00, 653.1, 405.0)">:</text><text xml:space="preserve" font-family="IowanOldStyle-Roman" font-size="28.0" fill="#5C5C5C" transform="matrix(1.00, 0.00, -0.00, -1.00, 660.9, 405.0)">)</text><text xml:space="preserve" font-family="IowanOldStyle-Roman" font-size="28.0" fill="#5C5C5C" transform="matrix(1.00, 0.00, -0.00, -1.00, 672.6, 405.0)"> </text><text xml:space="preserve" font-family="ZapfDingbatsITC" font-size="21.0" fill="#5C5C5C" transform="matrix(1.00, 0.00, -0.00, -1.00, 557.0, 352.2)">➤</text><text xml:space="preserve" font-family="IowanOldStyle-Roman" font-size="28.0" fill="#5C5C5C" transform="matrix(1.00, 0.00, -0.00, -1.00, 589.0, 349.0)">B</text><text xml:space="preserve" font-family="IowanOldStyle-Roman" font-size="28.0" fill="#5C5C5C" transform="matrix(1.00, 0.00, -0.00, -1.00, 606.4, 349.0)">u</text><text xml:space="preserve" font-family="IowanOldStyle-Roman" font-size="28.0" fill="#5C5C5C" transform="matrix(1.00, 0.00, -0.00, -1.00, 622.9, 349.0)">t</text><text xml:space="preserve" font-family="IowanOldStyle-Roman" font-size="28.0" fill="#5C5C5C" transform="matrix(1.00, 0.00, -0.00, -1.00, 633.0, 349.0)"> </text><text xml:space="preserve" font-family="IowanOldStyle-Roman" font-size="28.0" fill="#5C5C5C" transform="matrix(1.00, 0.00, -0.00, -1.00, 640.7, 349.0)">s</text><text xml:space="preserve" font-family="IowanOldStyle-Roman" font-size="28.0" fill="#5C5C5C" transform="matrix(1.00, 0.00, -0.00, -1.00, 653.1, 349.0)">t</text><text xml:space="preserve" font-family="IowanOldStyle-Roman" font-size="28.0" fill="#5C5C5C" transform="matrix(1.00, 0.00, -0.00, -1.00, 663.2, 349.0)">i</text><text xml:space="preserve" font-family="IowanOldStyle-Roman" font-size="28.0" fill="#5C5C5C" transform="matrix(1.00, 0.00, -0.00, -1.00, 671.5, 349.0)">l</text><text xml:space="preserve" font-family="IowanOldStyle-Roman" font-size="28.0" fill="#5C5C5C" transform="matrix(1.00, 0.00, -0.00, -1.00, 679.7, 349.0)">l</text><text xml:space="preserve" font-family="IowanOldStyle-Roman" font-size="28.0" fill="#5C5C5C" transform="matrix(1.00, 0.00, -0.00, -1.00, 687.9, 349.0)"> </text><text xml:space="preserve" font-family="IowanOldStyle-Roman" font-size="28.0" fill="#5C5C5C" transform="matrix(1.00, 0.00, -0.00, -1.00, 695.6, 349.0)">w</text><text xml:space="preserve" font-family="IowanOldStyle-Roman" font-size="28.0" fill="#5C5C5C" transform="matrix(1.00, 0.00, -0.00, -1.00, 717.3, 349.0)">o</text><text xml:space="preserve" font-family="IowanOldStyle-Roman" font-size="28.0" fill="#5C5C5C" transform="matrix(1.00, 0.00, -0.00, -1.00, 732.7, 349.0)">u</text><text xml:space="preserve" font-family="IowanOldStyle-Roman" font-size="28.0" fill="#5C5C5C" transform="matrix(1.00, 0.00, -0.00, -1.00, 749.2, 349.0)">l</text><text xml:space="preserve" font-family="IowanOldStyle-Roman" font-size="28.0" fill="#5C5C5C" transform="matrix(1.00, 0.00, -0.00, -1.00, 757.4, 349.0)">d</text><text xml:space="preserve" font-family="IowanOldStyle-Roman" font-size="28.0" fill="#5C5C5C" transform="matrix(1.00, 0.00, -0.00, -1.00, 773.1, 349.0)">n</text><text xml:space="preserve" font-family="IowanOldStyle-Roman" font-size="28.0" fill="#5C5C5C" transform="matrix(1.00, 0.00, -0.00, -1.00, 789.5, 349.0)">’</text><text xml:space="preserve" font-family="IowanOldStyle-Roman" font-size="28.0" fill="#5C5C5C" transform="matrix(1.00, 0.00, -0.00, -1.00, 797.2, 349.0)">t</text><text xml:space="preserve" font-family="IowanOldStyle-Roman" font-size="28.0" fill="#5C5C5C" transform="matrix(1.00, 0.00, -0.00, -1.00, 807.3, 349.0)"> </text><text xml:space="preserve" font-family="IowanOldStyle-Roman" font-size="28.0" fill="#5C5C5C" transform="matrix(1.00, 0.00, -0.00, -1.00, 815.1, 349.0)">l</text><text xml:space="preserve" font-family="IowanOldStyle-Roman" font-size="28.0" fill="#5C5C5C" transform="matrix(1.00, 0.00, -0.00, -1.00, 823.3, 349.0)">i</text><text xml:space="preserve" font-family="IowanOldStyle-Roman" font-size="28.0" fill="#5C5C5C" transform="matrix(1.00, 0.00, -0.00, -1.00, 831.6, 349.0)">g</text><text xml:space="preserve" font-family="IowanOldStyle-Roman" font-size="28.0" fill="#5C5C5C" transform="matrix(1.00, 0.00, -0.00, -1.00, 846.0, 349.0)">h</text><text xml:space="preserve" font-family="IowanOldStyle-Roman" font-size="28.0" fill="#5C5C5C" transform="matrix(1.00, 0.00, -0.00, -1.00, 862.4, 349.0)">t</text><text xml:space="preserve" font-family="IowanOldStyle-Roman" font-size="28.0" fill="#5C5C5C" transform="matrix(1.00, 0.00, -0.00, -1.00, 872.5, 349.0)"> </text><text xml:space="preserve" font-family="IowanOldStyle-Roman" font-size="28.0" fill="#5C5C5C" transform="matrix(1.00, 0.00, -0.00, -1.00, 880.3, 349.0)">u</text><text xml:space="preserve" font-family="IowanOldStyle-Roman" font-size="28.0" fill="#5C5C5C" transform="matrix(1.00, 0.00, -0.00, -1.00, 896.7, 349.0)">p</text><text xml:space="preserve" font-family="IowanOldStyle-Roman" font-size="28.0" fill="#5C5C5C" transform="matrix(1.00, 0.00, -0.00, -1.00, 912.4, 349.0)"> </text><text xml:space="preserve" font-family="IowanOldStyle-Roman" font-size="28.0" fill="#5C5C5C" transform="matrix(1.00, 0.00, -0.00, -1.00, 920.2, 349.0)">a</text><text xml:space="preserve" font-family="IowanOldStyle-Roman" font-size="28.0" fill="#5C5C5C" transform="matrix(1.00, 0.00, -0.00, -1.00, 933.7, 349.0)"> </text><text xml:space="preserve" font-family="IowanOldStyle-Roman" font-size="28.0" fill="#5C5C5C" transform="matrix(1.00, 0.00, -0.00, -1.00, 589.0, 311.0)">s</text><text xml:space="preserve" font-family="IowanOldStyle-Roman" font-size="28.0" fill="#5C5C5C" transform="matrix(1.00, 0.00, -0.00, -1.00, 601.4, 311.0)">t</text><text xml:space="preserve" font-family="IowanOldStyle-Roman" font-size="28.0" fill="#5C5C5C" transform="matrix(1.00, 0.00, -0.00, -1.00, 611.5, 311.0)">r</text><text xml:space="preserve" font-family="IowanOldStyle-Roman" font-size="28.0" fill="#5C5C5C" transform="matrix(1.00, 0.00, -0.00, -1.00, 622.4, 311.0)">i</text><text xml:space="preserve" font-family="IowanOldStyle-Roman" font-size="28.0" fill="#5C5C5C" transform="matrix(1.00, 0.00, -0.00, -1.00, 630.7, 311.0)">n</text><text xml:space="preserve" font-family="IowanOldStyle-Roman" font-size="28.0" fill="#5C5C5C" transform="matrix(1.00, 0.00, -0.00, -1.00, 647.1, 311.0)">g</text><text xml:space="preserve" font-family="IowanOldStyle-Roman" font-size="28.0" fill="#5C5C5C" transform="matrix(1.00, 0.00, -0.00, -1.00, 661.5, 311.0)"> </text><text xml:space="preserve" font-family="IowanOldStyle-Roman" font-size="28.0" fill="#5C5C5C" transform="matrix(1.00, 0.00, -0.00, -1.00, 669.3, 311.0)">o</text><text xml:space="preserve" font-family="IowanOldStyle-Roman" font-size="28.0" fill="#5C5C5C" transform="matrix(1.00, 0.00, -0.00, -1.00, 684.7, 311.0)">f</text><text xml:space="preserve" font-family="IowanOldStyle-Roman" font-size="28.0" fill="#5C5C5C" transform="matrix(1.00, 0.00, -0.00, -1.00, 693.7, 311.0)"> </text><text xml:space="preserve" font-family="IowanOldStyle-Roman" font-size="28.0" fill="#5C5C5C" transform="matrix(1.00, 0.00, -0.00, -1.00, 701.4, 311.0)">l</text><text xml:space="preserve" font-family="IowanOldStyle-Roman" font-size="28.0" fill="#5C5C5C" transform="matrix(1.00, 0.00, -0.00, -1.00, 709.6, 311.0)">i</text><text xml:space="preserve" font-family="IowanOldStyle-Roman" font-size="28.0" fill="#5C5C5C" transform="matrix(1.00, 0.00, -0.00, -1.00, 717.9, 311.0)">g</text><text xml:space="preserve" font-family="IowanOldStyle-Roman" font-size="28.0" fill="#5C5C5C" transform="matrix(1.00, 0.00, -0.00, -1.00, 732.4, 311.0)">h</text><text xml:space="preserve" font-family="IowanOldStyle-Roman" font-size="28.0" fill="#5C5C5C" transform="matrix(1.00, 0.00, -0.00, -1.00, 748.8, 311.0)">t</text><text xml:space="preserve" font-family="IowanOldStyle-Roman" font-size="28.0" fill="#5C5C5C" transform="matrix(1.00, 0.00, -0.00, -1.00, 758.8, 311.0)">s</text><text xml:space="preserve" font-family="IowanOldStyle-Roman" font-size="28.0" fill="#5C5C5C" transform="matrix(1.00, 0.00, -0.00, -1.00, 771.2, 311.0)"> </text><text xml:space="preserve" font-family="IowanOldStyle-Roman" font-size="28.0" fill="#5C5C5C" transform="matrix(1.00, 0.00, -0.00, -1.00, 779.0, 311.0)">:</text><text xml:space="preserve" font-family="IowanOldStyle-Roman" font-size="28.0" fill="#5C5C5C" transform="matrix(1.00, 0.00, -0.00, -1.00, 786.8, 311.0)">(</text><text xml:space="preserve" font-family="IowanOldStyle-Roman" font-size="28.0" fill="#5C5C5C" transform="matrix(1.00, 0.00, -0.00, -1.00, 798.5, 311.0)"> </text><text xml:space="preserve" font-family="ZapfDingbatsITC" font-size="21.0" fill="#5C5C5C" transform="matrix(1.00, 0.00, -0.00, -1.00, 557.0, 258.2)">➤</text><text xml:space="preserve" font-family="IowanOldStyle-Roman" font-size="28.0" fill="#5C5C5C" transform="matrix(1.00, 0.00, -0.00, -1.00, 589.0, 255.0)">c</text><text xml:space="preserve" font-family="IowanOldStyle-Roman" font-size="28.0" fill="#5C5C5C" transform="matrix(1.00, 0.00, -0.00, -1.00, 601.5, 255.0)">a</text><text xml:space="preserve" font-family="IowanOldStyle-Roman" font-size="28.0" fill="#5C5C5C" transform="matrix(1.00, 0.00, -0.00, -1.00, 615.0, 255.0)">n</text><text xml:space="preserve" font-family="IowanOldStyle-Roman" font-size="28.0" fill="#5C5C5C" transform="matrix(1.00, 0.00, -0.00, -1.00, 631.3, 255.0)"> </text><text xml:space="preserve" font-family="IowanOldStyle-Roman" font-size="28.0" fill="#5C5C5C" transform="matrix(1.00, 0.00, -0.00, -1.00, 639.1, 255.0)">w</text><text xml:space="preserve" font-family="IowanOldStyle-Roman" font-size="28.0" fill="#5C5C5C" transform="matrix(1.00, 0.00, -0.00, -1.00, 660.8, 255.0)">r</text><text xml:space="preserve" font-family="IowanOldStyle-Roman" font-size="28.0" fill="#5C5C5C" transform="matrix(1.00, 0.00, -0.00, -1.00, 671.7, 255.0)">i</text><text xml:space="preserve" font-family="IowanOldStyle-Roman" font-size="28.0" fill="#5C5C5C" transform="matrix(1.00, 0.00, -0.00, -1.00, 680.0, 255.0)">t</text><text xml:space="preserve" font-family="IowanOldStyle-Roman" font-size="28.0" fill="#5C5C5C" transform="matrix(1.00, 0.00, -0.00, -1.00, 690.1, 255.0)">e</text><text xml:space="preserve" font-family="IowanOldStyle-Roman" font-size="28.0" fill="#5C5C5C" transform="matrix(1.00, 0.00, -0.00, -1.00, 703.8, 255.0)"> </text><text xml:space="preserve" font-family="IowanOldStyle-Roman" font-size="28.0" fill="#5C5C5C" transform="matrix(1.00, 0.00, -0.00, -1.00, 711.5, 255.0)">c</text><text xml:space="preserve" font-family="IowanOldStyle-Roman" font-size="28.0" fill="#5C5C5C" transform="matrix(1.00, 0.00, -0.00, -1.00, 724.0, 255.0)">o</text><text xml:space="preserve" font-family="IowanOldStyle-Roman" font-size="28.0" fill="#5C5C5C" transform="matrix(1.00, 0.00, -0.00, -1.00, 739.4, 255.0)">d</text><text xml:space="preserve" font-family="IowanOldStyle-Roman" font-size="28.0" fill="#5C5C5C" transform="matrix(1.00, 0.00, -0.00, -1.00, 755.2, 255.0)">e</text><text xml:space="preserve" font-family="IowanOldStyle-Roman" font-size="28.0" fill="#5C5C5C" transform="matrix(1.00, 0.00, -0.00, -1.00, 768.8, 255.0)"> </text><text xml:space="preserve" font-family="IowanOldStyle-Roman" font-size="28.0" fill="#5C5C5C" transform="matrix(1.00, 0.00, -0.00, -1.00, 776.6, 255.0)">d</text><text xml:space="preserve" font-family="IowanOldStyle-Roman" font-size="28.0" fill="#5C5C5C" transform="matrix(1.00, 0.00, -0.00, -1.00, 792.3, 255.0)">i</text><text xml:space="preserve" font-family="IowanOldStyle-Roman" font-size="28.0" fill="#5C5C5C" transform="matrix(1.00, 0.00, -0.00, -1.00, 800.7, 255.0)">r</text><text xml:space="preserve" font-family="IowanOldStyle-Roman" font-size="28.0" fill="#5C5C5C" transform="matrix(1.00, 0.00, -0.00, -1.00, 811.6, 255.0)">e</text><text xml:space="preserve" font-family="IowanOldStyle-Roman" font-size="28.0" fill="#5C5C5C" transform="matrix(1.00, 0.00, -0.00, -1.00, 825.2, 255.0)">c</text><text xml:space="preserve" font-family="IowanOldStyle-Roman" font-size="28.0" fill="#5C5C5C" transform="matrix(1.00, 0.00, -0.00, -1.00, 837.7, 255.0)">t</text><text xml:space="preserve" font-family="IowanOldStyle-Roman" font-size="28.0" fill="#5C5C5C" transform="matrix(1.00, 0.00, -0.00, -1.00, 847.8, 255.0)">l</text><text xml:space="preserve" font-family="IowanOldStyle-Roman" font-size="28.0" fill="#5C5C5C" transform="matrix(1.00, 0.00, -0.00, -1.00, 856.0, 255.0)">y</text><text xml:space="preserve" font-family="IowanOldStyle-Roman" font-size="28.0" fill="#5C5C5C" transform="matrix(1.00, 0.00, -0.00, -1.00, 869.6, 255.0)"> </text><text xml:space="preserve" font-family="IowanOldStyle-Roman" font-size="28.0" fill="#5C5C5C" transform="matrix(1.00, 0.00, -0.00, -1.00, 877.4, 255.0)">t</text><text xml:space="preserve" font-family="IowanOldStyle-Roman" font-size="28.0" fill="#5C5C5C" transform="matrix(1.00, 0.00, -0.00, -1.00, 887.4, 255.0)">o</text><text xml:space="preserve" font-family="IowanOldStyle-Roman" font-size="28.0" fill="#5C5C5C" transform="matrix(1.00, 0.00, -0.00, -1.00, 902.8, 255.0)"> </text><text xml:space="preserve" font-family="IowanOldStyle-Roman" font-size="28.0" fill="#5C5C5C" transform="matrix(1.00, 0.00, -0.00, -1.00, 910.6, 255.0)">t</text><text xml:space="preserve" font-family="IowanOldStyle-Roman" font-size="28.0" fill="#5C5C5C" transform="matrix(1.00, 0.00, -0.00, -1.00, 920.7, 255.0)">h</text><text xml:space="preserve" font-family="IowanOldStyle-Roman" font-size="28.0" fill="#5C5C5C" transform="matrix(1.00, 0.00, -0.00, -1.00, 937.1, 255.0)">e</text><text xml:space="preserve" font-family="IowanOldStyle-Roman" font-size="28.0" fill="#5C5C5C" transform="matrix(1.00, 0.00, -0.00, -1.00, 950.8, 255.0)"> </text><text xml:space="preserve" font-family="IowanOldStyle-Roman" font-size="28.0" fill="#5C5C5C" transform="matrix(1.00, 0.00, -0.00, -1.00, 589.0, 217.0)">R</text><text xml:space="preserve" font-family="IowanOldStyle-Roman" font-size="28.0" fill="#5C5C5C" transform="matrix(1.00, 0.00, -0.00, -1.00, 608.2, 217.0)">a</text><text xml:space="preserve" font-family="IowanOldStyle-Roman" font-size="28.0" fill="#5C5C5C" transform="matrix(1.00, 0.00, -0.00, -1.00, 621.7, 217.0)">s</text><text xml:space="preserve" font-family="IowanOldStyle-Roman" font-size="28.0" fill="#5C5C5C" transform="matrix(1.00, 0.00, -0.00, -1.00, 634.1, 217.0)">p</text><text xml:space="preserve" font-family="IowanOldStyle-Roman" font-size="28.0" fill="#5C5C5C" transform="matrix(1.00, 0.00, -0.00, -1.00, 649.7, 217.0)">b</text><text xml:space="preserve" font-family="IowanOldStyle-Roman" font-size="28.0" fill="#5C5C5C" transform="matrix(1.00, 0.00, -0.00, -1.00, 665.3, 217.0)">e</text><text xml:space="preserve" font-family="IowanOldStyle-Roman" font-size="28.0" fill="#5C5C5C" transform="matrix(1.00, 0.00, -0.00, -1.00, 679.0, 217.0)">r</text><text xml:space="preserve" font-family="IowanOldStyle-Roman" font-size="28.0" fill="#5C5C5C" transform="matrix(1.00, 0.00, -0.00, -1.00, 689.9, 217.0)">r</text><text xml:space="preserve" font-family="IowanOldStyle-Roman" font-size="28.0" fill="#5C5C5C" transform="matrix(1.00, 0.00, -0.00, -1.00, 701.4, 217.0)">y</text><text xml:space="preserve" font-family="IowanOldStyle-Roman" font-size="28.0" fill="#5C5C5C" transform="matrix(1.00, 0.00, -0.00, -1.00, 714.9, 217.0)"> </text><text xml:space="preserve" font-family="IowanOldStyle-Roman" font-size="28.0" fill="#5C5C5C" transform="matrix(1.00, 0.00, -0.00, -1.00, 722.7, 217.0)">P</text><text xml:space="preserve" font-family="IowanOldStyle-Roman" font-size="28.0" fill="#5C5C5C" transform="matrix(1.00, 0.00, -0.00, -1.00, 739.2, 217.0)">i</text><text xml:space="preserve" font-family="IowanOldStyle-Roman" font-size="28.0" fill="#5C5C5C" transform="matrix(1.00, 0.00, -0.00, -1.00, 747.5, 217.0)"> </text><image xlink:href="../../12A196D9-8782-43BA-A2E5-1116EB7F36D0/assets/7B7393F44284EEDC7901D356370941C2.png" width="513.00" height="340.00" transform="matrix(1.00, 0.00, -0.00, -1.00, 29.0, 602.0)"></image></g></svg>