<?xml version="1.0" encoding="UTF-8" standalone="no"?><svg xmlns="http://www.w3.org/2000/svg" xmlns:xlink="http://www.w3.org/1999/xlink" clip-rule="evenodd" stroke-miterlimit="4.00" viewBox="0 0 1024 768"><desc>SVG generated by Keynote</desc><defs></defs><g transform="matrix(1.00, 0.00, -0.00, -1.00, 0.0, 768.0)"><path d="M 0.0 768.0 L 1024.0 768.0 L 1024.0 0.0 L 0.0 0.0 Z M 0.0 768.0 " fill="#FFFFFF"></path><text xml:space="preserve" font-family="Baskerville-SemiBold" font-weight="bold" font-size="210.0" fill="#E3E3E3" transform="matrix(1.00, 0.00, -0.00, -1.00, 44.0, 435.0)">“</text><text xml:space="preserve" font-family="IowanOldStyle-Roman" font-size="48.0" fill="#747675" transform="matrix(1.00, 0.00, -0.00, -1.00, 157.0, 447.0)">N</text><text xml:space="preserve" font-family="IowanOldStyle-Roman" font-size="48.0" fill="#747675" transform="matrix(1.00, 0.00, -0.00, -1.00, 195.8, 447.0)">o</text><text xml:space="preserve" font-family="IowanOldStyle-Roman" font-size="48.0" fill="#747675" transform="matrix(1.00, 0.00, -0.00, -1.00, 222.2, 447.0)">d</text><text xml:space="preserve" font-family="IowanOldStyle-Roman" font-size="48.0" fill="#747675" transform="matrix(1.00, 0.00, -0.00, -1.00, 249.2, 447.0)">e</text><text xml:space="preserve" font-family="IowanOldStyle-Roman" font-size="48.0" fill="#747675" transform="matrix(1.00, 0.00, -0.00, -1.00, 272.6, 447.0)">C</text><text xml:space="preserve" font-family="IowanOldStyle-Roman" font-size="48.0" fill="#747675" transform="matrix(1.00, 0.00, -0.00, -1.00, 306.5, 447.0)">o</text><text xml:space="preserve" font-family="IowanOldStyle-Roman" font-size="48.0" fill="#747675" transform="matrix(1.00, 0.00, -0.00, -1.00, 333.0, 447.0)">n</text><text xml:space="preserve" font-family="IowanOldStyle-Roman" font-size="48.0" fill="#747675" transform="matrix(1.00, 0.00, -0.00, -1.00, 361.0, 447.0)">f</text><text xml:space="preserve" font-family="IowanOldStyle-Roman" font-size="48.0" fill="#747675" transform="matrix(1.00, 0.00, -0.00, -1.00, 376.3, 447.0)"> </text><text xml:space="preserve" font-family="IowanOldStyle-Roman" font-size="48.0" fill="#747675" transform="matrix(1.00, 0.00, -0.00, -1.00, 389.7, 447.0)">E</text><text xml:space="preserve" font-family="IowanOldStyle-Roman" font-size="48.0" fill="#747675" transform="matrix(1.00, 0.00, -0.00, -1.00, 420.1, 447.0)">U</text><text xml:space="preserve" font-family="IowanOldStyle-Roman" font-size="48.0" fill="#747675" transform="matrix(1.00, 0.00, -0.00, -1.00, 457.9, 447.0)"> </text><text xml:space="preserve" font-family="IowanOldStyle-Roman" font-size="48.0" fill="#747675" transform="matrix(1.00, 0.00, -0.00, -1.00, 471.2, 447.0)">i</text><text xml:space="preserve" font-family="IowanOldStyle-Roman" font-size="48.0" fill="#747675" transform="matrix(1.00, 0.00, -0.00, -1.00, 485.4, 447.0)">s</text><text xml:space="preserve" font-family="IowanOldStyle-Roman" font-size="48.0" fill="#747675" transform="matrix(1.00, 0.00, -0.00, -1.00, 506.7, 447.0)"> </text><text xml:space="preserve" font-family="IowanOldStyle-Roman" font-size="48.0" fill="#747675" transform="matrix(1.00, 0.00, -0.00, -1.00, 520.0, 447.0)">T</text><text xml:space="preserve" font-family="IowanOldStyle-Roman" font-size="48.0" fill="#747675" transform="matrix(1.00, 0.00, -0.00, -1.00, 550.3, 447.0)">H</text><text xml:space="preserve" font-family="IowanOldStyle-Roman" font-size="48.0" fill="#747675" transform="matrix(1.00, 0.00, -0.00, -1.00, 588.4, 447.0)">E</text><text xml:space="preserve" font-family="IowanOldStyle-Roman" font-size="48.0" fill="#747675" transform="matrix(1.00, 0.00, -0.00, -1.00, 618.8, 447.0)"> </text><text xml:space="preserve" font-family="IowanOldStyle-Roman" font-size="48.0" fill="#747675" transform="matrix(1.00, 0.00, -0.00, -1.00, 632.1, 447.0)">n</text><text xml:space="preserve" font-family="IowanOldStyle-Roman" font-size="48.0" fill="#747675" transform="matrix(1.00, 0.00, -0.00, -1.00, 660.2, 447.0)">e</text><text xml:space="preserve" font-family="IowanOldStyle-Roman" font-size="48.0" fill="#747675" transform="matrix(1.00, 0.00, -0.00, -1.00, 683.6, 447.0)">t</text><text xml:space="preserve" font-family="IowanOldStyle-Roman" font-size="48.0" fill="#747675" transform="matrix(1.00, 0.00, -0.00, -1.00, 700.8, 447.0)">w</text><text xml:space="preserve" font-family="IowanOldStyle-Roman" font-size="48.0" fill="#747675" transform="matrix(1.00, 0.00, -0.00, -1.00, 738.0, 447.0)">o</text><text xml:space="preserve" font-family="IowanOldStyle-Roman" font-size="48.0" fill="#747675" transform="matrix(1.00, 0.00, -0.00, -1.00, 764.5, 447.0)">r</text><text xml:space="preserve" font-family="IowanOldStyle-Roman" font-size="48.0" fill="#747675" transform="matrix(1.00, 0.00, -0.00, -1.00, 783.2, 447.0)">k</text><text xml:space="preserve" font-family="IowanOldStyle-Roman" font-size="48.0" fill="#747675" transform="matrix(1.00, 0.00, -0.00, -1.00, 809.4, 447.0)">i</text><text xml:space="preserve" font-family="IowanOldStyle-Roman" font-size="48.0" fill="#747675" transform="matrix(1.00, 0.00, -0.00, -1.00, 823.6, 447.0)">n</text><text xml:space="preserve" font-family="IowanOldStyle-Roman" font-size="48.0" fill="#747675" transform="matrix(1.00, 0.00, -0.00, -1.00, 851.7, 447.0)">g</text><text xml:space="preserve" font-family="IowanOldStyle-Roman" font-size="48.0" fill="#747675" transform="matrix(1.00, 0.00, -0.00, -1.00, 876.4, 447.0)"> </text><text xml:space="preserve" font-family="IowanOldStyle-Roman" font-size="48.0" fill="#747675" transform="matrix(1.00, 0.00, -0.00, -1.00, 157.0, 381.0)">e</text><text xml:space="preserve" font-family="IowanOldStyle-Roman" font-size="48.0" fill="#747675" transform="matrix(1.00, 0.00, -0.00, -1.00, 180.4, 381.0)">v</text><text xml:space="preserve" font-family="IowanOldStyle-Roman" font-size="48.0" fill="#747675" transform="matrix(1.00, 0.00, -0.00, -1.00, 204.0, 381.0)">e</text><text xml:space="preserve" font-family="IowanOldStyle-Roman" font-size="48.0" fill="#747675" transform="matrix(1.00, 0.00, -0.00, -1.00, 227.4, 381.0)">n</text><text xml:space="preserve" font-family="IowanOldStyle-Roman" font-size="48.0" fill="#747675" transform="matrix(1.00, 0.00, -0.00, -1.00, 255.4, 381.0)">t</text><text xml:space="preserve" font-family="IowanOldStyle-Roman" font-size="48.0" fill="#747675" transform="matrix(1.00, 0.00, -0.00, -1.00, 272.7, 381.0)"> </text><text xml:space="preserve" font-family="IowanOldStyle-Roman" font-size="48.0" fill="#747675" transform="matrix(1.00, 0.00, -0.00, -1.00, 286.0, 381.0)">f</text><text xml:space="preserve" font-family="IowanOldStyle-Roman" font-size="48.0" fill="#747675" transform="matrix(1.00, 0.00, -0.00, -1.00, 301.4, 381.0)">o</text><text xml:space="preserve" font-family="IowanOldStyle-Roman" font-size="48.0" fill="#747675" transform="matrix(1.00, 0.00, -0.00, -1.00, 327.8, 381.0)">r</text><text xml:space="preserve" font-family="IowanOldStyle-Roman" font-size="48.0" fill="#747675" transform="matrix(1.00, 0.00, -0.00, -1.00, 346.5, 381.0)"> </text><text xml:space="preserve" font-family="IowanOldStyle-Roman" font-size="48.0" fill="#747675" transform="matrix(1.00, 0.00, -0.00, -1.00, 359.9, 381.0)">N</text><text xml:space="preserve" font-family="IowanOldStyle-Roman" font-size="48.0" fill="#747675" transform="matrix(1.00, 0.00, -0.00, -1.00, 398.6, 381.0)">o</text><text xml:space="preserve" font-family="IowanOldStyle-Roman" font-size="48.0" fill="#747675" transform="matrix(1.00, 0.00, -0.00, -1.00, 425.1, 381.0)">d</text><text xml:space="preserve" font-family="IowanOldStyle-Roman" font-size="48.0" fill="#747675" transform="matrix(1.00, 0.00, -0.00, -1.00, 452.0, 381.0)">e</text><text xml:space="preserve" font-family="IowanOldStyle-Roman" font-size="48.0" fill="#747675" transform="matrix(1.00, 0.00, -0.00, -1.00, 475.5, 381.0)">.</text><text xml:space="preserve" font-family="IowanOldStyle-Roman" font-size="48.0" fill="#747675" transform="matrix(1.00, 0.00, -0.00, -1.00, 488.8, 381.0)">j</text><text xml:space="preserve" font-family="IowanOldStyle-Roman" font-size="48.0" fill="#747675" transform="matrix(1.00, 0.00, -0.00, -1.00, 501.9, 381.0)">s</text><text xml:space="preserve" font-family="IowanOldStyle-Roman" font-size="48.0" fill="#747675" transform="matrix(1.00, 0.00, -0.00, -1.00, 523.2, 381.0)"> </text><text xml:space="preserve" font-family="IowanOldStyle-Roman" font-size="48.0" fill="#747675" transform="matrix(1.00, 0.00, -0.00, -1.00, 536.5, 381.0)">d</text><text xml:space="preserve" font-family="IowanOldStyle-Roman" font-size="48.0" fill="#747675" transform="matrix(1.00, 0.00, -0.00, -1.00, 563.5, 381.0)">e</text><text xml:space="preserve" font-family="IowanOldStyle-Roman" font-size="48.0" fill="#747675" transform="matrix(1.00, 0.00, -0.00, -1.00, 586.9, 381.0)">v</text><text xml:space="preserve" font-family="IowanOldStyle-Roman" font-size="48.0" fill="#747675" transform="matrix(1.00, 0.00, -0.00, -1.00, 610.5, 381.0)">e</text><text xml:space="preserve" font-family="IowanOldStyle-Roman" font-size="48.0" fill="#747675" transform="matrix(1.00, 0.00, -0.00, -1.00, 633.9, 381.0)">l</text><text xml:space="preserve" font-family="IowanOldStyle-Roman" font-size="48.0" fill="#747675" transform="matrix(1.00, 0.00, -0.00, -1.00, 647.9, 381.0)">o</text><text xml:space="preserve" font-family="IowanOldStyle-Roman" font-size="48.0" fill="#747675" transform="matrix(1.00, 0.00, -0.00, -1.00, 674.3, 381.0)">p</text><text xml:space="preserve" font-family="IowanOldStyle-Roman" font-size="48.0" fill="#747675" transform="matrix(1.00, 0.00, -0.00, -1.00, 701.2, 381.0)">e</text><text xml:space="preserve" font-family="IowanOldStyle-Roman" font-size="48.0" fill="#747675" transform="matrix(1.00, 0.00, -0.00, -1.00, 724.6, 381.0)">r</text><text xml:space="preserve" font-family="IowanOldStyle-Roman" font-size="48.0" fill="#747675" transform="matrix(1.00, 0.00, -0.00, -1.00, 743.3, 381.0)">s</text><text xml:space="preserve" font-family="IowanOldStyle-Roman" font-size="48.0" fill="#747675" transform="matrix(1.00, 0.00, -0.00, -1.00, 764.6, 381.0)">,</text><text xml:space="preserve" font-family="IowanOldStyle-Roman" font-size="48.0" fill="#747675" transform="matrix(1.00, 0.00, -0.00, -1.00, 777.9, 381.0)"> </text><text xml:space="preserve" font-family="IowanOldStyle-Roman" font-size="48.0" fill="#747675" transform="matrix(1.00, 0.00, -0.00, -1.00, 791.2, 381.0)">t</text><text xml:space="preserve" font-family="IowanOldStyle-Roman" font-size="48.0" fill="#747675" transform="matrix(1.00, 0.00, -0.00, -1.00, 808.5, 381.0)">e</text><text xml:space="preserve" font-family="IowanOldStyle-Roman" font-size="48.0" fill="#747675" transform="matrix(1.00, 0.00, -0.00, -1.00, 831.9, 381.0)">c</text><text xml:space="preserve" font-family="IowanOldStyle-Roman" font-size="48.0" fill="#747675" transform="matrix(1.00, 0.00, -0.00, -1.00, 853.4, 381.0)">h</text><text xml:space="preserve" font-family="IowanOldStyle-Roman" font-size="48.0" fill="#747675" transform="matrix(1.00, 0.00, -0.00, -1.00, 881.5, 381.0)"> </text><text xml:space="preserve" font-family="IowanOldStyle-Roman" font-size="48.0" fill="#747675" transform="matrix(1.00, 0.00, -0.00, -1.00, 157.0, 315.0)">m</text><text xml:space="preserve" font-family="IowanOldStyle-Roman" font-size="48.0" fill="#747675" transform="matrix(1.00, 0.00, -0.00, -1.00, 199.2, 315.0)">a</text><text xml:space="preserve" font-family="IowanOldStyle-Roman" font-size="48.0" fill="#747675" transform="matrix(1.00, 0.00, -0.00, -1.00, 222.3, 315.0)">n</text><text xml:space="preserve" font-family="IowanOldStyle-Roman" font-size="48.0" fill="#747675" transform="matrix(1.00, 0.00, -0.00, -1.00, 250.3, 315.0)">a</text><text xml:space="preserve" font-family="IowanOldStyle-Roman" font-size="48.0" fill="#747675" transform="matrix(1.00, 0.00, -0.00, -1.00, 273.4, 315.0)">g</text><text xml:space="preserve" font-family="IowanOldStyle-Roman" font-size="48.0" fill="#747675" transform="matrix(1.00, 0.00, -0.00, -1.00, 298.2, 315.0)">e</text><text xml:space="preserve" font-family="IowanOldStyle-Roman" font-size="48.0" fill="#747675" transform="matrix(1.00, 0.00, -0.00, -1.00, 321.6, 315.0)">r</text><text xml:space="preserve" font-family="IowanOldStyle-Roman" font-size="48.0" fill="#747675" transform="matrix(1.00, 0.00, -0.00, -1.00, 340.3, 315.0)">s</text><text xml:space="preserve" font-family="IowanOldStyle-Roman" font-size="48.0" fill="#747675" transform="matrix(1.00, 0.00, -0.00, -1.00, 361.6, 315.0)"> </text><text xml:space="preserve" font-family="IowanOldStyle-Roman" font-size="48.0" fill="#747675" transform="matrix(1.00, 0.00, -0.00, -1.00, 374.9, 315.0)">a</text><text xml:space="preserve" font-family="IowanOldStyle-Roman" font-size="48.0" fill="#747675" transform="matrix(1.00, 0.00, -0.00, -1.00, 398.0, 315.0)">n</text><text xml:space="preserve" font-family="IowanOldStyle-Roman" font-size="48.0" fill="#747675" transform="matrix(1.00, 0.00, -0.00, -1.00, 426.0, 315.0)">d</text><text xml:space="preserve" font-family="IowanOldStyle-Roman" font-size="48.0" fill="#747675" transform="matrix(1.00, 0.00, -0.00, -1.00, 453.0, 315.0)"> </text><text xml:space="preserve" font-family="IowanOldStyle-Roman" font-size="48.0" fill="#747675" transform="matrix(1.00, 0.00, -0.00, -1.00, 466.3, 315.0)">C</text><text xml:space="preserve" font-family="IowanOldStyle-Roman" font-size="48.0" fill="#747675" transform="matrix(1.00, 0.00, -0.00, -1.00, 500.3, 315.0)">T</text><text xml:space="preserve" font-family="IowanOldStyle-Roman" font-size="48.0" fill="#747675" transform="matrix(1.00, 0.00, -0.00, -1.00, 530.6, 315.0)">O</text><text xml:space="preserve" font-family="IowanOldStyle-Roman" font-size="48.0" fill="#747675" transform="matrix(1.00, 0.00, -0.00, -1.00, 569.0, 315.0)">’</text><text xml:space="preserve" font-family="IowanOldStyle-Roman" font-size="48.0" fill="#747675" transform="matrix(1.00, 0.00, -0.00, -1.00, 582.4, 315.0)">s</text><text xml:space="preserve" font-family="IowanOldStyle-Roman" font-size="48.0" fill="#747675" transform="matrix(1.00, 0.00, -0.00, -1.00, 603.6, 315.0)">,</text><text xml:space="preserve" font-family="IowanOldStyle-Roman" font-size="48.0" fill="#747675" transform="matrix(1.00, 0.00, -0.00, -1.00, 616.9, 315.0)"> </text><text xml:space="preserve" font-family="IowanOldStyle-Roman" font-size="48.0" fill="#747675" transform="matrix(1.00, 0.00, -0.00, -1.00, 630.3, 315.0)">a</text><text xml:space="preserve" font-family="IowanOldStyle-Roman" font-size="48.0" fill="#747675" transform="matrix(1.00, 0.00, -0.00, -1.00, 653.4, 315.0)">s</text><text xml:space="preserve" font-family="IowanOldStyle-Roman" font-size="48.0" fill="#747675" transform="matrix(1.00, 0.00, -0.00, -1.00, 674.6, 315.0)"> </text><text xml:space="preserve" font-family="IowanOldStyle-Roman" font-size="48.0" fill="#747675" transform="matrix(1.00, 0.00, -0.00, -1.00, 687.9, 315.0)">w</text><text xml:space="preserve" font-family="IowanOldStyle-Roman" font-size="48.0" fill="#747675" transform="matrix(1.00, 0.00, -0.00, -1.00, 725.1, 315.0)">e</text><text xml:space="preserve" font-family="IowanOldStyle-Roman" font-size="48.0" fill="#747675" transform="matrix(1.00, 0.00, -0.00, -1.00, 748.5, 315.0)">l</text><text xml:space="preserve" font-family="IowanOldStyle-Roman" font-size="48.0" fill="#747675" transform="matrix(1.00, 0.00, -0.00, -1.00, 762.5, 315.0)">l</text><text xml:space="preserve" font-family="IowanOldStyle-Roman" font-size="48.0" fill="#747675" transform="matrix(1.00, 0.00, -0.00, -1.00, 776.6, 315.0)"> </text><text xml:space="preserve" font-family="IowanOldStyle-Roman" font-size="48.0" fill="#747675" transform="matrix(1.00, 0.00, -0.00, -1.00, 789.9, 315.0)">a</text><text xml:space="preserve" font-family="IowanOldStyle-Roman" font-size="48.0" fill="#747675" transform="matrix(1.00, 0.00, -0.00, -1.00, 813.0, 315.0)">s</text><text xml:space="preserve" font-family="IowanOldStyle-Roman" font-size="48.0" fill="#747675" transform="matrix(1.00, 0.00, -0.00, -1.00, 834.2, 315.0)"> </text><text xml:space="preserve" font-family="IowanOldStyle-Roman" font-size="48.0" fill="#747675" transform="matrix(1.00, 0.00, -0.00, -1.00, 847.6, 315.0)">a</text><text xml:space="preserve" font-family="IowanOldStyle-Roman" font-size="48.0" fill="#747675" transform="matrix(1.00, 0.00, -0.00, -1.00, 870.6, 315.0)">n</text><text xml:space="preserve" font-family="IowanOldStyle-Roman" font-size="48.0" fill="#747675" transform="matrix(1.00, 0.00, -0.00, -1.00, 898.7, 315.0)"> </text><text xml:space="preserve" font-family="IowanOldStyle-Roman" font-size="48.0" fill="#747675" transform="matrix(1.00, 0.00, -0.00, -1.00, 157.0, 249.0)">a</text><text xml:space="preserve" font-family="IowanOldStyle-Roman" font-size="48.0" fill="#747675" transform="matrix(1.00, 0.00, -0.00, -1.00, 180.1, 249.0)">w</text><text xml:space="preserve" font-family="IowanOldStyle-Roman" font-size="48.0" fill="#747675" transform="matrix(1.00, 0.00, -0.00, -1.00, 217.3, 249.0)">e</text><text xml:space="preserve" font-family="IowanOldStyle-Roman" font-size="48.0" fill="#747675" transform="matrix(1.00, 0.00, -0.00, -1.00, 240.7, 249.0)">s</text><text xml:space="preserve" font-family="IowanOldStyle-Roman" font-size="48.0" fill="#747675" transform="matrix(1.00, 0.00, -0.00, -1.00, 261.9, 249.0)">o</text><text xml:space="preserve" font-family="IowanOldStyle-Roman" font-size="48.0" fill="#747675" transform="matrix(1.00, 0.00, -0.00, -1.00, 288.4, 249.0)">m</text><text xml:space="preserve" font-family="IowanOldStyle-Roman" font-size="48.0" fill="#747675" transform="matrix(1.00, 0.00, -0.00, -1.00, 330.6, 249.0)">e</text><text xml:space="preserve" font-family="IowanOldStyle-Roman" font-size="48.0" fill="#747675" transform="matrix(1.00, 0.00, -0.00, -1.00, 354.0, 249.0)"> </text><text xml:space="preserve" font-family="IowanOldStyle-Roman" font-size="48.0" fill="#747675" transform="matrix(1.00, 0.00, -0.00, -1.00, 367.3, 249.0)">s</text><text xml:space="preserve" font-family="IowanOldStyle-Roman" font-size="48.0" fill="#747675" transform="matrix(1.00, 0.00, -0.00, -1.00, 388.6, 249.0)">o</text><text xml:space="preserve" font-family="IowanOldStyle-Roman" font-size="48.0" fill="#747675" transform="matrix(1.00, 0.00, -0.00, -1.00, 415.0, 249.0)">c</text><text xml:space="preserve" font-family="IowanOldStyle-Roman" font-size="48.0" fill="#747675" transform="matrix(1.00, 0.00, -0.00, -1.00, 436.4, 249.0)">i</text><text xml:space="preserve" font-family="IowanOldStyle-Roman" font-size="48.0" fill="#747675" transform="matrix(1.00, 0.00, -0.00, -1.00, 450.7, 249.0)">a</text><text xml:space="preserve" font-family="IowanOldStyle-Roman" font-size="48.0" fill="#747675" transform="matrix(1.00, 0.00, -0.00, -1.00, 473.8, 249.0)">l</text><text xml:space="preserve" font-family="IowanOldStyle-Roman" font-size="48.0" fill="#747675" transform="matrix(1.00, 0.00, -0.00, -1.00, 487.8, 249.0)"> </text><text xml:space="preserve" font-family="IowanOldStyle-Roman" font-size="48.0" fill="#747675" transform="matrix(1.00, 0.00, -0.00, -1.00, 501.1, 249.0)">e</text><text xml:space="preserve" font-family="IowanOldStyle-Roman" font-size="48.0" fill="#747675" transform="matrix(1.00, 0.00, -0.00, -1.00, 524.5, 249.0)">v</text><text xml:space="preserve" font-family="IowanOldStyle-Roman" font-size="48.0" fill="#747675" transform="matrix(1.00, 0.00, -0.00, -1.00, 548.1, 249.0)">e</text><text xml:space="preserve" font-family="IowanOldStyle-Roman" font-size="48.0" fill="#747675" transform="matrix(1.00, 0.00, -0.00, -1.00, 571.5, 249.0)">n</text><text xml:space="preserve" font-family="IowanOldStyle-Roman" font-size="48.0" fill="#747675" transform="matrix(1.00, 0.00, -0.00, -1.00, 599.5, 249.0)">t</text><text xml:space="preserve" font-family="IowanOldStyle-Roman" font-size="48.0" fill="#747675" transform="matrix(1.00, 0.00, -0.00, -1.00, 616.8, 249.0)"> </text><text xml:space="preserve" font-family="IowanOldStyle-Roman" font-size="48.0" fill="#747675" transform="matrix(1.00, 0.00, -0.00, -1.00, 630.1, 249.0)">f</text><text xml:space="preserve" font-family="IowanOldStyle-Roman" font-size="48.0" fill="#747675" transform="matrix(1.00, 0.00, -0.00, -1.00, 645.5, 249.0)">o</text><text xml:space="preserve" font-family="IowanOldStyle-Roman" font-size="48.0" fill="#747675" transform="matrix(1.00, 0.00, -0.00, -1.00, 671.9, 249.0)">r</text><text xml:space="preserve" font-family="IowanOldStyle-Roman" font-size="48.0" fill="#747675" transform="matrix(1.00, 0.00, -0.00, -1.00, 690.6, 249.0)"> </text><text xml:space="preserve" font-family="IowanOldStyle-Roman" font-size="48.0" fill="#747675" transform="matrix(1.00, 0.00, -0.00, -1.00, 704.0, 249.0)">e</text><text xml:space="preserve" font-family="IowanOldStyle-Roman" font-size="48.0" fill="#747675" transform="matrix(1.00, 0.00, -0.00, -1.00, 727.4, 249.0)">v</text><text xml:space="preserve" font-family="IowanOldStyle-Roman" font-size="48.0" fill="#747675" transform="matrix(1.00, 0.00, -0.00, -1.00, 751.0, 249.0)">e</text><text xml:space="preserve" font-family="IowanOldStyle-Roman" font-size="48.0" fill="#747675" transform="matrix(1.00, 0.00, -0.00, -1.00, 774.4, 249.0)">r</text><text xml:space="preserve" font-family="IowanOldStyle-Roman" font-size="48.0" fill="#747675" transform="matrix(1.00, 0.00, -0.00, -1.00, 794.0, 249.0)">y</text><text xml:space="preserve" font-family="IowanOldStyle-Roman" font-size="48.0" fill="#747675" transform="matrix(1.00, 0.00, -0.00, -1.00, 817.3, 249.0)">o</text><text xml:space="preserve" font-family="IowanOldStyle-Roman" font-size="48.0" fill="#747675" transform="matrix(1.00, 0.00, -0.00, -1.00, 843.7, 249.0)">n</text><text xml:space="preserve" font-family="IowanOldStyle-Roman" font-size="48.0" fill="#747675" transform="matrix(1.00, 0.00, -0.00, -1.00, 871.8, 249.0)">e</text><text xml:space="preserve" font-family="IowanOldStyle-Roman" font-size="48.0" fill="#747675" transform="matrix(1.00, 0.00, -0.00, -1.00, 895.2, 249.0)"> </text><text xml:space="preserve" font-family="IowanOldStyle-Roman" font-size="48.0" fill="#747675" transform="matrix(1.00, 0.00, -0.00, -1.00, 908.5, 249.0)">-</text><text xml:space="preserve" font-family="IowanOldStyle-Roman" font-size="48.0" fill="#747675" transform="matrix(1.00, 0.00, -0.00, -1.00, 925.3, 249.0)"> </text><text xml:space="preserve" font-family="IowanOldStyle-Roman" font-size="48.0" fill="#747675" transform="matrix(1.00, 0.00, -0.00, -1.00, 157.0, 183.0)">i</text><text xml:space="preserve" font-family="IowanOldStyle-Roman" font-size="48.0" fill="#747675" transform="matrix(1.00, 0.00, -0.00, -1.00, 171.2, 183.0)">n</text><text xml:space="preserve" font-family="IowanOldStyle-Roman" font-size="48.0" fill="#747675" transform="matrix(1.00, 0.00, -0.00, -1.00, 199.3, 183.0)">c</text><text xml:space="preserve" font-family="IowanOldStyle-Roman" font-size="48.0" fill="#747675" transform="matrix(1.00, 0.00, -0.00, -1.00, 220.7, 183.0)">l</text><text xml:space="preserve" font-family="IowanOldStyle-Roman" font-size="48.0" fill="#747675" transform="matrix(1.00, 0.00, -0.00, -1.00, 234.7, 183.0)">u</text><text xml:space="preserve" font-family="IowanOldStyle-Roman" font-size="48.0" fill="#747675" transform="matrix(1.00, 0.00, -0.00, -1.00, 262.9, 183.0)">d</text><text xml:space="preserve" font-family="IowanOldStyle-Roman" font-size="48.0" fill="#747675" transform="matrix(1.00, 0.00, -0.00, -1.00, 289.9, 183.0)">i</text><text xml:space="preserve" font-family="IowanOldStyle-Roman" font-size="48.0" fill="#747675" transform="matrix(1.00, 0.00, -0.00, -1.00, 304.2, 183.0)">n</text><text xml:space="preserve" font-family="IowanOldStyle-Roman" font-size="48.0" fill="#747675" transform="matrix(1.00, 0.00, -0.00, -1.00, 332.2, 183.0)">g</text><text xml:space="preserve" font-family="IowanOldStyle-Roman" font-size="48.0" fill="#747675" transform="matrix(1.00, 0.00, -0.00, -1.00, 357.0, 183.0)"> </text><text xml:space="preserve" font-family="IowanOldStyle-Roman" font-size="48.0" fill="#747675" transform="matrix(1.00, 0.00, -0.00, -1.00, 370.3, 183.0)">s</text><text xml:space="preserve" font-family="IowanOldStyle-Roman" font-size="48.0" fill="#747675" transform="matrix(1.00, 0.00, -0.00, -1.00, 391.6, 183.0)">p</text><text xml:space="preserve" font-family="IowanOldStyle-Roman" font-size="48.0" fill="#747675" transform="matrix(1.00, 0.00, -0.00, -1.00, 418.4, 183.0)">o</text><text xml:space="preserve" font-family="IowanOldStyle-Roman" font-size="48.0" fill="#747675" transform="matrix(1.00, 0.00, -0.00, -1.00, 444.9, 183.0)">n</text><text xml:space="preserve" font-family="IowanOldStyle-Roman" font-size="48.0" fill="#747675" transform="matrix(1.00, 0.00, -0.00, -1.00, 472.9, 183.0)">s</text><text xml:space="preserve" font-family="IowanOldStyle-Roman" font-size="48.0" fill="#747675" transform="matrix(1.00, 0.00, -0.00, -1.00, 494.2, 183.0)">o</text><text xml:space="preserve" font-family="IowanOldStyle-Roman" font-size="48.0" fill="#747675" transform="matrix(1.00, 0.00, -0.00, -1.00, 520.6, 183.0)">r</text><text xml:space="preserve" font-family="IowanOldStyle-Roman" font-size="48.0" fill="#747675" transform="matrix(1.00, 0.00, -0.00, -1.00, 539.3, 183.0)">s</text><text xml:space="preserve" font-family="IowanOldStyle-Roman" font-size="48.0" fill="#747675" transform="matrix(1.00, 0.00, -0.00, -1.00, 560.6, 183.0)">,</text><text xml:space="preserve" font-family="IowanOldStyle-Roman" font-size="48.0" fill="#747675" transform="matrix(1.00, 0.00, -0.00, -1.00, 573.9, 183.0)"> </text><text xml:space="preserve" font-family="IowanOldStyle-Roman" font-size="48.0" fill="#747675" transform="matrix(1.00, 0.00, -0.00, -1.00, 587.2, 183.0)">p</text><text xml:space="preserve" font-family="IowanOldStyle-Roman" font-size="48.0" fill="#747675" transform="matrix(1.00, 0.00, -0.00, -1.00, 614.1, 183.0)">a</text><text xml:space="preserve" font-family="IowanOldStyle-Roman" font-size="48.0" fill="#747675" transform="matrix(1.00, 0.00, -0.00, -1.00, 637.2, 183.0)">r</text><text xml:space="preserve" font-family="IowanOldStyle-Roman" font-size="48.0" fill="#747675" transform="matrix(1.00, 0.00, -0.00, -1.00, 655.9, 183.0)">t</text><text xml:space="preserve" font-family="IowanOldStyle-Roman" font-size="48.0" fill="#747675" transform="matrix(1.00, 0.00, -0.00, -1.00, 673.2, 183.0)">n</text><text xml:space="preserve" font-family="IowanOldStyle-Roman" font-size="48.0" fill="#747675" transform="matrix(1.00, 0.00, -0.00, -1.00, 701.2, 183.0)">e</text><text xml:space="preserve" font-family="IowanOldStyle-Roman" font-size="48.0" fill="#747675" transform="matrix(1.00, 0.00, -0.00, -1.00, 724.6, 183.0)">r</text><text xml:space="preserve" font-family="IowanOldStyle-Roman" font-size="48.0" fill="#747675" transform="matrix(1.00, 0.00, -0.00, -1.00, 743.4, 183.0)">s</text><text xml:space="preserve" font-family="IowanOldStyle-Roman" font-size="48.0" fill="#747675" transform="matrix(1.00, 0.00, -0.00, -1.00, 764.6, 183.0)"> </text><text xml:space="preserve" font-family="IowanOldStyle-Roman" font-size="48.0" fill="#747675" transform="matrix(1.00, 0.00, -0.00, -1.00, 777.9, 183.0)">a</text><text xml:space="preserve" font-family="IowanOldStyle-Roman" font-size="48.0" fill="#747675" transform="matrix(1.00, 0.00, -0.00, -1.00, 801.0, 183.0)">n</text><text xml:space="preserve" font-family="IowanOldStyle-Roman" font-size="48.0" fill="#747675" transform="matrix(1.00, 0.00, -0.00, -1.00, 829.1, 183.0)">d</text><text xml:space="preserve" font-family="IowanOldStyle-Roman" font-size="48.0" fill="#747675" transform="matrix(1.00, 0.00, -0.00, -1.00, 856.0, 183.0)"> </text><text xml:space="preserve" font-family="IowanOldStyle-Roman" font-size="48.0" fill="#747675" transform="matrix(1.00, 0.00, -0.00, -1.00, 157.0, 117.0)">f</text><text xml:space="preserve" font-family="IowanOldStyle-Roman" font-size="48.0" fill="#747675" transform="matrix(1.00, 0.00, -0.00, -1.00, 172.3, 117.0)">a</text><text xml:space="preserve" font-family="IowanOldStyle-Roman" font-size="48.0" fill="#747675" transform="matrix(1.00, 0.00, -0.00, -1.00, 195.4, 117.0)">m</text><text xml:space="preserve" font-family="IowanOldStyle-Roman" font-size="48.0" fill="#747675" transform="matrix(1.00, 0.00, -0.00, -1.00, 237.7, 117.0)">i</text><text xml:space="preserve" font-family="IowanOldStyle-Roman" font-size="48.0" fill="#747675" transform="matrix(1.00, 0.00, -0.00, -1.00, 251.9, 117.0)">l</text><text xml:space="preserve" font-family="IowanOldStyle-Roman" font-size="48.0" fill="#747675" transform="matrix(1.00, 0.00, -0.00, -1.00, 265.9, 117.0)">i</text><text xml:space="preserve" font-family="IowanOldStyle-Roman" font-size="48.0" fill="#747675" transform="matrix(1.00, 0.00, -0.00, -1.00, 280.2, 117.0)">e</text><text xml:space="preserve" font-family="IowanOldStyle-Roman" font-size="48.0" fill="#747675" transform="matrix(1.00, 0.00, -0.00, -1.00, 303.6, 117.0)">s</text><text xml:space="preserve" font-family="IowanOldStyle-Roman" font-size="48.0" fill="#747675" transform="matrix(1.00, 0.00, -0.00, -1.00, 324.8, 117.0)">.</text></g></svg>