<?xml version="1.0" encoding="UTF-8" standalone="no"?><svg xmlns="http://www.w3.org/2000/svg" xmlns:xlink="http://www.w3.org/1999/xlink" clip-rule="evenodd" stroke-miterlimit="4.00" viewBox="0 0 1920 1080"><desc>SVG generated by Keynote</desc><defs></defs><g transform="matrix(1.00, 0.00, -0.00, -1.00, 0.0, 1080.0)"><path d="M 0.0 1080.0 L 1920.0 1080.0 L 1920.0 0.0 L 0.0 0.0 Z M 0.0 1080.0 " fill="#EEEDED"></path><path d="M 0.0 0.0 L 1836.0 0.0 " fill="none" stroke="#000000" stroke-width="2.00" transform="matrix(1.00, 0.00, 0.00, -1.00, 41.0, 58.0)"></path><text xml:space="preserve" font-family="HelveticaNeue" font-size="23.0" fill="#000000" transform="matrix(1.00, 0.00, -0.00, -1.00, 61.0, 23.0)">P</text><text xml:space="preserve" font-family="HelveticaNeue" font-size="23.0" fill="#000000" transform="matrix(1.00, 0.00, -0.00, -1.00, 75.9, 23.0)">r</text><text xml:space="preserve" font-family="HelveticaNeue" font-size="23.0" fill="#000000" transform="matrix(1.00, 0.00, -0.00, -1.00, 83.1, 23.0)">e</text><text xml:space="preserve" font-family="HelveticaNeue" font-size="23.0" fill="#000000" transform="matrix(1.00, 0.00, -0.00, -1.00, 95.5, 23.0)">s</text><text xml:space="preserve" font-family="HelveticaNeue" font-size="23.0" fill="#000000" transform="matrix(1.00, 0.00, -0.00, -1.00, 107.0, 23.0)">e</text><text xml:space="preserve" font-family="HelveticaNeue" font-size="23.0" fill="#000000" transform="matrix(1.00, 0.00, -0.00, -1.00, 119.4, 23.0)">n</text><text xml:space="preserve" font-family="HelveticaNeue" font-size="23.0" fill="#000000" transform="matrix(1.00, 0.00, -0.00, -1.00, 132.1, 23.0)">t</text><text xml:space="preserve" font-family="HelveticaNeue" font-size="23.0" fill="#000000" transform="matrix(1.00, 0.00, -0.00, -1.00, 139.4, 23.0)">a</text><text xml:space="preserve" font-family="HelveticaNeue" font-size="23.0" fill="#000000" transform="matrix(1.00, 0.00, -0.00, -1.00, 151.7, 23.0)">t</text><text xml:space="preserve" font-family="HelveticaNeue" font-size="23.0" fill="#000000" transform="matrix(1.00, 0.00, -0.00, -1.00, 159.0, 23.0)">i</text><text xml:space="preserve" font-family="HelveticaNeue" font-size="23.0" fill="#000000" transform="matrix(1.00, 0.00, -0.00, -1.00, 164.1, 23.0)">o</text><text xml:space="preserve" font-family="HelveticaNeue" font-size="23.0" fill="#000000" transform="matrix(1.00, 0.00, -0.00, -1.00, 177.3, 23.0)">n</text><text xml:space="preserve" font-family="HelveticaNeue" font-size="23.0" fill="#000000" transform="matrix(1.00, 0.00, -0.00, -1.00, 190.1, 23.0)"> </text><text xml:space="preserve" font-family="HelveticaNeue" font-size="23.0" fill="#000000" transform="matrix(1.00, 0.00, -0.00, -1.00, 196.5, 23.0)">T</text><text xml:space="preserve" font-family="HelveticaNeue" font-size="23.0" fill="#000000" transform="matrix(1.00, 0.00, -0.00, -1.00, 209.7, 23.0)">i</text><text xml:space="preserve" font-family="HelveticaNeue" font-size="23.0" fill="#000000" transform="matrix(1.00, 0.00, -0.00, -1.00, 214.8, 23.0)">t</text><text xml:space="preserve" font-family="HelveticaNeue" font-size="23.0" fill="#000000" transform="matrix(1.00, 0.00, -0.00, -1.00, 222.0, 23.0)">l</text><text xml:space="preserve" font-family="HelveticaNeue" font-size="23.0" fill="#000000" transform="matrix(1.00, 0.00, -0.00, -1.00, 227.1, 23.0)">e</text><image xlink:href="../../D0517147-4847-4A0F-8B98-32B995C105A1/assets/0BF8E63FE00997E10C4EC11A1CFD77DD.png" width="97.00" height="27.00" transform="matrix(1.00, 0.00, -0.00, -1.00, 1751.0, 44.0)"></image><image xlink:href="40B6A0F10436885F7EE049DE36E27F34.png" width="960.00" height="425.00" transform="matrix(1.55, 0.00, -0.00, -1.55, 197.0, 965.0)"></image><image xlink:href="C9F2E37202403A6FD3E65D796248D5C6.png" width="6209.00" height="505.00" transform="matrix(0.24, 0.00, -0.00, -0.24, 197.1, 304.8)"></image></g></svg>