<?xml version="1.0" encoding="UTF-8" standalone="no"?><svg xmlns="http://www.w3.org/2000/svg" xmlns:xlink="http://www.w3.org/1999/xlink" clip-rule="evenodd" stroke-miterlimit="4.00" viewBox="0 0 1920 1080"><desc>SVG generated by Keynote</desc><defs></defs><g transform="matrix(1.00, 0.00, -0.00, -1.00, 0.0, 1080.0)"><path d="M 0.0 1080.0 L 1920.0 1080.0 L 1920.0 0.0 L 0.0 0.0 Z M 0.0 1080.0 " fill="#EEEDED"></path><path d="M 0.0 0.0 L 1836.0 0.0 " fill="none" stroke="#000000" stroke-width="2.00" transform="matrix(1.00, 0.00, 0.00, -1.00, 41.0, 58.0)"></path><text xml:space="preserve" font-family="HelveticaNeue-Bold" font-weight="bold" font-size="23.0" fill="#000000" transform="matrix(1.00, 0.00, -0.00, -1.00, 61.0, 24.0)">M</text><text xml:space="preserve" font-family="HelveticaNeue-Bold" font-weight="bold" font-size="23.0" fill="#000000" transform="matrix(1.00, 0.00, -0.00, -1.00, 81.9, 24.0)">i</text><text xml:space="preserve" font-family="HelveticaNeue-Bold" font-weight="bold" font-size="23.0" fill="#000000" transform="matrix(1.00, 0.00, -0.00, -1.00, 87.8, 24.0)">c</text><text xml:space="preserve" font-family="HelveticaNeue-Bold" font-weight="bold" font-size="23.0" fill="#000000" transform="matrix(1.00, 0.00, -0.00, -1.00, 101.0, 24.0)">r</text><text xml:space="preserve" font-family="HelveticaNeue-Bold" font-weight="bold" font-size="23.0" fill="#000000" transform="matrix(1.00, 0.00, -0.00, -1.00, 109.5, 24.0)">o</text><text xml:space="preserve" font-family="HelveticaNeue-Bold" font-weight="bold" font-size="23.0" fill="#000000" transform="matrix(1.00, 0.00, -0.00, -1.00, 123.6, 24.0)">s</text><text xml:space="preserve" font-family="HelveticaNeue-Bold" font-weight="bold" font-size="23.0" fill="#000000" transform="matrix(1.00, 0.00, -0.00, -1.00, 135.9, 24.0)">e</text><text xml:space="preserve" font-family="HelveticaNeue-Bold" font-weight="bold" font-size="23.0" fill="#000000" transform="matrix(1.00, 0.00, -0.00, -1.00, 149.1, 24.0)">r</text><text xml:space="preserve" font-family="HelveticaNeue-Bold" font-weight="bold" font-size="23.0" fill="#000000" transform="matrix(1.00, 0.00, -0.00, -1.00, 158.1, 24.0)">v</text><text xml:space="preserve" font-family="HelveticaNeue-Bold" font-weight="bold" font-size="23.0" fill="#000000" transform="matrix(1.00, 0.00, -0.00, -1.00, 170.0, 24.0)">i</text><text xml:space="preserve" font-family="HelveticaNeue-Bold" font-weight="bold" font-size="23.0" fill="#000000" transform="matrix(1.00, 0.00, -0.00, -1.00, 176.0, 24.0)">c</text><text xml:space="preserve" font-family="HelveticaNeue-Bold" font-weight="bold" font-size="23.0" fill="#000000" transform="matrix(1.00, 0.00, -0.00, -1.00, 189.2, 24.0)">e</text><text xml:space="preserve" font-family="HelveticaNeue-Bold" font-weight="bold" font-size="23.0" fill="#000000" transform="matrix(1.00, 0.00, -0.00, -1.00, 202.4, 24.0)">s</text><text xml:space="preserve" font-family="HelveticaNeue-Bold" font-weight="bold" font-size="23.0" fill="#000000" transform="matrix(1.00, 0.00, -0.00, -1.00, 214.7, 24.0)"> </text><text xml:space="preserve" font-family="HelveticaNeue-Bold" font-weight="bold" font-size="23.0" fill="#000000" transform="matrix(1.00, 0.00, -0.00, -1.00, 221.1, 24.0)">i</text><text xml:space="preserve" font-family="HelveticaNeue-Bold" font-weight="bold" font-size="23.0" fill="#000000" transform="matrix(1.00, 0.00, -0.00, -1.00, 227.1, 24.0)">n</text><text xml:space="preserve" font-family="HelveticaNeue-Bold" font-weight="bold" font-size="23.0" fill="#000000" transform="matrix(1.00, 0.00, -0.00, -1.00, 240.7, 24.0)"> </text><text xml:space="preserve" font-family="HelveticaNeue-Bold" font-weight="bold" font-size="23.0" fill="#000000" transform="matrix(1.00, 0.00, -0.00, -1.00, 247.1, 24.0)">t</text><text xml:space="preserve" font-family="HelveticaNeue-Bold" font-weight="bold" font-size="23.0" fill="#000000" transform="matrix(1.00, 0.00, -0.00, -1.00, 255.2, 24.0)">h</text><text xml:space="preserve" font-family="HelveticaNeue-Bold" font-weight="bold" font-size="23.0" fill="#000000" transform="matrix(1.00, 0.00, -0.00, -1.00, 268.8, 24.0)">e</text><text xml:space="preserve" font-family="HelveticaNeue-Bold" font-weight="bold" font-size="23.0" fill="#000000" transform="matrix(1.00, 0.00, -0.00, -1.00, 282.0, 24.0)"> </text><text xml:space="preserve" font-family="HelveticaNeue-Bold" font-weight="bold" font-size="23.0" fill="#000000" transform="matrix(1.00, 0.00, -0.00, -1.00, 288.4, 24.0)">W</text><text xml:space="preserve" font-family="HelveticaNeue-Bold" font-weight="bold" font-size="23.0" fill="#000000" transform="matrix(1.00, 0.00, -0.00, -1.00, 310.1, 24.0)">i</text><text xml:space="preserve" font-family="HelveticaNeue-Bold" font-weight="bold" font-size="23.0" fill="#000000" transform="matrix(1.00, 0.00, -0.00, -1.00, 316.1, 24.0)">l</text><text xml:space="preserve" font-family="HelveticaNeue-Bold" font-weight="bold" font-size="23.0" fill="#000000" transform="matrix(1.00, 0.00, -0.00, -1.00, 322.0, 24.0)">d</text><image xlink:href="../../D0517147-4847-4A0F-8B98-32B995C105A1/assets/0BF8E63FE00997E10C4EC11A1CFD77DD.png" width="97.00" height="27.00" transform="matrix(1.00, 0.00, -0.00, -1.00, 1751.0, 44.0)"></image><g><clipPath id="clip-31"><path d="M 1005.4 886.3 L 1920.0 886.3 L 1920.0 999.3 L 1005.4 999.3 Z M 1005.4 886.3 "></path></clipPath><g clip-path="url(#clip-31)"><text xml:space="preserve" font-family="HelveticaNeue-Bold" font-weight="bold" font-size="98.0" fill="#282828" transform="matrix(1.00, 0.00, -0.00, -1.00, 1035.0, 903.0)">B</text><text xml:space="preserve" font-family="HelveticaNeue-Bold" font-weight="bold" font-size="98.0" fill="#282828" transform="matrix(1.00, 0.00, -0.00, -1.00, 1104.0, 903.0)">i</text><text xml:space="preserve" font-family="HelveticaNeue-Bold" font-weight="bold" font-size="98.0" fill="#282828" transform="matrix(1.00, 0.00, -0.00, -1.00, 1129.3, 903.0)">t</text><text xml:space="preserve" font-family="HelveticaNeue-Bold" font-weight="bold" font-size="98.0" fill="#282828" transform="matrix(1.00, 0.00, -0.00, -1.00, 1163.8, 903.0)">e</text><text xml:space="preserve" font-family="HelveticaNeue-Bold" font-weight="bold" font-size="98.0" fill="#282828" transform="matrix(1.00, 0.00, -0.00, -1.00, 1220.0, 903.0)">s</text><text xml:space="preserve" font-family="HelveticaNeue-Bold" font-weight="bold" font-size="98.0" fill="#282828" transform="matrix(1.00, 0.00, -0.00, -1.00, 1272.7, 903.0)">i</text><text xml:space="preserve" font-family="HelveticaNeue-Bold" font-weight="bold" font-size="98.0" fill="#282828" transform="matrix(1.00, 0.00, -0.00, -1.00, 1297.9, 903.0)">z</text><text xml:space="preserve" font-family="HelveticaNeue-Bold" font-weight="bold" font-size="98.0" fill="#282828" transform="matrix(1.00, 0.00, -0.00, -1.00, 1348.8, 903.0)">e</text><text xml:space="preserve" font-family="HelveticaNeue-Bold" font-weight="bold" font-size="98.0" fill="#282828" transform="matrix(1.00, 0.00, -0.00, -1.00, 1405.0, 903.0)"> </text><text xml:space="preserve" font-family="HelveticaNeue-Bold" font-weight="bold" font-size="98.0" fill="#282828" transform="matrix(1.00, 0.00, -0.00, -1.00, 1432.3, 903.0)">w</text><text xml:space="preserve" font-family="HelveticaNeue-Bold" font-weight="bold" font-size="98.0" fill="#282828" transform="matrix(1.00, 0.00, -0.00, -1.00, 1512.1, 903.0)">e</text><text xml:space="preserve" font-family="HelveticaNeue-Bold" font-weight="bold" font-size="98.0" fill="#282828" transform="matrix(1.00, 0.00, -0.00, -1.00, 1568.3, 903.0)">b</text><text xml:space="preserve" font-family="HelveticaNeue-Bold" font-weight="bold" font-size="98.0" fill="#282828" transform="matrix(1.00, 0.00, -0.00, -1.00, 1628.2, 903.0)">s</text><text xml:space="preserve" font-family="HelveticaNeue-Bold" font-weight="bold" font-size="98.0" fill="#282828" transform="matrix(1.00, 0.00, -0.00, -1.00, 1680.8, 903.0)">i</text><text xml:space="preserve" font-family="HelveticaNeue-Bold" font-weight="bold" font-size="98.0" fill="#282828" transform="matrix(1.00, 0.00, -0.00, -1.00, 1706.1, 903.0)">t</text><text xml:space="preserve" font-family="HelveticaNeue-Bold" font-weight="bold" font-size="98.0" fill="#282828" transform="matrix(1.00, 0.00, -0.00, -1.00, 1740.6, 903.0)">e</text></g></g><image xlink:href="1579FEF25E9702A530E33C5506747557.png" width="800.00" height="427.00" transform="matrix(1.00, 0.00, -0.00, -1.00, 1002.0, 594.0)"></image><g><clipPath id="clip-32"><path d="M 147.0 163.0 L 970.1 163.0 L 970.1 1059.6 L 147.0 1059.6 Z M 147.0 163.0 "></path></clipPath><g clip-path="url(#clip-32)"><path d="M 419.8 721.2 L 735.7 721.2 C 741.2 721.2 745.6 716.7 745.6 711.3 L 745.6 176.8 C 745.6 171.4 741.2 166.9 735.7 166.9 L 419.8 166.9 C 414.3 166.9 409.9 171.4 409.9 176.8 L 409.9 711.3 C 409.9 716.7 414.3 721.2 419.8 721.2 Z M 419.8 721.2 " fill="#FEFFFF"></path><path d="M 232.1 246.7 L 391.9 246.7 C 394.6 246.6 396.9 248.9 397.1 251.6 L 397.1 522.2 C 396.9 525.0 394.6 527.2 391.9 527.7 L 231.8 527.7 C 229.0 527.2 226.8 525.0 227.1 522.2 L 227.1 251.6 C 226.8 248.9 229.0 246.6 232.1 246.7 Z M 232.1 246.7 " fill="none" stroke="#236FB9" stroke-width="1.00" stroke-miterlimit="0.00" stroke-linecap="round" stroke-linejoin="round" transform="matrix(1.97, 0.00, 0.00, -1.97, -37.7, 1208.2)"></path><path d="M 475.7 647.4 L 685.4 647.4 C 690.8 647.4 695.2 643.0 695.2 637.5 L 695.2 545.3 C 695.2 539.9 690.8 535.4 685.4 535.4 L 475.7 535.4 C 470.3 535.4 465.9 539.9 465.9 545.3 L 465.9 637.5 C 465.9 643.0 470.3 647.4 475.7 647.4 Z M 475.7 647.4 " fill="#00FCFF"></path><path d="M 260.1 283.7 L 366.3 283.7 C 369.1 284.0 371.3 286.2 372.1 289.0 L 372.1 335.7 C 371.3 338.4 369.1 340.7 366.3 340.7 L 260.1 340.7 C 257.4 340.7 255.1 338.4 255.1 335.7 L 255.1 289.0 C 255.1 286.2 257.4 284.0 260.1 283.7 Z M 260.1 283.7 " fill="none" stroke="#000000" stroke-width="1.00" stroke-miterlimit="0.00" stroke-linecap="round" stroke-linejoin="round" transform="matrix(1.97, 0.00, 0.00, -1.97, -37.7, 1208.2)"></path><text xml:space="preserve" font-family="Helvetica" font-size="12.0" fill="#000000" transform="matrix(1.97, 0.00, -0.00, -1.97, 535.1, 583.5)">F</text><text xml:space="preserve" font-family="Helvetica" font-size="12.0" fill="#000000" transform="matrix(1.97, 0.00, -0.00, -1.97, 549.6, 583.5)">e</text><text xml:space="preserve" font-family="Helvetica" font-size="12.0" fill="#000000" transform="matrix(1.97, 0.00, -0.00, -1.97, 562.8, 583.5)">t</text><text xml:space="preserve" font-family="Helvetica" font-size="12.0" fill="#000000" transform="matrix(1.97, 0.00, -0.00, -1.97, 569.3, 583.5)">c</text><text xml:space="preserve" font-family="Helvetica" font-size="12.0" fill="#000000" transform="matrix(1.97, 0.00, -0.00, -1.97, 581.2, 583.5)">h</text><text xml:space="preserve" font-family="Helvetica" font-size="12.0" fill="#000000" transform="matrix(1.97, 0.00, -0.00, -1.97, 594.4, 583.5)">i</text><text xml:space="preserve" font-family="Helvetica" font-size="12.0" fill="#000000" transform="matrix(1.97, 0.00, -0.00, -1.97, 599.6, 583.5)">n</text><text xml:space="preserve" font-family="Helvetica" font-size="12.0" fill="#000000" transform="matrix(1.97, 0.00, -0.00, -1.97, 612.8, 583.5)">g</text><path d="M 475.7 529.8 L 685.4 529.8 C 690.8 529.8 695.2 525.4 695.2 520.0 L 695.2 427.8 C 695.2 422.3 690.8 417.9 685.4 417.9 L 475.7 417.9 C 470.3 417.9 465.9 422.3 465.9 427.8 L 465.9 520.0 C 465.9 525.4 470.3 529.8 475.7 529.8 Z M 475.7 529.8 " fill="#FF89D8"></path><path d="M 260.1 343.7 L 366.3 343.7 C 369.1 343.5 371.3 345.7 372.1 348.5 L 372.1 395.2 C 371.3 397.9 369.1 400.2 366.3 400.7 L 260.1 400.7 C 257.4 400.2 255.1 397.9 255.1 395.2 L 255.1 348.5 C 255.1 345.7 257.4 343.5 260.1 343.7 Z M 260.1 343.7 " fill="none" stroke="#000000" stroke-width="1.00" stroke-miterlimit="0.00" stroke-linecap="round" stroke-linejoin="round" transform="matrix(1.97, 0.00, 0.00, -1.97, -37.7, 1208.2)"></path><text xml:space="preserve" font-family="Helvetica" font-size="12.0" fill="#000000" transform="matrix(1.97, 0.00, -0.00, -1.97, 516.7, 466.0)">A</text><text xml:space="preserve" font-family="Helvetica" font-size="12.0" fill="#000000" transform="matrix(1.97, 0.00, -0.00, -1.97, 532.5, 466.0)">g</text><text xml:space="preserve" font-family="Helvetica" font-size="12.0" fill="#000000" transform="matrix(1.97, 0.00, -0.00, -1.97, 545.7, 466.0)">g</text><text xml:space="preserve" font-family="Helvetica" font-size="12.0" fill="#000000" transform="matrix(1.97, 0.00, -0.00, -1.97, 558.8, 466.0)">r</text><text xml:space="preserve" font-family="Helvetica" font-size="12.0" fill="#000000" transform="matrix(1.97, 0.00, -0.00, -1.97, 566.7, 466.0)">e</text><text xml:space="preserve" font-family="Helvetica" font-size="12.0" fill="#000000" transform="matrix(1.97, 0.00, -0.00, -1.97, 579.9, 466.0)">g</text><text xml:space="preserve" font-family="Helvetica" font-size="12.0" fill="#000000" transform="matrix(1.97, 0.00, -0.00, -1.97, 593.1, 466.0)">a</text><text xml:space="preserve" font-family="Helvetica" font-size="12.0" fill="#000000" transform="matrix(1.97, 0.00, -0.00, -1.97, 606.3, 466.0)">t</text><text xml:space="preserve" font-family="Helvetica" font-size="12.0" fill="#000000" transform="matrix(1.97, 0.00, -0.00, -1.97, 612.8, 466.0)">i</text><text xml:space="preserve" font-family="Helvetica" font-size="12.0" fill="#000000" transform="matrix(1.97, 0.00, -0.00, -1.97, 618.1, 466.0)">o</text><text xml:space="preserve" font-family="Helvetica" font-size="12.0" fill="#000000" transform="matrix(1.97, 0.00, -0.00, -1.97, 631.3, 466.0)">n</text><path d="M 309.2 821.9 L 309.2 911.5 C 309.2 917.7 333.0 922.7 362.3 922.7 C 391.7 922.7 415.5 917.7 415.5 911.5 L 415.5 821.9 C 415.5 815.7 391.7 810.7 362.3 810.7 C 333.0 810.7 309.2 815.7 309.2 821.9 " fill="#FEFFFF"></path><path d="M 176.1 195.6 L 176.1 150.2 C 175.7 147.1 187.8 144.6 202.7 144.6 C 217.5 144.6 229.6 147.1 230.1 150.2 L 230.1 195.6 C 229.6 198.7 217.5 201.3 202.7 201.3 C 187.8 201.3 175.7 198.7 175.7 195.6 M 175.7 150.2 C 175.7 153.4 187.8 155.9 202.7 155.9 C 217.5 155.9 229.6 153.4 229.6 150.2 " fill="none" stroke="#000000" stroke-width="1.00" stroke-miterlimit="0.00" stroke-linecap="round" stroke-linejoin="round" transform="matrix(1.97, 0.00, 0.00, -1.97, -37.7, 1208.2)"></path><text xml:space="preserve" font-family="Helvetica" font-size="12.0" fill="#000000" transform="matrix(1.97, 0.00, -0.00, -1.97, 339.3, 853.2)">i</text><text xml:space="preserve" font-family="Helvetica" font-size="12.0" fill="#000000" transform="matrix(1.97, 0.00, -0.00, -1.97, 344.6, 853.2)">S</text><text xml:space="preserve" font-family="Helvetica" font-size="12.0" fill="#000000" transform="matrix(1.97, 0.00, -0.00, -1.97, 360.4, 853.2)">i</text><text xml:space="preserve" font-family="Helvetica" font-size="12.0" fill="#000000" transform="matrix(1.97, 0.00, -0.00, -1.97, 365.6, 853.2)">t</text><text xml:space="preserve" font-family="Helvetica" font-size="12.0" fill="#000000" transform="matrix(1.97, 0.00, -0.00, -1.97, 372.2, 853.2)">e</text><path d="M 465.9 956.3 L 465.9 1045.9 C 465.9 1052.0 489.7 1057.0 519.0 1057.0 C 548.3 1057.0 572.2 1052.0 572.2 1045.9 L 572.2 956.3 C 572.2 950.1 548.3 945.1 519.0 945.1 C 489.7 945.1 465.9 950.1 465.9 956.3 " fill="#FEFFFF"></path><path d="M 255.1 127.6 L 255.1 82.2 C 255.1 79.1 267.2 76.5 282.0 76.5 C 296.9 76.5 309.0 79.1 309.1 82.2 L 309.1 127.6 C 309.0 130.7 296.9 133.2 282.0 133.2 C 267.2 133.2 255.1 130.7 255.1 127.6 M 255.1 82.2 C 255.1 85.3 267.2 87.9 282.0 87.9 C 296.9 87.9 309.0 85.3 309.0 82.2 " fill="none" stroke="#000000" stroke-width="1.00" stroke-miterlimit="0.00" stroke-linecap="round" stroke-linejoin="round" transform="matrix(1.97, 0.00, 0.00, -1.97, -37.7, 1208.2)"></path><text xml:space="preserve" font-family="Helvetica" font-size="12.0" fill="#000000" transform="matrix(1.97, 0.00, -0.00, -1.97, 496.0, 987.6)">L</text><text xml:space="preserve" font-family="Helvetica" font-size="12.0" fill="#000000" transform="matrix(1.97, 0.00, -0.00, -1.97, 509.1, 987.6)">D</text><text xml:space="preserve" font-family="Helvetica" font-size="12.0" fill="#000000" transform="matrix(1.97, 0.00, -0.00, -1.97, 526.3, 987.6)">P</text><path d="M 971.5 702.0 L 971.5 697.0 C 971.5 693.8 968.9 691.2 965.6 691.2 L 965.6 696.1 C 968.9 696.1 971.5 698.7 971.5 702.0 Z M 971.5 702.0 " fill="#414341"></path><path d="M 971.5 702.0 L 971.5 697.0 C 971.5 696.8 971.5 696.5 971.5 696.2 L 971.5 701.1 C 971.5 701.4 971.5 701.7 971.5 702.0 Z M 971.5 702.0 " fill="#414341"></path><path d="M 971.5 701.1 L 971.5 696.2 C 971.4 695.9 971.4 695.6 971.3 695.3 L 971.3 700.2 C 971.4 700.5 971.4 700.8 971.5 701.1 Z M 971.5 701.1 " fill="#414341"></path><path d="M 971.3 700.2 L 971.3 695.3 C 971.1 694.9 971.0 694.5 970.8 694.2 L 970.8 699.2 C 971.0 699.5 971.1 699.8 971.3 700.2 Z M 971.3 700.2 " fill="#414341"></path><path d="M 970.8 699.2 L 970.8 694.2 C 969.8 692.4 967.9 691.2 965.6 691.2 L 965.6 696.1 C 967.9 696.1 969.8 697.3 970.8 699.2 Z M 970.8 699.2 " fill="#414341"></path><path d="M 968.2 697.1 L 965.6 691.2 L 897.0 691.2 L 895.4 697.4 Z M 968.2 697.1 " fill="#414341"></path><path d="M 897.0 696.1 L 897.0 691.2 C 893.7 691.2 891.1 693.8 891.1 697.0 L 891.1 702.0 C 891.1 698.7 893.7 696.1 897.0 696.1 Z M 897.0 696.1 " fill="#414341"></path><path d="M 897.0 696.1 L 897.0 691.2 C 893.7 691.2 891.1 693.8 891.1 697.0 L 891.1 702.0 C 891.1 698.7 893.7 696.1 897.0 696.1 Z M 897.0 696.1 " fill="#414341"></path><path d="M 965.6 801.4 C 968.9 801.4 971.5 798.8 971.5 795.6 L 971.5 702.0 C 971.5 698.7 968.9 696.1 965.6 696.1 L 897.0 696.1 C 893.7 696.1 891.1 698.7 891.1 702.0 L 891.1 795.6 C 891.1 798.8 893.7 801.4 897.0 801.4 Z M 965.6 801.4 " fill="#666967"></path><path d="M 903.4 786.2 L 959.2 786.2 L 959.2 779.7 L 903.4 779.7 Z M 903.4 774.6 L 959.2 774.6 L 959.2 768.1 L 903.4 768.1 Z M 903.4 763.5 L 959.2 763.5 L 959.2 757.0 L 903.4 757.0 Z M 903.4 763.5 " fill="#FFFEFE"></path><text xml:space="preserve" font-family="Helvetica" font-size="12.0" fill="#000000" transform="matrix(1.97, 0.00, -0.00, -1.97, 901.3, 653.0)">A</text><text xml:space="preserve" font-family="Helvetica" font-size="12.0" fill="#000000" transform="matrix(1.97, 0.00, -0.00, -1.97, 917.1, 653.0)">c</text><text xml:space="preserve" font-family="Helvetica" font-size="12.0" fill="#000000" transform="matrix(1.97, 0.00, -0.00, -1.97, 928.9, 653.0)">m</text><text xml:space="preserve" font-family="Helvetica" font-size="12.0" fill="#000000" transform="matrix(1.97, 0.00, -0.00, -1.97, 948.6, 653.0)">e</text><text xml:space="preserve" font-family="HelveticaNeue" font-size="16.0" fill="#000000" transform="matrix(1.97, 0.00, -0.00, -1.97, 513.9, 675.7)">B</text><text xml:space="preserve" font-family="HelveticaNeue" font-size="16.0" fill="#000000" transform="matrix(1.97, 0.00, -0.00, -1.97, 535.5, 675.7)">i</text><text xml:space="preserve" font-family="HelveticaNeue" font-size="16.0" fill="#000000" transform="matrix(1.97, 0.00, -0.00, -1.97, 542.6, 675.7)">t</text><text xml:space="preserve" font-family="HelveticaNeue" font-size="16.0" fill="#000000" transform="matrix(1.97, 0.00, -0.00, -1.97, 552.5, 675.7)">e</text><text xml:space="preserve" font-family="HelveticaNeue" font-size="16.0" fill="#000000" transform="matrix(1.97, 0.00, -0.00, -1.97, 569.5, 675.7)">s</text><text xml:space="preserve" font-family="HelveticaNeue" font-size="16.0" fill="#000000" transform="matrix(1.97, 0.00, -0.00, -1.97, 585.2, 675.7)">i</text><text xml:space="preserve" font-family="HelveticaNeue" font-size="16.0" fill="#000000" transform="matrix(1.97, 0.00, -0.00, -1.97, 592.3, 675.7)">z</text><text xml:space="preserve" font-family="HelveticaNeue" font-size="16.0" fill="#000000" transform="matrix(1.97, 0.00, -0.00, -1.97, 607.4, 675.7)">e</text><path d="M 229.6 189.7 L 311.8 240.9 " fill="none" stroke="#000000" stroke-width="1.00" stroke-miterlimit="0.00" stroke-linecap="round" transform="matrix(1.97, 0.00, 0.00, -1.97, -37.7, 1208.2)"></path><path d="M 734.4 821.9 L 734.4 911.5 C 734.4 917.7 758.2 922.7 787.6 922.7 C 816.9 922.7 840.7 917.7 840.7 911.5 L 840.7 821.9 C 840.7 815.7 816.9 810.7 787.6 810.7 C 758.2 810.7 734.4 815.7 734.4 821.9 " fill="#FEFFFF"></path><path d="M 391.1 195.6 L 391.1 150.2 C 391.2 147.1 403.2 144.6 418.1 144.6 C 433.0 144.6 445.0 147.1 445.1 150.2 L 445.1 195.6 C 445.0 198.7 433.0 201.3 418.1 201.3 C 403.2 201.3 391.2 198.7 391.2 195.6 M 391.2 150.2 C 391.2 153.4 403.2 155.9 418.1 155.9 C 433.0 155.9 445.0 153.4 445.0 150.2 " fill="none" stroke="#000000" stroke-width="1.00" stroke-miterlimit="0.00" stroke-linecap="round" stroke-linejoin="round" transform="matrix(1.97, 0.00, 0.00, -1.97, -37.7, 1208.2)"></path><text xml:space="preserve" font-family="Helvetica" font-size="12.0" fill="#000000" transform="matrix(1.97, 0.00, -0.00, -1.97, 762.6, 853.2)">N</text><text xml:space="preserve" font-family="Helvetica" font-size="12.0" fill="#000000" transform="matrix(1.97, 0.00, -0.00, -1.97, 779.7, 853.2)">i</text><text xml:space="preserve" font-family="Helvetica" font-size="12.0" fill="#000000" transform="matrix(1.97, 0.00, -0.00, -1.97, 784.9, 853.2)">t</text><text xml:space="preserve" font-family="Helvetica" font-size="12.0" fill="#000000" transform="matrix(1.97, 0.00, -0.00, -1.97, 791.5, 853.2)">r</text><text xml:space="preserve" font-family="Helvetica" font-size="12.0" fill="#000000" transform="matrix(1.97, 0.00, -0.00, -1.97, 799.4, 853.2)">o</text><path d="M 391.2 190.1 L 311.8 240.9 " fill="none" stroke="#000000" stroke-width="1.00" stroke-miterlimit="0.00" stroke-linecap="round" transform="matrix(1.97, 0.00, 0.00, -1.97, -37.7, 1208.2)"></path><path d="M 475.7 295.7 L 685.4 295.7 C 690.8 295.7 695.2 291.3 695.2 285.8 L 695.2 193.6 C 695.2 188.2 690.8 183.7 685.4 183.7 L 475.7 183.7 C 470.3 183.7 465.9 188.2 465.9 193.6 L 465.9 285.8 C 465.9 291.3 470.3 295.7 475.7 295.7 Z M 475.7 295.7 " fill="#FFD478"></path><path d="M 260.1 462.7 L 366.3 462.7 C 369.1 462.0 371.3 464.3 372.1 467.0 L 372.1 513.7 C 371.3 516.5 369.1 518.7 366.3 518.7 L 260.1 518.7 C 257.4 518.7 255.1 516.5 255.1 513.7 L 255.1 467.0 C 255.1 464.3 257.4 462.0 260.1 462.7 Z M 260.1 462.7 " fill="none" stroke="#000000" stroke-width="1.00" stroke-miterlimit="0.00" stroke-linecap="round" stroke-linejoin="round" transform="matrix(1.97, 0.00, 0.00, -1.97, -37.7, 1208.2)"></path><text xml:space="preserve" font-family="Helvetica" font-size="12.0" fill="#000000" transform="matrix(1.97, 0.00, -0.00, -1.97, 514.1, 231.8)">P</text><text xml:space="preserve" font-family="Helvetica" font-size="12.0" fill="#000000" transform="matrix(1.97, 0.00, -0.00, -1.97, 529.9, 231.8)">r</text><text xml:space="preserve" font-family="Helvetica" font-size="12.0" fill="#000000" transform="matrix(1.97, 0.00, -0.00, -1.97, 537.7, 231.8)">e</text><text xml:space="preserve" font-family="Helvetica" font-size="12.0" fill="#000000" transform="matrix(1.97, 0.00, -0.00, -1.97, 550.9, 231.8)">s</text><text xml:space="preserve" font-family="Helvetica" font-size="12.0" fill="#000000" transform="matrix(1.97, 0.00, -0.00, -1.97, 562.8, 231.8)">e</text><text xml:space="preserve" font-family="Helvetica" font-size="12.0" fill="#000000" transform="matrix(1.97, 0.00, -0.00, -1.97, 575.9, 231.8)">n</text><text xml:space="preserve" font-family="Helvetica" font-size="12.0" fill="#000000" transform="matrix(1.97, 0.00, -0.00, -1.97, 589.1, 231.8)">t</text><text xml:space="preserve" font-family="Helvetica" font-size="12.0" fill="#000000" transform="matrix(1.97, 0.00, -0.00, -1.97, 595.7, 231.8)">a</text><text xml:space="preserve" font-family="Helvetica" font-size="12.0" fill="#000000" transform="matrix(1.97, 0.00, -0.00, -1.97, 608.9, 231.8)">t</text><text xml:space="preserve" font-family="Helvetica" font-size="12.0" fill="#000000" transform="matrix(1.97, 0.00, -0.00, -1.97, 615.4, 231.8)">i</text><text xml:space="preserve" font-family="Helvetica" font-size="12.0" fill="#000000" transform="matrix(1.97, 0.00, -0.00, -1.97, 620.7, 231.8)">o</text><text xml:space="preserve" font-family="Helvetica" font-size="12.0" fill="#000000" transform="matrix(1.97, 0.00, -0.00, -1.97, 633.9, 231.8)">n</text><path d="M 475.7 413.3 L 685.4 413.3 C 690.8 413.3 695.2 408.8 695.2 403.4 L 695.2 311.2 C 695.2 305.7 690.8 301.3 685.4 301.3 L 475.7 301.3 C 470.3 301.3 465.9 305.7 465.9 311.2 L 465.9 403.4 C 465.9 408.8 470.3 413.3 475.7 413.3 Z M 475.7 413.3 " fill="#D4FB78"></path><path d="M 260.1 402.7 L 366.3 402.7 C 369.1 402.5 371.3 404.8 372.1 407.5 L 372.1 454.2 C 371.3 457.0 369.1 459.2 366.3 459.7 L 260.1 459.7 C 257.4 459.2 255.1 457.0 255.1 454.2 L 255.1 407.5 C 255.1 404.8 257.4 402.5 260.1 402.7 Z M 260.1 402.7 " fill="none" stroke="#000000" stroke-width="1.00" stroke-miterlimit="0.00" stroke-linecap="round" stroke-linejoin="round" transform="matrix(1.97, 0.00, 0.00, -1.97, -37.7, 1208.2)"></path><text xml:space="preserve" font-family="Helvetica" font-size="12.0" fill="#000000" transform="matrix(1.97, 0.00, -0.00, -1.97, 501.3, 349.4)">T</text><text xml:space="preserve" font-family="Helvetica" font-size="12.0" fill="#000000" transform="matrix(1.97, 0.00, -0.00, -1.97, 514.9, 349.4)">r</text><text xml:space="preserve" font-family="Helvetica" font-size="12.0" fill="#000000" transform="matrix(1.97, 0.00, -0.00, -1.97, 522.8, 349.4)">a</text><text xml:space="preserve" font-family="Helvetica" font-size="12.0" fill="#000000" transform="matrix(1.97, 0.00, -0.00, -1.97, 536.0, 349.4)">n</text><text xml:space="preserve" font-family="Helvetica" font-size="12.0" fill="#000000" transform="matrix(1.97, 0.00, -0.00, -1.97, 549.2, 349.4)">s</text><text xml:space="preserve" font-family="Helvetica" font-size="12.0" fill="#000000" transform="matrix(1.97, 0.00, -0.00, -1.97, 561.0, 349.4)">f</text><text xml:space="preserve" font-family="Helvetica" font-size="12.0" fill="#000000" transform="matrix(1.97, 0.00, -0.00, -1.97, 567.6, 349.4)">o</text><text xml:space="preserve" font-family="Helvetica" font-size="12.0" fill="#000000" transform="matrix(1.97, 0.00, -0.00, -1.97, 580.8, 349.4)">r</text><text xml:space="preserve" font-family="Helvetica" font-size="12.0" fill="#000000" transform="matrix(1.97, 0.00, -0.00, -1.97, 588.7, 349.4)">m</text><text xml:space="preserve" font-family="Helvetica" font-size="12.0" fill="#000000" transform="matrix(1.97, 0.00, -0.00, -1.97, 608.4, 349.4)">a</text><text xml:space="preserve" font-family="Helvetica" font-size="12.0" fill="#000000" transform="matrix(1.97, 0.00, -0.00, -1.97, 621.6, 349.4)">t</text><text xml:space="preserve" font-family="Helvetica" font-size="12.0" fill="#000000" transform="matrix(1.97, 0.00, -0.00, -1.97, 628.2, 349.4)">i</text><text xml:space="preserve" font-family="Helvetica" font-size="12.0" fill="#000000" transform="matrix(1.97, 0.00, -0.00, -1.97, 633.4, 349.4)">o</text><text xml:space="preserve" font-family="Helvetica" font-size="12.0" fill="#000000" transform="matrix(1.97, 0.00, -0.00, -1.97, 646.6, 349.4)">n</text><path d="M 727.7 1057.0 C 737.6 1057.0 745.6 1049.0 745.6 1039.2 L 745.6 969.1 C 745.6 959.3 737.6 951.3 727.7 951.3 L 659.2 951.3 C 649.3 951.3 641.3 959.3 641.3 969.1 L 641.3 1039.2 C 641.3 1049.0 649.3 1057.0 659.2 1057.0 Z M 727.7 1057.0 " fill="#E77C3B"></path><text xml:space="preserve" font-family="Helvetica" font-size="12.0" fill="#000000" transform="matrix(1.97, 0.00, -0.00, -1.97, 667.8, 996.2)">B</text><text xml:space="preserve" font-family="Helvetica" font-size="12.0" fill="#000000" transform="matrix(1.97, 0.00, -0.00, -1.97, 683.6, 996.2)">A</text><text xml:space="preserve" font-family="Helvetica" font-size="12.0" fill="#000000" transform="matrix(1.97, 0.00, -0.00, -1.97, 699.4, 996.2)">M</text><path d="M 745.6 969.1 L 745.6 962.9 C 745.6 953.1 737.6 945.1 727.7 945.1 L 727.7 951.3 C 737.6 951.3 745.6 959.3 745.6 969.1 Z M 745.6 969.1 " fill="#8E4B2A"></path><path d="M 745.6 969.1 L 745.6 962.9 C 745.6 962.0 745.5 961.2 745.4 960.3 L 745.4 966.5 C 745.5 967.4 745.6 968.2 745.6 969.1 Z M 745.6 969.1 " fill="#8E4B2A"></path><path d="M 745.4 966.5 L 745.4 960.3 C 745.3 959.4 745.1 958.4 744.8 957.5 L 744.8 963.7 C 745.1 964.6 745.3 965.6 745.4 966.5 Z M 745.4 966.5 " fill="#8E4B2A"></path><path d="M 744.8 963.7 L 744.8 957.5 C 744.4 956.4 744.0 955.3 743.4 954.3 L 743.4 960.5 C 744.0 961.5 744.4 962.6 744.8 963.7 Z M 744.8 963.7 " fill="#8E4B2A"></path><path d="M 743.4 960.5 L 743.4 954.3 C 740.4 948.8 734.5 945.1 727.7 945.1 L 727.7 951.3 C 734.5 951.3 740.4 955.0 743.4 960.5 Z M 743.4 960.5 " fill="#8E4B2A"></path><path d="M 658.5 951.3 L 727.8 951.3 L 727.8 945.1 L 658.5 945.1 Z M 658.5 951.3 " fill="#8E4B2A"></path><path d="M 659.2 951.3 L 659.2 945.1 C 649.3 945.1 641.3 953.1 641.3 962.9 L 641.3 969.1 C 641.3 959.3 649.3 951.3 659.2 951.3 Z M 659.2 951.3 " fill="#8E4B2A"></path><path d="M 660.0 951.3 L 660.0 945.1 C 650.1 945.1 641.3 953.1 641.3 962.9 L 641.3 969.1 C 641.3 959.3 649.3 951.3 660.0 951.3 Z M 660.0 951.3 " fill="#8E4B2A"></path><path d="M 258.2 799.5 C 270.9 799.5 281.2 791.6 281.2 781.7 L 281.2 711.7 C 281.2 701.8 270.9 693.9 258.2 693.9 L 170.1 693.9 C 157.3 693.9 147.0 701.8 147.0 711.7 L 147.0 781.7 C 147.0 791.6 157.3 799.5 170.1 799.5 Z M 258.2 799.5 " fill="#E77C3B"></path><text xml:space="preserve" font-family="Helvetica" font-size="12.0" fill="#000000" transform="matrix(1.97, 0.00, -0.00, -1.97, 167.4, 752.6)">E</text><text xml:space="preserve" font-family="Helvetica" font-size="12.0" fill="#000000" transform="matrix(1.97, 0.00, -0.00, -1.97, 183.2, 752.6)">q</text><text xml:space="preserve" font-family="Helvetica" font-size="12.0" fill="#000000" transform="matrix(1.97, 0.00, -0.00, -1.97, 196.3, 752.6)">u</text><text xml:space="preserve" font-family="Helvetica" font-size="12.0" fill="#000000" transform="matrix(1.97, 0.00, -0.00, -1.97, 209.5, 752.6)">a</text><text xml:space="preserve" font-family="Helvetica" font-size="12.0" fill="#000000" transform="matrix(1.97, 0.00, -0.00, -1.97, 222.7, 752.6)">t</text><text xml:space="preserve" font-family="Helvetica" font-size="12.0" fill="#000000" transform="matrix(1.97, 0.00, -0.00, -1.97, 229.3, 752.6)">i</text><text xml:space="preserve" font-family="Helvetica" font-size="12.0" fill="#000000" transform="matrix(1.97, 0.00, -0.00, -1.97, 234.5, 752.6)">o</text><text xml:space="preserve" font-family="Helvetica" font-size="12.0" fill="#000000" transform="matrix(1.97, 0.00, -0.00, -1.97, 247.7, 752.6)">n</text><text xml:space="preserve" font-family="Helvetica" font-size="12.0" fill="#000000" transform="matrix(1.97, 0.00, -0.00, -1.97, 260.9, 752.6)"> </text><text xml:space="preserve" font-family="Helvetica" font-size="12.0" fill="#000000" transform="matrix(1.97, 0.00, -0.00, -1.97, 189.1, 725.0)">C</text><text xml:space="preserve" font-family="Helvetica" font-size="12.0" fill="#000000" transform="matrix(1.97, 0.00, -0.00, -1.97, 206.2, 725.0)">h</text><text xml:space="preserve" font-family="Helvetica" font-size="12.0" fill="#000000" transform="matrix(1.97, 0.00, -0.00, -1.97, 219.4, 725.0)">e</text><text xml:space="preserve" font-family="Helvetica" font-size="12.0" fill="#000000" transform="matrix(1.97, 0.00, -0.00, -1.97, 232.6, 725.0)">f</text><path d="M 281.2 711.7 L 281.2 705.5 C 281.2 695.6 270.9 687.7 258.2 687.7 L 258.2 693.9 C 270.9 693.9 281.2 701.8 281.2 711.7 Z M 281.2 711.7 " fill="#8E4B2A"></path><path d="M 281.2 711.7 L 281.2 705.5 C 281.2 704.6 281.1 703.7 281.0 702.9 L 281.0 709.1 C 281.1 709.9 281.2 710.8 281.2 711.7 Z M 281.2 711.7 " fill="#8E4B2A"></path><path d="M 281.0 709.1 L 281.0 702.9 C 280.8 701.9 280.5 701.0 280.1 700.0 L 280.1 706.2 C 280.5 707.2 280.8 708.1 281.0 709.1 Z M 281.0 709.1 " fill="#8E4B2A"></path><path d="M 280.1 706.2 L 280.1 700.0 C 279.7 698.9 279.1 697.9 278.4 696.9 L 278.4 703.1 C 279.1 704.1 279.7 705.1 280.1 706.2 Z M 280.1 706.2 " fill="#8E4B2A"></path><path d="M 278.4 703.1 L 278.4 696.9 C 274.5 691.4 266.9 687.7 258.2 687.7 L 258.2 693.9 C 266.9 693.9 274.5 697.6 278.4 703.1 Z M 278.4 703.1 " fill="#8E4B2A"></path><path d="M 169.1 693.9 L 258.4 693.9 L 258.4 687.7 L 169.1 687.7 Z M 169.1 693.9 " fill="#8E4B2A"></path><path d="M 170.1 693.9 L 170.1 687.7 C 157.3 687.7 147.0 695.6 147.0 705.5 L 147.0 711.7 C 147.0 701.8 157.3 693.9 170.1 693.9 Z M 170.1 693.9 " fill="#8E4B2A"></path><path d="M 171.0 693.9 L 171.0 687.7 C 158.3 687.7 147.0 695.6 147.0 705.5 L 147.0 711.7 C 147.0 701.8 157.3 693.9 171.0 693.9 Z M 171.0 693.9 " fill="#8E4B2A"></path><path d="M 470.6 234.7 L 311.8 240.9 " fill="none" stroke="#000000" stroke-width="1.00" stroke-miterlimit="0.00" stroke-linecap="round" transform="matrix(1.97, 0.00, 0.00, -1.97, -37.7, 1208.2)"></path><path d="M 161.6 236.2 L 320.9 240.6 " fill="none" stroke="#000000" stroke-width="1.00" stroke-miterlimit="0.00" stroke-linecap="round" transform="matrix(1.97, 0.00, 0.00, -1.97, -37.7, 1208.2)"></path><path d="M 358.4 133.2 L 312.7 240.4 " fill="none" stroke="#000000" stroke-width="1.00" stroke-miterlimit="0.00" stroke-linecap="round" transform="matrix(1.97, 0.00, 0.00, -1.97, -37.7, 1208.2)"></path><text xml:space="preserve" font-family="HelveticaNeue" font-size="16.0" fill="#000000" transform="matrix(1.97, 0.00, -0.00, -1.97, 470.6, 860.5)">D</text><text xml:space="preserve" font-family="HelveticaNeue" font-size="16.0" fill="#000000" transform="matrix(1.97, 0.00, -0.00, -1.97, 492.9, 860.5)">a</text><text xml:space="preserve" font-family="HelveticaNeue" font-size="16.0" fill="#000000" transform="matrix(1.97, 0.00, -0.00, -1.97, 509.8, 860.5)">t</text><text xml:space="preserve" font-family="HelveticaNeue" font-size="16.0" fill="#000000" transform="matrix(1.97, 0.00, -0.00, -1.97, 519.8, 860.5)">a</text><text xml:space="preserve" font-family="HelveticaNeue" font-size="16.0" fill="#000000" transform="matrix(1.97, 0.00, -0.00, -1.97, 536.7, 860.5)"> </text><text xml:space="preserve" font-family="HelveticaNeue" font-size="16.0" fill="#000000" transform="matrix(1.97, 0.00, -0.00, -1.97, 545.5, 860.5)">P</text><text xml:space="preserve" font-family="HelveticaNeue" font-size="16.0" fill="#000000" transform="matrix(1.97, 0.00, -0.00, -1.97, 566.0, 860.5)">r</text><text xml:space="preserve" font-family="HelveticaNeue" font-size="16.0" fill="#000000" transform="matrix(1.97, 0.00, -0.00, -1.97, 575.9, 860.5)">o</text><text xml:space="preserve" font-family="HelveticaNeue" font-size="16.0" fill="#000000" transform="matrix(1.97, 0.00, -0.00, -1.97, 594.1, 860.5)">v</text><text xml:space="preserve" font-family="HelveticaNeue" font-size="16.0" fill="#000000" transform="matrix(1.97, 0.00, -0.00, -1.97, 609.8, 860.5)">i</text><text xml:space="preserve" font-family="HelveticaNeue" font-size="16.0" fill="#000000" transform="matrix(1.97, 0.00, -0.00, -1.97, 616.9, 860.5)">d</text><text xml:space="preserve" font-family="HelveticaNeue" font-size="16.0" fill="#000000" transform="matrix(1.97, 0.00, -0.00, -1.97, 635.6, 860.5)">e</text><text xml:space="preserve" font-family="HelveticaNeue" font-size="16.0" fill="#000000" transform="matrix(1.97, 0.00, -0.00, -1.97, 652.5, 860.5)">r</text><text xml:space="preserve" font-family="HelveticaNeue" font-size="16.0" fill="#000000" transform="matrix(1.97, 0.00, -0.00, -1.97, 663.1, 860.5)">s</text><path d="M 288.7 133.1 L 314.1 240.4 " fill="none" stroke="#000000" stroke-width="1.00" stroke-miterlimit="0.00" stroke-linecap="round" transform="matrix(1.97, 0.00, 0.00, -1.97, -37.7, 1208.2)"></path></g></g></g></svg>