<?xml version="1.0" encoding="UTF-8" standalone="no"?><svg xmlns="http://www.w3.org/2000/svg" xmlns:xlink="http://www.w3.org/1999/xlink" clip-rule="evenodd" stroke-miterlimit="4.00" viewBox="0 0 1920 1080"><desc>SVG generated by Keynote</desc><defs></defs><g transform="matrix(1.00, 0.00, -0.00, -1.00, 0.0, 1080.0)"><path d="M 0.0 1080.0 L 1920.0 1080.0 L 1920.0 0.0 L 0.0 0.0 Z M 0.0 1080.0 " fill="#EEEDED"></path><g><clipPath id="clip-28"><path d="M 1001.0 818.0 L 1801.0 818.0 L 1801.0 170.0 L 1001.0 170.0 Z M 1000.9 818.2 "></path></clipPath><g clip-path="url(#clip-28)"><image xlink:href="../../FFB2FAA0-A777-4347-A25A-236A22361D9D/assets/2924136BE33F623B460CB0CABF1BDEB3.png" width="537.00" height="540.00" transform="matrix(1.49, 0.00, -0.00, -1.49, 1001.0, 973.0)"></image></g></g><path d="M 0.0 0.0 L 1836.0 0.0 " fill="none" stroke="#000000" stroke-width="2.00" transform="matrix(1.00, 0.00, 0.00, -1.00, 41.0, 58.0)"></path><text xml:space="preserve" font-family="HelveticaNeue-Bold" font-weight="bold" font-size="23.0" fill="#000000" transform="matrix(1.00, 0.00, -0.00, -1.00, 61.0, 24.0)">M</text><text xml:space="preserve" font-family="HelveticaNeue-Bold" font-weight="bold" font-size="23.0" fill="#000000" transform="matrix(1.00, 0.00, -0.00, -1.00, 81.9, 24.0)">i</text><text xml:space="preserve" font-family="HelveticaNeue-Bold" font-weight="bold" font-size="23.0" fill="#000000" transform="matrix(1.00, 0.00, -0.00, -1.00, 87.8, 24.0)">c</text><text xml:space="preserve" font-family="HelveticaNeue-Bold" font-weight="bold" font-size="23.0" fill="#000000" transform="matrix(1.00, 0.00, -0.00, -1.00, 101.0, 24.0)">r</text><text xml:space="preserve" font-family="HelveticaNeue-Bold" font-weight="bold" font-size="23.0" fill="#000000" transform="matrix(1.00, 0.00, -0.00, -1.00, 109.5, 24.0)">o</text><text xml:space="preserve" font-family="HelveticaNeue-Bold" font-weight="bold" font-size="23.0" fill="#000000" transform="matrix(1.00, 0.00, -0.00, -1.00, 123.6, 24.0)">s</text><text xml:space="preserve" font-family="HelveticaNeue-Bold" font-weight="bold" font-size="23.0" fill="#000000" transform="matrix(1.00, 0.00, -0.00, -1.00, 135.9, 24.0)">e</text><text xml:space="preserve" font-family="HelveticaNeue-Bold" font-weight="bold" font-size="23.0" fill="#000000" transform="matrix(1.00, 0.00, -0.00, -1.00, 149.1, 24.0)">r</text><text xml:space="preserve" font-family="HelveticaNeue-Bold" font-weight="bold" font-size="23.0" fill="#000000" transform="matrix(1.00, 0.00, -0.00, -1.00, 158.1, 24.0)">v</text><text xml:space="preserve" font-family="HelveticaNeue-Bold" font-weight="bold" font-size="23.0" fill="#000000" transform="matrix(1.00, 0.00, -0.00, -1.00, 170.0, 24.0)">i</text><text xml:space="preserve" font-family="HelveticaNeue-Bold" font-weight="bold" font-size="23.0" fill="#000000" transform="matrix(1.00, 0.00, -0.00, -1.00, 176.0, 24.0)">c</text><text xml:space="preserve" font-family="HelveticaNeue-Bold" font-weight="bold" font-size="23.0" fill="#000000" transform="matrix(1.00, 0.00, -0.00, -1.00, 189.2, 24.0)">e</text><text xml:space="preserve" font-family="HelveticaNeue-Bold" font-weight="bold" font-size="23.0" fill="#000000" transform="matrix(1.00, 0.00, -0.00, -1.00, 202.4, 24.0)">s</text><text xml:space="preserve" font-family="HelveticaNeue-Bold" font-weight="bold" font-size="23.0" fill="#000000" transform="matrix(1.00, 0.00, -0.00, -1.00, 214.7, 24.0)"> </text><text xml:space="preserve" font-family="HelveticaNeue-Bold" font-weight="bold" font-size="23.0" fill="#000000" transform="matrix(1.00, 0.00, -0.00, -1.00, 221.1, 24.0)">i</text><text xml:space="preserve" font-family="HelveticaNeue-Bold" font-weight="bold" font-size="23.0" fill="#000000" transform="matrix(1.00, 0.00, -0.00, -1.00, 227.1, 24.0)">n</text><text xml:space="preserve" font-family="HelveticaNeue-Bold" font-weight="bold" font-size="23.0" fill="#000000" transform="matrix(1.00, 0.00, -0.00, -1.00, 240.7, 24.0)"> </text><text xml:space="preserve" font-family="HelveticaNeue-Bold" font-weight="bold" font-size="23.0" fill="#000000" transform="matrix(1.00, 0.00, -0.00, -1.00, 247.1, 24.0)">t</text><text xml:space="preserve" font-family="HelveticaNeue-Bold" font-weight="bold" font-size="23.0" fill="#000000" transform="matrix(1.00, 0.00, -0.00, -1.00, 255.2, 24.0)">h</text><text xml:space="preserve" font-family="HelveticaNeue-Bold" font-weight="bold" font-size="23.0" fill="#000000" transform="matrix(1.00, 0.00, -0.00, -1.00, 268.8, 24.0)">e</text><text xml:space="preserve" font-family="HelveticaNeue-Bold" font-weight="bold" font-size="23.0" fill="#000000" transform="matrix(1.00, 0.00, -0.00, -1.00, 282.0, 24.0)"> </text><text xml:space="preserve" font-family="HelveticaNeue-Bold" font-weight="bold" font-size="23.0" fill="#000000" transform="matrix(1.00, 0.00, -0.00, -1.00, 288.4, 24.0)">W</text><text xml:space="preserve" font-family="HelveticaNeue-Bold" font-weight="bold" font-size="23.0" fill="#000000" transform="matrix(1.00, 0.00, -0.00, -1.00, 310.1, 24.0)">i</text><text xml:space="preserve" font-family="HelveticaNeue-Bold" font-weight="bold" font-size="23.0" fill="#000000" transform="matrix(1.00, 0.00, -0.00, -1.00, 316.1, 24.0)">l</text><text xml:space="preserve" font-family="HelveticaNeue-Bold" font-weight="bold" font-size="23.0" fill="#000000" transform="matrix(1.00, 0.00, -0.00, -1.00, 322.0, 24.0)">d</text><image xlink:href="../../D0517147-4847-4A0F-8B98-32B995C105A1/assets/0BF8E63FE00997E10C4EC11A1CFD77DD.png" width="97.00" height="27.00" transform="matrix(1.00, 0.00, -0.00, -1.00, 1751.0, 44.0)"></image><g><clipPath id="clip-29"><path d="M 1005.4 886.3 L 1920.0 886.3 L 1920.0 999.3 L 1005.4 999.3 Z M 1005.4 886.3 "></path></clipPath><g clip-path="url(#clip-29)"><text xml:space="preserve" font-family="HelveticaNeue-Bold" font-weight="bold" font-size="98.0" fill="#282828" transform="matrix(1.00, 0.00, -0.00, -1.00, 1035.0, 903.0)">B</text><text xml:space="preserve" font-family="HelveticaNeue-Bold" font-weight="bold" font-size="98.0" fill="#282828" transform="matrix(1.00, 0.00, -0.00, -1.00, 1104.0, 903.0)">i</text><text xml:space="preserve" font-family="HelveticaNeue-Bold" font-weight="bold" font-size="98.0" fill="#282828" transform="matrix(1.00, 0.00, -0.00, -1.00, 1129.3, 903.0)">t</text><text xml:space="preserve" font-family="HelveticaNeue-Bold" font-weight="bold" font-size="98.0" fill="#282828" transform="matrix(1.00, 0.00, -0.00, -1.00, 1163.8, 903.0)">e</text><text xml:space="preserve" font-family="HelveticaNeue-Bold" font-weight="bold" font-size="98.0" fill="#282828" transform="matrix(1.00, 0.00, -0.00, -1.00, 1220.0, 903.0)">s</text><text xml:space="preserve" font-family="HelveticaNeue-Bold" font-weight="bold" font-size="98.0" fill="#282828" transform="matrix(1.00, 0.00, -0.00, -1.00, 1272.7, 903.0)">i</text><text xml:space="preserve" font-family="HelveticaNeue-Bold" font-weight="bold" font-size="98.0" fill="#282828" transform="matrix(1.00, 0.00, -0.00, -1.00, 1297.9, 903.0)">z</text><text xml:space="preserve" font-family="HelveticaNeue-Bold" font-weight="bold" font-size="98.0" fill="#282828" transform="matrix(1.00, 0.00, -0.00, -1.00, 1348.8, 903.0)">e</text><text xml:space="preserve" font-family="HelveticaNeue-Bold" font-weight="bold" font-size="98.0" fill="#282828" transform="matrix(1.00, 0.00, -0.00, -1.00, 1405.0, 903.0)"> </text><text xml:space="preserve" font-family="HelveticaNeue-Bold" font-weight="bold" font-size="98.0" fill="#282828" transform="matrix(1.00, 0.00, -0.00, -1.00, 1432.3, 903.0)">w</text><text xml:space="preserve" font-family="HelveticaNeue-Bold" font-weight="bold" font-size="98.0" fill="#282828" transform="matrix(1.00, 0.00, -0.00, -1.00, 1512.1, 903.0)">e</text><text xml:space="preserve" font-family="HelveticaNeue-Bold" font-weight="bold" font-size="98.0" fill="#282828" transform="matrix(1.00, 0.00, -0.00, -1.00, 1568.3, 903.0)">b</text><text xml:space="preserve" font-family="HelveticaNeue-Bold" font-weight="bold" font-size="98.0" fill="#282828" transform="matrix(1.00, 0.00, -0.00, -1.00, 1628.2, 903.0)">s</text><text xml:space="preserve" font-family="HelveticaNeue-Bold" font-weight="bold" font-size="98.0" fill="#282828" transform="matrix(1.00, 0.00, -0.00, -1.00, 1680.8, 903.0)">i</text><text xml:space="preserve" font-family="HelveticaNeue-Bold" font-weight="bold" font-size="98.0" fill="#282828" transform="matrix(1.00, 0.00, -0.00, -1.00, 1706.1, 903.0)">t</text><text xml:space="preserve" font-family="HelveticaNeue-Bold" font-weight="bold" font-size="98.0" fill="#282828" transform="matrix(1.00, 0.00, -0.00, -1.00, 1740.6, 903.0)">e</text></g></g><g><clipPath id="clip-30"><path d="M 147.0 164.0 L 970.1 164.0 L 970.1 1055.7 L 147.0 1055.7 Z M 147.0 164.0 "></path></clipPath><g clip-path="url(#clip-30)"><path d="M 419.8 721.6 L 735.7 721.6 C 741.2 721.6 745.6 717.1 745.6 711.7 L 745.6 177.8 C 745.6 172.4 741.2 167.9 735.7 167.9 L 419.8 167.9 C 414.3 167.9 409.9 172.4 409.9 177.8 L 409.9 711.7 C 409.9 717.1 414.3 721.6 419.8 721.6 Z M 419.8 721.6 " fill="#FEFFFF"></path><path d="M 232.1 246.7 L 391.9 246.7 C 394.6 246.6 396.9 248.9 397.1 251.6 L 397.1 522.2 C 396.9 525.0 394.6 527.2 391.9 527.7 L 231.8 527.7 C 229.0 527.2 226.8 525.0 227.1 522.2 L 227.1 251.6 C 226.8 248.9 229.0 246.6 232.1 246.7 Z M 232.1 246.7 " fill="none" stroke="#236FB9" stroke-width="1.00" stroke-miterlimit="0.00" stroke-linecap="round" stroke-linejoin="round" transform="matrix(1.97, 0.00, 0.00, -1.97, -37.7, 1208.1)"></path><path d="M 475.7 647.9 L 685.4 647.9 C 690.8 647.9 695.2 643.5 695.2 638.0 L 695.2 545.9 C 695.2 540.5 690.8 536.0 685.4 536.0 L 475.7 536.0 C 470.3 536.0 465.9 540.5 465.9 545.9 L 465.9 638.0 C 465.9 643.5 470.3 647.9 475.7 647.9 Z M 475.7 647.9 " fill="#00FCFF"></path><path d="M 260.1 283.7 L 366.3 283.7 C 369.1 284.0 371.3 286.2 372.1 289.0 L 372.1 335.7 C 371.3 338.4 369.1 340.7 366.3 340.7 L 260.1 340.7 C 257.4 340.7 255.1 338.4 255.1 335.7 L 255.1 289.0 C 255.1 286.2 257.4 284.0 260.1 283.7 Z M 260.1 283.7 " fill="none" stroke="#000000" stroke-width="1.00" stroke-miterlimit="0.00" stroke-linecap="round" stroke-linejoin="round" transform="matrix(1.97, 0.00, 0.00, -1.97, -37.7, 1208.1)"></path><text xml:space="preserve" font-family="Helvetica" font-size="12.0" fill="#000000" transform="matrix(1.97, 0.00, -0.00, -1.97, 535.1, 584.1)">F</text><text xml:space="preserve" font-family="Helvetica" font-size="12.0" fill="#000000" transform="matrix(1.97, 0.00, -0.00, -1.97, 549.6, 584.1)">e</text><text xml:space="preserve" font-family="Helvetica" font-size="12.0" fill="#000000" transform="matrix(1.97, 0.00, -0.00, -1.97, 562.8, 584.1)">t</text><text xml:space="preserve" font-family="Helvetica" font-size="12.0" fill="#000000" transform="matrix(1.97, 0.00, -0.00, -1.97, 569.3, 584.1)">c</text><text xml:space="preserve" font-family="Helvetica" font-size="12.0" fill="#000000" transform="matrix(1.97, 0.00, -0.00, -1.97, 581.2, 584.1)">h</text><text xml:space="preserve" font-family="Helvetica" font-size="12.0" fill="#000000" transform="matrix(1.97, 0.00, -0.00, -1.97, 594.4, 584.1)">i</text><text xml:space="preserve" font-family="Helvetica" font-size="12.0" fill="#000000" transform="matrix(1.97, 0.00, -0.00, -1.97, 599.6, 584.1)">n</text><text xml:space="preserve" font-family="Helvetica" font-size="12.0" fill="#000000" transform="matrix(1.97, 0.00, -0.00, -1.97, 612.8, 584.1)">g</text><path d="M 475.7 530.4 L 685.4 530.4 C 690.8 530.4 695.2 526.0 695.2 520.6 L 695.2 428.5 C 695.2 423.0 690.8 418.6 685.4 418.6 L 475.7 418.6 C 470.3 418.6 465.9 423.0 465.9 428.5 L 465.9 520.6 C 465.9 526.0 470.3 530.4 475.7 530.4 Z M 475.7 530.4 " fill="#FF89D8"></path><path d="M 260.1 343.7 L 366.3 343.7 C 369.1 343.5 371.3 345.7 372.1 348.5 L 372.1 395.2 C 371.3 397.9 369.1 400.2 366.3 400.7 L 260.1 400.7 C 257.4 400.2 255.1 397.9 255.1 395.2 L 255.1 348.5 C 255.1 345.7 257.4 343.5 260.1 343.7 Z M 260.1 343.7 " fill="none" stroke="#000000" stroke-width="1.00" stroke-miterlimit="0.00" stroke-linecap="round" stroke-linejoin="round" transform="matrix(1.97, 0.00, 0.00, -1.97, -37.7, 1208.1)"></path><text xml:space="preserve" font-family="Helvetica" font-size="12.0" fill="#000000" transform="matrix(1.97, 0.00, -0.00, -1.97, 516.7, 466.6)">A</text><text xml:space="preserve" font-family="Helvetica" font-size="12.0" fill="#000000" transform="matrix(1.97, 0.00, -0.00, -1.97, 532.5, 466.6)">g</text><text xml:space="preserve" font-family="Helvetica" font-size="12.0" fill="#000000" transform="matrix(1.97, 0.00, -0.00, -1.97, 545.7, 466.6)">g</text><text xml:space="preserve" font-family="Helvetica" font-size="12.0" fill="#000000" transform="matrix(1.97, 0.00, -0.00, -1.97, 558.8, 466.6)">r</text><text xml:space="preserve" font-family="Helvetica" font-size="12.0" fill="#000000" transform="matrix(1.97, 0.00, -0.00, -1.97, 566.7, 466.6)">e</text><text xml:space="preserve" font-family="Helvetica" font-size="12.0" fill="#000000" transform="matrix(1.97, 0.00, -0.00, -1.97, 579.9, 466.6)">g</text><text xml:space="preserve" font-family="Helvetica" font-size="12.0" fill="#000000" transform="matrix(1.97, 0.00, -0.00, -1.97, 593.1, 466.6)">a</text><text xml:space="preserve" font-family="Helvetica" font-size="12.0" fill="#000000" transform="matrix(1.97, 0.00, -0.00, -1.97, 606.3, 466.6)">t</text><text xml:space="preserve" font-family="Helvetica" font-size="12.0" fill="#000000" transform="matrix(1.97, 0.00, -0.00, -1.97, 612.8, 466.6)">i</text><text xml:space="preserve" font-family="Helvetica" font-size="12.0" fill="#000000" transform="matrix(1.97, 0.00, -0.00, -1.97, 618.1, 466.6)">o</text><text xml:space="preserve" font-family="Helvetica" font-size="12.0" fill="#000000" transform="matrix(1.97, 0.00, -0.00, -1.97, 631.3, 466.6)">n</text><path d="M 309.2 822.2 L 309.2 911.7 C 309.2 917.9 333.0 922.9 362.3 922.9 C 391.7 922.9 415.5 917.9 415.5 911.7 L 415.5 822.2 C 415.5 816.0 391.7 811.0 362.3 811.0 C 333.0 811.0 309.2 816.0 309.2 822.2 " fill="#FEFFFF"></path><path d="M 176.1 195.6 L 176.1 150.2 C 175.7 147.1 187.8 144.6 202.7 144.6 C 217.5 144.6 229.6 147.1 230.1 150.2 L 230.1 195.6 C 229.6 198.7 217.5 201.3 202.7 201.3 C 187.8 201.3 175.7 198.7 175.7 195.6 M 175.7 150.2 C 175.7 153.4 187.8 155.9 202.7 155.9 C 217.5 155.9 229.6 153.4 229.6 150.2 " fill="none" stroke="#000000" stroke-width="1.00" stroke-miterlimit="0.00" stroke-linecap="round" stroke-linejoin="round" transform="matrix(1.97, 0.00, 0.00, -1.97, -37.7, 1208.1)"></path><text xml:space="preserve" font-family="Helvetica" font-size="12.0" fill="#000000" transform="matrix(1.97, 0.00, -0.00, -1.97, 339.3, 853.5)">i</text><text xml:space="preserve" font-family="Helvetica" font-size="12.0" fill="#000000" transform="matrix(1.97, 0.00, -0.00, -1.97, 344.6, 853.5)">S</text><text xml:space="preserve" font-family="Helvetica" font-size="12.0" fill="#000000" transform="matrix(1.97, 0.00, -0.00, -1.97, 360.4, 853.5)">i</text><text xml:space="preserve" font-family="Helvetica" font-size="12.0" fill="#000000" transform="matrix(1.97, 0.00, -0.00, -1.97, 365.6, 853.5)">t</text><text xml:space="preserve" font-family="Helvetica" font-size="12.0" fill="#000000" transform="matrix(1.97, 0.00, -0.00, -1.97, 372.2, 853.5)">e</text><path d="M 971.5 702.4 L 971.5 697.5 C 971.5 694.2 968.9 691.6 965.6 691.6 L 965.6 696.5 C 968.9 696.5 971.5 699.2 971.5 702.4 Z M 971.5 702.4 " fill="#414341"></path><path d="M 971.5 702.4 L 971.5 697.5 C 971.5 697.2 971.5 696.9 971.5 696.6 L 971.5 701.6 C 971.5 701.8 971.5 702.1 971.5 702.4 Z M 971.5 702.4 " fill="#414341"></path><path d="M 971.5 701.6 L 971.5 696.6 C 971.4 696.3 971.4 696.0 971.3 695.7 L 971.3 700.6 C 971.4 700.9 971.4 701.2 971.5 701.6 Z M 971.5 701.6 " fill="#414341"></path><path d="M 971.3 700.6 L 971.3 695.7 C 971.1 695.3 971.0 695.0 970.8 694.6 L 970.8 699.6 C 971.0 699.9 971.1 700.3 971.3 700.6 Z M 971.3 700.6 " fill="#414341"></path><path d="M 970.8 699.6 L 970.8 694.6 C 969.8 692.8 967.9 691.6 965.6 691.6 L 965.6 696.5 C 967.9 696.5 969.8 697.8 970.8 699.6 Z M 970.8 699.6 " fill="#414341"></path><path d="M 968.2 697.5 L 965.6 691.6 L 897.0 691.6 L 895.4 697.8 Z M 968.2 697.5 " fill="#414341"></path><path d="M 897.0 696.5 L 897.0 691.6 C 893.7 691.6 891.1 694.2 891.1 697.5 L 891.1 702.4 C 891.1 699.2 893.7 696.5 897.0 696.5 Z M 897.0 696.5 " fill="#414341"></path><path d="M 897.0 696.5 L 897.0 691.6 C 893.7 691.6 891.1 694.2 891.1 697.5 L 891.1 702.4 C 891.1 699.2 893.7 696.5 897.0 696.5 Z M 897.0 696.5 " fill="#414341"></path><path d="M 965.6 801.7 C 968.9 801.7 971.5 799.1 971.5 795.9 L 971.5 702.4 C 971.5 699.2 968.9 696.5 965.6 696.5 L 897.0 696.5 C 893.7 696.5 891.1 699.2 891.1 702.4 L 891.1 795.9 C 891.1 799.1 893.7 801.7 897.0 801.7 Z M 965.6 801.7 " fill="#666967"></path><path d="M 903.4 786.5 L 959.2 786.5 L 959.2 780.0 L 903.4 780.0 Z M 903.4 774.9 L 959.2 774.9 L 959.2 768.4 L 903.4 768.4 Z M 903.4 763.9 L 959.2 763.9 L 959.2 757.3 L 903.4 757.3 Z M 903.4 763.9 " fill="#FFFEFE"></path><text xml:space="preserve" font-family="Helvetica" font-size="12.0" fill="#000000" transform="matrix(1.97, 0.00, -0.00, -1.97, 901.3, 653.5)">A</text><text xml:space="preserve" font-family="Helvetica" font-size="12.0" fill="#000000" transform="matrix(1.97, 0.00, -0.00, -1.97, 917.1, 653.5)">c</text><text xml:space="preserve" font-family="Helvetica" font-size="12.0" fill="#000000" transform="matrix(1.97, 0.00, -0.00, -1.97, 928.9, 653.5)">m</text><text xml:space="preserve" font-family="Helvetica" font-size="12.0" fill="#000000" transform="matrix(1.97, 0.00, -0.00, -1.97, 948.6, 653.5)">e</text><text xml:space="preserve" font-family="HelveticaNeue" font-size="16.0" fill="#000000" transform="matrix(1.97, 0.00, -0.00, -1.97, 513.9, 676.2)">B</text><text xml:space="preserve" font-family="HelveticaNeue" font-size="16.0" fill="#000000" transform="matrix(1.97, 0.00, -0.00, -1.97, 535.5, 676.2)">i</text><text xml:space="preserve" font-family="HelveticaNeue" font-size="16.0" fill="#000000" transform="matrix(1.97, 0.00, -0.00, -1.97, 542.6, 676.2)">t</text><text xml:space="preserve" font-family="HelveticaNeue" font-size="16.0" fill="#000000" transform="matrix(1.97, 0.00, -0.00, -1.97, 552.5, 676.2)">e</text><text xml:space="preserve" font-family="HelveticaNeue" font-size="16.0" fill="#000000" transform="matrix(1.97, 0.00, -0.00, -1.97, 569.5, 676.2)">s</text><text xml:space="preserve" font-family="HelveticaNeue" font-size="16.0" fill="#000000" transform="matrix(1.97, 0.00, -0.00, -1.97, 585.2, 676.2)">i</text><text xml:space="preserve" font-family="HelveticaNeue" font-size="16.0" fill="#000000" transform="matrix(1.97, 0.00, -0.00, -1.97, 592.3, 676.2)">z</text><text xml:space="preserve" font-family="HelveticaNeue" font-size="16.0" fill="#000000" transform="matrix(1.97, 0.00, -0.00, -1.97, 607.4, 676.2)">e</text><path d="M 229.6 189.7 L 311.8 240.9 " fill="none" stroke="#000000" stroke-width="1.00" stroke-miterlimit="0.00" stroke-linecap="round" transform="matrix(1.97, 0.00, 0.00, -1.97, -37.7, 1208.1)"></path><path d="M 734.4 822.2 L 734.4 911.7 C 734.4 917.9 758.2 922.9 787.6 922.9 C 816.9 922.9 840.7 917.9 840.7 911.7 L 840.7 822.2 C 840.7 816.0 816.9 811.0 787.6 811.0 C 758.2 811.0 734.4 816.0 734.4 822.2 " fill="#FEFFFF"></path><path d="M 391.1 195.6 L 391.1 150.2 C 391.2 147.1 403.2 144.6 418.1 144.6 C 433.0 144.6 445.0 147.1 445.1 150.2 L 445.1 195.6 C 445.0 198.7 433.0 201.3 418.1 201.3 C 403.2 201.3 391.2 198.7 391.2 195.6 M 391.2 150.2 C 391.2 153.4 403.2 155.9 418.1 155.9 C 433.0 155.9 445.0 153.4 445.0 150.2 " fill="none" stroke="#000000" stroke-width="1.00" stroke-miterlimit="0.00" stroke-linecap="round" stroke-linejoin="round" transform="matrix(1.97, 0.00, 0.00, -1.97, -37.7, 1208.1)"></path><text xml:space="preserve" font-family="Helvetica" font-size="12.0" fill="#000000" transform="matrix(1.97, 0.00, -0.00, -1.97, 762.6, 853.5)">N</text><text xml:space="preserve" font-family="Helvetica" font-size="12.0" fill="#000000" transform="matrix(1.97, 0.00, -0.00, -1.97, 779.7, 853.5)">i</text><text xml:space="preserve" font-family="Helvetica" font-size="12.0" fill="#000000" transform="matrix(1.97, 0.00, -0.00, -1.97, 784.9, 853.5)">t</text><text xml:space="preserve" font-family="Helvetica" font-size="12.0" fill="#000000" transform="matrix(1.97, 0.00, -0.00, -1.97, 791.5, 853.5)">r</text><text xml:space="preserve" font-family="Helvetica" font-size="12.0" fill="#000000" transform="matrix(1.97, 0.00, -0.00, -1.97, 799.4, 853.5)">o</text><path d="M 391.2 190.1 L 311.8 240.9 " fill="none" stroke="#000000" stroke-width="1.00" stroke-miterlimit="0.00" stroke-linecap="round" transform="matrix(1.97, 0.00, 0.00, -1.97, -37.7, 1208.1)"></path><path d="M 475.7 296.6 L 685.4 296.6 C 690.8 296.6 695.2 292.1 695.2 286.7 L 695.2 194.6 C 695.2 189.1 690.8 184.7 685.4 184.7 L 475.7 184.7 C 470.3 184.7 465.9 189.1 465.9 194.6 L 465.9 286.7 C 465.9 292.1 470.3 296.6 475.7 296.6 Z M 475.7 296.6 " fill="#FFD478"></path><path d="M 260.1 462.7 L 366.3 462.7 C 369.1 462.0 371.3 464.3 372.1 467.0 L 372.1 513.7 C 371.3 516.5 369.1 518.7 366.3 518.7 L 260.1 518.7 C 257.4 518.7 255.1 516.5 255.1 513.7 L 255.1 467.0 C 255.1 464.3 257.4 462.0 260.1 462.7 Z M 260.1 462.7 " fill="none" stroke="#000000" stroke-width="1.00" stroke-miterlimit="0.00" stroke-linecap="round" stroke-linejoin="round" transform="matrix(1.97, 0.00, 0.00, -1.97, -37.7, 1208.1)"></path><text xml:space="preserve" font-family="Helvetica" font-size="12.0" fill="#000000" transform="matrix(1.97, 0.00, -0.00, -1.97, 514.1, 232.8)">P</text><text xml:space="preserve" font-family="Helvetica" font-size="12.0" fill="#000000" transform="matrix(1.97, 0.00, -0.00, -1.97, 529.9, 232.8)">r</text><text xml:space="preserve" font-family="Helvetica" font-size="12.0" fill="#000000" transform="matrix(1.97, 0.00, -0.00, -1.97, 537.7, 232.8)">e</text><text xml:space="preserve" font-family="Helvetica" font-size="12.0" fill="#000000" transform="matrix(1.97, 0.00, -0.00, -1.97, 550.9, 232.8)">s</text><text xml:space="preserve" font-family="Helvetica" font-size="12.0" fill="#000000" transform="matrix(1.97, 0.00, -0.00, -1.97, 562.8, 232.8)">e</text><text xml:space="preserve" font-family="Helvetica" font-size="12.0" fill="#000000" transform="matrix(1.97, 0.00, -0.00, -1.97, 575.9, 232.8)">n</text><text xml:space="preserve" font-family="Helvetica" font-size="12.0" fill="#000000" transform="matrix(1.97, 0.00, -0.00, -1.97, 589.1, 232.8)">t</text><text xml:space="preserve" font-family="Helvetica" font-size="12.0" fill="#000000" transform="matrix(1.97, 0.00, -0.00, -1.97, 595.7, 232.8)">a</text><text xml:space="preserve" font-family="Helvetica" font-size="12.0" fill="#000000" transform="matrix(1.97, 0.00, -0.00, -1.97, 608.9, 232.8)">t</text><text xml:space="preserve" font-family="Helvetica" font-size="12.0" fill="#000000" transform="matrix(1.97, 0.00, -0.00, -1.97, 615.4, 232.8)">i</text><text xml:space="preserve" font-family="Helvetica" font-size="12.0" fill="#000000" transform="matrix(1.97, 0.00, -0.00, -1.97, 620.7, 232.8)">o</text><text xml:space="preserve" font-family="Helvetica" font-size="12.0" fill="#000000" transform="matrix(1.97, 0.00, -0.00, -1.97, 633.9, 232.8)">n</text><path d="M 475.7 414.0 L 685.4 414.0 C 690.8 414.0 695.2 409.6 695.2 404.1 L 695.2 312.0 C 695.2 306.6 690.8 302.2 685.4 302.2 L 475.7 302.2 C 470.3 302.2 465.9 306.6 465.9 312.0 L 465.9 404.1 C 465.9 409.6 470.3 414.0 475.7 414.0 Z M 475.7 414.0 " fill="#D4FB78"></path><path d="M 260.1 402.7 L 366.3 402.7 C 369.1 402.5 371.3 404.8 372.1 407.5 L 372.1 454.2 C 371.3 457.0 369.1 459.2 366.3 459.7 L 260.1 459.7 C 257.4 459.2 255.1 457.0 255.1 454.2 L 255.1 407.5 C 255.1 404.8 257.4 402.5 260.1 402.7 Z M 260.1 402.7 " fill="none" stroke="#000000" stroke-width="1.00" stroke-miterlimit="0.00" stroke-linecap="round" stroke-linejoin="round" transform="matrix(1.97, 0.00, 0.00, -1.97, -37.7, 1208.1)"></path><text xml:space="preserve" font-family="Helvetica" font-size="12.0" fill="#000000" transform="matrix(1.97, 0.00, -0.00, -1.97, 501.3, 350.2)">T</text><text xml:space="preserve" font-family="Helvetica" font-size="12.0" fill="#000000" transform="matrix(1.97, 0.00, -0.00, -1.97, 514.9, 350.2)">r</text><text xml:space="preserve" font-family="Helvetica" font-size="12.0" fill="#000000" transform="matrix(1.97, 0.00, -0.00, -1.97, 522.8, 350.2)">a</text><text xml:space="preserve" font-family="Helvetica" font-size="12.0" fill="#000000" transform="matrix(1.97, 0.00, -0.00, -1.97, 536.0, 350.2)">n</text><text xml:space="preserve" font-family="Helvetica" font-size="12.0" fill="#000000" transform="matrix(1.97, 0.00, -0.00, -1.97, 549.2, 350.2)">s</text><text xml:space="preserve" font-family="Helvetica" font-size="12.0" fill="#000000" transform="matrix(1.97, 0.00, -0.00, -1.97, 561.0, 350.2)">f</text><text xml:space="preserve" font-family="Helvetica" font-size="12.0" fill="#000000" transform="matrix(1.97, 0.00, -0.00, -1.97, 567.6, 350.2)">o</text><text xml:space="preserve" font-family="Helvetica" font-size="12.0" fill="#000000" transform="matrix(1.97, 0.00, -0.00, -1.97, 580.8, 350.2)">r</text><text xml:space="preserve" font-family="Helvetica" font-size="12.0" fill="#000000" transform="matrix(1.97, 0.00, -0.00, -1.97, 588.7, 350.2)">m</text><text xml:space="preserve" font-family="Helvetica" font-size="12.0" fill="#000000" transform="matrix(1.97, 0.00, -0.00, -1.97, 608.4, 350.2)">a</text><text xml:space="preserve" font-family="Helvetica" font-size="12.0" fill="#000000" transform="matrix(1.97, 0.00, -0.00, -1.97, 621.6, 350.2)">t</text><text xml:space="preserve" font-family="Helvetica" font-size="12.0" fill="#000000" transform="matrix(1.97, 0.00, -0.00, -1.97, 628.2, 350.2)">i</text><text xml:space="preserve" font-family="Helvetica" font-size="12.0" fill="#000000" transform="matrix(1.97, 0.00, -0.00, -1.97, 633.4, 350.2)">o</text><text xml:space="preserve" font-family="Helvetica" font-size="12.0" fill="#000000" transform="matrix(1.97, 0.00, -0.00, -1.97, 646.6, 350.2)">n</text><path d="M 727.7 1057.0 C 737.6 1057.0 745.6 1049.0 745.6 1039.2 L 745.6 969.2 C 745.6 959.4 737.6 951.4 727.7 951.4 L 659.2 951.4 C 649.3 951.4 641.3 959.4 641.3 969.2 L 641.3 1039.2 C 641.3 1049.0 649.3 1057.0 659.2 1057.0 Z M 727.7 1057.0 " fill="#E77C3B"></path><text xml:space="preserve" font-family="Helvetica" font-size="12.0" fill="#000000" transform="matrix(1.97, 0.00, -0.00, -1.97, 667.8, 996.3)">B</text><text xml:space="preserve" font-family="Helvetica" font-size="12.0" fill="#000000" transform="matrix(1.97, 0.00, -0.00, -1.97, 683.6, 996.3)">A</text><text xml:space="preserve" font-family="Helvetica" font-size="12.0" fill="#000000" transform="matrix(1.97, 0.00, -0.00, -1.97, 699.4, 996.3)">M</text><path d="M 745.6 969.2 L 745.6 963.0 C 745.6 953.2 737.6 945.2 727.7 945.2 L 727.7 951.4 C 737.6 951.4 745.6 959.4 745.6 969.2 Z M 745.6 969.2 " fill="#8E4B2A"></path><path d="M 745.6 969.2 L 745.6 963.0 C 745.6 962.2 745.5 961.3 745.4 960.5 L 745.4 966.7 C 745.5 967.5 745.6 968.4 745.6 969.2 Z M 745.6 969.2 " fill="#8E4B2A"></path><path d="M 745.4 966.7 L 745.4 960.5 C 745.3 959.5 745.1 958.5 744.8 957.6 L 744.8 963.8 C 745.1 964.7 745.3 965.7 745.4 966.7 Z M 745.4 966.7 " fill="#8E4B2A"></path><path d="M 744.8 963.8 L 744.8 957.6 C 744.4 956.5 744.0 955.5 743.4 954.5 L 743.4 960.7 C 744.0 961.7 744.4 962.7 744.8 963.8 Z M 744.8 963.8 " fill="#8E4B2A"></path><path d="M 743.4 960.7 L 743.4 954.5 C 740.4 949.0 734.5 945.2 727.7 945.2 L 727.7 951.4 C 734.5 951.4 740.4 955.2 743.4 960.7 Z M 743.4 960.7 " fill="#8E4B2A"></path><path d="M 658.5 951.4 L 727.8 951.4 L 727.8 945.2 L 658.5 945.2 Z M 658.5 951.4 " fill="#8E4B2A"></path><path d="M 659.2 951.4 L 659.2 945.2 C 649.3 945.2 641.3 953.2 641.3 963.0 L 641.3 969.2 C 641.3 959.4 649.3 951.4 659.2 951.4 Z M 659.2 951.4 " fill="#8E4B2A"></path><path d="M 660.0 951.4 L 660.0 945.2 C 650.1 945.2 641.3 953.2 641.3 963.0 L 641.3 969.2 C 641.3 959.4 649.3 951.4 660.0 951.4 Z M 660.0 951.4 " fill="#8E4B2A"></path><path d="M 258.2 799.8 C 270.9 799.8 281.2 791.9 281.2 782.1 L 281.2 712.1 C 281.2 702.2 270.9 694.3 258.2 694.3 L 170.1 694.3 C 157.3 694.3 147.0 702.2 147.0 712.1 L 147.0 782.1 C 147.0 791.9 157.3 799.8 170.1 799.8 Z M 258.2 799.8 " fill="#E77C3B"></path><text xml:space="preserve" font-family="Helvetica" font-size="12.0" fill="#000000" transform="matrix(1.97, 0.00, -0.00, -1.97, 167.4, 753.0)">E</text><text xml:space="preserve" font-family="Helvetica" font-size="12.0" fill="#000000" transform="matrix(1.97, 0.00, -0.00, -1.97, 183.2, 753.0)">q</text><text xml:space="preserve" font-family="Helvetica" font-size="12.0" fill="#000000" transform="matrix(1.97, 0.00, -0.00, -1.97, 196.3, 753.0)">u</text><text xml:space="preserve" font-family="Helvetica" font-size="12.0" fill="#000000" transform="matrix(1.97, 0.00, -0.00, -1.97, 209.5, 753.0)">a</text><text xml:space="preserve" font-family="Helvetica" font-size="12.0" fill="#000000" transform="matrix(1.97, 0.00, -0.00, -1.97, 222.7, 753.0)">t</text><text xml:space="preserve" font-family="Helvetica" font-size="12.0" fill="#000000" transform="matrix(1.97, 0.00, -0.00, -1.97, 229.3, 753.0)">i</text><text xml:space="preserve" font-family="Helvetica" font-size="12.0" fill="#000000" transform="matrix(1.97, 0.00, -0.00, -1.97, 234.5, 753.0)">o</text><text xml:space="preserve" font-family="Helvetica" font-size="12.0" fill="#000000" transform="matrix(1.97, 0.00, -0.00, -1.97, 247.7, 753.0)">n</text><text xml:space="preserve" font-family="Helvetica" font-size="12.0" fill="#000000" transform="matrix(1.97, 0.00, -0.00, -1.97, 260.9, 753.0)"> </text><text xml:space="preserve" font-family="Helvetica" font-size="12.0" fill="#000000" transform="matrix(1.97, 0.00, -0.00, -1.97, 189.1, 725.4)">C</text><text xml:space="preserve" font-family="Helvetica" font-size="12.0" fill="#000000" transform="matrix(1.97, 0.00, -0.00, -1.97, 206.2, 725.4)">h</text><text xml:space="preserve" font-family="Helvetica" font-size="12.0" fill="#000000" transform="matrix(1.97, 0.00, -0.00, -1.97, 219.4, 725.4)">e</text><text xml:space="preserve" font-family="Helvetica" font-size="12.0" fill="#000000" transform="matrix(1.97, 0.00, -0.00, -1.97, 232.6, 725.4)">f</text><path d="M 281.2 712.1 L 281.2 705.9 C 281.2 696.0 270.9 688.1 258.2 688.1 L 258.2 694.3 C 270.9 694.3 281.2 702.2 281.2 712.1 Z M 281.2 712.1 " fill="#8E4B2A"></path><path d="M 281.2 712.1 L 281.2 705.9 C 281.2 705.0 281.1 704.1 281.0 703.3 L 281.0 709.5 C 281.1 710.4 281.2 711.2 281.2 712.1 Z M 281.2 712.1 " fill="#8E4B2A"></path><path d="M 281.0 709.5 L 281.0 703.3 C 280.8 702.3 280.5 701.4 280.1 700.4 L 280.1 706.6 C 280.5 707.6 280.8 708.5 281.0 709.5 Z M 281.0 709.5 " fill="#8E4B2A"></path><path d="M 280.1 706.6 L 280.1 700.4 C 279.7 699.3 279.1 698.3 278.4 697.3 L 278.4 703.5 C 279.1 704.5 279.7 705.6 280.1 706.6 Z M 280.1 706.6 " fill="#8E4B2A"></path><path d="M 278.4 703.5 L 278.4 697.3 C 274.5 691.8 266.9 688.1 258.2 688.1 L 258.2 694.3 C 266.9 694.3 274.5 698.0 278.4 703.5 Z M 278.4 703.5 " fill="#8E4B2A"></path><path d="M 169.1 694.3 L 258.4 694.3 L 258.4 688.1 L 169.1 688.1 Z M 169.1 694.3 " fill="#8E4B2A"></path><path d="M 170.1 694.3 L 170.1 688.1 C 157.3 688.1 147.0 696.0 147.0 705.9 L 147.0 712.1 C 147.0 702.2 157.3 694.3 170.1 694.3 Z M 170.1 694.3 " fill="#8E4B2A"></path><path d="M 171.0 694.3 L 171.0 688.1 C 158.3 688.1 147.0 696.0 147.0 705.9 L 147.0 712.1 C 147.0 702.2 157.3 694.3 171.0 694.3 Z M 171.0 694.3 " fill="#8E4B2A"></path><path d="M 470.6 234.7 L 311.8 240.9 " fill="none" stroke="#000000" stroke-width="1.00" stroke-miterlimit="0.00" stroke-linecap="round" transform="matrix(1.97, 0.00, 0.00, -1.97, -37.7, 1208.1)"></path><path d="M 161.6 236.2 L 320.9 240.6 " fill="none" stroke="#000000" stroke-width="1.00" stroke-miterlimit="0.00" stroke-linecap="round" transform="matrix(1.97, 0.00, 0.00, -1.97, -37.7, 1208.1)"></path><path d="M 358.4 133.2 L 312.7 240.4 " fill="none" stroke="#000000" stroke-width="1.00" stroke-miterlimit="0.00" stroke-linecap="round" transform="matrix(1.97, 0.00, 0.00, -1.97, -37.7, 1208.1)"></path><text xml:space="preserve" font-family="HelveticaNeue" font-size="16.0" fill="#000000" transform="matrix(1.97, 0.00, -0.00, -1.97, 470.6, 860.7)">D</text><text xml:space="preserve" font-family="HelveticaNeue" font-size="16.0" fill="#000000" transform="matrix(1.97, 0.00, -0.00, -1.97, 492.9, 860.7)">a</text><text xml:space="preserve" font-family="HelveticaNeue" font-size="16.0" fill="#000000" transform="matrix(1.97, 0.00, -0.00, -1.97, 509.8, 860.7)">t</text><text xml:space="preserve" font-family="HelveticaNeue" font-size="16.0" fill="#000000" transform="matrix(1.97, 0.00, -0.00, -1.97, 519.8, 860.7)">a</text><text xml:space="preserve" font-family="HelveticaNeue" font-size="16.0" fill="#000000" transform="matrix(1.97, 0.00, -0.00, -1.97, 536.7, 860.7)"> </text><text xml:space="preserve" font-family="HelveticaNeue" font-size="16.0" fill="#000000" transform="matrix(1.97, 0.00, -0.00, -1.97, 545.5, 860.7)">P</text><text xml:space="preserve" font-family="HelveticaNeue" font-size="16.0" fill="#000000" transform="matrix(1.97, 0.00, -0.00, -1.97, 566.0, 860.7)">r</text><text xml:space="preserve" font-family="HelveticaNeue" font-size="16.0" fill="#000000" transform="matrix(1.97, 0.00, -0.00, -1.97, 575.9, 860.7)">o</text><text xml:space="preserve" font-family="HelveticaNeue" font-size="16.0" fill="#000000" transform="matrix(1.97, 0.00, -0.00, -1.97, 594.1, 860.7)">v</text><text xml:space="preserve" font-family="HelveticaNeue" font-size="16.0" fill="#000000" transform="matrix(1.97, 0.00, -0.00, -1.97, 609.8, 860.7)">i</text><text xml:space="preserve" font-family="HelveticaNeue" font-size="16.0" fill="#000000" transform="matrix(1.97, 0.00, -0.00, -1.97, 616.9, 860.7)">d</text><text xml:space="preserve" font-family="HelveticaNeue" font-size="16.0" fill="#000000" transform="matrix(1.97, 0.00, -0.00, -1.97, 635.6, 860.7)">e</text><text xml:space="preserve" font-family="HelveticaNeue" font-size="16.0" fill="#000000" transform="matrix(1.97, 0.00, -0.00, -1.97, 652.5, 860.7)">r</text><text xml:space="preserve" font-family="HelveticaNeue" font-size="16.0" fill="#000000" transform="matrix(1.97, 0.00, -0.00, -1.97, 663.1, 860.7)">s</text></g></g></g></svg>