<?xml version="1.0" encoding="UTF-8" standalone="no"?><svg xmlns="http://www.w3.org/2000/svg" xmlns:xlink="http://www.w3.org/1999/xlink" clip-rule="evenodd" stroke-miterlimit="4.00" viewBox="0 0 1920 1080"><desc>SVG generated by Keynote</desc><defs></defs><g transform="matrix(1.00, 0.00, -0.00, -1.00, 0.0, 1080.0)"><path d="M 0.0 1080.0 L 1920.0 1080.0 L 1920.0 0.0 L 0.0 0.0 Z M 0.0 1080.0 " fill="#EEEDED"></path><path d="M 0.0 0.0 L 1836.0 0.0 " fill="none" stroke="#000000" stroke-width="2.00" transform="matrix(1.00, 0.00, 0.00, -1.00, 41.0, 58.0)"></path><text xml:space="preserve" font-family="HelveticaNeue-Bold" font-weight="bold" font-size="23.0" fill="#000000" transform="matrix(1.00, 0.00, -0.00, -1.00, 61.0, 24.0)">M</text><text xml:space="preserve" font-family="HelveticaNeue-Bold" font-weight="bold" font-size="23.0" fill="#000000" transform="matrix(1.00, 0.00, -0.00, -1.00, 81.9, 24.0)">i</text><text xml:space="preserve" font-family="HelveticaNeue-Bold" font-weight="bold" font-size="23.0" fill="#000000" transform="matrix(1.00, 0.00, -0.00, -1.00, 87.8, 24.0)">c</text><text xml:space="preserve" font-family="HelveticaNeue-Bold" font-weight="bold" font-size="23.0" fill="#000000" transform="matrix(1.00, 0.00, -0.00, -1.00, 101.0, 24.0)">r</text><text xml:space="preserve" font-family="HelveticaNeue-Bold" font-weight="bold" font-size="23.0" fill="#000000" transform="matrix(1.00, 0.00, -0.00, -1.00, 109.5, 24.0)">o</text><text xml:space="preserve" font-family="HelveticaNeue-Bold" font-weight="bold" font-size="23.0" fill="#000000" transform="matrix(1.00, 0.00, -0.00, -1.00, 123.6, 24.0)">s</text><text xml:space="preserve" font-family="HelveticaNeue-Bold" font-weight="bold" font-size="23.0" fill="#000000" transform="matrix(1.00, 0.00, -0.00, -1.00, 135.9, 24.0)">e</text><text xml:space="preserve" font-family="HelveticaNeue-Bold" font-weight="bold" font-size="23.0" fill="#000000" transform="matrix(1.00, 0.00, -0.00, -1.00, 149.1, 24.0)">r</text><text xml:space="preserve" font-family="HelveticaNeue-Bold" font-weight="bold" font-size="23.0" fill="#000000" transform="matrix(1.00, 0.00, -0.00, -1.00, 158.1, 24.0)">v</text><text xml:space="preserve" font-family="HelveticaNeue-Bold" font-weight="bold" font-size="23.0" fill="#000000" transform="matrix(1.00, 0.00, -0.00, -1.00, 170.0, 24.0)">i</text><text xml:space="preserve" font-family="HelveticaNeue-Bold" font-weight="bold" font-size="23.0" fill="#000000" transform="matrix(1.00, 0.00, -0.00, -1.00, 176.0, 24.0)">c</text><text xml:space="preserve" font-family="HelveticaNeue-Bold" font-weight="bold" font-size="23.0" fill="#000000" transform="matrix(1.00, 0.00, -0.00, -1.00, 189.2, 24.0)">e</text><text xml:space="preserve" font-family="HelveticaNeue-Bold" font-weight="bold" font-size="23.0" fill="#000000" transform="matrix(1.00, 0.00, -0.00, -1.00, 202.4, 24.0)">s</text><text xml:space="preserve" font-family="HelveticaNeue-Bold" font-weight="bold" font-size="23.0" fill="#000000" transform="matrix(1.00, 0.00, -0.00, -1.00, 214.7, 24.0)"> </text><text xml:space="preserve" font-family="HelveticaNeue-Bold" font-weight="bold" font-size="23.0" fill="#000000" transform="matrix(1.00, 0.00, -0.00, -1.00, 221.1, 24.0)">i</text><text xml:space="preserve" font-family="HelveticaNeue-Bold" font-weight="bold" font-size="23.0" fill="#000000" transform="matrix(1.00, 0.00, -0.00, -1.00, 227.1, 24.0)">n</text><text xml:space="preserve" font-family="HelveticaNeue-Bold" font-weight="bold" font-size="23.0" fill="#000000" transform="matrix(1.00, 0.00, -0.00, -1.00, 240.7, 24.0)"> </text><text xml:space="preserve" font-family="HelveticaNeue-Bold" font-weight="bold" font-size="23.0" fill="#000000" transform="matrix(1.00, 0.00, -0.00, -1.00, 247.1, 24.0)">t</text><text xml:space="preserve" font-family="HelveticaNeue-Bold" font-weight="bold" font-size="23.0" fill="#000000" transform="matrix(1.00, 0.00, -0.00, -1.00, 255.2, 24.0)">h</text><text xml:space="preserve" font-family="HelveticaNeue-Bold" font-weight="bold" font-size="23.0" fill="#000000" transform="matrix(1.00, 0.00, -0.00, -1.00, 268.8, 24.0)">e</text><text xml:space="preserve" font-family="HelveticaNeue-Bold" font-weight="bold" font-size="23.0" fill="#000000" transform="matrix(1.00, 0.00, -0.00, -1.00, 282.0, 24.0)"> </text><text xml:space="preserve" font-family="HelveticaNeue-Bold" font-weight="bold" font-size="23.0" fill="#000000" transform="matrix(1.00, 0.00, -0.00, -1.00, 288.4, 24.0)">W</text><text xml:space="preserve" font-family="HelveticaNeue-Bold" font-weight="bold" font-size="23.0" fill="#000000" transform="matrix(1.00, 0.00, -0.00, -1.00, 310.1, 24.0)">i</text><text xml:space="preserve" font-family="HelveticaNeue-Bold" font-weight="bold" font-size="23.0" fill="#000000" transform="matrix(1.00, 0.00, -0.00, -1.00, 316.1, 24.0)">l</text><text xml:space="preserve" font-family="HelveticaNeue-Bold" font-weight="bold" font-size="23.0" fill="#000000" transform="matrix(1.00, 0.00, -0.00, -1.00, 322.0, 24.0)">d</text><image xlink:href="../../D0517147-4847-4A0F-8B98-32B995C105A1/assets/0BF8E63FE00997E10C4EC11A1CFD77DD.png" width="97.00" height="27.00" transform="matrix(1.00, 0.00, -0.00, -1.00, 1751.0, 44.0)"></image><g><clipPath id="clip-517"><path d="M 120.0 165.0 L 1569.3 165.0 L 1569.3 1049.4 L 120.0 1049.4 Z M 120.0 165.0 "></path></clipPath><g clip-path="url(#clip-517)"><path d="M 299.1 95.5 L 888.0 95.5 C 890.8 95.0 893.0 97.2 893.1 100.0 L 893.1 572.0 C 893.0 574.8 890.8 577.0 888.0 577.5 L 299.0 577.5 C 296.2 577.0 294.0 574.8 294.1 572.0 L 294.1 100.0 C 294.0 97.2 296.2 95.0 299.1 95.5 Z M 299.1 95.5 " fill="none" stroke="#A95D33" stroke-width="1.00" stroke-miterlimit="0.00" stroke-linecap="round" stroke-linejoin="round" stroke-dasharray="4.0, 4.0" transform="matrix(1.75, 0.00, 0.00, -1.75, 5.3, 1177.0)"></path><path d="M 181.6 666.3 C 180.7 666.0 179.8 665.8 178.9 665.6 C 178.4 665.5 177.8 665.4 181.6 666.3 Z M 181.6 666.3 " fill="#20405E"></path><path d="M 179.3 740.1 C 191.5 740.1 202.0 739.1 210.5 737.6 C 228.9 734.5 238.7 729.1 238.7 725.7 C 238.7 722.4 228.9 716.9 210.5 713.8 C 202.0 712.3 191.5 711.4 179.3 711.4 C 140.9 711.4 120.0 720.9 120.0 725.7 C 120.0 730.6 140.9 740.1 179.3 740.1 Z M 179.3 740.1 " fill="#666967"></path><path d="M 238.7 725.7 L 238.7 718.5 C 238.7 715.1 228.9 709.7 210.5 706.5 C 202.0 705.1 191.5 704.1 179.3 704.1 C 140.9 704.1 120.0 713.6 120.0 718.5 L 120.0 725.7 C 120.0 720.9 140.9 711.4 179.3 711.4 C 191.5 711.4 202.0 712.3 210.5 713.8 C 228.9 716.9 238.7 722.4 238.7 725.7 Z M 238.7 725.7 " fill="#414341"></path><path d="M 238.7 725.7 L 238.7 718.5 C 238.7 718.4 238.7 718.3 238.7 718.2 L 238.7 725.4 C 238.7 725.5 238.7 725.6 238.7 725.7 Z M 238.7 725.7 " fill="#414341"></path><path d="M 238.7 725.4 L 238.7 718.2 C 238.6 718.0 238.6 717.9 238.6 717.8 L 238.6 725.0 C 238.6 725.2 238.6 725.3 238.7 725.4 Z M 238.7 725.4 " fill="#414341"></path><path d="M 238.6 725.0 L 238.6 717.8 C 238.5 717.6 238.4 717.4 238.3 717.1 L 238.3 724.4 C 238.4 724.6 238.5 724.8 238.6 725.0 Z M 238.6 725.0 " fill="#414341"></path><path d="M 238.3 724.4 L 238.3 717.1 C 236.2 713.8 226.6 709.3 210.5 706.5 C 202.0 705.1 191.5 704.1 179.3 704.1 C 140.9 704.1 120.0 713.6 120.0 718.5 L 120.0 725.7 C 120.0 720.9 140.9 711.4 179.3 711.4 C 191.5 711.4 202.0 712.3 210.5 713.8 C 226.6 716.5 236.2 721.1 238.3 724.4 Z M 238.3 724.4 " fill="#414341"></path><path d="M 238.6 616.5 C 238.7 616.8 238.8 617.2 238.8 617.5 L 238.8 605.7 C 238.8 605.6 238.8 605.5 238.8 605.3 C 238.7 605.2 238.7 605.0 238.6 604.8 L 238.6 604.8 L 238.6 604.7 C 238.5 604.5 238.4 604.3 238.2 604.0 C 238.2 604.0 238.1 603.9 238.1 603.9 C 238.0 603.7 237.9 603.6 237.7 603.4 C 237.6 603.2 237.4 603.0 237.2 602.8 C 237.1 602.6 236.9 602.5 236.7 602.3 C 236.5 602.1 236.2 601.9 236.0 601.7 C 235.8 601.5 235.5 601.4 235.3 601.2 C 235.0 601.0 234.7 600.8 234.3 600.6 C 234.1 600.4 233.8 600.2 233.5 600.1 C 233.1 599.9 232.7 599.6 232.3 599.4 C 231.9 599.3 231.6 599.1 231.3 598.9 C 230.8 598.7 230.2 598.5 229.6 598.2 C 229.3 598.1 229.0 598.0 228.7 597.8 C 227.8 597.5 226.8 597.1 225.7 596.8 C 225.4 596.7 225.0 596.6 224.7 596.5 C 223.9 596.2 223.1 596.0 222.3 595.8 C 221.8 595.6 221.3 595.5 220.8 595.4 C 220.0 595.2 219.3 595.0 218.5 594.8 C 217.9 594.7 217.3 594.6 216.7 594.4 C 215.9 594.3 215.0 594.1 214.2 593.9 C 213.5 593.8 212.8 593.7 212.1 593.6 C 211.3 593.5 210.3 593.3 209.4 593.2 C 208.7 593.1 207.9 593.0 207.2 592.9 C 206.2 592.8 205.2 592.6 204.1 592.5 C 203.4 592.5 202.6 592.4 201.8 592.3 C 200.7 592.2 199.5 592.1 198.3 592.0 C 197.5 592.0 196.8 591.9 196.0 591.9 C 194.6 591.8 193.2 591.7 191.8 591.7 C 191.1 591.6 190.4 591.6 189.6 591.6 C 187.5 591.5 185.2 591.5 182.8 591.5 C 161.2 591.5 144.9 594.1 134.3 597.4 C 126.4 600.1 120.7 603.0 120.1 605.3 L 120.1 617.1 C 120.7 614.9 125.6 612.2 132.7 609.7 L 132.5 610.4 C 143.2 607.2 161.2 603.2 182.8 603.2 C 185.2 603.2 187.5 603.3 189.6 603.3 C 190.4 603.3 191.0 603.4 191.7 603.4 C 193.2 603.5 194.6 603.5 196.0 603.6 C 196.8 603.6 197.5 603.7 198.3 603.8 C 199.5 603.8 200.7 603.9 201.8 604.0 C 202.6 604.1 203.3 604.2 204.1 604.3 C 205.2 604.4 206.2 604.5 207.3 604.6 C 208.0 604.7 208.6 604.8 209.3 604.9 C 210.3 605.0 211.3 605.2 212.3 605.4 L 225.7 608.5 C 226.8 608.8 227.8 609.2 228.8 609.6 L 231.4 610.7 C 231.6 610.8 231.8 610.9 232.0 611.0 C 232.5 611.3 233.1 611.6 233.6 611.8 C 233.8 612.0 234.0 612.1 234.2 612.2 C 234.6 612.5 235.0 612.7 235.4 613.0 C 235.5 613.1 235.7 613.2 235.9 613.4 C 236.2 613.6 236.5 613.9 236.8 614.1 C 236.9 614.2 237.1 614.4 237.2 614.5 C 237.4 614.7 237.6 615.0 237.8 615.2 C 237.9 615.3 238.0 615.4 238.1 615.6 Z M 238.6 616.5 " fill="#414341"></path><path d="M 209.8 702.1 C 208.2 701.8 206.5 701.6 204.9 701.4 C 204.1 701.3 203.2 701.1 202.3 701.0 C 200.8 700.8 199.3 700.7 197.7 700.5 C 196.7 700.5 195.7 700.4 194.7 700.3 C 192.7 700.2 190.7 700.1 188.7 700.0 L 187.7 700.0 C 185.4 699.8 183.0 699.8 180.5 699.8 C 180.0 699.8 179.5 699.8 178.9 699.8 C 155.4 699.8 131.6 703.7 120.1 711.1 L 120.1 612.6 C 120.7 610.3 126.3 607.4 134.2 604.7 C 144.8 601.4 161.2 598.7 182.8 598.7 C 222.4 598.7 238.8 608.0 238.8 613.0 L 238.9 712.0 C 232.7 707.8 222.7 704.3 209.8 702.1 Z M 209.8 702.1 " fill="#666967"></path><text xml:space="preserve" font-family="Helvetica" font-size="12.0" fill="#000000" transform="matrix(1.75, 0.00, -0.00, -1.75, 159.1, 648.4)">L</text><text xml:space="preserve" font-family="Helvetica" font-size="12.0" fill="#000000" transform="matrix(1.75, 0.00, -0.00, -1.75, 170.8, 648.4)">D</text><text xml:space="preserve" font-family="Helvetica" font-size="12.0" fill="#000000" transform="matrix(1.75, 0.00, -0.00, -1.75, 185.9, 648.4)">P</text><path d="M 310.6 939.3 L 446.5 939.3 C 462.5 939.3 475.6 906.8 475.6 866.6 C 475.6 826.5 462.5 793.9 446.5 793.9 L 310.6 793.9 C 294.6 793.9 281.5 826.5 281.5 866.6 C 281.5 906.8 294.6 939.3 310.6 939.3 " fill="#FEFFFF"></path><path d="M 174.7 136.5 L 252.3 136.5 C 261.5 136.0 269.0 154.6 269.0 177.6 C 269.0 200.5 261.5 219.2 252.3 219.5 L 174.7 219.5 C 165.5 219.2 158.0 200.5 158.0 177.6 C 158.0 154.6 165.5 136.0 174.7 136.0 " fill="none" stroke="#000000" stroke-width="1.00" stroke-miterlimit="0.00" stroke-linecap="round" stroke-linejoin="round" transform="matrix(1.75, 0.00, 0.00, -1.75, 5.3, 1177.0)"></path><text xml:space="preserve" font-family="Helvetica" font-size="12.0" fill="#000000" transform="matrix(1.75, 0.00, -0.00, -1.75, 317.5, 884.1)">B</text><text xml:space="preserve" font-family="Helvetica" font-size="12.0" fill="#000000" transform="matrix(1.75, 0.00, -0.00, -1.75, 331.5, 884.1)">i</text><text xml:space="preserve" font-family="Helvetica" font-size="12.0" fill="#000000" transform="matrix(1.75, 0.00, -0.00, -1.75, 336.2, 884.1)">t</text><text xml:space="preserve" font-family="Helvetica" font-size="12.0" fill="#000000" transform="matrix(1.75, 0.00, -0.00, -1.75, 342.0, 884.1)">e</text><text xml:space="preserve" font-family="Helvetica" font-size="12.0" fill="#000000" transform="matrix(1.75, 0.00, -0.00, -1.75, 353.7, 884.1)">s</text><text xml:space="preserve" font-family="Helvetica" font-size="12.0" fill="#000000" transform="matrix(1.75, 0.00, -0.00, -1.75, 364.2, 884.1)">i</text><text xml:space="preserve" font-family="Helvetica" font-size="12.0" fill="#000000" transform="matrix(1.75, 0.00, -0.00, -1.75, 368.8, 884.1)">z</text><text xml:space="preserve" font-family="Helvetica" font-size="12.0" fill="#000000" transform="matrix(1.75, 0.00, -0.00, -1.75, 379.3, 884.1)">e</text><text xml:space="preserve" font-family="Helvetica" font-size="12.0" fill="#000000" transform="matrix(1.75, 0.00, -0.00, -1.75, 391.0, 884.1)"> </text><text xml:space="preserve" font-family="Helvetica" font-size="12.0" fill="#000000" transform="matrix(1.75, 0.00, -0.00, -1.75, 396.8, 884.1)">P</text><text xml:space="preserve" font-family="Helvetica" font-size="12.0" fill="#000000" transform="matrix(1.75, 0.00, -0.00, -1.75, 410.8, 884.1)">H</text><text xml:space="preserve" font-family="Helvetica" font-size="12.0" fill="#000000" transform="matrix(1.75, 0.00, -0.00, -1.75, 426.0, 884.1)">P</text><text xml:space="preserve" font-family="Helvetica" font-size="12.0" fill="#000000" transform="matrix(1.75, 0.00, -0.00, -1.75, 439.6, 884.1)"> </text><text xml:space="preserve" font-family="Helvetica" font-size="12.0" fill="#000000" transform="matrix(1.75, 0.00, -0.00, -1.75, 357.2, 859.6)">W</text><text xml:space="preserve" font-family="Helvetica" font-size="12.0" fill="#000000" transform="matrix(1.75, 0.00, -0.00, -1.75, 376.6, 859.6)">e</text><text xml:space="preserve" font-family="Helvetica" font-size="12.0" fill="#000000" transform="matrix(1.75, 0.00, -0.00, -1.75, 388.3, 859.6)">b</text><text xml:space="preserve" font-family="Helvetica" font-size="12.0" fill="#000000" transform="matrix(1.75, 0.00, -0.00, -1.75, 399.9, 859.6)"> </text><text xml:space="preserve" font-family="Helvetica" font-size="12.0" fill="#000000" transform="matrix(1.75, 0.00, -0.00, -1.75, 327.2, 835.2)">A</text><text xml:space="preserve" font-family="Helvetica" font-size="12.0" fill="#000000" transform="matrix(1.75, 0.00, -0.00, -1.75, 341.2, 835.2)">p</text><text xml:space="preserve" font-family="Helvetica" font-size="12.0" fill="#000000" transform="matrix(1.75, 0.00, -0.00, -1.75, 352.9, 835.2)">p</text><text xml:space="preserve" font-family="Helvetica" font-size="12.0" fill="#000000" transform="matrix(1.75, 0.00, -0.00, -1.75, 364.6, 835.2)">l</text><text xml:space="preserve" font-family="Helvetica" font-size="12.0" fill="#000000" transform="matrix(1.75, 0.00, -0.00, -1.75, 369.2, 835.2)">i</text><text xml:space="preserve" font-family="Helvetica" font-size="12.0" fill="#000000" transform="matrix(1.75, 0.00, -0.00, -1.75, 373.9, 835.2)">c</text><text xml:space="preserve" font-family="Helvetica" font-size="12.0" fill="#000000" transform="matrix(1.75, 0.00, -0.00, -1.75, 384.4, 835.2)">a</text><text xml:space="preserve" font-family="Helvetica" font-size="12.0" fill="#000000" transform="matrix(1.75, 0.00, -0.00, -1.75, 396.1, 835.2)">t</text><text xml:space="preserve" font-family="Helvetica" font-size="12.0" fill="#000000" transform="matrix(1.75, 0.00, -0.00, -1.75, 401.9, 835.2)">i</text><text xml:space="preserve" font-family="Helvetica" font-size="12.0" fill="#000000" transform="matrix(1.75, 0.00, -0.00, -1.75, 406.5, 835.2)">o</text><text xml:space="preserve" font-family="Helvetica" font-size="12.0" fill="#000000" transform="matrix(1.75, 0.00, -0.00, -1.75, 418.2, 835.2)">n</text><path d="M 474.3 239.5 L 474.3 235.2 C 474.3 232.3 471.9 229.9 469.0 229.9 L 469.0 234.3 C 471.9 234.3 474.3 236.7 474.3 239.5 Z M 474.3 239.5 " fill="#414341"></path><path d="M 474.3 239.5 L 474.3 235.2 C 474.3 234.9 474.2 234.7 474.2 234.4 L 474.2 238.8 C 474.2 239.0 474.3 239.3 474.3 239.5 Z M 474.3 239.5 " fill="#414341"></path><path d="M 474.2 238.8 L 474.2 234.4 C 474.2 234.1 474.1 233.8 474.0 233.6 L 474.0 237.9 C 474.1 238.2 474.2 238.5 474.2 238.8 Z M 474.2 238.8 " fill="#414341"></path><path d="M 474.0 237.9 L 474.0 233.6 C 473.9 233.3 473.8 232.9 473.6 232.7 L 473.6 237.0 C 473.8 237.3 473.9 237.6 474.0 237.9 Z M 474.0 237.9 " fill="#414341"></path><path d="M 473.6 237.0 L 473.6 232.7 C 472.7 231.0 471.0 229.9 469.0 229.9 L 469.0 234.3 C 471.0 234.3 472.7 235.4 473.6 237.0 Z M 473.6 237.0 " fill="#414341"></path><path d="M 471.3 235.2 L 469.0 229.9 L 408.2 229.9 L 406.8 235.4 Z M 471.3 235.2 " fill="#414341"></path><path d="M 408.2 234.3 L 408.2 229.9 C 405.3 229.9 403.0 232.3 403.0 235.2 L 403.0 239.5 C 403.0 236.7 405.3 234.3 408.2 234.3 Z M 408.2 234.3 " fill="#414341"></path><path d="M 408.2 234.3 L 408.2 229.9 C 405.3 229.9 403.0 232.3 403.0 235.2 L 403.0 239.5 C 403.0 236.7 405.3 234.3 408.2 234.3 Z M 408.2 234.3 " fill="#414341"></path><path d="M 469.0 327.6 C 471.9 327.6 474.3 325.2 474.3 322.4 L 474.3 239.5 C 474.3 236.7 471.9 234.3 469.0 234.3 L 408.2 234.3 C 405.3 234.3 403.0 236.7 403.0 239.5 L 403.0 322.4 C 403.0 325.2 405.3 327.6 408.2 327.6 Z M 469.0 327.6 " fill="#666967"></path><path d="M 413.9 314.1 L 463.3 314.1 L 463.3 308.3 L 413.9 308.3 Z M 413.9 303.8 L 463.3 303.8 L 463.3 298.0 L 413.9 298.0 Z M 413.9 294.0 L 463.3 294.0 L 463.3 288.2 L 413.9 288.2 Z M 413.9 294.0 " fill="#FFFEFE"></path><text xml:space="preserve" font-family="Helvetica" font-size="12.0" fill="#000000" transform="matrix(1.75, 0.00, -0.00, -1.75, 412.0, 196.2)">A</text><text xml:space="preserve" font-family="Helvetica" font-size="12.0" fill="#000000" transform="matrix(1.75, 0.00, -0.00, -1.75, 426.0, 196.2)">c</text><text xml:space="preserve" font-family="Helvetica" font-size="12.0" fill="#000000" transform="matrix(1.75, 0.00, -0.00, -1.75, 436.5, 196.2)">m</text><text xml:space="preserve" font-family="Helvetica" font-size="12.0" fill="#000000" transform="matrix(1.75, 0.00, -0.00, -1.75, 454.0, 196.2)">e</text><path d="M 257.4 432.9 C 256.5 432.7 255.7 432.5 254.7 432.3 C 254.2 432.2 253.7 432.0 257.4 432.9 Z M 257.4 432.9 " fill="#20405E"></path><path d="M 255.2 506.7 C 267.4 506.7 277.8 505.8 286.4 504.3 C 304.7 501.1 314.5 495.7 314.5 492.4 C 314.5 489.1 304.7 483.6 286.4 480.4 C 277.8 479.0 267.4 478.0 255.2 478.0 C 216.8 478.0 195.8 487.5 195.8 492.4 C 195.8 497.2 216.8 506.7 255.2 506.7 Z M 255.2 506.7 " fill="#666967"></path><path d="M 314.5 492.4 L 314.5 485.1 C 314.5 481.8 304.7 476.3 286.4 473.2 C 277.8 471.7 267.4 470.8 255.2 470.8 C 216.8 470.8 195.8 480.3 195.8 485.1 L 195.8 492.4 C 195.8 487.5 216.8 478.0 255.2 478.0 C 267.4 478.0 277.8 479.0 286.4 480.4 C 304.7 483.6 314.5 489.1 314.5 492.4 Z M 314.5 492.4 " fill="#414341"></path><path d="M 314.5 492.4 L 314.5 485.1 C 314.5 485.0 314.5 484.9 314.5 484.8 L 314.5 492.1 C 314.5 492.2 314.5 492.3 314.5 492.4 Z M 314.5 492.4 " fill="#414341"></path><path d="M 314.5 492.1 L 314.5 484.8 C 314.5 484.7 314.5 484.6 314.4 484.4 L 314.4 491.7 C 314.5 491.8 314.5 491.9 314.5 492.1 Z M 314.5 492.1 " fill="#414341"></path><path d="M 314.4 491.7 L 314.4 484.4 C 314.3 484.2 314.2 484.0 314.1 483.8 L 314.1 491.1 C 314.2 491.3 314.3 491.5 314.4 491.7 Z M 314.4 491.7 " fill="#414341"></path><path d="M 314.1 491.1 L 314.1 483.8 C 312.0 480.5 302.5 475.9 286.4 473.2 C 277.8 471.7 267.4 470.8 255.2 470.8 C 216.8 470.8 195.8 480.3 195.8 485.1 L 195.8 492.4 C 195.8 487.5 216.8 478.0 255.2 478.0 C 267.4 478.0 277.8 479.0 286.4 480.4 C 302.5 483.2 312.0 487.7 314.1 491.1 Z M 314.1 491.1 " fill="#414341"></path><path d="M 314.4 383.2 C 314.6 383.5 314.6 383.8 314.6 384.1 L 314.6 372.4 C 314.6 372.3 314.6 372.1 314.6 372.0 C 314.6 371.8 314.5 371.6 314.5 371.5 L 314.4 371.4 L 314.4 371.4 C 314.3 371.1 314.2 370.9 314.1 370.7 C 314.0 370.6 314.0 370.6 313.9 370.5 C 313.8 370.4 313.7 370.2 313.6 370.1 C 313.4 369.9 313.3 369.7 313.1 369.5 C 312.9 369.3 312.7 369.1 312.5 369.0 C 312.3 368.8 312.1 368.6 311.8 368.4 C 311.6 368.2 311.4 368.0 311.1 367.9 C 310.8 367.7 310.5 367.4 310.2 367.2 C 309.9 367.1 309.6 366.9 309.3 366.7 C 308.9 366.5 308.5 366.3 308.1 366.1 C 307.8 365.9 307.5 365.8 307.1 365.6 C 306.6 365.4 306.0 365.1 305.5 364.9 C 305.2 364.8 304.9 364.6 304.5 364.5 C 303.6 364.1 302.6 363.8 301.6 363.4 C 301.2 363.3 300.9 363.2 300.5 363.1 C 299.7 362.9 299.0 362.6 298.2 362.4 C 297.7 362.3 297.1 362.2 296.6 362.0 C 295.9 361.8 295.1 361.7 294.3 361.5 C 293.7 361.3 293.1 361.2 292.5 361.1 C 291.7 360.9 290.9 360.8 290.0 360.6 C 289.3 360.5 288.7 360.4 288.0 360.3 C 287.1 360.1 286.2 360.0 285.2 359.8 C 284.5 359.7 283.8 359.6 283.0 359.5 C 282.0 359.4 281.0 359.3 280.0 359.2 C 279.2 359.1 278.4 359.0 277.7 359.0 C 276.5 358.9 275.3 358.8 274.2 358.7 C 273.4 358.6 272.6 358.6 271.8 358.5 C 270.5 358.4 269.0 358.4 267.6 358.3 C 266.9 358.3 266.2 358.3 265.5 358.2 C 263.3 358.2 261.0 358.1 258.7 358.1 C 237.1 358.1 220.7 360.8 210.1 364.1 C 202.2 366.8 196.6 369.7 195.9 372.0 L 195.9 383.7 C 196.5 381.6 201.5 378.9 208.5 376.4 L 208.4 377.1 C 219.0 373.8 237.1 369.9 258.7 369.9 C 261.0 369.9 263.3 369.9 265.5 370.0 C 266.2 370.0 266.9 370.0 267.6 370.1 C 269.0 370.1 270.4 370.2 271.8 370.3 C 272.6 370.3 273.3 370.4 274.1 370.4 C 275.3 370.5 276.5 370.6 277.7 370.7 C 278.4 370.8 279.2 370.8 279.9 370.9 C 281.0 371.0 282.1 371.2 283.1 371.3 C 283.8 371.4 284.5 371.5 285.2 371.6 C 286.2 371.7 287.1 371.9 288.1 372.0 L 301.5 375.1 C 302.6 375.5 303.7 375.9 304.6 376.3 L 307.2 377.4 C 307.4 377.5 307.6 377.6 307.8 377.7 C 308.4 378.0 308.9 378.2 309.4 378.5 C 309.6 378.6 309.8 378.8 310.0 378.9 C 310.4 379.1 310.8 379.4 311.2 379.6 C 311.4 379.8 311.6 379.9 311.7 380.0 C 312.1 380.3 312.3 380.5 312.6 380.8 C 312.8 380.9 312.9 381.0 313.0 381.1 C 313.3 381.4 313.5 381.6 313.6 381.8 C 313.7 382.0 313.8 382.1 313.9 382.2 Z M 314.4 383.2 " fill="#414341"></path><path d="M 285.7 468.8 C 284.0 468.5 282.4 468.3 280.7 468.0 C 279.9 467.9 279.1 467.8 278.2 467.7 C 276.7 467.5 275.1 467.4 273.6 467.2 C 272.6 467.1 271.6 467.0 270.6 467.0 C 268.6 466.8 266.6 466.7 264.6 466.6 L 263.5 466.6 C 261.2 466.5 258.8 466.5 256.3 466.4 C 255.8 466.4 255.3 466.4 254.8 466.4 C 231.2 466.4 207.5 470.3 195.9 477.8 L 195.9 379.2 C 196.6 377.0 202.2 374.0 210.0 371.3 C 220.6 368.1 237.0 365.4 258.6 365.4 C 298.2 365.4 314.6 374.7 314.6 379.7 L 314.7 478.7 C 308.6 474.5 298.6 470.9 285.7 468.8 Z M 285.7 468.8 " fill="#666967"></path><text xml:space="preserve" font-family="Helvetica" font-size="12.0" fill="#000000" transform="matrix(1.75, 0.00, -0.00, -1.75, 234.9, 415.0)">i</text><text xml:space="preserve" font-family="Helvetica" font-size="12.0" fill="#000000" transform="matrix(1.75, 0.00, -0.00, -1.75, 239.6, 415.0)">S</text><text xml:space="preserve" font-family="Helvetica" font-size="12.0" fill="#000000" transform="matrix(1.75, 0.00, -0.00, -1.75, 253.6, 415.0)">i</text><text xml:space="preserve" font-family="Helvetica" font-size="12.0" fill="#000000" transform="matrix(1.75, 0.00, -0.00, -1.75, 258.2, 415.0)">t</text><text xml:space="preserve" font-family="Helvetica" font-size="12.0" fill="#000000" transform="matrix(1.75, 0.00, -0.00, -1.75, 264.1, 415.0)">e</text></g></g><g><clipPath id="clip-518"><path d="M 989.6 432.4 L 1070.0 432.4 L 1070.0 331.0 L 989.6 331.0 Z M 989.6 432.4 "></path></clipPath><g clip-path="url(#clip-518)"><g><clipPath id="clip-519"><path d="M 120.0 165.0 L 1569.3 165.0 L 1569.3 1049.4 L 120.0 1049.4 Z M 120.0 165.0 "></path></clipPath><g clip-path="url(#clip-519)"><image xlink:href="8E5E072860FCF47F82E64C20AA22E8BF.png" width="70.00" height="84.00" transform="matrix(1.15, 0.00, -0.00, -1.21, 989.6, 432.4)"></image></g></g></g></g><g><clipPath id="clip-520"><path d="M 120.0 165.0 L 1569.3 165.0 L 1569.3 1049.4 L 120.0 1049.4 Z M 120.0 165.0 "></path></clipPath><g clip-path="url(#clip-520)"><text xml:space="preserve" font-family="HelveticaNeue" font-size="13.0" fill="#000000" transform="matrix(1.75, 0.00, -0.00, -1.75, 966.9, 291.2)">B</text><text xml:space="preserve" font-family="HelveticaNeue" font-size="13.0" fill="#000000" transform="matrix(1.75, 0.00, -0.00, -1.75, 982.5, 291.2)">i</text><text xml:space="preserve" font-family="HelveticaNeue" font-size="13.0" fill="#000000" transform="matrix(1.75, 0.00, -0.00, -1.75, 987.5, 291.2)">n</text><text xml:space="preserve" font-family="HelveticaNeue" font-size="13.0" fill="#000000" transform="matrix(1.75, 0.00, -0.00, -1.75, 1000.1, 291.2)">a</text><text xml:space="preserve" font-family="HelveticaNeue" font-size="13.0" fill="#000000" transform="matrix(1.75, 0.00, -0.00, -1.75, 1012.3, 291.2)">r</text><text xml:space="preserve" font-family="HelveticaNeue" font-size="13.0" fill="#000000" transform="matrix(1.75, 0.00, -0.00, -1.75, 1019.9, 291.2)">y</text><text xml:space="preserve" font-family="HelveticaNeue" font-size="13.0" fill="#000000" transform="matrix(1.75, 0.00, -0.00, -1.75, 1031.3, 291.2)"> </text><text xml:space="preserve" font-family="HelveticaNeue" font-size="13.0" fill="#000000" transform="matrix(1.75, 0.00, -0.00, -1.75, 1037.6, 291.2)">A</text><text xml:space="preserve" font-family="HelveticaNeue" font-size="13.0" fill="#000000" transform="matrix(1.75, 0.00, -0.00, -1.75, 1052.3, 291.2)">s</text><text xml:space="preserve" font-family="HelveticaNeue" font-size="13.0" fill="#000000" transform="matrix(1.75, 0.00, -0.00, -1.75, 1063.7, 291.2)">s</text><text xml:space="preserve" font-family="HelveticaNeue" font-size="13.0" fill="#000000" transform="matrix(1.75, 0.00, -0.00, -1.75, 1075.1, 291.2)">e</text><text xml:space="preserve" font-family="HelveticaNeue" font-size="13.0" fill="#000000" transform="matrix(1.75, 0.00, -0.00, -1.75, 1087.3, 291.2)">t</text><text xml:space="preserve" font-family="HelveticaNeue" font-size="13.0" fill="#000000" transform="matrix(1.75, 0.00, -0.00, -1.75, 985.8, 265.0)">M</text><text xml:space="preserve" font-family="HelveticaNeue" font-size="13.0" fill="#000000" transform="matrix(1.75, 0.00, -0.00, -1.75, 1005.6, 265.0)">a</text><text xml:space="preserve" font-family="HelveticaNeue" font-size="13.0" fill="#000000" transform="matrix(1.75, 0.00, -0.00, -1.75, 1017.8, 265.0)">n</text><text xml:space="preserve" font-family="HelveticaNeue" font-size="13.0" fill="#000000" transform="matrix(1.75, 0.00, -0.00, -1.75, 1030.5, 265.0)">a</text><text xml:space="preserve" font-family="HelveticaNeue" font-size="13.0" fill="#000000" transform="matrix(1.75, 0.00, -0.00, -1.75, 1042.7, 265.0)">g</text><text xml:space="preserve" font-family="HelveticaNeue" font-size="13.0" fill="#000000" transform="matrix(1.75, 0.00, -0.00, -1.75, 1055.7, 265.0)">e</text><text xml:space="preserve" font-family="HelveticaNeue" font-size="13.0" fill="#000000" transform="matrix(1.75, 0.00, -0.00, -1.75, 1067.9, 265.0)">r</text></g></g><g><clipPath id="clip-521"><path d="M 578.0 385.2 L 682.9 385.2 L 682.9 283.9 L 578.0 283.9 Z M 578.0 385.2 "></path></clipPath><g clip-path="url(#clip-521)"><g><clipPath id="clip-522"><path d="M 120.0 165.0 L 1569.3 165.0 L 1569.3 1049.4 L 120.0 1049.4 Z M 120.0 165.0 "></path></clipPath><g clip-path="url(#clip-522)"><image xlink:href="../../E758E5D6-3AC4-4A52-A174-5614A702074A/assets/8E5E072860FCF47F82E64C20AA22E8BF.png" width="70.00" height="84.00" transform="matrix(1.50, 0.00, -0.00, -1.21, 578.0, 385.2)"></image></g></g></g></g><g><clipPath id="clip-523"><path d="M 120.0 165.0 L 1569.3 165.0 L 1569.3 1049.4 L 120.0 1049.4 Z M 120.0 165.0 "></path></clipPath><g clip-path="url(#clip-523)"><text xml:space="preserve" font-family="HelveticaNeue" font-size="13.0" fill="#000000" transform="matrix(1.75, 0.00, -0.00, -1.75, 559.1, 244.0)">E</text><text xml:space="preserve" font-family="HelveticaNeue" font-size="13.0" fill="#000000" transform="matrix(1.75, 0.00, -0.00, -1.75, 573.0, 244.0)">q</text><text xml:space="preserve" font-family="HelveticaNeue" font-size="13.0" fill="#000000" transform="matrix(1.75, 0.00, -0.00, -1.75, 586.5, 244.0)">u</text><text xml:space="preserve" font-family="HelveticaNeue" font-size="13.0" fill="#000000" transform="matrix(1.75, 0.00, -0.00, -1.75, 599.1, 244.0)">a</text><text xml:space="preserve" font-family="HelveticaNeue" font-size="13.0" fill="#000000" transform="matrix(1.75, 0.00, -0.00, -1.75, 611.4, 244.0)">t</text><text xml:space="preserve" font-family="HelveticaNeue" font-size="13.0" fill="#000000" transform="matrix(1.75, 0.00, -0.00, -1.75, 618.5, 244.0)">i</text><text xml:space="preserve" font-family="HelveticaNeue" font-size="13.0" fill="#000000" transform="matrix(1.75, 0.00, -0.00, -1.75, 623.6, 244.0)">o</text><text xml:space="preserve" font-family="HelveticaNeue" font-size="13.0" fill="#000000" transform="matrix(1.75, 0.00, -0.00, -1.75, 636.6, 244.0)">n</text><text xml:space="preserve" font-family="HelveticaNeue" font-size="13.0" fill="#000000" transform="matrix(1.75, 0.00, -0.00, -1.75, 649.2, 244.0)"> </text><text xml:space="preserve" font-family="HelveticaNeue" font-size="13.0" fill="#000000" transform="matrix(1.75, 0.00, -0.00, -1.75, 655.6, 244.0)">C</text><text xml:space="preserve" font-family="HelveticaNeue" font-size="13.0" fill="#000000" transform="matrix(1.75, 0.00, -0.00, -1.75, 672.0, 244.0)">h</text><text xml:space="preserve" font-family="HelveticaNeue" font-size="13.0" fill="#000000" transform="matrix(1.75, 0.00, -0.00, -1.75, 684.6, 244.0)">e</text><text xml:space="preserve" font-family="HelveticaNeue" font-size="13.0" fill="#000000" transform="matrix(1.75, 0.00, -0.00, -1.75, 696.8, 244.0)">f</text><path d="M 165.6 225.9 L 133.6 258.2 " fill="none" stroke="#000000" stroke-width="1.00" stroke-miterlimit="0.00" stroke-linecap="round" stroke-linejoin="round" transform="matrix(1.75, 0.00, 0.00, -1.75, 5.3, 1177.0)"></path><path d="M 304.7 792.1 L 291.1 785.9 L 298.6 778.5 Z M 304.7 792.1 " fill="#000000"></path><path d="M 171.3 220.2 L 163.5 223.8 L 167.8 228.0 Z M 171.3 220.2 " fill="none" stroke="#000000" stroke-width="1.00" stroke-miterlimit="0.00" transform="matrix(1.75, 0.00, 0.00, -1.75, 5.3, 1177.0)"></path><path d="M 199.0 228.7 L 155.1 383.5 " fill="none" stroke="#000000" stroke-width="1.00" stroke-miterlimit="0.00" stroke-linecap="round" stroke-linejoin="round" transform="matrix(1.75, 0.00, 0.00, -1.75, 5.3, 1177.0)"></path><path d="M 357.0 790.7 L 348.1 778.7 L 358.2 775.9 Z M 357.0 790.7 " fill="#000000"></path><path d="M 201.2 221.0 L 196.1 227.9 L 201.9 229.5 Z M 201.2 221.0 " fill="none" stroke="#000000" stroke-width="1.00" stroke-miterlimit="0.00" transform="matrix(1.75, 0.00, 0.00, -1.75, 5.3, 1177.0)"></path><path d="M 218.8 229.0 L 245.0 486.0 " fill="none" stroke="#000000" stroke-width="1.00" stroke-miterlimit="0.00" stroke-linecap="round" stroke-linejoin="round" transform="matrix(1.75, 0.00, 0.00, -1.75, 5.3, 1177.0)"></path><path d="M 386.3 790.6 L 382.5 776.2 L 392.9 777.3 Z M 386.3 790.6 " fill="#000000"></path><path d="M 217.9 221.1 L 215.8 229.3 L 221.7 228.7 Z M 217.9 221.1 " fill="none" stroke="#000000" stroke-width="1.00" stroke-miterlimit="0.00" transform="matrix(1.75, 0.00, 0.00, -1.75, 5.3, 1177.0)"></path><path d="M 269.0 218.9 L 563.0 437.9 " fill="none" stroke="#000000" stroke-width="1.00" stroke-miterlimit="0.00" stroke-linecap="round" stroke-linejoin="round" transform="matrix(1.75, 0.00, 0.00, -1.75, 5.3, 1177.0)"></path><path d="M 464.4 802.7 L 472.5 790.2 L 478.7 798.6 Z M 464.4 802.7 " fill="#000000"></path><path d="M 262.6 214.1 L 267.2 221.3 L 270.8 216.5 Z M 262.6 214.1 " fill="none" stroke="#000000" stroke-width="1.00" stroke-miterlimit="0.00" transform="matrix(1.75, 0.00, 0.00, -1.75, 5.3, 1177.0)"></path><path d="M 237.4 228.1 L 343.9 453.0 " fill="none" stroke="#000000" stroke-width="1.00" stroke-miterlimit="0.00" stroke-linecap="round" stroke-linejoin="round" transform="matrix(1.75, 0.00, 0.00, -1.75, 5.3, 1177.0)"></path><path d="M 414.4 790.9 L 415.6 776.1 L 425.1 780.5 Z M 414.4 790.9 " fill="#000000"></path><path d="M 234.0 220.9 L 234.7 229.4 L 240.1 226.8 Z M 234.0 220.9 " fill="none" stroke="#000000" stroke-width="1.00" stroke-miterlimit="0.00" transform="matrix(1.75, 0.00, 0.00, -1.75, 5.3, 1177.0)"></path><text xml:space="preserve" font-family="HelveticaNeue" font-size="16.0" fill="#000000" transform="matrix(1.75, 0.00, -0.00, -1.75, 166.7, 974.3)">B</text><text xml:space="preserve" font-family="HelveticaNeue" font-size="16.0" fill="#000000" transform="matrix(1.75, 0.00, -0.00, -1.75, 185.9, 974.3)">B</text><text xml:space="preserve" font-family="HelveticaNeue" font-size="16.0" fill="#000000" transform="matrix(1.75, 0.00, -0.00, -1.75, 205.0, 974.3)">C</text><text xml:space="preserve" font-family="HelveticaNeue" font-size="16.0" fill="#000000" transform="matrix(1.75, 0.00, -0.00, -1.75, 225.2, 974.3)"> </text><text xml:space="preserve" font-family="HelveticaNeue" font-size="16.0" fill="#000000" transform="matrix(1.75, 0.00, -0.00, -1.75, 233.0, 974.3)">S</text><text xml:space="preserve" font-family="HelveticaNeue" font-size="16.0" fill="#000000" transform="matrix(1.75, 0.00, -0.00, -1.75, 251.1, 974.3)">e</text><text xml:space="preserve" font-family="HelveticaNeue" font-size="16.0" fill="#000000" transform="matrix(1.75, 0.00, -0.00, -1.75, 266.2, 974.3)">r</text><text xml:space="preserve" font-family="HelveticaNeue" font-size="16.0" fill="#000000" transform="matrix(1.75, 0.00, -0.00, -1.75, 275.5, 974.3)">v</text><text xml:space="preserve" font-family="HelveticaNeue" font-size="16.0" fill="#000000" transform="matrix(1.75, 0.00, -0.00, -1.75, 289.5, 974.3)">e</text><text xml:space="preserve" font-family="HelveticaNeue" font-size="16.0" fill="#000000" transform="matrix(1.75, 0.00, -0.00, -1.75, 304.5, 974.3)">r</text><text xml:space="preserve" font-family="HelveticaNeue" font-size="16.0" fill="#000000" transform="matrix(1.75, 0.00, -0.00, -1.75, 313.8, 974.3)"> </text><text xml:space="preserve" font-family="HelveticaNeue" font-size="16.0" fill="#000000" transform="matrix(1.75, 0.00, -0.00, -1.75, 321.6, 974.3)">F</text><text xml:space="preserve" font-family="HelveticaNeue" font-size="16.0" fill="#000000" transform="matrix(1.75, 0.00, -0.00, -1.75, 337.6, 974.3)">a</text><text xml:space="preserve" font-family="HelveticaNeue" font-size="16.0" fill="#000000" transform="matrix(1.75, 0.00, -0.00, -1.75, 352.6, 974.3)">r</text><text xml:space="preserve" font-family="HelveticaNeue" font-size="16.0" fill="#000000" transform="matrix(1.75, 0.00, -0.00, -1.75, 362.0, 974.3)">m</text></g></g><g><clipPath id="clip-524"><path d="M 550.7 1050.0 L 676.6 1050.0 L 676.6 967.8 L 550.7 967.8 Z M 550.7 1050.0 "></path></clipPath><g clip-path="url(#clip-524)"><g><clipPath id="clip-525"><path d="M 120.0 165.0 L 1569.3 165.0 L 1569.3 1049.4 L 120.0 1049.4 Z M 120.0 165.0 "></path></clipPath><g clip-path="url(#clip-525)"><image xlink:href="CB46B81FCFE05BA996B1C038E63372D2.png" width="72.00" height="47.00" transform="matrix(1.75, 0.00, -0.00, -1.75, 550.7, 1049.4)"></image></g></g></g></g></g></svg>