<?xml version="1.0" encoding="UTF-8" standalone="no"?><svg xmlns="http://www.w3.org/2000/svg" xmlns:xlink="http://www.w3.org/1999/xlink" clip-rule="evenodd" stroke-miterlimit="4.00" viewBox="0 0 730 93"><desc>SVG generated by Keynote</desc><defs></defs><g transform="matrix(1.00, 0.00, -0.00, -1.00, 0.0, 93.0)"><g><clipPath id="clip-395"><path d="M 0.0 2.1 L 730.0 2.1 L 730.0 93.0 L 0.0 93.0 Z M 0.0 2.1 "></path></clipPath><g clip-path="url(#clip-395)"><text xml:space="preserve" font-family="HelveticaNeue-Bold" font-weight="bold" font-size="98.0" fill="#282828" transform="matrix(1.00, 0.00, -0.00, -1.00, -4.0, 19.0)">K</text><text xml:space="preserve" font-family="HelveticaNeue-Bold" font-weight="bold" font-size="98.0" fill="#282828" transform="matrix(1.00, 0.00, -0.00, -1.00, 66.8, 19.0)">e</text><text xml:space="preserve" font-family="HelveticaNeue-Bold" font-weight="bold" font-size="98.0" fill="#282828" transform="matrix(1.00, 0.00, -0.00, -1.00, 123.0, 19.0)">y</text><text xml:space="preserve" font-family="HelveticaNeue-Bold" font-weight="bold" font-size="98.0" fill="#282828" transform="matrix(1.00, 0.00, -0.00, -1.00, 173.9, 19.0)"> </text><text xml:space="preserve" font-family="HelveticaNeue-Bold" font-weight="bold" font-size="98.0" fill="#282828" transform="matrix(1.00, 0.00, -0.00, -1.00, 201.1, 19.0)">V</text><text xml:space="preserve" font-family="HelveticaNeue-Bold" font-weight="bold" font-size="98.0" fill="#282828" transform="matrix(1.00, 0.00, -0.00, -1.00, 257.5, 19.0)">a</text><text xml:space="preserve" font-family="HelveticaNeue-Bold" font-weight="bold" font-size="98.0" fill="#282828" transform="matrix(1.00, 0.00, -0.00, -1.00, 313.7, 19.0)">l</text><text xml:space="preserve" font-family="HelveticaNeue-Bold" font-weight="bold" font-size="98.0" fill="#282828" transform="matrix(1.00, 0.00, -0.00, -1.00, 339.0, 19.0)">u</text><text xml:space="preserve" font-family="HelveticaNeue-Bold" font-weight="bold" font-size="98.0" fill="#282828" transform="matrix(1.00, 0.00, -0.00, -1.00, 397.1, 19.0)">e</text><text xml:space="preserve" font-family="HelveticaNeue-Bold" font-weight="bold" font-size="98.0" fill="#282828" transform="matrix(1.00, 0.00, -0.00, -1.00, 453.4, 19.0)"> </text><text xml:space="preserve" font-family="HelveticaNeue-Bold" font-weight="bold" font-size="98.0" fill="#282828" transform="matrix(1.00, 0.00, -0.00, -1.00, 480.6, 19.0)">S</text><text xml:space="preserve" font-family="HelveticaNeue-Bold" font-weight="bold" font-size="98.0" fill="#282828" transform="matrix(1.00, 0.00, -0.00, -1.00, 544.2, 19.0)">t</text><text xml:space="preserve" font-family="HelveticaNeue-Bold" font-weight="bold" font-size="98.0" fill="#282828" transform="matrix(1.00, 0.00, -0.00, -1.00, 578.7, 19.0)">o</text><text xml:space="preserve" font-family="HelveticaNeue-Bold" font-weight="bold" font-size="98.0" fill="#282828" transform="matrix(1.00, 0.00, -0.00, -1.00, 638.6, 19.0)">r</text><text xml:space="preserve" font-family="HelveticaNeue-Bold" font-weight="bold" font-size="98.0" fill="#282828" transform="matrix(1.00, 0.00, -0.00, -1.00, 674.9, 19.0)">e</text></g></g></g></svg>