<?xml version="1.0" encoding="UTF-8" standalone="no"?><svg xmlns="http://www.w3.org/2000/svg" xmlns:xlink="http://www.w3.org/1999/xlink" clip-rule="evenodd" stroke-miterlimit="4.00" viewBox="0 0 1920 1080"><desc>SVG generated by Keynote</desc><defs><radialGradient id="gradSh1.64" cx="0.0" cy="-3.7" r="21.1" fx="0.0" fy="-3.7" gradientUnits="userSpaceOnUse" gradientTransform="matrix(1.67, 0.00, 0.00, -1.67, 331.7, 886.6)"><stop offset="0.00000" stop-color="#FFFFFF"></stop><stop offset="0.00880" stop-color="#FEFEFE"></stop><stop offset="1.00000" stop-color="#AAAAAA"></stop></radialGradient><radialGradient id="gradSh2.65" cx="0.0" cy="0.0" r="12.9" fx="0.0" fy="0.0" gradientUnits="userSpaceOnUse" gradientTransform="matrix(1.67, 0.00, 0.00, -1.67, 331.7, 921.5)"><stop offset="0.00000" stop-color="#FFFFFF"></stop><stop offset="0.01466" stop-color="#FEFEFE"></stop><stop offset="1.00000" stop-color="#CECECE"></stop></radialGradient><radialGradient id="gradSh3.66" cx="0.0" cy="-3.7" r="21.1" fx="0.0" fy="-3.7" gradientUnits="userSpaceOnUse" gradientTransform="matrix(1.67, 0.00, 0.00, -1.67, 1079.6, 108.6)"><stop offset="0.00000" stop-color="#FFFFFF"></stop><stop offset="0.00880" stop-color="#FEFEFE"></stop><stop offset="1.00000" stop-color="#AAAAAA"></stop></radialGradient><radialGradient id="gradSh4.67" cx="0.0" cy="0.0" r="12.9" fx="0.0" fy="0.0" gradientUnits="userSpaceOnUse" gradientTransform="matrix(1.67, 0.00, 0.00, -1.67, 1079.6, 143.5)"><stop offset="0.00000" stop-color="#FFFFFF"></stop><stop offset="0.01466" stop-color="#FEFEFE"></stop><stop offset="1.00000" stop-color="#CECECE"></stop></radialGradient></defs><g transform="matrix(1.00, 0.00, -0.00, -1.00, 0.0, 1080.0)"><path d="M 0.0 1080.0 L 1920.0 1080.0 L 1920.0 0.0 L 0.0 0.0 Z M 0.0 1080.0 " fill="#EEEDED"></path><path d="M 0.0 0.0 L 1836.0 0.0 " fill="none" stroke="#000000" stroke-width="2.00" transform="matrix(1.00, 0.00, 0.00, -1.00, 41.0, 58.0)"></path><text xml:space="preserve" font-family="HelveticaNeue-Bold" font-weight="bold" font-size="23.0" fill="#000000" transform="matrix(1.00, 0.00, -0.00, -1.00, 61.0, 24.0)">D</text><text xml:space="preserve" font-family="HelveticaNeue-Bold" font-weight="bold" font-size="23.0" fill="#000000" transform="matrix(1.00, 0.00, -0.00, -1.00, 78.0, 24.0)">i</text><text xml:space="preserve" font-family="HelveticaNeue-Bold" font-weight="bold" font-size="23.0" fill="#000000" transform="matrix(1.00, 0.00, -0.00, -1.00, 84.0, 24.0)">s</text><text xml:space="preserve" font-family="HelveticaNeue-Bold" font-weight="bold" font-size="23.0" fill="#000000" transform="matrix(1.00, 0.00, -0.00, -1.00, 96.3, 24.0)">m</text><text xml:space="preserve" font-family="HelveticaNeue-Bold" font-weight="bold" font-size="23.0" fill="#000000" transform="matrix(1.00, 0.00, -0.00, -1.00, 117.2, 24.0)">a</text><text xml:space="preserve" font-family="HelveticaNeue-Bold" font-weight="bold" font-size="23.0" fill="#000000" transform="matrix(1.00, 0.00, -0.00, -1.00, 130.4, 24.0)">n</text><text xml:space="preserve" font-family="HelveticaNeue-Bold" font-weight="bold" font-size="23.0" fill="#000000" transform="matrix(1.00, 0.00, -0.00, -1.00, 144.0, 24.0)">t</text><text xml:space="preserve" font-family="HelveticaNeue-Bold" font-weight="bold" font-size="23.0" fill="#000000" transform="matrix(1.00, 0.00, -0.00, -1.00, 152.1, 24.0)">l</text><text xml:space="preserve" font-family="HelveticaNeue-Bold" font-weight="bold" font-size="23.0" fill="#000000" transform="matrix(1.00, 0.00, -0.00, -1.00, 158.0, 24.0)">i</text><text xml:space="preserve" font-family="HelveticaNeue-Bold" font-weight="bold" font-size="23.0" fill="#000000" transform="matrix(1.00, 0.00, -0.00, -1.00, 164.0, 24.0)">n</text><text xml:space="preserve" font-family="HelveticaNeue-Bold" font-weight="bold" font-size="23.0" fill="#000000" transform="matrix(1.00, 0.00, -0.00, -1.00, 177.6, 24.0)">g</text><text xml:space="preserve" font-family="HelveticaNeue-Bold" font-weight="bold" font-size="23.0" fill="#000000" transform="matrix(1.00, 0.00, -0.00, -1.00, 191.7, 24.0)"> </text><text xml:space="preserve" font-family="HelveticaNeue-Bold" font-weight="bold" font-size="23.0" fill="#000000" transform="matrix(1.00, 0.00, -0.00, -1.00, 198.1, 24.0)">M</text><text xml:space="preserve" font-family="HelveticaNeue-Bold" font-weight="bold" font-size="23.0" fill="#000000" transform="matrix(1.00, 0.00, -0.00, -1.00, 218.9, 24.0)">o</text><text xml:space="preserve" font-family="HelveticaNeue-Bold" font-weight="bold" font-size="23.0" fill="#000000" transform="matrix(1.00, 0.00, -0.00, -1.00, 233.0, 24.0)">n</text><text xml:space="preserve" font-family="HelveticaNeue-Bold" font-weight="bold" font-size="23.0" fill="#000000" transform="matrix(1.00, 0.00, -0.00, -1.00, 246.6, 24.0)">o</text><text xml:space="preserve" font-family="HelveticaNeue-Bold" font-weight="bold" font-size="23.0" fill="#000000" transform="matrix(1.00, 0.00, -0.00, -1.00, 260.7, 24.0)">l</text><text xml:space="preserve" font-family="HelveticaNeue-Bold" font-weight="bold" font-size="23.0" fill="#000000" transform="matrix(1.00, 0.00, -0.00, -1.00, 266.6, 24.0)">i</text><text xml:space="preserve" font-family="HelveticaNeue-Bold" font-weight="bold" font-size="23.0" fill="#000000" transform="matrix(1.00, 0.00, -0.00, -1.00, 272.5, 24.0)">t</text><text xml:space="preserve" font-family="HelveticaNeue-Bold" font-weight="bold" font-size="23.0" fill="#000000" transform="matrix(1.00, 0.00, -0.00, -1.00, 280.6, 24.0)">h</text><text xml:space="preserve" font-family="HelveticaNeue-Bold" font-weight="bold" font-size="23.0" fill="#000000" transform="matrix(1.00, 0.00, -0.00, -1.00, 294.3, 24.0)">s</text><text xml:space="preserve" font-family="HelveticaNeue-Bold" font-weight="bold" font-size="23.0" fill="#000000" transform="matrix(1.00, 0.00, -0.00, -1.00, 306.6, 24.0)">:</text><text xml:space="preserve" font-family="HelveticaNeue-Bold" font-weight="bold" font-size="23.0" fill="#000000" transform="matrix(1.00, 0.00, -0.00, -1.00, 313.0, 24.0)"> </text><text xml:space="preserve" font-family="HelveticaNeue-Bold" font-weight="bold" font-size="23.0" fill="#000000" transform="matrix(1.00, 0.00, -0.00, -1.00, 319.4, 24.0)">u</text><text xml:space="preserve" font-family="HelveticaNeue-Bold" font-weight="bold" font-size="23.0" fill="#000000" transform="matrix(1.00, 0.00, -0.00, -1.00, 333.0, 24.0)">s</text><text xml:space="preserve" font-family="HelveticaNeue-Bold" font-weight="bold" font-size="23.0" fill="#000000" transform="matrix(1.00, 0.00, -0.00, -1.00, 345.4, 24.0)">i</text><text xml:space="preserve" font-family="HelveticaNeue-Bold" font-weight="bold" font-size="23.0" fill="#000000" transform="matrix(1.00, 0.00, -0.00, -1.00, 351.3, 24.0)">n</text><text xml:space="preserve" font-family="HelveticaNeue-Bold" font-weight="bold" font-size="23.0" fill="#000000" transform="matrix(1.00, 0.00, -0.00, -1.00, 365.0, 24.0)">g</text><text xml:space="preserve" font-family="HelveticaNeue-Bold" font-weight="bold" font-size="23.0" fill="#000000" transform="matrix(1.00, 0.00, -0.00, -1.00, 379.0, 24.0)"> </text><text xml:space="preserve" font-family="HelveticaNeue-Bold" font-weight="bold" font-size="23.0" fill="#000000" transform="matrix(1.00, 0.00, -0.00, -1.00, 385.4, 24.0)">m</text><text xml:space="preserve" font-family="HelveticaNeue-Bold" font-weight="bold" font-size="23.0" fill="#000000" transform="matrix(1.00, 0.00, -0.00, -1.00, 406.3, 24.0)">i</text><text xml:space="preserve" font-family="HelveticaNeue-Bold" font-weight="bold" font-size="23.0" fill="#000000" transform="matrix(1.00, 0.00, -0.00, -1.00, 412.2, 24.0)">c</text><text xml:space="preserve" font-family="HelveticaNeue-Bold" font-weight="bold" font-size="23.0" fill="#000000" transform="matrix(1.00, 0.00, -0.00, -1.00, 425.4, 24.0)">r</text><text xml:space="preserve" font-family="HelveticaNeue-Bold" font-weight="bold" font-size="23.0" fill="#000000" transform="matrix(1.00, 0.00, -0.00, -1.00, 433.9, 24.0)">o</text><text xml:space="preserve" font-family="HelveticaNeue-Bold" font-weight="bold" font-size="23.0" fill="#000000" transform="matrix(1.00, 0.00, -0.00, -1.00, 448.0, 24.0)">s</text><text xml:space="preserve" font-family="HelveticaNeue-Bold" font-weight="bold" font-size="23.0" fill="#000000" transform="matrix(1.00, 0.00, -0.00, -1.00, 460.3, 24.0)">e</text><text xml:space="preserve" font-family="HelveticaNeue-Bold" font-weight="bold" font-size="23.0" fill="#000000" transform="matrix(1.00, 0.00, -0.00, -1.00, 473.5, 24.0)">r</text><text xml:space="preserve" font-family="HelveticaNeue-Bold" font-weight="bold" font-size="23.0" fill="#000000" transform="matrix(1.00, 0.00, -0.00, -1.00, 482.5, 24.0)">v</text><text xml:space="preserve" font-family="HelveticaNeue-Bold" font-weight="bold" font-size="23.0" fill="#000000" transform="matrix(1.00, 0.00, -0.00, -1.00, 494.4, 24.0)">i</text><text xml:space="preserve" font-family="HelveticaNeue-Bold" font-weight="bold" font-size="23.0" fill="#000000" transform="matrix(1.00, 0.00, -0.00, -1.00, 500.4, 24.0)">c</text><text xml:space="preserve" font-family="HelveticaNeue-Bold" font-weight="bold" font-size="23.0" fill="#000000" transform="matrix(1.00, 0.00, -0.00, -1.00, 513.6, 24.0)">e</text><text xml:space="preserve" font-family="HelveticaNeue-Bold" font-weight="bold" font-size="23.0" fill="#000000" transform="matrix(1.00, 0.00, -0.00, -1.00, 526.8, 24.0)">s</text><text xml:space="preserve" font-family="HelveticaNeue-Bold" font-weight="bold" font-size="23.0" fill="#000000" transform="matrix(1.00, 0.00, -0.00, -1.00, 539.1, 24.0)"> </text><text xml:space="preserve" font-family="HelveticaNeue-Bold" font-weight="bold" font-size="23.0" fill="#000000" transform="matrix(1.00, 0.00, -0.00, -1.00, 545.5, 24.0)">a</text><text xml:space="preserve" font-family="HelveticaNeue-Bold" font-weight="bold" font-size="23.0" fill="#000000" transform="matrix(1.00, 0.00, -0.00, -1.00, 558.7, 24.0)">n</text><text xml:space="preserve" font-family="HelveticaNeue-Bold" font-weight="bold" font-size="23.0" fill="#000000" transform="matrix(1.00, 0.00, -0.00, -1.00, 572.4, 24.0)">d</text><text xml:space="preserve" font-family="HelveticaNeue-Bold" font-weight="bold" font-size="23.0" fill="#000000" transform="matrix(1.00, 0.00, -0.00, -1.00, 586.4, 24.0)"> </text><text xml:space="preserve" font-family="HelveticaNeue-Bold" font-weight="bold" font-size="23.0" fill="#000000" transform="matrix(1.00, 0.00, -0.00, -1.00, 592.8, 24.0)">c</text><text xml:space="preserve" font-family="HelveticaNeue-Bold" font-weight="bold" font-size="23.0" fill="#000000" transform="matrix(1.00, 0.00, -0.00, -1.00, 606.0, 24.0)">o</text><text xml:space="preserve" font-family="HelveticaNeue-Bold" font-weight="bold" font-size="23.0" fill="#000000" transform="matrix(1.00, 0.00, -0.00, -1.00, 620.1, 24.0)">n</text><text xml:space="preserve" font-family="HelveticaNeue-Bold" font-weight="bold" font-size="23.0" fill="#000000" transform="matrix(1.00, 0.00, -0.00, -1.00, 633.7, 24.0)">t</text><text xml:space="preserve" font-family="HelveticaNeue-Bold" font-weight="bold" font-size="23.0" fill="#000000" transform="matrix(1.00, 0.00, -0.00, -1.00, 641.8, 24.0)">i</text><text xml:space="preserve" font-family="HelveticaNeue-Bold" font-weight="bold" font-size="23.0" fill="#000000" transform="matrix(1.00, 0.00, -0.00, -1.00, 647.7, 24.0)">n</text><text xml:space="preserve" font-family="HelveticaNeue-Bold" font-weight="bold" font-size="23.0" fill="#000000" transform="matrix(1.00, 0.00, -0.00, -1.00, 661.4, 24.0)">u</text><text xml:space="preserve" font-family="HelveticaNeue-Bold" font-weight="bold" font-size="23.0" fill="#000000" transform="matrix(1.00, 0.00, -0.00, -1.00, 675.0, 24.0)">o</text><text xml:space="preserve" font-family="HelveticaNeue-Bold" font-weight="bold" font-size="23.0" fill="#000000" transform="matrix(1.00, 0.00, -0.00, -1.00, 689.1, 24.0)">u</text><text xml:space="preserve" font-family="HelveticaNeue-Bold" font-weight="bold" font-size="23.0" fill="#000000" transform="matrix(1.00, 0.00, -0.00, -1.00, 702.7, 24.0)">s</text><text xml:space="preserve" font-family="HelveticaNeue-Bold" font-weight="bold" font-size="23.0" fill="#000000" transform="matrix(1.00, 0.00, -0.00, -1.00, 715.1, 24.0)"> </text><text xml:space="preserve" font-family="HelveticaNeue-Bold" font-weight="bold" font-size="23.0" fill="#000000" transform="matrix(1.00, 0.00, -0.00, -1.00, 721.4, 24.0)">d</text><text xml:space="preserve" font-family="HelveticaNeue-Bold" font-weight="bold" font-size="23.0" fill="#000000" transform="matrix(1.00, 0.00, -0.00, -1.00, 735.5, 24.0)">e</text><text xml:space="preserve" font-family="HelveticaNeue-Bold" font-weight="bold" font-size="23.0" fill="#000000" transform="matrix(1.00, 0.00, -0.00, -1.00, 748.7, 24.0)">l</text><text xml:space="preserve" font-family="HelveticaNeue-Bold" font-weight="bold" font-size="23.0" fill="#000000" transform="matrix(1.00, 0.00, -0.00, -1.00, 754.6, 24.0)">i</text><text xml:space="preserve" font-family="HelveticaNeue-Bold" font-weight="bold" font-size="23.0" fill="#000000" transform="matrix(1.00, 0.00, -0.00, -1.00, 760.6, 24.0)">v</text><text xml:space="preserve" font-family="HelveticaNeue-Bold" font-weight="bold" font-size="23.0" fill="#000000" transform="matrix(1.00, 0.00, -0.00, -1.00, 772.5, 24.0)">e</text><text xml:space="preserve" font-family="HelveticaNeue-Bold" font-weight="bold" font-size="23.0" fill="#000000" transform="matrix(1.00, 0.00, -0.00, -1.00, 785.7, 24.0)">r</text><text xml:space="preserve" font-family="HelveticaNeue-Bold" font-weight="bold" font-size="23.0" fill="#000000" transform="matrix(1.00, 0.00, -0.00, -1.00, 794.7, 24.0)">y</text><text xml:space="preserve" font-family="HelveticaNeue-Bold" font-weight="bold" font-size="23.0" fill="#000000" transform="matrix(1.00, 0.00, -0.00, -1.00, 806.6, 24.0)"> </text><text xml:space="preserve" font-family="HelveticaNeue-Bold" font-weight="bold" font-size="23.0" fill="#000000" transform="matrix(1.00, 0.00, -0.00, -1.00, 813.0, 24.0)">a</text><text xml:space="preserve" font-family="HelveticaNeue-Bold" font-weight="bold" font-size="23.0" fill="#000000" transform="matrix(1.00, 0.00, -0.00, -1.00, 826.2, 24.0)">t</text><text xml:space="preserve" font-family="HelveticaNeue-Bold" font-weight="bold" font-size="23.0" fill="#000000" transform="matrix(1.00, 0.00, -0.00, -1.00, 834.3, 24.0)"> </text><text xml:space="preserve" font-family="HelveticaNeue-Bold" font-weight="bold" font-size="23.0" fill="#000000" transform="matrix(1.00, 0.00, -0.00, -1.00, 840.7, 24.0)">t</text><text xml:space="preserve" font-family="HelveticaNeue-Bold" font-weight="bold" font-size="23.0" fill="#000000" transform="matrix(1.00, 0.00, -0.00, -1.00, 848.8, 24.0)">h</text><text xml:space="preserve" font-family="HelveticaNeue-Bold" font-weight="bold" font-size="23.0" fill="#000000" transform="matrix(1.00, 0.00, -0.00, -1.00, 862.4, 24.0)">e</text><text xml:space="preserve" font-family="HelveticaNeue-Bold" font-weight="bold" font-size="23.0" fill="#000000" transform="matrix(1.00, 0.00, -0.00, -1.00, 875.6, 24.0)"> </text><text xml:space="preserve" font-family="HelveticaNeue-Bold" font-weight="bold" font-size="23.0" fill="#000000" transform="matrix(1.00, 0.00, -0.00, -1.00, 882.0, 24.0)">B</text><text xml:space="preserve" font-family="HelveticaNeue-Bold" font-weight="bold" font-size="23.0" fill="#000000" transform="matrix(1.00, 0.00, -0.00, -1.00, 898.2, 24.0)">B</text><text xml:space="preserve" font-family="HelveticaNeue-Bold" font-weight="bold" font-size="23.0" fill="#000000" transform="matrix(1.00, 0.00, -0.00, -1.00, 914.4, 24.0)">C</text><image xlink:href="../../D0517147-4847-4A0F-8B98-32B995C105A1/assets/0BF8E63FE00997E10C4EC11A1CFD77DD.png" width="97.00" height="27.00" transform="matrix(1.00, 0.00, -0.00, -1.00, 1751.0, 44.0)"></image><g><clipPath id="clip-621"><path d="M 1155.4 886.3 L 1920.0 886.3 L 1920.0 999.3 L 1155.4 999.3 Z M 1155.4 886.3 "></path></clipPath><g clip-path="url(#clip-621)"><text xml:space="preserve" font-family="HelveticaNeue-Bold" font-weight="bold" font-size="98.0" fill="#282828" transform="matrix(1.00, 0.00, -0.00, -1.00, 1185.0, 903.0)">B</text><text xml:space="preserve" font-family="HelveticaNeue-Bold" font-weight="bold" font-size="98.0" fill="#282828" transform="matrix(1.00, 0.00, -0.00, -1.00, 1254.0, 903.0)">i</text><text xml:space="preserve" font-family="HelveticaNeue-Bold" font-weight="bold" font-size="98.0" fill="#282828" transform="matrix(1.00, 0.00, -0.00, -1.00, 1279.3, 903.0)">t</text><text xml:space="preserve" font-family="HelveticaNeue-Bold" font-weight="bold" font-size="98.0" fill="#282828" transform="matrix(1.00, 0.00, -0.00, -1.00, 1313.8, 903.0)">e</text><text xml:space="preserve" font-family="HelveticaNeue-Bold" font-weight="bold" font-size="98.0" fill="#282828" transform="matrix(1.00, 0.00, -0.00, -1.00, 1370.0, 903.0)">s</text><text xml:space="preserve" font-family="HelveticaNeue-Bold" font-weight="bold" font-size="98.0" fill="#282828" transform="matrix(1.00, 0.00, -0.00, -1.00, 1422.7, 903.0)">i</text><text xml:space="preserve" font-family="HelveticaNeue-Bold" font-weight="bold" font-size="98.0" fill="#282828" transform="matrix(1.00, 0.00, -0.00, -1.00, 1447.9, 903.0)">z</text><text xml:space="preserve" font-family="HelveticaNeue-Bold" font-weight="bold" font-size="98.0" fill="#282828" transform="matrix(1.00, 0.00, -0.00, -1.00, 1498.8, 903.0)">e</text><text xml:space="preserve" font-family="HelveticaNeue-Bold" font-weight="bold" font-size="98.0" fill="#282828" transform="matrix(1.00, 0.00, -0.00, -1.00, 1555.0, 903.0)"> </text><text xml:space="preserve" font-family="HelveticaNeue-Bold" font-weight="bold" font-size="98.0" fill="#282828" transform="matrix(1.00, 0.00, -0.00, -1.00, 1582.3, 903.0)">A</text><text xml:space="preserve" font-family="HelveticaNeue-Bold" font-weight="bold" font-size="98.0" fill="#282828" transform="matrix(1.00, 0.00, -0.00, -1.00, 1649.4, 903.0)">p</text><text xml:space="preserve" font-family="HelveticaNeue-Bold" font-weight="bold" font-size="98.0" fill="#282828" transform="matrix(1.00, 0.00, -0.00, -1.00, 1709.3, 903.0)">p</text></g></g><g><clipPath id="clip-622"><path d="M 244.0 72.0 L 1109.1 72.0 L 1109.1 1061.0 L 244.0 1061.0 Z M 244.0 72.0 "></path></clipPath><g clip-path="url(#clip-622)"><image xlink:href="46E6B367EEBBA28048F651224B2DD8EA.png" width="36.00" height="40.00" transform="matrix(1.67, 0.00, -0.00, 1.67, 300.7, 849.2)"></image><image xlink:href="5081C5411022158E79BC6E70E9B250F3.png" width="31.00" height="31.00" transform="matrix(1.67, 0.00, -0.00, 1.67, 305.7, 892.6)"></image><image xlink:href="9293D3CFEE9A58EEA21063C795DF8172.png" width="36.00" height="40.00" transform="matrix(1.67, 0.00, -0.00, 1.67, 1049.1, 70.3)"></image><image xlink:href="D5C9EC94FC65C57FFCEBCC25A851131D.png" width="31.00" height="31.00" transform="matrix(1.67, 0.00, -0.00, 1.67, 1054.1, 113.7)"></image><path d="M 411.7 970.9 L 533.0 970.9 C 547.4 970.9 559.0 939.2 559.0 900.1 C 559.0 860.9 547.4 829.2 533.0 829.2 L 411.7 829.2 C 397.3 829.2 385.7 860.9 385.7 900.1 C 385.7 939.2 397.3 970.9 411.7 970.9 " fill="#FEFFFF"></path><path d="M 215.6 139.5 L 288.4 139.5 C 297.0 139.0 304.0 158.0 304.0 181.5 C 304.0 205.0 297.0 224.0 288.4 224.5 L 215.6 224.5 C 207.0 224.0 200.0 205.0 200.0 181.5 C 200.0 158.0 207.0 139.0 215.6 139.0 " fill="none" stroke="#000000" stroke-width="1.00" stroke-miterlimit="0.00" stroke-linecap="round" stroke-linejoin="round" transform="matrix(1.67, 0.00, 0.00, -1.67, 52.3, 1202.8)"></path><text xml:space="preserve" font-family="Helvetica" font-size="12.0" fill="#000000" transform="matrix(1.67, 0.00, -0.00, -1.67, 428.8, 916.7)">P</text><text xml:space="preserve" font-family="Helvetica" font-size="12.0" fill="#000000" transform="matrix(1.67, 0.00, -0.00, -1.67, 442.1, 916.7)">H</text><text xml:space="preserve" font-family="Helvetica" font-size="12.0" fill="#000000" transform="matrix(1.67, 0.00, -0.00, -1.67, 456.6, 916.7)">P</text><text xml:space="preserve" font-family="Helvetica" font-size="12.0" fill="#000000" transform="matrix(1.67, 0.00, -0.00, -1.67, 469.6, 916.7)"> </text><text xml:space="preserve" font-family="Helvetica" font-size="12.0" fill="#000000" transform="matrix(1.67, 0.00, -0.00, -1.67, 475.1, 916.7)">W</text><text xml:space="preserve" font-family="Helvetica" font-size="12.0" fill="#000000" transform="matrix(1.67, 0.00, -0.00, -1.67, 493.7, 916.7)">e</text><text xml:space="preserve" font-family="Helvetica" font-size="12.0" fill="#000000" transform="matrix(1.67, 0.00, -0.00, -1.67, 504.8, 916.7)">b</text><text xml:space="preserve" font-family="Helvetica" font-size="12.0" fill="#000000" transform="matrix(1.67, 0.00, -0.00, -1.67, 515.9, 916.7)"> </text><text xml:space="preserve" font-family="Helvetica" font-size="12.0" fill="#000000" transform="matrix(1.67, 0.00, -0.00, -1.67, 437.3, 893.4)">B</text><text xml:space="preserve" font-family="Helvetica" font-size="12.0" fill="#000000" transform="matrix(1.67, 0.00, -0.00, -1.67, 450.7, 893.4)">i</text><text xml:space="preserve" font-family="Helvetica" font-size="12.0" fill="#000000" transform="matrix(1.67, 0.00, -0.00, -1.67, 455.1, 893.4)">t</text><text xml:space="preserve" font-family="Helvetica" font-size="12.0" fill="#000000" transform="matrix(1.67, 0.00, -0.00, -1.67, 460.7, 893.4)">e</text><text xml:space="preserve" font-family="Helvetica" font-size="12.0" fill="#000000" transform="matrix(1.67, 0.00, -0.00, -1.67, 471.8, 893.4)">s</text><text xml:space="preserve" font-family="Helvetica" font-size="12.0" fill="#000000" transform="matrix(1.67, 0.00, -0.00, -1.67, 481.8, 893.4)">i</text><text xml:space="preserve" font-family="Helvetica" font-size="12.0" fill="#000000" transform="matrix(1.67, 0.00, -0.00, -1.67, 486.3, 893.4)">z</text><text xml:space="preserve" font-family="Helvetica" font-size="12.0" fill="#000000" transform="matrix(1.67, 0.00, -0.00, -1.67, 496.3, 893.4)">e</text><text xml:space="preserve" font-family="Helvetica" font-size="12.0" fill="#000000" transform="matrix(1.67, 0.00, -0.00, -1.67, 507.4, 893.4)"> </text><text xml:space="preserve" font-family="Helvetica" font-size="12.0" fill="#000000" transform="matrix(1.67, 0.00, -0.00, -1.67, 424.5, 870.0)">a</text><text xml:space="preserve" font-family="Helvetica" font-size="12.0" fill="#000000" transform="matrix(1.67, 0.00, -0.00, -1.67, 435.7, 870.0)">p</text><text xml:space="preserve" font-family="Helvetica" font-size="12.0" fill="#000000" transform="matrix(1.67, 0.00, -0.00, -1.67, 446.8, 870.0)">p</text><text xml:space="preserve" font-family="Helvetica" font-size="12.0" fill="#000000" transform="matrix(1.67, 0.00, -0.00, -1.67, 457.9, 870.0)">l</text><text xml:space="preserve" font-family="Helvetica" font-size="12.0" fill="#000000" transform="matrix(1.67, 0.00, -0.00, -1.67, 462.4, 870.0)">i</text><text xml:space="preserve" font-family="Helvetica" font-size="12.0" fill="#000000" transform="matrix(1.67, 0.00, -0.00, -1.67, 466.8, 870.0)">c</text><text xml:space="preserve" font-family="Helvetica" font-size="12.0" fill="#000000" transform="matrix(1.67, 0.00, -0.00, -1.67, 476.8, 870.0)">a</text><text xml:space="preserve" font-family="Helvetica" font-size="12.0" fill="#000000" transform="matrix(1.67, 0.00, -0.00, -1.67, 488.0, 870.0)">t</text><text xml:space="preserve" font-family="Helvetica" font-size="12.0" fill="#000000" transform="matrix(1.67, 0.00, -0.00, -1.67, 493.5, 870.0)">i</text><text xml:space="preserve" font-family="Helvetica" font-size="12.0" fill="#000000" transform="matrix(1.67, 0.00, -0.00, -1.67, 498.0, 870.0)">o</text><text xml:space="preserve" font-family="Helvetica" font-size="12.0" fill="#000000" transform="matrix(1.67, 0.00, -0.00, -1.67, 509.1, 870.0)">n</text><text xml:space="preserve" font-family="HelveticaNeue" font-size="16.0" fill="#000000" transform="matrix(1.67, 0.00, -0.00, -1.67, 438.2, 1026.0)">F</text><text xml:space="preserve" font-family="HelveticaNeue" font-size="16.0" fill="#000000" transform="matrix(1.67, 0.00, -0.00, -1.67, 453.5, 1026.0)">o</text><text xml:space="preserve" font-family="HelveticaNeue" font-size="16.0" fill="#000000" transform="matrix(1.67, 0.00, -0.00, -1.67, 468.8, 1026.0)">r</text><text xml:space="preserve" font-family="HelveticaNeue" font-size="16.0" fill="#000000" transform="matrix(1.67, 0.00, -0.00, -1.67, 476.9, 1026.0)">g</text><text xml:space="preserve" font-family="HelveticaNeue" font-size="16.0" fill="#000000" transform="matrix(1.67, 0.00, -0.00, -1.67, 492.2, 1026.0)">e</text><text xml:space="preserve" font-family="HelveticaNeue" font-size="16.0" fill="#000000" transform="matrix(1.67, 0.00, -0.00, -1.67, 835.6, 1026.0)">A</text><text xml:space="preserve" font-family="HelveticaNeue" font-size="16.0" fill="#000000" transform="matrix(1.67, 0.00, -0.00, -1.67, 852.3, 1026.0)">W</text><text xml:space="preserve" font-family="HelveticaNeue" font-size="16.0" fill="#000000" transform="matrix(1.67, 0.00, -0.00, -1.67, 877.0, 1026.0)">S</text><text xml:space="preserve" font-family="HelveticaNeue" font-size="12.0" fill="#000000" transform="matrix(1.67, 0.00, -0.00, -1.67, 331.4, 780.2)">G</text><text xml:space="preserve" font-family="HelveticaNeue" font-size="12.0" fill="#000000" transform="matrix(1.67, 0.00, -0.00, -1.67, 346.6, 780.2)">E</text><text xml:space="preserve" font-family="HelveticaNeue" font-size="12.0" fill="#000000" transform="matrix(1.67, 0.00, -0.00, -1.67, 358.8, 780.2)">T</text><path d="M 429.8 99.0 C 429.8 99.0 430.2 305.7 431.9 456.4 C 433.7 607.1 436.0 631.0 436.0 631.0 " fill="none" stroke="#AB3933" stroke-width="1.00" stroke-miterlimit="0.00" stroke-linecap="round" stroke-linejoin="round" stroke-dasharray="4.0, 4.0" transform="matrix(1.67, 0.00, 0.00, -1.67, 52.3, 1202.8)"></path><path d="M 218.5 232.3 L 177.0 295.3 " fill="none" stroke="#000000" stroke-width="1.00" stroke-miterlimit="0.00" stroke-linecap="round" stroke-linejoin="round" transform="matrix(1.67, 0.00, 0.00, -1.67, 52.3, 1202.8)"></path><path d="M 423.9 826.5 L 412.4 818.1 L 420.8 812.6 Z M 423.9 826.5 " fill="#000000"></path><path d="M 222.9 225.6 L 216.0 230.6 L 221.0 233.9 Z M 222.9 225.6 " fill="none" stroke="#000000" stroke-width="1.00" stroke-miterlimit="0.00" transform="matrix(1.67, 0.00, 0.00, -1.67, 52.3, 1202.8)"></path></g></g><g><clipPath id="clip-623"><path d="M 312.4 874.6 C 312.6 871.8 314.5 869.0 318.0 866.8 C 325.5 862.2 337.8 862.2 345.3 866.8 C 348.9 869.0 350.7 871.8 351.0 874.6 L 351.0 874.6 C 351.0 874.8 351.0 874.9 351.0 875.1 C 351.0 875.1 351.0 875.1 351.0 875.1 C 351.0 875.1 351.0 875.2 351.0 875.3 C 351.0 875.4 351.0 875.5 351.0 875.6 C 350.7 894.6 342.2 909.8 331.7 909.8 C 321.2 909.8 312.6 894.6 312.3 875.6 C 312.3 875.5 312.3 875.4 312.3 875.3 C 312.3 875.2 312.3 875.1 312.3 875.1 C 312.3 875.1 312.3 875.1 312.3 875.1 C 312.3 874.9 312.3 874.8 312.3 874.6 L 312.4 874.6 Z M 312.4 874.6 "></path></clipPath><g clip-path="url(#clip-623)"><g><clipPath id="clip-624"><path d="M 244.0 72.0 L 1109.1 72.0 L 1109.1 1061.0 L 244.0 1061.0 Z M 244.0 72.0 "></path></clipPath><g clip-path="url(#clip-624)"><path d="M 244.0 72.0 L 1109.1 72.0 L 1109.1 1061.0 L 244.0 1061.0 Z M 244.0 72.0 " fill="url(#gradSh1.64)"></path></g></g></g></g><g><clipPath id="clip-625"><path d="M 244.0 72.0 L 1109.1 72.0 L 1109.1 1061.0 L 244.0 1061.0 Z M 244.0 72.0 "></path></clipPath><g clip-path="url(#clip-625)"><path d="M 156.0 197.0 C 156.1 198.4 157.3 200.1 159.4 201.4 C 163.9 204.2 171.3 204.2 175.8 201.4 C 177.9 200.1 179.0 198.4 179.2 197.0 L 179.2 197.0 C 179.2 196.7 179.2 196.6 179.2 196.5 C 179.2 196.5 179.2 196.5 179.2 196.5 C 179.2 196.4 179.2 196.4 179.2 196.4 C 179.2 196.3 179.2 196.2 179.2 196.2 C 179.0 184.8 173.9 175.6 167.6 175.6 C 161.3 175.6 156.2 184.8 156.0 196.2 C 156.0 196.2 156.0 196.3 156.0 196.4 C 156.0 196.4 156.0 196.4 156.0 196.5 C 156.0 196.5 156.0 196.5 156.0 196.5 C 156.0 196.6 156.0 196.7 156.0 197.0 L 156.0 197.0 Z M 156.0 197.0 " fill="none" stroke="#000000" stroke-width="2.00" stroke-miterlimit="0.00" stroke-linecap="round" stroke-linejoin="round" transform="matrix(1.67, 0.00, 0.00, -1.67, 52.3, 1202.8)"></path></g></g><g><clipPath id="clip-626"><path d="M 342.4 932.3 C 348.4 926.3 348.4 916.7 342.4 910.8 C 336.5 904.8 326.8 904.8 320.9 910.8 C 315.0 916.7 315.0 926.3 320.9 932.3 C 326.8 938.2 336.5 938.2 342.4 932.3 "></path></clipPath><g clip-path="url(#clip-626)"><g><clipPath id="clip-627"><path d="M 244.0 72.0 L 1109.1 72.0 L 1109.1 1061.0 L 244.0 1061.0 Z M 244.0 72.0 "></path></clipPath><g clip-path="url(#clip-627)"><path d="M 244.0 72.0 L 1109.1 72.0 L 1109.1 1061.0 L 244.0 1061.0 Z M 244.0 72.0 " fill="url(#gradSh2.65)"></path></g></g></g></g><g><clipPath id="clip-628"><path d="M 244.0 72.0 L 1109.1 72.0 L 1109.1 1061.0 L 244.0 1061.0 Z M 244.0 72.0 "></path></clipPath><g clip-path="url(#clip-628)"><path d="M 174.0 162.2 C 177.6 165.7 177.6 171.5 174.0 175.1 C 170.5 178.7 164.7 178.7 161.1 175.1 C 157.6 171.5 157.6 165.7 161.1 162.2 C 164.7 158.6 170.5 158.6 174.0 162.2 " fill="none" stroke="#000000" stroke-width="2.00" stroke-miterlimit="0.00" stroke-linecap="round" stroke-linejoin="round" transform="matrix(1.67, 0.00, 0.00, -1.67, 52.3, 1202.8)"></path></g></g><g><clipPath id="clip-629"><path d="M 1060.3 96.6 C 1060.5 93.8 1062.4 91.0 1065.9 88.8 C 1073.4 84.2 1085.7 84.2 1093.2 88.8 C 1096.7 91.0 1098.6 93.8 1098.9 96.6 L 1098.9 96.6 C 1098.9 96.8 1098.9 96.9 1098.9 97.0 C 1098.9 97.0 1098.9 97.0 1098.9 97.0 C 1098.9 97.1 1098.9 97.2 1098.9 97.3 C 1098.9 97.4 1098.9 97.5 1098.9 97.5 C 1098.6 116.6 1090.1 131.8 1079.6 131.8 C 1069.1 131.8 1060.5 116.6 1060.2 97.6 C 1060.2 97.5 1060.2 97.4 1060.2 97.3 C 1060.2 97.2 1060.2 97.1 1060.2 97.0 C 1060.2 97.0 1060.2 97.0 1060.2 97.0 C 1060.2 96.9 1060.2 96.8 1060.2 96.6 L 1060.3 96.6 Z M 1060.3 96.6 "></path></clipPath><g clip-path="url(#clip-629)"><g><clipPath id="clip-630"><path d="M 244.0 72.0 L 1109.1 72.0 L 1109.1 1061.0 L 244.0 1061.0 Z M 244.0 72.0 "></path></clipPath><g clip-path="url(#clip-630)"><path d="M 244.0 72.0 L 1109.1 72.0 L 1109.1 1061.0 L 244.0 1061.0 Z M 244.0 72.0 " fill="url(#gradSh3.66)"></path></g></g></g></g><g><clipPath id="clip-631"><path d="M 244.0 72.0 L 1109.1 72.0 L 1109.1 1061.0 L 244.0 1061.0 Z M 244.0 72.0 "></path></clipPath><g clip-path="url(#clip-631)"><path d="M 605.0 663.0 C 604.8 664.9 606.0 666.6 608.1 667.9 C 612.6 670.7 619.9 670.7 624.5 667.9 C 626.6 666.6 627.7 664.9 627.8 663.0 L 627.9 663.0 C 627.9 663.2 627.9 663.1 627.9 663.0 C 627.9 663.0 627.9 663.0 627.9 663.0 C 627.9 662.9 627.9 662.9 627.9 662.9 C 627.9 662.8 627.9 662.7 627.9 662.7 C 627.7 651.3 622.6 642.1 616.3 642.1 C 610.0 642.1 604.8 651.3 604.7 662.7 C 604.7 662.7 604.7 662.8 604.7 662.9 C 604.7 662.9 604.7 662.9 604.7 663.0 C 604.7 663.0 604.7 663.0 604.7 663.0 C 604.7 663.1 604.7 663.2 604.7 663.0 L 605.0 663.0 Z M 605.0 663.0 " fill="none" stroke="#000000" stroke-width="2.00" stroke-miterlimit="0.00" stroke-linecap="round" stroke-linejoin="round" transform="matrix(1.67, 0.00, 0.00, -1.67, 52.3, 1202.8)"></path></g></g><g><clipPath id="clip-632"><path d="M 1090.3 154.3 C 1096.3 148.3 1096.3 138.7 1090.3 132.7 C 1084.4 126.8 1074.7 126.8 1068.8 132.7 C 1062.8 138.7 1062.8 148.3 1068.8 154.3 C 1074.7 160.2 1084.4 160.2 1090.3 154.3 "></path></clipPath><g clip-path="url(#clip-632)"><g><clipPath id="clip-633"><path d="M 244.0 72.0 L 1109.1 72.0 L 1109.1 1061.0 L 244.0 1061.0 Z M 244.0 72.0 "></path></clipPath><g clip-path="url(#clip-633)"><path d="M 244.0 72.0 L 1109.1 72.0 L 1109.1 1061.0 L 244.0 1061.0 Z M 244.0 72.0 " fill="url(#gradSh4.67)"></path></g></g></g></g><g><clipPath id="clip-634"><path d="M 244.0 72.0 L 1109.1 72.0 L 1109.1 1061.0 L 244.0 1061.0 Z M 244.0 72.0 "></path></clipPath><g clip-path="url(#clip-634)"><path d="M 622.7 628.7 C 626.3 632.2 626.3 638.0 622.7 641.6 C 619.2 645.2 613.4 645.2 609.8 641.6 C 606.2 638.0 606.2 632.2 609.8 628.7 C 613.4 625.1 619.2 625.1 622.7 628.7 " fill="none" stroke="#000000" stroke-width="2.00" stroke-miterlimit="0.00" stroke-linecap="round" stroke-linejoin="round" transform="matrix(1.67, 0.00, 0.00, -1.67, 52.3, 1202.8)"></path><path d="M 1110.0 194.3 L 1110.0 190.1 C 1110.0 187.3 1107.7 184.9 1104.8 184.9 L 1104.8 189.2 C 1107.7 189.2 1110.0 191.5 1110.0 194.3 Z M 1110.0 194.3 " fill="#6C706E"></path><path d="M 1110.0 194.3 L 1110.0 190.1 C 1110.0 189.9 1110.0 189.6 1109.9 189.4 L 1109.9 193.6 C 1110.0 193.8 1110.0 194.1 1110.0 194.3 Z M 1110.0 194.3 " fill="#6C706E"></path><path d="M 1109.9 193.6 L 1109.9 189.4 C 1109.9 189.1 1109.8 188.8 1109.8 188.5 L 1109.8 192.8 C 1109.8 193.0 1109.9 193.3 1109.9 193.6 Z M 1109.9 193.6 " fill="#6C706E"></path><path d="M 1109.8 192.8 L 1109.8 188.5 C 1109.7 188.2 1109.5 187.9 1109.4 187.6 L 1109.4 191.8 C 1109.5 192.1 1109.7 192.4 1109.8 192.8 Z M 1109.8 192.8 " fill="#6C706E"></path><path d="M 1109.4 191.8 L 1109.4 187.6 C 1108.5 186.0 1106.8 184.9 1104.8 184.9 L 1104.8 189.2 C 1106.8 189.2 1108.5 190.2 1109.4 191.8 Z M 1109.4 191.8 " fill="#6C706E"></path><path d="M 1105.7 189.6 L 1104.8 184.9 L 1054.3 184.9 L 1053.2 190.3 Z M 1105.7 189.6 " fill="#6C706E"></path><path d="M 1054.3 189.2 L 1054.3 184.9 C 1051.5 184.9 1049.1 187.3 1049.1 190.1 L 1049.1 194.3 C 1049.1 191.5 1051.5 189.2 1054.3 189.2 Z M 1054.3 189.2 " fill="#6C706E"></path><path d="M 1054.3 189.2 L 1054.3 184.9 C 1051.5 184.9 1049.1 187.3 1049.1 190.1 L 1049.1 194.3 C 1049.1 191.5 1051.5 189.2 1054.3 189.2 Z M 1054.3 189.2 " fill="#6C706E"></path><path d="M 1104.8 278.8 C 1107.7 278.8 1110.0 276.5 1110.0 273.6 L 1110.0 194.3 C 1110.0 191.5 1107.7 189.2 1104.8 189.2 L 1054.3 189.2 C 1051.5 189.2 1049.1 191.5 1049.1 194.3 L 1049.1 273.6 C 1049.1 276.5 1051.5 278.8 1054.3 278.8 Z M 1104.8 278.8 " fill="#BFBFBC"></path><path d="M 1104.1 210.4 C 1104.1 208.7 1102.5 207.3 1100.6 207.3 L 1058.4 207.3 C 1056.5 207.3 1054.9 208.7 1054.9 210.4 L 1054.9 257.6 C 1054.9 259.3 1056.5 260.7 1058.4 260.7 L 1100.6 260.7 C 1102.5 260.7 1104.1 259.3 1104.1 257.6 L 1104.1 210.4 Z M 1079.5 191.5 C 1076.2 191.5 1073.6 194.2 1073.6 197.4 C 1073.6 200.7 1076.2 203.3 1079.5 203.3 C 1082.8 203.3 1085.4 200.7 1085.4 197.4 C 1085.4 194.2 1082.8 191.5 1079.5 191.5 Z M 1064.3 273.0 L 1094.7 273.0 C 1096.6 273.0 1098.1 271.5 1098.1 269.7 C 1098.1 267.8 1096.6 266.3 1094.7 266.3 L 1064.3 266.3 C 1062.5 266.3 1060.9 267.8 1060.9 269.7 C 1060.9 271.5 1062.5 273.0 1064.3 273.0 " fill="#FFFEFE"></path><path d="M 302.7 639.9 C 301.9 639.7 301.0 639.5 300.1 639.3 C 299.6 639.2 299.1 639.1 302.7 639.9 Z M 302.7 639.9 " fill="#20405E"></path><path d="M 300.6 710.3 C 312.2 710.3 322.1 709.4 330.3 708.0 C 347.8 705.0 357.2 699.8 357.2 696.7 C 357.2 693.5 347.8 688.3 330.3 685.3 C 322.1 683.9 312.2 683.0 300.6 683.0 C 264.0 683.0 244.0 692.0 244.0 696.7 C 244.0 701.3 264.0 710.3 300.6 710.3 Z M 300.6 710.3 " fill="#666967"></path><path d="M 357.2 696.7 L 357.2 689.7 C 357.2 686.6 347.8 681.4 330.3 678.4 C 322.1 677.0 312.2 676.0 300.6 676.0 C 264.0 676.0 244.0 685.1 244.0 689.7 L 244.0 696.7 C 244.0 692.0 264.0 683.0 300.6 683.0 C 312.2 683.0 322.1 683.9 330.3 685.3 C 347.8 688.3 357.2 693.5 357.2 696.7 Z M 357.2 696.7 " fill="#414341"></path><path d="M 357.2 696.7 L 357.2 689.7 C 357.2 689.7 357.2 689.5 357.1 689.5 L 357.1 696.4 C 357.2 696.5 357.2 696.6 357.2 696.7 Z M 357.2 696.7 " fill="#414341"></path><path d="M 357.1 696.4 L 357.1 689.5 C 357.1 689.3 357.1 689.2 357.0 689.1 L 357.0 696.0 C 357.1 696.1 357.1 696.3 357.1 696.4 Z M 357.1 696.4 " fill="#414341"></path><path d="M 357.0 696.0 L 357.0 689.1 C 357.0 688.9 356.9 688.7 356.7 688.5 L 356.7 695.4 C 356.9 695.6 357.0 695.8 357.0 696.0 Z M 357.0 696.0 " fill="#414341"></path><path d="M 356.7 695.4 L 356.7 688.5 C 354.7 685.3 345.7 681.0 330.3 678.4 C 322.1 677.0 312.2 676.0 300.6 676.0 C 264.0 676.0 244.0 685.1 244.0 689.7 L 244.0 696.7 C 244.0 692.0 264.0 683.0 300.6 683.0 C 312.2 683.0 322.1 683.9 330.3 685.3 C 345.7 687.9 354.7 692.2 356.7 695.4 Z M 356.7 695.4 " fill="#414341"></path><path d="M 357.1 592.5 C 357.2 592.8 357.3 593.1 357.3 593.4 L 357.3 582.2 C 357.3 582.1 357.3 581.9 357.2 581.8 C 357.2 581.6 357.2 581.5 357.1 581.3 L 357.1 581.3 L 357.0 581.2 C 357.0 581.0 356.9 580.8 356.7 580.6 C 356.7 580.5 356.6 580.4 356.6 580.4 C 356.5 580.2 356.4 580.1 356.3 580.0 C 356.1 579.8 356.0 579.6 355.8 579.4 C 355.6 579.2 355.4 579.1 355.3 578.9 C 355.1 578.7 354.8 578.5 354.6 578.3 C 354.4 578.2 354.1 578.0 353.9 577.8 C 353.6 577.7 353.3 577.5 353.0 577.3 C 352.7 577.1 352.5 576.9 352.2 576.8 C 351.8 576.6 351.4 576.4 351.0 576.2 C 350.7 576.0 350.4 575.9 350.1 575.7 C 349.6 575.5 349.1 575.2 348.5 575.0 C 348.2 574.9 348.0 574.8 347.6 574.6 C 346.8 574.3 345.8 574.0 344.8 573.6 C 344.5 573.5 344.1 573.4 343.8 573.3 C 343.1 573.1 342.3 572.9 341.6 572.7 C 341.1 572.5 340.6 572.4 340.1 572.3 C 339.4 572.1 338.6 571.9 337.9 571.8 C 337.3 571.6 336.7 571.5 336.2 571.4 C 335.4 571.2 334.6 571.1 333.8 570.9 C 333.2 570.8 332.5 570.7 331.9 570.6 C 331.0 570.5 330.1 570.3 329.2 570.2 C 328.5 570.1 327.9 570.0 327.1 569.9 C 326.2 569.8 325.2 569.7 324.2 569.6 C 323.5 569.5 322.8 569.4 322.0 569.4 C 320.9 569.3 319.8 569.2 318.7 569.1 C 317.9 569.0 317.2 569.0 316.4 568.9 C 315.1 568.9 313.8 568.8 312.4 568.8 C 311.8 568.7 311.1 568.7 310.4 568.7 C 308.3 568.6 306.2 568.6 303.9 568.6 C 283.3 568.6 267.7 571.1 257.6 574.2 C 250.1 576.8 244.7 579.6 244.1 581.8 L 244.1 593.0 C 244.6 591.0 249.4 588.4 256.1 586.0 L 256.0 586.6 C 266.1 583.5 283.3 579.8 303.9 579.8 C 306.2 579.8 308.3 579.8 310.4 579.9 C 311.1 579.9 311.7 579.9 312.4 579.9 C 313.8 580.0 315.1 580.1 316.4 580.1 C 317.2 580.2 317.9 580.2 318.6 580.3 C 319.8 580.4 320.9 580.5 322.0 580.6 C 322.8 580.6 323.5 580.7 324.1 580.8 C 325.2 580.9 326.2 581.0 327.2 581.1 C 327.9 581.2 328.5 581.3 329.2 581.4 C 330.1 581.5 331.0 581.7 332.0 581.8 L 344.7 584.8 C 345.8 585.1 346.8 585.5 347.7 585.9 L 350.2 586.9 C 350.4 587.0 350.6 587.1 350.8 587.2 C 351.3 587.5 351.8 587.7 352.3 588.0 C 352.5 588.1 352.7 588.2 352.9 588.4 C 353.3 588.6 353.6 588.8 354.0 589.1 C 354.2 589.2 354.3 589.3 354.5 589.5 C 354.8 589.7 355.1 589.9 355.3 590.2 C 355.5 590.3 355.6 590.4 355.7 590.5 C 355.9 590.8 356.1 591.0 356.3 591.2 C 356.4 591.3 356.5 591.4 356.6 591.6 Z M 357.1 592.5 " fill="#414341"></path><path d="M 329.6 674.1 C 328.1 673.9 326.5 673.6 325.0 673.4 C 324.1 673.3 323.3 673.2 322.5 673.1 C 321.1 672.9 319.6 672.8 318.1 672.6 C 317.2 672.6 316.2 672.5 315.2 672.4 C 313.4 672.3 311.4 672.2 309.5 672.1 L 308.6 672.1 C 306.3 672.0 304.0 671.9 301.7 671.9 C 301.2 671.9 300.7 671.9 300.2 671.9 C 277.7 671.9 255.1 675.6 244.1 682.7 L 244.1 588.7 C 244.7 586.5 250.0 583.7 257.5 581.1 C 267.6 578.0 283.2 575.5 303.9 575.5 C 341.6 575.5 357.3 584.4 357.3 589.1 L 357.3 683.6 C 351.5 679.6 341.9 676.2 329.6 674.1 Z M 329.6 674.1 " fill="#666967"></path><text xml:space="preserve" font-family="Helvetica" font-size="12.0" fill="#000000" transform="matrix(1.67, 0.00, -0.00, -1.67, 281.3, 622.9)">L</text><text xml:space="preserve" font-family="Helvetica" font-size="12.0" fill="#000000" transform="matrix(1.67, 0.00, -0.00, -1.67, 292.4, 622.9)">D</text><text xml:space="preserve" font-family="Helvetica" font-size="12.0" fill="#000000" transform="matrix(1.67, 0.00, -0.00, -1.67, 306.8, 622.9)">P</text><path d="M 946.0 412.2 C 954.3 412.2 961.1 405.5 961.1 397.2 L 961.1 338.0 C 961.1 329.7 954.3 323.0 946.0 323.0 L 888.1 323.0 C 879.8 323.0 873.0 329.7 873.0 338.0 L 873.0 397.2 C 873.0 405.5 879.8 412.2 888.1 412.2 Z M 946.0 412.2 " fill="#E77C3B"></path><text xml:space="preserve" font-family="Helvetica" font-size="12.0" fill="#000000" transform="matrix(1.67, 0.00, -0.00, -1.67, 895.4, 360.9)">B</text><text xml:space="preserve" font-family="Helvetica" font-size="12.0" fill="#000000" transform="matrix(1.67, 0.00, -0.00, -1.67, 908.7, 360.9)">A</text><text xml:space="preserve" font-family="Helvetica" font-size="12.0" fill="#000000" transform="matrix(1.67, 0.00, -0.00, -1.67, 922.0, 360.9)">M</text><path d="M 961.1 338.0 L 961.1 332.8 C 961.1 324.5 954.3 317.7 946.0 317.7 L 946.0 323.0 C 954.3 323.0 961.1 329.7 961.1 338.0 Z M 961.1 338.0 " fill="#8E4B2A"></path><path d="M 961.1 338.0 L 961.1 332.8 C 961.1 332.0 961.0 331.3 960.9 330.6 L 960.9 335.9 C 961.0 336.6 961.1 337.3 961.1 338.0 Z M 961.1 338.0 " fill="#8E4B2A"></path><path d="M 960.9 335.9 L 960.9 330.6 C 960.8 329.8 960.6 329.0 960.4 328.2 L 960.4 333.4 C 960.6 334.2 960.8 335.0 960.9 335.9 Z M 960.9 335.9 " fill="#8E4B2A"></path><path d="M 960.4 333.4 L 960.4 328.2 C 960.1 327.3 959.7 326.4 959.2 325.5 L 959.2 330.8 C 959.7 331.6 960.1 332.5 960.4 333.4 Z M 960.4 333.4 " fill="#8E4B2A"></path><path d="M 959.2 330.8 L 959.2 325.5 C 956.7 320.9 951.7 317.7 946.0 317.7 L 946.0 323.0 C 951.7 323.0 956.7 326.1 959.2 330.8 Z M 959.2 330.8 " fill="#8E4B2A"></path><path d="M 887.5 323.0 L 946.1 323.0 L 946.1 317.7 L 887.5 317.7 Z M 887.5 323.0 " fill="#8E4B2A"></path><path d="M 888.1 323.0 L 888.1 317.7 C 879.8 317.7 873.0 324.5 873.0 332.8 L 873.0 338.0 C 873.0 329.7 879.8 323.0 888.1 323.0 Z M 888.1 323.0 " fill="#8E4B2A"></path><path d="M 888.7 323.0 L 888.7 317.7 C 880.4 317.7 873.0 324.5 873.0 332.8 L 873.0 338.0 C 873.0 329.7 879.8 323.0 888.7 323.0 Z M 888.7 323.0 " fill="#8E4B2A"></path><text xml:space="preserve" font-family="HelveticaNeue" font-size="12.0" fill="#000000" transform="matrix(1.67, 0.00, -0.00, -1.67, 864.7, 473.1)">G</text><text xml:space="preserve" font-family="HelveticaNeue" font-size="12.0" fill="#000000" transform="matrix(1.67, 0.00, -0.00, -1.67, 879.9, 473.1)">E</text><text xml:space="preserve" font-family="HelveticaNeue" font-size="12.0" fill="#000000" transform="matrix(1.67, 0.00, -0.00, -1.67, 892.1, 473.1)">T</text><path d="M 365.6 442.3 L 365.6 438.2 C 365.6 435.4 363.4 433.2 360.6 433.2 L 360.6 437.4 C 363.4 437.4 365.6 439.6 365.6 442.3 Z M 365.6 442.3 " fill="#414341"></path><path d="M 365.6 442.3 L 365.6 438.2 C 365.6 437.9 365.6 437.7 365.6 437.5 L 365.6 441.6 C 365.6 441.9 365.6 442.1 365.6 442.3 Z M 365.6 442.3 " fill="#414341"></path><path d="M 365.6 441.6 L 365.6 437.5 C 365.6 437.2 365.5 436.9 365.4 436.7 L 365.4 440.8 C 365.5 441.1 365.6 441.4 365.6 441.6 Z M 365.6 441.6 " fill="#414341"></path><path d="M 365.4 440.8 L 365.4 436.7 C 365.3 436.4 365.2 436.1 365.0 435.8 L 365.0 440.0 C 365.2 440.2 365.3 440.5 365.4 440.8 Z M 365.4 440.8 " fill="#414341"></path><path d="M 365.0 440.0 L 365.0 435.8 C 364.2 434.3 362.5 433.2 360.6 433.2 L 360.6 437.4 C 362.5 437.4 364.2 438.4 365.0 440.0 Z M 365.0 440.0 " fill="#414341"></path><path d="M 362.8 438.2 L 360.6 433.2 L 302.7 433.2 L 301.3 438.4 Z M 362.8 438.2 " fill="#414341"></path><path d="M 302.7 437.4 L 302.7 433.2 C 299.9 433.2 297.7 435.4 297.7 438.2 L 297.7 442.3 C 297.7 439.6 299.9 437.4 302.7 437.4 Z M 302.7 437.4 " fill="#414341"></path><path d="M 302.7 437.4 L 302.7 433.2 C 299.9 433.2 297.7 435.4 297.7 438.2 L 297.7 442.3 C 297.7 439.6 299.9 437.4 302.7 437.4 Z M 302.7 437.4 " fill="#414341"></path><path d="M 360.6 526.3 C 363.4 526.3 365.6 524.1 365.6 521.4 L 365.6 442.3 C 365.6 439.6 363.4 437.4 360.6 437.4 L 302.7 437.4 C 299.9 437.4 297.7 439.6 297.7 442.3 L 297.7 521.4 C 297.7 524.1 299.9 526.3 302.7 526.3 Z M 360.6 526.3 " fill="#666967"></path><path d="M 308.1 513.5 L 355.2 513.5 L 355.2 507.9 L 308.1 507.9 Z M 308.1 503.7 L 355.2 503.7 L 355.2 498.1 L 308.1 498.1 Z M 308.1 494.3 L 355.2 494.3 L 355.2 488.8 L 308.1 488.8 Z M 308.1 494.3 " fill="#FFFEFE"></path><text xml:space="preserve" font-family="Helvetica" font-size="12.0" fill="#000000" transform="matrix(1.67, 0.00, -0.00, -1.67, 268.3, 400.5)">E</text><text xml:space="preserve" font-family="Helvetica" font-size="12.0" fill="#000000" transform="matrix(1.67, 0.00, -0.00, -1.67, 281.6, 400.5)">q</text><text xml:space="preserve" font-family="Helvetica" font-size="12.0" fill="#000000" transform="matrix(1.67, 0.00, -0.00, -1.67, 292.7, 400.5)">u</text><text xml:space="preserve" font-family="Helvetica" font-size="12.0" fill="#000000" transform="matrix(1.67, 0.00, -0.00, -1.67, 303.9, 400.5)">a</text><text xml:space="preserve" font-family="Helvetica" font-size="12.0" fill="#000000" transform="matrix(1.67, 0.00, -0.00, -1.67, 315.0, 400.5)">t</text><text xml:space="preserve" font-family="Helvetica" font-size="12.0" fill="#000000" transform="matrix(1.67, 0.00, -0.00, -1.67, 320.6, 400.5)">i</text><text xml:space="preserve" font-family="Helvetica" font-size="12.0" fill="#000000" transform="matrix(1.67, 0.00, -0.00, -1.67, 325.0, 400.5)">o</text><text xml:space="preserve" font-family="Helvetica" font-size="12.0" fill="#000000" transform="matrix(1.67, 0.00, -0.00, -1.67, 336.1, 400.5)">n</text><text xml:space="preserve" font-family="Helvetica" font-size="12.0" fill="#000000" transform="matrix(1.67, 0.00, -0.00, -1.67, 347.3, 400.5)"> </text><text xml:space="preserve" font-family="Helvetica" font-size="12.0" fill="#000000" transform="matrix(1.67, 0.00, -0.00, -1.67, 352.8, 400.5)">C</text><text xml:space="preserve" font-family="Helvetica" font-size="12.0" fill="#000000" transform="matrix(1.67, 0.00, -0.00, -1.67, 367.3, 400.5)">h</text><text xml:space="preserve" font-family="Helvetica" font-size="12.0" fill="#000000" transform="matrix(1.67, 0.00, -0.00, -1.67, 378.4, 400.5)">e</text><text xml:space="preserve" font-family="Helvetica" font-size="12.0" fill="#000000" transform="matrix(1.67, 0.00, -0.00, -1.67, 389.5, 400.5)">f</text><path d="M 234.6 233.4 L 176.9 405.6 " fill="none" stroke="#000000" stroke-width="1.00" stroke-miterlimit="0.00" stroke-linecap="round" stroke-linejoin="round" transform="matrix(1.67, 0.00, 0.00, -1.67, 52.3, 1202.8)"></path><path d="M 447.6 826.2 L 438.7 815.1 L 448.1 811.9 Z M 447.6 826.2 " fill="#000000"></path><path d="M 237.2 225.8 L 231.8 232.4 L 237.5 234.3 Z M 237.2 225.8 " fill="none" stroke="#000000" stroke-width="1.00" stroke-miterlimit="0.00" transform="matrix(1.67, 0.00, 0.00, -1.67, 52.3, 1202.8)"></path><path d="M 293.7 231.6 L 495.2 474.0 " fill="none" stroke="#000000" stroke-width="1.00" stroke-miterlimit="0.00" stroke-linecap="round" stroke-linejoin="round" transform="matrix(1.67, 0.00, 0.00, -1.67, 52.3, 1202.8)"></path><path d="M 533.3 826.7 L 538.0 813.3 L 545.7 819.7 Z M 533.3 826.7 " fill="#000000"></path><path d="M 288.6 225.5 L 291.4 233.5 L 296.0 229.7 Z M 288.6 225.5 " fill="none" stroke="#000000" stroke-width="1.00" stroke-miterlimit="0.00" transform="matrix(1.67, 0.00, 0.00, -1.67, 52.3, 1202.8)"></path><path d="M 528.8 331.6 L 528.8 327.4 C 528.8 324.7 526.6 322.4 523.8 322.4 L 523.8 326.6 C 526.6 326.6 528.8 328.8 528.8 331.6 Z M 528.8 331.6 " fill="#414341"></path><path d="M 528.8 331.6 L 528.8 327.4 C 528.8 327.1 528.8 326.9 528.8 326.7 L 528.8 330.9 C 528.8 331.1 528.8 331.3 528.8 331.6 Z M 528.8 331.6 " fill="#414341"></path><path d="M 528.8 330.9 L 528.8 326.7 C 528.7 326.4 528.7 326.1 528.6 325.9 L 528.6 330.1 C 528.7 330.3 528.7 330.6 528.8 330.9 Z M 528.8 330.9 " fill="#414341"></path><path d="M 528.6 330.1 L 528.6 325.9 C 528.5 325.6 528.4 325.3 528.2 325.0 L 528.2 329.2 C 528.4 329.5 528.5 329.7 528.6 330.1 Z M 528.6 330.1 " fill="#414341"></path><path d="M 528.2 329.2 L 528.2 325.0 C 527.4 323.5 525.7 322.4 523.8 322.4 L 523.8 326.6 C 525.7 326.6 527.4 327.6 528.2 329.2 Z M 528.2 329.2 " fill="#414341"></path><path d="M 526.0 327.4 L 523.8 322.4 L 465.9 322.4 L 464.5 327.7 Z M 526.0 327.4 " fill="#414341"></path><path d="M 465.9 326.6 L 465.9 322.4 C 463.1 322.4 460.9 324.7 460.9 327.4 L 460.9 331.6 C 460.9 328.8 463.1 326.6 465.9 326.6 Z M 465.9 326.6 " fill="#414341"></path><path d="M 465.9 326.6 L 465.9 322.4 C 463.1 322.4 460.9 324.7 460.9 327.4 L 460.9 331.6 C 460.9 328.8 463.1 326.6 465.9 326.6 Z M 465.9 326.6 " fill="#414341"></path><path d="M 523.8 415.6 C 526.6 415.6 528.8 413.3 528.8 410.6 L 528.8 331.6 C 528.8 328.8 526.6 326.6 523.8 326.6 L 465.9 326.6 C 463.1 326.6 460.9 328.8 460.9 331.6 L 460.9 410.6 C 460.9 413.3 463.1 415.6 465.9 415.6 Z M 523.8 415.6 " fill="#666967"></path><path d="M 471.3 402.7 L 518.4 402.7 L 518.4 397.2 L 471.3 397.2 Z M 471.3 392.9 L 518.4 392.9 L 518.4 387.4 L 471.3 387.4 Z M 471.3 383.5 L 518.4 383.5 L 518.4 378.0 L 471.3 378.0 Z M 471.3 383.5 " fill="#FFFEFE"></path><text xml:space="preserve" font-family="Helvetica" font-size="12.0" fill="#000000" transform="matrix(1.67, 0.00, -0.00, -1.67, 469.5, 290.2)">A</text><text xml:space="preserve" font-family="Helvetica" font-size="12.0" fill="#000000" transform="matrix(1.67, 0.00, -0.00, -1.67, 482.8, 290.2)">c</text><text xml:space="preserve" font-family="Helvetica" font-size="12.0" fill="#000000" transform="matrix(1.67, 0.00, -0.00, -1.67, 492.8, 290.2)">m</text><text xml:space="preserve" font-family="Helvetica" font-size="12.0" fill="#000000" transform="matrix(1.67, 0.00, -0.00, -1.67, 509.5, 290.2)">e</text><path d="M 634.4 232.3 C 633.6 232.1 632.7 231.9 631.8 231.7 C 631.4 231.6 630.9 231.5 634.4 232.3 Z M 634.4 232.3 " fill="#20405E"></path><path d="M 632.3 302.7 C 643.9 302.7 653.8 301.9 662.0 300.4 C 679.5 297.4 688.9 292.3 688.9 289.1 C 688.9 285.9 679.5 280.7 662.0 277.7 C 653.8 276.3 643.9 275.4 632.3 275.4 C 595.7 275.4 575.7 284.4 575.7 289.1 C 575.7 293.7 595.7 302.7 632.3 302.7 Z M 632.3 302.7 " fill="#666967"></path><path d="M 688.9 289.1 L 688.9 282.1 C 688.9 279.0 679.5 273.8 662.0 270.8 C 653.8 269.4 643.9 268.4 632.3 268.4 C 595.7 268.4 575.7 277.5 575.7 282.1 L 575.7 289.1 C 575.7 284.4 595.7 275.4 632.3 275.4 C 643.9 275.4 653.8 276.3 662.0 277.7 C 679.5 280.7 688.9 285.9 688.9 289.1 Z M 688.9 289.1 " fill="#414341"></path><path d="M 688.9 289.1 L 688.9 282.1 C 688.9 282.1 688.9 282.0 688.9 281.9 L 688.9 288.8 C 688.9 288.9 688.9 289.0 688.9 289.1 Z M 688.9 289.1 " fill="#414341"></path><path d="M 688.9 288.8 L 688.9 281.9 C 688.8 281.7 688.8 281.6 688.7 281.5 L 688.7 288.4 C 688.8 288.5 688.8 288.7 688.9 288.8 Z M 688.9 288.8 " fill="#414341"></path><path d="M 688.7 288.4 L 688.7 281.5 C 688.7 281.3 688.6 281.1 688.5 280.9 L 688.5 287.8 C 688.6 288.0 688.7 288.2 688.7 288.4 Z M 688.7 288.4 " fill="#414341"></path><path d="M 688.5 287.8 L 688.5 280.9 C 686.5 277.7 677.4 273.4 662.0 270.8 C 653.8 269.4 643.9 268.4 632.3 268.4 C 595.7 268.4 575.7 277.5 575.7 282.1 L 575.7 289.1 C 575.7 284.4 595.7 275.4 632.3 275.4 C 643.9 275.4 653.8 276.3 662.0 277.7 C 677.4 280.3 686.5 284.7 688.5 287.8 Z M 688.5 287.8 " fill="#414341"></path><path d="M 688.8 184.9 C 688.9 185.2 689.0 185.5 689.0 185.8 L 689.0 174.6 C 689.0 174.5 689.0 174.3 688.9 174.2 C 688.9 174.0 688.9 173.9 688.8 173.7 L 688.8 173.7 L 688.8 173.6 C 688.7 173.4 688.6 173.2 688.4 173.0 C 688.4 172.9 688.4 172.9 688.3 172.8 C 688.2 172.7 688.1 172.5 688.0 172.4 C 687.8 172.2 687.7 172.0 687.5 171.8 C 687.3 171.6 687.2 171.5 687.0 171.3 C 686.8 171.1 686.5 170.9 686.3 170.7 C 686.1 170.6 685.9 170.4 685.6 170.3 C 685.3 170.1 685.0 169.9 684.7 169.7 C 684.5 169.5 684.2 169.3 683.9 169.2 C 683.5 169.0 683.1 168.8 682.7 168.6 C 682.4 168.4 682.1 168.3 681.8 168.1 C 681.3 167.9 680.8 167.7 680.2 167.4 C 679.9 167.3 679.7 167.2 679.3 167.0 C 678.5 166.7 677.5 166.4 676.5 166.0 C 676.2 165.9 675.8 165.8 675.5 165.7 C 674.8 165.5 674.0 165.3 673.3 165.1 C 672.8 164.9 672.3 164.8 671.8 164.7 C 671.1 164.5 670.4 164.3 669.6 164.2 C 669.0 164.0 668.4 163.9 667.9 163.8 C 667.1 163.6 666.3 163.5 665.5 163.3 C 664.9 163.2 664.2 163.1 663.6 163.0 C 662.7 162.9 661.8 162.7 660.9 162.6 C 660.3 162.5 659.6 162.4 658.8 162.3 C 657.9 162.2 656.9 162.1 655.9 162.0 C 655.2 161.9 654.5 161.8 653.7 161.8 C 652.6 161.7 651.5 161.6 650.4 161.5 C 649.6 161.4 648.9 161.4 648.1 161.3 C 646.8 161.3 645.5 161.2 644.1 161.2 C 643.5 161.1 642.8 161.1 642.1 161.1 C 640.0 161.0 637.9 161.0 635.6 161.0 C 615.0 161.0 599.4 163.5 589.3 166.6 C 581.8 169.2 576.4 172.0 575.8 174.2 L 575.8 185.4 C 576.4 183.4 581.1 180.8 587.8 178.4 L 587.7 179.0 C 597.8 175.9 615.0 172.2 635.6 172.2 C 637.9 172.2 640.0 172.2 642.1 172.3 C 642.8 172.3 643.4 172.3 644.1 172.4 C 645.5 172.4 646.8 172.5 648.1 172.5 C 648.9 172.6 649.6 172.6 650.3 172.7 C 651.5 172.8 652.6 172.9 653.7 173.0 C 654.5 173.0 655.2 173.1 655.9 173.2 C 656.9 173.3 657.9 173.4 658.9 173.5 C 659.6 173.6 660.2 173.7 660.9 173.8 C 661.8 173.9 662.8 174.1 663.7 174.2 L 676.5 177.2 C 677.5 177.6 678.5 177.9 679.4 178.3 L 681.9 179.3 C 682.1 179.4 682.3 179.5 682.5 179.6 C 683.0 179.9 683.5 180.2 684.0 180.4 C 684.2 180.5 684.4 180.6 684.6 180.8 C 685.0 181.0 685.4 181.3 685.7 181.5 C 685.9 181.6 686.0 181.7 686.2 181.9 C 686.5 182.1 686.8 182.3 687.0 182.6 C 687.2 182.7 687.3 182.8 687.4 182.9 C 687.7 183.2 687.8 183.4 688.0 183.6 C 688.1 183.7 688.2 183.8 688.3 184.0 Z M 688.8 184.9 " fill="#414341"></path><path d="M 661.3 266.6 C 659.8 266.3 658.2 266.1 656.7 265.8 C 655.9 265.7 655.1 265.6 654.2 265.5 C 652.8 265.3 651.3 265.2 649.8 265.1 C 648.9 265.0 647.9 264.9 646.9 264.8 C 645.1 264.7 643.1 264.6 641.2 264.5 L 640.3 264.5 C 638.0 264.4 635.7 264.3 633.4 264.3 C 632.9 264.3 632.4 264.3 631.9 264.3 C 609.4 264.3 586.8 268.0 575.8 275.1 L 575.8 181.1 C 576.4 178.9 581.7 176.1 589.2 173.6 C 599.3 170.4 614.9 167.9 635.6 167.9 C 673.3 167.9 689.0 176.8 689.0 181.5 L 689.1 276.0 C 683.2 272.0 673.7 268.6 661.3 266.6 Z M 661.3 266.6 " fill="#666967"></path><text xml:space="preserve" font-family="Helvetica" font-size="12.0" fill="#000000" transform="matrix(1.67, 0.00, -0.00, -1.67, 613.0, 215.3)">i</text><text xml:space="preserve" font-family="Helvetica" font-size="12.0" fill="#000000" transform="matrix(1.67, 0.00, -0.00, -1.67, 617.4, 215.3)">S</text><text xml:space="preserve" font-family="Helvetica" font-size="12.0" fill="#000000" transform="matrix(1.67, 0.00, -0.00, -1.67, 630.8, 215.3)">i</text><text xml:space="preserve" font-family="Helvetica" font-size="12.0" fill="#000000" transform="matrix(1.67, 0.00, -0.00, -1.67, 635.2, 215.3)">t</text><text xml:space="preserve" font-family="Helvetica" font-size="12.0" fill="#000000" transform="matrix(1.67, 0.00, -0.00, -1.67, 640.8, 215.3)">e</text><path d="M 264.5 233.6 L 337.8 539.6 " fill="none" stroke="#000000" stroke-width="1.00" stroke-miterlimit="0.00" stroke-linecap="round" stroke-linejoin="round" transform="matrix(1.67, 0.00, 0.00, -1.67, 52.3, 1202.8)"></path><path d="M 490.1 826.1 L 488.3 812.0 L 498.0 814.3 Z M 490.1 826.1 " fill="#000000"></path><path d="M 262.6 225.8 L 261.6 234.3 L 267.4 232.9 Z M 262.6 225.8 " fill="none" stroke="#000000" stroke-width="1.00" stroke-miterlimit="0.00" transform="matrix(1.67, 0.00, 0.00, -1.67, 52.3, 1202.8)"></path><path d="M 254.2 233.9 L 264.3 472.0 " fill="none" stroke="#000000" stroke-width="1.00" stroke-miterlimit="0.00" stroke-linecap="round" stroke-linejoin="round" transform="matrix(1.67, 0.00, 0.00, -1.67, 52.3, 1202.8)"></path><path d="M 475.5 826.0 L 471.1 812.5 L 481.1 812.9 Z M 475.5 826.0 " fill="#000000"></path><path d="M 253.9 225.9 L 251.2 234.0 L 257.2 233.8 Z M 253.9 225.9 " fill="none" stroke="#000000" stroke-width="1.00" stroke-miterlimit="0.00" transform="matrix(1.67, 0.00, 0.00, -1.67, 52.3, 1202.8)"></path></g></g></g></svg>