<?xml version="1.0" encoding="UTF-8" standalone="no"?><svg xmlns="http://www.w3.org/2000/svg" xmlns:xlink="http://www.w3.org/1999/xlink" clip-rule="evenodd" stroke-miterlimit="4.00" viewBox="0 0 1920 1080"><desc>SVG generated by Keynote</desc><defs></defs><g transform="matrix(1.00, 0.00, -0.00, -1.00, 0.0, 1080.0)"><path d="M 0.0 1080.0 L 1920.0 1080.0 L 1920.0 0.0 L 0.0 0.0 Z M 0.0 1080.0 " fill="#EEEDED"></path><path d="M 0.0 0.0 L 1836.0 0.0 " fill="none" stroke="#000000" stroke-width="2.00" transform="matrix(1.00, 0.00, 0.00, -1.00, 41.0, 58.0)"></path><text xml:space="preserve" font-family="HelveticaNeue-Bold" font-weight="bold" font-size="23.0" fill="#000000" transform="matrix(1.00, 0.00, -0.00, -1.00, 61.0, 24.0)">D</text><text xml:space="preserve" font-family="HelveticaNeue-Bold" font-weight="bold" font-size="23.0" fill="#000000" transform="matrix(1.00, 0.00, -0.00, -1.00, 78.0, 24.0)">i</text><text xml:space="preserve" font-family="HelveticaNeue-Bold" font-weight="bold" font-size="23.0" fill="#000000" transform="matrix(1.00, 0.00, -0.00, -1.00, 84.0, 24.0)">s</text><text xml:space="preserve" font-family="HelveticaNeue-Bold" font-weight="bold" font-size="23.0" fill="#000000" transform="matrix(1.00, 0.00, -0.00, -1.00, 96.3, 24.0)">m</text><text xml:space="preserve" font-family="HelveticaNeue-Bold" font-weight="bold" font-size="23.0" fill="#000000" transform="matrix(1.00, 0.00, -0.00, -1.00, 117.2, 24.0)">a</text><text xml:space="preserve" font-family="HelveticaNeue-Bold" font-weight="bold" font-size="23.0" fill="#000000" transform="matrix(1.00, 0.00, -0.00, -1.00, 130.4, 24.0)">n</text><text xml:space="preserve" font-family="HelveticaNeue-Bold" font-weight="bold" font-size="23.0" fill="#000000" transform="matrix(1.00, 0.00, -0.00, -1.00, 144.0, 24.0)">t</text><text xml:space="preserve" font-family="HelveticaNeue-Bold" font-weight="bold" font-size="23.0" fill="#000000" transform="matrix(1.00, 0.00, -0.00, -1.00, 152.1, 24.0)">l</text><text xml:space="preserve" font-family="HelveticaNeue-Bold" font-weight="bold" font-size="23.0" fill="#000000" transform="matrix(1.00, 0.00, -0.00, -1.00, 158.0, 24.0)">i</text><text xml:space="preserve" font-family="HelveticaNeue-Bold" font-weight="bold" font-size="23.0" fill="#000000" transform="matrix(1.00, 0.00, -0.00, -1.00, 164.0, 24.0)">n</text><text xml:space="preserve" font-family="HelveticaNeue-Bold" font-weight="bold" font-size="23.0" fill="#000000" transform="matrix(1.00, 0.00, -0.00, -1.00, 177.6, 24.0)">g</text><text xml:space="preserve" font-family="HelveticaNeue-Bold" font-weight="bold" font-size="23.0" fill="#000000" transform="matrix(1.00, 0.00, -0.00, -1.00, 191.7, 24.0)"> </text><text xml:space="preserve" font-family="HelveticaNeue-Bold" font-weight="bold" font-size="23.0" fill="#000000" transform="matrix(1.00, 0.00, -0.00, -1.00, 198.1, 24.0)">M</text><text xml:space="preserve" font-family="HelveticaNeue-Bold" font-weight="bold" font-size="23.0" fill="#000000" transform="matrix(1.00, 0.00, -0.00, -1.00, 218.9, 24.0)">o</text><text xml:space="preserve" font-family="HelveticaNeue-Bold" font-weight="bold" font-size="23.0" fill="#000000" transform="matrix(1.00, 0.00, -0.00, -1.00, 233.0, 24.0)">n</text><text xml:space="preserve" font-family="HelveticaNeue-Bold" font-weight="bold" font-size="23.0" fill="#000000" transform="matrix(1.00, 0.00, -0.00, -1.00, 246.6, 24.0)">o</text><text xml:space="preserve" font-family="HelveticaNeue-Bold" font-weight="bold" font-size="23.0" fill="#000000" transform="matrix(1.00, 0.00, -0.00, -1.00, 260.7, 24.0)">l</text><text xml:space="preserve" font-family="HelveticaNeue-Bold" font-weight="bold" font-size="23.0" fill="#000000" transform="matrix(1.00, 0.00, -0.00, -1.00, 266.6, 24.0)">i</text><text xml:space="preserve" font-family="HelveticaNeue-Bold" font-weight="bold" font-size="23.0" fill="#000000" transform="matrix(1.00, 0.00, -0.00, -1.00, 272.5, 24.0)">t</text><text xml:space="preserve" font-family="HelveticaNeue-Bold" font-weight="bold" font-size="23.0" fill="#000000" transform="matrix(1.00, 0.00, -0.00, -1.00, 280.6, 24.0)">h</text><text xml:space="preserve" font-family="HelveticaNeue-Bold" font-weight="bold" font-size="23.0" fill="#000000" transform="matrix(1.00, 0.00, -0.00, -1.00, 294.3, 24.0)">s</text><text xml:space="preserve" font-family="HelveticaNeue-Bold" font-weight="bold" font-size="23.0" fill="#000000" transform="matrix(1.00, 0.00, -0.00, -1.00, 306.6, 24.0)">:</text><text xml:space="preserve" font-family="HelveticaNeue-Bold" font-weight="bold" font-size="23.0" fill="#000000" transform="matrix(1.00, 0.00, -0.00, -1.00, 313.0, 24.0)"> </text><text xml:space="preserve" font-family="HelveticaNeue-Bold" font-weight="bold" font-size="23.0" fill="#000000" transform="matrix(1.00, 0.00, -0.00, -1.00, 319.4, 24.0)">u</text><text xml:space="preserve" font-family="HelveticaNeue-Bold" font-weight="bold" font-size="23.0" fill="#000000" transform="matrix(1.00, 0.00, -0.00, -1.00, 333.0, 24.0)">s</text><text xml:space="preserve" font-family="HelveticaNeue-Bold" font-weight="bold" font-size="23.0" fill="#000000" transform="matrix(1.00, 0.00, -0.00, -1.00, 345.4, 24.0)">i</text><text xml:space="preserve" font-family="HelveticaNeue-Bold" font-weight="bold" font-size="23.0" fill="#000000" transform="matrix(1.00, 0.00, -0.00, -1.00, 351.3, 24.0)">n</text><text xml:space="preserve" font-family="HelveticaNeue-Bold" font-weight="bold" font-size="23.0" fill="#000000" transform="matrix(1.00, 0.00, -0.00, -1.00, 365.0, 24.0)">g</text><text xml:space="preserve" font-family="HelveticaNeue-Bold" font-weight="bold" font-size="23.0" fill="#000000" transform="matrix(1.00, 0.00, -0.00, -1.00, 379.0, 24.0)"> </text><text xml:space="preserve" font-family="HelveticaNeue-Bold" font-weight="bold" font-size="23.0" fill="#000000" transform="matrix(1.00, 0.00, -0.00, -1.00, 385.4, 24.0)">m</text><text xml:space="preserve" font-family="HelveticaNeue-Bold" font-weight="bold" font-size="23.0" fill="#000000" transform="matrix(1.00, 0.00, -0.00, -1.00, 406.3, 24.0)">i</text><text xml:space="preserve" font-family="HelveticaNeue-Bold" font-weight="bold" font-size="23.0" fill="#000000" transform="matrix(1.00, 0.00, -0.00, -1.00, 412.2, 24.0)">c</text><text xml:space="preserve" font-family="HelveticaNeue-Bold" font-weight="bold" font-size="23.0" fill="#000000" transform="matrix(1.00, 0.00, -0.00, -1.00, 425.4, 24.0)">r</text><text xml:space="preserve" font-family="HelveticaNeue-Bold" font-weight="bold" font-size="23.0" fill="#000000" transform="matrix(1.00, 0.00, -0.00, -1.00, 433.9, 24.0)">o</text><text xml:space="preserve" font-family="HelveticaNeue-Bold" font-weight="bold" font-size="23.0" fill="#000000" transform="matrix(1.00, 0.00, -0.00, -1.00, 448.0, 24.0)">s</text><text xml:space="preserve" font-family="HelveticaNeue-Bold" font-weight="bold" font-size="23.0" fill="#000000" transform="matrix(1.00, 0.00, -0.00, -1.00, 460.3, 24.0)">e</text><text xml:space="preserve" font-family="HelveticaNeue-Bold" font-weight="bold" font-size="23.0" fill="#000000" transform="matrix(1.00, 0.00, -0.00, -1.00, 473.5, 24.0)">r</text><text xml:space="preserve" font-family="HelveticaNeue-Bold" font-weight="bold" font-size="23.0" fill="#000000" transform="matrix(1.00, 0.00, -0.00, -1.00, 482.5, 24.0)">v</text><text xml:space="preserve" font-family="HelveticaNeue-Bold" font-weight="bold" font-size="23.0" fill="#000000" transform="matrix(1.00, 0.00, -0.00, -1.00, 494.4, 24.0)">i</text><text xml:space="preserve" font-family="HelveticaNeue-Bold" font-weight="bold" font-size="23.0" fill="#000000" transform="matrix(1.00, 0.00, -0.00, -1.00, 500.4, 24.0)">c</text><text xml:space="preserve" font-family="HelveticaNeue-Bold" font-weight="bold" font-size="23.0" fill="#000000" transform="matrix(1.00, 0.00, -0.00, -1.00, 513.6, 24.0)">e</text><text xml:space="preserve" font-family="HelveticaNeue-Bold" font-weight="bold" font-size="23.0" fill="#000000" transform="matrix(1.00, 0.00, -0.00, -1.00, 526.8, 24.0)">s</text><text xml:space="preserve" font-family="HelveticaNeue-Bold" font-weight="bold" font-size="23.0" fill="#000000" transform="matrix(1.00, 0.00, -0.00, -1.00, 539.1, 24.0)"> </text><text xml:space="preserve" font-family="HelveticaNeue-Bold" font-weight="bold" font-size="23.0" fill="#000000" transform="matrix(1.00, 0.00, -0.00, -1.00, 545.5, 24.0)">a</text><text xml:space="preserve" font-family="HelveticaNeue-Bold" font-weight="bold" font-size="23.0" fill="#000000" transform="matrix(1.00, 0.00, -0.00, -1.00, 558.7, 24.0)">n</text><text xml:space="preserve" font-family="HelveticaNeue-Bold" font-weight="bold" font-size="23.0" fill="#000000" transform="matrix(1.00, 0.00, -0.00, -1.00, 572.4, 24.0)">d</text><text xml:space="preserve" font-family="HelveticaNeue-Bold" font-weight="bold" font-size="23.0" fill="#000000" transform="matrix(1.00, 0.00, -0.00, -1.00, 586.4, 24.0)"> </text><text xml:space="preserve" font-family="HelveticaNeue-Bold" font-weight="bold" font-size="23.0" fill="#000000" transform="matrix(1.00, 0.00, -0.00, -1.00, 592.8, 24.0)">c</text><text xml:space="preserve" font-family="HelveticaNeue-Bold" font-weight="bold" font-size="23.0" fill="#000000" transform="matrix(1.00, 0.00, -0.00, -1.00, 606.0, 24.0)">o</text><text xml:space="preserve" font-family="HelveticaNeue-Bold" font-weight="bold" font-size="23.0" fill="#000000" transform="matrix(1.00, 0.00, -0.00, -1.00, 620.1, 24.0)">n</text><text xml:space="preserve" font-family="HelveticaNeue-Bold" font-weight="bold" font-size="23.0" fill="#000000" transform="matrix(1.00, 0.00, -0.00, -1.00, 633.7, 24.0)">t</text><text xml:space="preserve" font-family="HelveticaNeue-Bold" font-weight="bold" font-size="23.0" fill="#000000" transform="matrix(1.00, 0.00, -0.00, -1.00, 641.8, 24.0)">i</text><text xml:space="preserve" font-family="HelveticaNeue-Bold" font-weight="bold" font-size="23.0" fill="#000000" transform="matrix(1.00, 0.00, -0.00, -1.00, 647.7, 24.0)">n</text><text xml:space="preserve" font-family="HelveticaNeue-Bold" font-weight="bold" font-size="23.0" fill="#000000" transform="matrix(1.00, 0.00, -0.00, -1.00, 661.4, 24.0)">u</text><text xml:space="preserve" font-family="HelveticaNeue-Bold" font-weight="bold" font-size="23.0" fill="#000000" transform="matrix(1.00, 0.00, -0.00, -1.00, 675.0, 24.0)">o</text><text xml:space="preserve" font-family="HelveticaNeue-Bold" font-weight="bold" font-size="23.0" fill="#000000" transform="matrix(1.00, 0.00, -0.00, -1.00, 689.1, 24.0)">u</text><text xml:space="preserve" font-family="HelveticaNeue-Bold" font-weight="bold" font-size="23.0" fill="#000000" transform="matrix(1.00, 0.00, -0.00, -1.00, 702.7, 24.0)">s</text><text xml:space="preserve" font-family="HelveticaNeue-Bold" font-weight="bold" font-size="23.0" fill="#000000" transform="matrix(1.00, 0.00, -0.00, -1.00, 715.1, 24.0)"> </text><text xml:space="preserve" font-family="HelveticaNeue-Bold" font-weight="bold" font-size="23.0" fill="#000000" transform="matrix(1.00, 0.00, -0.00, -1.00, 721.4, 24.0)">d</text><text xml:space="preserve" font-family="HelveticaNeue-Bold" font-weight="bold" font-size="23.0" fill="#000000" transform="matrix(1.00, 0.00, -0.00, -1.00, 735.5, 24.0)">e</text><text xml:space="preserve" font-family="HelveticaNeue-Bold" font-weight="bold" font-size="23.0" fill="#000000" transform="matrix(1.00, 0.00, -0.00, -1.00, 748.7, 24.0)">l</text><text xml:space="preserve" font-family="HelveticaNeue-Bold" font-weight="bold" font-size="23.0" fill="#000000" transform="matrix(1.00, 0.00, -0.00, -1.00, 754.6, 24.0)">i</text><text xml:space="preserve" font-family="HelveticaNeue-Bold" font-weight="bold" font-size="23.0" fill="#000000" transform="matrix(1.00, 0.00, -0.00, -1.00, 760.6, 24.0)">v</text><text xml:space="preserve" font-family="HelveticaNeue-Bold" font-weight="bold" font-size="23.0" fill="#000000" transform="matrix(1.00, 0.00, -0.00, -1.00, 772.5, 24.0)">e</text><text xml:space="preserve" font-family="HelveticaNeue-Bold" font-weight="bold" font-size="23.0" fill="#000000" transform="matrix(1.00, 0.00, -0.00, -1.00, 785.7, 24.0)">r</text><text xml:space="preserve" font-family="HelveticaNeue-Bold" font-weight="bold" font-size="23.0" fill="#000000" transform="matrix(1.00, 0.00, -0.00, -1.00, 794.7, 24.0)">y</text><text xml:space="preserve" font-family="HelveticaNeue-Bold" font-weight="bold" font-size="23.0" fill="#000000" transform="matrix(1.00, 0.00, -0.00, -1.00, 806.6, 24.0)"> </text><text xml:space="preserve" font-family="HelveticaNeue-Bold" font-weight="bold" font-size="23.0" fill="#000000" transform="matrix(1.00, 0.00, -0.00, -1.00, 813.0, 24.0)">a</text><text xml:space="preserve" font-family="HelveticaNeue-Bold" font-weight="bold" font-size="23.0" fill="#000000" transform="matrix(1.00, 0.00, -0.00, -1.00, 826.2, 24.0)">t</text><text xml:space="preserve" font-family="HelveticaNeue-Bold" font-weight="bold" font-size="23.0" fill="#000000" transform="matrix(1.00, 0.00, -0.00, -1.00, 834.3, 24.0)"> </text><text xml:space="preserve" font-family="HelveticaNeue-Bold" font-weight="bold" font-size="23.0" fill="#000000" transform="matrix(1.00, 0.00, -0.00, -1.00, 840.7, 24.0)">t</text><text xml:space="preserve" font-family="HelveticaNeue-Bold" font-weight="bold" font-size="23.0" fill="#000000" transform="matrix(1.00, 0.00, -0.00, -1.00, 848.8, 24.0)">h</text><text xml:space="preserve" font-family="HelveticaNeue-Bold" font-weight="bold" font-size="23.0" fill="#000000" transform="matrix(1.00, 0.00, -0.00, -1.00, 862.4, 24.0)">e</text><text xml:space="preserve" font-family="HelveticaNeue-Bold" font-weight="bold" font-size="23.0" fill="#000000" transform="matrix(1.00, 0.00, -0.00, -1.00, 875.6, 24.0)"> </text><text xml:space="preserve" font-family="HelveticaNeue-Bold" font-weight="bold" font-size="23.0" fill="#000000" transform="matrix(1.00, 0.00, -0.00, -1.00, 882.0, 24.0)">B</text><text xml:space="preserve" font-family="HelveticaNeue-Bold" font-weight="bold" font-size="23.0" fill="#000000" transform="matrix(1.00, 0.00, -0.00, -1.00, 898.2, 24.0)">B</text><text xml:space="preserve" font-family="HelveticaNeue-Bold" font-weight="bold" font-size="23.0" fill="#000000" transform="matrix(1.00, 0.00, -0.00, -1.00, 914.4, 24.0)">C</text><image xlink:href="../../D0517147-4847-4A0F-8B98-32B995C105A1/assets/0BF8E63FE00997E10C4EC11A1CFD77DD.png" width="97.00" height="27.00" transform="matrix(1.00, 0.00, -0.00, -1.00, 1751.0, 44.0)"></image><image xlink:href="../../5C4226AA-24D9-4DA4-975B-1AFDFB2C0CA3/assets/96AA95094ED08B6917D619F0FB0D9D8A.png" width="960.00" height="428.00" transform="matrix(2.00, 0.00, -0.00, -2.00, 0.0, 1037.0)"></image></g></svg>