<?xml version="1.0" encoding="UTF-8" standalone="no"?><svg xmlns="http://www.w3.org/2000/svg" xmlns:xlink="http://www.w3.org/1999/xlink" clip-rule="evenodd" stroke-miterlimit="4.00" viewBox="0 0 1920 1080"><desc>SVG generated by Keynote</desc><defs><radialGradient id="gradSh1.8" cx="0.0" cy="-3.7" r="21.1" fx="0.0" fy="-3.7" gradientUnits="userSpaceOnUse" gradientTransform="matrix(1.81, 0.00, 0.00, -1.80, 285.8, 681.8)"><stop offset="0.00000" stop-color="#FFFFFF"></stop><stop offset="0.00880" stop-color="#FEFEFE"></stop><stop offset="1.00000" stop-color="#AAAAAA"></stop></radialGradient><radialGradient id="gradSh2.9" cx="0.0" cy="0.0" r="12.9" fx="0.0" fy="0.0" gradientUnits="userSpaceOnUse" gradientTransform="matrix(1.81, 0.00, 0.00, -1.80, 285.8, 719.6)"><stop offset="0.00000" stop-color="#FFFFFF"></stop><stop offset="0.01466" stop-color="#FEFEFE"></stop><stop offset="1.00000" stop-color="#CECECE"></stop></radialGradient><radialGradient id="gradSh3.10" cx="0.0" cy="-3.7" r="21.1" fx="0.0" fy="-3.7" gradientUnits="userSpaceOnUse" gradientTransform="matrix(1.81, 0.00, 0.00, -1.80, 285.8, 408.7)"><stop offset="0.00000" stop-color="#FFFFFF"></stop><stop offset="0.00880" stop-color="#FEFEFE"></stop><stop offset="1.00000" stop-color="#AAAAAA"></stop></radialGradient><radialGradient id="gradSh4.11" cx="0.0" cy="0.0" r="12.9" fx="0.0" fy="0.0" gradientUnits="userSpaceOnUse" gradientTransform="matrix(1.81, 0.00, 0.00, -1.80, 285.8, 446.4)"><stop offset="0.00000" stop-color="#FFFFFF"></stop><stop offset="0.01466" stop-color="#FEFEFE"></stop><stop offset="1.00000" stop-color="#CECECE"></stop></radialGradient></defs><g transform="matrix(1.00, 0.00, -0.00, -1.00, 0.0, 1080.0)"><path d="M 0.0 1080.0 L 1920.0 1080.0 L 1920.0 0.0 L 0.0 0.0 Z M 0.0 1080.0 " fill="#EEEDED"></path><path d="M 0.0 0.0 L 1836.0 0.0 " fill="none" stroke="#000000" stroke-width="2.00" transform="matrix(1.00, 0.00, 0.00, -1.00, 41.0, 58.0)"></path><text xml:space="preserve" font-family="HelveticaNeue-Bold" font-weight="bold" font-size="23.0" fill="#000000" transform="matrix(1.00, 0.00, -0.00, -1.00, 61.0, 24.0)">D</text><text xml:space="preserve" font-family="HelveticaNeue-Bold" font-weight="bold" font-size="23.0" fill="#000000" transform="matrix(1.00, 0.00, -0.00, -1.00, 78.0, 24.0)">i</text><text xml:space="preserve" font-family="HelveticaNeue-Bold" font-weight="bold" font-size="23.0" fill="#000000" transform="matrix(1.00, 0.00, -0.00, -1.00, 84.0, 24.0)">s</text><text xml:space="preserve" font-family="HelveticaNeue-Bold" font-weight="bold" font-size="23.0" fill="#000000" transform="matrix(1.00, 0.00, -0.00, -1.00, 96.3, 24.0)">m</text><text xml:space="preserve" font-family="HelveticaNeue-Bold" font-weight="bold" font-size="23.0" fill="#000000" transform="matrix(1.00, 0.00, -0.00, -1.00, 117.2, 24.0)">a</text><text xml:space="preserve" font-family="HelveticaNeue-Bold" font-weight="bold" font-size="23.0" fill="#000000" transform="matrix(1.00, 0.00, -0.00, -1.00, 130.4, 24.0)">n</text><text xml:space="preserve" font-family="HelveticaNeue-Bold" font-weight="bold" font-size="23.0" fill="#000000" transform="matrix(1.00, 0.00, -0.00, -1.00, 144.0, 24.0)">t</text><text xml:space="preserve" font-family="HelveticaNeue-Bold" font-weight="bold" font-size="23.0" fill="#000000" transform="matrix(1.00, 0.00, -0.00, -1.00, 152.1, 24.0)">l</text><text xml:space="preserve" font-family="HelveticaNeue-Bold" font-weight="bold" font-size="23.0" fill="#000000" transform="matrix(1.00, 0.00, -0.00, -1.00, 158.0, 24.0)">i</text><text xml:space="preserve" font-family="HelveticaNeue-Bold" font-weight="bold" font-size="23.0" fill="#000000" transform="matrix(1.00, 0.00, -0.00, -1.00, 164.0, 24.0)">n</text><text xml:space="preserve" font-family="HelveticaNeue-Bold" font-weight="bold" font-size="23.0" fill="#000000" transform="matrix(1.00, 0.00, -0.00, -1.00, 177.6, 24.0)">g</text><text xml:space="preserve" font-family="HelveticaNeue-Bold" font-weight="bold" font-size="23.0" fill="#000000" transform="matrix(1.00, 0.00, -0.00, -1.00, 191.7, 24.0)"> </text><text xml:space="preserve" font-family="HelveticaNeue-Bold" font-weight="bold" font-size="23.0" fill="#000000" transform="matrix(1.00, 0.00, -0.00, -1.00, 198.1, 24.0)">M</text><text xml:space="preserve" font-family="HelveticaNeue-Bold" font-weight="bold" font-size="23.0" fill="#000000" transform="matrix(1.00, 0.00, -0.00, -1.00, 218.9, 24.0)">o</text><text xml:space="preserve" font-family="HelveticaNeue-Bold" font-weight="bold" font-size="23.0" fill="#000000" transform="matrix(1.00, 0.00, -0.00, -1.00, 233.0, 24.0)">n</text><text xml:space="preserve" font-family="HelveticaNeue-Bold" font-weight="bold" font-size="23.0" fill="#000000" transform="matrix(1.00, 0.00, -0.00, -1.00, 246.6, 24.0)">o</text><text xml:space="preserve" font-family="HelveticaNeue-Bold" font-weight="bold" font-size="23.0" fill="#000000" transform="matrix(1.00, 0.00, -0.00, -1.00, 260.7, 24.0)">l</text><text xml:space="preserve" font-family="HelveticaNeue-Bold" font-weight="bold" font-size="23.0" fill="#000000" transform="matrix(1.00, 0.00, -0.00, -1.00, 266.6, 24.0)">i</text><text xml:space="preserve" font-family="HelveticaNeue-Bold" font-weight="bold" font-size="23.0" fill="#000000" transform="matrix(1.00, 0.00, -0.00, -1.00, 272.5, 24.0)">t</text><text xml:space="preserve" font-family="HelveticaNeue-Bold" font-weight="bold" font-size="23.0" fill="#000000" transform="matrix(1.00, 0.00, -0.00, -1.00, 280.6, 24.0)">h</text><text xml:space="preserve" font-family="HelveticaNeue-Bold" font-weight="bold" font-size="23.0" fill="#000000" transform="matrix(1.00, 0.00, -0.00, -1.00, 294.3, 24.0)">s</text><text xml:space="preserve" font-family="HelveticaNeue-Bold" font-weight="bold" font-size="23.0" fill="#000000" transform="matrix(1.00, 0.00, -0.00, -1.00, 306.6, 24.0)">:</text><text xml:space="preserve" font-family="HelveticaNeue-Bold" font-weight="bold" font-size="23.0" fill="#000000" transform="matrix(1.00, 0.00, -0.00, -1.00, 313.0, 24.0)"> </text><text xml:space="preserve" font-family="HelveticaNeue-Bold" font-weight="bold" font-size="23.0" fill="#000000" transform="matrix(1.00, 0.00, -0.00, -1.00, 319.4, 24.0)">u</text><text xml:space="preserve" font-family="HelveticaNeue-Bold" font-weight="bold" font-size="23.0" fill="#000000" transform="matrix(1.00, 0.00, -0.00, -1.00, 333.0, 24.0)">s</text><text xml:space="preserve" font-family="HelveticaNeue-Bold" font-weight="bold" font-size="23.0" fill="#000000" transform="matrix(1.00, 0.00, -0.00, -1.00, 345.4, 24.0)">i</text><text xml:space="preserve" font-family="HelveticaNeue-Bold" font-weight="bold" font-size="23.0" fill="#000000" transform="matrix(1.00, 0.00, -0.00, -1.00, 351.3, 24.0)">n</text><text xml:space="preserve" font-family="HelveticaNeue-Bold" font-weight="bold" font-size="23.0" fill="#000000" transform="matrix(1.00, 0.00, -0.00, -1.00, 365.0, 24.0)">g</text><text xml:space="preserve" font-family="HelveticaNeue-Bold" font-weight="bold" font-size="23.0" fill="#000000" transform="matrix(1.00, 0.00, -0.00, -1.00, 379.0, 24.0)"> </text><text xml:space="preserve" font-family="HelveticaNeue-Bold" font-weight="bold" font-size="23.0" fill="#000000" transform="matrix(1.00, 0.00, -0.00, -1.00, 385.4, 24.0)">m</text><text xml:space="preserve" font-family="HelveticaNeue-Bold" font-weight="bold" font-size="23.0" fill="#000000" transform="matrix(1.00, 0.00, -0.00, -1.00, 406.3, 24.0)">i</text><text xml:space="preserve" font-family="HelveticaNeue-Bold" font-weight="bold" font-size="23.0" fill="#000000" transform="matrix(1.00, 0.00, -0.00, -1.00, 412.2, 24.0)">c</text><text xml:space="preserve" font-family="HelveticaNeue-Bold" font-weight="bold" font-size="23.0" fill="#000000" transform="matrix(1.00, 0.00, -0.00, -1.00, 425.4, 24.0)">r</text><text xml:space="preserve" font-family="HelveticaNeue-Bold" font-weight="bold" font-size="23.0" fill="#000000" transform="matrix(1.00, 0.00, -0.00, -1.00, 433.9, 24.0)">o</text><text xml:space="preserve" font-family="HelveticaNeue-Bold" font-weight="bold" font-size="23.0" fill="#000000" transform="matrix(1.00, 0.00, -0.00, -1.00, 448.0, 24.0)">s</text><text xml:space="preserve" font-family="HelveticaNeue-Bold" font-weight="bold" font-size="23.0" fill="#000000" transform="matrix(1.00, 0.00, -0.00, -1.00, 460.3, 24.0)">e</text><text xml:space="preserve" font-family="HelveticaNeue-Bold" font-weight="bold" font-size="23.0" fill="#000000" transform="matrix(1.00, 0.00, -0.00, -1.00, 473.5, 24.0)">r</text><text xml:space="preserve" font-family="HelveticaNeue-Bold" font-weight="bold" font-size="23.0" fill="#000000" transform="matrix(1.00, 0.00, -0.00, -1.00, 482.5, 24.0)">v</text><text xml:space="preserve" font-family="HelveticaNeue-Bold" font-weight="bold" font-size="23.0" fill="#000000" transform="matrix(1.00, 0.00, -0.00, -1.00, 494.4, 24.0)">i</text><text xml:space="preserve" font-family="HelveticaNeue-Bold" font-weight="bold" font-size="23.0" fill="#000000" transform="matrix(1.00, 0.00, -0.00, -1.00, 500.4, 24.0)">c</text><text xml:space="preserve" font-family="HelveticaNeue-Bold" font-weight="bold" font-size="23.0" fill="#000000" transform="matrix(1.00, 0.00, -0.00, -1.00, 513.6, 24.0)">e</text><text xml:space="preserve" font-family="HelveticaNeue-Bold" font-weight="bold" font-size="23.0" fill="#000000" transform="matrix(1.00, 0.00, -0.00, -1.00, 526.8, 24.0)">s</text><text xml:space="preserve" font-family="HelveticaNeue-Bold" font-weight="bold" font-size="23.0" fill="#000000" transform="matrix(1.00, 0.00, -0.00, -1.00, 539.1, 24.0)"> </text><text xml:space="preserve" font-family="HelveticaNeue-Bold" font-weight="bold" font-size="23.0" fill="#000000" transform="matrix(1.00, 0.00, -0.00, -1.00, 545.5, 24.0)">a</text><text xml:space="preserve" font-family="HelveticaNeue-Bold" font-weight="bold" font-size="23.0" fill="#000000" transform="matrix(1.00, 0.00, -0.00, -1.00, 558.7, 24.0)">n</text><text xml:space="preserve" font-family="HelveticaNeue-Bold" font-weight="bold" font-size="23.0" fill="#000000" transform="matrix(1.00, 0.00, -0.00, -1.00, 572.4, 24.0)">d</text><text xml:space="preserve" font-family="HelveticaNeue-Bold" font-weight="bold" font-size="23.0" fill="#000000" transform="matrix(1.00, 0.00, -0.00, -1.00, 586.4, 24.0)"> </text><text xml:space="preserve" font-family="HelveticaNeue-Bold" font-weight="bold" font-size="23.0" fill="#000000" transform="matrix(1.00, 0.00, -0.00, -1.00, 592.8, 24.0)">c</text><text xml:space="preserve" font-family="HelveticaNeue-Bold" font-weight="bold" font-size="23.0" fill="#000000" transform="matrix(1.00, 0.00, -0.00, -1.00, 606.0, 24.0)">o</text><text xml:space="preserve" font-family="HelveticaNeue-Bold" font-weight="bold" font-size="23.0" fill="#000000" transform="matrix(1.00, 0.00, -0.00, -1.00, 620.1, 24.0)">n</text><text xml:space="preserve" font-family="HelveticaNeue-Bold" font-weight="bold" font-size="23.0" fill="#000000" transform="matrix(1.00, 0.00, -0.00, -1.00, 633.7, 24.0)">t</text><text xml:space="preserve" font-family="HelveticaNeue-Bold" font-weight="bold" font-size="23.0" fill="#000000" transform="matrix(1.00, 0.00, -0.00, -1.00, 641.8, 24.0)">i</text><text xml:space="preserve" font-family="HelveticaNeue-Bold" font-weight="bold" font-size="23.0" fill="#000000" transform="matrix(1.00, 0.00, -0.00, -1.00, 647.7, 24.0)">n</text><text xml:space="preserve" font-family="HelveticaNeue-Bold" font-weight="bold" font-size="23.0" fill="#000000" transform="matrix(1.00, 0.00, -0.00, -1.00, 661.4, 24.0)">u</text><text xml:space="preserve" font-family="HelveticaNeue-Bold" font-weight="bold" font-size="23.0" fill="#000000" transform="matrix(1.00, 0.00, -0.00, -1.00, 675.0, 24.0)">o</text><text xml:space="preserve" font-family="HelveticaNeue-Bold" font-weight="bold" font-size="23.0" fill="#000000" transform="matrix(1.00, 0.00, -0.00, -1.00, 689.1, 24.0)">u</text><text xml:space="preserve" font-family="HelveticaNeue-Bold" font-weight="bold" font-size="23.0" fill="#000000" transform="matrix(1.00, 0.00, -0.00, -1.00, 702.7, 24.0)">s</text><text xml:space="preserve" font-family="HelveticaNeue-Bold" font-weight="bold" font-size="23.0" fill="#000000" transform="matrix(1.00, 0.00, -0.00, -1.00, 715.1, 24.0)"> </text><text xml:space="preserve" font-family="HelveticaNeue-Bold" font-weight="bold" font-size="23.0" fill="#000000" transform="matrix(1.00, 0.00, -0.00, -1.00, 721.4, 24.0)">d</text><text xml:space="preserve" font-family="HelveticaNeue-Bold" font-weight="bold" font-size="23.0" fill="#000000" transform="matrix(1.00, 0.00, -0.00, -1.00, 735.5, 24.0)">e</text><text xml:space="preserve" font-family="HelveticaNeue-Bold" font-weight="bold" font-size="23.0" fill="#000000" transform="matrix(1.00, 0.00, -0.00, -1.00, 748.7, 24.0)">l</text><text xml:space="preserve" font-family="HelveticaNeue-Bold" font-weight="bold" font-size="23.0" fill="#000000" transform="matrix(1.00, 0.00, -0.00, -1.00, 754.6, 24.0)">i</text><text xml:space="preserve" font-family="HelveticaNeue-Bold" font-weight="bold" font-size="23.0" fill="#000000" transform="matrix(1.00, 0.00, -0.00, -1.00, 760.6, 24.0)">v</text><text xml:space="preserve" font-family="HelveticaNeue-Bold" font-weight="bold" font-size="23.0" fill="#000000" transform="matrix(1.00, 0.00, -0.00, -1.00, 772.5, 24.0)">e</text><text xml:space="preserve" font-family="HelveticaNeue-Bold" font-weight="bold" font-size="23.0" fill="#000000" transform="matrix(1.00, 0.00, -0.00, -1.00, 785.7, 24.0)">r</text><text xml:space="preserve" font-family="HelveticaNeue-Bold" font-weight="bold" font-size="23.0" fill="#000000" transform="matrix(1.00, 0.00, -0.00, -1.00, 794.7, 24.0)">y</text><text xml:space="preserve" font-family="HelveticaNeue-Bold" font-weight="bold" font-size="23.0" fill="#000000" transform="matrix(1.00, 0.00, -0.00, -1.00, 806.6, 24.0)"> </text><text xml:space="preserve" font-family="HelveticaNeue-Bold" font-weight="bold" font-size="23.0" fill="#000000" transform="matrix(1.00, 0.00, -0.00, -1.00, 813.0, 24.0)">a</text><text xml:space="preserve" font-family="HelveticaNeue-Bold" font-weight="bold" font-size="23.0" fill="#000000" transform="matrix(1.00, 0.00, -0.00, -1.00, 826.2, 24.0)">t</text><text xml:space="preserve" font-family="HelveticaNeue-Bold" font-weight="bold" font-size="23.0" fill="#000000" transform="matrix(1.00, 0.00, -0.00, -1.00, 834.3, 24.0)"> </text><text xml:space="preserve" font-family="HelveticaNeue-Bold" font-weight="bold" font-size="23.0" fill="#000000" transform="matrix(1.00, 0.00, -0.00, -1.00, 840.7, 24.0)">t</text><text xml:space="preserve" font-family="HelveticaNeue-Bold" font-weight="bold" font-size="23.0" fill="#000000" transform="matrix(1.00, 0.00, -0.00, -1.00, 848.8, 24.0)">h</text><text xml:space="preserve" font-family="HelveticaNeue-Bold" font-weight="bold" font-size="23.0" fill="#000000" transform="matrix(1.00, 0.00, -0.00, -1.00, 862.4, 24.0)">e</text><text xml:space="preserve" font-family="HelveticaNeue-Bold" font-weight="bold" font-size="23.0" fill="#000000" transform="matrix(1.00, 0.00, -0.00, -1.00, 875.6, 24.0)"> </text><text xml:space="preserve" font-family="HelveticaNeue-Bold" font-weight="bold" font-size="23.0" fill="#000000" transform="matrix(1.00, 0.00, -0.00, -1.00, 882.0, 24.0)">B</text><text xml:space="preserve" font-family="HelveticaNeue-Bold" font-weight="bold" font-size="23.0" fill="#000000" transform="matrix(1.00, 0.00, -0.00, -1.00, 898.2, 24.0)">B</text><text xml:space="preserve" font-family="HelveticaNeue-Bold" font-weight="bold" font-size="23.0" fill="#000000" transform="matrix(1.00, 0.00, -0.00, -1.00, 914.4, 24.0)">C</text><image xlink:href="../../D0517147-4847-4A0F-8B98-32B995C105A1/assets/0BF8E63FE00997E10C4EC11A1CFD77DD.png" width="97.00" height="27.00" transform="matrix(1.00, 0.00, -0.00, -1.00, 1751.0, 44.0)"></image><g><clipPath id="clip-423"><path d="M 254.0 334.0 L 1057.5 334.0 L 1057.5 855.0 L 254.0 855.0 Z M 254.0 334.0 "></path></clipPath><g clip-path="url(#clip-423)"><image xlink:href="../../4FCD9C79-DF15-4316-920B-DFD2B6438E2C/assets/2B41043A3B2CA65F36BF2AA6DC41BE6B.png" width="36.00" height="40.00" transform="matrix(1.81, 0.00, -0.00, 1.80, 254.0, 640.5)"></image><image xlink:href="../../4FCD9C79-DF15-4316-920B-DFD2B6438E2C/assets/3DB28A22D15FE1C53D331DF13ADD08C9.png" width="31.00" height="31.00" transform="matrix(1.81, 0.00, -0.00, 1.80, 257.6, 687.3)"></image><image xlink:href="../../4FCD9C79-DF15-4316-920B-DFD2B6438E2C/assets/1138134286EC4229D6CE764D0F91F864.png" width="36.00" height="40.00" transform="matrix(1.81, 0.00, -0.00, 1.80, 254.0, 368.3)"></image><image xlink:href="../../4FCD9C79-DF15-4316-920B-DFD2B6438E2C/assets/6DADEAE7319271CA06D87879EB36238A.png" width="31.00" height="31.00" transform="matrix(1.81, 0.00, -0.00, 1.80, 257.6, 415.1)"></image><path d="M 476.2 757.7 L 607.6 757.7 C 623.2 757.7 635.8 723.3 635.8 681.0 C 635.8 638.7 623.2 604.4 607.6 604.4 L 476.2 604.4 C 460.6 604.4 448.0 638.7 448.0 681.0 C 448.0 723.3 460.6 757.7 476.2 757.7 " fill="#FEFFFF"></path><path d="M 215.6 163.5 L 288.4 163.5 C 297.0 163.0 304.0 182.0 304.0 205.5 C 304.0 229.0 297.0 248.0 288.4 248.5 L 215.6 248.5 C 207.0 248.0 200.0 229.0 200.0 205.5 C 200.0 182.0 207.0 163.0 215.6 163.0 " fill="none" stroke="#000000" stroke-width="1.00" stroke-miterlimit="0.00" stroke-linecap="round" stroke-linejoin="round" transform="matrix(1.81, 0.00, 0.00, -1.80, 86.9, 1051.5)"></path><text xml:space="preserve" font-family="Helvetica" font-size="12.0" fill="#000000" transform="matrix(1.81, 0.00, -0.00, -1.80, 495.7, 686.4)">P</text><text xml:space="preserve" font-family="Helvetica" font-size="12.0" fill="#000000" transform="matrix(1.81, 0.00, -0.00, -1.80, 510.2, 686.4)">H</text><text xml:space="preserve" font-family="Helvetica" font-size="12.0" fill="#000000" transform="matrix(1.81, 0.00, -0.00, -1.80, 525.8, 686.4)">P</text><text xml:space="preserve" font-family="Helvetica" font-size="12.0" fill="#000000" transform="matrix(1.81, 0.00, -0.00, -1.80, 539.9, 686.4)"> </text><text xml:space="preserve" font-family="Helvetica" font-size="12.0" fill="#000000" transform="matrix(1.81, 0.00, -0.00, -1.80, 545.9, 686.4)">f</text><text xml:space="preserve" font-family="Helvetica" font-size="12.0" fill="#000000" transform="matrix(1.81, 0.00, -0.00, -1.80, 551.9, 686.4)">o</text><text xml:space="preserve" font-family="Helvetica" font-size="12.0" fill="#000000" transform="matrix(1.81, 0.00, -0.00, -1.80, 564.0, 686.4)">o</text><text xml:space="preserve" font-family="Helvetica" font-size="12.0" fill="#000000" transform="matrix(1.81, 0.00, -0.00, -1.80, 576.0, 686.4)">d</text><text xml:space="preserve" font-family="Helvetica" font-size="12.0" fill="#000000" transform="matrix(1.81, 0.00, -0.00, -1.80, 588.1, 686.4)"> </text><text xml:space="preserve" font-family="Helvetica" font-size="12.0" fill="#000000" transform="matrix(1.81, 0.00, -0.00, -1.80, 490.1, 661.2)">a</text><text xml:space="preserve" font-family="Helvetica" font-size="12.0" fill="#000000" transform="matrix(1.81, 0.00, -0.00, -1.80, 502.2, 661.2)">p</text><text xml:space="preserve" font-family="Helvetica" font-size="12.0" fill="#000000" transform="matrix(1.81, 0.00, -0.00, -1.80, 514.2, 661.2)">p</text><text xml:space="preserve" font-family="Helvetica" font-size="12.0" fill="#000000" transform="matrix(1.81, 0.00, -0.00, -1.80, 526.3, 661.2)">l</text><text xml:space="preserve" font-family="Helvetica" font-size="12.0" fill="#000000" transform="matrix(1.81, 0.00, -0.00, -1.80, 531.1, 661.2)">i</text><text xml:space="preserve" font-family="Helvetica" font-size="12.0" fill="#000000" transform="matrix(1.81, 0.00, -0.00, -1.80, 535.9, 661.2)">c</text><text xml:space="preserve" font-family="Helvetica" font-size="12.0" fill="#000000" transform="matrix(1.81, 0.00, -0.00, -1.80, 546.7, 661.2)">a</text><text xml:space="preserve" font-family="Helvetica" font-size="12.0" fill="#000000" transform="matrix(1.81, 0.00, -0.00, -1.80, 558.8, 661.2)">t</text><text xml:space="preserve" font-family="Helvetica" font-size="12.0" fill="#000000" transform="matrix(1.81, 0.00, -0.00, -1.80, 564.8, 661.2)">i</text><text xml:space="preserve" font-family="Helvetica" font-size="12.0" fill="#000000" transform="matrix(1.81, 0.00, -0.00, -1.80, 569.6, 661.2)">o</text><text xml:space="preserve" font-family="Helvetica" font-size="12.0" fill="#000000" transform="matrix(1.81, 0.00, -0.00, -1.80, 581.7, 661.2)">n</text><path d="M 476.2 490.8 L 607.6 490.8 C 623.2 490.8 635.8 456.5 635.8 414.2 C 635.8 371.9 623.2 337.6 607.6 337.6 L 476.2 337.6 C 460.6 337.6 448.0 371.9 448.0 414.2 C 448.0 456.5 460.6 490.8 476.2 490.8 " fill="#FEFFFF"></path><path d="M 215.6 311.5 L 288.4 311.5 C 297.0 311.0 304.0 330.0 304.0 353.5 C 304.0 377.0 297.0 396.0 288.4 396.5 L 215.6 396.5 C 207.0 396.0 200.0 377.0 200.0 353.5 C 200.0 330.0 207.0 311.0 215.6 311.0 " fill="none" stroke="#000000" stroke-width="1.00" stroke-miterlimit="0.00" stroke-linecap="round" stroke-linejoin="round" transform="matrix(1.81, 0.00, 0.00, -1.80, 86.9, 1051.5)"></path><text xml:space="preserve" font-family="Helvetica" font-size="12.0" fill="#000000" transform="matrix(1.81, 0.00, -0.00, -1.80, 512.4, 419.6)">a</text><text xml:space="preserve" font-family="Helvetica" font-size="12.0" fill="#000000" transform="matrix(1.81, 0.00, -0.00, -1.80, 524.4, 419.6)">d</text><text xml:space="preserve" font-family="Helvetica" font-size="12.0" fill="#000000" transform="matrix(1.81, 0.00, -0.00, -1.80, 536.5, 419.6)">m</text><text xml:space="preserve" font-family="Helvetica" font-size="12.0" fill="#000000" transform="matrix(1.81, 0.00, -0.00, -1.80, 554.5, 419.6)">i</text><text xml:space="preserve" font-family="Helvetica" font-size="12.0" fill="#000000" transform="matrix(1.81, 0.00, -0.00, -1.80, 559.4, 419.6)">n</text><text xml:space="preserve" font-family="Helvetica" font-size="12.0" fill="#000000" transform="matrix(1.81, 0.00, -0.00, -1.80, 571.4, 419.6)"> </text><text xml:space="preserve" font-family="Helvetica" font-size="12.0" fill="#000000" transform="matrix(1.81, 0.00, -0.00, -1.80, 490.1, 394.4)">a</text><text xml:space="preserve" font-family="Helvetica" font-size="12.0" fill="#000000" transform="matrix(1.81, 0.00, -0.00, -1.80, 502.2, 394.4)">p</text><text xml:space="preserve" font-family="Helvetica" font-size="12.0" fill="#000000" transform="matrix(1.81, 0.00, -0.00, -1.80, 514.2, 394.4)">p</text><text xml:space="preserve" font-family="Helvetica" font-size="12.0" fill="#000000" transform="matrix(1.81, 0.00, -0.00, -1.80, 526.3, 394.4)">l</text><text xml:space="preserve" font-family="Helvetica" font-size="12.0" fill="#000000" transform="matrix(1.81, 0.00, -0.00, -1.80, 531.1, 394.4)">i</text><text xml:space="preserve" font-family="Helvetica" font-size="12.0" fill="#000000" transform="matrix(1.81, 0.00, -0.00, -1.80, 535.9, 394.4)">c</text><text xml:space="preserve" font-family="Helvetica" font-size="12.0" fill="#000000" transform="matrix(1.81, 0.00, -0.00, -1.80, 546.7, 394.4)">a</text><text xml:space="preserve" font-family="Helvetica" font-size="12.0" fill="#000000" transform="matrix(1.81, 0.00, -0.00, -1.80, 558.8, 394.4)">t</text><text xml:space="preserve" font-family="Helvetica" font-size="12.0" fill="#000000" transform="matrix(1.81, 0.00, -0.00, -1.80, 564.8, 394.4)">i</text><text xml:space="preserve" font-family="Helvetica" font-size="12.0" fill="#000000" transform="matrix(1.81, 0.00, -0.00, -1.80, 569.6, 394.4)">o</text><text xml:space="preserve" font-family="Helvetica" font-size="12.0" fill="#000000" transform="matrix(1.81, 0.00, -0.00, -1.80, 581.7, 394.4)">n</text><text xml:space="preserve" font-family="HelveticaNeue" font-size="16.0" fill="#000000" transform="matrix(1.81, 0.00, -0.00, -1.80, 504.9, 817.1)">F</text><text xml:space="preserve" font-family="HelveticaNeue" font-size="16.0" fill="#000000" transform="matrix(1.81, 0.00, -0.00, -1.80, 521.4, 817.1)">o</text><text xml:space="preserve" font-family="HelveticaNeue" font-size="16.0" fill="#000000" transform="matrix(1.81, 0.00, -0.00, -1.80, 538.0, 817.1)">r</text><text xml:space="preserve" font-family="HelveticaNeue" font-size="16.0" fill="#000000" transform="matrix(1.81, 0.00, -0.00, -1.80, 546.8, 817.1)">g</text><text xml:space="preserve" font-family="HelveticaNeue" font-size="16.0" fill="#000000" transform="matrix(1.81, 0.00, -0.00, -1.80, 563.4, 817.1)">e</text><text xml:space="preserve" font-family="HelveticaNeue" font-size="12.0" fill="#000000" transform="matrix(1.81, 0.00, -0.00, -1.80, 728.5, 634.2)">G</text><text xml:space="preserve" font-family="HelveticaNeue" font-size="12.0" fill="#000000" transform="matrix(1.81, 0.00, -0.00, -1.80, 744.9, 634.2)">E</text><text xml:space="preserve" font-family="HelveticaNeue" font-size="12.0" fill="#000000" transform="matrix(1.81, 0.00, -0.00, -1.80, 758.2, 634.2)">T</text><path d="M 302.7 222.3 L 437.6 266.9 " fill="none" stroke="#000000" stroke-width="1.00" stroke-miterlimit="0.00" stroke-linecap="round" stroke-linejoin="round" transform="matrix(1.81, 0.00, 0.00, -1.80, 86.9, 1051.5)"></path><path d="M 890.7 565.9 L 878.7 575.5 L 875.3 565.3 Z M 890.7 565.9 " fill="#000000"></path><path d="M 445.2 269.4 L 438.5 264.0 L 436.7 269.7 Z M 445.2 269.4 " fill="none" stroke="#000000" stroke-width="1.00" stroke-miterlimit="0.00" transform="matrix(1.81, 0.00, 0.00, -1.80, 86.9, 1051.5)"></path></g></g><g><clipPath id="clip-424"><path d="M 264.9 668.9 C 265.1 665.8 267.1 662.8 271.0 660.4 C 279.1 655.4 292.4 655.4 300.6 660.4 C 304.4 662.8 306.4 665.8 306.7 668.9 L 306.7 668.9 C 306.7 669.0 306.7 669.2 306.7 669.3 C 306.7 669.3 306.7 669.3 306.7 669.3 C 306.7 669.4 306.7 669.5 306.7 669.6 C 306.7 669.7 306.7 669.8 306.7 669.9 C 306.4 690.4 297.1 706.9 285.8 706.9 C 274.4 706.9 265.1 690.4 264.8 669.9 C 264.8 669.8 264.8 669.7 264.8 669.6 C 264.8 669.5 264.8 669.4 264.8 669.3 C 264.8 669.3 264.8 669.3 264.8 669.3 C 264.8 669.2 264.8 669.0 264.8 668.9 L 264.9 668.9 Z M 264.9 668.9 "></path></clipPath><g clip-path="url(#clip-424)"><g><clipPath id="clip-425"><path d="M 254.0 334.0 L 1057.5 334.0 L 1057.5 855.0 L 254.0 855.0 Z M 254.0 334.0 "></path></clipPath><g clip-path="url(#clip-425)"><path d="M 254.0 334.0 L 1057.5 334.0 L 1057.5 855.0 L 254.0 855.0 Z M 254.0 334.0 " fill="url(#gradSh1.8)"></path></g></g></g></g><g><clipPath id="clip-426"><path d="M 254.0 334.0 L 1057.5 334.0 L 1057.5 855.0 L 254.0 855.0 Z M 254.0 334.0 "></path></clipPath><g clip-path="url(#clip-426)"><path d="M 98.5 212.0 C 98.7 213.9 99.8 215.6 101.9 216.9 C 106.5 219.7 113.8 219.7 118.3 216.9 C 120.5 215.6 121.6 213.9 121.7 212.0 L 121.7 212.0 C 121.7 212.2 121.7 212.1 121.7 212.0 C 121.7 212.0 121.7 212.0 121.7 212.0 C 121.7 211.9 121.7 211.9 121.7 211.9 C 121.7 211.8 121.7 211.7 121.7 211.7 C 121.6 200.3 116.4 191.1 110.1 191.1 C 103.8 191.1 98.7 200.3 98.6 211.7 C 98.6 211.7 98.5 211.8 98.5 211.9 C 98.5 211.9 98.5 211.9 98.5 212.0 C 98.5 212.0 98.5 212.0 98.5 212.0 C 98.5 212.1 98.5 212.2 98.5 212.0 L 98.5 212.0 Z M 98.5 212.0 " fill="none" stroke="#000000" stroke-width="2.00" stroke-miterlimit="0.00" stroke-linecap="round" stroke-linejoin="round" transform="matrix(1.81, 0.00, 0.00, -1.80, 86.9, 1051.5)"></path></g></g><g><clipPath id="clip-427"><path d="M 297.4 731.2 C 303.9 724.8 303.9 714.3 297.4 707.9 C 291.0 701.5 280.5 701.5 274.1 707.9 C 267.7 714.3 267.7 724.8 274.1 731.2 C 280.5 737.6 291.0 737.6 297.4 731.2 "></path></clipPath><g clip-path="url(#clip-427)"><g><clipPath id="clip-428"><path d="M 254.0 334.0 L 1057.5 334.0 L 1057.5 855.0 L 254.0 855.0 Z M 254.0 334.0 "></path></clipPath><g clip-path="url(#clip-428)"><path d="M 254.0 334.0 L 1057.5 334.0 L 1057.5 855.0 L 254.0 855.0 Z M 254.0 334.0 " fill="url(#gradSh2.9)"></path></g></g></g></g><g><clipPath id="clip-429"><path d="M 254.0 334.0 L 1057.5 334.0 L 1057.5 855.0 L 254.0 855.0 Z M 254.0 334.0 "></path></clipPath><g clip-path="url(#clip-429)"><path d="M 116.6 177.7 C 120.2 181.2 120.2 187.0 116.6 190.6 C 113.0 194.2 107.2 194.2 103.7 190.6 C 100.1 187.0 100.1 181.2 103.7 177.7 C 107.2 174.1 113.0 174.1 116.6 177.7 " fill="none" stroke="#000000" stroke-width="2.00" stroke-miterlimit="0.00" stroke-linecap="round" stroke-linejoin="round" transform="matrix(1.81, 0.00, 0.00, -1.80, 86.9, 1051.5)"></path></g></g><g><clipPath id="clip-430"><path d="M 264.9 395.8 C 265.1 392.7 267.1 389.7 271.0 387.3 C 279.1 382.3 292.4 382.3 300.6 387.3 C 304.4 389.7 306.4 392.7 306.7 395.8 L 306.7 395.8 C 306.7 395.9 306.7 396.1 306.7 396.2 C 306.7 396.2 306.7 396.2 306.7 396.2 C 306.7 396.3 306.7 396.4 306.7 396.5 C 306.7 396.6 306.7 396.7 306.7 396.8 C 306.4 417.3 297.1 433.8 285.8 433.8 C 274.4 433.8 265.1 417.3 264.8 396.8 C 264.8 396.7 264.8 396.6 264.8 396.5 C 264.8 396.4 264.8 396.3 264.8 396.2 C 264.8 396.2 264.8 396.2 264.8 396.2 C 264.8 396.1 264.8 395.9 264.8 395.8 L 264.9 395.8 Z M 264.9 395.8 "></path></clipPath><g clip-path="url(#clip-430)"><g><clipPath id="clip-431"><path d="M 254.0 334.0 L 1057.5 334.0 L 1057.5 855.0 L 254.0 855.0 Z M 254.0 334.0 "></path></clipPath><g clip-path="url(#clip-431)"><path d="M 254.0 334.0 L 1057.5 334.0 L 1057.5 855.0 L 254.0 855.0 Z M 254.0 334.0 " fill="url(#gradSh3.10)"></path></g></g></g></g><g><clipPath id="clip-432"><path d="M 254.0 334.0 L 1057.5 334.0 L 1057.5 855.0 L 254.0 855.0 Z M 254.0 334.0 "></path></clipPath><g clip-path="url(#clip-432)"><path d="M 98.5 364.0 C 98.7 365.4 99.8 367.1 101.9 368.4 C 106.5 371.2 113.8 371.2 118.3 368.4 C 120.5 367.1 121.6 365.4 121.7 364.0 L 121.7 364.0 C 121.7 363.7 121.7 363.6 121.7 363.5 C 121.7 363.5 121.7 363.5 121.7 363.5 C 121.7 363.4 121.7 363.4 121.7 363.4 C 121.7 363.3 121.7 363.2 121.7 363.2 C 121.6 351.8 116.4 342.6 110.1 342.6 C 103.8 342.6 98.7 351.8 98.6 363.2 C 98.6 363.2 98.5 363.3 98.5 363.4 C 98.5 363.4 98.5 363.4 98.5 363.5 C 98.5 363.5 98.5 363.5 98.5 363.5 C 98.5 363.6 98.5 363.7 98.5 364.0 L 98.5 364.0 Z M 98.5 364.0 " fill="none" stroke="#000000" stroke-width="2.00" stroke-miterlimit="0.00" stroke-linecap="round" stroke-linejoin="round" transform="matrix(1.81, 0.00, 0.00, -1.80, 86.9, 1051.5)"></path></g></g><g><clipPath id="clip-433"><path d="M 297.4 458.1 C 303.9 451.6 303.9 441.2 297.4 434.8 C 291.0 428.4 280.5 428.4 274.1 434.8 C 267.7 441.2 267.7 451.6 274.1 458.1 C 280.5 464.5 291.0 464.5 297.4 458.1 "></path></clipPath><g clip-path="url(#clip-433)"><g><clipPath id="clip-434"><path d="M 254.0 334.0 L 1057.5 334.0 L 1057.5 855.0 L 254.0 855.0 Z M 254.0 334.0 "></path></clipPath><g clip-path="url(#clip-434)"><path d="M 254.0 334.0 L 1057.5 334.0 L 1057.5 855.0 L 254.0 855.0 Z M 254.0 334.0 " fill="url(#gradSh4.11)"></path></g></g></g></g><g><clipPath id="clip-435"><path d="M 254.0 334.0 L 1057.5 334.0 L 1057.5 855.0 L 254.0 855.0 Z M 254.0 334.0 "></path></clipPath><g clip-path="url(#clip-435)"><path d="M 116.6 329.2 C 120.2 332.7 120.2 338.5 116.6 342.1 C 113.0 345.7 107.2 345.7 103.7 342.1 C 100.1 338.5 100.1 332.7 103.7 329.2 C 107.2 325.6 113.0 325.6 116.6 329.2 " fill="none" stroke="#000000" stroke-width="2.00" stroke-miterlimit="0.00" stroke-linecap="round" stroke-linejoin="round" transform="matrix(1.81, 0.00, 0.00, -1.80, 86.9, 1051.5)"></path><path d="M 122.1 205.1 L 190.1 205.3 " fill="none" stroke="#000000" stroke-width="1.00" stroke-miterlimit="0.00" stroke-linecap="round" stroke-linejoin="round" transform="matrix(1.81, 0.00, 0.00, -1.80, 86.9, 1051.5)"></path><path d="M 444.6 681.3 L 430.1 686.8 L 430.1 676.0 Z M 444.6 681.3 " fill="#000000"></path><path d="M 198.1 205.3 L 190.1 202.3 L 190.1 208.3 Z M 198.1 205.3 " fill="none" stroke="#000000" stroke-width="1.00" stroke-miterlimit="0.00" transform="matrix(1.81, 0.00, 0.00, -1.80, 86.9, 1051.5)"></path><path d="M 122.0 356.3 L 190.1 354.8 " fill="none" stroke="#000000" stroke-width="1.00" stroke-miterlimit="0.00" stroke-linecap="round" stroke-linejoin="round" transform="matrix(1.81, 0.00, 0.00, -1.80, 86.9, 1051.5)"></path><path d="M 444.6 412.1 L 430.0 417.2 L 430.3 406.4 Z M 444.6 412.1 " fill="#000000"></path><path d="M 198.1 354.7 L 190.0 351.8 L 190.2 357.8 Z M 198.1 354.7 " fill="none" stroke="#000000" stroke-width="1.00" stroke-miterlimit="0.00" transform="matrix(1.81, 0.00, 0.00, -1.80, 86.9, 1051.5)"></path><path d="M 978.9 538.3 C 977.7 538.0 976.5 537.8 975.2 537.5 C 974.5 537.4 973.8 537.3 978.9 538.3 Z M 978.9 538.3 " fill="#20405E"></path><path d="M 975.8 627.9 C 992.7 627.9 1007.0 626.7 1018.9 624.9 C 1044.2 621.1 1057.7 614.5 1057.7 610.5 C 1057.7 606.4 1044.2 599.8 1018.9 596.0 C 1007.0 594.2 992.7 593.0 975.8 593.0 C 922.9 593.0 894.0 604.6 894.0 610.5 C 894.0 616.4 922.9 627.9 975.8 627.9 Z M 975.8 627.9 " fill="#666967"></path><path d="M 1057.7 610.5 L 1057.7 601.7 C 1057.7 597.6 1044.2 591.0 1018.9 587.2 C 1007.0 585.4 992.7 584.2 975.8 584.2 C 922.9 584.2 894.0 595.8 894.0 601.7 L 894.0 610.5 C 894.0 604.6 922.9 593.0 975.8 593.0 C 992.7 593.0 1007.0 594.2 1018.9 596.0 C 1044.2 599.8 1057.7 606.4 1057.7 610.5 Z M 1057.7 610.5 " fill="#414341"></path><path d="M 1057.7 610.5 L 1057.7 601.7 C 1057.7 601.5 1057.7 601.4 1057.7 601.3 L 1057.7 610.1 C 1057.7 610.2 1057.7 610.3 1057.7 610.5 Z M 1057.7 610.5 " fill="#414341"></path><path d="M 1057.7 610.1 L 1057.7 601.3 C 1057.7 601.1 1057.6 601.0 1057.5 600.8 L 1057.5 609.6 C 1057.6 609.8 1057.7 609.9 1057.7 610.1 Z M 1057.7 610.1 " fill="#414341"></path><path d="M 1057.5 609.6 L 1057.5 600.8 C 1057.4 600.6 1057.3 600.3 1057.1 600.1 L 1057.1 608.9 C 1057.3 609.1 1057.4 609.4 1057.5 609.6 Z M 1057.5 609.6 " fill="#414341"></path><path d="M 1057.1 608.9 L 1057.1 600.1 C 1054.2 596.0 1041.1 590.5 1018.9 587.2 C 1007.0 585.4 992.7 584.2 975.8 584.2 C 922.9 584.2 894.0 595.8 894.0 601.7 L 894.0 610.5 C 894.0 604.6 922.9 593.0 975.8 593.0 C 992.7 593.0 1007.0 594.2 1018.9 596.0 C 1041.1 599.3 1054.2 604.8 1057.1 608.9 Z M 1057.1 608.9 " fill="#414341"></path><path d="M 1057.6 477.9 C 1057.8 478.3 1057.9 478.7 1057.9 479.1 L 1057.9 464.9 C 1057.9 464.7 1057.9 464.5 1057.8 464.4 C 1057.8 464.2 1057.7 464.0 1057.6 463.7 L 1057.6 463.7 L 1057.6 463.6 C 1057.4 463.3 1057.3 463.1 1057.1 462.8 C 1057.1 462.7 1057.0 462.7 1056.9 462.6 C 1056.8 462.4 1056.6 462.2 1056.4 462.0 C 1056.2 461.8 1056.0 461.6 1055.7 461.3 C 1055.5 461.1 1055.2 460.9 1055.0 460.7 C 1054.7 460.5 1054.3 460.2 1054.0 460.0 C 1053.7 459.8 1053.4 459.6 1053.0 459.4 C 1052.6 459.1 1052.2 458.9 1051.7 458.6 C 1051.3 458.4 1051.0 458.2 1050.5 458.0 C 1050.0 457.7 1049.4 457.5 1048.9 457.2 C 1048.4 457.0 1048.0 456.8 1047.5 456.6 C 1046.8 456.3 1046.0 456.1 1045.2 455.8 C 1044.8 455.6 1044.4 455.4 1043.9 455.3 C 1042.7 454.9 1041.3 454.4 1039.9 454.0 C 1039.4 453.9 1038.9 453.7 1038.4 453.6 C 1037.3 453.3 1036.3 453.0 1035.1 452.8 C 1034.5 452.6 1033.7 452.5 1033.0 452.3 C 1032.0 452.1 1030.9 451.8 1029.8 451.6 C 1029.0 451.5 1028.2 451.3 1027.3 451.2 C 1026.2 451.0 1025.1 450.8 1023.9 450.6 C 1023.0 450.4 1022.1 450.3 1021.1 450.1 C 1019.9 450.0 1018.6 449.8 1017.3 449.6 C 1016.3 449.5 1015.3 449.4 1014.3 449.3 C 1012.9 449.1 1011.5 449.0 1010.0 448.9 C 1009.0 448.8 1007.9 448.7 1006.9 448.6 C 1005.3 448.4 1003.7 448.3 1002.0 448.2 C 1001.0 448.2 999.9 448.1 998.8 448.0 C 996.9 447.9 995.0 447.9 993.0 447.8 C 992.0 447.8 991.1 447.7 990.1 447.7 C 987.0 447.6 983.9 447.6 980.7 447.6 C 950.8 447.6 928.3 450.8 913.7 454.7 C 902.8 458.0 895.0 461.6 894.1 464.4 L 894.1 478.6 C 894.9 476.0 901.8 472.8 911.5 469.7 L 911.3 470.5 C 925.9 466.6 950.8 461.8 980.7 461.8 C 983.9 461.8 987.1 461.9 990.1 461.9 C 991.1 462.0 992.0 462.0 992.9 462.0 C 994.9 462.1 996.9 462.2 998.8 462.3 C 999.9 462.3 1000.9 462.4 1002.0 462.5 C 1003.6 462.6 1005.3 462.7 1006.9 462.8 C 1007.9 462.9 1008.9 463.0 1010.0 463.1 C 1011.5 463.2 1012.9 463.4 1014.4 463.5 C 1015.3 463.6 1016.3 463.7 1017.2 463.9 C 1018.6 464.0 1019.9 464.2 1021.3 464.4 L 1039.8 468.2 C 1041.3 468.6 1042.7 469.1 1044.0 469.5 L 1047.6 470.9 C 1047.9 471.0 1048.2 471.2 1048.5 471.3 C 1049.2 471.6 1050.0 471.9 1050.7 472.3 C 1051.0 472.4 1051.2 472.6 1051.5 472.7 C 1052.1 473.0 1052.6 473.3 1053.1 473.7 C 1053.4 473.8 1053.6 474.0 1053.9 474.1 C 1054.3 474.4 1054.7 474.7 1055.1 475.0 C 1055.3 475.2 1055.5 475.3 1055.7 475.5 C 1056.0 475.8 1056.3 476.1 1056.5 476.3 C 1056.6 476.5 1056.8 476.6 1056.9 476.8 Z M 1057.6 477.9 " fill="#414341"></path><path d="M 1017.9 581.8 C 1015.6 581.5 1013.4 581.2 1011.1 580.9 C 1010.0 580.8 1008.8 580.6 1007.6 580.5 C 1005.5 580.3 1003.4 580.1 1001.2 579.9 C 999.8 579.8 998.4 579.7 997.1 579.6 C 994.3 579.5 991.6 579.3 988.8 579.2 L 987.4 579.2 C 984.1 579.0 980.9 579.0 977.4 579.0 C 976.7 579.0 976.0 579.0 975.3 579.0 C 942.8 579.0 910.0 583.7 894.1 592.7 L 894.1 473.2 C 895.0 470.4 902.7 466.8 913.5 463.6 C 928.2 459.6 950.8 456.4 980.6 456.4 C 1035.2 456.4 1057.9 467.6 1057.9 473.7 L 1058.0 593.8 C 1049.5 588.8 1035.7 584.5 1017.9 581.8 Z M 1017.9 581.8 " fill="#666967"></path><text xml:space="preserve" font-family="Helvetica" font-size="12.0" fill="#000000" transform="matrix(1.81, 0.00, -0.00, -1.80, 932.7, 517.9)">K</text><text xml:space="preserve" font-family="Helvetica" font-size="12.0" fill="#000000" transform="matrix(1.81, 0.00, -0.00, -1.80, 947.1, 517.9)">V</text><text xml:space="preserve" font-family="Helvetica" font-size="12.0" fill="#000000" transform="matrix(1.81, 0.00, -0.00, -1.80, 961.6, 517.9)"> </text><text xml:space="preserve" font-family="Helvetica" font-size="12.0" fill="#000000" transform="matrix(1.81, 0.00, -0.00, -1.80, 967.6, 517.9)">S</text><text xml:space="preserve" font-family="Helvetica" font-size="12.0" fill="#000000" transform="matrix(1.81, 0.00, -0.00, -1.80, 982.1, 517.9)">t</text><text xml:space="preserve" font-family="Helvetica" font-size="12.0" fill="#000000" transform="matrix(1.81, 0.00, -0.00, -1.80, 988.1, 517.9)">o</text><text xml:space="preserve" font-family="Helvetica" font-size="12.0" fill="#000000" transform="matrix(1.81, 0.00, -0.00, -1.80, 1000.1, 517.9)">r</text><text xml:space="preserve" font-family="Helvetica" font-size="12.0" fill="#000000" transform="matrix(1.81, 0.00, -0.00, -1.80, 1007.3, 517.9)">e</text></g></g></g></svg>